<svg class="main-svg" xmlns="http://www.w3.org/2000/svg" xmlns:xlink="http://www.w3.org/1999/xlink" width="700" height="500" style="" viewBox="0 0 700 500"><rect x="0" y="0" width="700" height="500" style="fill: rgb(255, 255, 255); fill-opacity: 1;"/><defs id="defs-88d936"><g class="clips"><clipPath id="clip88d936xyplot" class="plotclip"><rect width="472" height="320"/></clipPath><clipPath class="axesclip" id="clip88d936x"><rect x="80" y="0" width="472" height="500"/></clipPath><clipPath class="axesclip" id="clip88d936y"><rect x="0" y="100" width="700" height="320"/></clipPath><clipPath class="axesclip" id="clip88d936xy"><rect x="80" y="100" width="472" height="320"/></clipPath></g><g class="gradients"/></defs><g class="bglayer"><rect class="bg" x="80" y="100" width="472" height="320" style="fill: rgb(229, 236, 246); fill-opacity: 1; stroke-width: 0;"/></g><g class="layer-below"><g class="imagelayer"/><g class="shapelayer"/></g><g class="cartesianlayer"><g class="subplot xy"><g class="layer-subplot"><g class="shapelayer"/><g class="imagelayer"/></g><g class="gridlayer"><g class="x"><path class="xgrid crisp" transform="translate(200.98000000000002,0)" d="M0,100v320" style="stroke: rgb(255, 255, 255); stroke-opacity: 1; stroke-width: 1px;"/><path class="xgrid crisp" transform="translate(321.97,0)" d="M0,100v320" style="stroke: rgb(255, 255, 255); stroke-opacity: 1; stroke-width: 1px;"/><path class="xgrid crisp" transform="translate(442.95,0)" d="M0,100v320" style="stroke: rgb(255, 255, 255); stroke-opacity: 1; stroke-width: 1px;"/></g><g class="y"><path class="ygrid crisp" transform="translate(0,395.75)" d="M80,0h472" style="stroke: rgb(255, 255, 255); stroke-opacity: 1; stroke-width: 1px;"/><path class="ygrid crisp" transform="translate(0,349.86)" d="M80,0h472" style="stroke: rgb(255, 255, 255); stroke-opacity: 1; stroke-width: 1px;"/><path class="ygrid crisp" transform="translate(0,303.98)" d="M80,0h472" style="stroke: rgb(255, 255, 255); stroke-opacity: 1; stroke-width: 1px;"/><path class="ygrid crisp" transform="translate(0,258.09000000000003)" d="M80,0h472" style="stroke: rgb(255, 255, 255); stroke-opacity: 1; stroke-width: 1px;"/><path class="ygrid crisp" transform="translate(0,212.20999999999998)" d="M80,0h472" style="stroke: rgb(255, 255, 255); stroke-opacity: 1; stroke-width: 1px;"/><path class="ygrid crisp" transform="translate(0,166.32)" d="M80,0h472" style="stroke: rgb(255, 255, 255); stroke-opacity: 1; stroke-width: 1px;"/><path class="ygrid crisp" transform="translate(0,120.44)" d="M80,0h472" style="stroke: rgb(255, 255, 255); stroke-opacity: 1; stroke-width: 1px;"/></g></g><g class="zerolinelayer"/><path class="xlines-below"/><path class="ylines-below"/><g class="overlines-below"/><g class="xaxislayer-below"/><g class="yaxislayer-below"/><g class="overaxes-below"/><g class="plot" transform="translate(80, 100)" clip-path="url('#clip88d936xyplot')"><g class="scatterlayer mlayer"><g class="trace scatter trace69f75d" style="stroke-miterlimit: 2; opacity: 1;"><g class="fills"/><g class="errorbars"/><g class="lines"><path class="js-line" d="M0,274.29L0.99,258.67L1.33,260.54L2.32,249.41L2.65,250.77L2.98,256.24L3.31,257.18L3.65,254.24L3.98,249.87L4.31,260.73L5.3,255.18L5.63,255.52L5.97,262.04L7.29,253.33L7.62,251.88L7.96,249.76L8.29,251.99L8.62,266.98L8.95,263.45L9.28,248.48L9.61,243.88L9.94,255.23L10.61,251.07L10.94,242.34L11.27,250.64L11.6,248.21L11.93,243.68L12.26,244.14L12.6,239.17L13.59,258.95L13.92,247.29L14.58,220.66L14.92,236.81L15.91,264.86L16.24,252.41L16.57,254.17L16.9,249.25L18.23,264.8L18.56,253.83L18.89,241.32L19.22,247.65L19.56,245.63L19.89,247.47L20.22,240.06L20.55,240.49L20.88,236.29L21.21,232.93L21.54,236.4L21.88,239.91L22.21,240.13L22.54,250.44L23.53,241.03L23.87,241.38L24.2,244.3L24.86,252.97L25.19,250.09L26.19,243.41L26.52,244.93L27.51,253.68L27.84,249.94L28.17,245.7L28.51,246.43L28.84,250.42L29.83,257.62L30.16,253.28L30.49,249.98L30.83,255.47L32.15,272.99L32.48,269.6L32.81,262.73L33.48,259.14L33.81,266.18L34.47,267.09L34.8,261.92L35.47,261.41L35.8,267.29L36.13,267.56L36.46,270.81L36.79,272.39L37.12,268.88L38.12,263.99L38.45,264.99L38.78,276.69L39.11,276.42L39.44,269.79L40.11,260.76L40.44,262.94L40.77,267.6L41.1,272.08L41.43,267.46L41.76,262.67L42.1,263.03L42.43,262.5L42.76,264.76L43.42,274.25L43.75,266.56L44.08,261.86L44.42,263.38L44.75,265.1L45.74,278.48L46.07,275.5L46.4,275.99L46.74,274.65L47.4,279.01L47.73,276.7L48.06,272.12L48.39,277.36L48.72,276.95L49.06,273.65L50.05,277.78L50.71,276.59L51.04,280.2L51.38,277L51.71,275.81L52.04,273.3L52.37,277.65L53.03,282.14L53.37,277.55L53.7,279.22L54.03,277.19L54.36,283.04L55.02,272.17L55.35,275.72L55.69,275.03L56.35,271.16L56.68,277.37L57.01,276.83L57.34,284.88L58.01,281.93L58.34,283.91L58.67,284.47L59,283.72L59.33,281.59L59.99,270.86L60.33,275.32L60.66,277L60.99,278.15L61.32,277.75L61.65,275.19L61.98,277.63L62.31,275.57L62.65,275.06L64.3,288.54L64.63,284.77L64.97,282.87L65.3,286.07L65.63,285.01L65.96,286.08L66.29,288.4L67.29,271.68L67.62,274.26L67.95,276.93L68.28,275.92L68.61,274.48L69.28,285.45L69.61,278L71.6,287.28L71.93,282.32L72.92,288.9L73.25,287.85L73.58,295.69L73.92,289.53L74.25,283.16L74.91,288.71L75.24,287.88L75.57,288.21L76.24,290.33L76.57,286.14L77.23,290.43L77.56,285.7L77.89,289.36L78.22,261.34L78.56,260.01L78.89,265.84L79.22,268.6L79.55,264.35L80.88,277.48L81.21,269.09L82.2,273.84L82.53,270.93L83.2,277.95L83.53,265.53L84.19,265.13L84.52,269.66L84.85,269.47L85.19,285.06L85.52,282.41L85.85,273.28L86.18,268.34L86.51,270.41L86.84,270.84L87.84,282.28L88.17,272.9L88.5,268.93L88.83,270.94L89.16,272.69L89.49,273.77L89.83,281.77L90.82,268.46L91.15,272.09L91.48,269.18L92.15,275.15L92.48,273.27L92.81,270.63L93.14,261.45L93.47,264.74L93.8,263.98L94.47,271.65L94.8,270.01L95.13,265.65L95.46,260.58L95.79,263.89L96.12,266.02L96.46,267.01L96.79,270.56L98.11,261.92L98.44,263.51L98.78,263.81L99.11,271.32L99.77,269.61L100.1,262.82L100.43,267.04L100.76,262.19L101.1,258.84L102.09,239.63L102.42,245.66L102.75,241.8L103.08,246.55L103.42,250.07L104.08,255.94L104.41,252.86L104.74,252.75L105.07,254.11L105.4,251.78L105.74,255.97L106.4,263.21L106.73,258.16L107.06,258.67L107.39,257.65L108.06,263L108.39,259.1L109.05,239.88L109.38,247.83L110.38,252.7L110.71,245.99L111.37,211.6L111.7,229.93L112.03,235.61L112.37,234.45L112.7,226.32L113.03,229.42L113.36,209.04L113.69,193.9L114.02,224.05L114.35,227.87L114.69,224.17L115.02,220.27L115.35,222.2L115.68,213.49L116.01,207.24L116.34,225.06L117.01,214.15L117.34,208.73L117.67,213.45L118,198.28L118.66,74.25L118.99,236.34L119.99,264.7L120.32,270.19L120.98,283.08L121.31,265.96L122.64,276.88L122.97,269.94L123.3,265.73L123.63,273.45L123.97,270.44L124.3,276.68L125.29,275.41L125.62,270.19L126.62,273.1L126.95,286.89L127.61,286.89L127.94,289.51L128.61,286.03L128.94,288.15L129.27,294.76L129.6,292.14L129.93,289.14L130.6,291.54L130.93,286.12L131.59,294.21L131.92,293.41L132.25,290.08L132.58,286.58L132.92,287.69L133.25,288.04L133.58,280.26L133.91,288.49L134.24,285.2L134.57,285.87L134.9,284.86L135.24,283.59L135.57,266.68L135.9,273.34L136.23,282.13L136.56,281.43L136.89,278.22L137.56,274.94L137.89,279.46L138.22,279.29L138.55,286.96L139.21,282.35L139.54,284.28L140.54,278.7L140.87,283.99L141.87,279.45L142.2,280.51L142.53,282.06L142.86,279.94L143.19,286.96L143.52,285.6L143.85,281.36L144.19,285.34L144.52,282.25L144.85,279.8L145.18,277.06L145.51,261.41L146.84,267.71L147.17,265.99L148.16,272.96L148.49,269.89L150.48,262.72L150.81,260.22L151.15,254.64L151.81,255.99L152.14,260.72L152.47,260.54L152.8,257.5L153.13,257.7L153.47,260.1L154.13,260.84L154.46,258.16L155.12,263.76L155.46,255.73L155.79,257.9L156.12,257.55L156.45,254.97L157.11,264.17L157.44,280.22L158.44,260.04L158.77,260.59L160.76,247.8L161.09,251.48L161.42,247.23L161.75,258.8L163.08,248.97L163.41,249.9L164.07,262.72L164.4,261.74L164.74,257.05L165.4,261.9L165.73,258.58L166.06,260.33L166.39,255.17L167.06,254.87L167.39,249.84L167.72,249.75L168.05,251.54L168.38,248.58L168.71,237.08L169.04,245.75L169.38,239.62L169.71,240.6L170.04,237.54L170.37,251.12L170.7,246.69L171.03,256.42L171.7,249.59L172.03,243.37L173.35,248.91L173.69,257.67L174.02,247.15L174.68,249.02L175.01,258.09L175.34,254.05L175.67,275.14L176.34,262.44L176.67,245.62L177,212.68L177.33,224.78L177.66,235.39L177.99,231.79L178.33,232.94L178.66,233.67L178.99,233.5L179.32,234.73L180.65,244.61L180.98,237.15L181.64,232.5L181.97,246.82L182.3,245.2L182.63,250.37L182.97,251.23L183.3,245.73L183.96,239.76L184.29,243.31L184.62,241.25L184.96,254.71L185.62,249.04L185.95,242.03L187.28,257.57L187.61,251.4L188.6,242.53L188.93,244.97L189.6,243.01L189.93,243.52L190.26,239.33L190.59,239.69L190.92,236.6L192.25,244.44L192.58,242.56L192.91,240.3L193.24,240.15L193.57,241.76L193.9,242.28L194.24,239.89L194.57,243.53L194.9,238.91L195.23,232.55L195.56,236.91L195.89,233.24L196.22,230.19L196.89,234.1L197.22,229.5L197.88,224.22L198.21,224.8L198.54,223.55L199.21,231.21L199.54,230.22L199.87,223.09L200.2,231.44L200.53,228.52L200.87,228.19L201.2,227.18L201.53,230.34L201.86,220.82L202.52,221.89L202.85,218.5L203.19,218.31L203.52,230.46L204.51,206.39L204.84,210.36L205.84,228.81L206.17,228.47L206.5,222L206.83,218.55L207.16,228.54L207.49,229.03L207.83,231.95L208.16,238.72L208.49,234.45L208.82,231.31L210.15,237.01L210.48,244.16L212.13,237.04L212.47,235.42L212.8,251.3L213.13,246.52L213.46,244.42L213.79,249.56L214.12,245.72L214.46,239.25L215.12,252.63L215.45,248.77L215.78,244.68L216.44,246.51L216.78,237.32L218.1,230.87L218.43,228.97L219.1,227.94L219.43,228.39L219.76,222.21L220.09,236.83L220.42,230.88L220.75,226.13L221.08,227.6L221.42,234.88L221.75,232.26L222.08,207.17L223.4,213.98L223.74,211.08L224.07,210.02L224.4,240.17L225.39,219.07L225.72,221.5L226.06,225.38L226.39,221.9L226.72,232.43L227.71,212.99L228.04,216.13L229.04,207.19L229.37,197.8L229.7,184.14L230.03,193.36L230.37,197.82L230.7,198.29L231.03,195.55L231.36,209.43L231.69,174.71L232.02,165.57L232.35,183.39L232.69,186.39L233.02,183.14L233.35,182.99L234.01,153.05L234.34,153.76L234.67,166.89L235.01,164.08L235.34,170.38L235.67,168.55L236,174.67L236.66,151.38L236.99,165.59L237.33,169.44L237.66,165.26L237.99,167.46L238.32,185.02L238.65,154.47L238.98,143.62L239.31,72.81L239.65,49.13L239.98,167.39L240.97,216.17L241.3,213.72L241.63,240.2L241.97,227.43L242.3,214.46L242.63,211.28L242.96,213.39L243.29,213.64L244.62,207.63L244.95,205.51L245.28,207.08L245.61,203.57L247.6,219.03L247.93,209.27L248.26,205.02L248.6,210.65L248.93,210.97L249.26,204.5L250.25,209.22L250.58,200L250.92,205.74L251.58,204.8L251.91,204.97L252.24,207.73L252.57,203.75L253.24,204.84L253.57,208.07L253.9,208.12L254.23,211.53L254.56,212.26L254.89,205.64L255.56,206.62L255.89,205.16L256.55,191.58L256.88,201.95L257.88,209.55L258.21,208.55L258.54,208.18L258.87,210.27L259.53,196.16L259.87,197.5L260.2,200.29L260.86,207.39L261.19,199.8L261.52,198.44L261.85,193.28L262.19,186.19L262.52,194.25L262.85,194.93L263.18,195.27L263.51,194.04L263.84,205.03L264.17,198.93L264.51,193.98L265.5,201.85L265.83,197.32L266.49,193.39L266.83,195.4L267.16,196.01L267.49,197.53L267.82,196.61L268.15,195.81L268.48,187.9L268.81,191.02L269.15,196.23L269.81,187.98L270.14,188.75L270.47,189.74L271.47,171.89L271.8,176.43L272.79,171.3L273.12,175.91L273.46,175.02L273.79,180.18L274.12,184.69L274.45,179.95L274.78,178.29L275.11,181.18L275.44,198.95L276.11,186.16L276.44,189.11L276.77,196.01L277.1,198.72L277.43,195.8L277.76,197.35L278.1,196.44L278.43,193.08L278.76,194.85L279.09,183.74L279.75,197.83L280.08,196.17L280.42,201.64L280.75,187.79L281.08,189.74L281.41,193.8L281.74,185.2L282.07,188.96L282.4,196.73L282.74,196.07L283.07,190.42L283.4,192.54L283.73,190.41L284.06,190.97L285.06,209.14L285.39,195.65L285.72,193.54L286.05,200.82L286.38,200.81L286.71,199.49L287.38,219.47L287.71,207.02L288.37,202.25L288.7,203.73L289.03,207.68L290.36,196.46L290.69,195.18L291.02,198.93L291.69,198.82L292.02,199.08L292.35,186.88L292.68,193.19L293.01,192.51L293.34,187.41L293.67,191.55L294.01,209.19L294.67,189.53L295,191.06L295.33,191.26L295.99,193.06L296.33,214.62L296.66,212.7L296.99,194.7L297.65,198.56L297.98,195.2L298.31,194.4L298.65,210.9L298.98,211.34L299.31,199.6L299.64,206.18L299.97,201.37L300.3,202.27L300.63,201.32L300.97,215.44L301.3,213.92L301.63,208.4L301.96,205.4L302.29,206.52L302.62,207.57L303.29,219.27L303.62,211.44L304.28,198.73L304.61,201.87L304.94,198.13L305.94,210.13L306.27,196.22L306.93,203.95L307.26,201.83L307.6,202.98L308.26,215.31L308.59,209.43L308.92,203.27L309.25,207.15L309.58,205.96L309.92,207.21L310.25,221.25L310.58,218.98L310.91,205.88L311.24,211.16L311.57,207.37L311.9,205.62L312.9,210.79L313.23,197.5L313.56,203.45L314.22,202.71L314.56,205.25L314.89,216.22L315.22,213.15L315.55,202.83L315.88,203.55L316.21,202.73L316.54,200.55L316.88,203.22L317.21,219.98L317.87,196.68L318.2,199.93L318.53,199.02L318.87,199L319.2,201.21L319.53,192.04L319.86,206.05L320.52,187.14L320.85,192.96L321.19,192.58L321.52,195.02L321.85,187.01L322.18,195.6L322.51,190.33L322.84,186.19L323.84,198.4L324.17,207.68L324.5,215.13L324.83,199L325.16,195.45L325.49,202.28L325.83,201.72L326.16,203.17L326.82,216.25L327.15,205.78L327.48,201.4L327.81,203.52L328.15,207.23L329.14,219L329.47,204.84L330.47,213.67L330.8,210.47L331.13,226.17L331.46,225.23L331.79,204.27L333.12,208.76L333.45,215.82L333.78,218.11L334.11,200.34L335.77,208.17L336.1,209.28L337.1,200.72L337.43,206.27L337.76,205.08L338.09,206.9L338.42,212.37L338.75,202.98L339.75,207.77L340.08,203.18L341.4,193.78L341.74,193.6L342.07,193.43L342.4,206.7L342.73,214.27L343.06,209.97L343.39,200.96L343.72,199.55L344.06,201.51L345.38,216.27L345.71,208.57L346.04,208.67L346.38,213.45L347.04,206.07L347.37,222.52L347.7,217.85L348.03,197.93L348.7,208.97L349.03,206.13L349.36,204.66L349.69,204.14L350.02,197.41L350.35,183.6L351.02,185.92L351.35,186.52L351.68,190.28L352.01,187.54L352.34,174.79L352.67,144.67L353.01,152.11L353.34,155.83L353.67,152.8L354,175.22L354.33,175.44L354.66,171.25L354.99,159.92L355.66,159.98L355.99,156.79L356.65,160.96L356.98,169.21L357.31,148.21L357.98,148.62L358.31,154.66L358.64,154.18L358.97,166L360.63,45.57L360.96,150.81L361.62,196.08L361.96,192.23L362.29,190.52L362.62,228.57L362.95,214.45L363.28,192.45L363.61,191.31L363.94,195.2L364.28,189.24L364.61,193.82L364.94,194.91L365.6,199.42L365.93,192.68L366.26,194.02L366.6,192.56L366.93,190.11L367.92,195.79L368.25,215.76L368.92,194L369.25,196.95L369.58,194.98L370.24,205.68L370.57,200.91L370.9,204.7L371.24,190.65L371.57,180.87L371.9,185.84L372.23,187.65L373.22,193.4L373.56,187.33L373.89,187.1L374.22,188.76L374.55,191.16L374.88,189.47L375.21,203.9L375.54,204.51L375.88,183.95L377.2,191.37L377.53,179.35L377.87,183.54L378.2,174.92L378.86,168.68L379.19,171.83L379.52,171.1L379.85,209.58L380.52,185.92L380.85,189.09L381.18,185.78L381.51,186.01L381.84,182.46L382.51,203.21L382.84,194.58L383.5,195.72L383.83,197.72L384.16,198.02L384.49,204.6L384.83,203.17L385.16,191.9L386.15,196.22L386.48,197.22L386.81,202.64L387.15,202.07L387.48,190.21L389.13,203.2L389.47,197.86L390.79,189.79L391.12,193.2L391.46,214.19L391.79,203.84L392.12,196.1L392.45,197.39L392.78,195.51L393.11,194.25L393.44,195.24L393.78,189.18L394.44,193.55L394.77,191.36L395.43,198.66L395.76,196.9L396.1,201.53L397.42,188.41L397.75,186.96L398.08,189.42L398.42,201.01L399.41,188.27L399.74,192.68L400.07,195.94L400.4,196.52L400.74,199.6L401.4,189.88L401.73,191.47L402.06,189.05L402.39,189.38L402.72,194.03L403.72,182.42L404.05,183.64L404.38,184.06L405.04,186.05L405.38,204.51L406.04,192.54L406.37,192.65L406.7,194.3L407.03,194.15L407.37,195.04L407.7,226.02L408.03,211.01L408.36,206.93L409.35,196.1L409.69,198.22L410.02,244.05L410.35,224.03L410.68,206.19L411.67,200.51L412.01,202.8L412.34,217.77L412.67,215.8L413,200.74L413.66,207.98L413.99,202.51L414.33,193.03L414.66,200.63L414.99,201.16L415.32,190.03L415.98,190.88L416.31,189.15L416.65,191.16L416.98,205.08L417.31,205.72L417.64,195.43L418.3,201.12L418.63,194.16L418.97,189.11L419.3,200.41L419.63,208.55L419.96,194.12L420.29,194.3L420.62,200.6L421.95,218.4L422.28,198.81L422.61,198.59L422.94,194.27L423.28,193.17L423.61,203.45L423.94,218.05L424.27,213.56L424.6,205.17L425.6,200.85L425.93,203.73L426.26,214.65L426.59,212.15L426.92,206.61L427.58,192.94L427.92,204.44L428.25,206.65L428.58,217.96L428.91,227.76L429.24,217.45L429.57,209.84L429.9,207.58L430.24,208.11L430.57,220.8L431.56,174.88L431.89,171.04L432.22,171.61L432.56,168.67L432.89,169.34L433.22,172.41L433.55,176.97L433.88,161.98L434.21,165.73L434.54,162.2L434.88,164.64L435.21,168.35L435.54,189.7L435.87,190.99L436.2,175.28L436.53,173.59L436.87,177.87L437.86,193.57L438.19,203.2L439.19,174.65L439.52,180.08L440.51,207.34L440.84,193.15L441.51,187.12L441.84,188.39L442.17,190.55L442.83,213.28L443.16,200.66L443.83,196.74L444.49,196.91L444.82,222.16L445.15,219.07L445.48,204.37L446.48,197.66L446.81,201.92L447.47,220.3L447.8,205.04L448.13,203.54L448.47,205.98L448.8,204.75L449.13,206.6L449.79,218L450.12,198.42L450.46,204.01L450.79,203.37L451.12,199.17L451.45,197.17L451.78,210.5L453.44,193.92L453.77,193.92L454.43,230.44L454.76,212.66L455.1,212.08L455.43,209.89L456.75,229.8L457.08,208.44L457.75,203.04L458.08,203.92L458.41,205.63L459.07,212.96L459.4,200.2L459.74,194.06L460.07,195.85L460.4,197.19L461.06,210.95L461.39,209.54L461.72,203.32L462.06,200.14L462.39,202.18L462.72,202.7L463.71,218.73L464.04,217.34L464.38,203.74L464.71,206.1L465.04,205.65L465.37,204.33L466.03,219.74L466.37,205.98L467.03,205.63L467.36,209.31L467.69,205.64L468.02,210.9L469.02,189.23L469.35,191.13L470.01,194.5L470.34,209.21L471.01,183.55L471.34,185.37L471.67,188.78L472,182.74" style="vector-effect: non-scaling-stroke; fill: none; stroke: rgb(99, 110, 250); stroke-opacity: 1; stroke-width: 2px; opacity: 1;"/></g><g class="points"/><g class="text"/></g><g class="trace scatter tracefddddf" style="stroke-miterlimit: 2; opacity: 1;"><g class="fills"/><g class="errorbars"/><g class="lines"><path class="js-line" d="M0,261.57L0.99,253.46L1.33,258.15L2.32,228.25L2.65,240.4L3.65,246.69L3.98,240.79L4.31,249.16L4.64,230.95L6.63,249.96L6.96,233.77L7.96,241.91L8.29,243.78L8.62,251.52L8.95,251.16L9.28,231.22L10.28,241.04L10.61,241.74L11.27,249.3L11.6,233.56L12.6,241.93L12.93,240.17L13.26,252.06L13.59,251.14L13.92,237.37L14.25,244.52L14.58,230.82L15.58,257.25L15.91,254L16.24,242.57L17.57,253.29L17.9,255.37L18.23,254.49L18.56,240.98L19.89,249.49L20.22,238.66L20.55,237.4L20.88,227.24L22.21,240.82L22.54,245.6L22.87,244.96L23.2,233.55L24.2,245.13L24.53,245.42L25.19,253.72L25.52,243.08L27.18,260.64L27.51,259L27.84,247.8L28.17,256.55L28.51,255.01L29.17,260.42L29.5,264.02L29.83,265.17L30.16,255.3L30.49,260.56L31.16,260.42L31.49,259.88L31.82,272.92L32.15,271.9L32.48,264.39L32.81,268.21L33.15,265.79L33.48,266.83L33.81,266.88L34.14,265.62L34.47,265.07L34.8,256.13L35.8,264.74L36.13,263.41L36.46,266.23L36.79,265.19L37.12,256.08L38.12,260.32L38.45,260.96L38.78,266.83L39.11,265.78L39.44,262.41L40.11,259.36L40.44,261.33L40.77,261.31L41.1,264.91L41.43,264.51L41.76,252L42.1,259.26L42.76,257.93L43.09,258.67L43.42,261.17L43.75,259.43L44.08,249.03L45.41,263.02L45.74,265.75L46.07,264.05L46.4,256.43L47.73,266.68L48.06,267.8L48.39,269.8L48.72,262.26L49.06,264.12L50.05,264.5L50.71,271.64L51.04,264.46L51.71,265.56L52.04,264.03L52.37,265.2L52.7,270.09L53.03,271.27L53.37,263.99L54.36,267.32L54.69,267.2L55.02,272.62L55.35,271.24L55.69,266.58L56.02,270.63L56.68,269.95L57.01,271.38L57.34,275.98L57.67,273.39L58.01,266.98L58.67,272.06L59,269.04L59.33,268.98L59.66,273.06L60.33,264.7L60.66,268.36L60.99,271.47L61.65,271.37L61.98,272.13L62.31,270.5L62.65,264.84L62.98,270.07L63.64,269.11L63.97,271.62L64.3,278.58L64.63,275.5L64.97,269.62L65.96,274.84L66.29,277.45L66.62,284.73L66.96,279.6L67.29,271.74L67.62,275.15L67.95,274.47L68.28,271.62L68.61,272.95L68.94,281.19L69.61,271.07L69.94,275.01L70.27,275.12L70.6,274.02L70.93,275.14L71.26,278.67L71.93,271.83L72.26,273.99L72.59,273.82L73.25,273.18L73.58,280.31L74.25,269.03L74.58,277.12L74.91,273.96L75.24,275.29L75.57,276.44L75.9,280.22L76.24,276.87L76.57,268.33L77.56,278.08L77.89,277.91L78.89,256.45L79.22,264.09L79.55,263.72L79.88,262.56L80.21,263.72L80.54,270.59L80.88,269.32L81.21,258.31L81.87,266.85L82.2,264.76L82.53,266.94L83.2,262.2L83.53,249.77L84.52,260.56L84.85,261.62L85.19,271.35L85.52,266.96L85.85,249.76L86.51,263.03L86.84,262.85L87.17,261.72L87.51,265.63L87.84,263.22L88.17,249.77L88.5,256.63L89.16,256.24L89.49,257.25L90.16,266.65L90.49,253.69L91.48,258.94L91.81,259.94L92.15,264.32L92.48,258L92.81,243.14L93.14,251.05L93.47,252.57L93.8,254.01L94.13,253.79L94.47,263.52L94.8,260.28L95.13,246.68L96.46,255.8L96.79,256.74L97.12,255.05L97.45,242.99L98.44,254.73L98.78,254.04L99.11,258.59L99.44,258.34L99.77,243.02L100.43,257.95L100.76,250.19L101.43,246.57L101.76,243.09L102.09,227.94L102.42,238.04L102.75,241.59L103.08,242.37L103.42,247.79L103.75,254.77L104.08,252.92L104.41,233.13L104.74,244.86L105.4,242.84L105.74,250.13L106.07,256.55L106.4,250.37L106.73,232.88L107.06,244.59L107.72,243.24L108.06,246.48L108.39,252.87L108.72,241.85L109.05,221.06L109.38,236.95L109.71,233.7L110.04,232.28L110.38,225.75L111.04,192.04L111.37,168.74L111.7,209.32L112.37,202.51L112.7,211.9L113.03,206.96L113.36,177.89L113.69,161.78L114.02,200.83L114.35,203.45L114.69,200.71L115.02,197.34L115.35,195.86L115.68,169.44L116.01,160.55L116.34,192.89L116.67,191.51L117.01,182.29L117.67,154.02L118,105.23L118.33,17.62L118.66,112.1L118.99,199.72L119.99,251.54L120.32,249.46L120.65,278.93L120.98,257.47L121.31,248.07L121.65,244.07L121.98,249.88L122.64,253.68L122.97,240.24L123.97,249.75L124.3,252.56L124.63,252.06L124.96,253.59L125.29,239.32L125.62,248.15L125.96,253.57L126.29,251.47L126.62,255.41L127.28,263.17L127.61,248.39L128.61,258.02L128.94,257.99L129.27,271.04L129.6,268.93L129.93,253.6L130.93,262.42L131.26,262.88L131.59,267.09L131.92,266.5L132.25,254.36L133.25,261.24L133.58,257.94L133.91,268.25L134.24,267.55L134.57,253.94L134.9,259.98L135.24,259.47L135.57,238.44L136.56,263.17L136.89,254.3L137.89,261.65L138.22,260.52L138.55,264.91L138.88,262.26L139.21,250.7L139.54,256.57L139.88,256.02L140.21,254.76L140.54,255.01L140.87,260.68L141.53,246.11L141.87,252.6L142.86,257.63L143.19,266.05L143.52,263.16L143.85,249.38L144.85,258.75L145.18,259.05L146.17,236.57L146.51,246.59L147.5,252.95L147.83,258.35L148.16,256.37L148.49,244.27L149.49,254.86L149.82,253.97L150.48,247.31L150.81,237.08L152.8,257.77L153.13,247.35L153.8,257.54L154.13,257.39L154.46,260.58L155.12,262.46L155.46,249.75L156.78,265.81L157.11,269.69L157.44,280.17L157.78,267.85L158.11,270.3L158.44,267.63L158.77,267.74L159.1,268.76L160.1,246.97L160.43,255.08L160.76,250.74L161.42,251L161.75,258.38L162.08,259.21L162.42,253.72L163.41,257.29L163.74,258.9L164.07,259.53L164.4,262.89L164.74,252.48L165.07,257.17L165.4,258.63L165.73,259.13L166.06,258.68L166.39,262.73L166.72,263.12L167.06,254.83L168.05,256.85L168.38,256.68L168.71,238.9L169.38,242.37L169.71,247.91L171.03,260.8L171.37,257.31L171.7,247.93L172.03,252.08L172.36,252.22L173.02,251.73L173.35,253.91L173.69,258.44L174.02,247.24L175.67,264.24L176.01,258.83L177,209.8L177.33,224.82L177.99,238.04L178.33,237.96L178.66,232.56L179.65,240.56L179.98,240.24L180.31,238.82L180.65,242.72L181.31,242.27L181.64,244.18L182.63,252.55L182.97,249.45L183.3,244.17L183.63,247.28L183.96,247.94L184.96,251.63L185.29,250.71L185.62,244.62L186.94,251.71L187.28,250.49L187.61,248.68L187.94,242.53L188.6,246.16L188.93,245.61L189.26,244.8L189.6,250.42L189.93,247.69L190.26,238.7L190.92,245.82L191.25,243.93L191.58,244.02L191.92,254.69L192.25,253.64L192.58,247.14L192.91,248.54L193.24,247.89L193.57,245.11L193.9,244.98L194.24,246.83L194.57,245.9L194.9,235.21L195.89,240.83L196.22,241.2L196.56,241.53L196.89,244.27L197.22,237.15L197.55,241.7L197.88,242.96L198.21,242.02L198.54,243.84L198.88,250.94L199.21,246.57L199.54,236.22L200.53,244.16L200.87,243.81L201.2,244.59L201.53,243.3L201.86,234.35L202.19,239.2L202.52,239.62L203.19,241.06L203.52,248.74L204.18,233.38L204.51,239.61L204.84,240.39L205.84,241.14L206.17,244.31L206.5,233.33L206.83,239.67L207.16,241.01L208.16,251.7L208.49,248.49L208.82,236.91L209.48,245.73L209.81,243.2L210.15,244.12L210.48,248.18L210.81,246.16L211.14,234.22L212.8,246.67L213.13,243.47L213.46,232.22L213.79,238.36L214.12,240.2L214.46,238.47L214.79,238.65L215.12,247.11L215.45,244.46L215.78,233.69L216.44,238.62L216.78,232L217.44,233.32L217.77,229.19L218.1,216.76L218.43,224.98L218.76,224.17L219.76,231.72L220.09,229.59L220.42,217.3L221.42,230.28L221.75,226.04L222.08,227.53L222.41,224.95L222.74,212.55L223.07,221.43L223.4,222.46L223.74,221.56L224.07,222.23L224.4,241.26L225.06,216.18L225.39,225.01L225.72,225.97L226.06,227.27L226.39,224.71L226.72,231.7L227.05,223.43L227.38,206.34L227.71,217.05L228.04,216.7L228.38,214.38L229.04,218.78L229.37,203.38L229.7,186.87L230.03,200.32L230.37,200.83L230.7,204.71L231.03,203.55L231.36,203.3L232.02,147.63L232.35,182.34L232.69,184.82L233.02,180.93L233.35,183.73L233.68,170.62L234.34,139.33L234.67,166.8L235.01,170.82L235.34,168.81L235.67,164.08L236,172.2L236.33,142.7L236.66,129.69L236.99,159.91L237.33,159.99L237.66,154.95L238.32,142.11L238.65,117.73L239.31,16L239.65,85.76L240.64,220.55L240.97,220.15L241.3,218.31L241.63,247.48L242.63,215.78L242.96,219.73L243.29,217.18L243.62,208.33L243.96,215.18L244.29,213.28L244.62,211.66L245.28,216.86L245.61,214.47L245.94,204.35L246.28,210.4L246.61,212.2L247.27,212.86L247.6,218.13L248.26,205.42L248.6,209.61L248.93,211.21L249.26,208.9L249.59,211.88L249.92,218.43L250.58,208.15L250.92,209.03L251.25,210.34L251.91,206.39L252.24,212.23L252.9,199.74L253.24,206.33L254.23,209L254.56,216.33L255.22,203.43L255.56,207.79L255.89,209.56L256.22,209.61L256.55,200.29L256.88,216.15L257.21,214.64L257.54,206.09L258.54,213.2L258.87,212.67L259.2,222.63L259.53,219.69L259.87,209.61L260.86,214.88L261.19,215.75L261.85,216.87L262.19,205.76L263.18,211.72L263.51,211.56L263.84,218.24L264.17,211.97L264.51,201.46L265.5,209.34L265.83,210.52L266.16,218.83L266.49,212.99L266.83,200.86L267.82,209.99L268.15,211.57L268.48,216.7L268.81,211.38L269.15,201.3L270.14,207.05L270.47,209.16L271.47,181.38L271.8,188.84L272.46,186.56L272.79,188.8L273.46,194.74L273.79,185.99L275.44,209.33L275.78,206.96L276.11,194.81L277.43,206.36L277.76,208.67L278.1,212.11L278.43,205.04L279.09,198.37L279.42,200.04L279.75,200.92L280.42,212.15L280.75,200.1L281.41,211.34L281.74,205.72L282.07,207.19L282.4,214.38L282.74,212.45L283.07,202.63L284.72,213.67L285.06,214.56L285.39,203.66L285.72,207.98L286.05,210.17L286.71,212.49L287.04,219.82L287.38,220.09L287.71,209.17L288.37,213.55L288.7,213.16L289.03,214.35L289.37,218.26L289.7,213.44L290.03,202.23L291.02,211.82L291.35,209.01L291.69,219.38L292.02,216.34L292.35,208.3L294.01,215.57L294.34,215.38L295,207.69L295.33,208.37L295.66,209.08L296.33,216.64L296.66,216.52L296.99,207.47L297.98,213.11L298.31,214.01L298.65,223.74L298.98,221L299.31,214.7L301.3,224.59L301.63,216.6L303.29,221.15L303.62,218.83L303.95,209.78L304.28,213L304.61,213.13L305.94,217.53L306.27,211.07L307.93,223.31L308.26,223.67L308.59,215.06L309.25,217.41L309.58,219.28L309.92,219.86L310.25,224.95L310.58,223.11L310.91,214.17L311.24,218.31L311.9,217.33L312.24,219.35L312.57,221.02L312.9,219.85L313.23,214.27L313.89,217.99L314.22,217.77L314.56,218.17L314.89,224.99L315.22,221.34L315.55,212.03L316.54,215.73L316.88,214.16L317.21,220.6L317.54,218.77L317.87,208.19L318.2,211.5L318.87,211.13L319.2,212.43L319.53,213.26L319.86,217.81L320.19,209.36L320.85,211.67L321.19,213.12L321.52,212.2L321.85,202.48L322.18,208.86L322.51,199.59L324.17,216.78L324.5,215.64L324.83,204.95L325.16,209.65L325.49,210.74L326.82,218.51L327.15,208.8L328.81,214.39L329.14,214.58L329.47,204.4L329.8,206.87L330.13,208.02L331.13,211.57L331.46,210.38L331.79,199.67L332.12,203.37L332.46,204.53L332.79,202.83L333.12,203.55L333.45,209.43L333.78,208.43L334.11,197.85L335.11,204.82L335.44,206.68L335.77,210.23L336.1,208.57L336.43,198.4L337.1,202.67L337.43,201.84L337.76,203.63L338.42,209.59L338.75,196.33L339.42,203.94L339.75,201.3L340.08,203.64L341.07,189.44L341.4,193.47L341.74,195.2L343.06,206.32L343.39,192.74L344.06,199.85L344.39,199.72L344.72,201.01L345.05,204.44L345.38,204.02L345.71,191.47L346.71,197.04L347.04,193.63L347.37,204.13L347.7,198.46L348.03,186.54L349.03,196.32L349.36,195.24L349.69,198.59L350.02,192.58L350.35,175.67L350.69,187.7L351.02,187.07L351.68,185.37L352.01,188.24L352.67,134.5L353.01,159.37L353.34,160.84L353.67,161.78L354,169.52L354.33,169.81L354.66,152.48L354.99,143.43L355.33,172.09L356.32,164.87L356.65,165.74L357.31,134.34L357.65,159.05L358.64,149.16L358.97,141.56L359.97,107.5L360.3,22.82L361.62,194.17L361.96,192.9L362.29,196.22L362.62,225.03L363.28,192.76L363.61,194.45L363.94,194.78L364.28,184.56L364.61,189.55L364.94,189.11L365.6,190.72L365.93,195.56L366.26,194.43L366.6,181.8L367.59,190.3L367.92,190.69L368.25,208.19L368.58,206.95L368.92,195.86L369.25,200.93L369.91,199.86L370.24,200.82L370.57,203.65L370.9,199.88L371.9,186.05L372.23,188.26L372.56,188.44L372.89,194.07L373.22,193.51L373.56,179.39L374.55,187.69L374.88,190.12L375.21,200.56L375.54,199.03L375.88,185.38L376.87,191.29L377.2,193.07L378.2,175.38L378.53,182.03L379.52,185.52L379.85,202.97L380.52,185.25L381.18,185.64L381.51,185.4L381.84,185.01L382.17,198.12L382.84,181.55L383.17,188.05L383.5,187.92L383.83,189.81L384.16,190.24L384.49,202.76L384.83,202.94L385.16,189.07L385.49,193.5L386.15,192.82L386.48,193.55L386.81,201.81L387.15,198.85L387.48,188.56L387.81,192.12L388.14,191.29L388.47,190.7L388.8,190.99L389.13,200.22L389.8,193.52L390.13,196.48L390.46,196.81L391.12,199.09L391.46,209.37L391.79,206.74L392.12,194.83L392.45,200.37L393.11,198.96L393.44,197.87L394.11,200.18L394.44,195.46L395.43,201.83L395.76,202.67L396.43,207.66L396.76,198.8L397.42,196.57L397.75,198.45L398.42,206.05L398.75,203.55L399.08,194.11L400.74,212.12L401.07,210.64L401.4,204.6L402.06,202.56L402.39,201.57L403.39,207.55L403.72,197.3L405.71,214.3L406.04,197.79L407.7,214.25L408.03,213.32L408.36,201.79L410.02,219.94L410.35,215.52L410.68,203.31L411.01,206.53L411.34,207.93L412.01,209.32L412.34,221.26L412.67,223.54L413,214.48L414.33,207L414.66,213.86L414.99,213.18L415.32,203.27L415.98,205.97L416.31,208.07L416.65,208.82L416.98,218.72L417.31,222.63L417.64,209.77L417.97,209.85L418.3,208.36L418.63,207.65L418.97,209.51L419.63,223.08L419.96,207.48L421.95,225.9L422.28,213.14L422.61,212.49L422.94,214.11L423.61,217.17L423.94,225.51L424.27,225.5L424.6,216.26L424.93,216.14L425.26,217.8L425.93,219.27L426.26,221.39L426.59,226.25L426.92,220.4L427.25,221.18L427.58,218.04L427.92,224.49L428.25,225.29L428.58,231.48L428.91,233.96L429.24,225.68L429.57,226.21L429.9,225.26L430.24,225.06L430.57,227.78L431.56,204.19L431.89,212.46L433.55,218.8L433.88,209.42L435.21,213.43L435.54,220.43L435.87,224.91L436.2,216.66L436.87,215.19L437.2,216.77L437.53,215.5L437.86,223.22L438.19,224.59L438.52,214.7L439.52,215.42L439.85,216.96L440.18,226.11L440.51,225.35L440.84,212.79L441.84,216.62L442.17,216.73L442.5,227.54L442.83,225.09L443.16,214.88L444.16,219.2L444.49,218.42L444.82,230.42L445.15,229.47L445.48,214.29L445.81,217.6L446.15,217.23L446.48,216.4L446.81,217.69L447.14,226.56L447.47,223.74L447.8,212.79L448.13,216.21L448.47,215.72L448.8,213.03L449.79,218.92L450.12,205.03L450.79,210.32L451.12,209.1L451.45,209.26L451.78,215.75L452.11,212.2L452.44,198.75L453.77,206.98L454.1,228.08L454.76,208.58L455.1,214.96L455.43,213.72L456.09,214.03L456.42,220.66L456.75,219.99L457.08,204.25L457.75,210.16L458.08,208.8L458.41,207.41L458.74,210.25L459.07,207.73L459.4,196.61L460.4,204.72L460.73,204.61L461.06,214.47L461.39,210.82L461.72,197.31L462.39,205.68L462.72,204.14L463.05,205.68L463.71,214.21L464.04,197.05L465.04,204.28L465.37,203.92L465.7,214.63L466.03,209.19L466.37,196.64L466.7,202.83L467.03,201.63L467.36,199.61L467.69,199.44L468.02,210.62L468.69,186.39L469.02,194.02L469.35,188.83L469.68,189.48L470.01,187.97L470.34,199.43L470.67,190.72L471.01,178.17L471.34,189.74L471.67,187.98L472,185.65" style="vector-effect: non-scaling-stroke; fill: none; stroke: rgb(239, 85, 59); stroke-opacity: 1; stroke-width: 2px; opacity: 1;"/></g><g class="points"/><g class="text"/></g><g class="trace scatter trace050884" style="stroke-miterlimit: 2; opacity: 1;"><g class="fills"/><g class="errorbars"/><g class="lines"><path class="js-line" d="M0,201.03L1.33,194.53L1.66,196.63L2.32,184.85L2.65,187.16L2.98,189.3L3.31,188.12L3.65,183.84L3.98,195.04L4.31,190.23L4.64,183.66L5.63,177.07L5.97,181.4L6.3,181.89L6.63,179.55L7.96,165.58L8.29,165.01L8.62,178.89L9.28,176.75L9.61,173.42L10.28,168.09L10.61,165.74L11.27,175.3L11.6,169.9L11.93,164.7L12.26,164.87L12.6,166.44L12.93,163.89L13.26,170.55L13.92,179.09L14.58,178.14L14.92,180.4L15.25,179.35L15.58,182.43L16.57,174.58L16.9,176.29L17.24,177.17L17.9,182.93L18.23,179.3L18.56,179.57L18.89,171.51L19.22,174.28L19.56,171.97L19.89,172.95L20.22,174.41L20.55,171.31L21.21,162.59L21.54,167.48L21.88,167.96L22.21,170.56L22.87,173.49L23.2,170.52L23.53,166.07L23.87,169.74L24.2,172.39L24.53,173.61L24.86,185.59L25.85,175.11L26.19,178.13L26.85,179.54L27.18,186.26L27.84,171.72L28.17,177.39L28.51,185.9L29.5,195.9L29.83,190.24L30.83,196.76L31.16,195.58L31.49,192L31.82,215.22L32.81,206.16L33.15,207.32L33.48,208.81L33.81,205.67L34.14,217.14L35.13,209.6L35.47,206.92L35.8,207.1L36.13,203.65L36.46,210.75L36.79,201.34L37.79,192.91L38.12,196.18L38.45,194.7L38.78,205.3L39.78,200.15L40.44,200.34L40.77,195.24L41.43,200.66L41.76,197.83L42.1,192.6L42.43,193.57L42.76,196.19L43.09,194.96L43.42,200.08L44.42,194.58L44.75,194.38L45.08,196.19L45.41,192.1L45.74,201.54L46.07,197.81L46.4,197.23L46.74,195.96L47.07,198.27L47.4,197.84L47.73,193.91L48.06,200.25L48.39,196.04L48.72,195.89L49.06,196.47L50.05,189.82L51.04,192.66L51.38,192.27L51.71,195.41L52.04,192.38L52.37,189.07L52.7,204.35L53.03,199.64L53.37,193.98L54.03,194.69L54.36,190.26L55.02,194.06L55.35,186.83L56.02,189.22L56.35,186.24L57.34,199.51L57.67,196.94L58.01,197.06L59,200.17L59.33,198.38L59.66,201.42L59.99,200.6L60.33,194.16L60.99,197.75L61.32,196.65L61.65,192.59L61.98,197.9L62.31,193.71L62.65,193.35L63.64,200.98L63.97,197.98L64.3,209.19L64.63,203.69L64.97,197.96L65.96,203.38L66.29,198.59L66.62,240.01L66.96,223.17L67.29,209.86L67.62,212.6L67.95,208.75L68.61,197.34L68.94,206.86L69.94,198.38L70.27,198.53L70.6,198.52L70.93,196.07L71.26,202.78L71.6,202.51L71.93,200.51L72.59,199.39L72.92,203.08L73.25,199.27L73.58,210.22L74.58,201.15L74.91,201.88L75.24,201.42L75.57,197.61L75.9,205.48L76.24,200.15L76.57,202.59L77.23,197.81L77.56,198.85L77.89,198.35L78.22,206.54L78.56,203.18L78.89,199.18L79.55,198.82L79.88,203.85L80.21,200.69L80.54,208.17L81.21,200.34L81.54,204.99L82.87,201.52L83.2,198.75L83.53,195.11L83.86,197.34L84.19,197.89L84.52,199.41L84.85,197.23L85.19,203.49L85.52,198.63L85.85,194.67L86.51,201.35L86.84,201.08L87.17,196.73L87.84,198.65L88.17,195.51L89.16,191.09L89.49,187.78L89.83,193.55L90.16,192.12L90.49,190.98L90.82,189.2L91.15,191.01L91.48,192.43L91.81,186.24L92.15,191.37L92.48,188.42L92.81,190.61L93.14,183.21L93.47,186.08L93.8,183.43L94.13,179.36L94.47,186.24L94.8,182.42L95.13,183.31L96.12,185.6L96.46,180.48L96.79,185.92L97.12,183.99L97.45,179.81L98.78,176.23L99.11,181.65L99.44,185.46L99.77,182L100.1,175.8L100.43,177L100.76,174.57L102.42,166.18L102.75,169.55L103.08,171.32L103.42,168.83L103.75,179.46L104.08,177.97L104.41,175.83L104.74,169.93L105.07,173.36L105.4,173.85L105.74,170.4L106.07,175.51L106.73,175.92L107.06,174.5L107.39,175.9L107.72,170.34L108.06,169.43L108.39,177.78L108.72,181.9L109.05,176.71L109.38,174.28L110.04,175.54L110.38,174.35L111.37,177.82L111.7,174.36L112.37,184.64L112.7,180.31L113.03,183.18L113.36,176.51L113.69,175.78L114.02,176.2L114.35,172.38L115.02,173.77L115.35,172.47L116.67,160.25L117.01,160.28L117.34,159.39L118,152.42L118.33,130.52L119.66,169.48L119.99,171.31L120.32,174.15L120.65,194.08L121.98,165.71L122.31,171.57L122.64,167.83L123.3,168.86L123.63,168.72L124.63,164.47L124.96,166.69L125.29,166.35L125.62,170.11L125.96,177.71L126.29,172.36L126.62,170.06L127.28,176.35L127.61,173.41L128.61,170.2L128.94,170.28L129.27,176.14L129.6,174.8L129.93,174.45L130.6,177.05L130.93,175.16L131.26,171.91L131.59,178.76L132.58,170.06L132.92,172.71L133.58,171.9L133.91,177.17L134.24,176.85L134.57,170.01L135.24,172.66L135.57,164.18L136.23,183.71L136.56,180.23L136.89,182.34L137.89,170.74L138.22,174.85L138.55,174.27L139.88,164.3L140.21,164.49L140.54,163.21L140.87,172.91L141.87,164.88L142.2,167.27L142.53,168.05L142.86,167.54L143.19,170.29L144.85,159.49L145.18,158.52L145.51,166.36L145.84,163.8L146.17,162.18L146.51,160.21L146.84,163.11L147.5,166.59L147.83,171.82L148.16,165.09L148.49,165.81L148.83,167.5L149.49,167.08L149.82,169.67L150.81,157.2L151.15,161.21L151.48,167.32L151.81,164.77L152.14,168.09L152.47,167.47L152.8,164.81L153.13,163.54L153.47,165.57L154.13,163.76L154.46,164.22L154.79,171.66L155.46,168.69L155.79,170.7L156.12,171.59L156.45,168.16L156.78,169.18L157.11,180.04L157.44,196.41L157.78,188.47L158.11,187.82L160.1,170.17L160.43,172.3L160.76,173.31L161.09,171.38L161.42,171.79L161.75,171.3L162.08,169.46L162.42,168.19L162.75,170.44L163.08,169.4L163.41,169.62L163.74,171.17L164.07,173.63L164.4,171.28L164.74,168.53L165.4,171.81L165.73,168.82L166.06,166.53L166.39,179.99L166.72,173.24L167.06,173.35L167.39,177.02L167.72,177.16L168.05,175.76L169.04,168.47L169.38,169.17L169.71,169.6L170.04,171.78L170.37,167.82L170.7,170.84L171.03,167.97L171.37,163.73L172.36,168.83L172.69,166.55L173.02,168.05L173.35,165.25L174.35,161.04L174.68,161.12L175.01,158.76L175.34,162.88L175.67,169.31L176.01,160.44L176.34,161.95L176.67,170.43L177.33,156.14L177.66,158.53L177.99,157.94L178.33,152.88L178.99,153.71L179.32,154.77L179.65,152.22L179.98,152.69L180.31,166.23L180.98,159.59L181.31,161.86L181.64,160.92L182.3,157.7L182.63,161.26L183.3,154.51L183.63,157L184.29,156.33L184.62,163.21L184.96,161.87L185.62,159L185.95,159.52L186.28,159.54L187.94,149.1L188.27,154.6L188.6,155.49L188.93,152.32L189.6,158.25L189.93,153.09L190.26,150.73L190.59,156.88L191.25,157.57L191.58,155.9L191.92,163.33L192.25,154.34L192.58,152.82L192.91,162.25L193.24,160.75L193.57,158.83L194.24,161.61L194.57,153.6L194.9,152.18L195.23,157.05L195.56,157.09L195.89,155.95L196.22,156.21L196.56,163.02L196.89,156.87L197.22,159.28L197.55,161.46L197.88,163.32L198.21,160.46L198.54,161.88L198.88,176.18L199.21,167.07L199.54,168.52L199.87,174.72L200.87,166.23L201.2,169.47L201.86,159.48L202.19,166.61L202.85,160.93L203.19,163.16L203.52,165.15L204.18,158.17L204.51,165.66L204.84,166.69L205.17,159.94L205.84,164.7L206.17,161.09L206.5,158.86L206.83,167.47L207.16,168.17L207.49,165.08L208.16,171.96L208.49,169.52L208.82,168.29L209.81,163.2L210.15,163.91L210.48,167.78L211.14,158.14L211.47,164.82L212.47,159.48L212.8,173.8L213.46,160.2L213.79,163.07L214.12,160.29L214.46,157.58L214.79,159.96L215.12,164.58L215.78,160.6L216.11,163.01L216.78,152.57L217.11,157.05L217.44,159.18L217.77,153.49L218.1,154.46L218.43,156.66L218.76,155.74L219.1,151.12L219.43,150.79L219.76,156.96L220.42,145.64L220.75,148.28L221.08,147.73L221.42,149.1L221.75,148.88L222.08,158.37L222.41,154.17L222.74,155.21L223.07,156.06L223.4,156.9L223.74,156.16L224.07,155.9L224.4,159.69L224.73,151.68L225.06,154.46L225.39,152.21L225.72,152.42L226.06,147.91L226.39,150.68L226.72,153.22L227.71,144.96L228.04,145.91L228.38,141.64L228.71,142.73L229.04,148.27L229.7,137.15L230.03,141.9L230.37,141.23L230.7,139.24L231.03,142.64L231.36,150.11L231.69,132.56L232.69,140.97L233.02,139.65L233.35,143.71L233.68,142.1L234.01,134.9L234.67,140.59L235.01,137.61L235.34,135.33L235.67,135.69L236,139.55L236.66,132.45L236.99,136.43L237.33,136.14L237.66,135.92L237.99,133.71L238.32,133.61L238.65,129.1L239.31,111.84L239.65,112.87L239.98,140.53L240.31,143.2L240.64,142.54L240.97,141.65L241.3,143.02L241.63,155.47L242.63,142.7L242.96,144.46L243.62,141.49L243.96,142.96L245.28,138.09L245.61,137.87L246.28,137.32L246.61,135.09L247.27,133.85L247.6,137.13L248.26,139.77L248.6,137.32L248.93,135.95L249.26,130.82L249.59,131.82L249.92,135.54L251.58,131.56L251.91,132.37L252.24,135.18L252.57,131.71L252.9,134.47L253.24,131.87L253.57,138.53L253.9,133.63L254.23,132.54L254.56,141.78L254.89,139.56L255.22,136.54L255.56,139.49L255.89,135.91L256.22,130.57L256.55,125.46L256.88,136.25L257.21,135.84L257.54,131.81L258.21,129.48L258.54,131.47L258.87,132.63L259.2,129.67L259.53,126.1L259.87,128.4L260.2,129.43L260.53,129.05L260.86,131.29L261.19,131.43L261.52,133.93L261.85,133.18L262.19,133.42L262.52,136.12L262.85,135.9L263.18,133.59L263.51,133.46L263.84,139.48L264.17,131.59L264.84,131.64L265.17,128.25L266.16,132.07L266.49,128.92L266.83,130.68L267.16,129.13L267.49,129.36L267.82,129.08L268.15,130.56L268.48,134.29L268.81,132.35L269.15,131.76L269.81,134.56L270.14,132.74L270.47,134.33L270.8,125.83L271.47,119.93L271.8,120.37L272.13,120.72L272.79,127.36L273.12,137.79L273.46,137.41L273.79,139.98L274.12,141.32L274.45,139.4L275.11,141.54L275.44,155.45L276.77,145.43L277.1,143.48L277.43,140.05L277.76,143.05L278.1,143.58L279.09,148.22L279.42,146.94L279.75,143.56L280.08,152.61L280.42,151.77L280.75,150.11L281.41,152.09L281.74,151.51L282.07,143.97L282.4,152.6L282.74,150.83L283.07,149.48L284.06,136.65L284.39,144.39L285.39,148.06L285.72,143.54L286.05,145.76L286.38,141.67L286.71,139.77L287.04,143.14L287.71,143.87L288.04,143.13L288.7,140L289.03,141.15L290.36,145.6L290.69,144.9L291.02,141.77L291.35,143.43L291.69,149.64L292.35,146.17L292.68,149.32L293.01,150.05L293.34,148.43L293.67,148.56L294.01,151.5L294.34,147.24L294.67,148.83L295,149.06L295.33,144.6L295.99,144.97L296.33,150.36L296.66,150.02L296.99,147.11L297.32,146.75L297.65,144.16L298.31,142.34L298.65,151.65L299.31,147.5L299.64,149.26L299.97,149.99L300.97,147.46L301.3,151.57L301.63,152.11L301.96,150.31L302.96,147.25L303.29,147.58L303.62,148.04L303.95,146.63L304.28,148.26L304.61,147.17L305.28,143.41L305.61,145.01L306.6,148.33L306.93,145.78L308.26,137.29L308.59,138.36L308.92,134.32L309.58,135.1L309.92,137.52L310.25,141.38L310.58,137.33L310.91,136.01L311.57,138.25L311.9,132.47L312.24,132.78L312.57,134.77L314.56,127.17L314.89,131.31L315.22,132.68L315.55,130.52L315.88,130.94L316.21,128.01L316.54,126.79L316.88,130.48L317.21,133.8L317.54,132.76L317.87,127.8L318.2,125.12L318.53,128.49L318.87,129.14L319.86,125.01L320.19,125.89L320.52,126.43L320.85,125.03L321.19,127.81L321.52,126.01L321.85,125.06L322.51,128.03L322.84,125.14L323.84,126.04L324.17,133.32L324.83,130.54L325.16,131.75L326.16,129.45L326.49,132.13L326.82,132.71L327.15,132.17L327.48,128.59L327.81,126.51L328.15,126.64L328.48,127.23L328.81,124.01L329.14,125.01L329.47,125.41L329.8,125.22L330.13,126.1L331.13,120.14L331.46,122.87L332.12,115.92L332.46,121.14L333.12,117.84L333.45,124.76L333.78,125.22L334.11,124.58L334.44,122.49L334.78,118.6L335.11,120.05L335.44,124.34L335.77,123.97L336.1,124.83L336.43,123.96L336.76,119.35L337.1,119.81L337.43,117.86L338.42,119.95L338.75,117.74L339.42,119.65L339.75,115.27L340.08,115.22L340.41,119.18L341.07,116.68L341.4,118.18L341.74,120.52L342.07,117.41L342.4,119.81L342.73,117.51L343.06,116.55L344.06,120.19L344.39,118.73L344.72,118.49L345.05,119.81L345.71,118.06L346.04,119.84L346.71,119.14L347.04,116.4L347.37,114.24L347.7,114.98L348.03,116.26L348.7,112.77L349.03,113.18L349.36,114.64L350.69,107.98L351.02,107.71L351.35,112.39L352.01,111.2L352.34,111.21L353.67,106.71L354,112.03L354.33,116.29L354.66,114.09L354.99,114.84L356.65,108.52L356.98,109.98L357.65,109.55L357.98,108.18L358.97,105.95L359.3,101.91L360.3,92.34L360.63,93.41L360.96,105.34L361.62,113.71L361.96,110.03L362.29,110.47L362.62,116.94L362.95,109.49L363.28,106.7L363.94,108.24L364.28,105.96L365.27,109.95L365.6,109.18L366.26,114.68L366.6,110.86L366.93,111.08L367.26,110.12L367.92,109.7L368.25,121.52L369.91,112.18L370.24,113.75L370.57,117.52L370.9,113.16L371.24,113.66L372.23,107.61L372.56,108.93L372.89,110.81L373.56,110.6L373.89,111.59L374.55,111.06L374.88,115.1L375.54,117.06L375.88,115.8L376.21,114.21L376.87,114.63L377.2,114.03L378.2,107.25L378.53,105.56L379.19,104.29L379.52,107.48L379.85,125.02L380.52,121.05L380.85,121.01L381.84,118.27L382.17,119.19L382.51,121.05L382.84,118.35L383.5,118.14L383.83,116.27L384.16,116.86L384.49,119.44L384.83,120.22L385.16,117.39L385.82,119.13L386.15,118.21L386.48,116.84L386.81,120.11L388.14,113.88L388.47,114.73L388.8,112.64L389.13,120.55L389.8,114.58L390.13,116.47L390.46,116.23L391.12,114.78L391.46,123.27L393.11,114.24L393.44,115.44L394.44,114.7L394.77,117.24L395.43,112.09L395.76,115.72L396.1,115.66L396.43,113.84L396.76,113.36L397.09,114.02L397.42,112.01L398.42,116.27L398.75,110.82L399.08,108.53L399.41,113.97L400.07,115.11L400.4,112.13L400.74,111.76L401.07,114.97L401.73,111.98L402.06,106.28L403.06,118.32L403.39,116.22L404.38,111.69L404.71,116.02L405.71,114.21L406.04,115.22L406.7,119.66L407.03,116.84L408.36,113.93L408.69,117.55L409.35,120.25L409.69,118.65L410.02,133.85L410.35,125.68L410.68,122.17L412.01,115.14L412.34,126.31L413,117.69L413.33,120.61L413.66,120.49L414.99,108.26L415.32,108.13L415.98,109.25L416.31,107.74L416.98,105.83L417.31,107.4L417.97,104.6L418.3,105.43L418.63,105.73L418.97,102.65L419.3,105.14L419.63,106.28L419.96,106.64L420.29,106.3L420.62,106.16L420.96,106.02L421.29,108.22L421.95,113.55L422.28,111.75L422.61,114.6L423.61,112.47L423.94,113.9L424.6,112.18L424.93,112.38L425.26,114.08L425.93,114.26L426.26,110.87L426.92,103.74L427.25,105.01L427.58,106.5L427.92,108.44L428.25,105.68L428.91,107.16L429.24,106.35L429.9,106.15L430.24,108.08L430.57,113.49L430.9,91.77L431.56,87.44L431.89,87.51L432.22,89.17L432.56,88.86L432.89,92.32L433.88,83.4L434.21,86.51L435.21,87.24L435.54,91.19L436.2,87.81L436.53,88.95L436.87,90.26L437.86,96.12L438.19,94.65L438.52,94.22L438.85,95.18L439.52,91.16L439.85,94.66L440.18,102.72L440.51,101.4L440.84,99.84L441.17,104.43L441.51,100.12L441.84,99.11L442.17,98.19L442.5,109.31L443.16,101.57L443.49,102.04L443.83,102.02L444.16,103.16L444.49,102.38L444.82,102.05L445.15,102.26L445.48,101.55L445.81,102.33L446.15,100.31L446.48,101.86L446.81,98.98L447.14,100.74L447.47,98.91L447.8,97.73L448.47,99.48L448.8,96.65L449.46,95.13L449.79,96.34L450.12,94.03L450.46,96.16L450.79,97.83L451.45,98.64L451.78,96.94L452.11,97.23L452.44,90.72L453.44,95.97L453.77,93.26L454.1,109.63L454.76,107.46L455.1,103.36L455.43,103.95L455.76,101.62L456.09,101.74L456.42,99.51L457.08,98.08L457.42,105.5L457.75,106.24L458.08,103.77L459.4,100.58L459.74,101.53L460.07,102.63L460.4,101.59L460.73,100.39L461.72,95.93L462.06,105.35L462.39,105.88L462.72,104.58L463.05,99.21L463.38,104.74L463.71,104.13L464.71,98.56L465.04,98.41L466.03,101.73L466.37,97.72L467.36,101.99L467.69,99.23L468.02,102.74L468.35,101.29L468.69,99.1L469.02,103.13L469.35,102.76L469.68,100.83L470.01,100.33L470.34,110.39L471.01,102.49L471.34,106.02L471.67,107.24L472,104.75" style="vector-effect: non-scaling-stroke; fill: none; stroke: rgb(0, 204, 150); stroke-opacity: 1; stroke-width: 2px; opacity: 1;"/></g><g class="points"/><g class="text"/></g><g class="trace scatter trace089989" style="stroke-miterlimit: 2; opacity: 1;"><g class="fills"/><g class="errorbars"/><g class="lines"><path class="js-line" d="M0,253.16L0.99,245.48L1.33,248.75L2.65,239.34L2.98,243.15L3.31,240.23L3.65,244.19L4.31,250.59L4.64,249.85L4.97,246.53L5.63,242.74L5.97,246.21L6.3,242.27L6.63,247.21L6.96,244.88L7.29,241.14L7.62,243.59L7.96,247.74L8.29,242.36L8.62,245.76L8.95,246.73L9.28,246.9L9.61,241.84L10.61,242.97L10.94,239.37L11.27,242.08L11.6,241.27L11.93,236.79L12.93,238.62L13.26,242.34L13.59,245.26L13.92,242.32L14.25,238.16L14.58,231.65L14.92,234.85L15.25,242.86L15.91,249.26L16.24,245.4L16.9,240.48L17.24,242.38L17.57,244.63L18.56,246.36L18.89,241.46L19.22,241.43L19.56,242.19L19.89,242.98L20.22,235.05L21.21,229.56L21.54,233.05L22.21,231.38L22.54,235.39L23.2,238.56L23.53,234.7L23.87,235.07L24.2,237.26L25.19,242.63L25.52,240.94L25.85,239.78L26.19,239.96L26.52,241.25L26.85,240.14L27.18,243.18L27.51,245.88L27.84,243.11L28.17,242.12L29.83,248.87L30.16,246.7L30.49,246.94L30.83,248.12L31.16,247.04L31.49,247.53L31.82,253.06L32.15,256.23L32.48,254.84L32.81,250.6L34.14,253.6L34.47,251.48L36.13,247.09L36.46,244.08L36.79,246.48L37.12,246.01L37.46,244.63L38.78,252.87L39.11,251.12L39.44,251.2L40.11,248.32L40.44,248.9L40.77,249.19L41.1,246.38L41.43,249.31L41.76,248.74L42.1,244.72L42.43,247L42.76,250.31L44.08,245.74L44.42,245.17L45.08,247.79L45.41,254.44L46.74,245.78L47.07,247.23L47.4,246.85L47.73,248.39L48.06,245.33L49.06,247.53L50.05,247.31L50.71,253.11L51.04,251.36L51.38,246.74L51.71,246.06L52.04,247.83L52.37,247.32L52.7,248.98L53.03,252.35L53.37,251.76L53.7,246.89L55.02,254L55.35,253.1L55.69,249.45L56.02,249.6L56.35,250.82L57.01,252.13L57.34,258.1L57.67,257.89L58.01,255.13L59,255.25L59.33,253.42L59.66,254.6L59.99,251.69L60.99,248.68L61.32,249.62L61.65,249.51L61.98,250.39L62.65,249.42L62.98,245.98L64.3,253.29L64.63,251.9L64.97,250.99L65.63,246.9L65.96,249.89L66.29,255.47L66.62,253.26L66.96,249.35L67.95,244.97L68.28,246.93L68.94,254.33L69.28,253.24L69.61,253.45L69.94,250.43L70.27,251.49L70.6,253.09L70.93,251.84L71.26,254.04L71.93,248.85L72.26,249.49L72.59,250.86L72.92,251.23L73.25,249.61L73.92,252.22L74.25,249.33L74.91,250.7L75.24,252.07L76.24,256.53L76.57,253.73L76.9,253.56L77.23,248.51L77.56,253.7L77.89,252.86L78.22,248.52L79.88,245.54L80.21,246.67L80.88,248.67L81.21,247.45L82.2,251.46L82.53,250.26L83.2,255.72L83.53,246.12L84.85,250.75L85.19,246.7L85.52,244.84L85.85,248.03L86.84,251.52L87.17,250.61L87.84,250.03L88.17,246.74L88.5,245.21L88.83,246.63L89.16,245.93L89.49,246.43L89.83,250.2L90.16,250.61L90.49,250.17L90.82,247.65L91.81,247.62L92.15,249.06L92.48,250.71L92.81,248.47L93.14,244.79L93.47,247.31L93.8,246.17L94.13,245.27L94.47,248.83L94.8,250.61L95.13,247.71L95.79,245.95L96.12,248.66L97.12,250.92L97.45,250.22L98.44,247.44L98.78,249.05L99.11,252.99L99.44,251.46L99.77,249.76L100.76,244.59L101.1,246.03L102.09,234.66L102.42,235.99L103.08,239.88L103.42,237.45L103.75,244.43L104.08,242.17L104.41,241.19L105.4,241.03L105.74,243.38L106.07,244.01L106.4,240.65L106.73,237.74L107.06,239.41L107.39,242.9L109.05,228.77L109.38,236.48L109.71,236.05L110.04,237.87L110.38,239.79L110.71,233.17L111.37,222.35L111.7,231.16L112.03,230.04L112.7,230.32L113.03,232.83L113.69,215.66L114.02,223.27L114.35,223.18L115.35,231.21L115.68,221.2L116.01,212.77L116.34,222.86L116.67,224.13L118,205.19L118.33,182.13L118.66,148.77L118.99,218.2L119.66,249.25L119.99,246.5L120.32,244.51L120.65,245.48L120.98,232.17L121.31,248.71L121.98,247.26L122.31,246.42L122.64,249.51L122.97,247.14L123.3,244.82L124.3,248.01L124.63,241.33L125.62,244.22L125.96,246.75L126.62,247.35L126.95,250.85L127.28,252.66L127.61,251.23L127.94,249.51L128.61,249.09L128.94,250L129.93,250.04L130.26,249.17L131.26,251.44L131.59,249.43L131.92,252.25L132.25,250.5L132.58,250.98L132.92,250.96L133.25,252.58L133.58,252.78L133.91,249.36L134.24,249.16L134.57,250.87L135.57,238.52L135.9,242.54L136.23,243.87L136.56,243.66L136.89,245.38L137.56,241.74L137.89,243.2L138.88,247.77L139.21,245.16L139.54,243.8L139.88,244.92L140.21,246.53L141.2,245.22L141.53,244.78L143.52,253.1L143.85,251.63L144.19,250.92L145.18,252.28L145.51,251.81L146.84,247.2L147.17,249.42L147.5,250.66L148.16,250.31L148.49,246.89L148.83,251.24L149.16,249.24L149.49,248.68L149.82,248.37L150.15,243.42L150.48,242.78L150.81,240.33L151.15,242.83L151.81,242.3L152.14,242.04L152.8,252.67L153.13,247.56L153.47,247.23L153.8,250.89L154.13,248.42L154.46,249.34L154.79,248.65L155.12,252.53L155.79,247.88L156.12,251.17L156.78,249.36L157.11,258.8L157.44,264.67L157.78,257.71L158.11,256.03L158.77,256.42L159.43,251.53L159.76,253.71L160.43,250.23L160.76,253.44L161.75,246.85L162.08,250.27L162.42,248.93L162.75,242.99L163.08,245.27L163.41,244.82L163.74,243.19L164.4,254.21L164.74,248.38L165.07,244.41L165.73,245.13L166.06,246.57L166.39,252.08L166.72,250.12L167.06,247.36L168.05,242.08L168.38,243.86L168.71,236.32L169.04,240.57L169.38,239.87L171.37,247.49L171.7,241.92L172.36,239.26L172.69,240.73L173.02,240.97L173.35,242.52L173.69,242.84L174.02,238.31L174.35,236.73L175.01,237.15L175.34,239.12L175.67,243.28L176.01,241.49L176.34,234.59L177,212.02L177.33,219.49L177.66,220.65L178.33,223.9L178.66,222.86L178.99,220.38L179.65,224.51L179.98,221.7L180.65,233.42L180.98,230.35L181.31,228.73L181.97,230.99L182.3,230.19L182.63,229.38L183.63,223.25L183.96,225.17L184.29,229.5L185.29,235.22L185.62,230.97L186.61,223.06L186.94,227.57L187.28,227.46L187.61,223.87L188.27,221.22L188.6,223.25L188.93,222.45L189.26,219.61L189.6,220.39L189.93,223.96L190.59,216.49L190.92,217.5L191.25,217.26L191.58,215.97L191.92,221.03L192.25,222.89L192.58,220.91L192.91,218.92L193.24,218.03L193.57,219.72L193.9,217.94L194.24,221.06L194.57,222.66L194.9,219.46L195.56,216.65L195.89,218.88L196.89,222.62L197.22,218.88L197.55,216.44L197.88,217.41L198.21,220.42L198.54,217.31L198.88,219.17L199.21,218.93L200.2,212.12L200.53,210.43L201.53,220.13L201.86,217.25L202.19,215.3L203.52,221.76L203.85,216.65L204.51,211.34L204.84,215.09L205.51,215.37L205.84,214L206.17,213.98L206.5,209.66L206.83,211.17L207.16,215.37L208.49,224.61L208.82,220.02L209.15,220.15L209.48,222.45L209.81,221.14L210.15,221.69L210.48,222.94L210.81,223.61L211.14,220.33L212.13,217.76L212.47,218.63L212.8,224.5L213.13,222.2L213.46,219.68L213.79,217.35L214.12,219.13L214.46,219.89L214.79,218.31L215.12,221.37L215.45,220L215.78,213.23L216.44,214.49L216.78,212.92L217.11,209.5L217.44,212.86L217.77,214.2L218.43,206.48L218.76,208.24L219.1,209.97L220.09,214.15L220.42,208.92L220.75,204.56L221.08,207.77L221.42,214.18L223.07,201.32L223.4,201.32L223.74,200.63L224.07,202.01L224.73,211.98L225.06,205.92L225.39,207.34L225.72,205.63L226.06,207.15L226.39,204.37L226.72,210.88L227.05,208.31L227.38,201.7L228.04,204.39L228.38,200.49L229.37,195.76L229.7,190.28L231.36,205.03L231.69,193.8L232.02,186.9L232.35,196.14L232.69,197.92L233.02,196.01L233.35,195.05L233.68,192.14L234.01,182.55L234.34,175.52L234.67,183.2L235.01,184.21L236,190.98L236.33,186.95L236.66,178.7L236.99,184.24L237.33,186.09L238.32,190.96L238.65,184.02L239.31,149.01L239.65,109.76L240.64,210.21L240.97,211.1L241.3,209.56L241.63,210.89L241.97,205.04L243.29,211.13L243.62,207.64L243.96,207.48L244.29,208.3L244.62,209.06L244.95,206.62L245.28,206.31L245.61,207.73L246.28,202.85L246.61,204.44L246.94,205.14L247.27,204.04L247.93,210.48L248.26,202.51L248.93,202.87L249.26,199.28L249.59,202.4L249.92,207.32L250.25,206.16L250.58,202.52L251.25,202.92L251.91,198.08L252.24,203.14L253.24,198.36L253.57,200.02L254.23,197.85L254.56,203.11L254.89,202.98L255.22,197.44L256.22,196.38L256.55,187.78L257.21,197.4L257.54,196.24L257.88,194.4L258.87,197.34L259.2,194.42L259.53,196.77L259.87,193.32L260.2,191.71L260.53,193.01L260.86,194.2L261.85,197.69L262.19,193.47L263.18,191.28L263.51,193.03L263.84,193.59L264.17,192.75L264.51,190.11L265.83,193.98L266.16,197.7L267.16,193L267.82,193.24L268.15,192.34L268.48,193.42L268.81,197.33L269.81,192.04L270.14,194.04L270.47,192.13L270.8,180.45L271.47,178.59L271.8,174.71L273.46,186.21L273.79,182.24L274.78,180.5L275.11,184.71L275.78,194.61L276.11,192.72L276.44,192.69L276.77,191.01L277.1,192.26L277.43,193.03L279.42,184.18L279.75,186.26L280.42,195.2L280.75,191.49L281.08,189.36L281.74,190.77L282.07,190.03L282.4,190.05L282.74,193.09L283.4,186.69L283.73,187.68L284.06,188.27L284.39,187.49L284.72,187.84L285.06,192.31L285.72,184.47L286.05,185.59L286.38,186.45L286.71,185.94L287.04,194.45L287.38,196.58L287.71,193.18L288.37,187.55L288.7,188.84L289.03,189.9L289.7,197.33L290.03,190.56L290.69,186.03L291.02,186.31L291.35,188.79L292.02,196.46L292.35,193.99L292.68,188.76L293.01,186.57L293.34,189.05L293.67,189.29L294.34,197.33L294.67,192.87L295.66,186.38L295.99,188.14L296.33,197.74L296.66,196.54L296.99,192.96L297.98,187.68L298.31,190.13L298.98,198.75L299.31,197.62L299.64,190.83L300.63,195.33L300.97,202.22L301.3,204.1L301.63,202.98L301.96,198.68L303.62,206.05L303.95,202.4L304.28,194.67L304.94,195.65L305.28,195.92L305.94,205.49L306.27,203.26L306.6,196.77L307.26,199.52L307.6,198.14L308.26,206.37L308.59,202.7L308.92,195.36L309.92,200.79L310.25,202.61L310.58,208.12L310.91,203.77L311.24,199.33L312.24,203.66L312.57,202L312.9,205.53L313.23,202.72L313.56,197.11L313.89,196.49L314.22,197.53L314.56,198.09L314.89,201.68L315.22,205.51L315.55,199.73L316.21,195.47L316.54,196.87L316.88,198.81L317.54,206.32L317.87,201.4L318.53,195.59L318.87,195.99L319.2,179.54L319.86,185.53L320.19,183.99L320.52,140.73L320.85,138.44L321.19,151.32L321.52,184.92L321.85,184.26L322.18,170.65L322.84,159.02L323.17,170.78L324.5,203.51L324.83,193.97L325.16,183.35L325.49,187.79L325.83,192.22L326.16,193.23L326.49,199.1L326.82,201.5L327.15,197.11L327.48,189.03L327.81,190.76L328.15,193.02L328.48,192.41L328.81,194.3L329.14,198.43L329.47,197.14L329.8,189.98L330.47,189.85L330.8,193.03L331.13,202.77L331.46,199.88L331.79,181.65L333.78,197.67L334.11,193.88L335.11,186.55L335.44,188.35L336.1,197.23L336.43,191.89L336.76,188L337.1,188.31L337.43,189.42L337.76,191.42L338.09,198.65L338.42,202.55L338.75,195.75L339.08,189.43L339.75,190.38L340.08,192.76L340.41,193.37L340.74,198.47L341.74,186.21L342.07,188.51L343.06,199.57L343.39,193.63L344.39,189.63L344.72,190.37L345.05,195.95L345.38,198.68L345.71,196.38L346.04,186.92L346.38,185.68L346.71,188.1L347.04,184.61L347.37,189.66L347.7,194.41L348.03,190.05L348.37,185.14L349.69,194.76L350.02,193.19L350.35,189.09L350.69,185.61L351.02,187.49L351.35,186.64L351.68,185.17L352.01,191.25L352.34,192.54L352.67,185.38L353.01,181.49L353.34,184.61L353.67,186.15L354,185.65L354.33,188.98L355.33,183.38L355.66,186.71L355.99,183.93L356.32,186.77L356.65,188.67L356.98,189.79L357.31,188.26L357.65,183.43L358.64,186.41L358.97,184.55L359.97,170.84L360.3,149.7L360.63,119.8L360.96,182.02L361.62,202.16L361.96,198.73L362.29,197.75L362.62,200.43L362.95,197.15L363.28,195.89L363.94,200.4L364.28,198.03L365.6,195.65L365.93,199.43L366.26,202.04L366.6,200.47L366.93,195.31L367.92,197.88L368.25,204.05L368.58,205.66L368.92,202.78L369.25,196.6L369.91,197.44L370.24,196.73L370.9,201.63L371.24,198.53L371.57,186.61L371.9,187.73L372.23,191.02L372.56,192.37L372.89,196.89L373.22,199.78L373.56,195.52L374.22,189.95L374.55,191.88L374.88,191.44L375.54,200.47L375.88,197.17L376.21,193.75L376.54,195.94L376.87,195.26L377.2,192.62L377.53,185.34L378.2,186.57L378.53,184.93L378.86,184.45L379.19,187.26L379.52,188.01L379.85,206.92L380.19,207.63L380.52,202.01L381.51,194.37L381.84,193.95L382.51,208.93L382.84,205.38L383.17,202.89L384.83,207.49L385.16,206.02L385.49,202.48L385.82,205.33L386.15,205.83L386.48,206.13L386.81,209.32L387.15,211.06L387.48,206.5L388.47,201.22L388.8,204.45L389.13,214.2L389.8,213.03L390.13,211.72L391.12,209.9L391.46,217.66L392.12,214.35L392.45,213.28L394.77,204.38L395.1,205.36L395.76,206.33L396.1,208.98L396.43,210.64L396.76,206.97L397.09,203.68L397.42,206.6L397.75,206.08L398.08,209.34L398.42,206.22L398.75,207.3L399.08,204.1L399.41,206.61L399.74,206.32L400.4,207.12L400.74,214.14L401.07,213.78L401.4,208.79L401.73,207.67L402.06,209.97L403.72,204.76L404.05,206.8L405.04,203.29L405.38,205.73L407.03,212.88L407.37,212.65L408.03,218.94L408.36,215.32L408.69,212.88L409.02,216.41L409.35,215.55L409.69,221.33L410.02,229.34L410.35,224.25L410.68,220.28L411.67,217.65L412.01,218.68L413,207.5L413.33,210.01L413.66,211.82L413.99,214.07L414.33,211.91L414.66,213.31L414.99,214.15L415.32,211.96L415.98,209.89L416.31,210.59L416.65,210.75L417.31,220.59L417.64,214.89L417.97,214.73L418.3,215.71L418.63,214.55L418.97,212.05L419.3,216.6L419.63,216.55L419.96,210.27L421.62,219.67L421.95,217.39L422.94,212.85L423.28,214.59L423.61,214.19L423.94,216.84L424.27,220.12L424.6,216.33L424.93,214.55L425.6,213.41L425.93,214.85L426.26,214.27L426.59,214.88L426.92,211.35L427.58,209.07L427.92,210.14L428.58,216.45L428.91,218.81L429.24,212.97L429.9,213.58L430.24,211.77L430.57,221.49L430.9,191.04L431.23,202.62L431.89,202.35L432.22,205.08L432.89,207.39L433.22,203.77L433.55,206.12L433.88,203.29L434.21,201.57L435.54,209.24L435.87,211.8L436.53,204.16L436.87,204.82L437.2,206.18L437.86,205.94L438.19,208.83L438.85,201.91L439.19,203.63L439.52,204.28L439.85,204.22L440.18,209.31L440.51,210.95L440.84,208.04L441.51,206.48L441.84,207.47L442.17,206.95L442.5,216.13L443.16,210.27L443.83,210.57L444.16,209.96L444.49,210.27L444.82,224.87L446.15,214.21L446.48,214.99L446.81,215.24L447.47,214.7L447.8,210.11L448.13,209.79L448.47,210.19L448.8,206.86L449.46,216.42L449.79,214.57L450.12,210.56L450.79,214.31L451.12,213.22L451.45,213.09L451.78,215.01L452.11,214.34L452.44,210.46L453.11,208.87L453.44,210.48L453.77,209.03L454.1,218.95L454.43,218.9L454.76,215.43L455.43,215.03L455.76,213.76L456.42,214.32L456.75,214.75L457.42,207.57L457.75,208.88L458.08,208.71L459.07,211.16L459.4,208.29L460.4,206.15L460.73,206.65L461.39,212.72L461.72,206.17L462.06,202.49L462.39,203.82L462.72,204.83L463.71,214.44L464.04,208.86L464.71,199.91L465.04,202.46L465.37,203.08L465.7,209.55L466.03,211.66L466.37,206.37L467.69,199.59L468.02,202.66L468.35,202.84L468.69,194.68L469.35,191.28L469.68,192.4L470.01,193.82L470.34,202.05L470.67,201.75L471.01,196.01L471.34,198.19L471.67,197.82L472,196.5" style="vector-effect: non-scaling-stroke; fill: none; stroke: rgb(171, 99, 250); stroke-opacity: 1; stroke-width: 2px; opacity: 1;"/></g><g class="points"/><g class="text"/></g><g class="trace scatter trace276bbf" style="stroke-miterlimit: 2; opacity: 1;"><g class="fills"/><g class="errorbars"/><g class="lines"><path class="js-line" d="M0,242.14L0.66,250.98L0.99,248.65L1.33,251.71L2.98,245.18L3.31,246.62L3.65,245.86L3.98,249.79L4.64,249.45L4.97,247.44L5.63,250.02L5.97,249.3L6.3,246.4L6.63,248L6.96,245.77L7.29,245.63L7.62,244.52L7.96,244.97L8.29,243.92L8.95,247.44L9.28,243.22L9.94,241.61L10.28,242.82L10.61,243.26L10.94,245.48L11.27,245.62L11.6,242.37L11.93,239.5L12.26,240.62L12.6,241.81L12.93,241.95L13.26,245.11L13.59,243.95L13.92,244.21L14.25,237.68L14.58,235.73L14.92,241.86L15.91,247.27L16.24,245.93L16.57,242L16.9,242.22L17.24,238.21L18.23,246.15L18.56,243.39L18.89,237.7L19.22,240.45L19.56,239.69L19.89,239.42L20.22,231.72L20.88,232.22L21.21,227.38L22.21,229.18L22.54,235.75L22.87,241.27L23.2,237.93L23.53,234.8L23.87,233.82L24.2,237.55L24.53,236.08L24.86,242.09L25.52,245.72L25.85,241.51L26.19,242.17L26.52,241.59L26.85,241.4L27.51,245.01L27.84,241.07L28.84,238.94L29.17,240.42L29.83,244.25L30.16,243.8L30.49,239.31L31.49,241.95L31.82,247.07L32.48,243.44L32.81,239.09L33.15,239.07L33.48,241.67L34.47,242.35L34.8,240.05L35.13,237.58L35.8,237.67L36.13,236.97L37.12,240.33L37.46,236.43L38.45,238.52L38.78,243.08L39.11,242.36L39.44,237.28L39.78,236.21L40.11,236.39L40.44,239.2L40.77,238.88L41.1,241.26L41.43,242.99L41.76,238.13L42.1,235.45L42.43,236.61L42.76,239.94L43.09,239.42L43.42,236.95L43.75,240.61L44.08,235.58L44.42,235.92L44.75,233.92L45.08,236.02L45.41,244.49L45.74,245.88L46.07,241.16L47.07,233.36L47.4,234.75L48.06,240.53L48.39,239.65L48.72,237.28L49.06,235.09L50.05,241.07L50.71,245.01L51.04,240.14L52.04,242.41L52.37,242.13L52.7,248.58L53.03,245.33L53.37,241.02L54.36,242.87L54.69,243.58L55.02,247.31L55.35,247.11L55.69,242.49L56.02,245.76L56.68,245.16L57.01,247.44L57.34,251.23L57.67,251.11L58.01,246.5L58.34,247.53L58.67,245.04L59.66,250.87L59.99,247.01L60.33,242.75L60.66,243.9L60.99,245.17L61.98,245.95L62.31,244.83L62.98,240.94L63.31,241.29L63.64,240.63L64.3,245.86L64.63,243.67L65.3,239.98L65.63,241.1L65.96,242.05L66.62,254.05L66.96,249.38L67.29,246.46L67.62,243.43L67.95,244.13L68.28,245.82L68.94,250.2L69.28,249.38L69.61,249.22L69.94,245.22L70.27,247.11L70.6,247.18L70.93,247.33L71.26,249.12L71.6,249.65L71.93,246.31L72.26,246.27L72.59,245.16L72.92,247.22L73.25,243.79L73.58,246.53L73.92,244.84L74.25,243.87L74.58,246.01L74.91,245.39L75.24,244.73L75.9,249.58L76.24,245.07L77.23,242.92L77.56,245.01L78.22,249.84L78.56,249.09L78.89,245.84L79.22,244.99L79.55,246.72L79.88,246.53L80.21,248.49L80.54,249.93L80.88,247.58L81.21,244.42L81.54,246.04L81.87,245.37L83.53,240.8L83.86,239.86L84.19,238.79L84.52,239.64L84.85,240.76L85.85,231.57L86.18,232.8L86.51,237.41L87.17,243.38L87.51,242.05L87.84,242.51L88.83,239.92L89.16,240.43L89.49,240.69L89.83,242.59L90.49,238.8L90.82,232.82L92.15,239.8L92.48,239.48L92.81,239.17L93.14,237.22L94.13,234.03L94.47,237.05L94.8,239.76L95.13,236.74L95.46,237.67L95.79,235.29L96.12,236.61L96.46,238.37L96.79,238.27L97.12,241.33L97.78,237.56L98.11,238.12L98.44,237.79L99.44,241.37L99.77,238.94L100.1,238.63L100.43,237.1L100.76,239.9L101.43,239.36L101.76,238.96L102.75,234.04L103.08,234.44L103.75,240.37L104.08,239.15L104.41,235.79L104.74,237.7L105.07,236.58L105.4,235.96L105.74,235.08L106.07,236.45L106.4,237.92L106.73,234.41L107.06,234.59L107.39,235.83L107.72,235.73L108.06,238.4L108.39,240.93L108.72,238.86L109.05,235.77L110.38,240.49L110.71,238.81L111.04,238.82L111.37,236.13L112.37,239.36L112.7,238.89L113.36,239.67L113.69,236.34L115.02,240.04L115.35,239.77L116.34,233.63L116.67,236.71L117.34,235.71L117.67,239.06L118,236.6L118.33,224.48L118.66,202.83L118.99,235.83L119.33,235.64L119.66,240.79L119.99,241.32L120.32,238.47L120.65,238.78L120.98,231.72L121.65,239.22L121.98,238.43L122.31,237.91L122.64,238.47L122.97,235.03L123.63,237.87L123.97,236.28L124.3,238.33L124.63,230.04L124.96,231.16L125.29,228.68L126.62,237.44L126.95,238.41L127.61,232.96L127.94,235.94L128.28,236.65L128.61,234.81L128.94,237.32L129.27,234.1L129.6,234.65L129.93,231.37L130.26,234.93L130.6,233.43L130.93,232.48L131.26,234.01L131.59,235.47L131.92,232.85L132.25,231.27L132.58,232.65L132.92,232.62L133.91,235.68L134.24,234.1L134.9,232.51L135.24,234.15L135.57,230.31L136.23,230.87L136.56,228.13L136.89,223.17L137.22,225.6L137.56,225.42L138.55,232.52L138.88,229.32L139.21,226.07L139.88,226.86L140.21,228.19L140.87,233.01L141.2,231.28L141.53,230.05L141.87,228.08L142.2,230.36L142.53,232.97L143.19,237.01L143.52,233.65L143.85,233.72L144.19,234.76L145.18,237.49L145.51,238.18L146.17,233.44L146.51,235.71L146.84,235.15L147.83,238.98L148.16,237.24L148.49,235.69L148.83,236.99L149.16,237.99L149.49,239.1L149.82,237.96L150.15,231.31L150.48,231.93L150.81,230.83L151.15,228.08L151.48,230.29L151.81,231.16L152.47,235.68L152.8,239.59L153.47,235.4L153.8,237.43L154.13,239.33L154.46,238.59L154.79,237.74L155.12,238.74L155.46,249.66L155.79,235.49L156.45,237.39L156.78,238.6L157.44,248.09L157.78,242.23L158.11,237.46L158.44,238.32L158.77,240.44L159.1,240.67L159.43,243.18L160.43,237.56L160.76,237.72L161.09,235.08L161.42,236.93L161.75,234.66L162.08,234.61L162.42,234.02L162.75,228.84L163.41,232.22L163.74,231.7L164.07,241.82L164.4,242.37L164.74,237.51L165.07,235.96L165.4,236.45L165.73,237.61L166.06,237.39L166.39,239.7L166.72,240.52L167.06,235.99L167.72,234.8L168.05,236.13L168.38,235.89L168.71,232.39L169.04,235.68L169.38,233.62L169.71,234.75L170.04,232.77L170.37,233.83L170.7,234.35L171.7,230.12L172.03,228.68L172.69,232.15L173.02,230.78L173.35,230.9L173.69,233.55L174.02,227.27L175.67,232.83L176.01,231.54L176.67,227.69L177,215.89L178.33,219.96L178.66,217L178.99,214.06L179.32,218.06L179.65,218.13L179.98,216.92L180.31,223.73L180.65,222.63L180.98,219.96L181.97,217.1L182.3,219.03L183.3,214.64L183.63,214.14L184.96,218.24L185.29,216.91L186.28,209.16L186.61,211.24L186.94,215.18L187.28,214.98L187.61,211.9L188.27,207.15L188.6,211.49L189.26,210.61L189.6,207.87L190.26,208.12L190.59,206.83L191.58,207.32L191.92,209.49L192.25,210.75L192.58,209.92L192.91,206.21L194.24,209.69L194.57,211.19L195.56,208.34L195.89,211.05L196.56,209.64L196.89,213L197.88,208.99L198.21,209.07L198.88,214.09L199.21,212.95L199.54,209.33L199.87,207.49L200.2,208.04L200.53,208.34L201.53,211.21L201.86,210.16L203.52,213.97L203.85,217.27L204.84,212.52L205.17,212.93L205.51,213.86L205.84,215.07L206.17,214.37L206.5,212.62L206.83,213.18L207.16,211.97L208.16,217.21L208.49,215.39L209.15,212.91L209.48,211.53L209.81,211.91L210.15,215.1L211.8,208.36L212.13,208.01L212.47,207.41L212.8,212.17L213.46,206.51L213.79,208.36L214.12,207.2L214.46,206.79L214.79,209.02L216.11,204.75L216.44,203.52L216.78,204L217.11,203.29L217.44,205.89L217.77,209.47L218.1,205.3L218.43,203.07L218.76,203.47L219.1,202.44L219.43,202.2L219.76,205.51L220.09,208.03L220.42,205.63L220.75,203.63L221.08,201.77L221.42,204.64L221.75,204.6L222.08,203.21L222.41,205.09L222.74,200.58L223.4,197.62L223.74,199.18L224.07,199.37L224.4,206.81L225.39,197.79L225.72,201.87L226.06,200.94L226.39,201.86L226.72,203.71L227.05,203.87L227.38,201.59L228.04,197.13L228.38,198.09L228.71,199.34L229.37,203.07L229.7,201.16L230.03,196.23L231.03,198.52L231.36,203.1L231.69,206.27L232.02,202.62L232.35,201.91L233.35,204.56L233.68,206.38L234.67,203.44L235.01,205.01L236,208.4L236.33,207.52L236.66,204.2L237.66,208L237.99,206.82L238.32,209.06L238.65,208.36L238.98,204.18L239.31,196.82L239.65,165.09L240.64,209.22L240.97,207.86L241.97,197.09L242.3,203.95L242.63,203.74L242.96,207.41L243.29,207.16L243.62,203.56L243.96,201.78L244.29,203.61L244.62,202.97L245.28,201.58L245.61,204.75L246.61,198.33L246.94,199.52L247.27,199.3L247.6,196.81L247.93,198.61L248.26,197.76L248.6,192.64L250.25,200.15L250.58,196.82L251.25,192.71L251.58,195.32L251.91,190.19L252.57,190.94L252.9,189.21L253.24,185.11L253.57,188.82L253.9,187.7L254.89,186.43L255.22,185.98L255.56,181.77L255.89,182.28L256.22,184.2L256.55,181.11L256.88,183.2L257.21,185.85L258.54,179.91L258.87,181.77L259.2,181.88L259.53,184.6L260.2,178.48L260.53,180.65L260.86,180.21L262.19,187.19L262.52,186.11L263.18,184.54L263.51,182.91L264.17,186.52L264.51,182.59L265.83,183.92L266.16,188.68L267.16,184.38L267.49,184.56L267.82,184.12L268.81,187.7L269.15,185.51L269.48,184.91L269.81,185.65L270.14,186.47L270.47,186.3L270.8,174.54L271.47,176.57L271.8,171.04L273.79,180.55L274.12,176.9L274.45,175.3L274.78,177.96L275.11,179.3L275.44,186.82L275.78,190.99L276.11,188.73L276.44,183.79L276.77,182.66L277.1,182.93L277.43,184.62L277.76,183.82L278.1,185.08L278.43,184.18L278.76,177.81L279.09,176.73L279.42,178.37L280.42,185.99L280.75,185.44L281.08,177.84L281.74,183.92L282.07,180.13L282.74,185.25L283.07,183.93L283.4,177.18L283.73,176.57L284.06,178.38L284.39,178.91L284.72,181.11L285.06,183L285.39,192.88L285.72,175.42L286.38,179.3L286.71,177.13L287.38,182.82L287.71,179.21L288.04,176.38L288.37,176.62L288.7,178.4L289.03,179.2L289.37,183.64L289.7,186.31L290.03,183.18L290.36,179.42L291.02,178.1L291.35,178.73L291.69,183.55L292.02,185.2L292.35,183.8L292.68,176.55L293.01,175.11L293.34,178.12L293.67,178.76L294.01,184.05L294.34,185.67L294.67,182.46L295,177.47L295.66,178.21L295.99,180.1L296.66,184.7L296.99,178.83L297.32,178.11L297.65,179.37L298.31,180.47L298.65,183.2L298.98,184.27L299.31,182.69L299.64,180.41L300.3,180.92L300.63,183.68L301.3,192.11L301.63,189.53L301.96,186.55L302.29,189.34L302.96,188.82L303.29,190.21L303.62,190.37L303.95,187.85L304.28,186.32L304.61,187.77L304.94,188.33L305.28,188.25L305.61,191.28L305.94,193.31L306.27,189.6L306.6,187.04L306.93,187.71L307.26,188.79L307.93,193.11L308.26,195.54L309.25,190.33L309.58,192.55L309.92,189.24L310.25,193.09L310.58,195.19L311.24,193.86L311.57,195.2L311.9,194.22L312.24,196.31L313.23,194.55L313.56,192.23L313.89,195.17L314.22,191.23L314.56,196.21L314.89,186.8L315.22,183.76L315.55,189.84L315.88,190.17L316.21,194.32L316.54,192.31L316.88,195.6L317.54,200.56L317.87,198.01L318.2,190.73L318.53,191.67L318.87,195.72L319.86,199.13L320.19,197.67L320.52,194.27L321.85,199.31L322.18,198.8L322.84,194.86L323.17,195.83L323.51,196.64L323.84,195.97L324.17,200.2L324.5,201.48L324.83,196.8L325.16,192.96L325.49,196.15L325.83,197.76L326.16,198.22L326.49,201.07L326.82,203.43L327.15,201.8L327.48,197.15L327.81,196.32L328.15,188.93L329.14,204.78L329.47,204.41L329.8,198.13L330.8,201.41L331.13,205.09L331.46,209.06L331.79,201.62L332.12,195.34L332.79,195.9L333.12,195.02L333.45,194.23L333.78,196.59L334.11,195.38L334.44,190.79L334.78,191.16L335.11,189.79L336.1,195.77L336.43,194.48L336.76,190.1L337.76,193.18L338.09,196.01L338.42,199.69L338.75,195.98L339.08,192.89L339.42,196.13L340.08,195.33L340.41,197.31L340.74,201.39L341.07,199.69L341.4,195.28L342.4,200.25L342.73,203.33L343.06,202.99L343.39,199.59L343.72,195.86L344.06,197.57L344.39,197.14L344.72,197.14L345.05,200.53L345.38,200.58L345.71,197.56L346.04,197.43L346.38,194.74L346.71,195.9L347.04,191.17L347.7,195.25L348.03,193.22L348.37,194.67L348.7,194.42L349.03,194.99L349.36,193.7L350.02,197.79L350.35,197.35L350.69,195.84L351.02,195.08L351.35,196.04L351.68,198.42L352.01,196.26L352.34,199.11L353.34,195.16L353.67,194.58L354,192.19L354.33,194.82L354.66,196.85L355.33,190.59L355.66,192.25L355.99,205.17L356.32,192.64L356.65,195.52L356.98,198.27L357.31,197.87L357.65,193.86L358.97,196.14L359.3,195.03L359.63,195.13L359.97,192.33L360.3,189.81L360.63,168.51L361.62,198L361.96,196.79L362.95,190.79L363.28,194.42L363.94,198.34L364.28,197.4L364.61,195.12L364.94,195.68L365.27,197.73L365.6,196.24L365.93,199.95L366.26,199.83L366.6,198.08L366.93,199.09L367.26,197.32L368.25,199.97L368.58,200.31L370.24,195.61L370.57,197.51L370.9,200.44L371.24,199.58L371.57,188.72L372.23,190.48L372.56,189.93L372.89,193.77L373.22,198.96L373.56,195.82L373.89,194.36L374.55,196.98L374.88,195.78L375.21,196.75L375.54,200.39L376.54,194.83L376.87,196.85L377.2,198.75L377.53,193.49L377.87,197.06L378.2,193.77L378.53,192.62L379.52,195.57L379.85,212.77L381.51,198.78L381.84,199.37L382.17,200.62L382.51,207.34L382.84,206.73L383.17,202.32L383.83,202.02L384.16,203.08L384.83,208.16L385.16,205.99L385.49,202.05L385.82,203.58L386.15,204.12L386.48,203.06L386.81,206.11L387.15,207.09L387.48,205.15L388.47,197.75L388.8,200.65L389.13,213.46L389.47,211.65L389.8,208.9L390.13,208.53L390.46,206.59L390.79,203.37L391.12,204.87L391.46,216.29L392.12,212.85L392.45,208.62L394.44,198.26L394.77,199.67L395.1,199.64L396.1,204.1L396.43,203.86L396.76,201.04L397.09,199.48L397.42,200.38L397.75,201.93L398.08,203.54L398.42,202.93L398.75,201.02L399.74,196.67L400.07,199.05L400.4,200.2L400.74,204.11L401.07,204.15L401.4,201.89L401.73,202.31L402.06,199.11L402.39,202.1L403.06,201.6L403.39,201.01L404.38,204.2L404.71,202.87L405.04,202.16L405.38,203.85L405.71,204.26L406.04,202.45L406.37,209.13L407.03,208.87L407.37,208.11L407.7,203.75L408.36,204.15L408.69,205.7L409.35,207.74L409.69,205.26L410.02,212.86L410.35,206.86L410.68,203.44L411.01,206.29L411.67,205.6L412.01,207.14L413,200.43L413.33,202.04L413.66,204.8L414.99,202.46L415.32,199.86L416.31,201.55L416.65,200.38L417.31,203.13L417.64,201.55L419.3,207.59L419.63,205.35L419.96,199.42L420.29,212.81L420.62,205.83L421.29,207.5L421.62,208.95L421.95,208.12L422.28,204.56L423.28,206.96L423.61,206.63L424.27,206.19L424.6,202.89L424.93,207.87L425.26,206.23L425.6,204.57L426.26,206.23L426.59,205.81L426.92,203.03L427.58,206.07L427.92,205.94L428.25,206.68L428.91,210.14L429.24,204.26L430.57,215.88L430.9,191.96L431.89,200.42L432.22,197.56L433.22,208.08L433.55,208.61L433.88,207.49L434.21,208.34L434.54,208.5L434.88,208.59L435.21,207.86L435.87,208.97L436.2,204.65L436.53,209.98L436.87,209.72L437.2,207.2L438.19,212.62L438.52,207.51L439.52,212.71L439.85,211.98L440.18,215.11L440.51,212.4L440.84,210.19L441.84,216.07L442.17,213.61L442.5,217.07L442.83,216.96L443.16,211.93L443.49,214.87L443.83,214.38L444.16,212.78L444.82,226.2L445.15,224.33L445.48,218.46L446.15,221.16L446.48,220.39L446.81,220.71L447.14,223.45L447.47,222.46L447.8,218.69L448.47,221.37L448.8,220.01L449.13,218.91L449.46,209.38L449.79,215.57L450.12,214.24L450.46,221.11L451.12,220.63L451.45,220.95L452.11,218.84L452.44,213.87L453.44,218.27L453.77,215.36L454.1,224.28L454.43,219.87L454.76,214.52L455.76,221.47L456.09,219.2L456.42,220.52L456.75,214.49L457.08,210.57L457.42,211.22L457.75,216.61L458.74,221.09L459.07,218.4L459.4,212.67L459.74,218.35L460.07,216.59L461.06,219.78L461.39,219.17L461.72,213.26L463.71,219.99L464.04,212.98L464.38,212.26L464.71,218.13L465.04,218.1L465.37,218.98L465.7,220.62L466.03,217.61L466.37,210.63L466.7,213.63L467.03,213.73L467.36,215.77L468.02,215.57L468.35,215.13L468.69,209.73L469.02,211.45L469.35,213.96L470.01,215.38L470.34,220.01L470.67,220.73L471.01,216.08L471.67,221.21L472,217.76" style="vector-effect: non-scaling-stroke; fill: none; stroke: rgb(255, 161, 90); stroke-opacity: 1; stroke-width: 2px; opacity: 1;"/></g><g class="points"/><g class="text"/></g><g class="trace scatter trace5137cb" style="stroke-miterlimit: 2; opacity: 1;"><g class="fills"/><g class="errorbars"/><g class="lines"><path class="js-line" d="M0,271.75L1.33,267.35L1.66,257.94L1.99,257.03L2.32,246.65L3.31,260.98L3.65,260.84L3.98,258.73L4.31,269.22L4.64,254.35L5.3,267.88L5.63,266.33L5.97,263.87L6.63,268.88L6.96,254.91L7.62,269.85L7.96,267.64L8.29,268.67L8.62,266.08L8.95,271.92L9.28,258.34L9.61,260.87L9.94,264.39L10.61,267.23L10.94,271.17L11.27,270.28L11.6,263.99L11.93,256.68L12.26,260.77L12.6,261.99L12.93,261.39L13.26,268.95L13.59,271.64L13.92,256.27L14.25,255.96L14.58,242.41L15.58,263.17L15.91,265.43L16.24,255.15L16.57,260.15L16.9,262.98L17.24,261.76L17.57,263.06L17.9,263.48L18.23,263.54L18.56,257.95L18.89,260.35L19.22,254.84L19.56,258.75L19.89,242.25L20.22,242.19L20.55,239.4L20.88,229.95L21.21,233.21L21.54,237.99L21.88,235.94L22.21,237.77L22.54,240.11L23.2,231.04L23.53,237.93L24.2,244.87L24.53,244.25L24.86,251.84L25.52,236.16L25.85,246.27L26.85,235.79L27.18,239.83L27.51,241.59L27.84,230.17L28.17,243.88L28.84,243.21L29.17,241.43L29.5,252.4L29.83,249.13L30.16,240.98L30.49,241.95L30.83,247.97L31.16,246.44L31.49,251.71L32.15,263.53L32.48,255.28L32.81,259.41L33.15,253.52L33.48,254.44L33.81,258.68L34.14,257.6L34.47,253.75L34.8,246.13L35.13,248.5L35.47,257.14L36.13,251.87L36.46,256.73L37.12,243.95L37.46,252.08L37.79,248.15L38.12,248.77L38.45,250.05L38.78,266.04L39.11,257.91L39.44,249.32L40.11,257.69L40.44,248.08L41.1,260.95L41.43,253.33L41.76,242.99L42.1,246.54L42.43,247.15L42.76,242.1L43.09,243.8L43.42,250.7L43.75,248.34L44.08,236.14L44.42,240.35L44.75,239.88L45.08,238.82L45.41,241.82L45.74,253.22L46.4,237.39L46.74,239.47L47.07,239.11L47.73,242.93L48.06,257.9L48.72,236.53L49.06,246.14L50.05,249.4L50.71,253.82L51.04,249.97L51.38,250.17L51.71,251.75L52.37,246.69L52.7,257.72L53.03,256.79L53.37,252.71L53.7,252.63L54.03,248.5L54.36,250.64L54.69,241.52L55.02,252.66L55.35,252.52L55.69,245.33L56.02,246.51L56.35,245.95L56.68,245.62L57.67,261.39L58.01,252.53L58.34,252.28L58.67,249.85L59.99,255.83L60.33,249.09L61.32,255.16L61.65,252.98L61.98,259.53L62.31,258.87L62.65,247.8L63.64,255.63L63.97,258.52L64.63,262.78L64.97,252.72L65.3,253.45L65.63,252.85L65.96,255.88L66.29,257.9L66.62,269.84L66.96,267.85L67.29,254.3L67.62,250.72L67.95,251.83L68.28,253.35L68.61,254.15L68.94,272.84L69.28,271.17L69.61,256.33L69.94,261L70.27,257.94L70.6,256.46L70.93,260.87L71.26,275.86L71.6,272.9L71.93,257.45L72.59,256.95L72.92,263.4L73.25,260.05L73.92,274.49L74.25,260.25L74.58,262.43L74.91,258.75L75.57,257.26L75.9,273.77L76.24,278.79L76.57,261.25L77.89,268.39L78.22,265.06L78.56,261.47L78.89,242.27L79.88,251.83L80.21,251.93L80.88,273.32L81.21,255.07L81.87,259.83L82.2,262.53L82.53,262.3L82.87,271.64L83.2,270.78L83.53,253.19L84.52,266.62L84.85,262.83L85.19,274.41L85.52,273.59L85.85,258.55L87.17,262.21L87.51,269.19L87.84,268.48L88.17,257.39L88.83,261.71L89.16,261.29L89.49,261.29L90.16,273.74L90.49,266.39L90.82,266.15L91.15,264.91L92.48,258.88L92.81,247.38L94.47,263.87L94.8,265.14L95.13,250.06L95.46,254.9L95.79,261.63L96.46,258.03L96.79,266.84L97.45,250.57L97.78,252.55L98.11,254.17L98.78,256.25L99.11,264.23L99.44,269.61L99.77,253.53L100.43,262.69L100.76,260.09L101.1,261.79L102.09,235.3L102.42,242.67L102.75,243.22L103.08,241.11L103.75,261.4L104.08,261.06L104.41,247.82L106.07,272.17L106.4,267.7L106.73,256.07L107.06,261.24L107.39,261.89L108.39,271.91L108.72,268.75L109.05,256.7L109.38,261.8L109.71,264.45L110.04,262.86L110.38,265.21L111.37,242L111.7,260.33L112.37,261.87L112.7,253.63L113.03,253.82L113.36,247.19L113.69,234.83L114.02,247.14L114.35,245.47L115.02,241.59L115.35,245.62L116.01,226.72L116.34,234.64L117.34,206.81L117.67,209.18L118,183.23L118.33,118.98L118.66,150.19L118.99,258.78L119.99,268.47L120.32,266.49L120.65,304L120.98,267.96L121.31,267.73L121.98,262.62L122.31,270.48L123.63,267.84L123.97,268.46L124.96,270.61L125.29,267.72L125.62,268.42L125.96,274.06L126.29,270.09L126.62,271.27L126.95,280.05L127.28,282.9L127.61,269.09L127.94,267.32L128.28,270.28L128.94,274.97L129.27,296.56L130.26,274.42L130.6,275.63L130.93,273.28L131.26,274.72L131.59,283.45L131.92,283.83L132.25,276.4L132.58,278.79L132.92,274.66L133.58,276.56L133.91,284.73L134.24,281.54L134.57,266.41L134.9,276.34L135.24,274.77L135.57,262.19L136.23,283.84L136.56,282.27L136.89,275.29L137.22,276.77L137.56,272.3L137.89,268.43L138.22,268.6L138.55,270.64L138.88,277.94L139.21,267.06L139.54,265.95L139.88,271.79L140.21,267.57L140.54,268.52L140.87,272.47L141.2,272.43L141.53,265.1L141.87,266.79L142.2,263.84L142.86,264.72L143.19,274.73L143.52,272.95L143.85,261.94L144.19,257.33L144.52,257.37L144.85,259.24L145.51,243.46L145.84,252.86L146.17,241.02L146.84,242.15L147.17,240.17L147.83,244.61L148.16,242.27L148.49,230.77L149.49,238.59L149.82,240.77L150.81,238.97L151.15,240.9L152.47,250.6L152.8,249.39L153.13,242.78L153.8,244.01L154.13,243.66L155.12,256.51L155.46,244.62L157.11,258.57L157.44,267.25L158.11,244.41L158.44,249.82L158.77,247.11L159.1,254.15L159.43,248.4L159.76,248.24L160.1,238.4L160.43,241.36L160.76,241.4L161.09,238.3L161.42,242.61L162.08,252.73L162.42,238.51L163.08,241.74L163.41,239.99L164.07,259.34L164.4,258.91L164.74,243.76L165.07,245.06L165.4,241.84L165.73,241.39L166.06,238.72L166.72,259.5L167.06,238.84L167.39,239.8L167.72,235.49L168.38,246.41L168.71,228.27L169.04,236.21L169.38,214.53L171.03,256.49L171.37,253.15L171.7,236.94L172.03,228.27L172.69,229.84L173.02,232.68L173.69,253.6L174.02,231.79L174.68,227.91L175.01,234.26L176.01,262L176.34,233.56L176.67,225.41L177,192.9L178.33,227.43L178.66,210.33L179.98,219.85L180.31,220.23L180.65,227.18L180.98,215.11L181.31,211.33L181.64,214.98L181.97,218.27L182.3,221.85L182.63,235.15L182.97,241.68L183.3,228.77L184.62,239.13L184.96,244.05L185.62,236.41L185.95,236.93L186.28,239.08L187.28,233.52L187.61,238.55L188.6,221.49L188.93,223.04L189.26,221.43L189.6,229.4L189.93,233.17L190.26,218.72L190.59,222.35L190.92,221.35L191.25,217L191.92,234.75L192.25,232.91L192.58,220.74L194.24,235.74L194.57,233.66L195.56,221.04L195.89,221.55L196.22,225.36L196.56,219.72L196.89,224.61L197.22,214.83L198.54,220.5L198.88,235.19L199.21,236.81L199.54,226.38L199.87,226.28L200.2,223.86L200.53,225.27L200.87,234.04L201.2,232.95L201.53,238.63L201.86,220.4L202.19,225.56L202.52,226.31L203.19,232.39L203.52,237.4L204.51,215.17L204.84,220.03L205.84,230.98L206.17,243.34L206.83,220.4L207.16,227.24L207.49,233.39L208.16,249.17L208.49,248.24L208.82,240.68L209.15,237.28L209.48,238.53L209.81,241.64L210.81,253.37L211.14,244.18L212.13,241L212.47,242.83L212.8,259.43L213.13,250.96L213.46,240.85L215.45,255.15L215.78,242.54L216.11,241.1L216.44,243.65L217.11,240.86L217.44,242.85L217.77,246.39L218.1,234.03L219.1,220.16L219.43,228.38L219.76,235.6L220.09,231.61L220.42,211.97L222.08,226.68L222.41,226.92L222.74,214.3L223.07,217.03L223.4,219.97L223.74,216.74L224.07,223.24L224.4,239.33L224.73,236.5L225.06,224.48L226.72,237.71L227.05,234.63L227.38,216.08L227.71,218.71L228.04,221.65L228.38,222.22L228.71,229.75L229.04,235.27L229.37,234.06L229.7,213.75L230.7,233.45L231.03,230.17L231.36,224.84L232.02,182.52L232.35,205.69L233.35,213L233.68,198.35L234.34,180.49L234.67,192.96L235.01,190.46L235.34,194.06L236.33,180.75L236.66,171.2L236.99,186.81L237.33,182.16L237.66,179.74L238.65,166.87L238.98,143.23L239.31,69.03L239.65,95.35L239.98,232.5L240.31,227.25L240.64,233.67L240.97,234.74L241.3,233.23L241.63,260.78L241.97,232.83L242.63,234.14L242.96,233.41L243.96,225.8L244.29,227.93L244.62,223.1L244.95,224.49L245.28,228.9L245.61,234.08L245.94,220.56L247.6,235.84L247.93,229.72L248.26,216.74L248.6,224.86L248.93,226.33L249.26,220.73L249.59,230.25L250.25,246.36L250.58,226.89L251.58,217.89L251.91,220.05L252.24,229.99L252.9,213.5L253.24,217.45L253.57,214.73L253.9,206.45L254.23,208.86L254.56,223.14L254.89,220.72L255.22,207.63L255.89,213.74L256.22,211.45L256.55,207.09L256.88,220.91L257.21,220.89L257.54,205.03L259.2,219.44L259.53,216.5L259.87,203.31L260.2,213.17L260.53,214.58L260.86,213.55L261.19,218.69L261.85,222.65L262.19,210L262.52,210.24L262.85,212.08L263.18,209.33L263.51,210.01L263.84,216.56L264.17,218.98L264.51,203.84L264.84,206.49L265.17,206.31L265.5,204.45L265.83,205.69L266.16,212.74L266.49,217.9L266.83,197.02L267.16,207.76L267.49,203.64L267.82,203.11L268.48,215.8L268.81,213.82L269.15,198.2L270.14,202.56L270.47,190.6L270.8,196.37L271.13,194.7L271.47,173.64L273.46,198.57L273.79,183.01L274.12,182.34L274.45,188.56L274.78,187.89L275.11,191.32L275.78,209.79L276.11,193.49L277.43,204.04L277.76,203.56L278.1,201.15L278.43,189.99L279.42,194.88L279.75,191.24L280.42,204.55L280.75,182.37L281.41,186.72L281.74,185.75L282.07,186.56L282.74,202.28L283.07,183.05L285.06,199.81L285.39,183.04L285.72,181.74L286.05,186.75L286.38,188.47L286.71,185.27L287.38,208.84L287.71,181.38L288.7,189.37L289.03,188.52L289.7,204.73L290.03,182.65L290.69,189.78L291.02,188.44L291.35,188.57L291.69,205.22L292.02,203.03L292.35,187.5L292.68,188.36L293.01,179.98L293.67,185.45L294.01,199.97L294.34,206.54L294.67,188.83L295,187.54L295.33,188.26L295.66,190.76L295.99,191.15L296.33,203.43L296.66,206.71L296.99,184.84L298.31,188.85L298.65,206.24L298.98,209.37L299.31,189.18L300.63,203.01L300.97,213.65L301.3,214.51L301.63,195.8L302.29,201.3L302.62,198.39L302.96,199.25L303.29,207.93L303.62,213.16L303.95,190.91L304.28,192.47L304.61,198.53L305.28,202.49L305.61,216.34L305.94,218.99L306.27,198.96L307.93,221.71L308.26,222.57L308.59,203.52L309.25,207.15L309.58,211.78L309.92,212.57L310.25,222.22L310.58,226.28L310.91,205.68L312.9,223.11L313.23,207.48L313.56,207.42L313.89,209.84L314.89,222.95L315.22,216.49L315.55,200.92L315.88,203.27L316.21,206.98L316.54,206.43L316.88,210.22L317.21,211.93L317.54,219.35L317.87,202.97L318.2,206.66L318.53,208.16L318.87,212.84L319.2,208.45L319.53,201.88L319.86,208.96L320.19,189.77L321.52,198.64L321.85,209.06L322.18,218.81L322.51,203.5L322.84,199.95L323.17,207.12L323.51,202.09L323.84,207.89L324.17,213.28L324.5,214.87L324.83,202.08L325.16,205.98L325.83,205.59L326.16,203.31L326.82,222.06L327.15,205.86L329.14,222.7L329.47,209.95L330.47,213.88L330.8,216.9L331.46,224.54L331.79,219.41L332.12,209.1L332.79,211.4L333.12,216.71L333.45,220.99L333.78,220.04L334.11,214.44L334.78,209.47L335.11,213.21L335.44,214.17L335.77,221.96L336.1,220.58L336.43,207.95L337.76,212.55L338.09,221.9L338.75,205.96L339.08,208.51L339.42,209.26L340.08,213.34L340.41,203.99L340.74,209.66L341.07,200.91L341.74,194.51L342.07,199.09L342.4,199.57L342.73,213.41L343.06,217.3L343.39,205.22L344.06,201.96L344.39,206.97L344.72,208.8L345.05,217.31L345.38,213.91L345.71,197.73L346.38,201.65L346.71,200.94L347.04,200.74L347.37,212.45L347.7,209.76L348.03,203.25L348.37,202.61L348.7,204.23L349.36,203.13L349.69,211.09L350.02,213.81L350.35,202.81L350.69,202.17L351.02,210.06L351.68,203.69L352.01,211.41L352.67,164.07L353.01,179.31L353.34,179.6L354.33,190.64L354.66,184.22L354.99,172.97L355.33,190.91L357.31,161.74L357.65,174.44L358.64,158.6L358.97,155.86L359.3,153.11L359.63,143.7L359.97,135.58L360.3,66.8L360.63,96.93L360.96,202.08L361.29,205.83L361.96,205.57L362.29,205.22L362.62,236.83L362.95,203.87L363.28,202.08L363.94,206.09L364.28,202.82L364.61,203.24L364.94,202.04L365.93,208.31L366.26,211.56L366.6,203.98L366.93,206.45L367.26,206.95L367.92,204.9L368.25,210.54L368.58,210.79L368.92,207.6L369.25,207.17L369.58,209.97L370.9,212.6L371.24,220.73L371.57,199.04L372.23,203.59L372.56,199.66L372.89,206.49L373.22,205.83L373.56,199.63L374.22,200.63L374.55,203.8L375.21,206.9L375.54,206.57L375.88,193.12L376.21,198.06L376.87,197.74L377.2,195.37L378.2,179.59L378.53,181.26L378.86,185.45L379.19,184.8L379.52,191.71L380.19,199.67L380.52,191.62L381.51,187.1L381.84,191.27L382.17,196.71L382.51,195.96L382.84,193.92L383.83,188.04L384.16,189.39L384.83,205.71L385.16,193.55L385.49,198.3L385.82,196.73L386.15,195.28L386.48,195.78L386.81,200.76L387.15,199.77L387.48,185.55L387.81,189.89L388.14,185.85L388.47,185.76L388.8,187.64L389.13,195.61L389.8,180.61L390.13,192.81L390.46,193.89L390.79,191.25L391.46,205.17L391.79,200.63L392.12,197.59L392.45,202.11L392.78,198.31L393.11,198.71L394.11,183.17L394.44,184.67L394.77,192.07L395.1,189.07L395.43,191.97L395.76,190.52L396.1,188.99L396.43,190.65L396.76,181.37L397.42,191.03L397.75,188.09L398.08,187.31L398.42,191.19L398.75,189.27L399.08,179.74L400.4,192.85L400.74,190.65L401.07,195.82L401.4,186.72L402.72,190.27L403.06,190.71L403.72,175.94L404.05,182.89L404.38,179.55L405.38,186.14L405.71,184.35L406.04,180.05L406.37,185.48L406.7,185.41L407.03,182.59L407.37,187.41L407.7,191.97L408.03,190.57L408.36,180.2L408.69,183.45L409.02,181.46L409.35,182.23L409.69,182.58L410.02,197.33L411.34,178.4L411.67,178.83L412.34,199.47L412.67,198.25L413,186.64L413.33,178.48L413.66,190.03L413.99,189.8L414.33,184.58L414.66,193.08L414.99,192.65L415.32,181.28L416.65,186.01L416.98,189.39L417.31,193.03L417.64,181.06L418.3,179.8L418.63,180.76L418.97,180.12L419.3,192.38L419.63,194.84L419.96,180.84L420.29,183.18L420.62,179.64L421.95,199.99L422.28,183.34L423.28,192.86L423.61,191.83L424.27,202.3L424.6,189.95L424.93,193.99L425.26,190.63L425.6,190.67L425.93,191.05L426.26,198.28L426.59,198.6L426.92,184.1L428.58,211.81L428.91,211.65L429.24,196.01L429.9,196.03L430.24,197L430.57,208.11L430.9,175.56L431.23,178.25L431.56,164.67L432.22,161.5L432.56,163.37L433.22,163.08L433.55,166.51L433.88,151.31L434.88,157.21L435.21,155.02L435.87,175.32L436.2,157.29L436.53,158.25L436.87,162.28L437.2,164.82L437.53,175.15L438.19,193.81L438.52,169.92L439.85,178.61L440.18,192.77L440.51,195.87L440.84,181.85L441.17,180.59L441.51,182.03L441.84,186.53L442.17,188.4L442.5,203.62L442.83,208.18L443.16,187.6L443.49,188.07L443.83,190.27L445.15,210.21L445.48,187.38L446.48,194.27L446.81,195.71L447.14,209.51L447.47,209.04L447.8,190.77L449.13,196.75L449.46,211.09L449.79,215.5L450.12,197.92L450.46,196.28L450.79,200.33L451.12,201.38L451.45,200.13L451.78,212.21L452.11,215.69L452.44,199.42L452.78,199.88L453.11,205.58L453.77,213.9L454.1,236.27L454.43,236.23L454.76,220.31L455.76,212.15L456.09,214.94L456.75,226.42L457.08,207.59L458.08,210.02L458.41,209.39L458.74,212.76L459.07,214.36L459.4,202.32L459.74,203.21L460.07,200.12L461.39,215.42L461.72,209.6L462.06,202.75L462.39,203.96L462.72,204.66L463.71,226.18L464.04,209.74L464.71,209.2L465.04,202.72L465.37,204.85L465.7,221.55L466.7,209.28L467.03,211.23L467.36,213.27L467.69,211.45L468.02,213.21L468.35,216.33L469.02,207.23L469.35,207.6L469.68,206.49L470.01,208.99L470.34,222.21L471.01,206.49L471.34,206.51L471.67,207.55L472,207.78" style="vector-effect: non-scaling-stroke; fill: none; stroke: rgb(25, 211, 243); stroke-opacity: 1; stroke-width: 2px; opacity: 1;"/></g><g class="points"/><g class="text"/></g></g></g><g class="overplot"/><path class="xlines-above crisp" d="M0,0" style="fill: none;"/><path class="ylines-above crisp" d="M0,0" style="fill: none;"/><g class="overlines-above"/><g class="xaxislayer-above"><g class="xtick"><text text-anchor="middle" x="0" y="433" transform="translate(80,0)" style="font-family: 'Open Sans', verdana, arial, sans-serif; font-size: 12px; fill: rgb(42, 63, 95); fill-opacity: 1; white-space: pre;">2017</text></g><g class="xtick"><text text-anchor="middle" x="0" y="433" transform="translate(200.98000000000002,0)" style="font-family: 'Open Sans', verdana, arial, sans-serif; font-size: 12px; fill: rgb(42, 63, 95); fill-opacity: 1; white-space: pre;">2018</text></g><g class="xtick"><text text-anchor="middle" x="0" y="433" transform="translate(321.97,0)" style="font-family: 'Open Sans', verdana, arial, sans-serif; font-size: 12px; fill: rgb(42, 63, 95); fill-opacity: 1; white-space: pre;">2019</text></g><g class="xtick"><text text-anchor="middle" x="0" y="433" transform="translate(442.95,0)" style="font-family: 'Open Sans', verdana, arial, sans-serif; font-size: 12px; fill: rgb(42, 63, 95); fill-opacity: 1; white-space: pre;">2020</text></g></g><g class="yaxislayer-above"><g class="ytick"><text text-anchor="end" x="79" y="4.199999999999999" transform="translate(0,395.75)" style="font-family: 'Open Sans', verdana, arial, sans-serif; font-size: 12px; fill: rgb(42, 63, 95); fill-opacity: 1; white-space: pre;">0.15</text></g><g class="ytick"><text text-anchor="end" x="79" y="4.199999999999999" transform="translate(0,349.86)" style="font-family: 'Open Sans', verdana, arial, sans-serif; font-size: 12px; fill: rgb(42, 63, 95); fill-opacity: 1; white-space: pre;">0.2</text></g><g class="ytick"><text text-anchor="end" x="79" y="4.199999999999999" transform="translate(0,303.98)" style="font-family: 'Open Sans', verdana, arial, sans-serif; font-size: 12px; fill: rgb(42, 63, 95); fill-opacity: 1; white-space: pre;">0.25</text></g><g class="ytick"><text text-anchor="end" x="79" y="4.199999999999999" transform="translate(0,258.09000000000003)" style="font-family: 'Open Sans', verdana, arial, sans-serif; font-size: 12px; fill: rgb(42, 63, 95); fill-opacity: 1; white-space: pre;">0.3</text></g><g class="ytick"><text text-anchor="end" x="79" y="4.199999999999999" transform="translate(0,212.20999999999998)" style="font-family: 'Open Sans', verdana, arial, sans-serif; font-size: 12px; fill: rgb(42, 63, 95); fill-opacity: 1; white-space: pre;">0.35</text></g><g class="ytick"><text text-anchor="end" x="79" y="4.199999999999999" transform="translate(0,166.32)" style="font-family: 'Open Sans', verdana, arial, sans-serif; font-size: 12px; fill: rgb(42, 63, 95); fill-opacity: 1; white-space: pre;">0.4</text></g><g class="ytick"><text text-anchor="end" x="79" y="4.199999999999999" transform="translate(0,120.44)" style="font-family: 'Open Sans', verdana, arial, sans-serif; font-size: 12px; fill: rgb(42, 63, 95); fill-opacity: 1; white-space: pre;">0.45</text></g></g><g class="overaxes-above"/></g></g><g class="polarlayer"/><g class="ternarylayer"/><g class="geolayer"/><g class="funnelarealayer"/><g class="pielayer"/><g class="treemaplayer"/><g class="sunburstlayer"/><g class="glimages"/><defs id="topdefs-88d936"><g class="clips"/><clipPath id="legend88d936"><rect width="127" height="140" x="0" y="0"/></clipPath></defs><g class="layer-above"><g class="imagelayer"/><g class="shapelayer"/></g><g class="infolayer"><g class="legend" pointer-events="all" transform="translate(561.44, 100)"><rect class="bg" shape-rendering="crispEdges" width="127" height="140" x="0" y="0" style="stroke: rgb(68, 68, 68); stroke-opacity: 1; fill: rgb(255, 255, 255); fill-opacity: 1; stroke-width: 0px;"/><g class="scrollbox" transform="translate(0, 0)" clip-path="url('#legend88d936')"><text class="legendtitletext" text-anchor="start" x="2" y="15.600000000000001" style="font-family: 'Open Sans', verdana, arial, sans-serif; font-size: 12px; fill: rgb(42, 63, 95); fill-opacity: 1; white-space: pre;">Continents</text><g class="groups"><g class="traces" transform="translate(0, 30.1)" style="opacity: 1;"><text class="legendtext" text-anchor="start" x="40" y="4.680000000000001" style="font-family: 'Open Sans', verdana, arial, sans-serif; font-size: 12px; fill: rgb(42, 63, 95); fill-opacity: 1; white-space: pre;">Global</text><g class="layers" style="opacity: 1;"><g class="legendfill"/><g class="legendlines"><path class="js-line" d="M5,0h30" style="fill: none; stroke: rgb(99, 110, 250); stroke-opacity: 1; stroke-width: 2px;"/></g><g class="legendsymbols"><g class="legendpoints"/></g></g><rect class="legendtoggle" x="0" y="-9.5" width="121.734375" height="19" style="fill: rgb(0, 0, 0); fill-opacity: 0;"/></g><g class="traces" transform="translate(0, 49.1)" style="opacity: 1;"><text class="legendtext" text-anchor="start" x="40" y="4.680000000000001" style="font-family: 'Open Sans', verdana, arial, sans-serif; font-size: 12px; fill: rgb(42, 63, 95); fill-opacity: 1; white-space: pre;">Europe</text><g class="layers" style="opacity: 1;"><g class="legendfill"/><g class="legendlines"><path class="js-line" d="M5,0h30" style="fill: none; stroke: rgb(239, 85, 59); stroke-opacity: 1; stroke-width: 2px;"/></g><g class="legendsymbols"><g class="legendpoints"/></g></g><rect class="legendtoggle" x="0" y="-9.5" width="121.734375" height="19" style="fill: rgb(0, 0, 0); fill-opacity: 0;"/></g><g class="traces" transform="translate(0, 68.1)" style="opacity: 1;"><text class="legendtext" text-anchor="start" x="40" y="4.680000000000001" style="font-family: 'Open Sans', verdana, arial, sans-serif; font-size: 12px; fill: rgb(42, 63, 95); fill-opacity: 1; white-space: pre;">Asia</text><g class="layers" style="opacity: 1;"><g class="legendfill"/><g class="legendlines"><path class="js-line" d="M5,0h30" style="fill: none; stroke: rgb(0, 204, 150); stroke-opacity: 1; stroke-width: 2px;"/></g><g class="legendsymbols"><g class="legendpoints"/></g></g><rect class="legendtoggle" x="0" y="-9.5" width="121.734375" height="19" style="fill: rgb(0, 0, 0); fill-opacity: 0;"/></g><g class="traces" transform="translate(0, 87.1)" style="opacity: 1;"><text class="legendtext" text-anchor="start" x="40" y="4.680000000000001" style="font-family: 'Open Sans', verdana, arial, sans-serif; font-size: 12px; fill: rgb(42, 63, 95); fill-opacity: 1; white-space: pre;">North America</text><g class="layers" style="opacity: 1;"><g class="legendfill"/><g class="legendlines"><path class="js-line" d="M5,0h30" style="fill: none; stroke: rgb(171, 99, 250); stroke-opacity: 1; stroke-width: 2px;"/></g><g class="legendsymbols"><g class="legendpoints"/></g></g><rect class="legendtoggle" x="0" y="-9.5" width="121.734375" height="19" style="fill: rgb(0, 0, 0); fill-opacity: 0;"/></g><g class="traces" transform="translate(0, 106.1)" style="opacity: 1;"><text class="legendtext" text-anchor="start" x="40" y="4.680000000000001" style="font-family: 'Open Sans', verdana, arial, sans-serif; font-size: 12px; fill: rgb(42, 63, 95); fill-opacity: 1; white-space: pre;">South America</text><g class="layers" style="opacity: 1;"><g class="legendfill"/><g class="legendlines"><path class="js-line" d="M5,0h30" style="fill: none; stroke: rgb(255, 161, 90); stroke-opacity: 1; stroke-width: 2px;"/></g><g class="legendsymbols"><g class="legendpoints"/></g></g><rect class="legendtoggle" x="0" y="-9.5" width="121.734375" height="19" style="fill: rgb(0, 0, 0); fill-opacity: 0;"/></g><g class="traces" transform="translate(0, 125.1)" style="opacity: 1;"><text class="legendtext" text-anchor="start" x="40" y="4.680000000000001" style="font-family: 'Open Sans', verdana, arial, sans-serif; font-size: 12px; fill: rgb(42, 63, 95); fill-opacity: 1; white-space: pre;">Oceania</text><g class="layers" style="opacity: 1;"><g class="legendfill"/><g class="legendlines"><path class="js-line" d="M5,0h30" style="fill: none; stroke: rgb(25, 211, 243); stroke-opacity: 1; stroke-width: 2px;"/></g><g class="legendsymbols"><g class="legendpoints"/></g></g><rect class="legendtoggle" x="0" y="-9.5" width="121.734375" height="19" style="fill: rgb(0, 0, 0); fill-opacity: 0;"/></g></g></g><rect class="scrollbar" rx="20" ry="3" width="0" height="0" x="0" y="0" style="fill: rgb(128, 139, 164); fill-opacity: 1;"/></g><g class="g-gtitle"/><g class="g-xtitle"><text class="xtitle" x="316" y="461.8" text-anchor="middle" style="font-family: 'Open Sans', verdana, arial, sans-serif; font-size: 14px; fill: rgb(42, 63, 95); opacity: 1; font-weight: normal; white-space: pre;">Date</text></g><g class="g-ytitle"><text class="ytitle" transform="rotate(-90,30.418750000000003,260)" x="30.418750000000003" y="260" text-anchor="middle" style="font-family: 'Open Sans', verdana, arial, sans-serif; font-size: 14px; fill: rgb(42, 63, 95); opacity: 1; font-weight: normal; white-space: pre;">acousticness</text></g></g></svg>