<svg class="main-svg" xmlns="http://www.w3.org/2000/svg" xmlns:xlink="http://www.w3.org/1999/xlink" width="700" height="500" style="" viewBox="0 0 700 500"><rect x="0" y="0" width="700" height="500" style="fill: rgb(255, 255, 255); fill-opacity: 1;"/><defs id="defs-f1f160"><g class="clips"><clipPath id="clipf1f160xyplot" class="plotclip"><rect width="516" height="320"/></clipPath><clipPath class="axesclip" id="clipf1f160x"><rect x="80" y="0" width="516" height="500"/></clipPath><clipPath class="axesclip" id="clipf1f160y"><rect x="0" y="100" width="700" height="320"/></clipPath><clipPath class="axesclip" id="clipf1f160xy"><rect x="80" y="100" width="516" height="320"/></clipPath></g><g class="gradients"/></defs><g class="bglayer"><rect class="bg" x="80" y="100" width="516" height="320" style="fill: rgb(229, 236, 246); fill-opacity: 1; stroke-width: 0;"/></g><g class="layer-below"><g class="imagelayer"/><g class="shapelayer"/></g><g class="cartesianlayer"><g class="subplot xy"><g class="layer-subplot"><g class="shapelayer"/><g class="imagelayer"/></g><g class="gridlayer"><g class="x"><path class="xgrid crisp" transform="translate(212.26,0)" d="M0,100v320" style="stroke: rgb(255, 255, 255); stroke-opacity: 1; stroke-width: 1px;"/><path class="xgrid crisp" transform="translate(344.52,0)" d="M0,100v320" style="stroke: rgb(255, 255, 255); stroke-opacity: 1; stroke-width: 1px;"/><path class="xgrid crisp" transform="translate(476.78,0)" d="M0,100v320" style="stroke: rgb(255, 255, 255); stroke-opacity: 1; stroke-width: 1px;"/></g><g class="y"><path class="ygrid crisp" transform="translate(0,393.2)" d="M80,0h516" style="stroke: rgb(255, 255, 255); stroke-opacity: 1; stroke-width: 1px;"/><path class="ygrid crisp" transform="translate(0,342.36)" d="M80,0h516" style="stroke: rgb(255, 255, 255); stroke-opacity: 1; stroke-width: 1px;"/><path class="ygrid crisp" transform="translate(0,291.52)" d="M80,0h516" style="stroke: rgb(255, 255, 255); stroke-opacity: 1; stroke-width: 1px;"/><path class="ygrid crisp" transform="translate(0,240.68)" d="M80,0h516" style="stroke: rgb(255, 255, 255); stroke-opacity: 1; stroke-width: 1px;"/><path class="ygrid crisp" transform="translate(0,189.82999999999998)" d="M80,0h516" style="stroke: rgb(255, 255, 255); stroke-opacity: 1; stroke-width: 1px;"/><path class="ygrid crisp" transform="translate(0,138.99)" d="M80,0h516" style="stroke: rgb(255, 255, 255); stroke-opacity: 1; stroke-width: 1px;"/></g></g><g class="zerolinelayer"/><path class="xlines-below"/><path class="ylines-below"/><g class="overlines-below"/><g class="xaxislayer-below"/><g class="yaxislayer-below"/><g class="overaxes-below"/><g class="plot" transform="translate(80, 100)" clip-path="url('#clipf1f160xyplot')"><g class="scatterlayer mlayer"><g class="trace scatter trace4b7620" style="stroke-miterlimit: 2; opacity: 1;"><g class="fills"/><g class="errorbars"/><g class="lines"><path class="js-line" d="M0,269.42L1.09,252.12L1.45,254.19L2.54,241.86L2.9,243.37L3.26,249.43L3.62,250.46L3.99,247.21L4.35,242.36L4.71,254.4L5.8,248.25L6.16,248.63L6.52,255.85L7.61,247.83L7.97,246.2L8.7,242.25L9.06,244.71L9.42,261.32L9.78,257.41L10.15,240.83L10.51,235.73L10.87,248.3L11.6,243.7L11.96,234.02L12.32,243.23L12.68,240.53L13.04,235.51L13.41,236.02L13.77,230.51L14.49,239.72L14.86,252.43L15.94,210L16.31,227.9L17.39,258.98L17.76,245.19L18.12,247.13L18.48,241.68L19.93,258.91L20.29,246.76L20.65,232.89L21.02,239.91L21.38,237.67L21.74,239.71L22.1,231.5L22.47,231.97L22.83,227.32L23.19,223.6L23.55,227.44L23.92,231.34L24.28,231.58L24.64,242.99L25.73,232.58L26.09,232.96L26.45,236.2L27.18,245.8L27.54,242.61L28.63,235.21L28.99,236.89L30.08,246.58L30.44,242.45L30.8,237.74L31.16,238.56L31.53,242.98L32.61,250.95L32.97,246.15L33.34,242.49L33.7,248.57L35.15,267.98L35.51,264.23L35.87,256.62L36.6,252.64L36.96,260.43L37.69,261.45L38.05,255.72L38.77,255.15L39.13,261.67L39.5,261.97L39.86,265.57L40.22,267.32L40.58,263.43L41.67,258.02L42.03,259.13L42.4,272.08L42.76,271.78L43.12,264.44L43.85,254.43L44.21,256.85L44.57,262.01L44.93,266.97L45.29,261.86L45.66,256.55L46.02,256.95L46.38,256.36L46.74,258.87L47.47,269.38L47.83,260.85L48.19,255.65L48.56,257.33L48.92,259.25L50.01,274.07L50.37,270.76L50.73,271.31L51.09,269.82L51.82,274.66L52.18,272.1L52.54,267.02L52.9,272.83L53.27,272.38L53.63,268.71L54.72,273.29L55.44,271.98L55.8,275.97L56.17,272.43L56.53,271.11L56.89,268.33L57.25,273.15L57.98,278.12L58.34,273.03L58.7,274.89L59.06,272.64L59.43,279.12L59.79,272.01L60.15,267.07L60.51,271.01L60.88,270.24L61.6,265.96L61.96,272.83L62.33,272.24L62.69,281.16L63.41,277.89L63.78,280.08L64.14,280.7L64.5,279.88L64.86,277.51L65.59,265.62L65.95,270.57L66.31,272.43L66.67,273.7L67.04,273.26L67.4,270.42L67.76,273.12L68.12,270.84L68.49,270.28L70.3,285.21L70.66,281.04L71.02,278.93L71.38,282.48L71.75,281.3L72.11,282.49L72.47,285.06L73.56,266.54L73.92,269.39L74.28,272.34L74.65,271.23L75.01,269.64L75.73,281.79L76.1,273.54L78.27,283.82L78.63,278.33L79.72,285.61L80.08,284.45L80.44,293.14L80.81,286.31L81.17,279.25L81.89,285.4L82.26,284.49L82.62,284.85L82.98,286.77L83.34,287.2L83.71,282.56L84.43,287.31L84.79,282.07L85.15,286.12L85.52,255.08L85.88,253.6L86.24,260.06L86.6,263.12L86.97,258.42L88.42,272.96L88.78,263.66L89.87,268.93L90.23,265.7L90.95,273.48L91.31,259.72L92.04,259.28L92.4,264.29L92.76,264.09L93.13,281.36L93.49,278.42L93.85,268.3L94.21,262.84L94.58,265.12L94.94,265.6L96.03,278.27L96.39,267.88L96.75,263.49L97.11,265.71L97.47,267.65L97.84,268.85L98.2,277.71L99.29,262.96L99.65,266.99L100.01,263.76L100.37,268.91L100.74,270.38L101.1,268.29L101.46,265.37L101.82,255.2L103.27,266.5L103.63,264.69L104.36,254.24L104.72,257.9L105.08,260.26L105.45,261.36L105.81,265.29L107.26,255.72L107.62,257.48L107.98,257.82L108.35,266.14L109.07,264.23L109.43,256.72L109.79,261.39L110.16,256.02L110.52,252.31L110.88,239.65L111.61,231.02L111.97,237.7L112.33,233.42L112.69,238.69L113.78,249.09L114.14,245.68L114.51,245.56L114.87,247.07L115.23,244.48L115.59,249.12L116.32,257.15L116.68,251.55L117.04,252.12L117.4,250.99L118.13,256.91L118.49,252.6L119.22,231.3L119.58,240.11L120.67,245.51L121.03,238.06L121.75,199.97L122.12,220.28L122.48,226.57L122.84,225.29L123.2,216.27L123.56,219.71L123.93,197.13L124.29,180.35L124.65,213.76L125.01,218L125.38,213.89L125.74,209.57L126.1,211.71L126.46,202.06L126.83,195.14L127.19,214.88L127.55,212.01L127.91,202.79L129,185.21L129.36,112.1L129.72,47.78L130.09,227.37L131.17,258.8L131.54,264.88L132.26,279.16L132.62,260.19L134.07,272.29L134.44,264.61L134.8,259.94L135.16,268.5L135.52,265.16L135.88,272.07L136.97,270.66L137.33,264.88L138.42,268.11L138.78,283.39L139.51,283.39L139.87,286.29L140.6,282.44L140.96,284.78L141.32,292.11L141.68,289.2L142.04,285.88L142.77,288.53L143.13,282.53L143.86,291.49L144.22,290.61L144.58,286.92L144.94,283.04L145.31,284.27L145.67,284.66L146.03,276.04L146.39,285.15L146.76,281.52L147.12,282.25L147.48,281.14L147.84,279.73L148.21,261L148.93,278.11L149.29,277.33L149.65,273.78L150.38,270.15L150.74,275.16L151.1,274.97L151.47,283.46L152.19,278.35L152.55,280.49L153.64,274.31L154,280.17L155.09,275.14L155.45,276.31L155.81,278.03L156.18,275.68L156.54,283.46L156.9,281.96L157.26,277.26L157.63,281.67L157.99,278.24L158.35,275.53L158.71,272.49L159.08,255.15L160.53,262.13L160.89,260.23L161.97,267.96L162.34,264.55L164.51,256.6L164.87,253.83L165.24,247.65L165.6,251.46L165.96,249.15L166.32,254.39L166.69,254.19L167.05,250.82L167.41,251.04L167.77,253.7L168.13,253.7L168.5,254.53L168.86,251.55L169.22,253.21L169.58,257.75L169.95,248.86L170.31,251.26L170.67,250.88L171.03,248.01L171.4,251.22L172.12,276L172.48,261.3L175.38,240.05L175.74,240.07L176.11,244.15L176.47,239.44L176.83,252.26L177.19,248.45L177.56,245.11L178.28,241.37L178.64,242.4L179.01,247.97L179.37,256.61L179.73,255.52L180.09,250.32L180.82,255.7L181.18,252.01L181.54,253.96L181.9,248.24L182.63,247.91L182.99,242.33L183.35,242.23L183.72,244.22L184.08,240.94L184.44,228.19L184.8,237.8L185.17,231.01L185.53,232.1L185.89,228.7L186.25,243.75L186.62,238.84L186.98,249.63L187.7,242.05L188.06,235.17L189.51,241.31L189.88,251.01L190.24,239.35L190.6,242.07L190.96,241.43L192.05,270.37L192.41,264.05L192.78,256.29L193.5,201.16L193.86,214.56L194.22,226.33L194.59,222.34L194.95,223.61L195.31,224.42L195.67,224.22L196.04,225.59L197.49,236.54L197.85,228.27L198.57,223.12L198.94,238.99L199.3,237.19L199.66,242.92L200.02,243.88L200.38,237.77L201.11,231.17L201.47,235.1L201.83,232.81L202.2,247.72L202.56,246.23L202.92,241.45L203.28,233.68L203.65,237.08L204.01,240.14L204.73,250.89L205.1,244.06L206.18,234.24L206.54,236.93L207.27,234.77L207.63,235.33L207.99,230.69L208.36,231.09L208.72,227.67L210.17,236.35L210.53,234.27L211.26,231.6L211.62,233.38L211.98,233.95L212.34,231.31L212.71,235.34L213.07,230.22L213.43,223.17L213.79,228.01L214.15,223.94L214.52,220.56L214.88,222.93L215.24,224.89L216.33,213.95L216.69,214.59L217.05,213.21L217.78,221.69L218.14,220.59L218.5,212.69L218.87,221.94L219.23,218.71L219.59,218.35L219.95,217.22L220.31,220.73L220.68,210.18L221.04,211.9L221.4,211.36L222.13,207.39L222.49,220.86L223.58,194.2L223.94,198.59L225.03,219.04L225.39,218.66L225.75,211.49L226.11,207.67L226.47,218.73L226.84,219.28L227.2,222.51L227.56,230.01L227.92,225.28L228.29,221.8L229.74,228.12L230.1,236.05L231.91,228.15L232.27,226.35L232.63,243.96L233,238.65L233.36,236.33L233.72,242.03L234.08,237.76L234.45,230.6L235.17,245.42L235.53,241.15L235.9,236.61L236.62,238.64L236.98,228.47L237.35,224.46L238.07,224.78L238.43,221.32L239.52,218.07L239.88,218.57L240.24,211.72L240.61,227.92L241.33,216.06L241.69,217.69L242.06,225.76L242.42,222.86L242.78,195.06L244.23,202.6L244.59,199.39L244.96,198.22L245.32,231.62L246.4,208.24L246.77,210.93L247.85,223.05L248.22,216.23L248.94,201.51L249.3,204.99L250.39,195.08L250.75,184.67L251.12,169.53L251.48,179.75L251.84,184.69L252.2,185.21L252.56,182.19L252.93,197.55L253.29,159.09L253.65,148.96L254.01,168.71L254.38,172.03L254.74,168.42L255.1,168.26L255.46,148.85L255.83,135.1L256.19,135.88L256.55,150.43L256.91,147.31L257.28,154.29L257.64,152.26L258,159.05L258.72,133.24L259.09,148.98L259.45,153.25L259.81,148.62L260.17,151.05L260.54,170.52L260.9,136.67L261.26,124.64L261.62,46.18L261.99,19.95L262.35,150.98L263.44,205.03L263.8,202.31L264.16,231.66L264.52,217.5L264.88,203.13L265.25,199.61L265.61,201.95L265.97,202.23L267.42,195.56L267.78,193.22L268.15,194.96L268.51,191.07L270.68,208.2L271.04,197.38L271.41,192.67L271.77,198.91L272.13,199.27L272.49,192.1L273.58,197.33L273.94,187.11L274.31,193.47L274.67,190.55L275.03,192.43L275.39,192.62L275.76,195.67L276.12,191.26L276.48,191.99L276.84,192.47L278.29,200.7L278.65,193.36L279.38,194.44L279.74,192.83L280.47,177.78L280.83,189.27L281.92,197.69L282.28,196.59L282.64,196.18L283,198.49L283.73,182.86L284.09,184.35L284.45,187.43L285.18,195.3L285.54,186.89L285.9,185.38L286.26,179.66L286.63,171.81L286.99,180.74L287.71,181.87L288.08,180.5L288.44,192.69L288.8,185.93L289.16,180.44L290.25,189.16L290.61,184.15L291.34,179.78L291.7,182.02L292.42,184.38L292.79,183.35L293.15,182.47L293.51,173.71L294.24,182.93L294.6,177.99L294.96,173.8L295.32,174.65L295.69,175.74L296.77,155.97L297.13,160.99L298.22,155.31L298.58,160.41L298.95,159.44L299.31,165.14L299.67,170.15L300.03,164.9L300.4,163.06L300.76,166.26L301.12,185.94L301.85,171.77L302.21,175.05L302.57,182.69L302.93,185.69L303.29,182.46L303.66,184.18L304.02,183.17L304.38,179.45L304.74,181.4L305.11,169.1L305.83,184.71L306.19,182.87L306.56,188.93L306.92,173.58L307.28,175.74L307.64,180.24L308.01,170.71L308.37,174.88L308.73,183.49L309.09,182.76L309.46,176.5L309.82,178.85L310.18,176.48L310.54,177.11L311.63,197.23L311.99,182.29L312.35,179.96L312.72,188.02L313.08,188.01L313.44,186.54L314.17,208.69L314.53,194.88L315.25,189.6L315.62,191.24L315.98,195.62L317.43,183.19L317.79,181.77L318.15,185.92L318.88,185.8L319.24,186.1L319.6,172.57L319.96,179.56L320.33,178.81L320.69,173.16L321.05,177.75L321.41,197.29L321.78,192.16L322.14,175.51L323.59,179.42L323.95,203.31L324.31,201.18L324.67,181.24L325.4,185.51L325.76,181.79L326.12,180.9L326.49,199.18L326.85,199.67L327.21,186.66L327.57,193.95L327.94,188.63L328.3,189.63L328.66,188.57L329.02,204.21L329.38,202.54L329.75,196.42L330.11,193.1L330.47,194.34L330.83,195.5L331.56,208.47L331.92,199.79L332.65,185.7L333.01,189.18L333.37,185.03L333.73,187.62L334.1,194.46L334.46,198.33L334.82,182.92L335.54,191.49L335.91,189.13L336.27,190.42L336.99,204.08L337.36,197.56L337.72,190.73L338.08,195.03L338.44,193.72L338.81,195.1L339.17,210.66L339.53,208.14L339.89,193.62L340.26,199.47L340.62,195.27L340.98,193.34L342.07,199.07L342.43,184.34L342.79,190.93L343.15,187.75L343.52,190.12L343.88,192.93L344.24,205.09L344.6,201.68L344.97,190.24L345.33,191.05L345.69,190.14L346.05,187.72L346.42,190.68L346.78,209.24L347.5,183.43L347.87,187.03L348.23,186.03L348.59,186L348.95,188.45L349.31,178.29L349.68,193.82L350.4,172.86L350.76,179.32L351.13,178.89L351.49,181.59L351.85,172.72L352.21,182.24L352.58,176.4L352.94,171.81L354.03,185.33L354.39,195.62L354.75,203.87L355.11,186.01L355.47,182.07L355.84,189.64L356.2,189.02L356.56,190.63L357.29,205.12L357.65,193.51L358.01,188.66L358.37,191.01L358.74,195.12L359.82,208.17L360.19,192.48L361.27,202.26L361.63,198.72L362,216.11L362.36,215.07L362.72,191.85L363.45,194.4L363.81,192.89L364.9,207.17L365.26,187.48L365.62,190.35L365.98,190L366.35,189.64L367.43,197.4L367.79,191.65L368.52,187.9L368.88,194.06L369.24,192.74L369.61,194.75L369.97,200.82L370.33,190.41L371.42,195.72L371.78,190.64L373.23,180.22L373.59,180.01L373.96,179.83L374.32,194.54L374.68,202.93L375.04,198.16L375.4,188.18L375.77,186.61L376.13,188.78L377.58,205.13L377.94,196.61L378.3,196.71L378.67,202.01L379.39,193.84L379.75,212.06L380.12,206.89L380.48,184.81L381.2,197.06L381.56,193.9L381.93,192.27L382.29,191.7L382.65,184.24L383.01,168.94L383.38,171.91L383.74,171.51L384.1,172.17L384.46,176.34L384.83,173.3L385.19,159.18L385.55,125.8L385.91,134.05L386.28,138.17L386.64,134.82L387,159.65L387.36,159.9L387.72,155.25L388.09,142.7L388.81,142.76L389.17,139.23L389.9,143.85L390.26,152.99L390.62,129.73L391.35,130.18L391.71,136.88L392.07,136.34L392.44,149.44L394.25,16L394.61,132.61L395.33,182.76L395.7,178.5L396.06,176.61L396.42,218.76L396.78,203.13L397.15,178.75L397.51,177.48L397.87,181.79L398.23,175.19L398.6,180.26L398.96,181.47L399.68,186.47L400.04,179L400.41,180.49L400.77,178.86L401.13,176.15L402.22,182.45L402.58,204.57L403.31,180.46L403.67,183.73L404.03,181.54L404.76,193.4L405.12,188.12L405.48,192.32L405.84,176.75L406.21,165.91L406.57,171.42L406.93,173.43L408.02,179.8L408.38,173.07L408.74,172.82L409.1,174.66L409.47,177.32L409.83,175.44L410.19,191.43L410.55,192.11L410.92,169.33L412.37,177.55L412.73,164.23L413.09,168.87L413.45,159.32L414.18,152.41L414.54,155.9L414.9,155.09L415.26,197.72L415.99,171.51L416.35,175.02L416.71,171.35L417.08,171.61L417.44,167.67L418.16,190.67L418.53,181.1L419.25,182.37L419.61,184.59L419.97,184.92L420.34,192.21L420.7,190.63L421.06,178.13L422.15,182.92L422.51,184.03L422.87,190.04L423.24,189.4L423.6,176.27L425.41,190.66L425.77,184.74L427.22,175.8L427.58,179.57L427.95,202.83L428.31,191.37L428.67,182.79L429.03,184.22L429.4,182.14L429.76,180.74L430.12,181.84L430.48,175.12L431.21,179.96L431.57,177.54L432.29,185.63L432.66,183.68L433.02,188.8L433.38,182.81L434.47,174.27L434.83,172.66L435.19,175.39L435.56,188.23L436.64,174.11L437.01,179L438.09,186.66L438.46,178.21L439.54,174.97L439.9,175.35L440.27,180.5L440.63,174.15L440.99,178.52L441.35,167.63L442.8,171.66L443.17,192.11L443.89,178.84L444.25,178.97L444.62,180.8L444.98,180.62L445.34,181.61L445.7,215.94L446.06,199.31L446.43,194.79L447.51,182.78L447.88,185.14L448.24,235.92L448.6,213.74L448.96,193.97L450.05,187.67L450.41,190.21L450.78,206.8L451.14,204.62L451.5,187.94L452.22,195.95L452.59,189.89L452.95,179.39L453.31,187.8L453.67,188.4L454.04,176.06L454.76,177.01L455.12,175.09L455.49,177.31L455.85,192.74L456.21,193.45L456.57,182.05L457.3,188.35L457.66,180.64L458.02,175.04L458.38,187.57L458.75,196.58L459.11,180.6L459.47,180.8L459.83,187.77L461.28,207.5L461.65,185.8L462.01,185.55L462.37,180.76L462.73,179.54L463.1,190.93L463.46,207.11L463.82,202.14L464.18,192.84L465.27,188.06L465.63,191.25L465.99,203.34L466.36,200.57L466.72,194.44L467.44,179.29L467.81,192.03L468.17,194.48L468.53,207.01L468.89,217.87L469.26,206.45L469.62,198.02L469.98,195.51L470.34,196.09L470.71,210.15L471.79,159.28L472.15,155.03L472.52,155.65L472.88,152.4L473.24,153.14L473.6,156.54L473.97,161.6L474.33,144.99L474.69,149.14L475.05,145.22L475.42,147.93L475.78,152.04L476.14,175.7L476.5,177.13L476.87,159.72L477.23,157.85L477.59,162.59L478.68,179.99L479.04,190.65L480.13,159.02L480.49,165.04L481.58,195.24L481.94,179.53L482.66,172.84L483.03,174.24L483.39,176.64L484.11,201.83L484.47,187.84L485.2,183.5L485.92,183.69L486.29,211.67L486.65,208.24L487.01,191.96L488.1,184.51L488.46,189.24L489.19,209.6L489.55,192.69L489.91,191.03L490.27,193.73L490.63,192.38L491,194.43L491.72,207.05L492.08,185.36L492.45,191.55L492.81,190.85L493.17,186.19L493.53,183.98L493.9,198.75L494.98,180.93L495.35,186.48L496.07,180.37L496.43,214.79L496.79,220.84L497.16,201.14L497.52,200.49L497.88,198.07L499.33,220.13L499.69,196.46L500.42,190.47L500.78,191.46L501.14,193.35L501.87,201.47L502.23,187.33L502.59,180.53L502.96,182.52L503.32,184L504.04,199.24L504.4,197.69L504.77,190.79L505.13,187.26L505.49,189.52L505.85,190.11L506.94,207.86L507.3,206.32L507.67,191.26L508.03,193.87L508.39,193.38L508.75,191.91L509.48,208.98L509.84,193.74L510.56,193.35L510.93,197.43L511.29,193.36L511.65,199.19L512.74,175.18L513.1,177.29L513.83,181.02L514.19,197.32L514.91,168.88L515.28,170.9L515.64,174.68L516,167.99" style="vector-effect: non-scaling-stroke; fill: none; stroke: rgb(99, 110, 250); stroke-opacity: 1; stroke-width: 2px; opacity: 1;"/></g><g class="points"/><g class="text"/></g><g class="trace scatter trace021787" style="stroke-miterlimit: 2; opacity: 1;"><g class="fills"/><g class="errorbars"/><g class="lines"><path class="js-line" d="M0,272.32L0.36,271.08L0.72,271.79L1.09,265.43L1.45,265.06L1.81,257.21L2.17,256.56L2.54,247.16L3.99,260.57L4.35,256.08L4.71,266.26L5.07,252.49L6.16,267.45L6.52,266.68L6.88,266.64L7.25,270.58L7.61,256.34L8.33,272.54L8.7,272.09L9.06,277.25L10.15,259.52L10.51,263.87L11.23,262.42L11.6,269.71L11.96,268.97L12.32,266.16L13.04,251.66L13.41,256.67L13.77,256.99L14.13,253.17L14.49,270.58L14.86,269.83L15.22,248.03L15.58,253.37L15.94,233.24L17.03,264.3L17.39,263.33L17.76,243.44L18.12,256.5L18.48,256.21L19.93,264.38L20.29,250.71L20.65,253.52L21.02,245.58L21.38,250.46L21.74,227.46L22.1,229.31L22.47,224.42L22.83,214.25L23.19,219.55L23.55,227.38L23.92,220.6L24.28,224.32L24.64,226.02L25.37,214.03L25.73,221.02L27.18,242.59L27.54,233.8L27.9,227.94L28.26,236.06L28.63,237.54L28.99,235.12L29.35,234.78L29.71,239.11L30.08,238.46L30.44,233.09L30.8,246.4L31.16,246.29L31.53,243.89L31.89,239.7L32.25,250.43L32.97,240.6L33.34,243.08L33.7,250.52L34.06,244.23L34.42,254.52L35.15,263.71L35.51,253.47L35.87,259.75L36.24,250.55L36.96,259.27L37.32,256.87L37.69,253.18L38.05,248.07L38.41,249.45L38.77,260.4L39.13,258.45L39.5,247.47L40.22,253.5L40.58,239.44L40.95,257.13L41.31,242.03L41.67,243.17L42.03,244.91L42.4,266.78L43.12,246.25L43.48,248.69L43.85,251.41L44.21,245.11L44.57,245.24L44.93,255.62L45.66,233.53L46.02,237.05L46.38,237.67L46.74,233.12L47.11,236.3L47.47,249.02L48.19,225.77L48.56,229.06L48.92,229.61L49.28,231.51L49.64,228.78L50.01,248.41L50.37,241.6L50.73,225.97L52.54,253.27L52.9,245.71L53.27,226.26L53.63,239.56L54.72,239.35L55.44,248.07L55.8,243.24L56.17,244.11L56.53,242.77L57.25,237.52L57.62,257.29L59.06,240.84L59.43,243.11L59.79,229.75L60.15,248.28L60.51,248.65L60.88,240.59L61.6,238.01L61.96,240.52L63.05,258.13L63.41,247.67L63.78,251.43L64.14,245.39L65.22,254.52L65.59,253.64L65.95,247.43L66.31,253.15L66.67,250.88L67.04,252.24L67.4,246.94L67.76,260.7L68.12,251.7L68.49,241.1L69.57,250.16L69.94,251.57L70.3,258.79L70.66,254.71L71.02,249.06L71.75,244.26L72.11,247.83L72.47,249.06L72.83,272.24L74.28,244.25L74.65,247.56L75.01,246.34L75.37,272.33L76.1,247.23L76.46,257.23L77.18,250.46L77.54,255.93L77.91,272.01L78.27,264.95L78.63,255.32L78.99,261.63L79.36,250.68L80.44,268.74L80.81,266.8L81.89,251.87L82.26,253.97L82.62,251.7L82.98,267.15L83.34,274.27L83.71,256.67L84.43,258.82L84.79,267.91L85.88,253.38L86.24,234.83L87.33,241.28L87.69,246.49L88.05,262.9L88.42,261.76L88.78,243.81L89.87,254.29L90.23,250.33L90.59,268.11L90.95,260.45L91.31,247.02L91.68,245.84L92.04,247.89L93.49,266.98L93.85,254.23L94.58,246.41L94.94,249.01L95.3,251.09L95.66,263.51L96.75,250.75L97.11,256.5L97.47,256.03L97.84,257.42L98.56,263.84L98.92,263.34L99.29,261.43L100.74,248.17L101.1,244.65L101.46,237.65L101.82,241.2L102.19,242.86L102.55,240.35L102.91,243.92L103.63,251.63L104,240.69L104.36,243.87L104.72,255.1L105.45,247.5L105.81,257.22L106.53,240.5L106.9,246.36L107.26,246.79L107.62,248.54L107.98,243.89L108.35,257.31L108.71,255.69L109.07,241.79L109.79,261.49L110.16,255L110.52,253.39L111.61,221.02L111.97,235.06L112.69,238.01L113.06,246.83L113.42,257.43L113.78,255.03L114.14,239.66L114.87,252.77L115.23,250.34L115.59,247.65L115.96,266.68L116.32,258.7L116.68,253.81L117.77,262.06L118.13,256.83L118.49,264.84L118.85,257.21L119.22,243.92L119.94,258.96L120.3,256.16L120.67,258.63L121.39,225.46L121.75,226.09L122.12,250.81L122.48,251.9L122.84,250.22L124.29,222.9L124.65,234.56L125.01,234.85L125.38,233.24L125.74,227.08L126.1,237.34L126.83,208.27L127.19,233.39L129,176.07L129.36,90.57L129.72,111.07L130.09,252.93L130.45,252.04L130.81,253.56L131.17,262.28L131.54,258.35L131.9,302.34L132.99,256.72L133.35,256.2L133.71,263.47L134.07,261.94L134.44,262.24L135.16,257.83L135.52,259.29L135.88,258.35L136.25,258.97L136.61,261.41L136.97,254.77L137.33,259.47L137.7,265.51L138.06,263.54L138.42,264.67L138.78,273.17L139.15,274.88L139.51,263.85L139.87,258.88L140.23,260.34L140.6,265.17L140.96,270.78L141.32,304L142.41,266.83L142.77,265.66L143.13,259.46L143.49,268.94L143.86,278.71L144.22,272.75L144.58,268.55L145.31,269.17L145.67,263.79L146.03,267.45L146.39,281.2L147.12,265.76L147.48,271.97L147.84,268.72L148.21,246.56L148.57,277.49L148.93,278.89L149.29,275.69L149.65,267.16L150.02,273.13L150.38,269.83L151.47,249.01L151.83,264.94L152.19,254.8L152.55,258.81L152.92,267.38L153.28,260.17L153.64,262.81L154,263.16L154.37,265.23L154.73,255.78L155.09,256.38L155.45,255.19L155.81,255.13L156.18,253.23L156.54,263.68L156.9,261.28L157.26,248.17L157.63,236.09L157.99,240.32L158.35,245.97L159.08,229.75L159.44,241.49L160.16,229.37L160.53,232.56L160.89,225.74L161.25,232.48L161.61,234.16L161.97,243.36L162.34,227.78L163.42,233.36L163.79,240.44L164.51,231.73L164.87,232.91L165.24,230.64L165.6,237.73L165.96,232.73L166.32,235.94L167.05,238L167.41,233.14L167.77,232.54L168.13,237.87L168.5,230.8L168.86,236.05L169.22,247.56L169.95,232.03L170.31,237.25L170.67,236.59L171.03,238.4L171.4,238.3L171.76,247.21L172.12,260.26L172.48,246.88L172.85,237.31L173.93,244.78L174.29,236.66L174.66,242.61L175.02,231.1L175.74,228.76L176.11,230.21L176.47,232.57L176.83,245.39L177.19,245.82L177.56,229.77L177.92,230.03L178.28,235.02L178.64,231.5L179.01,239.87L179.37,258.42L179.73,255.51L180.09,235.18L180.46,238.84L180.82,229.33L181.18,231.97L181.54,227.71L182.27,253.82L182.63,230.73L183.35,228.4L183.72,229.43L184.08,241.49L185.17,206.79L185.53,213.83L185.89,214.23L186.25,221.14L186.98,248.34L187.34,246.95L187.7,224.85L188.43,217.21L188.79,218.15L189.15,221.19L189.88,244.69L190.24,227.56L190.96,218.93L191.33,230.6L192.05,257.31L192.41,254.2L192.78,222.96L193.14,210.87L193.5,172.71L194.95,213.17L195.31,197.21L195.67,203.3L196.04,201.44L196.4,196.75L197.49,213.7L197.85,201.7L198.21,200.69L198.57,203.76L199.3,208.41L199.66,221.84L200.02,228.31L200.38,209.82L202.2,233.91L202.56,230.92L204.01,217.51L204.37,217.42L204.73,215.75L205.1,223L205.82,208.56L206.18,208.84L206.54,206.49L206.91,203.57L207.27,213.75L207.63,219.78L207.99,210.49L208.72,206.82L209.08,203.22L210.17,219.07L210.53,209.01L211.98,214.04L212.34,224.49L213.43,201.25L213.79,204.93L214.52,209.97L214.88,206.37L215.24,209.71L215.6,196.61L217.05,204.18L217.42,224.46L217.78,227.89L218.14,208.17L218.87,204.45L219.23,206.48L220.31,224.73L220.68,206.05L222.49,223.87L222.85,210.79L223.58,200.14L223.94,209.97L224.66,219.85L225.03,215.18L225.39,228.88L225.75,213.08L226.11,208.82L226.47,216.64L227.56,236.82L227.92,233.33L228.29,230.41L228.65,229.4L229.01,230.5L229.37,231.14L230.46,241.44L230.82,239.02L231.91,228.68L232.27,229.61L232.63,249.34L234.08,229.79L234.45,234.68L235.53,247.91L235.9,233.48L236.26,232.16L236.62,236.8L237.35,230.3L237.71,235.79L238.07,240.74L238.43,220.22L239.52,213.12L239.88,222.86L240.24,232.77L240.61,224.34L240.97,200.84L241.69,208.49L242.06,218.16L242.78,214.45L243.14,221.19L243.51,203.27L243.87,205.72L244.23,205.07L244.59,202.56L244.96,215.01L245.32,228.61L245.68,226.75L246.04,212.2L247.85,228.84L248.22,223.51L248.58,207.74L248.94,215.23L249.3,218.33L249.67,214.88L250.03,218.86L250.75,226.56L251.12,206.9L252.2,221.58L252.56,218.89L252.93,219.09L253.65,168.1L254.01,197.1L254.38,198.47L254.74,196.82L255.1,197.99L255.46,180.37L256.19,160.41L256.55,177.1L256.91,179.64L257.28,178.75L257.64,172.47L258.72,139.68L259.09,162.3L260.9,144.55L261.26,123.32L261.99,46.92L262.35,218.1L262.71,213.57L263.07,219.31L263.44,221.38L263.8,217.65L264.16,258.3L264.52,217.71L264.88,219.96L265.25,222.02L265.61,221.65L265.97,221.01L266.33,210.83L266.7,213.87L267.06,213.42L267.42,206.72L267.78,212.67L268.15,212.8L268.51,224.28L268.87,207.02L270.68,224.13L271.04,221.39L271.41,200.52L272.13,213.6L272.49,206.02L273.58,256.48L273.94,217.68L275.03,197.97L275.39,201.47L275.76,210.68L276.12,213.6L276.48,193.64L276.84,199.91L277.21,197.23L277.57,190.88L278.65,204.76L279.02,189.82L279.74,200.49L280.1,197.6L280.47,186.67L281.19,211.91L281.55,190.27L283,205.21L283.37,204.16L283.73,207.21L284.09,194.76L284.45,204.1L284.81,203.46L285.18,199.92L285.54,209.22L286.26,209.03L286.63,195.96L286.99,200.57L287.35,199.82L287.71,196.42L288.08,197.07L288.44,201.52L288.8,206.58L289.16,191.56L289.53,192.71L289.89,191.5L290.25,192.02L290.97,199.09L291.34,202.17L291.7,183.82L292.06,196.76L292.42,190.66L292.79,188.68L293.15,202.76L293.87,198.19L294.24,179.93L294.96,187.91L295.32,187.7L295.69,179.25L296.05,178.68L296.41,174.5L296.77,153.75L297.13,165.07L297.5,163.67L297.86,164.19L298.22,172.82L298.58,185.45L298.95,184.83L299.31,169.85L299.67,167.46L300.03,168.46L300.4,169.28L301.48,198.04L301.85,180.35L303.66,191.45L304.02,192L304.74,176.72L305.11,182.08L305.47,182.23L305.83,175.03L306.19,188.23L306.56,188.14L306.92,169.42L307.64,174.25L308.01,172.09L308.37,171.91L308.73,186.3L309.09,186.09L309.46,170.17L309.82,172.92L310.18,171.54L310.54,171.61L311.27,189.36L311.63,187.85L311.99,171.92L312.35,173.64L312.72,181.23L313.44,175.58L313.8,194.51L314.17,197.49L314.53,167.07L315.62,175.16L315.98,174.9L316.7,189.22L317.06,168.47L317.79,178.58L318.15,174.35L319.24,190.02L319.6,166.1L319.96,172.77L320.33,163.01L321.78,191.6L322.14,178.4L322.5,171.07L322.86,171.79L323.22,175.48L324.31,194.42L324.67,166.97L325.04,175.79L325.4,171.58L325.76,172.76L326.12,173.71L326.49,188L326.85,193.76L327.21,180.22L327.94,186.92L328.3,181.84L329.02,202.88L329.38,197.44L329.75,185.53L330.11,192.96L330.47,194.35L330.83,189.13L331.2,190.67L331.56,195.19L331.92,197.23L332.28,178.83L332.65,181.14L333.01,192.75L333.37,192.06L333.73,192.87L334.1,206.69L334.46,208.21L334.82,195.58L335.91,205.14L336.27,203.8L336.63,214.12L336.99,212.04L337.36,194.8L338.44,202L338.81,200.32L339.53,215.16L339.89,191.7L341.34,204.95L341.71,201.35L342.07,210.38L342.43,189.58L342.79,189.56L343.15,195.34L343.52,195.03L343.88,202.18L344.24,207.47L344.6,200.41L344.97,187.34L345.33,189.5L345.69,192.54L346.78,201.62L347.14,210.64L347.5,190.36L347.87,193.1L348.23,198.12L348.59,205.05L348.95,201.15L349.31,190.99L349.68,199.96L350.04,176.18L352.21,201.12L352.58,186.55L352.94,188.61L353.3,197.96L353.66,189.36L354.03,202.35L354.75,207.55L355.11,200.6L355.47,204.46L355.84,203.01L356.2,202L356.56,203.18L356.92,212.95L357.29,221.11L357.65,194.79L358.01,196.96L358.37,193.7L359.82,211.64L360.19,201.5L361.63,213.88L362,209.86L362.36,215.59L362.72,208.23L363.08,200.06L363.45,203.43L363.81,202.14L364.9,214.62L365.26,206.08L365.98,197.21L366.35,205.83L366.71,205.76L367.07,212.89L367.43,213.29L367.79,200.8L368.52,203L368.88,201.81L369.61,213.52L369.97,211.98L370.33,198.14L370.69,197.67L371.06,198.41L371.42,203.29L371.78,207.61L372.14,191.54L372.51,199.41L372.87,187.36L373.23,189.81L373.59,185.27L375.04,215.25L375.4,194.09L376.85,204.46L377.22,219.1L377.58,216.72L377.94,197.82L378.3,200.14L378.67,198.36L379.03,199.31L379.39,202.6L379.75,214.2L381.2,201.31L381.56,200.77L381.93,199.11L382.29,207.93L382.65,208.91L383.01,197.82L383.74,198.25L384.1,200.69L384.46,194.01L384.83,209.73L385.55,147.35L385.91,173.23L386.28,173.58L387.36,185.03L387.72,179L388.09,167.88L388.45,188.08L389.54,169.39L389.9,170.94L390.62,146.35L390.99,169.94L393.52,113.86L393.88,35.43L394.25,51.98L394.61,200.43L394.97,201.04L395.33,199.48L395.7,204.92L396.06,204.67L396.42,232.59L397.15,198.88L397.51,204.03L397.87,204.96L398.23,198.59L398.96,197.1L399.32,199.36L400.41,208.45L400.77,201.92L401.13,201.29L401.49,204L402.22,197.37L402.58,204.73L402.94,208.03L403.31,206.04L403.67,202.17L404.39,208.37L404.76,206.47L405.12,204.13L405.84,226.34L406.21,195.39L406.93,198.18L407.29,195.13L408.02,200.9L408.38,196.16L409.47,201.91L409.83,202.29L410.19,200.84L410.55,195.28L410.92,179.48L411.28,193.81L411.64,190.44L412,190.56L412.37,192.63L413.45,171.81L413.81,173.56L414.9,188.36L415.26,194.36L415.63,199.1L415.99,187.45L417.08,182.98L417.44,188.65L418.16,191.59L418.53,189.42L419.61,182.74L419.97,185.16L420.7,198.14L421.06,189.51L421.42,193.45L421.79,192.06L422.15,190.88L423.24,182.03L423.6,170.97L423.96,173.82L424.32,170L425.41,181.14L425.77,173.06L426.13,165.37L426.5,174.37L427.58,183.11L427.95,192.92L428.67,184.53L429.03,187.67L429.4,184.67L429.76,186.03L430.12,180.85L430.85,165.52L431.21,169.27L431.57,180.02L431.93,177.62L432.29,183.86L432.66,182.35L433.02,177.62L433.38,176.95L433.74,177.61L434.11,178.79L434.47,179.3L434.83,177.37L435.19,177.72L435.56,180.5L435.92,177.87L436.28,165.37L437.37,182.09L437.73,183.14L438.09,180.67L438.46,189.39L439.18,174.35L439.54,177.44L439.9,173.37L440.27,175.43L440.63,176.07L441.35,160.08L441.72,168.41L442.08,168.23L442.44,171.34L443.53,169.77L443.89,169.22L444.25,175.82L444.62,173.67L444.98,164.94L445.7,177.56L446.06,175.04L446.43,164.47L447.15,164.88L447.51,163.66L447.88,162.62L448.24,174.43L449.69,155.34L450.05,161.45L450.78,181.04L451.14,187.04L451.86,164.75L452.22,178.76L452.59,178.17L452.95,166.61L453.31,179.53L453.67,179.15L454.04,168.9L454.76,163.89L455.12,166.07L455.49,171.31L455.85,173.17L456.21,173.09L456.57,165.22L458.02,169.47L458.38,183.16L458.75,184.38L459.11,174.38L459.47,177.76L459.83,173.04L460.2,174.74L460.56,186.7L460.92,184.1L461.28,196.79L461.65,176.53L462.01,187.29L462.37,188.11L463.1,184.51L463.46,188.63L463.82,193.98L464.18,183.72L464.54,188.42L464.91,186.07L465.27,184.09L465.63,185.12L465.99,193.2L466.36,193L466.72,171.56L468.89,205.7L469.26,192.24L469.98,186.35L470.34,188.66L470.71,198.35L471.79,156.79L472.15,146.85L472.52,148.13L472.88,145.61L473.97,158.14L474.33,141.79L475.05,139L475.42,142.74L475.78,146.97L476.14,160.21L476.5,160.24L476.87,147.81L477.23,147.74L477.59,149.53L478.68,169.09L479.04,185.83L479.4,158.16L480.13,158.88L480.49,167.23L481.58,187.43L481.94,175.99L482.3,168.8L482.66,173.59L483.03,180.8L483.39,180.68L483.75,194.63L484.11,201.69L484.47,179.73L485.56,187.08L485.92,186.45L486.29,192.42L486.65,206.51L487.01,182.95L487.37,178.85L487.74,181.25L488.1,186.35L488.82,205.09L489.19,201.7L489.55,188.27L489.91,184.94L490.27,193.4L490.63,190.41L491,190.52L491.36,202.1L491.72,211.91L492.08,192.9L492.45,192.32L492.81,195.41L493.17,193.88L493.53,194.3L493.9,200.3L494.26,210.23L494.62,201.74L494.98,203.53L495.35,205.28L495.71,203.66L496.07,215.75L496.79,237.97L497.16,222.4L498.24,209.09L498.61,216.94L499.33,226.15L499.69,213.34L500.06,217.81L500.42,214.75L500.78,213.22L501.14,207.01L501.51,208.78L501.87,212.23L502.96,195.7L503.32,199.86L504.4,209.47L504.77,202.31L505.13,197.75L505.49,199.32L505.85,203.05L506.22,207.31L506.58,220.65L506.94,228.61L507.3,212.43L508.39,199.26L508.75,200.04L509.12,223.68L510.2,206.21L510.56,210.59L510.93,211.22L511.29,210.53L511.65,206.9L512.01,211.32L512.38,203.97L512.74,201.42L513.1,204.37L513.46,202.8L513.83,209.32L514.55,218.09L514.91,204.55L515.64,211.97L516,207.89" style="vector-effect: non-scaling-stroke; fill: none; stroke: rgb(239, 85, 59); stroke-opacity: 1; stroke-width: 2px; opacity: 1;"/></g><g class="points"/><g class="text"/></g><g class="trace scatter traceb46e7c" style="stroke-miterlimit: 2; opacity: 1;"><g class="fills"/><g class="errorbars"/><g class="lines"><path class="js-line" d="M0,260.9L0.36,257.09L0.72,259.46L1.09,259.78L1.45,258.4L1.81,245.41L2.17,244.06L2.54,230.45L3.62,251.3L3.99,248.49L4.35,248.29L4.71,261.36L5.07,242.17L5.44,247.75L5.8,259.01L6.52,249.08L6.88,258.17L7.25,256.28L7.61,239.57L8.33,256.46L8.7,252.02L9.06,249.15L9.42,253.07L9.78,264.92L10.15,243.97L10.51,245.23L10.87,253.49L11.23,255.9L11.6,253.49L11.96,262.96L12.32,263.8L12.68,262.23L13.04,248.17L13.41,252.22L13.77,254.6L14.86,263.14L15.22,250.88L15.94,234.97L16.31,251.9L16.67,251.62L17.03,249.91L17.39,255.88L17.76,252.99L18.12,251.03L18.48,257.58L18.84,252.29L19.21,254.24L19.57,255.12L19.93,250.65L20.65,254.42L21.02,250.18L21.38,253.95L21.74,240.38L22.47,237.12L22.83,226.34L24.64,237.09L25,226.04L27.18,246.51L27.54,240.67L28.26,240.69L28.63,225.99L28.99,225.23L29.35,218.76L29.71,223.38L30.08,227.93L30.44,207.99L30.8,225.06L31.16,221.02L32.25,239.91L32.61,237.3L32.97,224.44L33.34,224.1L33.7,230.01L34.42,234.29L34.79,255.28L36.6,238.68L36.96,244.98L37.32,244.99L37.69,240.15L38.05,228.37L38.41,232.26L38.77,240.44L39.13,238.81L39.5,241.71L39.86,249.25L40.22,238L40.58,232.17L40.95,232.5L41.31,238.88L42.03,240.22L42.4,253.8L43.12,237.26L43.48,249.45L43.85,250.65L44.21,235.66L44.93,253.67L45.29,242.67L45.66,235.96L46.02,240.31L46.38,241.04L46.74,234.39L47.11,234.98L47.47,237.55L47.83,238.01L48.19,228.53L48.56,234.58L48.92,232.98L49.28,228.75L50.01,243.74L50.37,239.47L50.73,231.1L51.09,230.9L51.46,228.8L51.82,231.13L52.18,229.39L52.54,249.26L53.27,228.9L53.63,236.9L54.72,244.35L55.44,245.43L55.8,241.71L56.17,241.29L56.53,246.13L56.89,238.53L57.25,240.17L57.62,244.85L57.98,247.17L58.34,246.33L58.7,246.3L59.79,236.48L60.15,242.64L60.51,241.95L60.88,234.09L61.6,238.05L61.96,234.81L62.69,243.56L63.05,252.13L63.78,238.63L64.14,239.3L64.5,239.12L65.22,236.82L65.59,244.3L65.95,235.56L66.31,239.86L66.67,242.94L67.76,245.44L68.12,252.99L68.49,239.04L68.85,248.84L69.21,248.04L69.57,247.34L69.94,252.33L70.66,258.64L71.02,241.98L73.2,260.45L73.56,246.38L73.92,241.26L74.28,244.82L74.65,244.89L75.01,247.88L75.37,263.3L75.73,267.01L76.1,251.82L76.46,252.18L76.82,249.51L77.18,248.88L77.54,253.18L78.27,270.82L78.63,246.21L78.99,251.99L79.36,249.75L79.72,251.58L80.08,251.6L80.44,268.44L80.81,272.49L81.17,249.34L81.53,253.35L81.89,252.53L82.26,248.59L82.62,249.41L82.98,270.55L83.34,274.55L83.71,253.27L85.52,264.22L85.88,257.05L86.24,233.06L86.6,244.81L86.97,248.84L87.33,247.79L87.69,242.81L88.42,274.94L88.78,252.44L89.14,250.69L89.5,259.13L89.87,258.5L90.23,261.94L90.95,270.62L91.31,245.06L92.4,264.36L92.76,260.74L93.13,274.65L93.49,270.32L93.85,249.75L94.58,263.21L94.94,258.22L95.3,260.98L96.03,266.36L96.39,250.24L96.75,257.57L97.11,254.47L97.47,254L97.84,252.63L98.2,259.61L98.56,273.78L98.92,258L99.65,262.93L100.01,259.13L100.37,256.34L100.74,258.84L101.1,260.05L101.46,241.57L101.82,250.73L102.19,253.9L102.55,252.19L102.91,258.56L103.63,266.93L104,244.46L104.72,255.7L105.08,255.01L105.45,255.33L105.81,265.12L106.17,259.59L106.53,245.78L106.9,244.31L107.26,247.47L108.35,259.24L108.71,272.79L109.43,248.71L109.79,251.64L110.16,252.38L110.52,257.75L110.88,245.12L111.61,231.43L111.97,233.72L112.33,232.92L112.69,227.32L113.06,242.93L113.78,254.5L114.14,240.53L115.59,258.11L115.96,267.47L116.32,265.55L116.68,244.67L118.49,268.74L118.85,269.36L119.22,255.95L119.58,256.16L119.94,258.08L120.3,257.36L120.67,260.09L121.75,241.21L122.12,257.1L122.48,257.12L122.84,261.1L124.29,228.5L124.65,244.11L125.38,237.42L125.74,239.3L126.1,237.99L126.83,225.16L127.19,217.6L127.91,214.07L128.28,187.88L128.64,197.79L129,161L129.36,104.12L129.72,152.77L130.09,251.56L130.81,264.75L131.17,263.68L131.54,263.22L132.26,266.76L132.62,263.75L133.35,256.78L133.71,266.94L134.07,266.92L134.44,261.63L134.8,267.19L135.16,266.72L135.52,266.64L135.88,270.58L136.25,269.33L136.61,269.28L136.97,269.52L137.33,266.36L137.7,272.84L138.06,266.01L138.42,267.48L139.15,283.04L139.51,263.48L139.87,264.51L140.23,269.63L140.6,269.99L140.96,269.58L141.32,284.2L141.68,283.82L142.04,272.2L142.41,272.3L142.77,276.17L143.13,277.15L143.49,270.87L144.22,287.25L144.58,274.97L144.94,279.78L145.31,270.5L146.39,280.79L146.76,282.3L147.12,255.62L147.48,271.43L147.84,271.19L148.21,265.48L148.57,275L148.93,281.11L149.29,280.83L149.65,273.91L151.1,263.77L151.47,281.76L151.83,282L152.19,268.02L152.55,261.55L152.92,265.93L153.28,263.78L153.64,263.26L154,271.65L154.37,269.5L154.73,262.71L155.09,265.84L155.45,260.5L156.18,264.41L156.54,276.13L156.9,274.59L157.26,263.33L157.63,265.17L157.99,261.04L158.71,259.49L159.08,240.77L159.44,249.86L159.8,234.95L160.16,237.66L160.89,237.5L161.25,234.94L161.61,238.93L161.97,224.53L162.34,214.62L162.7,216.43L163.06,222.77L164.51,233.18L164.87,227.68L165.96,240.07L166.32,238.88L166.69,249.42L167.05,245.68L167.41,235.89L167.77,238.35L168.13,233.88L169.58,255.86L169.95,241.07L170.31,243.59L170.67,240.23L171.03,241.86L171.4,250.84L172.12,263L172.48,244.37L172.85,235.34L173.21,242.29L173.57,238.33L173.93,249.43L174.29,244.81L174.66,238.52L175.02,228.22L175.38,235.39L175.74,237.21L176.11,228.9L176.47,236.09L176.83,242.74L177.19,245.24L177.56,229.78L177.92,235.24L178.28,231.69L178.64,231.35L179.01,233.13L179.37,247.3L179.73,249.25L180.09,236.02L180.46,235.23L180.82,237.6L181.54,232.33L181.9,249.34L182.27,252.25L182.63,229.56L182.99,233L183.35,224.45L184.08,235.58L184.44,215.35L184.8,226.71L185.17,199.63L186.62,237.06L186.98,251.06L187.7,231.24L188.06,218.8L188.79,222.2L189.15,225.46L189.88,248.32L190.24,217.11L190.96,217.14L191.33,219.54L191.69,225.84L192.05,251.61L192.41,257.41L192.78,225.64L193.14,219.65L193.5,185.78L193.86,187.67L194.22,196.72L194.95,221.84L195.31,199.91L196.4,217.94L196.76,211.54L197.12,211.49L197.49,220.76L198.21,198.64L198.57,203.66L198.94,208.84L199.66,230.28L200.02,238.27L201.11,223.51L201.47,230.59L202.2,237.92L202.56,234.74L202.92,229.76L203.65,239.79L204.01,239.36L204.37,236.53L204.73,232.74L205.1,236.66L205.46,216.99L205.82,216.8L206.18,212.99L207.63,227.94L207.99,205.22L208.72,214.7L209.08,208.67L209.44,213.43L209.81,232.92L210.17,228.09L210.53,211.17L211.26,227.06L211.62,226.2L211.98,227.32L212.71,229.92L213.07,218.62L213.43,225.23L213.79,215.91L214.15,215.01L214.52,220.45L215.6,210.47L215.97,214.25L216.33,215.53L216.69,213.06L217.05,215.46L217.42,227.73L218.87,222.65L219.23,223.74L220.31,235.09L220.68,213.37L221.4,221.54L221.76,220.42L222.13,224.61L222.49,233.22L222.85,221.46L223.58,207.69L223.94,208.64L224.3,209.23L225.39,241.37L225.75,216.88L226.11,210.61L226.47,217.95L227.92,247.78L228.29,233.95L228.65,227.42L229.01,229.1L229.37,235.36L230.46,251.05L230.82,233.1L232.27,239.52L232.63,256.57L233.36,229.68L233.72,239.75L234.08,236.98L235.17,248.82L235.53,248.51L235.9,235.02L236.26,233.14L236.62,234.16L236.98,234.79L237.71,233.37L238.07,236.28L239.52,205.76L239.88,214.26L240.24,220.35L240.61,219.94L240.97,199.92L242.06,209.17L242.42,205.71L242.78,218.9L243.14,212.68L243.51,202.63L244.23,213.41L244.59,208.76L244.96,210.72L245.32,232.77L246.04,216.27L246.4,220.78L246.77,217.38L247.85,228.94L248.22,227.46L248.94,200.46L249.3,203.87L249.67,208.57L250.39,226.22L250.75,223.14L251.12,197.79L252.2,226.75L252.56,222.18L252.93,210.18L253.65,167.39L254.01,189.73L255.1,205.04L255.46,190.19L256.19,170.57L256.55,181.52L256.91,173.44L257.28,182.32L257.64,181.43L258,181.68L258.36,177.5L258.72,170.73L259.09,182.7L260.54,154.88L260.9,156.25L261.26,125.09L261.62,30.53L261.99,95.41L262.35,228.15L262.71,221.04L263.07,229.53L263.8,230.22L264.16,250.62L265.25,227.85L265.61,226.6L266.7,217.52L267.06,222.69L267.78,215.82L268.15,225.46L268.51,225.47L268.87,212.77L269.6,221.19L269.96,219.45L270.68,229.52L271.04,218.68L271.41,210.79L271.77,218.26L272.13,218.98L272.49,214.14L272.86,219.21L273.22,231.9L273.94,216.12L274.31,218.35L274.67,214.04L275.39,217.18L275.76,230.01L276.48,210.5L276.84,212.98L277.21,209.64L277.93,197.25L278.29,221.69L279.02,201.3L279.38,207.46L279.74,204.17L280.1,201.99L280.47,203.27L280.83,215.7L281.55,195.1L281.92,199.37L282.28,202.24L282.64,201.02L283,211.53L283.37,213.14L283.73,203.59L284.09,186.81L284.45,199.31L284.81,203.08L285.54,206.41L285.9,215.25L286.26,215.39L286.63,200.42L286.99,196.35L287.35,201.18L287.71,198.48L288.08,199.33L288.44,209.4L288.8,209.7L289.16,191.16L289.89,196.71L290.25,192.05L290.61,193.05L290.97,203.37L291.34,211.73L291.7,183.79L292.06,194.66L292.42,191.63L292.79,192.44L293.51,209.51L293.87,206.66L294.24,190.3L294.6,190.62L294.96,187.19L295.32,192.19L295.69,174.14L296.41,187.97L296.77,162.05L298.58,178.58L298.95,186.22L299.31,166.72L299.67,167.63L300.03,180.41L300.76,175.97L301.12,193.68L301.48,197.88L301.85,179.45L302.93,186.69L303.29,192.2L303.66,190.67L304.02,184.78L304.38,171.46L304.74,178.36L305.11,177.14L306.19,187.82L306.56,196.16L306.92,165.74L307.28,170.35L307.64,170.54L308.01,170.56L308.37,172.54L309.09,193.18L309.46,166.48L310.54,173.82L310.9,167.86L311.63,185.95L311.99,164.71L312.35,160.11L312.72,163.63L313.08,170.31L313.44,165.99L313.8,195.21L314.17,196.32L314.53,165.88L315.25,175.83L315.62,175.5L315.98,173.88L316.7,195.49L317.06,167.3L317.43,164.19L317.79,172.99L318.15,174.27L318.51,169.46L318.88,196.15L319.24,190.91L319.6,180.42L320.33,166.84L320.69,169.47L321.05,170.01L321.78,197.11L322.14,171.07L323.22,178.27L323.59,173.2L324.31,194.68L324.67,173.65L325.04,169.22L325.4,173.9L325.76,173.22L326.12,175.8L326.49,200.05L326.85,201.22L327.21,170.02L328.66,181.36L329.02,201.59L329.38,208.94L329.75,179.39L330.11,184.13L330.47,182.76L330.83,181.52L331.2,181.89L331.56,196.6L331.92,206.15L332.28,175.25L333.01,178.21L333.37,183.83L333.73,186.87L334.1,203.74L334.46,208.1L334.82,176.33L336.63,208.22L336.99,212.2L337.36,187.22L337.72,188.72L338.08,189.64L339.53,217.29L339.89,195.11L341.34,199.94L341.71,216.94L342.07,215.06L342.43,201.23L343.15,200.68L343.52,208.69L343.88,203.36L344.24,217.61L344.97,188.92L345.33,191.96L345.69,197.15L346.05,193.17L346.42,195.24L346.78,199.04L347.14,206.47L347.5,190.43L348.59,197.63L348.95,191.81L349.31,187.4L349.68,194.13L350.04,175.37L350.4,176.7L350.76,182.07L351.13,181.01L351.49,183.91L352.21,214.78L352.58,195.42L352.94,185.5L353.3,192.04L353.66,189.48L354.03,189.35L354.39,198.17L354.75,199.62L355.11,178.23L356.2,184.61L356.56,178.38L357.29,202L357.65,192.41L358.01,196.7L358.37,195.62L358.74,196.12L359.1,197.02L359.46,210.51L359.82,212.89L360.19,194.77L360.55,191.94L360.91,195.45L361.63,197.8L362,214.73L362.72,209L363.08,194.32L364.53,213.52L364.9,204.02L365.62,196.76L365.98,197.99L366.35,197.66L366.71,199.86L367.07,210L367.43,206.53L367.79,191.04L369.24,197.26L369.61,209.22L370.33,189.3L370.69,195.41L371.06,196.34L371.42,198.1L371.78,196.17L372.14,191.52L372.51,196.23L372.87,188.88L373.23,174.71L373.59,176.79L373.96,178.86L374.32,177.27L374.68,192.69L375.04,197.3L375.4,191.7L375.77,182.14L376.13,182.94L376.49,191.02L376.85,189.27L377.22,193.47L377.58,188.32L377.94,171.38L378.67,179.52L379.03,177L379.39,173.27L379.75,187.62L380.84,177.08L381.2,182.29L381.56,181.24L381.93,182.04L382.29,190.86L382.65,195.92L383.01,182.62L383.38,181.03L384.1,185.61L384.83,189.76L385.19,170.68L385.55,147.25L385.91,155.13L386.28,155.44L387,170.53L387.36,168.46L387.72,160.27L388.09,146.44L388.45,165.99L389.54,158.28L389.9,163.38L391.35,130.5L391.71,132.75L393.16,125.25L393.52,117.61L393.88,43.62L394.25,93.83L394.61,178.4L395.33,186.3L395.7,181.65L396.06,181.13L396.42,223.26L397.15,179.94L397.51,182.21L397.87,182.75L398.23,181.87L398.6,183.95L398.96,181.64L399.32,182.11L399.68,183.7L400.41,191.38L400.77,181.12L401.13,187.22L401.49,185.62L401.86,185.39L402.58,192.85L402.94,190.1L403.31,185.02L403.67,187.94L404.03,191.01L404.39,189.69L404.76,195.22L405.12,195.36L405.48,190.2L405.84,193.82L406.21,176.7L406.57,176.63L406.93,184.01L407.29,178.34L407.65,189.01L408.02,186.23L408.38,177.24L408.74,174.06L409.1,175.21L409.47,180.74L410.19,188.67L410.55,193.5L411.64,175.42L412,178.66L412.73,170.06L413.09,173.78L413.45,157.18L413.81,159.13L414.18,164.98L414.54,161.04L414.9,167.51L415.26,177.35L415.63,174.39L415.99,168.2L417.08,162.66L417.44,166.22L417.8,175.83L418.16,173.67L418.53,171.33L419.61,164.98L419.97,165.55L420.7,188.75L421.06,170.43L421.42,177L421.79,174.92L422.15,172.88L422.51,175.87L422.87,189.59L423.24,191.68L423.6,171.24L423.96,178L424.32,172.88L424.69,169.59L425.41,183.34L425.77,175.24L426.13,165.89L426.5,183.91L426.86,184.13L427.22,177.86L427.95,192.77L428.31,188.06L428.67,184.35L429.03,191.24L429.4,185.8L429.76,185.34L430.12,183.49L430.48,166.62L431.57,176.63L431.93,172.37L432.29,172.56L432.66,170.86L433.02,172.21L433.38,176.55L433.74,155.33L434.11,168.01L434.47,175.04L435.19,168.38L435.56,174.19L435.92,172.57L436.28,163.97L437.01,167.81L437.37,166.67L437.73,175.23L438.09,172.84L438.46,175.57L438.82,168.92L439.18,173.66L439.54,174.87L439.9,179.19L440.27,177.22L440.63,177.57L441.35,160.82L441.72,167.9L442.08,160.68L442.44,170.55L442.8,168.97L443.17,172.77L443.89,160.79L444.25,166.22L444.98,170.7L445.34,177.91L445.7,178.86L446.06,178.27L446.43,165.88L446.79,173.27L447.15,168.25L447.51,171.18L447.88,173L448.24,193.88L448.96,161.3L449.33,170.45L449.69,171.03L450.05,165.87L450.41,182.54L450.78,192.01L451.14,183.3L451.5,168.46L451.86,161.79L452.22,173.37L452.95,173.45L453.31,179.36L453.67,178.79L454.04,163.83L455.12,173.81L455.49,171.91L456.21,185.68L456.57,167.03L458.02,160.71L458.38,174.18L458.75,178.41L459.11,157.38L459.47,159.19L459.83,156.06L461.28,177.4L461.65,160.77L462.73,171.42L463.1,171.61L463.82,185.34L464.18,168.22L464.54,172.48L464.91,167.38L465.27,169.46L465.63,169.27L465.99,177.22L466.36,178.11L466.72,167.41L467.81,179.01L468.17,182.47L468.53,195.54L468.89,194.34L469.26,173.15L469.62,185.96L469.98,179.08L470.34,178.92L470.71,193.83L471.07,152.97L471.43,154.79L471.79,139.15L472.88,147.42L473.24,145.39L473.6,140.63L473.97,141.86L474.33,124.54L475.42,136.67L475.78,127.56L476.5,159.3L476.87,131.77L477.23,133.96L477.59,141.09L477.95,141.57L478.31,156.44L479.04,174.68L479.4,149.4L479.76,151.29L480.13,149.12L480.85,153.89L481.21,174.22L481.58,177.65L481.94,158L483.39,167.83L483.75,187.61L484.11,190.67L484.47,167.01L484.84,166.55L485.2,167.46L486.29,199.1L486.65,190.33L487.01,163.3L487.37,178.01L487.74,176.71L488.46,173.59L488.82,190.21L489.19,192.55L489.55,165.51L490.63,173.71L491,176.5L491.36,196.71L491.72,196.65L492.08,176.7L492.45,173.66L492.81,179.55L493.17,183.41L493.53,180.22L493.9,200.98L494.26,198.77L494.62,171.21L494.98,170.43L495.35,181.32L496.07,189.28L496.43,218.73L496.79,216.53L497.16,196.84L497.52,196.88L497.88,190.27L498.24,192.06L498.61,190.39L498.97,204.34L499.33,206.63L499.69,177.7L500.06,174.81L500.42,178.39L501.87,193.82L502.23,175.62L502.96,178.78L503.32,184.85L503.68,183.32L504.04,197.28L504.4,198.91L504.77,193.19L505.85,181.5L506.22,189.42L506.94,203.63L507.3,183.37L508.03,186.2L508.39,181L508.75,184.94L509.12,198.3L510.56,188.51L510.93,192.4L511.29,189.07L511.65,196.6L512.01,199.1L512.38,188.22L512.74,188.82L513.1,186.7L513.83,184.81L514.19,205.87L515.28,181.69L515.64,178.98L516,183.57" style="vector-effect: non-scaling-stroke; fill: none; stroke: rgb(0, 204, 150); stroke-opacity: 1; stroke-width: 2px; opacity: 1;"/></g><g class="points"/><g class="text"/></g></g></g><g class="overplot"/><path class="xlines-above crisp" d="M0,0" style="fill: none;"/><path class="ylines-above crisp" d="M0,0" style="fill: none;"/><g class="overlines-above"/><g class="xaxislayer-above"><g class="xtick"><text text-anchor="middle" x="0" y="433" transform="translate(80,0)" style="font-family: 'Open Sans', verdana, arial, sans-serif; font-size: 12px; fill: rgb(42, 63, 95); fill-opacity: 1; white-space: pre;">2017</text></g><g class="xtick"><text text-anchor="middle" x="0" y="433" transform="translate(212.26,0)" style="font-family: 'Open Sans', verdana, arial, sans-serif; font-size: 12px; fill: rgb(42, 63, 95); fill-opacity: 1; white-space: pre;">2018</text></g><g class="xtick"><text text-anchor="middle" x="0" y="433" transform="translate(344.52,0)" style="font-family: 'Open Sans', verdana, arial, sans-serif; font-size: 12px; fill: rgb(42, 63, 95); fill-opacity: 1; white-space: pre;">2019</text></g><g class="xtick"><text text-anchor="middle" x="0" y="433" transform="translate(476.78,0)" style="font-family: 'Open Sans', verdana, arial, sans-serif; font-size: 12px; fill: rgb(42, 63, 95); fill-opacity: 1; white-space: pre;">2020</text></g></g><g class="yaxislayer-above"><g class="ytick"><text text-anchor="end" x="79" y="4.199999999999999" transform="translate(0,393.2)" style="font-family: 'Open Sans', verdana, arial, sans-serif; font-size: 12px; fill: rgb(42, 63, 95); fill-opacity: 1; white-space: pre;">0.15</text></g><g class="ytick"><text text-anchor="end" x="79" y="4.199999999999999" transform="translate(0,342.36)" style="font-family: 'Open Sans', verdana, arial, sans-serif; font-size: 12px; fill: rgb(42, 63, 95); fill-opacity: 1; white-space: pre;">0.2</text></g><g class="ytick"><text text-anchor="end" x="79" y="4.199999999999999" transform="translate(0,291.52)" style="font-family: 'Open Sans', verdana, arial, sans-serif; font-size: 12px; fill: rgb(42, 63, 95); fill-opacity: 1; white-space: pre;">0.25</text></g><g class="ytick"><text text-anchor="end" x="79" y="4.199999999999999" transform="translate(0,240.68)" style="font-family: 'Open Sans', verdana, arial, sans-serif; font-size: 12px; fill: rgb(42, 63, 95); fill-opacity: 1; white-space: pre;">0.3</text></g><g class="ytick"><text text-anchor="end" x="79" y="4.199999999999999" transform="translate(0,189.82999999999998)" style="font-family: 'Open Sans', verdana, arial, sans-serif; font-size: 12px; fill: rgb(42, 63, 95); fill-opacity: 1; white-space: pre;">0.35</text></g><g class="ytick"><text text-anchor="end" x="79" y="4.199999999999999" transform="translate(0,138.99)" style="font-family: 'Open Sans', verdana, arial, sans-serif; font-size: 12px; fill: rgb(42, 63, 95); fill-opacity: 1; white-space: pre;">0.4</text></g></g><g class="overaxes-above"/></g></g><g class="polarlayer"/><g class="ternarylayer"/><g class="geolayer"/><g class="funnelarealayer"/><g class="pielayer"/><g class="treemaplayer"/><g class="sunburstlayer"/><g class="glimages"/><defs id="topdefs-f1f160"><g class="clips"/><clipPath id="legendf1f160"><rect width="82" height="83" x="0" y="0"/></clipPath></defs><g class="layer-above"><g class="imagelayer"/><g class="shapelayer"/></g><g class="infolayer"><g class="legend" pointer-events="all" transform="translate(606.32, 100)"><rect class="bg" shape-rendering="crispEdges" width="82" height="83" x="0" y="0" style="stroke: rgb(68, 68, 68); stroke-opacity: 1; fill: rgb(255, 255, 255); fill-opacity: 1; stroke-width: 0px;"/><g class="scrollbox" transform="translate(0, 0)" clip-path="url('#legendf1f160')"><text class="legendtitletext" text-anchor="start" x="2" y="15.600000000000001" style="font-family: 'Open Sans', verdana, arial, sans-serif; font-size: 12px; fill: rgb(42, 63, 95); fill-opacity: 1; white-space: pre;">Oceania</text><g class="groups"><g class="traces" transform="translate(0, 30.1)" style="opacity: 1;"><text class="legendtext" text-anchor="start" x="40" y="4.680000000000001" style="font-family: 'Open Sans', verdana, arial, sans-serif; font-size: 12px; fill: rgb(42, 63, 95); fill-opacity: 1; white-space: pre;">Global</text><g class="layers" style="opacity: 1;"><g class="legendfill"/><g class="legendlines"><path class="js-line" d="M5,0h30" style="fill: none; stroke: rgb(99, 110, 250); stroke-opacity: 1; stroke-width: 2px;"/></g><g class="legendsymbols"><g class="legendpoints"/></g></g><rect class="legendtoggle" x="0" y="-9.5" width="76.09375" height="19" style="fill: rgb(0, 0, 0); fill-opacity: 0;"/></g><g class="traces" transform="translate(0, 49.1)" style="opacity: 1;"><text class="legendtext" text-anchor="start" x="40" y="4.680000000000001" style="font-family: 'Open Sans', verdana, arial, sans-serif; font-size: 12px; fill: rgb(42, 63, 95); fill-opacity: 1; white-space: pre;">au</text><g class="layers" style="opacity: 1;"><g class="legendfill"/><g class="legendlines"><path class="js-line" d="M5,0h30" style="fill: none; stroke: rgb(239, 85, 59); stroke-opacity: 1; stroke-width: 2px;"/></g><g class="legendsymbols"><g class="legendpoints"/></g></g><rect class="legendtoggle" x="0" y="-9.5" width="76.09375" height="19" style="fill: rgb(0, 0, 0); fill-opacity: 0;"/></g><g class="traces" transform="translate(0, 68.1)" style="opacity: 1;"><text class="legendtext" text-anchor="start" x="40" y="4.680000000000001" style="font-family: 'Open Sans', verdana, arial, sans-serif; font-size: 12px; fill: rgb(42, 63, 95); fill-opacity: 1; white-space: pre;">nz</text><g class="layers" style="opacity: 1;"><g class="legendfill"/><g class="legendlines"><path class="js-line" d="M5,0h30" style="fill: none; stroke: rgb(0, 204, 150); stroke-opacity: 1; stroke-width: 2px;"/></g><g class="legendsymbols"><g class="legendpoints"/></g></g><rect class="legendtoggle" x="0" y="-9.5" width="76.09375" height="19" style="fill: rgb(0, 0, 0); fill-opacity: 0;"/></g></g></g><rect class="scrollbar" rx="20" ry="3" width="0" height="0" x="0" y="0" style="fill: rgb(128, 139, 164); fill-opacity: 1;"/></g><g class="g-gtitle"/><g class="g-xtitle"><text class="xtitle" x="338" y="461.8" text-anchor="middle" style="font-family: 'Open Sans', verdana, arial, sans-serif; font-size: 14px; fill: rgb(42, 63, 95); opacity: 1; font-weight: normal; white-space: pre;">Date</text></g><g class="g-ytitle"><text class="ytitle" transform="rotate(-90,30.418750000000003,260)" x="30.418750000000003" y="260" text-anchor="middle" style="font-family: 'Open Sans', verdana, arial, sans-serif; font-size: 14px; fill: rgb(42, 63, 95); opacity: 1; font-weight: normal; white-space: pre;">acousticness</text></g></g></svg>