<svg class="main-svg" xmlns="http://www.w3.org/2000/svg" xmlns:xlink="http://www.w3.org/1999/xlink" width="700" height="500" style="" viewBox="0 0 700 500"><rect x="0" y="0" width="700" height="500" style="fill: rgb(255, 255, 255); fill-opacity: 1;"/><defs id="defs-4055a9"><g class="clips"><clipPath id="clip4055a9xyplot" class="plotclip"><rect width="472" height="320"/></clipPath><clipPath class="axesclip" id="clip4055a9x"><rect x="80" y="0" width="472" height="500"/></clipPath><clipPath class="axesclip" id="clip4055a9y"><rect x="0" y="100" width="700" height="320"/></clipPath><clipPath class="axesclip" id="clip4055a9xy"><rect x="80" y="100" width="472" height="320"/></clipPath></g><g class="gradients"/></defs><g class="bglayer"><rect class="bg" x="80" y="100" width="472" height="320" style="fill: rgb(229, 236, 246); fill-opacity: 1; stroke-width: 0;"/></g><g class="layer-below"><g class="imagelayer"/><g class="shapelayer"/></g><g class="cartesianlayer"><g class="subplot xy"><g class="layer-subplot"><g class="shapelayer"/><g class="imagelayer"/></g><g class="gridlayer"><g class="x"><path class="xgrid crisp" transform="translate(200.98000000000002,0)" d="M0,100v320" style="stroke: rgb(255, 255, 255); stroke-opacity: 1; stroke-width: 1px;"/><path class="xgrid crisp" transform="translate(321.97,0)" d="M0,100v320" style="stroke: rgb(255, 255, 255); stroke-opacity: 1; stroke-width: 1px;"/><path class="xgrid crisp" transform="translate(442.95,0)" d="M0,100v320" style="stroke: rgb(255, 255, 255); stroke-opacity: 1; stroke-width: 1px;"/></g><g class="y"><path class="ygrid crisp" transform="translate(0,347.72)" d="M80,0h472" style="stroke: rgb(255, 255, 255); stroke-opacity: 1; stroke-width: 1px;"/><path class="ygrid crisp" transform="translate(0,263.78999999999996)" d="M80,0h472" style="stroke: rgb(255, 255, 255); stroke-opacity: 1; stroke-width: 1px;"/><path class="ygrid crisp" transform="translate(0,179.86)" d="M80,0h472" style="stroke: rgb(255, 255, 255); stroke-opacity: 1; stroke-width: 1px;"/></g></g><g class="zerolinelayer"/><path class="xlines-below"/><path class="ylines-below"/><g class="overlines-below"/><g class="xaxislayer-below"/><g class="yaxislayer-below"/><g class="overaxes-below"/><g class="plot" transform="translate(80, 100)" clip-path="url('#clip4055a9xyplot')"><g class="scatterlayer mlayer"><g class="trace scatter traced71bc1" style="stroke-miterlimit: 2; opacity: 1;"><g class="fills"/><g class="errorbars"/><g class="lines"><path class="js-line" d="M0,116.51L0.99,127.24L1.33,128.17L1.99,119.86L2.32,126.57L3.31,118.3L3.65,123.75L3.98,129.38L4.31,117.79L4.97,124.39L5.3,121.42L5.63,119.47L5.97,125.55L6.3,115.07L6.63,109.6L6.96,120.74L7.29,123.49L7.62,120.06L7.96,123.1L8.29,122.96L8.62,100.86L8.95,102.79L9.28,114.31L9.61,120.03L9.94,112.64L10.28,113.79L10.61,111.96L10.94,125.11L11.27,110.49L11.6,116.91L11.93,124.9L12.26,120.2L12.6,122.12L12.93,125.16L13.26,124.75L13.59,107.41L14.58,150.45L14.92,143.76L15.25,130.83L15.91,103.02L16.24,121.4L16.57,127.52L16.9,125.75L17.24,122.35L18.23,109.86L18.56,120.36L18.89,130.28L19.56,128.23L19.89,124.69L20.55,115.62L20.88,119.08L21.21,126.35L22.54,111.65L22.87,112.41L23.53,121.77L23.87,120.93L24.2,118.38L24.53,117.8L24.86,122.43L25.19,117.38L25.52,98.26L25.85,99.69L26.19,95.4L26.85,99.76L27.18,94.99L27.84,95.95L28.17,102.72L28.51,102.61L28.84,104.38L29.17,102.56L29.5,92.5L30.16,85.64L30.49,92.61L30.83,93.06L31.16,90.37L31.49,88.5L31.82,95.13L32.15,94.25L32.48,98.43L33.48,101.54L33.81,95.78L34.47,95.3L35.13,100.14L35.47,98.1L36.13,100.01L36.46,90.85L36.79,91.08L37.12,95.26L37.79,95.76L38.12,93.59L38.45,92.43L38.78,107.63L39.44,94.29L39.78,96.17L40.11,99.91L40.44,101.98L40.77,97.49L41.43,83.18L41.76,84.66L42.1,91.65L42.43,90.99L42.76,93.53L43.09,88.75L43.42,100.04L43.75,96.62L44.08,99.89L44.42,104.17L45.08,95.67L45.41,109.02L45.74,105.16L46.07,91.88L46.4,90.63L46.74,101.95L48.06,78.52L48.39,79.79L48.72,80.84L49.06,85.41L50.05,81.81L51.04,88.11L51.38,96.72L52.7,90.69L53.03,90.69L53.37,90.39L53.7,92.07L54.03,87.54L54.36,90.91L54.69,91.34L55.02,92.93L55.35,90.28L55.69,87.27L56.02,91.2L56.35,89.07L57.01,89.68L57.34,99.49L58.01,85.8L58.34,89.91L59,93.83L59.33,90.33L59.99,71.89L60.33,80.71L60.66,80.89L61.32,75.87L61.65,77.8L61.98,76.8L62.31,75.08L62.65,77.47L62.98,77.41L63.31,76.22L63.97,82.95L64.3,88.6L64.63,78.58L65.3,79.16L65.63,79.56L65.96,78.44L66.29,82.35L66.62,122.43L66.96,106L67.29,112.37L69.28,74.65L69.61,76L69.94,80.34L70.27,78.98L70.6,73.97L70.93,72.52L71.26,73.62L71.6,65.96L71.93,62.55L72.26,69.61L72.59,66.73L72.92,70.31L73.25,69.43L73.92,66.05L74.25,69.27L75.24,76.79L75.57,77.02L75.9,74.87L76.24,66.17L76.9,77.47L77.23,74.95L77.56,76.42L77.89,75.74L78.22,69.56L78.56,60.08L78.89,63.22L79.22,70.33L80.88,51.03L81.21,54.25L81.54,58.42L82.2,57.37L82.53,60.65L83.2,59.15L83.53,72.75L84.19,66.54L84.52,64.05L85.19,71.83L85.52,59.58L86.18,68.28L86.51,65.26L86.84,63.93L87.84,52.55L88.17,55.87L88.5,61.9L89.16,60.66L89.49,63.47L91.15,82.12L91.48,74.08L91.81,72.98L92.15,59.9L92.81,73.78L93.14,72.63L93.47,71.14L93.8,73.09L94.13,70.2L94.8,68.81L95.13,73.32L95.46,78.91L95.79,73.92L96.12,71.88L96.46,72.07L96.79,62.32L97.78,70.65L98.11,69.24L98.44,66.02L98.78,66.76L99.11,59.83L99.44,63.22L99.77,62.01L100.1,74.66L100.43,47.37L100.76,55.78L101.1,62.73L102.09,78.41L102.42,71.99L103.08,73.53L103.42,67.48L104.08,62.58L104.41,66.06L105.74,72.97L106.07,70.01L106.73,66.76L107.06,67.57L107.39,68.97L108.06,66.77L108.39,75.65L108.72,71.37L109.05,80.12L109.71,71.81L110.04,74.01L110.38,80.72L111.37,107.78L111.7,97.89L112.37,91.69L112.7,94.4L113.69,111.55L114.02,109.49L114.35,108.4L115.35,98.96L115.68,106.1L116.01,111.64L116.34,100.63L116.67,98.51L117.01,101.51L117.67,101.18L118,113.31L118.33,182.03L118.66,220.97L118.99,82.01L119.33,41.89L119.99,52.02L120.32,51.02L120.98,41.15L121.31,66.98L121.65,60.65L122.31,61.12L122.64,57.36L124.3,72.92L124.63,70.79L124.96,66.84L125.29,73.68L126.29,85.97L126.62,84.82L127.28,60.48L127.61,65.24L127.94,74.25L129.27,39.99L129.6,41.53L129.93,49.7L131.26,63.28L131.59,54.57L131.92,53.87L132.25,63.09L132.58,61.66L132.92,55.44L133.58,64.57L133.91,56.74L134.24,49.63L134.57,49.67L134.9,58.41L135.57,87.4L135.9,76.81L136.23,69.32L136.56,55.13L136.89,56.57L137.22,72.92L138.88,60.51L139.21,64.17L139.54,68.83L140.21,67.96L140.54,63.8L141.2,57.19L141.53,63.06L141.87,65.69L142.2,63.82L142.53,63.94L142.86,65.14L143.19,46L144.85,62.87L145.18,67.08L145.84,52.14L146.17,61.36L146.51,58.72L147.17,65.3L147.5,63.91L147.83,57.36L148.16,52.64L148.49,59.92L149.49,70.6L149.82,65.97L150.15,58.5L150.48,60.43L150.81,69.62L151.15,78.08L151.48,69.52L151.81,73.5L152.8,55.01L153.13,58.27L153.47,64.36L153.8,64.36L154.13,62.66L155.12,54.93L155.46,61.96L156.12,69.1L156.45,67.76L156.78,65.73L157.11,68.36L157.44,66.07L157.78,67.49L158.11,74.41L158.44,73.86L158.77,66.56L159.1,64.7L159.43,71.76L160.1,65.82L160.43,72.4L160.76,70.21L161.09,70.96L161.42,70.9L162.42,62.6L162.75,66.06L163.08,66.61L163.41,63.48L163.74,64.2L164.07,79.98L164.4,75.17L164.74,76.18L165.07,78.31L165.73,68.22L166.06,74.84L166.39,76.4L166.72,70.73L167.06,68.64L167.39,71.14L167.72,74.52L168.05,70.2L168.38,72.72L168.71,81.49L169.71,60.26L170.04,63.87L171.03,72.4L171.37,70.36L171.7,66.77L172.03,68.45L172.36,68.95L173.02,70.37L173.35,67.91L173.69,68.2L174.02,70.14L175.01,76.22L175.34,78.72L176.67,96.34L177,89.99L177.33,80.18L177.66,89.67L177.99,105.03L178.33,92.55L178.66,96.84L178.99,96.7L179.32,94.86L179.65,87.76L180.98,67.9L181.31,68.03L181.64,74.74L182.63,58.77L182.97,61L183.3,71.74L183.63,65.07L183.96,69.09L184.29,69.15L184.62,70.68L184.96,59.2L185.29,57.8L185.62,67.95L186.28,74.27L186.61,72.21L186.94,72.04L187.61,82.81L187.94,79.31L188.27,80.27L189.26,82.03L189.6,85.51L189.93,76.89L190.26,85.86L190.59,87.54L190.92,88.38L191.25,91.84L191.58,89.34L191.92,75.84L192.25,76.32L192.58,81.92L193.9,76.37L194.24,63.5L194.57,60.63L194.9,62.53L195.23,65L196.22,74.48L196.56,61.96L197.55,70.53L197.88,68.85L198.21,67.86L198.54,73.41L199.54,78.67L199.87,76.43L200.53,72.14L200.87,75.23L201.2,57.46L201.53,64.84L201.86,65.27L202.85,73.6L203.19,71.46L203.52,71.77L203.85,71.04L204.18,70.97L204.51,74.13L205.17,81.14L205.51,73.34L206.5,77.84L206.83,81.85L207.83,71.78L208.16,73.61L209.48,69.71L209.81,73.8L210.15,72.37L210.48,66.07L210.81,64.14L211.14,70.95L211.8,76.18L212.13,73.45L212.47,73.26L212.8,70.76L213.13,68.99L213.46,69.84L213.79,77.49L214.12,78.6L214.46,77.52L214.79,69.82L215.12,59.23L215.45,66.02L215.78,65.06L216.78,77.43L217.11,73.57L218.1,82.17L218.43,80.21L218.76,79.35L220.09,77.14L220.42,84.79L220.75,82.42L221.08,83.36L221.42,89.74L222.41,73.87L222.74,84.68L223.07,86.07L223.4,83.18L225.39,103.16L225.72,98.85L226.39,87.99L226.72,92.99L227.05,83.09L227.38,90.42L227.71,93.31L228.38,87.38L228.71,91.87L229.04,92.89L229.37,98.23L229.7,115.62L230.03,108.32L230.37,101.23L231.36,78.6L231.69,109.97L232.02,125.45L232.35,109L232.69,110.62L233.35,112.83L233.68,123.75L234.34,137.55L234.67,122.4L235.34,119.96L235.67,120.33L236,112.05L236.66,134.03L236.99,113.62L237.33,113.99L237.66,116.74L237.99,129.06L238.32,111.41L238.98,143.61L239.31,221.71L239.65,242.09L239.98,108.08L240.97,58.67L241.3,62.06L241.63,71.73L241.97,50L242.3,74.88L242.96,68.56L243.29,56.91L243.96,69.73L244.62,69.35L244.95,65.82L245.61,50.82L245.94,54.45L246.28,57.2L246.61,54.84L246.94,57.06L247.27,55.64L247.6,53.1L247.93,53.65L248.26,62.84L248.6,64.07L248.93,61.26L250.25,58.34L250.58,62.9L250.92,60.87L251.25,64.1L251.58,63.07L251.91,64.2L252.24,55.22L252.9,59.29L253.24,57.8L253.57,56.17L255.22,76.05L255.56,70.54L255.89,69.69L256.22,75.66L256.55,92.2L256.88,76.76L257.21,72.57L257.54,72.8L257.88,76.04L258.54,72.19L258.87,72.93L259.2,47.9L259.53,52.74L259.87,72.3L260.2,67.62L260.53,76.49L260.86,76.29L261.19,77.7L261.85,63.21L262.19,68.9L262.52,69.58L262.85,66.62L263.84,76.38L264.17,68.43L264.51,72.98L264.84,69.64L265.17,71.72L265.5,68.78L265.83,69.3L266.16,58.98L266.49,57.83L266.83,63.84L267.49,68.52L267.82,64.99L268.15,63.33L268.48,54.38L269.81,64.05L270.14,60.18L270.47,58.17L270.8,66.16L271.47,65.98L271.8,70.87L272.79,61.33L273.12,68.52L273.46,57.47L273.79,63.77L274.12,67.39L275.11,65.46L275.44,64.4L275.78,57.73L276.11,61.14L276.44,74.76L277.43,61.54L277.76,70.07L278.1,69.92L278.43,79.12L278.76,75.82L279.09,95.02L280.42,57.77L280.75,66.21L281.08,68.88L281.41,63.68L282.4,69.9L282.74,60.39L283.4,77.79L283.73,75.54L284.06,77.17L284.39,77.16L284.72,67.23L285.06,67.38L285.39,74.39L285.72,78.76L286.05,78.69L286.38,75.31L286.71,73.54L287.04,107.37L287.38,91.37L287.71,94.65L288.04,104.47L289.37,81.01L289.7,72.63L290.69,76.83L291.02,75.96L291.35,73.39L292.02,62.51L292.35,67.83L292.68,64.4L293.01,67.49L293.34,69.64L295,77.16L295.33,76.43L295.66,74.68L295.99,75.85L296.33,58.13L296.99,69.71L297.32,67.08L297.65,64.33L298.31,68.64L298.65,64.52L299.31,71.26L299.64,68.91L299.97,68.17L300.3,66.34L300.63,75.11L301.3,69.98L301.63,73.21L302.96,78.25L303.29,68.9L303.62,69.1L303.95,83.62L304.94,69.55L305.28,74.06L305.94,66.32L306.27,70.07L306.6,69.68L306.93,65.36L307.26,68.12L307.6,68.88L308.26,55.5L308.59,58.04L308.92,67.4L309.25,71.51L309.58,64.2L309.92,66.06L310.25,60.8L310.58,57.62L310.91,67.85L312.57,77.68L312.9,63.16L313.23,73.2L313.56,71.99L313.89,67.97L314.89,82.5L315.22,59.86L316.88,74.01L317.21,58.83L317.54,58.87L317.87,63.17L318.87,65.38L319.2,59.43L319.53,60.28L319.86,47.97L320.52,61.09L320.85,53.79L321.19,54.71L321.52,53.62L321.85,104.72L322.84,69.06L323.17,74.77L323.51,68.73L323.84,72.08L324.17,75.29L324.5,62.52L324.83,76.58L325.16,73.05L325.83,67.05L326.16,70.19L326.49,73.01L326.82,62.47L327.81,68.64L328.15,65.8L328.48,65.96L328.81,61.55L329.14,63.45L329.47,70.16L329.8,73.03L330.13,69.58L330.47,67.18L330.8,67.1L331.13,47.62L332.12,67.68L332.46,64.66L332.79,65.84L333.12,63.63L333.78,63.47L334.78,74.35L335.11,75.96L335.44,76.96L335.77,69.54L336.1,65.2L336.43,69.58L336.76,76.2L337.43,75.04L337.76,75.5L338.09,70.52L338.42,67.6L338.75,75.07L339.42,83.28L339.75,82.59L340.08,80.87L340.74,79.87L341.07,92.42L341.4,89.18L341.74,94.71L342.07,92.02L342.4,91.54L342.73,89.98L343.06,78.26L344.06,88.72L344.39,86.73L345.38,77.32L345.71,87.83L346.04,86.25L346.38,88.42L347.37,95.36L347.7,81.49L348.03,97.96L348.7,94.82L349.03,94.87L349.36,94.82L349.69,89.31L350.02,92.41L350.35,102.7L350.69,111.5L351.02,110.39L351.35,107.61L351.68,108.14L352.01,113.05L352.34,120.51L352.67,149.1L354.33,102.76L354.66,112.42L354.99,133.11L355.33,115.36L355.66,115.77L355.99,115.92L356.32,117.09L357.31,144.89L357.65,131.39L358.64,134.84L358.97,135.65L359.97,163.4L360.3,233.82L360.63,264.02L360.96,122.41L361.62,73.88L361.96,77.84L362.29,69.58L362.95,60.13L363.28,77.65L363.61,76.76L363.94,65.65L365.27,74.61L365.6,70.54L366.26,53.07L366.6,63.18L366.93,68.94L367.59,68.7L367.92,67.23L368.58,45.03L368.92,52.71L369.25,53.77L369.58,56.05L369.91,49.53L370.24,50.75L370.57,54.99L370.9,51.32L371.24,61.64L371.57,66.65L371.9,63.92L372.23,63.79L372.89,63.93L373.22,57.64L373.56,65.74L373.89,70.7L374.22,69.11L374.55,69.15L374.88,71.36L375.21,52.06L375.54,47.55L375.88,66.76L376.21,71.7L376.54,67.01L376.87,69.2L377.2,71.51L377.53,87.8L377.87,75.1L378.53,77.87L378.86,80.42L379.52,78.55L379.85,83.72L380.19,69.32L380.52,77.8L380.85,83.01L381.18,82.78L381.51,83.72L381.84,82.33L382.17,66.43L382.51,53.5L382.84,55.11L383.17,58.73L383.5,60.1L383.83,57.8L384.16,60.29L384.49,49.98L384.83,47.73L385.16,53.87L385.49,57.69L385.82,54.07L386.15,55.47L386.48,55.62L386.81,48.11L387.48,50.86L387.81,60.47L388.14,65.93L388.47,65.09L388.8,62.4L389.8,91.23L390.13,92.94L390.46,88.95L390.79,92.54L391.12,92.93L391.79,81.18L392.12,87.97L392.45,93.69L392.78,88.81L393.11,86.71L393.44,84.35L393.78,86.36L394.11,75.96L394.44,74.13L394.77,78.13L395.76,73.41L396.1,81.26L396.76,72.2L397.09,76.73L397.42,76.74L397.75,75.62L398.08,77.55L398.42,62.46L398.75,58.93L399.08,67.49L399.41,74.11L399.74,68.83L400.07,71.67L400.4,78.56L400.74,75.02L401.07,69.49L401.73,79.97L402.06,77.78L402.39,77.8L403.39,67.24L403.72,76.21L404.05,76.18L404.38,75.02L405.38,54.68L405.71,62.29L406.37,73.72L406.7,62.22L407.03,66.45L407.37,65.63L407.7,40.17L409.02,67.8L409.35,61.09L409.69,63.84L410.02,48.05L410.68,61.24L411.34,61.17L411.67,61.39L412.34,53.02L412.67,62.06L413.33,71.05L413.66,59.05L413.99,50.58L414.33,58.94L414.66,53.77L415.32,65.68L415.65,62.06L415.98,55.18L416.98,59.71L417.31,52.13L417.97,62.01L418.3,57.79L418.63,56.92L418.97,59.73L419.63,50.51L419.96,55.53L420.29,62.3L420.62,57.39L420.96,52.63L421.62,48.19L421.95,41.34L423.28,54.41L423.61,50.73L423.94,45.49L424.27,47.21L424.6,48.57L424.93,50.26L425.26,44.2L426.26,65.42L426.59,57.5L426.92,56.99L427.25,69.53L427.58,68.63L427.92,60.97L428.25,59.95L428.58,55.71L428.91,46.38L429.24,51.48L429.57,54.32L430.24,63.71L430.57,76.64L431.23,79.98L431.56,77.03L432.22,86L432.56,83.85L432.89,77.44L433.55,77.93L433.88,85.15L434.54,82.41L434.88,75.57L435.21,79.92L435.54,69.12L436.2,82.12L436.53,81.87L436.87,81.55L437.86,74.86L438.19,75.96L438.52,75.66L439.19,81.22L439.52,80.03L439.85,75.14L440.18,75.64L440.51,73.19L440.84,85.21L441.51,83.36L441.84,83.13L442.17,82.14L442.5,73.41L442.83,75.28L443.16,84.75L443.49,79.55L443.83,80.29L444.16,81.53L444.82,77.42L445.15,68.06L445.48,84.83L445.81,75.47L446.15,75.08L446.48,76.48L446.81,71.5L447.14,59.97L447.47,64.1L447.8,73.47L448.13,74.19L448.47,70.3L448.8,67.97L449.13,70.21L449.46,58.62L450.12,71.14L450.46,65.17L450.79,67.96L451.45,68.99L451.78,74.81L452.11,61.61L452.44,75.49L452.78,83.48L454.43,62.22L454.76,71.01L455.1,71.09L455.43,74.48L455.76,81.29L456.09,74.91L456.42,76.91L456.75,68.07L457.08,78.27L457.42,79.97L457.75,79.28L458.08,82.31L458.74,84.85L459.07,84.74L459.4,79.44L459.74,85.05L460.07,79.77L460.4,83.43L460.73,80.35L461.06,83.54L461.39,71.99L462.06,81.43L462.72,81.19L463.05,80.47L463.38,80.85L463.71,74.28L465.04,86.15L465.37,83.79L466.03,73.78L466.37,91.3L466.7,87.97L467.03,88.34L467.36,90.31L467.69,87.25L468.02,73.29L468.35,76.82L468.69,89.85L469.02,98.59L469.35,97.11L469.68,96.12L470.01,96.75L470.34,80.19L470.67,84.96L471.01,101.38L471.34,96.38L471.67,98.05L472,101.79" style="vector-effect: non-scaling-stroke; fill: none; stroke: rgb(99, 110, 250); stroke-opacity: 1; stroke-width: 2px; opacity: 1;"/></g><g class="points"/><g class="text"/></g><g class="trace scatter trace1ba8be" style="stroke-miterlimit: 2; opacity: 1;"><g class="fills"/><g class="errorbars"/><g class="lines"><path class="js-line" d="M0,142.89L0.99,149.08L1.33,147.99L1.99,143.22L2.32,152.83L3.31,147.09L3.65,147.51L3.98,151.42L4.31,147.9L4.64,156.88L6.3,142.87L6.63,144.7L6.96,156.22L8.29,150.76L8.62,141.82L8.95,141.19L9.28,155.28L11.27,140.19L11.6,152.41L12.6,149.12L12.93,151.31L13.26,144.97L13.59,146.25L13.92,157.21L14.25,154.92L14.58,169.73L15.58,139.03L15.91,141.33L16.24,151.81L17.24,148.98L17.57,148.5L18.23,141.82L18.56,152.11L18.89,153.31L19.22,151.83L19.56,148.81L20.22,142.63L20.55,143.06L20.88,149.27L22.87,137.76L23.2,143.47L23.53,143.8L23.87,142.33L25.19,137.17L25.52,121.3L25.85,117.19L26.19,117.99L26.52,119.72L26.85,119.05L27.18,113.67L27.84,125.51L28.17,123.1L28.51,122.9L29.17,126.75L29.5,114.18L30.16,123.75L30.49,122.22L30.83,120.1L31.49,120.17L31.82,123.14L32.15,119.22L32.48,121.63L32.81,121.71L34.14,119.05L34.47,120.23L34.8,123.97L35.13,122.07L35.47,120.89L35.8,121.94L36.13,117.91L36.79,109.57L37.12,118.67L38.12,114.24L38.45,112.5L38.78,114.5L39.11,110.04L39.78,109.9L40.11,112.24L40.44,113.75L40.77,111.82L41.1,111.28L41.43,110.17L41.76,118.75L42.1,113.83L42.43,115.37L42.76,116.05L43.09,116.58L43.42,121.51L43.75,120.99L44.08,132.05L45.74,113.35L46.07,109.98L46.4,114.85L46.74,112.76L47.07,111.15L48.39,99.54L48.72,105.13L49.06,106.19L50.05,104.26L50.71,102.37L51.04,104.67L51.38,112.19L51.71,110.96L52.04,108.26L52.7,104.7L53.03,105.38L53.37,109.31L54.03,107.16L54.36,105.04L55.35,97.78L55.69,99.9L56.02,98.42L56.35,97.04L56.68,99.26L57.01,94.6L57.34,105.82L57.67,99.19L58.34,100.47L58.67,98.8L59,98.98L59.33,96.13L59.66,90.57L59.99,91.12L60.33,94.18L60.66,93.74L60.99,94.7L61.98,92.58L62.31,93.65L62.65,96.41L62.98,94.8L63.31,93.34L63.97,94.58L64.3,98.42L64.63,91.98L65.3,92.26L65.63,93.43L65.96,94.37L66.29,100.42L66.62,126.98L66.96,112.75L67.29,113.1L70.27,91.93L70.6,91.61L70.93,91.88L71.26,89.15L71.6,84.45L71.93,92.53L72.92,89.19L73.25,91.55L73.92,89.25L74.25,93.03L74.58,90.18L75.24,90.38L75.57,91.29L76.24,91.35L76.57,93.92L77.56,89.99L77.89,95.45L78.56,88.77L78.89,92.83L79.55,86.87L79.88,87.31L80.21,89.67L80.54,81.73L80.88,83.1L81.21,88.08L81.87,84.14L82.2,85.93L82.53,87.28L83.2,89.55L83.53,97.38L84.52,88.98L84.85,88.95L85.19,98.94L85.52,90.87L85.85,94.81L86.18,95.85L86.51,93.43L86.84,91.98L87.17,94.01L87.84,84.41L88.17,90.93L88.5,87.13L89.16,87.99L89.49,88.91L89.83,89.67L90.16,89.42L90.49,96.43L91.48,94.27L91.81,94.47L92.15,86.47L92.48,88.61L92.81,97.61L93.14,98.21L93.47,96.47L94.8,88.03L95.13,94.97L96.12,90.91L96.46,93.1L96.79,92.45L97.12,88.41L97.45,99.95L97.78,94.43L98.11,92.17L99.44,86.16L99.77,95.14L100.43,86.23L100.76,87.13L101.1,91.98L101.43,87.92L101.76,92.38L102.09,104.49L103.42,89.86L103.75,88.74L104.08,88.91L104.41,100.32L105.07,92.73L105.4,94.65L105.74,96.41L106.4,93.71L106.73,107.38L107.72,99.95L108.06,100.06L108.39,98.44L108.72,105.54L109.05,120.13L109.38,107.38L109.71,110.01L110.38,118.35L110.71,133.75L111.37,166.09L111.7,137.4L112.03,134.97L112.37,146.57L112.7,135.31L113.03,139.07L113.36,161.25L113.69,179.87L114.02,147.76L114.35,144.52L114.69,147.52L115.02,146.33L115.35,142.38L115.68,164.45L116.01,173.76L116.34,148.54L116.67,145.39L117.01,157.63L117.67,181.28L118,223.33L118.33,304L118.66,220.64L118.99,138.09L119.99,90.39L120.32,89.05L120.65,82.7L120.98,91.22L121.65,94.41L121.98,92.21L122.31,92.85L122.64,92.14L122.97,102.62L124.3,94.3L124.63,93.32L124.96,96.29L125.29,106.5L125.96,107.12L126.29,103.41L126.62,101.89L127.28,92.05L127.61,105.95L128.94,96.87L129.27,77.99L129.6,78.06L129.93,92.33L130.93,89.02L131.26,89.23L131.92,81.7L132.25,90.34L132.92,86.51L133.25,89.15L133.58,90.7L133.91,87.49L134.24,82.08L134.57,92.86L134.9,89.13L135.24,92.16L135.57,116.76L136.56,89.45L136.89,97.96L137.22,93.88L137.56,93.99L137.89,96.04L138.22,95.87L138.55,91.82L138.88,89.92L139.21,100.02L140.21,96.27L140.54,95.37L141.2,90.72L141.53,99.26L141.87,95.88L142.2,97.08L142.53,99.53L142.86,100.32L143.19,90.98L143.52,91.07L143.85,100.49L145.51,91.41L145.84,94.84L146.17,100.26L146.51,95.81L146.84,95.16L147.17,96.92L147.5,96.03L147.83,95.31L148.16,89.47L148.49,97.53L149.82,92.04L150.15,102.3L150.48,102.48L150.81,105.64L151.15,105.35L151.48,103.5L152.14,104.55L152.47,101.32L152.8,96.11L153.13,102.56L153.47,97.7L154.13,97.42L154.46,94.74L155.12,90.59L155.46,102.78L156.78,91.98L157.11,95.19L157.78,105.26L158.11,97.15L158.44,99.43L158.77,97.59L159.1,96.32L160.1,105.77L160.43,99.12L160.76,107.1L161.09,104.69L161.42,102.53L161.75,95.79L162.08,97.61L162.42,100.27L163.41,96.85L163.74,100.4L164.74,117.45L165.07,112.68L166.39,102.54L166.72,99.61L167.39,105.07L167.72,104.07L168.05,102.31L168.38,102.21L168.71,100.91L170.04,90.42L170.37,91.21L171.03,96.69L171.37,92.39L171.7,97.25L172.03,95.81L172.36,95.43L173.02,98.45L173.35,90.66L174.02,100.61L174.35,96.08L174.68,94.72L175.01,95.22L175.34,94.74L175.67,94.47L176.34,102.4L176.67,91.83L177,96.07L177.33,91.48L177.66,90.09L177.99,94.18L178.33,89.25L178.66,93.63L178.99,89.7L179.65,89.08L179.98,87.69L180.65,82.47L180.98,85.64L181.64,86.02L181.97,86.34L182.97,79.68L183.3,83.22L183.63,81.57L183.96,82.74L184.29,85.56L184.62,86.09L184.96,80.69L185.29,80.31L185.62,86.37L185.95,89.13L186.28,85.18L187.28,89.65L187.61,87.4L188.93,92.83L189.26,92.03L189.93,90.1L190.26,94.74L190.59,94.98L190.92,97.08L191.58,94.72L191.92,95.8L192.25,93.61L192.58,96.64L193.57,99.62L193.9,100.01L194.57,95.63L194.9,100.64L195.23,97.71L195.56,99.43L195.89,100.37L196.22,98.87L196.56,92.49L197.22,98.55L197.55,97.25L197.88,97.06L198.21,99.89L198.54,99.43L198.88,97.72L199.54,102.61L199.87,99.45L200.53,99.79L200.87,99.31L201.53,85.82L201.86,90.63L202.52,88.85L202.85,89.51L203.19,90.9L203.52,85.75L203.85,94.06L204.18,96.34L204.51,88.92L205.17,89.38L205.51,90.68L205.84,89.15L206.17,90.31L206.5,97.42L208.16,85.77L208.49,85.83L208.82,94.7L209.15,91.05L209.48,90.16L210.15,92.76L210.48,81.29L211.8,96.12L212.13,92.17L212.8,84.25L213.13,88.25L213.46,96.81L213.79,93.04L214.12,91.85L214.79,90.44L215.12,79.13L215.78,92.24L216.44,91.43L216.78,90.15L217.11,94.28L217.44,92.22L217.77,92.06L218.1,98.39L218.43,95.14L218.76,92.87L219.1,93.04L219.43,91.04L219.76,86.25L220.09,89.95L220.42,97.47L221.42,92.81L221.75,96.44L222.08,89.64L222.41,95.26L222.74,104.91L223.07,98.48L223.4,99.93L223.74,101.03L224.07,100.93L224.4,108.56L225.06,121.01L225.39,113.64L226.06,109.18L226.39,110.41L226.72,112.87L227.05,113.28L227.38,125.86L228.71,112.42L229.04,108.47L229.7,136.41L230.03,122.48L230.37,123.19L230.7,115.76L231.03,119.25L231.36,119.49L232.02,171.77L232.35,140.29L232.69,139.42L233.02,141.18L233.68,139.79L234.01,159.09L234.34,168.47L234.67,141.13L235.01,139.87L235.34,143.94L235.67,149.11L236,149.06L236.33,175.21L236.66,187.4L236.99,157.48L237.66,163.75L237.99,170.59L238.32,174.49L238.65,199.26L239.31,293.16L239.65,221.9L240.64,98.16L240.97,94.39L241.3,94.21L241.63,90.25L242.63,97.29L242.96,95.74L243.29,94.23L243.62,99.19L243.96,93.66L244.62,95.03L244.95,95.08L245.28,88.25L245.61,91.91L245.94,98.25L246.28,93.22L246.61,94.25L246.94,94.96L247.27,93.42L247.6,85.9L248.26,98.76L248.6,95.79L248.93,96.24L249.59,94.33L249.92,88.59L250.58,102.13L250.92,97.63L251.25,97.21L251.91,93.98L252.24,87.5L252.9,97.99L253.24,94.11L253.57,94.02L253.9,95.78L254.23,95.45L254.56,90.35L255.22,99.23L255.56,96.7L255.89,96.47L256.22,98.37L256.55,106.47L257.21,92.39L257.54,97.91L258.54,93.64L258.87,94.29L259.2,77.98L259.53,85.97L259.87,95.17L260.2,93.23L260.53,94.64L260.86,94.51L261.19,95.86L261.52,90.8L262.19,100.23L262.52,96.98L262.85,95.71L263.18,95.9L263.51,94.55L264.17,89.72L264.51,94.87L265.83,92.5L266.16,81.8L266.49,84.03L266.83,93.21L267.82,88.67L268.15,88.36L268.48,85.23L268.81,88.01L269.15,93.75L269.48,90.5L269.81,93.66L270.14,91.95L270.47,91.79L270.8,95.58L271.13,95.54L271.47,103.99L272.79,99.37L273.12,92.88L273.46,88.98L273.79,92.83L274.12,94.47L275.11,89.9L275.44,91.03L275.78,88.29L276.11,94.03L277.76,81.4L278.1,83.46L278.43,83.68L278.76,87.72L279.09,91.24L279.42,88.77L279.75,86.48L280.08,84.36L280.42,85.18L280.75,91.69L281.41,86.74L281.74,89.62L282.07,88.85L282.4,86.01L282.74,86.19L283.07,92.25L283.4,92.06L283.73,90.94L284.72,91.66L285.06,89.76L285.39,99.16L285.72,96.24L286.05,95.42L286.38,95.84L286.71,95.31L287.04,125.19L287.38,116.49L288.04,118.49L288.37,110.69L289.7,91.69L290.03,95.05L290.36,94.91L290.69,95L291.02,93.62L291.35,96.13L291.69,82.22L292.35,89.14L292.68,85.53L293.34,87.86L293.67,86.94L294.01,87.43L294.34,86.08L294.67,88.05L295.99,85.4L296.33,77.82L296.66,77.9L296.99,79.99L297.65,75.42L297.98,76.27L298.31,76.23L298.65,77.35L298.98,76.3L299.31,81.36L299.64,73.51L299.97,75.68L300.3,76.47L300.97,73.6L301.3,74.8L301.63,75.08L301.96,74.31L302.96,72.51L303.29,76.03L303.95,78.19L304.28,74.6L304.61,77.18L304.94,76.61L305.28,76.38L305.61,72.29L306.27,72.75L306.6,72.22L306.93,72.97L307.26,71.76L307.6,71.95L307.93,75.36L308.59,76.95L308.92,76.35L309.25,74.85L309.58,78.01L309.92,76.24L310.25,81.25L311.24,82.55L311.57,81.93L312.57,85.81L312.9,82.5L313.56,81.96L313.89,83.89L314.22,86.81L314.56,86.11L314.89,97.57L315.55,82.51L315.88,85.19L316.21,85.17L316.54,84.48L316.88,81.35L317.21,79.77L317.54,82.53L317.87,84.43L318.2,80.14L318.87,82.6L319.2,80.57L319.86,77.35L320.19,77.67L320.52,77.6L320.85,78.32L321.19,77.6L321.52,76.41L321.85,102.69L322.18,88.05L322.51,89.45L323.84,79L324.17,89.94L324.5,90.82L324.83,94.85L326.16,88.3L326.49,85.1L326.82,86.14L327.15,92.81L327.48,87.75L328.15,88.15L328.48,85.57L328.81,84.03L329.14,85.44L329.47,91.29L331.13,79.1L331.46,84.51L331.79,91.31L332.12,88.3L332.46,88.41L332.79,91.47L333.12,90.11L333.45,87.79L333.78,87.85L334.11,92.48L335.44,89.87L335.77,90.24L336.1,90.41L336.43,94.64L337.43,93.23L337.76,93.29L338.09,89.85L338.42,91.21L338.75,97.9L339.08,94.78L339.42,95.17L339.75,97.3L340.08,96.68L340.41,105.62L341.07,113.52L341.4,110.48L341.74,106.45L342.07,106.57L342.4,99.26L343.06,95.61L343.39,102.65L344.39,97.5L344.72,96.16L345.05,93.55L345.38,95.13L345.71,102.85L346.04,99.98L346.38,100.66L346.71,102.51L347.37,99.69L347.7,100.44L348.03,111.4L349.03,103.26L349.36,105.49L349.69,103.46L350.02,110.31L350.35,121.34L350.69,110.99L351.02,112.66L351.68,115.32L352.01,113.95L352.67,169.73L353.01,140.99L353.67,139.61L354,124.02L354.33,124.97L354.66,144.77L354.99,158.21L355.33,126.88L356.65,146.9L356.98,164.2L357.31,170.93L357.65,143.08L358.31,146.99L358.64,154.15L359.3,182.41L359.63,192.27L359.97,199.4L360.3,289.11L361.62,88.42L361.96,86.61L362.29,85.55L362.62,80.67L363.61,87.13L363.94,86.82L364.28,92.46L364.61,87.86L364.94,89.27L365.27,88.99L365.6,87.7L365.93,78.49L366.26,79.28L366.6,86.41L367.26,79.24L367.59,81.78L367.92,81.97L368.25,69.73L368.58,71.1L368.92,75.28L369.91,72.89L370.24,72.85L370.57,71.91L370.9,72.68L371.24,78.53L371.9,74.72L372.23,77.21L372.56,77.19L372.89,73.82L373.22,74.02L373.56,81.04L374.22,77.51L374.55,78.1L374.88,79.17L375.54,77.67L375.88,85.15L376.87,81.75L377.2,81.1L377.53,88.64L378.2,87.92L378.53,87.04L379.19,86.09L379.52,86.52L379.85,87.29L380.19,83.75L380.52,89.81L380.85,85.81L381.18,85.73L381.84,83.13L382.17,74.96L382.84,84.06L383.17,80.35L383.5,80.92L384.16,80.05L384.49,67.11L384.83,65.76L385.16,75.66L385.82,73.69L386.15,74.24L386.48,73.28L386.81,69.81L387.15,74.3L388.14,78.08L388.47,77.52L388.8,77.96L389.13,99.32L389.8,103.01L390.13,97.85L390.46,97.37L390.79,94.74L391.46,85.66L391.79,87.02L392.12,88.56L393.78,79.58L394.11,82.6L394.44,81.25L394.77,75.29L395.1,74.07L395.43,75.85L396.76,79.56L397.09,77.38L398.42,70.07L398.75,79.54L399.08,81.79L399.41,76.83L400.74,72.58L401.07,77.99L401.4,79.37L401.73,74.91L402.39,78.99L402.72,76.17L403.72,77.89L404.05,71.78L404.38,73.24L404.71,72.23L405.04,70.29L406.04,77.45L406.37,72.37L407.7,67.61L408.03,70.66L408.36,72.82L408.69,67.32L409.02,67.68L409.35,70.55L410.35,67.27L410.68,68.23L411.01,62.67L411.34,61.07L411.67,62.78L412.01,61.78L412.34,68.39L412.67,65.26L413,65.93L413.33,64.02L413.66,57.11L414.99,63.17L415.32,66.28L416.31,60.79L416.65,60.3L417.64,64.54L417.97,61.37L418.3,61.85L418.63,63.79L419.3,62.61L419.63,62.04L419.96,66.39L420.29,59.75L420.62,65.22L420.96,58.84L421.29,56.98L421.62,55.53L421.95,57.02L422.28,57.99L422.61,53.33L422.94,56.17L423.28,55.46L423.61,56.18L423.94,53.4L424.6,58.91L424.93,57.5L425.26,56.78L425.93,60.21L426.26,67.84L428.25,54.97L428.58,54.26L429.24,57.68L429.57,52.4L430.57,55.85L430.9,67.75L431.56,68.05L432.22,62.86L432.56,62.72L432.89,63.06L433.22,66.37L433.88,68.27L434.21,65.31L435.87,60.32L436.2,61.76L436.53,58.57L436.87,58.93L437.2,59.52L438.52,65.39L438.85,62.48L439.85,63.51L440.18,63.57L440.84,72.26L441.17,67.61L441.51,67.84L442.17,68.89L442.5,65.11L443.16,70.33L443.49,66.2L443.83,65.12L444.16,65.34L444.49,67.53L444.82,59.35L445.15,61.79L445.48,67.55L445.81,62.38L446.15,64.21L446.48,64.6L447.14,61.25L447.47,65.26L447.8,70.18L448.13,63.96L448.47,63.47L449.13,66.59L449.46,62.9L450.12,71.82L450.46,68.83L450.79,68.38L451.12,70.7L451.45,70.02L451.78,73.6L452.11,72.5L452.44,77.42L452.78,77.41L453.11,73.6L453.44,72.68L453.77,74.02L454.1,69.27L454.43,70.16L454.76,78.67L455.1,75.78L455.43,76.58L455.76,78.07L456.09,77.81L456.42,71.35L457.08,80.22L457.42,76.96L457.75,76.51L458.08,79.25L458.74,81.12L459.07,79.91L459.4,85.24L459.74,79.51L460.07,80.82L460.4,81.87L460.73,80.3L461.06,80.23L461.39,82.46L461.72,86.04L462.06,84.02L462.39,83.93L462.72,84.5L463.05,83.7L463.38,87.69L463.71,87.8L464.04,97.3L465.37,87.46L465.7,83.49L466.37,93.27L466.7,89.95L467.03,88.54L467.36,91.8L468.02,79.66L468.35,89.57L468.69,100.69L469.02,90.66L469.35,94.32L469.68,95.02L470.01,97.86L470.34,92.87L470.67,108.72L471.01,116.25L471.34,102.22L472,109.55" style="vector-effect: non-scaling-stroke; fill: none; stroke: rgb(239, 85, 59); stroke-opacity: 1; stroke-width: 2px; opacity: 1;"/></g><g class="points"/><g class="text"/></g><g class="trace scatter tracec6c655" style="stroke-miterlimit: 2; opacity: 1;"><g class="fills"/><g class="errorbars"/><g class="lines"><path class="js-line" d="M0,212.46L1.33,220.66L1.66,213.31L1.99,211.89L2.32,217.54L2.65,220.92L2.98,217.24L3.31,216.4L3.65,221.39L3.98,215.53L4.31,216.74L4.97,230.18L5.3,226.28L5.63,227.02L5.97,227.09L6.3,222.98L6.63,222.19L6.96,224.88L7.96,230.91L8.29,232.18L8.95,229.66L9.28,231.78L10.61,234.1L10.94,225.4L11.27,226.04L11.6,230.02L12.26,234.63L12.6,229.07L13.26,228.23L13.59,224.33L13.92,225.12L14.25,230.3L14.58,235.42L14.92,228.47L15.58,220.28L15.91,220.73L16.24,223.68L16.57,229.93L16.9,229.38L17.24,227.73L17.57,227.42L17.9,222.13L18.56,224.38L18.89,231.28L19.22,232.45L19.56,231.8L19.89,231.94L20.22,219.44L20.55,219.54L20.88,224.33L21.21,226.91L21.54,225.48L21.88,223.53L22.21,225.4L22.54,224.98L22.87,219.25L23.53,227.12L23.87,223.96L24.53,224.89L24.86,217.33L25.19,216.48L25.52,208.19L25.85,209.38L26.19,205.48L27.84,217.24L28.17,213.99L28.51,210.6L28.84,215.35L29.17,218.16L29.5,214.87L29.83,217.66L30.16,215.47L30.49,213.08L30.83,214.29L31.16,215.62L31.49,215.6L31.82,210.67L32.48,211.9L32.81,216.04L33.48,219.65L33.81,219.41L34.14,211.47L35.13,207.19L35.47,207.37L36.13,210.59L36.46,205.39L37.12,206.44L37.46,207.69L38.45,207.46L38.78,201.23L39.11,199.57L39.44,200.31L39.78,204.44L40.77,210.03L41.1,205.48L41.43,206.02L41.76,205.51L42.1,208.6L42.76,204.47L43.09,207L43.42,207.44L43.75,202.69L45.08,206.05L45.41,205.83L46.07,199.62L46.4,200.73L46.74,202.3L47.4,200.15L47.73,201.53L49.06,191.17L50.05,197.84L50.71,196.19L51.04,198.21L51.71,194.7L52.04,197.12L52.37,197.44L52.7,196.54L54.03,193.16L54.36,196.41L55.35,195.4L55.69,199.02L56.02,198.48L56.35,201.42L56.68,202.06L57.01,197.45L57.34,198.91L57.67,197.32L58.01,193.26L58.34,190.71L58.67,192.66L59,191.61L59.33,192.02L59.66,181.92L60.99,191.82L61.32,190.08L61.65,189.67L61.98,191.2L62.98,191.07L63.31,189.11L63.64,188.28L63.97,190.03L64.3,194.54L64.63,190.2L64.97,189.04L65.3,192.09L65.63,189.33L65.96,188.22L66.62,203.13L66.96,196.53L67.29,196.2L68.28,193.12L68.61,194.68L69.28,183.35L69.61,184.24L69.94,186.14L70.27,184.77L70.6,187.3L70.93,187.03L71.26,182.25L71.93,178.09L72.26,181.52L72.92,183.09L73.25,181.92L73.58,181.83L73.92,180.74L75.57,191.63L75.9,190.15L76.24,187.31L76.57,187.49L76.9,189.86L77.23,189.86L77.56,185.56L77.89,191.82L78.22,191.45L78.56,185.73L79.55,187.73L79.88,180.63L80.21,180.49L80.54,172.63L81.87,180.18L82.2,181.6L82.53,184.67L82.87,183.8L83.2,183.57L83.53,186.22L83.86,185.78L84.19,184.61L84.85,186.11L85.19,182.18L85.52,182.88L85.85,186.64L86.18,190.05L86.84,189.39L87.17,191.81L87.84,187.31L88.17,191.45L88.5,191.73L88.83,189.04L89.49,192.02L89.83,189.73L90.16,188.48L90.49,190.57L91.81,198.68L92.15,189.43L92.81,186.4L93.14,190.13L93.47,186.69L93.8,190.82L94.13,192.27L95.13,188.22L95.46,188.99L95.79,187.58L96.12,189.27L96.46,193.7L97.12,186.44L97.45,188.1L97.78,189.56L98.11,189.36L98.44,188.21L98.78,192.25L99.11,186.31L99.44,183.58L99.77,186.63L100.1,187.57L100.43,185.41L100.76,186.36L101.1,189.49L101.43,182.89L101.76,185.17L102.09,186.62L102.42,188.68L102.75,184.8L103.08,183.7L103.42,188.46L104.08,177.66L104.41,181.01L104.74,185.04L105.07,183.88L105.4,184.82L105.74,186.85L106.73,178.26L107.06,181.22L108.06,187.6L108.39,182.66L108.72,178.53L109.05,181.3L109.38,185.88L110.04,183.93L110.38,189.49L110.71,190.88L111.04,187.79L111.37,187.37L111.7,190.31L112.03,190.81L112.37,189.79L112.7,190.53L113.03,187.85L113.36,186.57L113.69,188.35L114.35,193.78L114.69,191.6L115.02,191.95L115.35,193.11L115.68,191.12L117.01,200.34L117.34,201.93L118,203.18L118.33,219.71L118.66,220.08L118.99,201.34L119.66,199.66L119.99,202.41L120.65,178.33L120.98,193.68L121.98,203.33L122.31,199.19L122.97,199.09L123.3,203.95L123.63,203.66L123.97,200.74L124.3,205.32L124.63,201.1L124.96,202.81L125.29,201.04L125.62,202.38L125.96,208.1L126.29,204.71L126.62,209.29L127.28,193.76L127.61,197.38L127.94,203.44L128.28,201.39L128.94,201.64L129.27,194.61L129.6,192.79L129.93,194.76L130.26,195.25L130.6,194.72L130.93,196.43L131.26,199.71L131.59,189.71L131.92,189.25L132.25,189.89L132.58,200.31L132.92,198.32L133.25,198.54L133.58,200.69L134.24,193.88L134.57,200.83L135.57,217L135.9,200.43L136.56,193.57L136.89,195.39L137.22,198.93L137.56,200.14L137.89,206.82L138.88,201.59L139.21,203.86L139.88,209.86L140.21,209.78L140.54,211.27L141.2,200.24L141.53,204.98L141.87,215.4L142.53,210.4L142.86,215.92L143.52,210.51L143.85,211.64L144.19,215.99L144.52,217.91L144.85,211.91L145.18,212.1L145.51,205.42L146.17,202.13L146.51,207.72L146.84,208.83L147.17,206.56L147.5,206.06L147.83,203.7L148.49,202.07L148.83,203.37L149.16,206.07L149.49,204.66L149.82,204.31L150.81,213.06L151.15,212.93L151.48,212.12L152.47,206.85L152.8,208.86L153.13,208.96L153.47,212.49L153.8,212.9L154.13,211.34L154.46,214.56L154.79,207.38L155.12,203.35L155.46,205.34L155.79,206.33L156.45,208.66L156.78,207.58L157.11,202.21L157.44,206.21L157.78,206.11L158.77,209.07L159.1,209.07L159.76,205L160.1,206.22L160.43,207.93L160.76,205.94L161.09,208.45L161.42,210.51L162.08,207.87L162.42,209.62L163.41,206.25L163.74,211.1L164.07,211.8L164.4,206.32L164.74,207.67L165.07,206.69L165.4,207.19L166.06,212.28L166.39,200.18L167.39,202.12L167.72,201.64L168.38,203.48L168.71,192.06L169.71,197.51L170.04,196.61L171.03,198.29L171.37,197.34L171.7,195.67L172.03,198.99L172.69,198.73L173.02,200.35L173.35,197.22L174.02,197.47L174.35,196.28L175.01,196.78L175.34,196.06L176.67,184.92L177,174.36L178.33,182.05L178.66,182.68L178.99,184.05L179.32,183.8L179.65,181.55L179.98,184.9L180.31,173.33L180.65,173.65L180.98,179.74L182.3,184.76L182.63,182.99L183.3,185.57L183.63,184.96L183.96,183.91L185.29,185.81L185.62,184.03L187.61,192.49L187.94,191.27L188.93,194.53L189.26,193.19L189.6,192.53L189.93,195.39L190.92,191.09L191.25,191.77L191.58,193.65L192.58,195.49L192.91,192.31L193.24,192.54L193.57,193.84L193.9,199L194.24,197.44L194.57,197.51L194.9,200.63L195.23,199.84L195.56,199.48L196.22,202.7L196.56,189.75L197.22,191.94L197.55,189.69L197.88,190.14L198.21,192.87L199.87,197.02L200.2,194.79L200.87,196.8L201.2,184.48L201.86,189.2L202.19,184.48L203.19,187.56L203.52,190.88L204.18,193.53L204.51,190.61L204.84,189.56L205.17,192.87L205.51,191.73L205.84,192.34L206.17,197.6L206.5,196.61L206.83,191.37L207.49,198.55L207.83,193.56L208.16,193.92L208.49,192.02L209.81,200.89L210.15,199.14L210.48,192.12L211.14,198.21L211.47,195.48L211.8,197.16L212.13,198.61L212.47,198.11L212.8,187.17L213.46,196.46L213.79,195.86L214.12,198.35L214.46,200.99L214.79,199.11L215.12,192.75L215.78,192.81L216.11,191.57L216.44,191.01L216.78,197.91L217.77,190.94L218.1,192.63L219.1,204.06L219.43,205.03L219.76,195.83L220.09,198.31L220.42,202.05L220.75,203.56L221.08,201.92L221.42,203.03L221.75,204.33L222.08,198.34L223.07,201.17L223.4,197.5L223.74,201.48L224.07,200.74L224.4,197.11L225.39,204.75L225.72,203.31L226.06,204.85L226.39,204.68L226.72,203.12L227.05,204.29L227.38,209.16L228.04,209.4L228.38,212.95L229.37,207.53L229.7,213.69L230.37,213.19L230.7,214.64L231.36,205.69L231.69,211.73L232.02,210.9L232.35,211.58L232.69,211.84L233.02,213.62L233.35,209.63L234.01,207.9L234.34,210.32L234.67,208.73L235.01,212L235.34,214.76L235.67,208.32L236,207.81L236.33,210.42L236.66,212.64L237.33,212.08L237.66,212.79L238.32,211.38L238.65,215.07L239.31,234.28L239.65,230.69L239.98,212.7L241.3,204.49L241.63,196.99L242.63,204.77L242.96,205.39L243.62,205.9L243.96,204.82L244.62,209.54L244.95,207.18L245.28,204.28L245.61,201.42L245.94,201.77L246.28,204.19L247.27,207.2L247.6,203.94L247.93,202.68L248.26,203.2L248.6,205.22L248.93,204.91L249.26,207.58L249.59,207.19L249.92,202.93L251.91,206.54L252.24,199.62L253.24,201.14L253.57,200.6L253.9,204.05L254.23,202.87L254.56,196.96L254.89,196.77L255.22,199.05L255.56,197.02L255.89,198.94L256.22,200.61L256.55,207.65L256.88,201.76L257.21,198.62L257.54,199.08L257.88,202.74L258.21,200.47L258.54,202.42L258.87,201.65L259.53,204.9L259.87,202.37L260.53,205.24L260.86,199.67L262.85,193.8L263.18,196.3L264.51,192.9L264.84,194.48L265.83,200.09L266.16,195.2L267.16,198.6L267.49,196.2L267.82,197.04L268.15,195.33L268.81,192.82L269.15,195.21L269.48,195.52L269.81,194.41L270.14,197.13L270.47,195.71L270.8,195.19L271.13,194.11L271.47,196.67L271.8,197.79L272.13,195.28L273.46,183.59L273.79,184.99L274.12,186.16L274.78,187.09L275.11,184.75L275.44,187.34L275.78,184.97L276.11,186.51L276.77,189.47L277.1,187.87L277.43,188.1L277.76,190.29L278.1,189.86L278.43,188.22L278.76,187.96L279.09,186.34L279.75,189.83L280.08,186.6L280.75,188.05L281.08,187.73L281.41,187.7L281.74,188.38L282.07,191.43L282.4,184.89L282.74,185.54L283.07,187.07L283.73,190.91L284.06,197.27L285.06,191.39L285.39,193.14L286.38,191.91L286.71,192.4L287.04,195.4L287.38,193.19L287.71,194.62L288.04,194.43L288.37,196.3L288.7,197.03L289.03,195.86L289.37,192.62L289.7,194.91L290.03,195.91L291.02,197.3L291.35,196.72L291.69,192.64L292.02,194.08L292.35,196.65L293.34,193.53L293.67,193.95L294.34,192.93L294.67,191.48L295,191.03L295.33,194.85L295.99,193.28L296.33,186.69L296.99,190.66L297.32,186.99L297.65,185.87L297.98,189.02L298.31,189.62L298.65,186.03L298.98,181.77L299.64,182.05L299.97,182.55L300.97,184.55L301.3,183.57L301.63,184.21L301.96,183.19L302.29,181.63L302.62,186.62L303.29,184.39L303.62,184.45L303.95,185.86L304.28,184.67L304.61,187.1L305.28,190.74L305.61,183.62L305.94,180.3L306.27,183.34L306.6,182.43L307.93,194.44L308.26,192.23L308.59,192.84L309.25,191.68L309.58,195.59L309.92,193.69L310.25,194.26L310.58,194.38L310.91,197.88L311.24,196.22L311.57,196.33L312.24,201.61L312.57,200.43L312.9,198.71L314.22,203.48L314.56,206.43L315.55,196.07L315.88,197.09L316.88,201.28L317.21,201.16L318.87,207.67L319.2,207.94L319.86,199.42L320.19,201.38L320.52,203.9L320.85,206.75L321.52,206.44L321.85,206.42L322.18,203.96L322.51,205.54L322.84,208.39L323.17,208.14L323.51,209.56L323.84,208.84L324.17,210.87L324.5,210.75L324.83,211.87L325.49,212.52L325.83,214.39L326.49,217.25L326.82,212.41L327.48,218.19L327.81,222.99L330.13,215.26L330.47,217.42L331.46,214.67L331.79,215.84L332.12,216.36L332.46,213.06L332.79,215.73L333.12,214.87L333.45,211.04L334.11,207.47L334.44,210.11L334.78,214.08L335.11,212.54L335.44,211.15L335.77,211.84L336.1,208.63L336.43,209.32L336.76,212.19L337.43,213.22L337.76,211.11L338.09,211.3L338.42,207.87L339.75,214.55L340.08,213.39L340.74,214.81L341.07,213.21L341.74,218.1L342.07,216.99L342.4,216.5L343.06,212.35L343.39,213.68L343.72,214.28L345.38,211.27L345.71,212.62L346.04,214.64L346.71,214.15L347.04,214.76L347.7,210.31L348.03,211.45L348.37,213.09L348.7,213.33L349.03,212.62L350.35,217.77L350.69,221.14L351.68,222.55L352.01,219.55L353.67,223.5L354,219.97L354.33,214.9L354.66,214.99L354.99,216.78L355.99,222.22L356.32,220.87L356.98,218.51L357.31,219.44L357.65,219.8L358.31,220.22L358.64,217.92L359.97,221.49L360.3,230.56L360.63,230.5L360.96,217.94L361.62,209.6L361.96,211L362.29,210.62L362.62,203.3L362.95,210.53L363.28,209.91L363.61,211.41L364.28,211.03L364.61,210.96L365.27,210.55L365.6,209.25L366.26,198.49L366.6,203.16L366.93,203.92L367.92,204.89L368.25,196.53L368.58,194.5L368.92,195.15L369.25,197.1L369.58,197.28L369.91,195.81L370.24,196.05L370.57,195.17L370.9,191.77L371.24,193.94L371.57,195.95L372.56,196.32L372.89,197.91L373.56,197.17L373.89,197.99L374.22,198.1L374.55,199.3L374.88,198.84L375.21,195.71L375.54,193.78L375.88,195.37L376.21,196.98L376.54,196.96L376.87,198.1L377.2,198.6L377.53,196.08L377.87,195.19L378.2,195.41L378.53,199.27L379.19,202.41L379.52,199.36L379.85,199.82L380.19,198.55L380.85,200.74L381.18,199.87L381.51,198.89L381.84,200.23L382.17,197.21L382.51,196.81L382.84,198.86L383.83,199.86L384.16,198.43L384.83,192.18L385.16,194.2L385.49,194.96L385.82,190.16L386.15,192.95L386.48,192.59L387.15,190.4L387.48,194.19L388.47,192.82L388.8,193.61L389.8,205.27L390.13,202.03L390.46,201.16L390.79,195.5L391.12,196.87L391.46,191.9L391.79,192.41L392.12,191.85L392.45,194.16L392.78,193.13L393.11,195.81L394.77,192.33L395.1,193.23L395.43,196.07L395.76,194.5L396.1,188.74L396.76,191.59L397.09,189.97L398.08,192.84L398.42,189.79L399.41,194.01L399.74,193.28L400.4,192.72L400.74,195.79L401.07,193.3L401.4,193.92L401.73,195.77L402.06,199.26L402.39,189.95L402.72,189.75L403.06,187.02L403.39,188.81L403.72,188.35L404.05,186.07L404.71,184.73L405.04,185.33L405.38,186.43L405.71,185.65L406.04,187.25L406.37,183.09L406.7,183.54L407.03,184.39L407.7,189.24L408.03,186.91L408.36,187.5L408.69,190.19L409.02,189.75L409.35,186.59L411.01,193.25L411.34,192.86L412.01,193.84L412.34,191.83L413,193.77L413.33,188.32L413.99,185.87L414.33,191.55L414.99,191.89L415.32,192.75L416.31,196.85L416.65,193.86L416.98,195.04L417.31,191.33L417.64,194.1L417.97,192.98L418.3,191.4L418.97,194.55L419.3,193.18L419.63,193.69L419.96,193.74L420.29,192.58L420.96,192.17L421.29,189.36L421.62,186.78L421.95,186.95L422.28,188.04L422.61,184.89L422.94,187.41L423.28,186.95L423.61,188.29L423.94,186.44L424.27,186.85L424.6,185.99L424.93,187.79L425.26,186.61L425.6,182.71L427.25,189.3L427.58,188.45L428.25,189.05L428.58,187.73L429.57,187.94L429.9,189.81L430.57,187.97L430.9,194.98L431.89,200.87L432.22,199.23L432.56,199.76L432.89,198.78L433.88,204.08L434.21,202.48L434.54,202.19L434.88,205.81L435.21,205.09L435.54,200.65L435.87,200.4L436.2,203.51L436.87,199.62L437.2,200.19L437.53,201.46L438.19,201.16L438.52,201.99L439.19,199.07L439.52,201.85L440.18,199.94L440.51,200.46L440.84,201.94L441.17,200.96L441.51,202.24L441.84,203.43L442.17,203.13L442.5,198.01L442.83,201.22L443.49,200.62L443.83,202.28L445.15,198.46L445.48,198.78L445.81,199.14L446.15,200.75L446.48,199.96L446.81,198.63L447.14,199.67L447.47,199.17L447.8,198.73L448.13,199.53L448.47,197.94L448.8,197.85L449.13,201.32L449.79,199.06L450.12,199.84L450.46,200.44L452.11,195.46L452.44,200.26L452.78,203.15L453.11,202.48L453.44,200.05L454.43,195.34L454.76,196.09L455.76,198.71L456.09,199.39L456.42,201.17L456.75,198.42L457.42,197.52L457.75,196.03L458.41,198.24L458.74,197.28L459.07,195.4L459.74,194.17L460.07,196.49L460.4,197.65L460.73,196.35L461.06,197.16L462.06,192.99L462.39,194.36L462.72,194.49L463.05,195.64L463.38,193.23L463.71,193.59L464.04,195.64L464.71,198.62L465.04,199.52L466.03,196.06L466.37,197.33L466.7,197.88L467.36,198.14L467.69,203.61L468.35,193.98L468.69,195.95L469.02,192.69L470.01,196.43L470.34,195.34L471.01,196.94L471.34,194.73L471.67,194.95L472,196.5" style="vector-effect: non-scaling-stroke; fill: none; stroke: rgb(0, 204, 150); stroke-opacity: 1; stroke-width: 2px; opacity: 1;"/></g><g class="points"/><g class="text"/></g><g class="trace scatter trace00b5a4" style="stroke-miterlimit: 2; opacity: 1;"><g class="fills"/><g class="errorbars"/><g class="lines"><path class="js-line" d="M0,83.38L0.99,103.55L1.33,105.32L2.32,96.22L2.65,105.89L3.31,109.44L3.65,107.26L4.64,95.55L4.97,106.11L5.3,107.04L5.63,106.81L5.97,105.91L6.63,93.5L6.96,93.76L7.29,102.54L7.62,104.37L7.96,100.66L8.29,102.19L8.62,95.06L9.28,89L9.61,98.37L9.94,99.52L10.28,99.32L10.61,98.29L10.94,96.55L11.27,90.51L11.6,89.68L11.93,96.95L12.93,99.84L13.26,96.29L13.59,90.64L13.92,92.95L14.25,102.83L14.58,113.81L14.92,106.99L15.25,99.94L15.91,85.47L16.24,88.97L16.57,97.63L17.24,100.78L17.57,99.03L17.9,91.19L18.23,87.59L18.56,89.57L18.89,100.3L20.22,95.25L20.55,91.66L20.88,91.28L21.21,101.05L21.54,102.69L21.88,101.8L22.21,100.44L22.54,97.74L22.87,88.28L23.2,89.08L23.53,101.62L23.87,102.89L24.2,100.28L24.53,99.29L24.86,93.83L25.52,79.33L25.85,85.97L26.19,86.11L26.85,85.31L27.18,81.92L27.51,76.74L27.84,78.31L28.17,84.59L28.51,84.55L28.84,85.63L29.17,84.16L29.5,78.69L29.83,72.45L30.16,72.73L30.49,82.45L31.49,78.29L31.82,80.62L32.15,72.42L32.48,72.46L32.81,79.99L33.81,71.58L34.47,71.69L34.8,73.71L35.8,79.53L36.13,78.05L36.46,80.1L36.79,72.22L37.12,72.71L37.46,79.87L38.45,75.54L38.78,75.86L39.11,67.64L39.44,66.01L39.78,71.59L40.11,76.8L40.44,76L40.77,73.88L41.76,63.8L42.1,75.1L42.43,74.41L42.76,74.76L43.09,75.93L43.42,77.26L43.75,72.48L44.08,70.75L44.42,76.32L44.75,76.1L45.08,74.86L45.41,81.68L45.74,73.25L46.07,66.06L46.4,65.16L46.74,73.49L47.07,73.24L47.4,74.06L48.72,60.73L49.06,66.62L50.05,64.21L50.71,59.54L51.04,59.81L51.38,69.4L51.71,69.34L52.04,67.92L52.37,68.84L52.7,67.32L53.37,59.04L53.7,68.32L54.03,70.29L54.36,68.19L54.69,66.41L55.02,66.39L55.35,58.95L55.69,59.26L56.02,67.93L56.35,67.87L56.68,69.11L57.34,67.59L57.67,58.78L58.01,54.87L58.34,64.93L59,63.7L59.33,60.4L60.33,52.56L60.66,61.39L61.32,63.21L61.65,62.5L61.98,57.93L62.65,49.38L62.98,58.13L63.31,61.31L63.64,60.71L63.97,57.48L64.3,56.74L64.63,49.08L64.97,48.82L65.3,58.67L66.29,62.82L66.62,82.24L67.29,59.64L67.62,70.05L69.61,50.85L69.94,58.85L70.93,57.4L71.26,55.31L71.93,48L72.26,57.12L72.59,59.83L72.92,57.66L73.25,57.33L73.92,47.6L74.25,47.65L74.58,56.31L75.9,51.66L76.24,47.29L76.57,46.82L76.9,53.84L77.23,58.12L77.56,55.37L77.89,55.3L78.56,49.41L78.89,49.88L79.22,58.91L79.55,59.31L79.88,58.27L80.21,57.59L80.54,51.28L81.21,48.21L81.54,55.25L82.87,58.27L83.2,51.42L83.86,60.62L84.19,59.51L84.52,58.16L85.85,52.65L86.18,62.89L86.51,62.92L86.84,60.2L87.17,60.53L87.51,58.3L87.84,53.6L88.17,54.15L88.5,63.83L89.49,61.92L89.83,63.64L90.49,56.56L90.82,68.21L91.15,72.81L91.48,65.04L91.81,66.42L92.15,59.9L92.48,55.09L92.81,55.65L93.14,70.27L93.8,69.33L94.13,66.29L95.13,54.94L95.46,64.57L96.12,71.24L96.46,68.97L96.79,59.81L97.12,54.57L97.45,54.94L97.78,68.74L99.11,57.31L99.44,50.69L99.77,52.63L100.1,64.11L101.1,59.74L101.43,59.62L102.09,55.7L102.42,63.01L103.08,62.67L103.42,64.56L103.75,57.18L104.08,52.78L104.41,54.71L104.74,61.82L105.4,64.18L105.74,63.49L106.07,62.29L106.4,54.04L106.73,56.99L107.06,65.41L108.06,63.87L108.39,59.62L108.72,59.58L109.05,62.25L110.04,66.55L110.38,63.62L110.71,63.96L111.04,65.75L111.37,64.5L111.7,71.17L112.03,71.46L112.37,70.51L113.03,64.53L113.36,64.6L113.69,67.77L114.02,72.8L114.35,72.22L114.69,70.04L115.35,63.94L115.68,64.26L116.01,66.45L116.67,71.31L117.01,70.79L117.34,71.12L117.67,68.39L118,71.85L118.33,90.96L118.66,115.4L118.99,64.1L119.99,45.43L120.32,41.95L120.65,38.67L120.98,41.26L121.31,45.62L121.65,55.09L122.31,54.12L122.64,46.92L122.97,48.52L123.3,61.65L124.3,56.19L124.63,59.87L125.29,50.98L125.62,66.4L125.96,70.99L126.29,64.78L126.95,60.47L127.28,52.43L127.61,48.36L127.94,62.32L128.28,64.23L128.61,60.58L128.94,61.17L129.27,53.83L129.93,40.65L130.26,56.44L130.6,59.85L130.93,58.67L131.26,57.01L132.25,41.08L132.58,53.62L133.25,53.35L133.58,54.83L133.91,53.78L134.57,42.91L134.9,56.75L135.24,56.96L135.57,64.62L136.56,40.96L136.89,43.45L137.22,54.02L137.89,56.42L138.22,53.47L138.88,42L139.21,43.22L139.54,54.54L140.54,48.13L140.87,51.16L141.2,40.85L141.53,41.21L141.87,55.15L142.2,56.19L142.53,53.76L142.86,53.88L143.19,44.24L143.52,38.03L143.85,39.56L144.19,50.34L144.52,53.98L144.85,53.43L145.18,52.81L146.17,37.37L146.51,45.65L146.84,45.76L147.17,44.54L147.5,46.48L147.83,38.02L148.49,31.29L148.83,38.89L149.49,37.89L149.82,34.44L151.15,51.5L151.48,51.73L151.81,52.51L152.14,50.04L153.13,32.55L153.47,42.99L154.46,41.16L154.79,35.13L155.12,28.27L155.46,30.12L155.79,39.36L156.12,39.87L156.45,39.01L156.78,42.34L157.11,47.06L157.44,45L157.78,42.92L158.11,52.13L158.77,49.94L159.1,48.2L159.76,38.61L160.1,39.74L160.43,49.37L160.76,47.42L161.09,52.79L161.42,53.33L161.75,43.57L162.42,39.08L162.75,50.84L163.41,47.83L163.74,48.67L164.07,45.72L164.74,35.02L165.07,47.7L165.73,50.04L166.06,46.49L166.39,45.37L166.72,38.76L167.72,52.52L168.05,52.08L168.38,51.37L169.04,48.79L169.38,46.15L169.71,53.7L170.37,52.09L170.7,50.16L171.03,51.05L171.37,47.87L171.7,48.09L172.03,58.47L172.36,58.68L172.69,55.98L173.02,57.24L173.35,51.96L174.02,46.46L174.35,58.66L175.34,55.7L175.67,51.54L176.34,48.41L176.67,58.33L177.66,51.26L177.99,52.16L178.33,45.99L178.66,46.36L178.99,58.4L180.31,47.83L180.65,39.81L180.98,36.28L181.31,46.08L181.64,46.04L181.97,48.38L182.3,49.68L182.63,42.61L182.97,38.37L183.3,39.09L183.63,47.56L183.96,48.67L184.29,46.55L184.62,46.27L184.96,42.05L185.62,35.49L185.95,47.59L186.94,45.14L187.28,43.55L187.94,37.95L188.27,45.35L188.6,42.78L188.93,46.34L189.26,44.98L189.6,45.4L189.93,40.24L190.26,40.36L190.59,46.16L190.92,45.24L191.25,45.69L191.58,46.99L191.92,46.14L192.25,42.45L192.58,43.28L192.91,49.69L193.24,51.41L193.57,50.48L193.9,50.64L194.57,42.09L194.9,42.66L195.23,46.59L195.56,47.15L195.89,43.5L196.22,47.44L196.56,42.46L196.89,39.39L197.22,39.82L197.55,44.4L197.88,44.34L198.21,45.93L198.54,46.36L198.88,43.93L199.21,37.2L199.54,38.01L199.87,43.96L200.2,45.55L200.53,44.06L200.87,43.19L201.86,34L202.19,41.37L203.52,39.7L203.85,34.26L204.18,33.22L204.51,42.74L204.84,38.66L205.51,38.94L205.84,37.48L206.17,31.64L206.5,37.11L206.83,42.62L207.49,40.77L207.83,38.22L208.16,36.76L208.49,29.3L209.48,43.49L209.81,42.06L210.15,41.07L210.81,29.2L211.14,30.36L211.47,41.28L211.8,40.08L212.13,42.73L213.46,31.56L213.79,43.4L214.12,43.75L214.46,42.04L215.45,23.74L215.78,25.97L216.11,35.99L217.11,41.29L217.44,30.79L217.77,26.92L218.1,28.24L218.43,37.11L219.1,35.22L219.43,33.76L220.09,29.21L220.42,31.83L220.75,41.43L221.42,41.2L221.75,39.58L222.41,31.65L222.74,37.43L223.74,50.07L224.07,47.64L224.4,48.96L224.73,45.91L225.06,44.71L225.39,57.44L226.39,53.35L226.72,48.47L227.05,40.92L227.38,43.26L227.71,52.96L228.04,53.12L228.38,54.16L229.37,47.12L229.7,48.6L230.03,59.04L231.36,43.49L231.69,44.15L232.02,49L232.35,49.85L232.69,49.7L233.02,48.46L233.35,50.25L233.68,41.81L234.34,52.84L234.67,49.75L235.01,48.83L236,39.12L236.33,43.6L237.33,48.41L237.66,47.35L237.99,48.99L238.32,44.71L238.98,56.32L239.31,82.86L239.65,114.07L239.98,42.88L240.97,20.74L241.3,21.93L241.97,23.33L242.3,29.87L242.63,28.54L242.96,31.4L243.62,22.84L243.96,32.33L244.29,29.91L244.62,31.11L244.95,33.05L245.94,22.53L246.28,32.94L246.61,29.82L246.94,30.2L247.27,31.67L247.93,19.33L248.26,21.13L248.6,31.76L248.93,34.74L249.26,31.52L249.59,30.53L249.92,28.74L250.25,22.74L250.58,22.03L250.92,35.37L252.57,25.19L252.9,25.56L254.23,36.84L254.56,35.56L254.89,31.57L255.22,33.83L255.56,42.34L255.89,42.59L256.22,42.09L256.55,45.69L257.54,25.7L257.88,37.52L258.21,34.45L258.54,35.41L258.87,35.78L259.53,21.99L259.87,26.13L260.2,33.32L260.53,33.73L260.86,31.17L261.19,32.87L261.52,26.98L261.85,21.11L262.19,24.98L262.52,30.8L262.85,30.37L263.18,31.4L263.84,32.27L264.17,25.12L264.51,24.59L264.84,33.71L265.5,33.43L265.83,31.4L266.49,20.91L266.83,22.61L267.16,29.16L268.15,34.26L268.48,30.56L268.81,22.77L269.15,27.12L269.48,35.85L269.81,32.99L270.14,36.63L270.47,34.33L270.8,37.39L271.13,33.59L271.47,32.79L271.8,43.97L272.46,43.23L272.79,38.82L273.46,25.11L273.79,28.96L274.12,37.79L274.45,38.98L274.78,38.2L275.11,37.07L275.44,45.02L275.78,37.95L276.11,35.72L276.44,41.23L276.77,39.09L277.1,35.2L278.1,30.08L278.43,32.52L279.09,39.35L279.42,37.39L279.75,33.89L280.42,20.22L280.75,23.47L281.08,30.21L281.74,30.31L282.07,32.82L282.74,24.61L283.07,29.51L283.4,32.83L283.73,31.52L284.06,34.16L284.72,31.49L285.06,27.91L285.72,34.7L286.05,34.41L286.38,32.33L286.71,32.06L287.04,35.24L287.38,30.52L287.71,32.61L288.04,35.8L289.03,39.03L289.37,27.61L289.7,26.32L290.03,31.03L290.36,34.37L290.69,33.75L291.02,33.27L292.02,20.06L292.35,24.62L293.01,33.62L293.34,30.12L293.67,29.97L294.34,23.72L294.67,27.36L295,29.89L295.99,31.04L296.33,20.75L296.66,20.22L296.99,23.74L297.98,29.68L298.31,26.74L298.98,18.4L299.31,22.61L300.3,28.13L300.63,27.25L300.97,27.83L301.3,25.71L301.63,26.8L301.96,32.1L302.29,27.78L302.96,28.78L303.29,29.7L303.62,26.47L303.95,29.29L304.28,33.56L305.28,36.23L305.61,29.8L306.27,24.66L306.6,31.71L306.93,32.6L307.26,32.06L307.6,31.83L307.93,31.83L308.26,27.03L308.59,27.75L308.92,35.47L309.58,37.92L309.92,35.96L310.58,28.31L310.91,29.09L311.24,34.7L311.57,33.67L311.9,35.48L312.57,44.55L312.9,39.95L313.23,37.16L313.56,41.93L314.89,43.87L315.22,35.64L315.55,34.46L315.88,39.43L316.54,39.91L316.88,37.26L317.87,29.9L318.2,37.41L318.53,37.24L318.87,38.02L319.2,49.35L319.53,45.99L319.86,34.78L320.19,31.52L320.52,56.31L320.85,58.74L321.19,54.94L321.52,44.2L321.85,54.6L322.18,53.15L322.51,54.45L322.84,60.03L323.17,56.98L323.51,44.93L323.84,37.13L324.17,45.71L324.5,38.08L324.83,44.48L325.16,54.57L325.49,49.26L325.83,45.66L326.49,43.36L326.82,33.66L327.15,36.4L327.48,46.68L329.47,30.02L329.8,38.22L330.13,37.86L330.47,38.88L331.13,31.64L331.46,33.36L331.79,56.3L334.11,36.4L334.44,45.79L335.11,42.6L335.44,43.68L335.77,41.49L336.1,35.58L336.43,39.39L336.76,46.03L338.42,31.46L338.75,33.58L339.08,42.14L339.42,42.25L339.75,44.14L340.41,51.02L340.74,41.07L341.07,39.78L341.4,51.25L341.74,53.01L342.07,51.54L342.4,49.24L343.39,40.25L343.72,46.4L344.39,48.47L344.72,48.17L345.05,44.75L345.71,38.72L346.04,47.9L346.38,49.15L346.71,48.2L347.04,46.08L347.37,44.73L347.7,38.35L348.7,47.21L349.03,44.76L350.02,35.13L350.35,38.03L351.35,46.12L351.68,47.99L352.01,42.51L352.34,44.79L352.67,51.04L353.67,55.63L354,47.12L354.66,46.11L354.99,47.84L355.33,52.89L355.66,49.06L355.99,50.73L356.32,50.91L356.65,55.08L357.31,51.58L357.65,56.3L358.64,52.7L358.97,51.84L359.63,54.29L359.97,63.2L360.63,109.97L360.96,46.39L361.96,29.62L362.29,32.45L362.95,28.6L363.28,35.26L363.61,34.22L363.94,29.15L364.28,28.72L364.61,34.45L365.27,39.17L365.6,38.54L365.93,29.83L366.26,26.52L366.6,27.28L366.93,34.99L368.92,26.41L369.25,33.61L369.58,32.93L369.91,34.55L370.24,34.02L370.57,27.21L370.9,22.92L371.24,24.08L371.57,39.42L373.56,29.63L373.89,34.11L374.22,36.62L374.55,33.6L374.88,35.73L375.54,29.18L375.88,31.67L376.21,36.68L376.54,36.44L376.87,33.2L377.2,34.94L377.53,43.24L378.2,35.95L378.53,41.11L379.19,42.97L379.52,41.54L379.85,44.53L380.19,36.73L380.52,37.4L380.85,40.3L382.17,33.63L382.51,24.93L383.5,32.31L383.83,30.74L384.83,21.66L385.16,24.98L385.49,29.7L385.82,30.4L386.15,27.78L386.81,24.68L387.15,19.74L387.48,20.33L387.81,27.61L388.47,28.41L388.8,30.41L389.8,52.02L390.13,53.01L391.79,36.36L392.12,35.48L392.45,38.44L392.78,37.61L393.11,36.65L393.44,34.92L393.78,38.93L394.44,35.27L394.77,37L395.76,32.21L396.1,34.6L396.76,29.75L397.09,30.89L397.42,27.79L398.42,31.37L398.75,29.24L399.08,32.37L399.41,31.68L399.74,31.46L400.07,30.99L400.4,31.98L401.4,32.34L401.73,33.49L402.72,31.85L403.06,32.45L403.39,30.68L403.72,31.31L404.05,31.79L406.7,21.06L407.03,21.55L407.37,23.51L407.7,19.24L408.03,22.45L408.36,23.57L408.69,25.15L409.02,22.09L409.35,23.02L409.69,21.03L410.68,25.53L411.01,25.19L411.34,22.37L411.67,23.47L412.01,23.97L412.34,38.91L412.67,35.47L413,32L413.99,24.11L414.33,27.04L414.99,25.22L415.32,26.63L415.65,27.01L415.98,25.73L416.31,25.8L416.65,27.07L417.64,29.65L417.97,27.4L418.3,27.31L418.63,29L419.63,30.37L419.96,33.13L421.95,24.74L422.28,27.48L422.94,27.28L423.28,29.24L423.61,28.92L423.94,26.67L424.6,29.97L424.93,28.53L425.26,27.08L425.6,26.1L425.93,26.24L426.26,29.4L426.59,26.93L426.92,28.59L427.25,29.53L427.58,31.62L427.92,30.97L428.25,30.06L428.58,29.62L428.91,25.15L429.24,28.96L429.9,28.78L430.24,29.89L430.9,45.92L431.23,37.45L431.56,38.76L431.89,37.07L432.22,34.16L432.89,33.66L433.22,37.71L433.88,34.39L434.21,38.46L434.88,36.13L435.21,37.24L435.87,30.26L436.2,33.07L436.53,35.92L437.2,32.93L437.53,35.42L437.86,35.46L438.19,31.52L438.52,35.56L438.85,34.97L439.19,33.35L439.52,34.4L439.85,32.41L440.51,28.83L440.84,31.26L442.17,35.52L442.5,31.52L442.83,30.68L443.16,31.67L443.49,33.63L444.16,36.26L444.49,35.85L444.82,41.94L445.48,34L445.81,35.45L446.15,32.9L447.14,30.46L447.47,30.89L447.8,32.23L448.8,40.82L449.13,35.22L449.79,30.07L450.12,33.28L450.46,31.46L450.79,33.07L451.12,33.94L451.45,33.63L451.78,37.14L452.11,34.59L452.44,34.8L452.78,38.29L454.1,42.04L454.43,39.56L455.76,43.27L456.09,41.2L456.75,36.35L457.08,36.75L457.42,42.7L458.74,34.28L459.07,34.43L459.4,36.22L460.4,43.58L460.73,38.18L461.06,39.91L461.39,35.21L461.72,36.12L462.06,42.12L462.39,43.32L462.72,42.31L463.05,41.21L463.38,44.63L463.71,38.48L464.04,36.73L464.38,45.37L465.7,41L466.03,36.92L467.36,45.14L467.69,44.14L468.02,42.2L468.69,40.83L469.02,46.22L469.68,47.18L470.01,45.44L470.34,45.68L470.67,43.39L471.34,51.25L471.67,50.31L472,51.57" style="vector-effect: non-scaling-stroke; fill: none; stroke: rgb(171, 99, 250); stroke-opacity: 1; stroke-width: 2px; opacity: 1;"/></g><g class="points"/><g class="text"/></g><g class="trace scatter tracec7e727" style="stroke-miterlimit: 2; opacity: 1;"><g class="fills"/><g class="errorbars"/><g class="lines"><path class="js-line" d="M0,72.53L0.99,91.77L1.33,91.06L1.66,90.87L1.99,85.57L2.32,86.29L2.65,92.51L2.98,94.79L3.31,92.48L3.65,92.59L4.31,86.53L4.64,86.64L4.97,90.71L6.3,87.76L6.63,81.59L6.96,83.31L7.29,90.03L8.29,94.22L8.62,91.17L8.95,82.6L9.28,82.78L9.61,95.38L11.27,81.72L11.6,82.26L12.6,93.18L12.93,93.21L13.26,91.69L13.59,85.21L13.92,85.56L14.25,95.6L14.58,98L14.92,96.22L15.25,94.58L15.91,84.51L16.24,85.11L16.57,93.77L16.9,94.56L17.24,99.26L17.57,97.68L17.9,87.77L18.23,78.99L18.56,80.04L18.89,87.3L19.22,88.99L19.56,94.66L19.89,95.32L20.22,92.13L20.55,85.47L20.88,86.57L21.21,96.51L22.21,96.47L22.54,100.83L22.87,87.9L23.2,88.51L23.53,103.65L24.2,100.8L24.53,96.16L25.52,80.38L25.85,89.26L26.19,88.24L26.52,91.14L26.85,90.08L27.18,82.13L27.51,78.99L27.84,79.6L28.17,91.45L28.51,87.11L28.84,87.98L29.17,88.33L29.83,76.34L30.16,76.38L30.49,91.63L32.15,75.06L32.48,76.86L32.81,86.53L33.15,84.94L33.48,83.37L34.47,71.6L34.8,73.9L35.8,82.04L36.13,80.74L36.79,72.74L37.12,73.14L37.46,80.45L37.79,79.26L38.12,80.45L38.45,75.82L39.44,69.69L39.78,73.96L40.44,81.81L40.77,78.5L41.43,62.54L41.76,64.88L42.1,76.73L43.42,82.46L43.75,73.33L44.08,74.65L44.42,82.59L45.08,80.4L45.41,89.95L46.07,66.36L46.4,71.17L46.74,79.3L47.07,80.61L47.4,77.57L47.73,75.85L48.06,69.78L48.39,67.04L48.72,69.47L49.06,78.81L50.05,76.22L50.71,68.68L51.04,69.47L51.38,80.79L52.37,79.82L52.7,74.45L53.03,66.68L53.37,67.98L53.7,78.3L54.36,79.17L54.69,75.8L55.35,63.36L55.69,64.97L56.02,72.38L56.35,73.33L56.68,72.58L57.01,72.19L57.34,69.88L57.67,60.93L58.67,73.49L59,69.69L59.99,62.7L60.33,63.55L60.66,70.25L61.98,67.65L62.31,62.56L62.65,63.31L62.98,70.62L63.31,71.53L63.64,71.11L63.97,67.47L64.3,66.43L64.63,61.59L64.97,61.91L65.3,70.38L65.96,66.48L66.29,67.71L66.62,80.45L67.29,66.23L67.62,69.78L67.95,70.15L68.61,66.93L68.94,61.98L69.28,59.21L69.61,60.71L69.94,69.69L70.93,68.07L71.26,63.7L71.93,59.77L72.26,66.27L72.59,70.35L72.92,68.73L73.25,64.95L74.25,55.8L74.58,64.02L74.91,61.91L75.24,65.1L76.57,56.78L76.9,63.34L77.56,66.18L77.89,62.86L78.89,56.96L79.22,62.62L79.88,66.89L80.21,63L80.88,56.7L81.21,58.02L81.54,65.81L81.87,66.27L82.2,65.2L82.53,65.53L82.87,64.66L83.53,64.16L83.86,68.56L84.19,68.61L84.52,67.54L84.85,65.83L85.19,69.74L85.52,66.63L85.85,67.14L86.18,78.58L87.51,67.58L87.84,65.64L88.17,66.42L88.5,73.8L89.16,75.7L89.49,73.19L89.83,75.4L90.16,73.45L90.49,69.16L91.15,83.73L91.48,80.09L91.81,78.53L92.81,68.05L93.14,79.06L93.47,79.56L93.8,79.28L94.13,77.62L94.8,66.56L95.13,68.57L95.46,73.02L95.79,79.21L96.12,78.95L96.46,75.61L97.12,65.32L97.45,66.99L97.78,76.76L98.78,73.04L99.11,69.03L99.77,62.73L100.1,70.97L100.76,66.6L101.1,69.27L102.09,58.79L102.42,69.57L103.08,69.12L103.42,68.3L104.08,57.32L104.41,57.54L104.74,66.92L105.07,68.65L105.4,68.39L105.74,66.67L106.07,66.42L106.4,59.1L106.73,56.89L107.06,64.08L107.39,67.5L107.72,66.03L108.06,63.44L109.05,50.63L109.38,60.1L111.04,48.25L111.37,48.8L111.7,59.58L113.36,46.96L113.69,48.9L114.02,55.46L114.35,56.51L114.69,55.3L115.02,51.72L115.68,44.54L116.01,46.29L116.34,51.5L117.01,52.65L117.34,47.74L118,43.74L118.33,53.97L118.66,72.24L118.99,48.86L119.66,47.37L119.99,45.21L120.98,41.31L121.31,51.45L121.65,51.8L121.98,49.53L122.64,44.08L122.97,45.07L123.3,49.93L123.63,55.79L123.97,52.98L124.3,50.53L124.63,52.69L124.96,46.25L125.29,47.03L125.62,55.82L125.96,57.29L126.29,55.54L126.62,50.66L127.28,42.92L127.61,43.87L127.94,50.25L128.28,50.64L128.61,52.34L129.6,41.9L129.93,44.07L130.26,51.08L131.26,49.98L131.59,46.56L132.25,42.98L132.58,49.39L133.25,50.44L133.58,46.64L133.91,49.26L134.24,41.26L134.57,39.87L134.9,45.65L135.57,56.01L135.9,54.59L136.23,47.57L136.56,41.44L136.89,42.48L137.22,55.83L139.21,45.08L139.54,54.32L140.54,51.65L140.87,47.44L141.53,42.42L141.87,56.68L142.86,52.28L143.19,47.92L143.52,43.38L143.85,46.27L144.19,54.25L144.52,56.61L144.85,55.26L145.18,51.38L146.17,38.01L146.51,53.15L147.17,56.35L147.5,53.46L148.49,39.44L148.83,53.16L149.82,45.71L150.15,50.12L150.48,49.29L150.81,51.03L151.48,57.91L151.81,56.01L152.8,37L153.13,37.09L153.47,48.98L153.8,47.04L154.13,49.14L154.46,48.6L155.46,25.94L155.79,44.64L156.12,45.93L156.45,45.11L156.78,43.6L157.11,46.99L157.44,44.15L157.78,43.25L158.11,53.06L158.77,51.54L159.1,49.28L160.1,36.31L160.43,43.05L160.76,39.79L161.09,47.36L161.42,46.85L161.75,43.12L162.08,35.55L162.42,36.6L162.75,47.79L163.74,41.26L164.07,50.6L164.74,36.15L165.07,45.15L165.4,44.78L165.73,46.83L166.06,44.44L166.39,50.37L166.72,42.83L167.06,43.92L167.39,54.6L168.05,55.06L168.38,52.57L169.04,43.1L169.38,43.49L169.71,54.66L170.04,54.91L170.37,54.27L170.7,51.26L171.37,42.32L171.7,44.45L172.03,55.08L173.02,52.91L173.35,47.17L173.69,42.99L174.02,43.51L174.35,54.7L175.01,57.11L175.34,54.37L176.01,39.56L176.34,40.69L176.67,51L178.33,36.59L178.66,37.65L178.99,49.9L179.65,47.15L179.98,45.52L180.98,31.11L181.31,43.67L181.97,47.4L182.3,46.02L182.97,36.4L183.3,37.21L183.63,49.19L183.96,49.28L184.29,47.37L184.96,44.68L185.29,37.7L185.62,33.85L185.95,49.96L186.61,45.69L186.94,48.73L187.94,38.13L188.27,49.15L189.26,45.59L189.6,47.42L190.26,36.78L190.59,47.43L191.58,48.17L191.92,46.79L192.58,39.18L192.91,49.72L193.57,52.98L193.9,51.73L194.9,42.58L195.23,51.39L195.56,52.78L195.89,47.65L196.22,49.67L196.56,43.62L197.22,37.1L197.55,48.33L198.21,49.57L198.54,47.48L198.88,49.64L199.21,38.64L199.54,36.96L199.87,51.12L200.2,50.74L200.53,49.21L200.87,48.6L201.2,43.56L201.86,38.4L202.19,46.47L202.52,47.88L202.85,47.76L203.19,47.06L203.85,37.78L204.18,38.42L204.51,45.92L205.17,46L205.51,47.3L206.17,37.99L206.5,41.01L206.83,52.9L207.16,53.48L207.49,47.98L208.82,36.48L209.15,45.84L209.48,49.68L210.15,49.33L210.48,43.79L210.81,35.27L211.14,36.55L211.47,46.3L211.8,47.9L212.13,46.01L212.47,45.55L213.46,37.36L213.79,45.58L214.12,47.93L214.46,45.61L214.79,42.44L215.12,42.5L215.45,35.78L215.78,36.33L216.11,45.45L217.11,47.67L217.44,43.11L217.77,38.29L218.1,40.89L218.43,48.46L218.76,47.86L219.1,48.18L219.43,45.91L220.09,36.1L220.42,37.66L220.75,47.9L222.08,39.32L222.41,40.1L222.74,43.66L223.74,53.37L224.07,52.14L224.73,41.21L225.06,41.69L225.39,56.22L225.72,57.16L226.06,54.07L227.05,41.8L227.38,42.52L227.71,51.56L228.38,53.44L228.71,53.28L229.04,50.18L229.37,43.44L229.7,44.17L230.03,58.24L230.37,57.89L230.7,55.03L231.03,53.52L231.36,44.17L231.69,41.26L232.02,44.07L232.35,52.49L233.35,43.54L233.68,36.28L234.34,34.35L234.67,42.5L235.01,43.07L235.34,39.7L235.67,41.01L236,33.52L236.33,29.48L236.66,30.7L236.99,36.87L237.33,37.72L237.66,35.51L238.32,28.81L238.65,29.49L238.98,31.82L239.65,73.88L239.98,31.2L240.31,30.42L240.64,26.96L240.97,26.48L241.3,27.28L241.63,27.48L241.97,34.64L242.63,33.86L242.96,31.17L243.29,26.92L243.62,27.37L243.96,35.22L244.29,33.17L244.62,35.08L244.95,34.67L245.61,23.95L245.94,25.95L246.28,34.26L246.61,35.69L246.94,32.39L247.27,34.26L247.6,30.91L247.93,25.35L248.26,26.63L248.6,34.61L248.93,32.12L249.26,35.39L250.25,25.45L250.58,27.72L250.92,35.49L251.58,36.92L251.91,34.93L252.57,27.68L252.9,30.6L253.24,38.32L253.57,38.15L253.9,39.92L254.23,38.81L254.56,39.12L254.89,34.36L255.22,34.89L255.56,43.37L255.89,43.64L256.22,41.42L256.55,41.46L256.88,35.01L257.21,29.43L257.54,31.03L257.88,37.21L258.21,39.48L258.54,38.13L258.87,37.05L259.53,28.86L259.87,31.65L260.53,44.03L260.86,41.31L261.19,38.18L261.85,26.49L262.19,26.65L262.52,29.11L263.51,37.57L263.84,33.39L264.17,28.64L264.51,29.51L264.84,39.6L265.5,40.41L265.83,38.43L266.49,28.21L266.83,29.43L267.16,37.51L268.48,36.73L268.81,32.75L269.15,34.27L269.48,41.35L269.81,45.55L270.14,44.34L270.47,41.42L270.8,41.2L271.13,33.16L271.47,34.31L271.8,43.61L273.46,30.67L273.79,33.37L274.12,40.39L274.45,38.42L274.78,38.59L275.11,39.79L275.44,51.73L275.78,48.43L276.11,47.38L276.44,53.12L276.77,48.85L277.1,48.74L278.1,41.84L278.43,43.49L278.76,49.33L279.09,47.29L279.42,45L280.08,37.59L280.42,34.16L281.08,41.73L281.41,38.78L281.74,39.52L282.07,40.49L282.4,33.81L282.74,33.64L283.07,35.13L284.06,42.08L284.39,40.33L285.39,28.04L285.72,40.59L286.38,41.09L287.04,30.62L287.38,26.7L288.37,39.59L288.7,38.78L289.03,39.13L289.7,22.03L290.03,26.32L290.36,35.99L290.69,35.7L291.02,34.1L291.35,34.54L291.69,25.2L292.02,20.98L292.35,23.92L292.68,32.03L293.01,33.82L293.34,32.55L293.67,27.12L294.34,21.43L294.67,25.33L295.33,34.88L295.66,33.04L295.99,32L296.66,20.83L296.99,26.41L297.65,33.92L297.98,31.33L298.31,27.13L298.98,20.22L299.31,23.14L299.64,30.31L300.3,33.09L300.63,30.53L301.3,24.93L301.63,27.22L301.96,34.46L302.29,37.25L302.62,34.66L302.96,34.66L303.62,27.4L303.95,30.22L304.28,37.58L304.94,36.36L305.28,36.47L305.61,28.54L305.94,25.65L306.27,29.61L306.93,35.52L307.26,34.92L307.6,34.16L308.59,30.7L308.92,38.53L309.58,42.31L309.92,40.14L310.58,29.91L310.91,30.79L311.24,37.96L312.57,34.77L312.9,35.71L313.23,35.17L313.56,43.96L313.89,42.25L314.22,46.38L314.89,40.41L315.22,42.67L315.55,45.15L315.88,45.82L316.21,45.32L316.54,44.54L317.54,32.37L317.87,34.17L318.2,42.09L318.53,43.79L318.87,40.83L319.53,34.7L319.86,29.37L320.19,32.26L320.52,42.27L321.85,36.95L322.18,33.38L322.51,35.16L322.84,41.58L323.51,38.22L323.84,38.42L324.17,35.4L324.5,31.45L324.83,39.12L325.16,43.99L325.49,41.03L325.83,38.39L327.15,30.44L327.48,38.87L327.81,40.67L328.15,50.02L329.14,29.51L329.47,32.38L329.8,39.1L330.8,35.47L331.13,28.35L331.46,26.13L331.79,38.21L332.12,40.75L332.46,38.32L332.79,36.22L333.12,38.08L333.45,33.14L333.78,30.37L334.11,34.23L334.44,39.29L334.78,37.35L335.11,36.29L336.1,31.77L336.43,35.84L337.1,40.01L337.43,38.53L337.76,36.28L338.42,26.79L338.75,30.07L339.08,38.56L339.42,35.57L339.75,38.12L340.08,36.52L340.41,37.6L340.74,35.97L341.07,35.51L341.4,40.19L341.74,39.84L342.07,38.02L342.73,30.54L343.06,31.44L343.39,36.13L344.39,38.01L344.72,34.29L345.38,29.46L345.71,33.15L346.71,33.61L347.04,31.9L347.7,26.81L348.03,30.86L348.37,32.98L348.7,30.71L349.03,29.18L350.02,23.29L350.35,27.21L351.35,33.55L351.68,30.99L352.01,27.62L352.34,27.83L352.67,31.21L353.34,31.55L353.67,29.68L354.66,25.89L354.99,31.48L355.66,29.87L355.99,17.94L356.65,37.98L356.98,29.94L357.31,32.45L357.65,33.92L357.98,33.24L358.31,31.39L359.3,26.99L359.63,32.17L359.97,30.6L360.3,36.82L360.63,73.9L360.96,29.2L361.29,28.74L362.29,30.47L362.62,27.62L362.95,39.34L363.28,35.04L363.61,29.61L363.94,29.55L364.28,30.94L364.61,30.42L364.94,31.85L365.6,29.43L365.93,26.13L366.93,32.86L367.26,32.22L367.59,31.37L367.92,31.27L368.25,30.18L368.58,27.34L368.92,28.81L369.25,31.01L370.24,30.32L370.57,28.23L370.9,25.66L371.24,27.85L371.57,37.65L372.23,37.94L372.56,38.41L373.22,29.99L373.56,33.2L373.89,36.75L374.88,33.44L375.21,34.05L375.54,28.8L375.88,33.28L376.21,38.99L376.54,38.12L376.87,39.5L377.87,32.8L378.2,34.51L378.86,40.55L379.19,39.04L379.52,39.14L379.85,47.19L380.19,39.88L380.52,37.74L380.85,37.29L381.18,38.93L381.51,40.04L381.84,39.37L382.17,38.84L382.84,29.38L383.17,36.41L384.16,33.08L384.49,31.87L384.83,27.89L385.16,28.2L385.49,32.55L386.48,30.84L386.81,27.96L387.15,24.49L387.48,25.73L387.81,25.85L388.47,29.55L388.8,28.38L389.13,41.9L389.47,42.77L389.8,42.57L390.13,37.29L390.46,36.5L390.79,32.72L391.12,31.03L391.46,31.63L391.79,32.86L392.12,34.21L392.45,33.01L392.78,33.26L393.11,30.85L393.44,32.04L393.78,33.77L394.44,39.33L394.77,35.14L395.76,32.69L396.1,35L396.43,34.22L396.76,35.11L397.09,31.4L397.75,28.93L398.08,30.67L398.42,31.11L398.75,34.72L399.08,36.57L399.41,31.28L399.74,31.59L400.07,31.09L400.4,30.14L400.74,29.28L401.07,26.32L402.06,28.32L402.39,27.99L403.06,28.83L403.39,27.78L403.72,29.86L404.05,26.2L405.38,23.61L405.71,26.4L406.04,26.98L406.37,21.52L406.7,22.23L407.03,21.73L407.37,21.86L408.36,26.03L408.69,23.95L409.02,22.91L409.35,23.62L409.69,24.34L410.02,34.4L410.35,25.93L410.68,25.4L411.01,27.42L411.34,25.3L411.67,26.59L412.01,24.77L412.34,32.1L413,24.58L413.33,25.69L413.66,23.7L414.33,25.84L414.66,23.71L414.99,21.5L415.32,23.94L415.65,26.12L415.98,24.84L416.65,25.05L416.98,25.99L417.31,25.4L417.64,26.8L417.97,28.66L418.3,26.39L418.63,28.07L418.97,28.62L419.3,25L419.63,26.12L419.96,30.83L420.29,16L420.62,27.44L420.96,25.14L421.29,24.76L421.62,22.82L421.95,22.65L422.28,25.42L422.94,26.1L423.28,24.46L424.27,22.64L424.6,24.11L424.93,23.03L425.26,25.94L426.26,22.33L426.59,22.94L426.92,24.2L427.58,26L427.92,24.95L428.25,24.05L428.58,24.31L428.91,22.52L429.57,24.06L429.9,21.4L430.24,23.04L430.57,31.8L430.9,38.07L431.23,33.11L431.56,30.49L432.89,28.56L433.22,29.87L433.88,30.12L434.21,28.89L434.54,27.98L434.88,29.49L435.21,29.06L435.54,30.02L436.53,25.65L436.87,29.27L437.53,29.21L437.86,26.62L438.19,25.19L438.52,27.81L438.85,27.93L439.19,27.16L439.52,27.95L439.85,27.81L440.18,25.63L441.17,28.8L441.51,27.78L442.17,30.58L442.5,28.05L442.83,27.22L443.16,31.59L443.83,33.27L444.16,31.81L444.49,31.2L444.82,37.98L445.81,33.78L446.15,32.18L447.47,24.83L447.8,27.07L448.13,29.43L448.47,29.07L448.8,28.76L449.13,29.42L449.46,38.31L450.46,29.37L450.79,31.03L451.12,28.57L451.45,27.12L451.78,21.85L452.44,28.24L452.78,26.13L453.11,25.3L453.44,25.13L453.77,26.8L455.1,34.62L455.43,31.67L456.42,25.96L456.75,27.09L457.08,28.63L457.42,31.1L457.75,28.27L458.08,29.01L458.41,28.43L458.74,23.05L459.07,24.22L459.4,28.48L459.74,26.08L460.07,27.53L460.4,27.67L460.73,28.03L461.06,23.67L461.39,23.61L461.72,25.38L462.06,31.33L462.72,30.15L463.05,29.19L463.38,32.75L463.71,29.75L464.04,29.59L465.37,32.73L465.7,33.6L466.03,31.13L466.37,35.92L466.7,38.3L467.03,37.87L467.36,33.57L468.35,34.75L468.69,36.86L469.02,38.44L469.35,37.35L469.68,36.66L470.67,34.22L471.01,35.6L472,39.61" style="vector-effect: non-scaling-stroke; fill: none; stroke: rgb(255, 161, 90); stroke-opacity: 1; stroke-width: 2px; opacity: 1;"/></g><g class="points"/><g class="text"/></g><g class="trace scatter tracedbdf47" style="stroke-miterlimit: 2; opacity: 1;"><g class="fills"/><g class="errorbars"/><g class="lines"><path class="js-line" d="M0,153.23L0.33,154.23L0.66,153.17L0.99,148.36L1.33,148.58L1.66,153.89L1.99,153.54L2.32,158.67L3.65,145.35L3.98,150.73L4.31,150.33L4.64,156.57L5.3,149.77L5.63,156.29L5.97,165L6.3,145.66L6.63,147.74L6.96,157.22L7.29,149.57L7.96,151.06L8.29,158.1L8.95,144.68L9.28,149.6L9.61,144.57L9.94,144.7L10.28,152.18L10.61,157.62L10.94,144.86L11.6,153.34L11.93,150.79L12.26,151.48L13.26,142.18L13.59,146.56L14.25,161.84L14.58,176.87L15.25,156.56L15.58,157.16L15.91,151L16.57,156.09L16.9,151.33L17.9,147.51L18.23,153.3L18.56,160.05L18.89,152.43L19.22,157.37L19.56,151.69L19.89,157.03L20.22,155.26L20.55,153.9L20.88,158.56L21.54,148.92L21.88,154.3L22.21,154.27L22.54,153.44L22.87,152.38L23.2,156.87L23.87,152.65L24.53,152.94L24.86,144.21L25.19,153.66L25.52,136.45L25.85,132.33L26.19,133.33L26.52,133.75L26.85,137.98L27.18,135.75L27.51,135.32L27.84,141.63L28.17,132.94L28.51,127.54L28.84,128.82L29.17,131.62L29.5,124.71L30.16,125.64L30.49,122.96L30.83,122.17L31.16,123.47L32.48,135.56L32.81,127.2L33.15,125.91L33.48,126.32L33.81,127.82L34.8,140.67L35.13,137.05L35.47,132.79L36.13,133.79L36.46,133.58L36.79,133.5L37.12,138.88L37.46,138.15L37.79,134.66L38.45,133.03L38.78,138.25L39.11,137.11L39.44,144.35L39.78,138.64L40.11,139.25L40.44,143.54L41.1,129.29L41.43,129.58L41.76,138.65L42.43,131.72L42.76,135.91L43.09,143.77L43.42,137.74L43.75,141.33L44.08,146.65L45.08,138.18L45.41,143.27L46.07,131.91L46.4,140.93L46.74,141.26L47.07,138.33L47.73,131.03L48.06,118.26L48.39,120.03L48.72,131.89L49.06,127.05L50.05,125.48L50.71,118.37L51.04,129.85L51.38,132.23L51.71,128.01L52.7,119.84L53.03,122.13L53.7,133.27L54.03,127.48L54.36,127.42L54.69,130.31L55.35,119.97L55.69,130.49L56.68,125.65L57.01,127.53L57.67,120.32L58.01,125.64L58.34,125.61L58.67,121.6L59.33,115.82L59.66,108.53L60.99,119.41L61.32,117.53L61.98,109.94L62.31,112.51L62.65,124.49L64.63,109.79L64.97,117.68L65.3,117.72L65.63,116.59L65.96,117.48L66.29,122.01L66.62,139.92L67.29,135.9L67.62,138.64L69.28,110.43L69.61,117.91L70.27,124.77L70.6,124.31L70.93,118.57L71.6,107.11L71.93,117.59L72.26,116.73L72.59,121L72.92,119.17L73.25,112.92L73.92,106.72L74.25,117.5L74.58,116.42L74.91,118.43L75.24,120.25L75.57,116.3L75.9,104.74L76.24,105.59L76.57,114.16L76.9,112.6L77.23,113.95L77.56,116.26L78.56,101.07L78.89,111.42L80.54,90.66L80.88,94.92L81.21,104.79L81.54,100.38L81.87,102.94L82.2,101.73L82.53,110.23L82.87,104.14L83.2,103.45L83.53,109.71L83.86,108.06L84.19,106.75L84.85,102.18L85.19,108.29L85.52,104.05L85.85,106.28L86.18,108.55L86.84,110.95L87.17,108.5L87.84,98.68L88.17,104.96L89.16,108.19L89.49,107.06L89.83,101.71L90.16,102.92L90.49,109.01L90.82,110.76L91.15,117.23L92.15,100.87L92.48,104.77L92.81,113.2L94.8,95.45L95.13,111.47L96.79,93.04L97.12,93.71L97.45,113.02L97.78,106.37L98.11,98.36L98.44,99.95L98.78,97.88L99.44,89.39L99.77,111.54L100.43,94.73L100.76,98.59L101.1,95.67L102.09,110.39L102.42,100.81L103.08,97.79L103.42,99.05L103.75,91.17L104.08,87.24L104.41,102.87L105.07,92.53L105.4,97.08L105.74,94.9L106.4,93.18L106.73,104.98L107.06,95.5L107.39,95.81L107.72,106.67L108.39,92.13L108.72,97.14L109.05,105.27L109.71,102.66L110.04,103.75L110.38,102.7L111.04,124.87L111.37,122.25L111.7,106.16L112.03,104.49L112.37,106.31L112.7,115.48L113.03,113.25L113.36,117.28L113.69,126.97L114.02,115.63L114.35,118.58L115.02,125.65L115.35,119.02L116.01,131.8L116.34,128.64L116.67,131.96L117.34,153.5L117.67,151.55L118,182.39L118.33,252.29L118.66,225.92L118.99,110.87L119.33,101.66L119.66,102.69L119.99,107.33L120.32,98.13L120.65,56.71L121.31,112.29L121.65,106.45L121.98,109.84L122.31,106.39L122.64,107.02L122.97,111.82L123.63,115.85L123.97,109.97L124.63,118.22L124.96,110.93L125.96,122.61L126.29,119.52L126.62,121.92L127.28,109.53L127.61,119.89L128.61,109.89L128.94,112.68L129.27,122.83L129.6,105.12L130.26,111.56L130.6,108.26L130.93,105.42L131.26,107.74L131.59,107.34L131.92,112.76L132.25,111.68L132.58,109.25L132.92,110.89L133.25,104.91L133.58,106.77L133.91,103.24L134.24,100.98L134.57,110.22L134.9,104.91L135.24,110.22L135.57,122.34L136.23,97.61L136.56,105.81L136.89,112.76L137.22,99.51L137.56,101.92L137.89,105.05L138.88,101.27L139.21,106.33L139.88,97.67L140.21,97.87L140.54,96.66L140.87,91.62L141.2,96.41L141.53,98.72L141.87,98.4L142.2,96.32L143.19,88.07L143.52,89.97L143.85,94.87L144.19,92.96L144.52,93.17L144.85,93.7L145.51,96.25L145.84,100.95L146.17,101.37L146.51,93.87L146.84,93.29L147.17,97.01L147.5,102.75L147.83,97.51L148.16,100.76L148.83,104.53L149.16,103.72L149.49,97.2L149.82,99.75L150.15,112.5L150.48,106.29L150.81,112.55L151.15,112.94L152.8,101.76L153.13,109.27L154.13,99.97L154.46,97.48L155.46,114.59L155.79,107.16L156.12,108.03L156.45,103.96L157.11,105.29L157.44,109.1L157.78,113.08L158.11,106.6L158.44,103.71L158.77,107.67L159.1,100.82L159.43,110.96L159.76,110.17L160.1,113.22L160.76,103.65L161.09,108.3L161.75,102.1L162.08,106.24L162.42,113.62L162.75,107.5L163.08,102.25L164.4,115.83L164.74,124.73L165.73,108.84L166.06,113.92L166.39,110.7L166.72,111.16L167.06,117.02L168.05,108.78L168.38,108.37L168.71,117.1L169.04,111.23L169.38,112.59L170.04,102.71L170.37,104.92L170.7,111.75L171.7,123.24L172.03,121.3L173.02,118.41L173.35,111.48L174.02,116.11L174.35,114.64L174.68,114.81L175.01,112.76L175.34,117.96L175.67,115.69L176.01,119.29L176.34,128.29L176.67,123.27L177,122.03L177.66,109.65L177.99,131.43L178.33,117.41L178.66,129.67L178.99,131.06L180.65,108.93L180.98,116L182.63,109.93L182.97,111.09L183.3,113.28L183.96,117.1L184.29,114.61L184.62,115.81L184.96,113.27L185.29,113.36L185.62,117.31L185.95,117.27L186.28,119.38L186.61,119.84L186.94,123.7L187.61,119.03L187.94,119.39L188.27,126.33L188.93,129.87L189.26,126.85L189.6,123.8L189.93,123.89L190.26,132.24L191.58,123.23L191.92,120.33L192.25,118.12L192.58,120L192.91,122.98L193.24,122.17L193.57,119.21L193.9,120.02L194.24,114.7L194.57,114.2L194.9,122.85L196.56,109.28L196.89,115.62L197.22,119.11L197.55,111.48L197.88,116.67L198.21,110.45L198.54,107.78L199.54,120.02L199.87,112.16L200.87,118.58L201.2,106.57L201.86,119.61L202.19,109.37L202.85,103.92L203.19,111.83L203.52,106.55L203.85,110.56L204.18,110.18L204.84,105.56L205.17,107.08L205.51,107.04L205.84,108.57L206.17,108.29L206.5,116.38L207.49,103.31L207.83,107.87L208.82,118.03L209.15,107.28L209.48,108.34L209.81,113.59L210.15,116.62L210.48,103.33L211.14,112.1L211.47,108.42L211.8,106.05L212.47,104.5L212.8,97.93L213.46,109.86L213.79,102.8L214.79,108.81L215.12,98.94L215.45,107.73L215.78,107.11L216.11,97.8L216.44,101.28L216.78,99.97L217.11,98.08L218.1,120.51L218.43,116.15L219.1,110.9L219.43,112.48L219.76,109.86L220.42,124.3L220.75,117L221.08,118.09L222.08,111.36L222.41,112.92L222.74,116.91L223.07,112.72L223.4,112.18L223.74,109.55L224.07,110.16L224.4,112.2L225.06,120.95L225.39,110.32L226.39,103.63L226.72,108.38L227.38,117.75L227.71,113.18L228.04,113.25L228.38,111.37L228.71,105.31L229.7,121.87L230.03,109.47L230.37,111.34L230.7,105.3L231.36,109.11L231.69,143.72L232.02,140.52L232.35,119.13L232.69,117.28L233.02,123.31L233.35,121.74L233.68,128.14L234.34,146.51L234.67,125.19L235.67,134.12L236,137.23L236.33,150.91L236.66,150.24L236.99,142.43L237.66,148.88L237.99,160.26L238.98,207.42L239.31,280.5L239.65,265.06L239.98,111.4L240.97,99.48L241.3,101.83L241.63,98.43L241.97,101.38L242.3,105.87L242.63,102.04L242.96,102.61L243.29,105.6L244.29,97.02L244.62,101.38L245.28,99.27L245.61,102.88L245.94,104.97L246.28,89.36L246.94,94.88L247.27,93.91L247.6,92.77L248.26,108.32L248.6,98.98L248.93,97.63L249.26,100.32L249.92,96.15L250.25,126.43L251.91,96.33L252.24,96.45L252.57,105.54L252.9,106.05L253.24,97.09L253.9,100.78L254.23,95.05L254.56,108.57L255.22,108.22L255.56,102.51L255.89,102.16L256.22,107.77L256.55,117.15L256.88,100.49L257.54,107.68L257.88,103.7L258.87,95.29L259.2,97.43L259.53,107.75L260.86,93.23L261.19,94.84L261.52,90.87L261.85,107.7L262.19,107.95L262.52,96.88L262.85,102.43L263.18,100.59L263.51,99.25L264.51,113.87L264.84,100.97L265.17,99.88L265.5,106.02L265.83,105.17L266.16,100.73L266.49,101.06L266.83,105.9L267.49,94.59L267.82,98.09L268.15,109.08L268.48,99.03L268.81,101.86L269.15,104.74L269.81,94.88L270.14,95.42L270.47,103.49L270.8,104.77L271.13,109.94L271.47,112.46L271.8,106.86L272.46,105.42L272.79,107.03L273.79,118.37L274.12,113.59L275.11,104.6L275.44,110.54L275.78,108.43L276.11,118.94L277.1,108.23L277.43,111.71L278.43,127.28L278.76,119.11L279.09,120.93L279.42,118.78L279.75,116.13L280.08,96.41L280.42,99.52L280.75,112.79L281.08,105.47L281.74,106.56L282.07,110.31L282.74,97.64L283.07,110.89L283.73,101.76L284.06,105.13L284.39,108.53L284.72,102.16L285.06,102.39L285.39,118.44L285.72,104.53L286.05,111.53L286.38,108.65L286.71,107.19L287.04,122.64L287.38,120.49L287.71,133.03L288.7,121.4L289.03,118.42L289.37,108.59L289.7,109.83L290.03,123.11L291.69,96.16L292.02,99.49L292.35,114.77L293.67,102.48L294.01,102.47L294.34,102.79L294.67,112.49L295.33,106.57L295.66,107.02L295.99,109.73L296.66,98.77L296.99,112.88L297.32,104.06L297.65,104.63L297.98,107.33L298.31,106.83L298.65,98.68L298.98,95.71L299.31,106.6L299.97,100L300.3,105.94L300.97,103.46L301.3,104.2L301.63,111.65L301.96,102.53L302.29,103.9L302.62,106.58L303.29,100.56L303.62,104.43L303.95,113.26L304.61,111.09L304.94,109.05L305.28,110.75L305.61,110.43L305.94,103.18L306.27,110.36L306.6,103.99L306.93,102.92L307.26,102.12L307.6,104.05L307.93,95.4L308.26,104.53L308.59,112.84L309.92,99.74L310.25,100.46L310.91,113.54L311.24,104.25L312.24,102.52L312.57,105.5L313.23,115.07L313.56,110.23L313.89,110.68L314.22,110L314.56,105.37L314.89,110.61L315.22,98.21L315.55,106.53L315.88,102.73L316.21,98.86L316.88,99.26L317.21,95.37L317.54,96.08L317.87,105.52L318.87,95.2L319.2,92.4L319.53,100.43L319.86,92.88L320.19,95.4L320.52,87.68L320.85,92.19L321.19,91.85L321.52,95.71L321.85,127.52L322.84,118.79L323.17,107.27L323.84,99.54L324.17,113.44L324.5,108.63L325.16,109.03L325.49,113.77L325.83,112.54L326.16,116.73L326.49,112L326.82,115.61L327.15,114.07L327.48,104.88L328.15,105.64L328.48,101.86L328.81,99.07L329.14,103.72L329.47,107.93L329.8,101.97L330.13,98.89L330.47,99.46L330.8,104.64L331.46,106.48L331.79,104.24L332.12,102.17L332.79,102.6L333.12,103.51L333.45,104.45L333.78,108.19L334.11,111.87L334.44,105.4L335.11,101.68L335.44,103.41L335.77,106.86L336.1,107.1L336.43,112.34L337.76,103.51L338.09,104.55L338.42,102.64L338.75,112.58L339.42,102.97L339.75,107.9L340.08,108.17L340.41,123.78L340.74,124.93L341.07,130.7L342.07,123.71L342.4,125.35L342.73,117.67L343.06,119.64L343.39,122.48L344.06,108.77L344.39,113.58L344.72,110.96L345.71,117.73L346.04,109.62L346.38,106.14L346.71,111L347.37,105.75L347.7,107.6L348.03,111.26L348.7,106.47L349.03,110.12L350.35,120.44L350.69,108.98L351.02,104.93L351.35,114.33L351.68,114.91L352.01,118.23L352.67,164.53L353.01,131.34L353.34,132.63L353.67,129.69L354.33,120.19L354.66,131.11L354.99,141.71L355.33,117.3L355.99,123.62L356.32,130.34L356.65,134.07L356.98,154.65L357.31,153.79L357.65,142.13L359.63,174.58L359.97,196.55L360.3,278.72L360.63,258.72L360.96,111.87L361.62,102.91L361.96,106.62L362.29,104.35L363.28,108.87L363.61,103.96L363.94,105.07L364.28,103.29L364.61,99.96L364.94,104.65L365.27,106.85L365.6,101.7L365.93,101.31L366.26,109.26L367.26,98.13L367.59,100.39L368.92,90.8L369.25,84.69L370.24,86.11L370.57,91.74L371.24,120.98L371.57,101.4L372.56,88.01L372.89,91.89L373.56,99.76L373.89,91.76L374.22,90.92L374.55,91.36L374.88,95.12L375.88,106.36L376.21,91.78L376.54,92.07L376.87,94.5L377.2,99.27L377.53,116.61L377.87,115.19L378.2,116.18L378.53,110.18L379.52,99.84L379.85,101.75L380.19,107.57L380.85,90.78L381.18,91.83L381.51,96.29L382.17,95.05L382.51,101.34L383.17,92.24L383.83,92.73L384.16,93.13L384.49,92.81L384.83,89.2L385.16,93.05L385.49,83.58L385.82,81.78L386.15,86.5L387.15,97.97L387.48,106.18L388.47,91.33L388.8,90.88L389.47,133.91L389.8,127.6L390.13,109.61L391.12,115.05L391.46,112.11L391.79,117.01L392.12,115.63L392.45,111.93L393.44,102.29L393.78,113.35L394.11,116.7L394.44,115.61L394.77,104.76L395.1,105.32L395.43,103.08L395.76,105.47L396.1,114.51L396.76,115.58L397.42,99.59L397.75,101.02L398.42,102.18L398.75,109.51L399.08,114.04L399.41,101.74L399.74,100.2L400.07,94.83L400.4,99.08L400.74,113.85L401.07,117.9L401.4,115.97L401.73,104.44L402.06,97.54L402.39,100.67L402.72,102.28L403.39,121.28L403.72,115.97L404.05,103.36L405.04,99.24L405.38,97.5L406.04,112.89L406.37,91.76L407.03,98.6L407.37,97.95L407.7,102.09L408.03,113.18L408.36,112.16L408.69,102.42L409.35,102.22L409.69,102.55L410.68,117.12L411.01,106.9L411.34,104.48L411.67,108.79L412.67,118.58L413,115.21L413.33,104.5L413.66,94.14L413.99,96.25L414.33,101.1L414.66,99.56L414.99,114.26L416.31,106.49L416.65,106.73L417.64,116.43L417.97,105.7L418.63,106.17L418.97,111.16L419.3,112.42L419.63,108.42L419.96,112.08L420.29,103.85L420.96,107.33L421.29,104.01L421.62,103.74L421.95,104.69L422.28,107.17L422.61,104.81L422.94,104.35L423.94,95.13L424.27,99.02L424.6,108.84L424.93,105.66L425.26,103.49L425.6,103.29L425.93,105.79L426.92,123.87L427.25,112.92L427.58,112.91L427.92,111.63L428.25,109.78L428.58,99.14L429.24,112.57L429.57,109.55L429.9,110.88L430.57,104.99L430.9,119.82L431.56,132.22L431.89,128.01L432.22,131.96L432.89,131.79L433.22,134.52L433.55,132.22L433.88,138.97L434.21,136.43L434.54,136.1L435.21,137.82L435.54,129.85L435.87,130.36L436.2,138.26L437.53,120.25L437.86,124.74L438.19,123.28L438.52,129.35L439.19,128.11L439.52,124.23L440.18,118.89L440.51,124.79L440.84,129.24L441.17,126.14L441.51,126.84L442.5,118.24L442.83,123.42L443.16,122.35L443.49,116.72L443.83,119.5L444.16,115.45L445.48,121.03L445.81,115.78L446.48,115.95L446.81,120.45L447.14,114.05L447.47,115.1L447.8,121.97L448.8,119.05L449.13,120.54L449.79,109.11L450.12,121.14L450.79,114.43L451.12,116.49L451.45,116L451.78,109.64L452.11,110.76L452.44,119.25L453.11,112.03L453.44,112.56L453.77,115.76L454.43,104L454.76,111.75L455.1,109.04L455.43,109.82L455.76,113.95L456.09,115.84L456.42,115.47L456.75,112.38L457.08,124.59L457.42,117.67L457.75,117.82L458.41,119.58L458.74,116.57L459.07,113.49L459.4,123.14L460.4,115.36L460.73,118.54L461.39,115.08L461.72,116.73L462.06,121.87L462.39,120.56L462.72,118.92L463.05,121.43L463.38,110.59L463.71,110.16L464.04,122.3L464.71,114.93L465.04,115.59L465.37,117.95L465.7,116.22L466.03,121.23L466.37,121.97L466.7,120.2L468.02,112.81L468.35,118.06L468.69,117.16L469.02,111.48L469.35,109.75L469.68,113.57L470.01,115.42L470.34,110.85L470.67,124.32L471.01,121.98L471.34,114.76L471.67,112.44L472,116.8" style="vector-effect: non-scaling-stroke; fill: none; stroke: rgb(25, 211, 243); stroke-opacity: 1; stroke-width: 2px; opacity: 1;"/></g><g class="points"/><g class="text"/></g></g></g><g class="overplot"/><path class="xlines-above crisp" d="M0,0" style="fill: none;"/><path class="ylines-above crisp" d="M0,0" style="fill: none;"/><g class="overlines-above"/><g class="xaxislayer-above"><g class="xtick"><text text-anchor="middle" x="0" y="433" transform="translate(80,0)" style="font-family: 'Open Sans', verdana, arial, sans-serif; font-size: 12px; fill: rgb(42, 63, 95); fill-opacity: 1; white-space: pre;">2017</text></g><g class="xtick"><text text-anchor="middle" x="0" y="433" transform="translate(200.98000000000002,0)" style="font-family: 'Open Sans', verdana, arial, sans-serif; font-size: 12px; fill: rgb(42, 63, 95); fill-opacity: 1; white-space: pre;">2018</text></g><g class="xtick"><text text-anchor="middle" x="0" y="433" transform="translate(321.97,0)" style="font-family: 'Open Sans', verdana, arial, sans-serif; font-size: 12px; fill: rgb(42, 63, 95); fill-opacity: 1; white-space: pre;">2019</text></g><g class="xtick"><text text-anchor="middle" x="0" y="433" transform="translate(442.95,0)" style="font-family: 'Open Sans', verdana, arial, sans-serif; font-size: 12px; fill: rgb(42, 63, 95); fill-opacity: 1; white-space: pre;">2020</text></g></g><g class="yaxislayer-above"><g class="ytick"><text text-anchor="end" x="79" y="4.199999999999999" transform="translate(0,347.72)" style="font-family: 'Open Sans', verdana, arial, sans-serif; font-size: 12px; fill: rgb(42, 63, 95); fill-opacity: 1; white-space: pre;">0.6</text></g><g class="ytick"><text text-anchor="end" x="79" y="4.199999999999999" transform="translate(0,263.78999999999996)" style="font-family: 'Open Sans', verdana, arial, sans-serif; font-size: 12px; fill: rgb(42, 63, 95); fill-opacity: 1; white-space: pre;">0.65</text></g><g class="ytick"><text text-anchor="end" x="79" y="4.199999999999999" transform="translate(0,179.86)" style="font-family: 'Open Sans', verdana, arial, sans-serif; font-size: 12px; fill: rgb(42, 63, 95); fill-opacity: 1; white-space: pre;">0.7</text></g></g><g class="overaxes-above"/></g></g><g class="polarlayer"/><g class="ternarylayer"/><g class="geolayer"/><g class="funnelarealayer"/><g class="pielayer"/><g class="treemaplayer"/><g class="sunburstlayer"/><g class="glimages"/><defs id="topdefs-4055a9"><g class="clips"/><clipPath id="legend4055a9"><rect width="127" height="140" x="0" y="0"/></clipPath></defs><g class="layer-above"><g class="imagelayer"/><g class="shapelayer"/></g><g class="infolayer"><g class="legend" pointer-events="all" transform="translate(561.44, 100)"><rect class="bg" shape-rendering="crispEdges" style="stroke: rgb(68, 68, 68); stroke-opacity: 1; fill: rgb(255, 255, 255); fill-opacity: 1; stroke-width: 0px;" width="127" height="140" x="0" y="0"/><g class="scrollbox" transform="translate(0, 0)" clip-path="url('#legend4055a9')"><text class="legendtitletext" text-anchor="start" x="2" y="15.600000000000001" style="font-family: 'Open Sans', verdana, arial, sans-serif; font-size: 12px; fill: rgb(42, 63, 95); fill-opacity: 1; white-space: pre;">Continents</text><g class="groups"><g class="traces" transform="translate(0, 30.1)" style="opacity: 1;"><text class="legendtext" text-anchor="start" x="40" y="4.680000000000001" style="font-family: 'Open Sans', verdana, arial, sans-serif; font-size: 12px; fill: rgb(42, 63, 95); fill-opacity: 1; white-space: pre;">Global</text><g class="layers" style="opacity: 1;"><g class="legendfill"/><g class="legendlines"><path class="js-line" d="M5,0h30" style="fill: none; stroke: rgb(99, 110, 250); stroke-opacity: 1; stroke-width: 2px;"/></g><g class="legendsymbols"><g class="legendpoints"/></g></g><rect class="legendtoggle" x="0" y="-9.5" width="121.734375" height="19" style="fill: rgb(0, 0, 0); fill-opacity: 0;"/></g><g class="traces" transform="translate(0, 49.1)" style="opacity: 1;"><text class="legendtext" text-anchor="start" x="40" y="4.680000000000001" style="font-family: 'Open Sans', verdana, arial, sans-serif; font-size: 12px; fill: rgb(42, 63, 95); fill-opacity: 1; white-space: pre;">Europe</text><g class="layers" style="opacity: 1;"><g class="legendfill"/><g class="legendlines"><path class="js-line" d="M5,0h30" style="fill: none; stroke: rgb(239, 85, 59); stroke-opacity: 1; stroke-width: 2px;"/></g><g class="legendsymbols"><g class="legendpoints"/></g></g><rect class="legendtoggle" x="0" y="-9.5" width="121.734375" height="19" style="fill: rgb(0, 0, 0); fill-opacity: 0;"/></g><g class="traces" transform="translate(0, 68.1)" style="opacity: 1;"><text class="legendtext" text-anchor="start" x="40" y="4.680000000000001" style="font-family: 'Open Sans', verdana, arial, sans-serif; font-size: 12px; fill: rgb(42, 63, 95); fill-opacity: 1; white-space: pre;">Asia</text><g class="layers" style="opacity: 1;"><g class="legendfill"/><g class="legendlines"><path class="js-line" d="M5,0h30" style="fill: none; stroke: rgb(0, 204, 150); stroke-opacity: 1; stroke-width: 2px;"/></g><g class="legendsymbols"><g class="legendpoints"/></g></g><rect class="legendtoggle" x="0" y="-9.5" width="121.734375" height="19" style="fill: rgb(0, 0, 0); fill-opacity: 0;"/></g><g class="traces" transform="translate(0, 87.1)" style="opacity: 1;"><text class="legendtext" text-anchor="start" x="40" y="4.680000000000001" style="font-family: 'Open Sans', verdana, arial, sans-serif; font-size: 12px; fill: rgb(42, 63, 95); fill-opacity: 1; white-space: pre;">North America</text><g class="layers" style="opacity: 1;"><g class="legendfill"/><g class="legendlines"><path class="js-line" d="M5,0h30" style="fill: none; stroke: rgb(171, 99, 250); stroke-opacity: 1; stroke-width: 2px;"/></g><g class="legendsymbols"><g class="legendpoints"/></g></g><rect class="legendtoggle" x="0" y="-9.5" width="121.734375" height="19" style="fill: rgb(0, 0, 0); fill-opacity: 0;"/></g><g class="traces" transform="translate(0, 106.1)" style="opacity: 1;"><text class="legendtext" text-anchor="start" x="40" y="4.680000000000001" style="font-family: 'Open Sans', verdana, arial, sans-serif; font-size: 12px; fill: rgb(42, 63, 95); fill-opacity: 1; white-space: pre;">South America</text><g class="layers" style="opacity: 1;"><g class="legendfill"/><g class="legendlines"><path class="js-line" d="M5,0h30" style="fill: none; stroke: rgb(255, 161, 90); stroke-opacity: 1; stroke-width: 2px;"/></g><g class="legendsymbols"><g class="legendpoints"/></g></g><rect class="legendtoggle" x="0" y="-9.5" width="121.734375" height="19" style="fill: rgb(0, 0, 0); fill-opacity: 0;"/></g><g class="traces" transform="translate(0, 125.1)" style="opacity: 1;"><text class="legendtext" text-anchor="start" x="40" y="4.680000000000001" style="font-family: 'Open Sans', verdana, arial, sans-serif; font-size: 12px; fill: rgb(42, 63, 95); fill-opacity: 1; white-space: pre;">Oceania</text><g class="layers" style="opacity: 1;"><g class="legendfill"/><g class="legendlines"><path class="js-line" d="M5,0h30" style="fill: none; stroke: rgb(25, 211, 243); stroke-opacity: 1; stroke-width: 2px;"/></g><g class="legendsymbols"><g class="legendpoints"/></g></g><rect class="legendtoggle" x="0" y="-9.5" width="121.734375" height="19" style="fill: rgb(0, 0, 0); fill-opacity: 0;"/></g></g></g><rect class="scrollbar" rx="20" ry="3" width="0" height="0" style="fill: rgb(128, 139, 164); fill-opacity: 1;" x="0" y="0"/></g><g class="g-gtitle"/><g class="g-xtitle"><text class="xtitle" x="316" y="461.8" text-anchor="middle" style="font-family: 'Open Sans', verdana, arial, sans-serif; font-size: 14px; fill: rgb(42, 63, 95); opacity: 1; font-weight: normal; white-space: pre;">Date</text></g><g class="g-ytitle"><text class="ytitle" transform="rotate(-90,30.418750000000003,260)" x="30.418750000000003" y="260" text-anchor="middle" style="font-family: 'Open Sans', verdana, arial, sans-serif; font-size: 14px; fill: rgb(42, 63, 95); opacity: 1; font-weight: normal; white-space: pre;">danceability</text></g></g></svg>