<svg class="main-svg" xmlns="http://www.w3.org/2000/svg" xmlns:xlink="http://www.w3.org/1999/xlink" width="700" height="500" style="" viewBox="0 0 700 500"><rect x="0" y="0" width="700" height="500" style="fill: rgb(255, 255, 255); fill-opacity: 1;"/><defs id="defs-09cb37"><g class="clips"><clipPath id="clip09cb37xyplot" class="plotclip"><rect width="516" height="320"/></clipPath><clipPath class="axesclip" id="clip09cb37x"><rect x="80" y="0" width="516" height="500"/></clipPath><clipPath class="axesclip" id="clip09cb37y"><rect x="0" y="100" width="700" height="320"/></clipPath><clipPath class="axesclip" id="clip09cb37xy"><rect x="80" y="100" width="516" height="320"/></clipPath></g><g class="gradients"/></defs><g class="bglayer"><rect class="bg" x="80" y="100" width="516" height="320" style="fill: rgb(229, 236, 246); fill-opacity: 1; stroke-width: 0;"/></g><g class="layer-below"><g class="imagelayer"/><g class="shapelayer"/></g><g class="cartesianlayer"><g class="subplot xy"><g class="layer-subplot"><g class="shapelayer"/><g class="imagelayer"/></g><g class="gridlayer"><g class="x"><path class="xgrid crisp" transform="translate(212.26,0)" d="M0,100v320" style="stroke: rgb(255, 255, 255); stroke-opacity: 1; stroke-width: 1px;"/><path class="xgrid crisp" transform="translate(344.52,0)" d="M0,100v320" style="stroke: rgb(255, 255, 255); stroke-opacity: 1; stroke-width: 1px;"/><path class="xgrid crisp" transform="translate(476.78,0)" d="M0,100v320" style="stroke: rgb(255, 255, 255); stroke-opacity: 1; stroke-width: 1px;"/></g><g class="y"><path class="ygrid crisp" transform="translate(0,392.4)" d="M80,0h516" style="stroke: rgb(255, 255, 255); stroke-opacity: 1; stroke-width: 1px;"/><path class="ygrid crisp" transform="translate(0,353.94)" d="M80,0h516" style="stroke: rgb(255, 255, 255); stroke-opacity: 1; stroke-width: 1px;"/><path class="ygrid crisp" transform="translate(0,315.49)" d="M80,0h516" style="stroke: rgb(255, 255, 255); stroke-opacity: 1; stroke-width: 1px;"/><path class="ygrid crisp" transform="translate(0,277.03)" d="M80,0h516" style="stroke: rgb(255, 255, 255); stroke-opacity: 1; stroke-width: 1px;"/><path class="ygrid crisp" transform="translate(0,238.58)" d="M80,0h516" style="stroke: rgb(255, 255, 255); stroke-opacity: 1; stroke-width: 1px;"/><path class="ygrid crisp" transform="translate(0,200.12)" d="M80,0h516" style="stroke: rgb(255, 255, 255); stroke-opacity: 1; stroke-width: 1px;"/><path class="ygrid crisp" transform="translate(0,161.67000000000002)" d="M80,0h516" style="stroke: rgb(255, 255, 255); stroke-opacity: 1; stroke-width: 1px;"/><path class="ygrid crisp" transform="translate(0,123.21000000000001)" d="M80,0h516" style="stroke: rgb(255, 255, 255); stroke-opacity: 1; stroke-width: 1px;"/></g></g><g class="zerolinelayer"/><path class="xlines-below"/><path class="ylines-below"/><g class="overlines-below"/><g class="xaxislayer-below"/><g class="yaxislayer-below"/><g class="overaxes-below"/><g class="plot" transform="translate(80, 100)" clip-path="url('#clip09cb37xyplot')"><g class="scatterlayer mlayer"><g class="trace scatter traceef4977" style="stroke-miterlimit: 2; opacity: 1;"><g class="fills"/><g class="errorbars"/><g class="lines"><path class="js-line" d="M0,103.65L1.09,115.94L1.45,117L2.17,107.48L2.54,115.17L3.62,105.7L3.99,111.94L4.35,118.39L4.71,105.11L5.44,112.68L5.8,109.27L6.16,107.04L6.52,114L7.25,95.74L7.61,108.49L7.97,111.65L8.33,107.72L8.7,111.2L9.06,111.03L9.42,85.72L9.78,87.93L10.15,101.13L10.51,107.68L10.87,99.22L11.23,100.53L11.6,98.44L11.96,113.49L12.32,96.75L13.04,113.26L13.41,107.87L13.77,110.07L14.13,113.55L14.49,113.08L14.86,93.23L15.94,142.52L16.31,134.86L16.67,120.05L17.39,88.19L17.76,109.24L18.12,116.26L18.48,114.23L18.84,110.34L19.93,96.03L20.29,108.06L20.65,119.42L21.02,113.94L21.38,117.07L22.47,102.63L22.83,106.59L23.19,114.92L24.64,98.08L25,98.95L25.73,109.68L26.09,108.72L26.45,105.79L26.81,105.13L27.18,110.43L27.54,104.64L27.9,82.74L28.26,84.38L28.63,79.47L29.35,84.46L29.71,79L30.44,80.1L30.8,87.85L31.16,87.73L31.53,89.76L31.89,87.67L32.25,76.14L32.97,68.29L33.34,76.27L33.7,76.79L34.06,73.71L34.42,71.57L34.79,79.15L35.15,78.15L35.51,82.94L36.6,86.5L36.96,79.9L37.32,81.92L37.69,79.35L38.41,84.89L38.77,82.56L39.13,84.44L39.5,84.75L39.86,74.26L40.22,74.52L40.58,79.31L40.95,79.2L41.31,79.88L42.03,76.07L42.4,93.48L43.12,78.19L43.48,80.35L43.85,84.63L44.21,87.01L44.57,81.86L45.29,65.47L45.66,67.16L46.02,75.17L46.38,74.41L46.74,77.33L47.11,71.85L47.47,84.78L47.83,80.86L48.19,84.61L48.56,89.51L49.28,79.78L49.64,95.07L50.01,90.64L50.37,75.43L50.73,74L51.09,86.97L52.54,60.13L52.9,61.59L53.27,62.79L53.63,68.03L54.72,63.91L55.8,71.12L56.17,80.98L57.62,74.08L57.98,74.08L58.34,73.73L58.7,75.65L59.06,70.46L59.43,74.33L59.79,74.82L60.15,76.63L60.51,73.61L60.88,70.15L61.24,74.65L61.6,72.22L61.96,73.38L62.33,72.91L62.69,84.15L63.05,69.6L63.41,68.47L63.78,73.18L64.5,77.67L64.86,73.66L65.59,52.54L65.95,62.65L66.31,62.85L66.67,59.72L67.04,57.1L67.4,59.31L67.76,58.17L68.12,56.2L68.49,58.93L68.85,58.86L69.21,57.49L69.94,65.2L70.3,71.67L70.66,60.2L71.38,60.87L71.75,61.33L72.11,60.04L72.47,64.52L72.83,110.43L73.2,91.61L73.56,98.9L75.73,55.7L76.1,57.24L76.46,62.21L76.82,60.66L77.18,54.92L77.54,53.26L77.91,54.52L78.27,45.75L78.63,41.84L78.99,49.93L79.36,46.63L79.72,50.72L80.08,49.73L80.44,46.33L80.81,45.85L81.17,49.53L82.26,58.15L82.62,58.42L82.98,55.95L83.34,45.99L84.07,58.93L84.43,56.04L84.79,57.72L85.15,56.95L85.52,49.87L85.88,39.02L86.24,42.61L86.6,50.75L88.42,28.64L88.78,32.33L89.14,37.11L89.5,33.7L89.87,35.91L90.23,39.67L90.59,38.69L90.95,37.95L91.31,53.52L91.68,51.75L92.04,46.41L92.4,43.55L92.76,47.67L93.13,52.47L93.49,38.44L94.21,48.41L94.58,44.95L95.3,40.04L95.66,32.91L96.03,30.39L96.39,34.19L96.75,41.09L97.11,34.56L97.47,39.68L99.65,64.26L100.01,55.05L100.37,53.79L100.74,38.8L101.46,54.71L101.82,53.39L102.19,51.68L102.55,53.92L102.91,50.6L103.63,49.01L104,54.18L104.36,60.58L104.72,54.86L105.08,52.52L105.45,52.74L105.81,41.57L106.9,51.12L107.26,49.5L107.62,45.81L107.98,46.66L108.35,38.73L108.71,42.61L109.07,41.23L109.43,55.71L109.79,24.45L110.16,34.08L110.52,42.04L111.61,60.01L111.97,52.65L112.69,54.42L113.06,47.49L113.78,41.88L114.14,45.86L114.51,49.98L114.87,48.92L115.23,49.09L115.59,53.77L115.96,50.39L116.32,46.88L116.68,46.66L117.04,47.59L117.4,49.2L117.77,47.7L118.13,46.68L119.22,61.96L119.58,54.17L119.94,52.45L120.3,54.96L121.75,93.65L122.12,82.32L122.84,75.22L123.2,78.33L124.29,97.97L124.65,95.6L125.01,94.36L126.1,83.55L126.46,91.73L126.83,98.06L127.19,85.46L127.55,83.03L127.91,86.47L128.28,91.01L128.64,86.08L129,99.99L129.36,178.69L129.72,223.29L130.09,64.13L130.45,18.17L130.81,27.43L131.17,29.78L131.54,28.63L131.9,24.43L132.26,17.33L132.62,46.92L132.99,39.66L133.71,40.21L134.07,35.89L135.88,53.71L136.25,51.27L136.61,46.75L136.97,54.59L138.06,68.66L138.42,67.35L139.15,39.47L139.51,44.92L139.87,55.24L140.6,44.77L140.96,46.27L141.32,16L141.68,17.77L142.04,27.12L143.49,42.68L143.86,32.7L144.22,31.9L144.58,42.46L144.94,40.82L145.31,33.7L146.03,44.15L146.39,35.19L146.76,27.05L147.12,27.08L147.48,37.1L148.21,70.3L148.57,58.18L149.29,33.34L149.65,34.99L150.02,53.71L151.83,39.51L152.19,43.7L152.55,49.03L152.92,44.79L153.28,48.03L154.37,35.7L154.73,42.43L155.09,45.44L155.45,43.29L155.81,43.44L156.18,44.8L156.54,22.88L157.63,38.41L157.99,38.32L158.35,42.21L158.71,47.02L159.08,38.7L159.44,29.92L159.8,40.48L160.16,37.46L160.53,43.86L160.89,44.99L161.25,43.4L161.97,30.49L162.34,38.83L163.42,51.06L163.79,45.75L164.15,37.2L164.51,39.41L164.87,49.94L165.24,59.63L165.6,49.82L165.96,54.38L167.05,33.21L167.41,36.94L167.77,43.91L168.13,43.91L168.5,41.97L169.58,33.11L169.95,41.16L170.67,49.34L171.03,47.8L171.4,45.49L171.76,48.49L172.12,45.87L172.48,47.49L172.85,55.43L173.21,54.79L173.57,46.44L173.93,44.3L174.29,52.39L175.02,45.59L175.38,53.12L175.74,50.62L176.11,51.47L176.47,51.41L177.56,41.9L177.92,45.86L178.28,46.49L178.64,42.91L179.01,43.74L179.37,61.81L179.73,56.29L180.09,57.45L180.46,59.9L181.18,48.33L181.54,55.92L181.9,57.7L182.27,51.22L182.63,48.82L182.99,51.68L183.35,55.55L183.72,50.6L184.08,53.48L184.44,63.53L185.53,39.22L185.89,43.35L186.98,53.12L187.34,50.78L187.7,46.68L188.06,48.6L188.43,49.17L189.15,50.79L189.51,47.98L189.88,48.31L190.24,50.53L191.33,57.5L191.69,60.36L193.14,80.55L193.5,73.27L193.86,62.03L194.22,72.9L194.59,90.5L194.95,76.2L195.31,81.11L195.67,80.95L196.04,78.85L196.4,70.71L197.85,47.97L198.21,48.12L198.57,55.8L199.66,37.51L200.02,40.06L200.38,52.37L200.75,44.73L201.11,49.33L201.47,49.4L201.83,51.16L202.2,38.01L202.56,36.4L202.92,48.02L203.65,55.26L204.01,52.91L204.37,52.71L204.73,58.29L205.1,65.05L205.46,61.04L205.82,62.14L206.91,64.16L207.27,68.14L207.63,58.26L207.99,68.54L208.36,70.46L208.72,71.42L209.08,75.39L209.44,72.53L209.81,57.06L210.17,57.62L210.53,64.03L211.98,57.67L212.34,42.93L212.71,39.64L213.07,41.82L213.43,44.65L214.52,55.5L214.88,41.16L215.97,50.98L216.33,49.06L216.69,47.92L217.05,54.28L218.14,60.31L218.5,57.73L219.23,52.83L219.59,56.37L219.95,36.02L220.31,44.47L220.68,44.96L221.76,54.49L222.13,52.04L222.49,52.4L222.85,51.56L223.21,51.48L223.58,55.11L224.3,63.14L224.66,54.2L225.75,59.35L226.11,63.94L227.2,52.41L227.56,54.5L229.01,50.04L229.37,54.72L229.74,53.09L230.1,45.87L230.46,43.66L230.82,51.47L231.55,57.45L231.91,54.32L232.27,54.11L232.63,51.24L233,49.22L233.36,50.19L233.72,58.95L234.08,60.22L234.45,58.99L234.81,50.17L235.17,38.03L235.53,45.81L235.9,44.72L236.98,58.89L237.35,54.46L238.43,64.31L238.79,62.07L239.16,61.09L240.61,58.55L240.97,67.31L241.33,64.6L241.69,65.67L242.06,72.98L243.14,54.81L243.51,67.19L243.87,68.78L244.23,65.47L246.4,88.35L246.77,83.42L247.49,70.98L247.85,76.71L248.22,65.37L248.58,73.76L248.94,77.08L249.67,70.28L250.03,75.42L250.39,76.6L250.75,82.71L251.12,102.63L251.48,94.27L251.84,86.14L252.93,60.22L253.29,96.16L253.65,113.89L254.01,95.04L254.38,96.9L255.1,99.43L255.46,111.94L256.19,127.74L256.55,110.39L257.28,107.6L257.64,108.02L258,98.53L258.72,123.71L259.09,100.34L259.45,100.76L259.81,103.91L260.17,118.02L260.54,97.8L261.26,134.68L261.62,224.15L261.99,247.49L262.35,93.99L263.44,37.4L263.8,41.27L264.16,52.36L264.52,27.47L264.88,55.96L265.25,52.36L265.61,48.73L265.97,35.38L266.33,41.13L266.7,50.06L267.78,45.58L268.15,30.8L268.51,28.4L268.87,32.56L269.23,35.71L269.96,35.55L270.32,33.92L270.68,31.02L271.04,31.64L271.41,42.17L271.77,43.58L272.13,40.36L272.86,37.3L273.22,37.49L273.58,37.02L274.67,43.62L275.03,42.44L275.39,43.73L275.76,33.45L276.48,38.11L276.84,36.4L277.21,34.54L279.02,57.3L279.38,50.99L279.74,50.01L280.1,56.86L280.47,75.8L280.83,58.12L281.19,53.32L281.55,53.58L281.92,57.29L282.64,52.88L283,53.73L283.37,25.07L283.73,30.6L284.09,53.01L284.45,47.65L284.81,57.81L285.18,57.58L285.54,59.19L286.26,42.59L286.63,49.11L286.99,49.89L287.35,46.5L288.44,57.69L288.8,48.58L289.16,53.78L289.53,49.96L289.89,52.34L290.25,48.98L290.61,49.57L290.97,37.75L291.34,36.43L291.7,43.31L292.42,48.68L292.79,44.64L293.15,42.74L293.51,32.48L294.96,43.55L295.32,39.12L295.69,36.82L296.05,45.98L296.77,45.76L297.13,51.37L298.22,40.44L298.58,48.68L298.95,36.03L299.31,43.24L299.67,47.39L300.4,46.73L300.76,45.17L301.12,43.96L301.48,36.32L301.85,40.23L302.21,55.82L303.29,40.68L303.66,50.46L304.02,50.28L304.38,60.82L304.74,57.04L305.11,79.04L306.56,36.36L306.92,46.03L307.28,49.09L307.64,43.14L308.73,50.25L309.09,39.36L309.82,59.29L310.18,56.71L310.54,58.59L310.9,58.57L311.27,47.2L311.63,47.37L311.99,55.4L312.35,60.41L312.72,60.33L313.08,56.45L313.44,54.43L313.8,93.18L314.17,74.85L314.53,78.6L314.89,89.85L316.34,62.98L316.7,53.39L317.06,54.68L317.43,53.88L317.79,58.19L318.51,54.25L318.88,44.68L319.24,41.79L319.6,47.89L319.96,43.96L320.33,47.5L320.69,49.97L322.5,58.58L322.86,57.74L323.22,55.73L323.59,57.07L323.95,36.78L324.67,50.04L325.04,47.02L325.4,43.88L326.12,48.81L326.49,44.09L327.21,51.81L327.57,49.13L327.94,48.28L328.3,46.18L328.66,56.22L329.38,50.35L329.75,54.05L331.2,59.82L331.56,49.11L331.92,49.34L332.28,65.97L333.37,49.86L333.73,55.02L334.46,46.16L334.82,50.46L335.18,50L335.54,45.06L336.27,49.09L336.63,35.62L336.99,33.77L337.36,36.68L338.08,52.1L338.44,43.73L338.81,45.86L339.17,39.83L339.53,36.2L339.89,47.91L340.98,55.66L341.34,53.39L341.71,59.17L342.07,42.54L342.43,54.04L342.79,52.65L343.15,48.05L344.24,64.69L344.6,38.76L345.33,48.12L345.69,42.75L346.42,54.96L346.78,37.58L347.14,37.63L347.5,42.55L348.59,45.08L348.95,38.27L349.31,39.24L349.68,25.14L350.4,40.17L350.76,31.81L351.13,32.86L351.49,31.61L351.85,90.14L352.21,61.36L352.58,51.05L352.94,49.3L353.3,55.84L353.66,48.92L354.03,52.75L354.39,56.44L354.75,41.8L355.11,57.91L356.2,46.99L356.56,50.59L356.92,53.82L357.29,41.75L358.37,48.81L358.74,45.56L359.1,45.75L359.46,40.7L359.82,42.87L360.19,50.55L360.55,53.84L360.91,49.89L361.63,47.05L362,24.74L363.08,47.72L363.45,44.25L363.81,45.61L364.17,43.07L364.9,42.89L365.98,55.36L366.35,57.2L366.71,58.35L367.07,49.85L367.43,44.88L367.79,49.9L368.16,57.47L368.88,56.15L369.24,56.68L369.61,50.97L369.97,47.63L370.33,56.18L371.06,65.59L371.42,64.8L371.78,62.83L372.14,69.08L372.51,61.68L373.59,78.68L373.96,75.6L374.68,73.26L375.04,59.84L376.13,71.82L376.49,69.54L377.58,58.75L377.94,70.8L378.3,68.99L378.67,71.47L379.75,79.42L380.12,63.54L380.48,82.4L380.84,78.6L381.2,78.81L381.93,78.8L382.29,72.49L382.65,76.05L383.01,87.82L383.38,97.91L383.74,96.64L384.1,93.46L384.46,94.06L384.83,99.68L385.19,108.22L385.55,140.98L387.36,87.9L387.72,98.97L388.09,122.66L388.45,102.33L388.81,102.8L389.17,102.97L389.54,104.31L390.62,136.15L390.99,120.69L392.07,124.65L392.44,125.57L393.52,157.35L393.88,238.02L394.25,272.6L394.61,110.41L395.33,54.82L395.7,59.36L396.06,49.9L396.78,39.07L397.15,59.14L397.51,58.12L397.87,45.39L399.32,55.66L399.68,50.99L400.41,30.98L400.77,42.56L401.13,49.16L401.86,48.88L402.22,47.2L402.94,21.78L403.31,30.56L403.67,31.79L404.03,34.39L404.39,26.93L404.76,28.32L405.12,33.18L405.48,28.98L405.84,40.8L406.21,46.53L406.57,43.41L406.93,43.26L407.65,43.42L408.02,36.22L408.38,45.5L408.74,51.18L409.1,49.36L409.47,49.4L409.83,51.94L410.19,29.82L410.55,24.66L410.92,46.66L411.28,52.32L411.64,46.95L412,49.46L412.37,52.1L412.73,70.76L413.09,56.21L413.45,56.66L413.81,59.39L414.18,62.31L414.54,60.63L414.9,60.17L415.26,66.09L415.63,49.59L416.35,65.28L416.71,65.01L417.08,66.09L417.44,64.49L417.8,46.28L418.16,31.48L418.53,33.32L418.89,37.47L419.25,39.03L419.61,36.4L419.97,39.26L420.34,27.44L420.7,24.86L421.06,31.9L421.42,36.28L421.79,32.12L422.15,33.73L422.51,33.9L422.87,25.3L423.6,28.45L423.96,39.46L424.32,45.72L424.69,44.75L425.05,41.67L426.13,74.69L426.5,76.65L426.86,72.08L427.22,76.19L427.58,76.63L428.31,63.18L428.67,70.96L429.03,77.51L429.4,71.92L429.76,69.51L430.12,66.81L430.48,69.12L430.85,57.2L431.21,55.11L431.57,59.69L432.66,54.28L433.02,63.27L433.74,52.9L434.11,58.08L434.47,58.1L434.83,56.81L435.19,59.02L435.56,41.74L435.92,37.7L436.28,47.49L436.64,55.08L437.01,49.03L437.37,52.29L437.73,60.18L438.09,56.13L438.46,49.79L439.18,61.79L439.54,59.28L439.9,59.31L440.99,47.22L441.35,57.48L441.72,57.45L442.08,56.12L443.17,32.82L443.53,41.54L444.25,54.64L444.62,41.47L444.98,46.31L445.34,45.37L445.7,16.21L447.15,47.85L447.51,40.17L447.88,43.31L448.24,25.23L448.96,40.34L449.69,40.27L450.05,40.52L450.78,30.93L451.14,41.28L451.86,51.57L452.22,37.83L452.59,28.13L452.95,37.71L453.31,31.79L454.04,45.43L454.4,41.27L454.76,33.4L455.85,38.59L456.21,29.9L456.94,41.23L457.3,36.39L457.66,35.39L458.02,38.61L458.75,28.05L459.11,33.8L459.47,41.55L459.83,35.93L460.2,30.48L460.92,25.39L461.28,17.55L462.73,32.52L463.1,28.3L463.46,22.3L463.82,24.27L464.18,25.83L464.54,27.76L464.91,20.83L465.99,45.13L466.36,36.05L466.72,35.47L467.08,49.84L467.44,48.8L467.81,40.03L468.17,38.86L468.53,34.01L468.89,23.32L469.26,29.16L469.62,32.41L470.34,43.17L470.71,57.97L471.43,61.8L471.79,58.43L472.52,68.7L472.88,66.23L473.24,58.9L473.97,59.45L474.33,67.72L475.05,64.59L475.42,56.75L475.78,61.73L476.14,49.37L476.87,64.25L477.23,63.97L477.59,63.6L477.95,61.59L478.31,62.36L478.68,55.95L479.04,57.2L479.4,56.86L479.76,62.82L480.13,63.22L480.49,61.86L481.58,54.02L481.94,67.8L482.3,63.95L482.66,65.67L483.03,65.41L483.39,64.28L483.75,54.28L484.11,56.42L484.47,67.27L484.84,61.31L485.2,62.16L485.56,63.58L486.29,58.87L486.65,48.15L487.01,67.36L487.37,56.64L487.74,56.2L488.1,57.79L488.46,52.09L488.82,38.89L489.19,43.61L489.55,54.35L489.91,55.18L490.27,50.72L490.63,48.05L491,50.62L491.36,37.34L492.08,51.68L492.45,44.84L492.81,48.04L493.53,49.22L493.9,55.88L494.26,40.77L494.62,56.67L494.98,65.81L496.79,41.47L497.16,51.53L497.52,51.62L497.88,55.5L498.24,63.3L498.61,56L498.97,58.29L499.33,48.17L499.69,59.85L501.51,67.39L501.87,67.26L502.23,61.18L502.59,67.61L502.96,61.56L504.04,65.89L504.4,52.66L505.13,63.46L505.85,63.19L506.22,62.37L506.58,62.8L506.94,55.27L508.39,68.88L508.75,66.16L509.48,54.71L509.84,74.77L510.2,70.95L510.56,71.38L510.93,73.63L511.29,70.14L511.65,54.15L512.01,58.19L512.38,73.11L512.74,83.12L513.1,81.42L513.46,80.3L513.83,81.01L514.19,62.04L514.55,67.51L514.91,86.32L515.28,80.59L515.64,82.5L516,86.79" style="vector-effect: non-scaling-stroke; fill: none; stroke: rgb(99, 110, 250); stroke-opacity: 1; stroke-width: 2px; opacity: 1;"/></g><g class="points"/><g class="text"/></g><g class="trace scatter traceb68e37" style="stroke-miterlimit: 2; opacity: 1;"><g class="fills"/><g class="errorbars"/><g class="lines"><path class="js-line" d="M0,137.03L0.36,146.17L0.72,142.93L1.09,138.27L1.45,133.86L1.81,147.07L2.17,145.16L2.54,157.48L3.62,146.54L3.99,134.12L5.07,159.47L5.44,149.81L5.8,146.43L6.16,151.18L6.52,166.31L6.88,134.03L7.61,156.21L7.97,145.71L8.33,150.16L8.7,145.32L9.06,162.87L9.42,144.79L9.78,146.74L10.87,140.14L11.23,147.03L11.6,153.76L11.96,136.03L13.41,151.97L13.77,145.56L14.13,144.8L14.49,136.85L15.58,161.51L15.94,190.93L17.03,159.56L17.39,149.6L18.12,163.76L18.48,151.04L18.84,153.16L19.21,147.79L19.57,142.59L19.93,151.52L21.02,173.47L21.38,157.76L21.74,169.71L22.1,161.6L22.47,155.02L22.83,169.27L23.19,162.11L23.55,153.1L23.92,162.68L24.28,161.73L24.64,158.42L25,153.22L25.37,164.81L25.73,165.53L26.09,161.47L26.81,161.23L27.18,142.23L27.54,149.6L27.9,128.15L28.26,128.87L28.63,125.13L29.35,129.11L29.71,123.94L30.08,117.7L30.44,124.81L30.8,118.73L31.16,119.38L31.53,121.24L31.89,123.96L32.25,112.38L32.61,111.91L32.97,120.54L34.06,111.12L34.42,124.64L34.79,115.46L35.15,119.79L35.51,122.74L35.87,124.14L36.24,120.52L36.6,115.12L36.96,120.3L37.32,128L37.69,126.35L38.05,131.22L38.77,125.9L39.13,128.74L39.5,130.72L39.86,128.9L40.22,118.61L41.31,134.31L41.67,133.61L42.4,135.24L42.76,129.37L43.12,142.94L43.48,136.16L43.85,139.98L44.21,140.43L44.57,135.7L44.93,124.48L45.29,126.99L45.66,140.8L46.38,131.67L46.74,137.03L47.11,145.79L47.47,135.33L48.19,148.33L48.56,142.54L48.92,143.49L49.28,136.73L49.64,139.05L50.01,126.39L50.37,123.57L50.73,138.83L51.09,143.63L51.46,141.24L51.82,136.2L52.54,110.58L52.9,111.23L53.27,136.31L53.63,132.13L54.72,129.01L55.44,111.94L55.8,129.89L56.17,130.38L56.53,127.93L57.25,123.34L57.62,105.07L58.7,136.01L59.06,123.65L59.79,124.88L60.15,111.55L60.51,111.68L60.88,125.46L61.6,131.61L61.96,121.08L62.33,121.91L62.69,103L63.05,104.56L63.41,112.6L63.78,120.27L64.14,114.19L64.5,106.9L64.86,103.73L65.22,89.48L66.31,113.8L66.67,113.56L67.04,111.65L67.76,93.54L68.12,101.09L68.85,113.97L69.21,112.18L69.57,111.96L70.3,94.23L70.66,99.55L71.02,105.61L73.56,132.15L73.92,134.43L75.01,118.33L75.37,99.98L75.73,102.43L76.1,110.58L76.82,117.28L77.18,115.1L77.54,113.32L77.91,95.74L78.27,97.95L78.63,110.39L78.99,106.67L79.36,113.2L79.72,112.69L80.08,102.67L80.44,93.67L80.81,93.84L81.17,106.11L82.26,113.37L82.62,107.76L82.98,86.36L83.34,90.95L83.71,101.6L84.07,99.39L84.43,105.32L85.52,86.49L85.88,88.54L86.24,98.85L86.6,98.5L86.97,96.59L87.69,92.63L88.05,74.54L89.14,94.35L89.5,92.36L89.87,93.79L90.23,106.31L90.59,93.71L90.95,89.91L91.68,103.64L92.04,98.95L92.4,95.37L93.49,85.43L93.85,90.88L94.21,100.34L94.58,99.88L94.94,98.65L95.3,99.24L95.66,78.42L97.47,103.56L97.84,99.84L98.56,79.23L98.92,87.51L99.65,106.1L100.01,97.96L100.37,89.63L100.74,83.42L101.1,90.64L101.46,100.6L101.82,100.31L102.19,91.69L102.55,93.56L102.91,88.78L103.63,79.7L104,102.36L106.17,73.65L106.53,96.83L107.26,86.77L107.62,93.45L108.71,72.38L109.07,105.14L109.79,87.89L110.16,94.41L110.52,92.11L110.88,92.63L111.24,85.42L111.61,107.29L111.97,92.09L112.33,83.57L112.69,85.26L113.06,83.58L113.42,73.61L113.78,61.73L114.14,91.37L114.51,77.68L114.87,77.78L115.23,82.83L116.32,71.02L116.68,95.44L117.4,79.16L117.77,92.37L118.49,78.45L118.85,87.97L119.58,101.24L119.94,99.01L120.3,97.84L120.67,101.54L121.39,126.5L121.75,126.32L122.12,102.02L122.48,95.12L122.84,98.67L123.2,109.73L123.56,108.22L123.93,116.75L124.29,127.47L124.65,108.2L125.74,125L126.1,118.56L126.83,135.04L127.19,129L128.28,155.76L128.64,154.9L129,190.37L129.36,264.71L129.72,253.6L130.09,103.61L130.45,101.18L130.81,103.08L131.17,109.37L131.54,91.89L131.9,35.15L132.62,112.13L132.99,110.12L133.35,105.03L133.71,101.03L134.07,104.84L134.44,109.73L135.16,118.69L135.52,110.91L136.25,113.45L136.61,104.61L137.7,128.27L138.06,121.59L138.42,126.96L138.78,111.99L139.15,104.64L139.51,114.04L139.87,120.23L140.23,116.3L140.6,112.88L140.96,114.5L141.32,150.37L141.68,98.92L142.04,106.5L142.41,120L144.22,99.1L144.58,105.16L144.94,111.97L145.31,106.01L145.67,100.32L146.03,107.95L146.39,96.88L146.76,94.2L147.12,102.12L147.48,100.82L147.84,102.87L148.21,127.88L148.57,101.1L148.93,91.84L149.29,96.92L149.65,101.7L150.02,96.68L150.38,100.42L150.74,106.49L151.83,89.64L152.19,97.37L153.28,90.57L153.64,89.06L154.37,78.69L154.73,85.62L155.81,77.77L156.18,77.08L156.9,70.12L157.26,78.28L157.63,85.54L157.99,80.01L158.35,76.04L159.8,88.57L160.16,82.34L160.53,83.9L160.89,92.67L161.25,101.94L161.61,89.63L161.97,86.78L162.34,95.06L162.7,99.73L163.06,98.2L163.42,93.72L163.79,88.81L164.15,107.97L164.51,97.08L164.87,101.64L165.24,104.97L167.05,89.42L167.41,97.55L167.77,97.44L168.13,93.62L168.86,85.04L169.22,93.1L169.95,110.33L170.31,101.8L170.67,103.58L171.03,99.19L172.12,103.36L172.48,112.15L173.21,94.5L173.57,101.48L173.93,96.24L175.02,112.07L175.38,103.62L175.74,104.48L176.11,107.89L176.83,93.52L177.19,97.7L177.56,112.67L179.01,99.8L179.37,111.12L179.73,111.35L180.09,123.45L181.18,102.48L181.54,108.91L181.9,99.66L182.27,106.52L182.63,119.63L183.72,111.24L184.08,108.71L184.44,108.48L184.8,96.84L185.17,114.33L185.53,102.11L185.89,98.89L187.34,111.74L187.7,121.79L188.79,112.99L189.15,113.3L189.51,100.15L190.6,116.94L190.96,108.86L191.69,119.37L192.05,115.12L192.41,109.84L192.78,126.51L194.22,101.34L194.59,133.62L194.95,109.25L195.31,119.3L195.67,127.61L196.4,122.15L196.76,127.98L197.49,100.63L197.85,108.23L198.21,111.86L198.57,116.42L198.94,115.3L199.3,115.73L200.02,106.17L200.38,110.2L201.11,117.37L201.47,115.48L201.83,116.99L202.2,105.15L202.56,105.29L202.92,113.08L204.37,132.32L204.73,115.42L205.1,118.14L205.46,112.29L206.54,134.98L206.91,129.79L207.63,113.7L207.99,129.87L208.72,136.59L209.08,132.3L210.17,108.35L210.53,113.44L210.89,123.76L211.26,120.93L211.62,121.34L211.98,121.9L212.71,100.51L213.07,115.2L213.79,121.81L214.15,112.97L214.88,100.46L215.24,104L215.6,113.44L216.69,107.34L217.05,102.5L217.42,101.49L217.78,102.03L218.14,110.5L218.5,110.53L218.87,113.31L219.23,113.36L219.59,121.3L219.95,95.76L220.31,95.91L220.68,119.44L221.76,93.31L222.13,107.59L222.49,95.36L222.85,101.47L223.21,101.84L223.58,103.11L223.94,95.51L225.75,109.89L226.11,105.25L226.47,104.59L226.84,98.28L227.2,96.54L227.56,97.77L227.92,101.49L228.29,106.24L228.65,100.51L229.74,115.45L230.1,87.37L231.19,98.57L231.55,95.32L231.91,97.28L232.27,95.42L232.63,82.95L233.36,94.22L233.72,90.97L234.45,103.13L234.81,99.52L235.17,85.01L235.9,97.8L236.26,87.95L236.62,88.25L236.98,90.61L237.35,89.31L237.71,103.74L238.43,113.9L238.79,104.64L239.52,109.18L239.88,108.7L240.24,102.3L240.61,105.19L240.97,115.22L241.33,112.32L241.69,117.01L242.78,103.41L243.14,105.73L243.51,108.27L243.87,102.36L244.59,98.74L244.96,99.41L245.32,103.66L246.04,110.82L246.4,106.53L247.13,98.69L247.49,103.21L248.58,114.18L248.94,111.76L249.67,109.62L250.03,97.42L251.12,118.53L251.48,101.75L251.84,103.94L252.2,98.3L252.56,99.26L252.93,98.34L253.29,129.97L253.65,133.55L254.01,107.03L254.38,108.09L254.74,115.09L255.1,114L255.46,119.15L256.19,139.21L256.55,119.47L256.91,120.04L257.28,118.16L258.36,144.21L258.72,142.65L259.09,141.33L259.81,145L260.17,156.87L261.26,207.49L261.62,278.96L261.99,293.16L262.35,101.72L263.07,88.71L263.44,89.57L263.8,87.73L264.16,77.47L264.52,83.57L264.88,88.69L265.97,92.02L266.33,93.88L266.7,86.63L267.06,88.2L267.42,93.5L268.51,90.75L268.87,94.2L270.32,80.38L270.68,82.25L271.77,92.45L272.13,89.08L272.49,91.67L272.86,88.25L273.22,89.64L273.58,145.7L274.67,95.01L275.03,89.84L275.39,86.38L275.76,86.64L276.12,96.18L277.93,79.24L278.29,99.08L279.02,100.61L279.38,92.12L279.74,93.09L280.1,98.26L280.47,110.67L280.83,89.84L281.92,98.28L282.28,92.96L283,84.07L283.37,85.36L283.73,95.65L285.18,72.5L285.54,79.87L285.9,81.41L286.26,102.15L286.99,87.69L287.35,91.68L287.71,88.55L288.44,87.29L288.8,94.29L289.16,103.33L289.53,88.41L289.89,88.41L290.25,92.15L290.61,95.65L290.97,90.57L291.34,89.99L291.7,91.9L292.42,83.25L292.79,84.31L293.15,103.24L293.51,86.07L293.87,91.97L294.24,91.89L294.96,83.85L295.32,85.11L295.69,90.97L296.05,92.14L296.41,98.02L297.13,102.9L297.5,98.36L297.86,98.53L298.22,102.12L298.58,112.12L298.95,105.49L299.31,103.7L299.67,104.95L300.03,104.05L300.4,104.56L301.48,94.96L301.85,107.57L302.57,96.31L302.93,98.16L303.29,103.03L304.38,119.38L304.74,107.53L305.47,109.17L305.83,106.64L306.19,82.83L306.56,83.79L306.92,101.46L307.28,95.98L307.64,98.3L308.01,101.27L308.37,102.04L308.73,97.22L309.09,89.47L309.46,101.23L309.82,92.55L310.18,96.69L310.54,98.71L310.9,99.85L311.27,87.6L311.63,89.98L311.99,113.59L313.08,96.17L313.44,91.11L314.53,120.88L314.89,118.24L316.34,94.73L316.7,98.44L317.06,110.55L317.43,110.05L317.79,109.8L318.51,104.52L318.88,83.03L319.24,76.87L319.6,102.33L319.96,92.37L320.33,98.38L320.69,95.74L321.78,85.98L322.14,101.5L322.5,102.95L322.86,96.25L323.22,97.08L323.59,99.84L324.31,84.5L324.67,106.84L325.4,94.34L325.76,98.88L326.12,98.91L326.49,86.47L326.85,80.1L327.21,94.99L327.57,90.54L327.94,91.25L328.3,97L329.02,87.92L329.38,88.8L329.75,98.73L330.47,89.15L330.83,94.69L331.56,91.63L331.92,94.29L332.28,100.94L332.65,93.82L333.73,104.73L334.1,91.82L334.46,88.42L334.82,91.63L335.18,89.78L335.54,89.78L335.91,86.5L336.27,89.41L336.63,79.47L337.72,96.49L338.08,93.49L338.81,83.16L339.17,84.44L339.53,87.4L339.89,94.7L340.26,89.43L340.62,89.53L340.98,91.03L341.34,85.91L341.71,86.75L342.07,90.35L342.43,96.02L342.79,92.68L343.15,89.87L343.52,93.36L343.88,84.54L344.24,102L344.6,83.67L344.97,95.08L345.33,95.34L345.69,87.88L346.05,88.36L346.42,83.77L346.78,79.9L347.14,86.58L347.87,90.76L348.23,87.8L348.95,81.01L349.31,85.92L350.4,68.76L350.76,78.96L351.49,72.73L351.85,116.22L352.94,96.73L353.3,85.61L354.03,75.24L354.39,94.02L354.75,94.39L355.11,100.08L355.47,93.16L355.84,97.49L356.2,95.31L356.56,97.27L356.92,94.65L357.29,96.29L357.65,94.23L359.1,80.29L359.46,82.01L359.82,80.99L360.19,83.92L360.91,77.13L361.27,78.82L361.63,89.22L362,90.29L362.36,82.58L363.08,88.96L363.45,86.62L363.81,85.73L364.17,88.36L365.26,94.66L365.62,88.05L365.98,82.66L366.35,84.21L366.71,84.7L367.79,95.48L368.16,92.01L368.88,85.23L369.24,86.51L369.61,89.52L369.97,84.16L370.33,97.78L371.06,86.5L371.42,95.22L371.78,93.47L372.14,110.97L372.51,109.9L372.87,118.23L373.96,110.85L374.32,113.95L375.04,100.63L375.4,107.96L376.49,95.42L376.85,95.84L377.58,89.94L377.94,100.15L378.3,90.14L378.67,90.29L379.03,92.77L379.39,89.68L379.75,96.25L380.12,93.42L380.48,99.17L381.2,92.07L381.56,92.77L381.93,95.46L383.01,110.71L383.38,90.61L383.74,90.38L384.1,96.41L384.46,99.2L384.83,108.46L385.55,165.11L385.91,118.59L386.28,117.22L386.64,125.04L387,109.23L387.36,113.1L387.72,119.16L388.09,128.33L388.45,102.58L389.9,116.39L390.26,149.64L390.62,144.14L390.99,120.29L392.8,166.48L393.16,178.29L393.52,200.42L393.88,294.54L394.25,300.9L394.61,102.46L394.97,100.06L395.33,88.06L396.06,86.88L396.42,89.38L396.78,90.18L397.15,83.4L397.51,83.86L397.87,89.55L398.6,79.83L398.96,90.39L399.32,91.79L399.68,90.27L400.04,84.64L400.77,93.41L401.13,80.47L401.86,88.03L402.22,85.46L402.58,76.07L402.94,83.24L403.31,76.62L403.67,62.75L404.03,71.48L404.39,70.85L404.76,69.58L405.12,73.46L405.48,98.16L405.84,145.79L406.21,94.32L407.29,71.72L407.65,72.13L408.02,80.82L408.38,86.53L408.74,69.62L409.1,67.12L409.47,69.85L410.55,95.2L410.92,92.03L411.28,76.95L411.64,78.94L412,80.77L412.37,81.31L412.73,113.45L413.09,112.08L413.45,106.59L414.18,92.36L414.54,79.39L415.63,99.55L415.99,88.73L416.35,71.2L416.71,78.98L417.08,78.01L417.44,78.48L417.8,84.43L418.16,85.76L418.53,84.02L418.89,76.69L419.25,79.21L419.61,77.78L420.34,82.34L420.7,74.02L421.06,79.48L421.42,66.62L421.79,63.73L422.15,64.6L422.51,69.25L423.24,79.15L423.6,96.32L424.69,69.6L425.05,72.02L425.77,125.9L426.13,117.85L426.5,102.01L426.86,104.67L427.22,101.32L427.95,108.72L428.31,115.77L429.76,92.29L430.12,95.12L430.48,100.09L430.85,113.11L431.21,110.06L431.57,96.53L431.93,94.64L432.29,88.52L433.74,112.05L434.11,97.68L434.47,86.33L434.83,88.81L435.19,87.95L436.28,115.96L436.64,92.59L437.37,84.41L437.73,85.87L438.09,109.22L438.46,119.36L438.82,109.34L439.18,97.32L439.54,92.09L439.9,94.39L440.27,96.6L441.35,117.4L441.72,97.19L442.08,82.79L442.44,89.91L442.8,94.52L443.17,93.72L443.53,111.93L443.89,116.69L444.25,91.16L444.98,92.73L445.34,91.93L445.7,95.47L446.06,116.77L446.43,112.63L446.79,98.62L447.51,92.68L447.88,98.65L448.96,123.44L449.33,102.86L449.69,100.83L450.05,105.93L450.78,115.29L451.14,123.7L452.22,88.19L452.59,88.75L452.95,94.93L453.31,95.57L453.67,111.21L454.4,111.43L455.12,97.4L455.49,99.37L456.57,112.24L456.94,90.64L457.66,95.34L458.02,100.43L458.38,111.32L459.11,110.94L459.47,94.01L459.83,101.56L460.2,100.34L460.56,92.04L461.28,97.58L461.65,96.99L462.01,94.35L462.37,97.66L462.73,89.14L463.1,90.55L463.46,85.23L464.18,98.07L464.54,95.85L464.91,95.5L465.63,98.01L465.99,108.69L466.72,126.17L467.08,107.59L467.44,108.88L467.81,105.76L468.53,99.71L468.89,105.62L469.26,113.85L469.62,107.11L469.98,106.85L470.34,103.14L470.71,105.64L471.07,126.02L471.43,132.1L471.79,126.72L472.15,128.34L472.88,129.13L473.24,127.08L474.33,132.08L474.69,129.66L475.05,131.68L475.42,128.51L476.14,125.62L476.5,132.07L477.23,127.44L477.59,123.39L477.95,122.29L478.31,118.11L479.04,117.98L479.4,123.16L479.76,117.57L480.13,120.59L480.49,111.55L481.21,107.49L481.58,116.99L481.94,122.42L482.3,117.34L482.66,121.17L483.75,106.2L484.11,115.16L484.47,117.78L484.84,103.47L487.01,112.74L487.37,105.23L487.74,107.13L488.1,104.04L488.46,107.48L488.82,99.88L489.19,111.81L489.55,109.91L489.91,107.73L490.27,107.35L490.63,105.24L491.36,108.42L491.72,105.74L492.08,116.65L492.45,105.1L493.17,105.03L493.53,106.25L493.9,103.87L494.26,106.99L494.62,111.41L494.98,106.22L495.35,102.94L495.71,105.48L496.07,113.85L497.52,101.34L497.88,101.09L498.97,108.86L499.33,112.77L499.69,113.61L500.06,106.94L502.23,115.51L502.59,112.12L502.96,113.78L503.32,109.36L504.04,119.03L504.4,109.22L505.49,119.6L505.85,112.69L506.22,112.36L506.58,114.18L506.94,104.14L507.3,114.16L507.67,107.98L508.03,105.5L508.39,111.41L508.75,110.07L509.12,113.43L509.48,119.01L509.84,115.46L510.2,107.75L510.56,104.81L510.93,106.16L511.29,108.79L511.65,106.4L512.01,113.39L513.1,104.98L513.46,108.94L513.83,110.1L514.19,101.07L514.55,118.89L514.91,116.5L515.28,106.81L515.64,107.48L516,104.52" style="vector-effect: non-scaling-stroke; fill: none; stroke: rgb(239, 85, 59); stroke-opacity: 1; stroke-width: 2px; opacity: 1;"/></g><g class="points"/><g class="text"/></g><g class="trace scatter trace36c6c6" style="stroke-miterlimit: 2; opacity: 1;"><g class="fills"/><g class="errorbars"/><g class="lines"><path class="js-line" d="M0,154.39L1.09,142L1.45,146.91L1.81,145.84L2.17,146.96L2.54,146.39L3.62,137.32L3.99,139.23L4.35,137.15L4.71,142.02L5.44,136.39L5.8,137.07L6.16,147.24L6.52,152.07L6.88,140.05L7.25,139.17L7.61,144.34L8.33,135.25L8.7,141.12L9.42,136.17L9.78,125.09L10.15,138.63L10.51,131.12L10.87,131.73L11.6,147.72L11.96,136.2L12.32,137.38L12.68,141.52L13.77,128.04L14.13,128.1L14.49,129.25L15.58,149.63L15.94,154.63L16.67,137.99L17.03,140.86L17.39,136.69L18.12,134.21L18.48,136.02L18.84,132.23L19.21,134.12L19.57,135.72L20.29,141.92L20.65,125.11L22.47,137.91L22.83,134.35L23.55,128.44L23.92,131.19L24.64,133.47L25,136.24L25.37,134.93L25.73,130.72L26.09,128.62L26.45,131.69L27.18,128.53L27.54,142.8L28.26,114.67L28.63,120.7L28.99,118.85L30.44,140.04L30.8,126.2L31.16,113.2L31.53,114.26L31.89,117.94L33.34,106.2L33.7,108.1L35.51,128.2L35.87,107.66L36.24,108.31L36.6,114.64L36.96,112.9L37.32,128.45L37.69,127.37L38.05,131.42L39.5,116.16L39.86,117.5L40.22,127.6L40.58,124.74L40.95,125.42L42.03,111.14L42.4,121.87L43.12,128.14L43.48,121.83L43.85,119.42L44.21,128.78L45.29,110.23L45.66,117.22L46.38,110.46L46.74,114.71L47.83,124.18L48.19,128.01L49.28,120.21L49.64,129.55L50.01,135.58L50.37,119.01L50.73,124.4L51.09,120.35L51.46,116.05L52.18,111.64L52.54,100.72L53.27,106.23L53.63,99.31L54.72,98.84L55.44,99.61L56.17,112.94L56.53,105.71L57.25,102.54L57.62,109.86L57.98,108.62L58.34,116.04L59.43,107.47L59.79,114.04L60.51,103.54L60.88,113.85L61.6,103.99L61.96,107.15L63.41,115.61L63.78,107.87L65.59,96.42L65.95,101.61L66.31,96.65L66.67,100.38L67.04,97.99L67.76,98.71L68.12,97.04L68.49,113.42L68.85,104.96L69.21,103.56L69.57,104.05L69.94,107.13L70.66,92.34L71.02,104.37L72.11,94.62L72.47,103.54L72.83,129.49L73.2,116.77L73.56,119.56L73.92,123.56L74.28,113.82L75.01,107.64L75.37,98.83L75.73,90.95L76.1,99.92L77.18,110.07L77.54,98.7L78.27,87.81L78.63,99.37L79.36,104.38L79.72,100.71L80.81,91.02L81.17,103.45L81.53,94.98L81.89,102.61L82.26,102.5L83.34,91.32L83.71,100.31L84.43,96.11L84.79,106.48L85.88,83.38L86.24,96.78L86.97,81.1L87.33,90.54L88.05,73.53L88.42,76.46L88.78,91.61L89.14,75.99L89.5,83.83L89.87,79.64L90.95,87.47L91.31,92.67L92.4,83.78L92.76,81.93L93.13,101.06L93.49,93.31L93.85,92.98L94.21,88.72L94.58,93.03L94.94,95.91L96.03,82.16L96.39,87.26L97.47,84.67L97.84,85.81L98.2,88.39L98.56,96.93L99.65,102.84L100.01,96.67L100.37,97.78L100.74,88.05L101.1,89.75L101.46,99.1L102.19,89.35L102.55,92.94L103.63,79.35L104,93.39L104.36,85.44L104.72,87.93L105.08,89.28L105.81,71.75L106.17,81.41L106.53,102.47L106.9,89.86L107.26,78.95L107.62,75.91L107.98,82.01L108.71,72.8L109.07,90.78L110.52,67.44L110.88,81.59L111.24,91.42L111.61,85.99L111.97,79.24L112.69,79.15L113.06,83.7L113.42,75.64L114.14,84.67L114.51,82.94L114.87,74.58L115.23,79.95L115.59,78.79L115.96,78.74L116.68,85.44L117.04,78.7L117.4,80.71L118.13,78.48L118.49,73L118.85,74.95L119.22,80.7L119.58,76.42L119.94,76.57L120.3,80.23L120.67,74.11L121.03,89.45L121.39,99.95L121.75,94.12L122.12,81.56L122.84,85.26L123.2,95.19L123.56,91.6L123.93,92.31L124.29,103.77L124.65,97.07L125.01,99.34L125.38,104.63L125.74,103.23L126.1,94.49L126.83,107.29L127.19,106.07L127.55,104.97L128.28,136.27L128.64,132.65L129,167.83L129.36,253.64L129.72,204.32L130.09,90.76L130.45,72.11L130.81,72.56L131.17,76.88L131.54,73.31L132.26,81.93L132.62,85.49L132.99,74.13L133.35,86.98L133.71,83.08L134.07,80.71L135.16,87.08L135.52,81.41L136.25,97.76L136.61,89.91L136.97,92.19L137.33,88.4L137.7,92.99L138.42,92.73L138.78,96.68L139.15,86.66L139.51,101L140.23,79.01L140.6,79.26L140.96,84.01L141.32,71.39L141.68,82.28L142.04,88.8L143.13,73.75L143.49,79.73L144.22,99.61L144.58,91.07L144.94,78.68L145.31,88.4L145.67,80.39L146.03,77.03L146.39,80.02L146.76,77.53L147.12,90.76L147.84,90.02L148.21,92.77L148.93,72.15L149.29,85.87L149.65,97.01L150.02,71.67L151.1,75.4L151.47,73.34L152.19,86.6L152.55,76.79L152.92,72.03L153.28,74.01L153.64,72.76L154,71.07L154.37,82.55L154.73,80.91L155.09,84.83L156.54,68.09L156.9,76.37L157.26,79.43L157.63,67.81L158.35,79L158.71,76.99L159.08,78.1L159.44,87.31L159.8,84.05L160.16,73.09L160.89,69.94L161.25,73.84L161.61,74.13L161.97,84.44L162.34,83.61L162.7,80.13L163.06,79.79L163.42,69.35L164.87,96.59L165.24,94.16L165.96,86.52L166.32,96.43L167.05,84.08L167.41,93.16L167.77,75.94L168.13,81.86L168.5,81.74L168.86,78.66L169.22,82.63L169.58,81.02L169.95,92.56L171.03,79.35L171.4,79.63L171.76,81.13L172.12,86.96L172.48,87.29L172.85,80.03L173.57,85.57L173.93,75.12L175.02,87.69L175.38,77.71L175.74,73.36L176.11,80.6L177.56,88.02L177.92,80.06L178.28,74.08L178.64,79.02L179.01,81.84L180.09,102.67L180.46,83.23L180.82,80.36L181.18,87.25L181.9,94.32L182.27,88.52L182.63,88.83L182.99,81.66L183.35,87.42L183.72,78.34L184.08,79.95L184.44,100.17L184.8,98.35L185.17,83.99L185.53,74.16L185.89,76.79L186.25,78.8L187.7,100.92L188.06,99.3L189.15,98.34L189.51,95.63L190.6,86.07L190.96,94.54L191.33,87.13L191.69,91.25L192.05,90.3L192.78,107.76L193.14,101.19L193.5,100.08L193.86,88.2L194.22,90.24L194.59,107.84L194.95,100.09L195.31,118.14L197.12,87.49L197.49,89.31L197.85,97.88L198.21,91.42L198.57,89.68L199.66,84.97L200.02,88.71L201.11,91.29L201.47,87.46L201.83,88.69L202.2,94.73L202.56,94.78L202.92,96.04L203.28,86.55L204.01,86.95L204.37,91.45L205.46,101.61L205.82,102.92L206.18,110.21L206.54,102.93L206.91,101.2L207.27,102.57L207.63,110.5L207.99,113.47L208.36,99.54L208.72,100.29L209.08,96.48L209.44,96.03L209.81,99.66L210.17,102.64L210.53,101.86L210.89,98.36L211.26,99.32L211.62,92.13L211.98,93.43L212.34,92.53L212.71,101.48L213.07,106.61L213.43,95.37L214.15,89.26L214.52,92.96L214.88,90.27L215.24,101.25L215.6,99.81L215.97,88.2L216.33,95.8L216.69,86.07L217.05,84.81L217.42,92.46L218.14,104.83L218.5,86.81L219.23,94.5L219.59,90.75L219.95,88.77L220.31,99L221.76,85.13L222.13,88.99L222.49,89.12L222.85,92.19L223.21,90.95L223.58,86.8L224.66,86.38L225.03,89.57L225.39,84.24L225.75,97.11L226.47,93.72L226.84,78.78L227.92,105.81L228.29,104.52L228.65,85.63L229.01,81.89L229.37,92.72L229.74,92.1L230.1,89.74L230.82,98.81L231.19,90.2L232.63,81.78L233,95.23L233.36,97.83L233.72,84.91L234.81,90.13L235.17,82.04L235.53,92.66L235.9,87.95L236.26,76.48L236.62,84.15L236.98,78.79L237.35,75.76L238.43,102.56L238.79,101.82L239.52,85.28L239.88,89.36L240.24,89.77L240.97,109.92L241.33,96.1L241.69,93.9L242.06,96.13L242.42,95.78L242.78,92.08L243.14,93.34L243.51,99.93L244.59,92.62L244.96,93.34L245.32,93.76L245.68,101.57L246.04,106.65L246.4,86.57L247.49,74.59L247.85,82.09L248.58,95.96L248.94,87.89L249.3,90.16L249.67,85.89L250.03,84.21L250.39,86.13L251.12,101.04L251.48,89.42L251.84,91.51L252.2,83.31L252.56,85.18L252.93,92.01L253.29,139.65L253.65,128.74L254.01,106.26L254.38,100.96L254.74,107.77L255.1,105.27L255.46,114.79L255.83,140L256.19,136.8L256.55,107.7L256.91,125.87L257.28,121.97L257.64,121.92L258,121.67L258.36,141.88L258.72,141.91L259.09,125.34L259.45,127.89L259.81,136.45L261.26,208.05L261.62,304L261.99,254.43L262.35,93.86L263.44,78.71L263.8,85.94L264.88,94.24L265.25,82.38L265.61,83.48L265.97,90.3L267.06,74.45L267.42,79.13L268.15,76.11L268.51,85.32L268.87,86.66L269.23,57.65L270.32,75.14L270.68,70.65L271.41,97.29L271.77,74.68L272.13,74.96L272.49,78.54L273.22,71L273.58,84.32L273.94,104.43L274.31,86.71L274.67,75.3L275.76,74.7L276.12,85.98L276.48,90.66L276.84,75.38L277.57,84.74L277.93,78.88L278.29,90.03L278.65,87.18L279.02,87.7L279.74,81.34L280.1,89.03L280.47,98.09L280.83,80.75L281.55,89.83L281.92,79.67L282.64,83.11L283,74.62L283.37,78.23L283.73,91.58L284.09,90.98L284.45,84.01L285.9,67.15L286.26,84.96L286.63,90.95L286.99,74.64L287.35,83.35L287.71,82.29L288.08,80.54L289.16,97.92L289.53,83.29L289.89,80.78L290.25,91.12L290.97,80.58L291.34,81.9L291.7,91.08L292.42,73.84L292.79,80.79L293.15,87.04L293.51,81.18L293.87,81.77L294.24,88.45L294.6,75.38L295.32,73.86L295.69,86.49L296.05,88.27L296.41,94.22L296.77,96.12L297.13,82.29L297.5,84.02L297.86,83.35L298.22,83.45L299.31,107.85L299.67,95.66L300.76,79.57L301.12,92.54L301.48,93.82L301.85,105.28L302.21,86.85L302.57,92.12L302.93,90.16L304.02,93.76L304.38,112.6L305.47,103.32L305.83,99.78L306.19,78.4L306.56,84.59L306.92,97.32L308.01,83.22L308.37,91.05L308.73,71.2L309.09,74.61L309.46,93.19L310.18,76.82L310.54,82.53L310.9,89.17L311.27,86.82L311.63,84.96L311.99,98.13L312.35,82.58L312.72,96.14L313.08,93.11L313.44,94.83L314.53,124.25L314.89,106.02L315.62,112.4L315.98,102.82L316.7,93.55L317.06,111.86L318.15,83.72L318.51,86.09L318.88,77.65L319.6,100.99L319.96,99L320.33,90.27L320.69,90.3L321.05,88.9L321.41,87.24L321.78,89.89L322.14,96.57L322.5,88.91L323.22,88.47L323.59,91.92L324.31,82.16L324.67,92.14L325.04,84.08L325.4,85.74L325.76,87.38L326.12,86.22L326.49,79.98L326.85,79.55L327.21,89.6L327.94,78.23L328.3,86.09L329.75,97.43L330.11,82.47L330.83,89.85L331.2,82.67L331.56,79.12L331.92,85.33L332.28,98.9L332.65,93.72L333.01,96.88L333.73,89.37L334.1,101.53L334.46,88.34L334.82,101.57L335.18,88.84L335.54,86.39L336.27,89.34L336.63,79.47L337.36,103.44L337.72,86.21L338.08,88.93L338.44,84.4L339.17,86.09L339.53,93.27L339.89,105.78L340.26,89.79L340.62,85.59L340.98,86.23L341.34,89.33L342.43,107.98L342.79,100.24L343.15,104.07L343.52,99.01L344.24,91.78L344.6,81.7L344.97,89.34L345.33,80.39L346.05,78.9L346.42,84L347.14,73.9L347.5,91.6L347.87,73.38L348.23,74.84L348.59,76.26L348.95,71.05L349.31,84.55L350.4,72.49L350.76,72.62L351.13,73.67L352.21,127.58L352.58,120.21L352.94,115.79L354.03,93.17L354.39,106.23L354.75,94.86L355.11,98.88L355.47,97L356.56,110.52L356.92,102.31L357.29,108.94L357.65,107.47L358.01,93.1L358.37,96L358.74,95.58L359.1,93.44L359.46,85.34L359.82,97.01L360.19,103.71L360.55,92.22L361.27,89.41L361.63,90.87L362,92.49L362.36,101.75L363.08,85.48L363.45,90.45L363.81,89.7L364.17,89.14L364.53,89.67L364.9,94.28L365.26,102.01L365.62,93.8L365.98,94.62L366.35,89.1L366.71,92.57L367.07,95.04L367.43,94.71L367.79,102.27L368.52,92.67L368.88,97.72L369.61,90.37L369.97,91.36L370.33,100.51L371.06,89.78L371.42,92.35L371.78,94.72L372.14,112.98L372.87,121.56L373.23,115.92L373.96,112.94L374.32,113.58L374.68,102.86L375.04,113.84L375.4,113L375.77,97.07L376.13,92.86L376.49,105.16L376.85,98.75L377.22,107.35L377.58,110.32L377.94,109.95L378.3,101.37L378.67,93.25L379.03,101.91L379.39,101.18L379.75,86.4L380.48,96.09L380.84,92.81L381.2,92.23L381.56,99.88L381.93,103.28L382.29,96.18L383.01,105.58L383.38,99.44L384.1,105.9L384.46,104.44L384.83,102.77L385.55,152.18L385.91,122.67L386.28,127L386.64,112.46L387,111.08L387.36,102.63L388.09,136.7L388.45,106.52L388.81,105.55L389.17,112.33L390.62,148.55L390.99,145.7L391.71,152.37L392.07,151.07L392.44,167.5L393.16,162.03L393.52,190.23L393.88,284.36L394.25,232.18L394.61,94.22L395.33,88.07L395.7,97.21L396.42,92.29L396.78,96.25L397.15,106.38L397.51,94.69L398.6,89.55L398.96,89.74L399.32,93.38L399.68,83.1L400.41,101.08L400.77,76.96L401.13,84.95L401.49,81.36L401.86,82.34L403.67,71.64L404.03,64.87L404.76,68.08L405.12,77.09L405.48,77.87L405.84,71.75L406.21,78.35L406.57,73.29L406.93,74.24L407.29,70.28L407.65,78.78L408.02,75.5L408.38,82.4L409.83,75.85L410.19,82.15L410.55,82.49L411.28,73.69L411.64,72.36L412,76.11L413.45,99.95L413.81,91.43L414.18,90.72L414.54,91.58L414.9,84.33L415.26,78.91L415.63,87.26L416.71,71.78L417.08,82.97L417.44,81.46L417.8,73.69L418.16,86.79L418.53,79.87L418.89,75L419.25,76.05L419.61,75.04L419.97,72.83L420.34,70.65L420.7,70.72L421.06,74.08L421.79,64L422.15,73.95L422.51,75.09L422.87,80L423.6,87.32L423.96,75.57L424.32,80.15L424.69,80.02L425.05,76.56L425.77,121.25L426.13,114.85L426.5,89.48L427.58,100.6L427.95,88.48L428.67,93.49L429.03,90.73L430.12,79.6L430.48,99.96L431.57,83.84L431.93,87.03L432.29,88.01L432.66,87.37L433.02,92.78L433.38,86.16L433.74,93.11L434.11,88.21L434.47,82.2L434.83,82.99L435.19,84.61L435.56,79.11L435.92,79.53L436.28,85.68L437.37,73.22L437.73,81.49L438.82,96.73L439.18,82.32L439.54,71.74L439.9,76.62L440.27,78.09L440.63,81.6L440.99,101.01L441.72,79.97L442.08,85.27L442.44,79.78L443.17,70.03L443.53,83.18L443.89,82.31L444.25,59.44L444.62,73.64L445.34,72.84L445.7,78.8L446.43,84.7L446.79,76.39L447.51,81.88L447.88,76.67L448.6,86.54L448.96,85.25L449.33,82.41L449.69,78.91L450.05,83.67L451.5,94.97L451.86,87.35L452.22,67.86L452.59,72.13L452.95,77.06L453.31,72.88L453.67,90.93L454.04,88.36L454.4,79.3L454.76,88.32L455.12,86.95L455.49,85.51L456.57,94.87L456.94,91.89L457.3,91.88L457.66,88.26L458.02,94.61L458.75,83.62L459.11,86.22L459.47,84.29L459.83,83.97L460.2,85.91L460.56,86.62L460.92,84.32L461.28,82.62L461.65,88.92L463.46,73.09L463.82,75.37L464.18,91.64L464.54,86.58L464.91,81.97L465.27,80.84L465.63,84.72L466.72,97.99L467.08,91.48L468.17,88.17L468.53,67.79L468.89,69.91L469.26,84.41L469.62,84.23L469.98,87.56L470.71,75.27L471.07,88.85L471.79,116.56L472.15,105.31L472.52,113.96L473.6,118.53L473.97,114.3L474.33,126.67L474.69,123.27L475.05,120.49L475.78,130.38L476.14,112.24L476.5,106.97L476.87,126.5L478.31,97.75L478.68,103.06L479.04,104.82L479.4,113.53L480.13,113.27L480.49,113.43L481.21,105.24L481.58,109.27L481.94,114.04L482.3,112.01L482.66,109.78L483.39,110.29L483.75,105.06L484.11,107.98L484.47,102.89L485.2,108.39L485.56,99.78L485.92,101.7L486.29,100.22L486.65,100.43L487.01,104.91L487.37,100.39L487.74,99.28L488.46,108.84L488.82,101.78L489.19,92.25L489.55,109.89L489.91,107L490.27,109.71L490.63,107.88L491,109.27L491.36,100.93L491.72,84.6L492.08,101.26L492.45,100.62L492.81,97.5L493.17,102.21L493.53,99.88L493.9,87.69L494.26,87.12L494.62,102.17L496.07,91.74L496.43,81.95L496.79,72.41L497.16,87.25L498.24,93.83L498.61,97.46L498.97,96.05L499.33,85.07L499.69,112.19L500.06,103.01L500.42,101.46L501.14,103.92L501.51,95.03L501.87,87.8L502.23,106.98L503.32,95.3L503.68,99.58L504.04,86.86L504.4,94.81L504.77,93.1L505.13,101.3L505.49,96.98L505.85,100.12L506.22,106.21L506.58,79.56L507.3,106.4L507.67,97.84L508.03,98.17L508.39,93.78L508.75,100.51L509.12,93.21L509.48,99.09L509.84,104.33L510.2,107.99L510.56,106.25L510.93,104.05L511.65,92.41L512.01,97.45L512.38,98.38L512.74,88.95L513.1,86.83L513.46,91.61L513.83,94.7L514.19,93.26L514.55,106.29L515.28,96.47L515.64,90.5L516,103.43" style="vector-effect: non-scaling-stroke; fill: none; stroke: rgb(0, 204, 150); stroke-opacity: 1; stroke-width: 2px; opacity: 1;"/></g><g class="points"/><g class="text"/></g></g></g><g class="overplot"/><path class="xlines-above crisp" d="M0,0" style="fill: none;"/><path class="ylines-above crisp" d="M0,0" style="fill: none;"/><g class="overlines-above"/><g class="xaxislayer-above"><g class="xtick"><text text-anchor="middle" x="0" y="433" transform="translate(80,0)" style="font-family: 'Open Sans', verdana, arial, sans-serif; font-size: 12px; fill: rgb(42, 63, 95); fill-opacity: 1; white-space: pre;">2017</text></g><g class="xtick"><text text-anchor="middle" x="0" y="433" transform="translate(212.26,0)" style="font-family: 'Open Sans', verdana, arial, sans-serif; font-size: 12px; fill: rgb(42, 63, 95); fill-opacity: 1; white-space: pre;">2018</text></g><g class="xtick"><text text-anchor="middle" x="0" y="433" transform="translate(344.52,0)" style="font-family: 'Open Sans', verdana, arial, sans-serif; font-size: 12px; fill: rgb(42, 63, 95); fill-opacity: 1; white-space: pre;">2019</text></g><g class="xtick"><text text-anchor="middle" x="0" y="433" transform="translate(476.78,0)" style="font-family: 'Open Sans', verdana, arial, sans-serif; font-size: 12px; fill: rgb(42, 63, 95); fill-opacity: 1; white-space: pre;">2020</text></g></g><g class="yaxislayer-above"><g class="ytick"><text text-anchor="end" x="79" y="4.199999999999999" transform="translate(0,392.4)" style="font-family: 'Open Sans', verdana, arial, sans-serif; font-size: 12px; fill: rgb(42, 63, 95); fill-opacity: 1; white-space: pre;">0.58</text></g><g class="ytick"><text text-anchor="end" x="79" y="4.199999999999999" transform="translate(0,353.94)" style="font-family: 'Open Sans', verdana, arial, sans-serif; font-size: 12px; fill: rgb(42, 63, 95); fill-opacity: 1; white-space: pre;">0.6</text></g><g class="ytick"><text text-anchor="end" x="79" y="4.199999999999999" transform="translate(0,315.49)" style="font-family: 'Open Sans', verdana, arial, sans-serif; font-size: 12px; fill: rgb(42, 63, 95); fill-opacity: 1; white-space: pre;">0.62</text></g><g class="ytick"><text text-anchor="end" x="79" y="4.199999999999999" transform="translate(0,277.03)" style="font-family: 'Open Sans', verdana, arial, sans-serif; font-size: 12px; fill: rgb(42, 63, 95); fill-opacity: 1; white-space: pre;">0.64</text></g><g class="ytick"><text text-anchor="end" x="79" y="4.199999999999999" transform="translate(0,238.58)" style="font-family: 'Open Sans', verdana, arial, sans-serif; font-size: 12px; fill: rgb(42, 63, 95); fill-opacity: 1; white-space: pre;">0.66</text></g><g class="ytick"><text text-anchor="end" x="79" y="4.199999999999999" transform="translate(0,200.12)" style="font-family: 'Open Sans', verdana, arial, sans-serif; font-size: 12px; fill: rgb(42, 63, 95); fill-opacity: 1; white-space: pre;">0.68</text></g><g class="ytick"><text text-anchor="end" x="79" y="4.199999999999999" transform="translate(0,161.67000000000002)" style="font-family: 'Open Sans', verdana, arial, sans-serif; font-size: 12px; fill: rgb(42, 63, 95); fill-opacity: 1; white-space: pre;">0.7</text></g><g class="ytick"><text text-anchor="end" x="79" y="4.199999999999999" transform="translate(0,123.21000000000001)" style="font-family: 'Open Sans', verdana, arial, sans-serif; font-size: 12px; fill: rgb(42, 63, 95); fill-opacity: 1; white-space: pre;">0.72</text></g></g><g class="overaxes-above"/></g></g><g class="polarlayer"/><g class="ternarylayer"/><g class="geolayer"/><g class="funnelarealayer"/><g class="pielayer"/><g class="treemaplayer"/><g class="sunburstlayer"/><g class="glimages"/><defs id="topdefs-09cb37"><g class="clips"/><clipPath id="legend09cb37"><rect width="82" height="83" x="0" y="0"/></clipPath></defs><g class="layer-above"><g class="imagelayer"/><g class="shapelayer"/></g><g class="infolayer"><g class="legend" pointer-events="all" transform="translate(606.32, 100)"><rect class="bg" shape-rendering="crispEdges" style="stroke: rgb(68, 68, 68); stroke-opacity: 1; fill: rgb(255, 255, 255); fill-opacity: 1; stroke-width: 0px;" width="82" height="83" x="0" y="0"/><g class="scrollbox" transform="translate(0, 0)" clip-path="url('#legend09cb37')"><text class="legendtitletext" text-anchor="start" x="2" y="15.600000000000001" style="font-family: 'Open Sans', verdana, arial, sans-serif; font-size: 12px; fill: rgb(42, 63, 95); fill-opacity: 1; white-space: pre;">Oceania</text><g class="groups"><g class="traces" transform="translate(0, 30.1)" style="opacity: 1;"><text class="legendtext" text-anchor="start" x="40" y="4.680000000000001" style="font-family: 'Open Sans', verdana, arial, sans-serif; font-size: 12px; fill: rgb(42, 63, 95); fill-opacity: 1; white-space: pre;">Global</text><g class="layers" style="opacity: 1;"><g class="legendfill"/><g class="legendlines"><path class="js-line" d="M5,0h30" style="fill: none; stroke: rgb(99, 110, 250); stroke-opacity: 1; stroke-width: 2px;"/></g><g class="legendsymbols"><g class="legendpoints"/></g></g><rect class="legendtoggle" x="0" y="-9.5" width="76.09375" height="19" style="fill: rgb(0, 0, 0); fill-opacity: 0;"/></g><g class="traces" transform="translate(0, 49.1)" style="opacity: 1;"><text class="legendtext" text-anchor="start" x="40" y="4.680000000000001" style="font-family: 'Open Sans', verdana, arial, sans-serif; font-size: 12px; fill: rgb(42, 63, 95); fill-opacity: 1; white-space: pre;">au</text><g class="layers" style="opacity: 1;"><g class="legendfill"/><g class="legendlines"><path class="js-line" d="M5,0h30" style="fill: none; stroke: rgb(239, 85, 59); stroke-opacity: 1; stroke-width: 2px;"/></g><g class="legendsymbols"><g class="legendpoints"/></g></g><rect class="legendtoggle" x="0" y="-9.5" width="76.09375" height="19" style="fill: rgb(0, 0, 0); fill-opacity: 0;"/></g><g class="traces" transform="translate(0, 68.1)" style="opacity: 1;"><text class="legendtext" text-anchor="start" x="40" y="4.680000000000001" style="font-family: 'Open Sans', verdana, arial, sans-serif; font-size: 12px; fill: rgb(42, 63, 95); fill-opacity: 1; white-space: pre;">nz</text><g class="layers" style="opacity: 1;"><g class="legendfill"/><g class="legendlines"><path class="js-line" d="M5,0h30" style="fill: none; stroke: rgb(0, 204, 150); stroke-opacity: 1; stroke-width: 2px;"/></g><g class="legendsymbols"><g class="legendpoints"/></g></g><rect class="legendtoggle" x="0" y="-9.5" width="76.09375" height="19" style="fill: rgb(0, 0, 0); fill-opacity: 0;"/></g></g></g><rect class="scrollbar" rx="20" ry="3" width="0" height="0" style="fill: rgb(128, 139, 164); fill-opacity: 1;" x="0" y="0"/></g><g class="g-gtitle"/><g class="g-xtitle"><text class="xtitle" x="338" y="461.8" text-anchor="middle" style="font-family: 'Open Sans', verdana, arial, sans-serif; font-size: 14px; fill: rgb(42, 63, 95); opacity: 1; font-weight: normal; white-space: pre;">Date</text></g><g class="g-ytitle"><text class="ytitle" transform="rotate(-90,30.418750000000003,260)" x="30.418750000000003" y="260" text-anchor="middle" style="font-family: 'Open Sans', verdana, arial, sans-serif; font-size: 14px; fill: rgb(42, 63, 95); opacity: 1; font-weight: normal; white-space: pre;">danceability</text></g></g></svg>