<svg class="main-svg" xmlns="http://www.w3.org/2000/svg" xmlns:xlink="http://www.w3.org/1999/xlink" width="700" height="500" style="" viewBox="0 0 700 500"><rect x="0" y="0" width="700" height="500" style="fill: rgb(255, 255, 255); fill-opacity: 1;"/><defs id="defs-701134"><g class="clips"><clipPath id="clip701134xyplot" class="plotclip"><rect width="472" height="320"/></clipPath><clipPath class="axesclip" id="clip701134x"><rect x="80" y="0" width="472" height="500"/></clipPath><clipPath class="axesclip" id="clip701134y"><rect x="0" y="100" width="700" height="320"/></clipPath><clipPath class="axesclip" id="clip701134xy"><rect x="80" y="100" width="472" height="320"/></clipPath></g><g class="gradients"/></defs><g class="bglayer"><rect class="bg" x="80" y="100" width="472" height="320" style="fill: rgb(229, 236, 246); fill-opacity: 1; stroke-width: 0;"/></g><g class="layer-below"><g class="imagelayer"/><g class="shapelayer"/></g><g class="cartesianlayer"><g class="subplot xy"><g class="layer-subplot"><g class="shapelayer"/><g class="imagelayer"/></g><g class="gridlayer"><g class="x"><path class="xgrid crisp" transform="translate(200.98000000000002,0)" d="M0,100v320" style="stroke: rgb(255, 255, 255); stroke-opacity: 1; stroke-width: 1px;"/><path class="xgrid crisp" transform="translate(321.97,0)" d="M0,100v320" style="stroke: rgb(255, 255, 255); stroke-opacity: 1; stroke-width: 1px;"/><path class="xgrid crisp" transform="translate(442.95,0)" d="M0,100v320" style="stroke: rgb(255, 255, 255); stroke-opacity: 1; stroke-width: 1px;"/></g><g class="y"><path class="ygrid crisp" transform="translate(0,406.13)" d="M80,0h472" style="stroke: rgb(255, 255, 255); stroke-opacity: 1; stroke-width: 1px;"/><path class="ygrid crisp" transform="translate(0,337.19)" d="M80,0h472" style="stroke: rgb(255, 255, 255); stroke-opacity: 1; stroke-width: 1px;"/><path class="ygrid crisp" transform="translate(0,268.25)" d="M80,0h472" style="stroke: rgb(255, 255, 255); stroke-opacity: 1; stroke-width: 1px;"/><path class="ygrid crisp" transform="translate(0,199.31)" d="M80,0h472" style="stroke: rgb(255, 255, 255); stroke-opacity: 1; stroke-width: 1px;"/><path class="ygrid crisp" transform="translate(0,130.36)" d="M80,0h472" style="stroke: rgb(255, 255, 255); stroke-opacity: 1; stroke-width: 1px;"/></g></g><g class="zerolinelayer"/><path class="xlines-below"/><path class="ylines-below"/><g class="overlines-below"/><g class="xaxislayer-below"/><g class="yaxislayer-below"/><g class="overaxes-below"/><g class="plot" transform="translate(80, 100)" clip-path="url('#clip701134xyplot')"><g class="scatterlayer mlayer"><g class="trace scatter tracec4f2d1" style="stroke-miterlimit: 2; opacity: 1;"><g class="fills"/><g class="errorbars"/><g class="lines"><path class="js-line" d="M0,75.23L0.99,69.34L1.33,69.21L2.32,62L2.65,60.37L3.31,79.53L3.65,75.85L3.98,77.1L4.31,82.23L4.64,76.96L4.97,76.04L5.3,79.4L5.63,78.63L5.97,69.01L6.63,85L6.96,84.86L7.29,74.48L7.62,77.64L7.96,77.52L8.29,74.92L8.62,70.5L8.95,81.85L9.94,68.2L10.28,70.81L10.94,76.03L11.27,75.68L11.6,68.22L11.93,65.01L12.26,69.93L12.6,68.93L12.93,62.75L13.92,81.11L14.25,68.93L14.58,61.2L14.92,66.48L15.25,69.3L15.91,86.63L16.24,82.35L16.57,86.18L16.9,73.25L17.24,74.11L17.9,76.5L18.23,68.15L18.56,72.88L18.89,84.39L19.22,71.78L19.56,75.25L19.89,75.05L20.22,68.48L20.55,76.73L20.88,74.64L21.21,70.9L21.54,74.41L21.88,80.05L22.21,79.46L22.54,88.4L22.87,93.36L23.2,92.06L23.53,90.45L23.87,90.43L24.2,98.6L24.53,96.45L24.86,98.88L25.19,101.78L26.19,96.5L26.52,95.83L26.85,92.15L27.18,103.5L27.51,107.64L27.84,105.36L28.17,105.33L28.84,100.94L29.17,101.38L29.5,107.53L29.83,110.7L30.16,110.52L30.49,105.08L30.83,106.63L31.16,105.93L31.49,105.77L31.82,109.24L32.15,106.04L32.48,102.48L33.15,106.57L33.48,102.71L34.47,80.31L34.8,84.18L35.13,91.53L35.47,82.93L36.13,83.51L36.46,80.55L36.79,84.17L37.12,81.17L37.46,81.38L37.79,78.27L38.12,84.15L38.45,82.98L38.78,100.46L39.11,99.84L39.44,97.07L40.44,86.09L40.77,86.78L41.1,43.34L41.43,39.21L41.76,68.36L42.1,65.73L42.43,73.92L44.42,96.19L44.75,91.93L45.08,94.76L45.41,78.66L46.4,106.17L46.74,98.69L47.07,103.3L47.4,101.77L47.73,100.34L48.06,119.61L48.39,111.87L48.72,109.7L49.06,102.97L50.05,111.29L50.71,119.09L51.04,110.27L51.38,111.11L51.71,108.09L52.04,109.36L52.37,106.24L52.7,110.7L53.03,106.31L53.37,109.12L53.7,108.78L54.03,109.69L54.36,110.12L54.69,108.3L55.35,107.07L55.69,107.61L56.02,107.91L56.35,107.1L56.68,98.24L57.34,110.89L57.67,108.21L58.01,102.5L58.67,106.13L59,103.04L59.33,103.03L59.66,107.18L60.33,102.46L60.66,104.45L61.32,109.04L61.65,106.07L62.31,105.54L62.65,101.77L62.98,106.07L63.31,105.69L63.64,104.13L64.3,99.58L64.63,103.99L64.97,101.89L65.3,106.3L65.63,104.97L65.96,106.84L66.62,122.87L66.96,119.72L67.29,112.52L67.62,115.07L67.95,106.54L69.28,115.99L69.61,112.86L70.27,117.82L70.6,117.57L70.93,114.32L71.6,123.23L71.93,119.9L72.26,119.15L72.59,115.44L73.25,114.29L73.58,130.2L75.24,106.97L75.57,106.05L76.24,118.5L76.57,112.51L76.9,110.09L77.23,109.06L77.56,104.58L77.89,107.25L78.22,159.7L79.22,152.28L79.55,144.02L80.88,136.31L81.21,138.24L81.87,138.63L82.2,134.91L82.53,135.86L82.87,145.85L83.2,140.34L83.53,138.49L83.86,142.66L84.19,137.52L84.52,140.65L85.19,144.32L85.52,141.81L86.18,151.7L86.51,148.92L86.84,145.51L87.17,150.11L87.51,141.82L87.84,138.45L88.17,143.33L89.49,136.31L89.83,131.65L90.49,136.29L90.82,140.28L91.48,132.24L91.81,132.59L92.15,149.45L92.81,129.52L93.14,138.85L93.47,136.33L93.8,134.84L94.13,129.73L94.8,132.26L95.13,125.85L96.12,132.71L96.46,130.86L96.79,143.89L97.12,132.01L97.45,132.18L97.78,136.4L98.44,135.72L98.78,136.45L99.11,137.19L99.44,123.7L99.77,123.49L100.1,133.49L101.1,128.33L101.43,135.21L101.76,133.73L102.09,125.36L102.42,130.44L102.75,128.81L103.08,123.84L104.08,111L104.41,116.35L105.07,113.68L105.4,118.14L105.74,119.94L106.07,127.61L106.4,126.29L106.73,121.81L107.39,123.83L107.72,124.81L108.06,124.24L108.39,132.31L109.05,137.47L109.38,135.02L109.71,132.78L110.38,133.79L110.71,150.91L111.37,169.61L111.7,160.33L112.03,149.51L112.37,147.29L112.7,148.6L113.03,134.17L113.69,166.34L114.02,141.72L114.69,144.39L115.02,152.55L115.35,120.87L116.01,128.15L116.34,118.45L116.67,118.34L117.01,131.09L118,188.07L118.33,234.14L118.66,252.4L118.99,144.45L119.66,125.34L119.99,128.39L120.32,118.88L120.65,130.22L120.98,123.6L121.31,116.36L121.65,118.84L121.98,112.94L122.31,108.07L122.64,111L122.97,115.54L123.3,122.34L123.63,114.61L123.97,111.88L124.3,113.18L124.63,127.92L125.29,116.51L125.62,123.37L126.62,114.18L126.95,123.07L127.28,124.33L127.61,118.35L128.94,126.44L129.27,92.68L130.6,112.21L130.93,116.07L131.26,114.81L131.59,110.17L131.92,109.37L132.25,110.06L132.58,118.59L132.92,121.7L133.25,119.98L133.58,119.78L134.24,133.24L134.57,127.6L134.9,133.03L135.24,119.69L135.57,116.63L135.9,120.41L136.23,134.38L136.56,126.62L137.22,128.63L137.56,129.29L138.22,128.74L138.55,145.73L138.88,141.47L139.21,141.7L139.88,147.16L140.21,141.15L140.54,139.08L140.87,150.54L141.2,146.84L141.53,148.31L141.87,151.32L142.86,141.42L143.19,163.47L143.85,149.31L144.19,149.58L144.52,148.24L145.18,141.23L145.51,207.03L147.5,163.07L147.83,175.69L148.49,156.97L149.16,157.54L149.49,162.7L150.15,154.36L150.81,154.95L151.15,155.31L151.81,150.95L152.14,154.06L152.47,159.41L152.8,159.29L153.13,153.07L153.8,153.53L154.13,152.25L154.79,154.53L155.12,153.57L155.46,148.33L156.45,163.77L156.78,160.46L157.44,150.67L157.78,160.19L158.11,158.93L158.44,160.95L158.77,159.77L159.1,153.41L159.43,153.02L159.76,162.89L160.76,154.23L161.09,158.76L161.42,160.33L161.75,160.05L162.08,165.3L163.08,153.59L163.41,155.12L163.74,156.93L164.07,155.24L164.4,154.88L165.07,157.32L165.4,148.42L166.06,144.71L166.39,138.19L167.06,134.18L167.39,141.41L168.05,141.15L168.38,143.03L168.71,178.72L169.04,179.78L169.38,160.85L170.04,161.3L170.37,158.33L170.7,170.86L171.03,165.66L171.7,165.91L172.03,165.15L172.36,167.2L172.69,166.36L173.02,162.01L174.35,171.83L174.68,170.95L175.01,166.61L175.34,168.26L175.67,177.88L176.01,158.9L176.34,164.56L176.67,178.56L177,274.03L177.33,244.63L177.66,216.42L177.99,219.95L178.33,204.95L180.31,181.62L180.65,181.71L180.98,180.39L181.31,186.61L182.3,174.95L182.63,186.28L182.97,186.92L183.3,185.34L183.96,179.43L184.29,175.74L184.62,169.93L184.96,176.12L185.29,177.74L185.62,169.77L185.95,178.84L186.28,174.75L186.61,178.35L186.94,163.71L187.94,169.52L188.27,178.72L189.26,162.64L189.6,176.76L190.26,171.88L190.59,180.89L190.92,178.24L191.25,165.93L191.58,163.64L191.92,181.99L192.25,186.34L192.58,179.88L194.24,202.78L194.57,187.92L195.56,197.31L195.89,183.11L196.56,202.18L196.89,192.72L197.22,188.17L198.21,194.66L198.54,192.98L199.21,170.61L199.54,171.31L199.87,177.71L200.2,180.23L200.53,175.85L200.87,173.19L201.2,182.67L201.86,167.1L202.19,173.3L202.52,173.14L202.85,166.72L203.19,163.49L203.52,167.86L203.85,160.55L204.18,166.22L204.51,169.28L205.17,156.72L205.51,157.86L205.84,168.88L206.17,167.38L206.5,157.45L206.83,167.81L207.16,160.48L207.49,160.56L207.83,156.37L208.16,157.13L208.49,165.87L208.82,159.81L209.15,167.98L209.48,169.14L209.81,163.03L210.15,165.4L210.48,126.43L210.81,129.72L211.14,150.65L211.47,140.27L211.8,152.06L212.13,155.12L212.47,159.48L212.8,182.3L213.79,162.58L214.12,158.27L214.46,158.48L214.79,165.14L215.45,174.76L215.78,172.46L216.11,160.51L216.78,168.11L217.11,175.6L217.44,202.53L217.77,187.8L218.1,181.61L218.76,176.65L219.1,180.93L219.76,199.31L220.09,198.58L220.42,193.52L220.75,198.36L221.08,189.33L221.42,181.86L221.75,186.47L222.08,197.59L222.41,193.4L222.74,197.31L223.07,201.06L224.07,195.24L224.4,215.77L225.06,202.4L225.39,205.28L225.72,205.02L226.06,213.3L226.39,203.56L226.72,184.04L228.38,208.09L228.71,208.13L231.03,237.59L231.36,234.15L232.02,247.1L232.35,241.06L232.69,225.98L233.02,233.84L233.35,236.33L233.68,265.77L234.01,261.45L234.34,256.68L234.67,257.15L235.01,259.91L235.34,259.9L235.67,249.18L236,257L236.33,250.04L236.66,250.18L237.33,245.39L237.66,245.79L237.99,241.23L238.32,222.58L238.65,250.66L239.65,270.03L239.98,237.56L240.31,211.24L240.64,216.21L240.97,221.75L241.3,223.81L241.63,203.53L241.97,214.83L242.63,213.01L242.96,217.28L243.62,226.6L243.96,215.43L244.29,220.03L244.62,217.67L244.95,215.1L245.94,230.24L246.28,222.7L246.61,218.67L246.94,220.76L247.27,224.89L247.6,224.39L247.93,233.26L248.26,231.79L248.6,218.43L249.26,223.4L249.59,222.58L249.92,220.32L250.25,233.93L250.58,230.68L250.92,225.64L251.25,224.56L251.58,226.18L252.24,223.51L252.57,232.98L254.23,216.72L254.56,210.41L254.89,218.53L255.22,208.96L255.56,211.85L255.89,211.42L256.22,202.17L256.55,186.15L256.88,194.37L257.21,191.02L258.21,203.99L258.54,203.87L258.87,200.32L259.2,206.18L259.53,187.8L260.53,200.91L260.86,199.28L261.19,190.84L261.52,193.3L261.85,185.86L262.52,185.09L262.85,187.47L264.84,207.26L265.17,206.08L265.83,202.42L266.16,213.22L266.49,212.87L266.83,210.25L267.16,219.04L267.49,216.26L267.82,215.07L268.15,211.27L268.48,224.14L268.81,208.96L269.15,212.03L269.48,216.98L269.81,206.54L270.14,209.96L270.47,215.43L271.47,209.34L271.8,213.39L272.13,214.86L272.46,210.74L272.79,207.81L273.12,190.01L274.12,220.17L274.45,217.61L275.44,205.57L275.78,205.62L276.11,202.87L276.44,211.86L276.77,208.65L277.1,207.35L277.76,193.14L278.1,196.32L278.43,192.36L279.09,199.44L279.42,188.56L279.75,196.3L280.08,227.94L280.42,199.4L280.75,205.03L281.08,214.75L281.74,215.98L282.07,207.11L282.4,206.43L282.74,201.23L283.07,207.51L283.4,205.94L283.73,203.75L284.06,200.42L284.39,205.14L284.72,204.38L285.06,191.68L286.05,203.57L286.38,200.99L286.71,196.36L287.04,180.08L287.71,203.08L288.04,193.82L288.37,186.14L289.03,193.06L289.37,199.06L290.36,190.92L290.69,192.4L291.02,192.2L291.35,188.8L291.69,194.94L292.02,190.98L292.35,192.41L292.68,192.65L293.34,187.12L293.67,192.31L294.01,212.05L294.34,194.65L294.67,184.82L295.33,193.61L295.66,189.44L295.99,189.77L296.33,198.27L296.99,186.6L297.32,192.61L297.65,192.95L297.98,189.16L298.31,187.86L298.65,209.62L299.31,202.93L299.64,210.23L300.3,204.59L300.63,190.75L300.97,181.62L301.3,188.5L301.63,187.15L302.29,184.76L302.62,187.39L302.96,185.12L303.29,222.34L304.28,206.56L304.61,209.28L305.28,199.27L305.61,206.09L306.27,203.7L306.6,205.57L306.93,208.35L307.26,205.82L307.6,199.93L308.26,200.14L308.59,194.18L308.92,197.3L309.25,192.89L309.58,193.16L309.92,194.84L310.58,177.01L310.91,184.16L311.57,180.99L311.9,184.8L312.24,186.85L312.57,162.82L313.89,189.42L314.22,177.15L314.56,178.11L314.89,168.82L315.55,202.17L315.88,200.4L316.21,207.2L316.54,202.36L317.21,203.19L317.54,204.22L318.87,212.68L319.2,211.41L319.86,215.25L320.19,209.29L320.85,214.71L321.19,204.35L321.52,208.75L321.85,95.28L322.84,198.5L323.17,194.41L323.51,208.43L324.17,213.22L324.5,209.71L325.16,242.69L325.49,232.86L325.83,237.41L326.16,232.57L326.49,240.72L326.82,240.12L327.15,237.62L327.48,240.59L328.15,239.99L328.48,239.14L328.81,245.14L329.14,236.58L329.47,231.16L329.8,237.68L330.13,236.36L330.8,232.92L331.13,256.26L331.79,229.63L332.12,238.33L332.46,234.04L332.79,236.66L333.12,231.78L333.45,247.47L333.78,240.22L334.11,237.31L334.44,240.35L334.78,237.15L335.11,238.32L335.44,235.59L335.77,237.07L336.1,244.46L336.43,244.81L336.76,237.64L337.1,236.07L337.43,240.68L337.76,236.96L338.09,245.62L339.08,253.81L339.42,247.01L341.07,278.88L341.4,276.31L341.74,273.35L342.07,278.87L342.4,251.61L342.73,256.99L343.06,276.9L344.39,252.8L344.72,246.56L345.05,242.53L345.38,252.67L345.71,241.96L346.04,244.19L346.38,247.05L347.04,232.49L347.37,238.61L347.7,240.14L348.03,242.39L348.37,236.67L348.7,239.93L349.03,231.32L349.36,232.99L349.69,248.69L350.02,245.81L350.35,251.5L351.02,247.43L351.35,248.31L351.68,252.94L352.34,272.37L352.67,254.93L353.67,266.81L354,259.23L354.66,261.42L354.99,252.27L355.66,260.31L355.99,270.01L356.32,267.58L356.65,243.66L356.98,238.19L357.31,238.79L357.65,245.07L357.98,239.85L358.31,240.27L358.64,241.3L358.97,240.03L359.3,252.8L360.3,269.25L360.63,266.88L361.29,245.21L361.62,250.47L361.96,249.04L362.62,223.65L362.95,229.29L363.28,234.26L363.94,239.87L364.28,236.31L365.27,233.56L365.6,236.95L365.93,227.56L366.26,233.4L366.6,239.91L366.93,234.71L367.26,241.84L367.92,232.91L368.25,204.8L368.58,213.59L368.92,210.25L369.25,203.6L369.91,195.84L370.24,206.95L370.9,227.82L371.24,226.24L371.57,220.96L372.89,226.58L373.22,233.86L373.56,241.22L373.89,226.15L374.22,232.3L374.55,226.22L374.88,223.44L375.54,243.05L375.88,241.97L376.21,229.73L377.2,226.84L377.53,209.1L378.53,230.66L378.86,226L379.85,204.62L380.19,210.27L380.52,209.1L380.85,210.79L381.84,207.8L382.17,211.27L382.51,215.85L382.84,215.16L383.17,212.25L383.5,211.1L383.83,218.87L384.16,217.22L384.49,223.74L384.83,221.64L385.16,232.64L385.82,223.73L386.15,229.44L386.48,221.81L386.81,243.58L387.15,238.76L387.48,247.74L388.47,236.29L388.8,242.17L389.8,215.46L390.13,219.63L390.46,233.33L390.79,227.46L391.12,226.7L391.46,233.01L391.79,232.3L392.12,227.03L393.78,234.95L394.11,231.34L395.1,244.33L395.43,242.11L395.76,240.95L396.43,226.32L396.76,234.73L397.09,237.25L397.42,241.41L397.75,236.37L398.08,238.79L398.42,259.94L398.75,247.59L399.08,243.65L399.41,243.42L399.74,247.66L400.4,238.16L400.74,247.68L401.07,233.34L401.4,239.14L401.73,249.02L402.06,249.75L402.39,245.67L402.72,245.05L403.06,238.29L403.39,225.34L403.72,231.26L404.05,237.36L404.38,240.44L404.71,237.02L405.04,235.9L405.38,267.05L405.71,226.21L407.03,251.9L407.37,251.14L407.7,256.01L408.03,230L408.36,232.53L408.69,247.02L409.02,247.85L409.35,241.9L409.69,232.37L410.02,275.7L410.68,234.93L411.01,246.4L411.34,245.03L411.67,242.36L412.01,245.91L412.34,250.29L412.67,244.57L413,245.42L413.33,260.48L413.66,239.71L414.33,243.51L414.66,251.49L414.99,237.18L415.32,243.51L415.65,251.9L415.98,253.61L416.31,247.19L416.65,243.74L416.98,247.09L417.31,235.34L417.64,232.87L417.97,246.52L418.3,250.89L418.97,249.86L419.3,241.61L419.63,230.22L419.96,236.12L420.29,245.64L420.62,246.06L420.96,239.85L421.62,239.54L421.95,219.63L422.94,239.35L423.28,231.53L423.61,231.76L423.94,243.83L424.27,223.64L424.6,234.43L424.93,254.02L425.26,245.14L425.6,248.6L425.93,252.83L426.26,282.12L426.59,258.6L426.92,263.17L427.25,280.44L427.58,267.48L427.92,258.29L428.25,260.71L428.58,255.02L428.91,240.99L429.24,247.51L429.57,261.35L430.57,249.95L430.9,209.38L431.89,238.67L432.22,230.22L432.56,226.28L432.89,232.02L433.22,227.89L433.55,213.34L434.21,228.43L434.54,226.89L434.88,236.13L435.87,223.05L436.2,230.29L436.53,238.2L436.87,235.65L437.2,232.75L438.19,207.4L438.52,214.49L438.85,215.87L439.52,202.04L439.85,212.8L440.18,210.9L440.51,217.23L441.51,208.19L441.84,208.84L442.5,217.66L442.83,209L444.16,223.96L444.49,218.29L444.82,214.94L445.15,202.69L445.48,225.9L446.15,221.57L446.48,218.06L447.47,224.5L447.8,217.04L448.13,216.91L448.47,219.25L449.46,225.01L449.79,221.91L450.46,212.76L450.79,217.23L451.12,221.64L451.45,216.67L451.78,253.58L452.11,250.22L452.44,230.61L453.11,211.88L453.44,211.99L453.77,211.99L454.1,255.27L454.43,242.19L454.76,230.49L456.09,218.04L456.42,220.17L456.75,211.5L457.08,218.94L457.42,223.24L458.41,208.78L458.74,223.92L459.07,221.75L459.4,229.46L460.4,224.64L460.73,228.46L461.06,242.09L461.72,241.72L462.06,250.36L462.72,247.19L463.05,249.38L463.38,255.17L463.71,232.65L464.71,265.1L465.04,256.64L465.37,256.13L465.7,262.21L466.03,249.74L466.37,255.04L466.7,253.03L467.36,245.47L467.69,247L468.02,246.82L468.35,243.76L468.69,247.55L469.02,254.26L469.35,258.73L469.68,254.61L470.01,245.39L470.34,265.35L470.67,253.51L471.01,248.53L471.34,252.9L471.67,250.44L472,246.48" style="vector-effect: non-scaling-stroke; fill: none; stroke: rgb(99, 110, 250); stroke-opacity: 1; stroke-width: 2px; opacity: 1;"/></g><g class="points"/><g class="text"/></g><g class="trace scatter traceb355e0" style="stroke-miterlimit: 2; opacity: 1;"><g class="fills"/><g class="errorbars"/><g class="lines"><path class="js-line" d="M0,111.8L0.33,112.07L0.66,111.66L0.99,113L1.33,114.2L1.66,101.33L1.99,108.97L2.32,97.82L2.65,98.92L2.98,106.21L3.31,108.2L3.65,107.57L3.98,100L4.31,109.49L4.64,104.47L4.97,93.7L5.97,107.97L6.3,113.22L6.63,118.6L6.96,114.01L7.29,112.16L8.62,116.82L8.95,123.78L9.61,114.34L9.94,116.56L10.28,116.58L10.61,114.94L10.94,115.66L11.27,124.73L11.93,117.76L12.26,120.38L12.6,119.15L12.93,113.02L13.59,123.76L13.92,118.35L14.25,115.68L14.58,103.41L14.92,113.42L15.58,113.22L15.91,117.92L16.24,109.19L16.9,109.84L17.24,108.08L17.57,108.09L17.9,115.3L18.23,117.18L18.56,113.29L18.89,116.76L19.22,115.28L19.56,113.15L20.22,106.59L20.55,111.73L20.88,107.68L21.21,109L21.54,111.09L22.21,111.71L22.54,110.77L22.87,117.1L23.2,110.3L23.53,114.56L23.87,111.61L24.2,116.41L24.53,117.58L24.86,122.25L25.19,121.47L25.52,118.73L25.85,119.29L26.19,118.94L26.52,118.63L27.51,127.48L27.84,123.78L28.17,122.92L28.51,124.35L28.84,122.19L29.17,122.85L29.5,128.59L29.83,130.19L30.16,127.91L30.49,128.62L30.83,127.33L31.49,127.84L31.82,124.09L32.15,126.64L32.48,124.1L32.81,125.08L33.15,120.73L33.48,120.79L33.81,123.95L34.14,111.67L34.8,111.85L35.13,112.16L35.8,114.27L36.13,113.61L36.46,118.6L37.46,122.32L37.79,119.6L38.78,128.84L39.11,127.97L40.11,125.48L40.44,124.67L41.43,129.27L41.76,124.7L42.43,125.1L42.76,128.1L43.42,129.69L43.75,136.57L44.08,138.54L44.42,135.43L44.75,136.11L45.08,135.1L45.41,127L46.07,139.06L46.4,135.29L46.74,133.83L47.07,136.11L47.4,135.89L47.73,134.62L48.39,139L48.72,137.61L49.06,136L50.05,135.89L50.71,141.52L51.38,131.91L51.71,135.09L52.04,132.87L52.37,133.67L52.7,142.61L53.03,142.63L53.37,137.17L53.7,137.21L54.03,138.54L54.69,141.01L55.02,140.14L55.35,146.27L55.69,142.86L56.35,143.56L56.68,141.17L57.01,143.72L57.34,139.7L57.67,140.82L58.01,133.09L59,137.06L59.33,135.41L59.99,139.06L60.33,135.64L60.99,143.29L61.32,142.23L61.65,142L62.31,142.92L62.65,140.12L63.97,144.65L64.3,134.87L64.63,145.74L65.3,143.11L65.63,145.91L65.96,146.57L66.29,149.63L66.62,153.5L66.96,152.24L67.29,146.51L67.95,149.15L68.28,147.17L68.61,143.39L68.94,149.11L69.28,150.4L69.61,145.43L71.26,150.64L71.6,148.03L71.93,144.27L72.26,148.2L72.59,147.81L72.92,148.63L73.25,147.44L73.58,156.1L73.92,152.96L74.25,150.07L74.58,154.77L74.91,151.13L75.24,153.29L75.57,152.9L75.9,163.1L76.57,153.84L76.9,157.69L77.23,158.68L77.89,159.07L78.22,167.99L78.56,174.42L79.22,173.85L79.55,175.64L80.54,168.98L80.88,171.04L81.21,167.62L81.54,170.99L81.87,173.77L82.87,166.47L83.2,168.41L83.53,163.8L83.86,167.36L84.19,169.65L84.52,171.81L84.85,169.45L85.19,166.62L85.52,168.92L85.85,165.98L86.18,167.32L86.51,167.16L86.84,168.67L87.17,166.27L87.51,169.08L87.84,168.5L88.17,165.06L88.5,168.23L88.83,167.66L89.16,167.95L89.49,165.96L89.83,167.11L90.16,157.39L90.49,158.26L90.82,170.5L91.81,162.06L92.15,172.46L93.47,166.36L93.8,168.62L94.13,166.49L94.47,170.08L95.13,165.09L95.46,170.48L95.79,171.53L96.12,170.96L96.46,167.85L96.79,169.8L97.12,168.36L97.45,165.52L98.44,171.32L98.78,166.26L99.11,171.36L99.44,165.54L99.77,164.36L100.1,167.2L100.43,164.16L100.76,165.73L101.1,162.26L101.43,169.22L102.09,158.85L102.42,166.62L103.08,165.16L103.42,161.12L103.75,163.52L104.08,156.61L104.41,153.89L104.74,160.82L105.07,160.8L105.4,159.83L105.74,157.02L106.07,172.19L106.73,162.37L107.06,166.75L107.39,166L107.72,167.28L108.06,162.66L109.05,167.34L109.38,166.53L109.71,168.71L110.38,173.67L110.71,182.87L111.37,202.96L111.7,184.84L112.03,188.81L112.37,177.78L112.7,178.83L113.03,175.36L113.69,196.31L114.02,182.54L114.35,177.81L114.69,183.92L115.02,184.53L115.35,160.76L116.01,174.58L116.34,164.73L117.01,175.72L117.34,186.21L118.33,263L118.66,221.32L119.66,153.22L119.99,155.43L120.32,154.79L120.65,157.9L120.98,149.02L121.31,156.18L121.65,156.14L121.98,156.89L122.31,159.75L122.97,151.02L123.3,155.18L123.63,158.71L123.97,155.11L124.3,158.75L124.63,168.05L125.96,155.46L126.29,159.87L126.62,161.4L126.95,168.49L127.61,158.81L127.94,165.89L128.28,165.59L128.61,163.38L128.94,165.19L129.27,149.64L130.93,162.53L131.26,162.19L131.92,162.1L132.25,161.42L132.92,166.5L133.25,164.14L133.58,166.27L133.91,177.31L134.57,168.34L134.9,174.64L135.24,171.99L135.57,156.73L136.23,176.15L136.56,170.33L136.89,170.58L137.22,175.36L137.56,170.96L137.89,172.72L138.22,172.35L138.55,191.2L139.21,175L139.54,183.41L139.88,178.84L140.21,179.45L140.54,178L140.87,185.68L141.2,182.32L141.53,180.33L141.87,186.5L142.2,183.67L142.53,183.07L142.86,180.05L143.19,190.94L143.85,181.76L144.19,189.71L145.18,184.12L145.51,237.6L146.17,213.76L146.51,214.48L146.84,207.48L147.17,196.78L147.5,197.33L147.83,201.05L148.49,189.83L148.83,195L149.16,191.83L150.48,182.19L150.81,183.35L151.15,183.74L151.48,187.33L151.81,185.1L152.14,186.1L152.47,186.8L153.13,180.34L153.47,186.73L154.46,182.83L154.79,186.63L155.12,178.43L155.46,178.7L155.79,184.17L156.12,183.5L156.45,185.09L156.78,185.9L157.11,189.18L157.44,179.31L157.78,186.84L158.11,186.72L158.44,184.17L158.77,186.23L159.1,186.8L160.1,181.35L160.43,183.42L160.76,181.88L161.09,185.62L161.42,186.13L161.75,185.32L162.08,182.79L162.42,181.4L162.75,184.7L163.41,187.24L163.74,183.12L164.4,183.9L164.74,188.29L166.72,181.11L167.06,181.79L167.39,181.37L167.72,184.43L168.05,185.86L168.38,184.41L168.71,199.38L169.04,192.36L169.38,195.13L169.71,196.34L170.37,196.26L170.7,194.97L171.03,193.56L171.37,188.04L171.7,188.93L172.03,192.85L172.36,189.68L173.02,190.24L173.35,193.93L174.02,191.37L174.35,195.34L175.34,192.7L175.67,198.85L176.01,191.71L176.34,191.74L176.67,213.04L177,285.05L177.33,251.79L177.66,240.68L178.66,227.89L178.99,231.52L179.98,228.16L180.31,212.34L181.31,218.56L181.64,214.4L181.97,214.43L182.3,211.73L182.63,215.48L182.97,213.3L183.3,212.7L183.63,215.15L183.96,213.15L184.29,207.67L185.29,203.09L185.62,204.76L185.95,202.95L186.28,206.83L186.61,208.59L186.94,207.96L187.28,200.98L187.61,198.93L187.94,205.08L188.93,209.45L189.26,208.3L189.6,213.64L189.93,206.06L190.59,211.95L190.92,207.06L191.25,208.4L191.58,205.72L192.25,205.77L192.58,207.37L192.91,208.6L193.24,205.8L193.9,202.13L194.24,209.19L194.57,198.5L194.9,202.16L195.23,204.68L195.89,202.46L196.22,206.89L196.56,218.22L196.89,210.33L197.22,211.2L198.21,206.87L198.54,207.37L198.88,202.06L199.21,199.42L199.54,201.75L199.87,205.98L200.2,206.17L200.53,204.48L201.86,196.41L202.19,201.31L202.52,201.22L202.85,199.2L203.19,191.93L203.52,202.77L203.85,189.1L204.51,189.98L204.84,189.59L205.17,189L205.51,183.18L206.17,186.12L206.5,181.54L207.16,187.1L207.49,183.09L208.16,178.61L208.49,185.52L208.82,182.51L209.15,185.8L209.48,187.46L210.48,185.8L210.81,192.66L211.14,193.13L211.47,198.69L212.13,197.62L212.47,199.18L212.8,192.97L213.46,194.53L213.79,199.84L214.79,196.07L215.12,202.48L215.45,200.78L215.78,201.07L216.11,201.43L216.78,204.55L217.11,203.08L218.1,211.05L218.43,212.88L218.76,205.86L219.1,208.74L219.43,210.11L219.76,214.92L220.09,210.38L220.42,211.01L220.75,214.36L221.08,212.32L221.42,201.67L222.08,211.19L222.41,209.72L222.74,209.44L223.07,213.46L223.4,210.42L223.74,210.45L224.07,214.93L224.4,213.34L224.73,209.97L225.06,208.93L225.39,213.62L226.72,203.46L227.05,209.86L227.38,208.71L227.71,210.1L228.04,209.24L229.04,216.49L229.37,215.67L229.7,213.63L230.7,236.01L231.03,234.99L231.36,233.84L231.69,241.53L232.02,239.94L232.35,232.99L232.69,230.36L233.02,235.79L233.35,227.17L233.68,251.82L235.34,233.73L235.67,235.64L236,235.22L236.66,242.57L236.99,236.67L238.32,240.16L238.65,243.29L238.98,248.28L239.31,273.87L240.97,208.65L241.3,207.82L241.63,188.14L241.97,195.15L242.3,209.15L242.63,204.5L242.96,211.28L243.62,206.79L243.96,211.26L244.62,207.62L244.95,203.25L245.94,205.5L246.28,208.86L247.27,203.78L247.6,214.6L248.93,207.64L249.26,212.51L249.59,209.07L249.92,215.05L250.58,209.69L250.92,210.06L251.25,209.83L251.91,211.83L252.24,221.76L252.9,215.47L253.24,219.51L254.23,211.33L254.56,216.59L255.22,213.94L255.56,216.93L255.89,213.34L256.22,213.7L256.55,201.01L256.88,211.89L257.21,208.88L257.54,208.01L257.88,211.86L258.21,210.76L258.54,210.05L258.87,206.99L259.2,214.04L259.87,207.81L260.2,210.97L261.19,206.49L261.52,209.73L261.85,210.59L262.19,208.53L262.85,204.66L263.18,209.17L263.51,209.75L263.84,215.68L264.17,211.53L264.51,212.93L264.84,216.89L265.17,212.75L265.5,214.11L265.83,215.78L266.16,225.98L266.49,222.25L266.83,218.29L267.16,225.09L267.82,223.43L268.15,224.21L269.15,220.9L269.48,224.89L270.14,225.27L270.47,223.72L271.13,225.73L271.47,224.22L271.8,228.68L272.46,227.57L272.79,227.18L273.12,228.4L273.46,226.51L274.12,231.42L274.45,229.3L274.78,228.18L275.11,229.07L275.44,225.73L275.78,225.62L276.11,226.72L276.44,232L276.77,228.44L277.1,226.7L277.43,225.97L277.76,222.7L278.76,224.84L279.09,222.9L279.42,222.73L279.75,225.55L280.08,238.09L280.42,229.4L280.75,230.23L281.08,234.48L281.41,228.49L281.74,228.85L282.07,227.7L282.4,230.92L282.74,227.79L283.07,226.59L283.4,230.91L283.73,229.85L284.06,228.53L285.39,224.18L285.72,230.01L286.38,230.67L286.71,227.41L287.04,211.83L287.38,222.06L287.71,228.93L289.03,224.43L289.37,226.45L289.7,226.47L290.03,229.98L291.35,224.12L291.69,243.03L292.35,238.2L292.68,240.15L293.01,238.83L293.34,235.97L293.67,236.37L294.01,238.73L294.67,230.59L295,235.01L295.33,236.33L295.66,235.38L295.99,233.65L296.33,236.55L296.66,231.16L296.99,230.35L297.32,239.02L297.65,239.46L297.98,237L298.31,238.16L298.65,243.61L299.31,237.07L299.64,246.05L299.97,247.27L300.3,245.53L300.63,247.35L300.97,247.21L301.3,245.04L301.96,251.32L302.29,250.06L302.62,250.54L302.96,250.11L303.29,250.82L303.62,245.17L303.95,245.44L304.28,250.65L304.94,246.67L305.28,247.3L305.61,250.39L305.94,250.7L306.27,253.92L306.6,254.4L306.93,252.09L307.26,251.94L307.6,248.97L307.93,245.5L308.26,245.73L308.59,247L308.92,248.71L309.25,248.09L309.58,247.35L309.92,247.92L310.25,239.21L311.24,249.63L311.9,249.25L312.24,247.61L312.57,243.99L312.9,244.63L313.23,245.73L313.56,250.6L313.89,249.19L314.22,240.68L314.56,240.17L314.89,232.36L315.88,247.77L316.21,246.33L316.54,247.64L316.88,247.1L317.21,247.97L317.54,244.17L318.2,250.52L318.53,248.83L318.87,249.42L319.2,248.67L319.53,251.15L320.19,247.99L320.52,251.01L320.85,252.96L321.19,252.13L321.52,251.47L321.85,179.66L322.18,222.4L322.51,233.41L322.84,234.19L323.17,240.7L324.17,266.84L324.5,265.47L324.83,264.5L325.83,267.93L326.16,265.93L326.49,269.4L326.82,262.31L327.15,260.14L327.48,266.82L328.15,264.89L328.48,266.88L329.47,258.32L329.8,265.38L330.47,265.91L330.8,264.73L331.13,272.6L331.46,266.36L331.79,263.91L332.12,267.52L332.46,267.19L332.79,265.9L333.12,266.34L333.45,271.85L334.11,269.25L334.44,274.22L335.11,271.42L335.44,273.64L336.1,271.23L336.43,272.09L336.76,275.34L337.76,272.23L338.09,274.72L338.75,269.68L339.08,274.02L339.42,274.36L339.75,273.5L340.08,275.07L340.41,288.69L341.4,295.64L341.74,289.23L342.07,288.9L342.4,282.74L343.39,276.13L343.72,283.77L345.71,271.35L346.04,275.73L347.7,266.46L348.03,266.74L348.37,270.14L348.7,267.99L349.03,270.99L349.69,271.09L350.02,268.07L350.35,268.01L350.69,267.94L351.02,265.31L352.67,278.16L353.01,280.37L354,274.24L354.33,276.4L354.66,276.84L355.66,274.59L355.99,276.65L356.32,278.6L356.65,264.82L359.97,280.13L360.3,286.92L360.63,284.31L360.96,275.37L361.29,277.45L361.62,273.2L362.29,269.99L362.62,246.25L363.61,271.31L363.94,267.99L364.28,267.63L364.61,272.89L365.27,272.73L365.6,273.33L366.6,265.91L366.93,274.18L368.58,251.23L368.92,254.61L369.25,255.05L369.58,254.65L369.91,256.92L370.57,255.56L370.9,257.06L371.9,260.36L372.23,259.44L372.56,258.81L372.89,264.78L373.22,264.89L373.56,267.44L374.88,264.61L375.21,268.09L375.54,265.05L375.88,265.42L376.21,266.25L377.2,266.22L377.53,260.1L378.86,274.04L379.19,264.22L379.52,262.41L379.85,246.75L382.17,270.85L382.51,267.55L382.84,266.32L383.17,269.74L383.5,268.52L383.83,267.85L384.16,268.14L384.49,267.72L384.83,264.65L386.81,278.66L387.15,270.25L387.81,277.21L388.47,276.87L388.8,277.45L389.47,253.73L389.8,254.62L390.13,259.88L391.46,267.6L391.79,265.24L393.44,274.46L393.78,271.9L394.11,269.41L394.44,271.43L394.77,277.99L395.76,273.49L396.1,268.5L396.76,269.71L397.09,277.29L398.42,292.61L398.75,276.15L399.08,277.43L399.41,285.61L401.07,265.08L401.4,268.54L401.73,276.94L402.72,269.57L403.06,262.25L403.39,262.27L403.72,265.33L404.05,276.46L404.71,275.21L405.04,275.3L405.38,276.5L405.71,267.47L406.37,280.43L406.7,278.62L407.03,278.73L407.7,280.27L408.03,269.66L408.69,280.36L409.02,278.64L409.35,278.66L409.69,274.33L410.02,288.81L410.35,276.17L410.68,277.41L411.01,286.11L411.67,281.94L412.01,285.43L412.34,298.41L412.67,285.58L413,282.54L413.99,288.48L414.33,287.72L414.66,293.35L414.99,285.95L415.32,285.33L415.65,292.95L416.65,288.81L416.98,286.9L417.31,277.89L417.64,281.89L417.97,289.74L418.63,286.78L418.97,288.08L419.63,274.87L419.96,278.55L420.29,282.12L420.62,277.74L420.96,280.31L421.29,284.3L421.62,282.97L421.95,278.5L422.61,291.53L422.94,288.73L423.28,288.82L423.61,286.65L423.94,296.44L424.27,289.54L424.6,291.13L424.93,297.25L425.93,290.18L426.26,304L426.92,291.44L427.25,297.64L428.91,285.33L429.24,288.04L429.57,294.78L429.9,291.35L430.24,291.22L430.57,287.59L430.9,273.51L431.23,272.43L431.56,274.85L432.89,283.46L433.22,282.81L433.55,277.86L433.88,282.43L434.21,286.91L434.54,288.46L434.88,286.48L435.21,286.23L435.54,287.69L435.87,281.78L436.53,291.05L436.87,290.23L437.2,288.03L437.53,288.02L437.86,279.75L438.19,279.52L438.52,280.25L439.52,285.57L439.85,285.28L440.18,285.09L440.51,280.2L441.17,288.23L441.51,287.27L441.84,285.17L442.5,289.97L442.83,283.47L443.16,284.17L443.49,290.06L443.83,293.56L444.16,291.18L444.49,286.06L444.82,291.01L445.15,285.13L445.48,285.01L445.81,291.41L446.48,290.25L446.81,290.11L447.14,290.53L447.47,287.37L447.8,288.43L448.13,292.16L448.47,292.02L448.8,291.05L449.13,291.66L449.46,295.68L450.12,287.85L450.46,291.32L451.45,289.48L451.78,298.94L452.44,291.7L452.78,295.56L453.77,289.54L454.1,298.23L454.43,290.47L455.1,290.98L455.43,287.12L455.76,288.34L456.09,286.91L456.42,283.26L456.75,277.07L457.08,281.68L457.42,285.54L457.75,283.84L458.08,284.75L458.41,284.54L459.07,287.35L459.4,285.89L459.74,290.54L460.07,285.23L460.4,290.04L460.73,286.55L461.06,292.42L461.39,286.85L461.72,289.04L462.06,293.03L462.72,292.25L463.05,290.12L463.38,300.82L463.71,285.69L464.38,295.18L464.71,292.5L465.04,292.36L465.37,292.48L465.7,298.75L466.37,291.91L466.7,295.64L467.03,292.44L467.36,294.12L467.69,293.86L468.02,293.79L468.35,289.74L468.69,290.11L469.02,293.78L469.35,296.11L469.68,292.7L470.67,286.5L471.01,287.27L471.34,292.06L472,290.81" style="vector-effect: non-scaling-stroke; fill: none; stroke: rgb(239, 85, 59); stroke-opacity: 1; stroke-width: 2px; opacity: 1;"/></g><g class="points"/><g class="text"/></g><g class="trace scatter trace668d28" style="stroke-miterlimit: 2; opacity: 1;"><g class="fills"/><g class="errorbars"/><g class="lines"><path class="js-line" d="M0,41.68L0.33,35.36L0.66,36.85L0.99,16L1.66,29.64L1.99,22.84L2.32,24.24L2.65,31L2.98,40.82L3.31,38.12L3.65,34.38L3.98,45.3L4.31,37.87L4.64,39.8L5.63,35.16L5.97,37.66L6.3,44.86L6.63,38.32L6.96,42.74L7.62,46.22L7.96,39.38L8.29,37.19L8.62,47.62L9.28,43.61L9.61,38.01L10.94,54.13L11.27,48.09L11.93,41.31L12.26,45.71L12.6,46.54L12.93,43.97L13.26,45.55L13.59,43.18L13.92,42.55L14.25,35.75L14.58,35.2L14.92,40.68L15.25,40.4L15.58,43.54L15.91,42.61L16.24,39.34L17.57,34.21L17.9,44.09L18.23,39.85L18.56,41.48L18.89,44.63L19.22,49.09L19.56,47.22L19.89,40.3L20.22,48.06L20.55,47.25L20.88,42.29L21.21,37.06L21.54,37.47L21.88,39.58L22.21,36.32L22.54,40.93L23.53,38L23.87,42.08L24.2,43.69L24.53,40.86L25.52,51.09L25.85,50.93L26.19,53.26L26.52,49.96L27.51,41.95L27.84,45.47L29.5,25.27L29.83,26.17L30.16,28.58L30.83,27.63L31.16,33.62L31.49,32.21L31.82,35.99L32.15,31.46L32.48,35.62L32.81,34.02L33.48,30L33.81,32.3L34.14,39.92L34.47,36.11L34.8,36.83L35.8,39.9L36.13,39.53L37.12,42.26L37.46,43.36L37.79,42.12L38.12,45.97L38.45,44.17L38.78,48.51L39.78,43.81L40.11,44.04L40.44,43.24L40.77,40.85L41.1,48.67L42.1,44.79L42.43,45.12L42.76,47.11L43.09,44.31L44.08,51.53L44.42,44.7L44.75,43.68L45.08,43.8L45.41,39.98L45.74,53.5L46.07,49.55L46.4,48.67L47.4,44.43L47.73,42.23L48.72,48.6L49.06,48.09L50.05,47.42L50.71,49.61L51.04,52.34L51.38,47.29L51.71,47.37L52.04,46.48L52.37,45.12L52.7,53.51L53.03,53.12L53.37,49.96L54.03,56.25L54.36,54.21L54.69,52.06L55.02,49.4L55.35,51.15L55.69,52.16L56.68,47.56L57.01,47.02L57.34,52.06L57.67,47.67L58.01,43.44L58.34,50.06L58.67,46.38L59,46.38L59.99,49.19L60.33,46.76L60.99,45.92L61.32,47.19L61.65,43.9L61.98,46.02L62.31,45.81L62.98,46.49L63.31,48.51L63.64,49.43L63.97,48.9L64.3,41.57L64.97,46.55L65.3,45.69L65.63,48.2L65.96,48.25L66.29,41L66.62,71.5L66.96,66.11L67.29,60.11L67.95,63.13L68.28,61.03L68.61,54.51L68.94,62.71L69.28,61.78L70.27,57.69L70.6,57.58L70.93,55.39L71.26,58.82L71.6,59.5L71.93,61.85L72.26,55.61L72.59,56.03L72.92,62.34L73.25,59.29L73.58,66.36L74.58,56.06L74.91,60.15L75.24,59.81L75.57,60.28L75.9,71.98L76.9,59.23L77.23,61.99L77.56,64.22L77.89,62.44L78.22,63.38L78.89,64.48L79.22,59.27L80.54,71.84L80.88,72.01L81.21,72.68L81.54,71.73L81.87,72.02L82.53,63.67L82.87,69.96L83.53,72.9L83.86,71.14L84.19,77.79L84.52,75.28L84.85,71.48L85.19,73.4L85.52,72.11L85.85,71.13L86.18,77.75L86.51,77.57L86.84,74.95L87.51,71.75L87.84,79.41L88.5,68.82L88.83,75.06L89.16,70.64L90.82,61.1L91.15,61.93L91.48,64.47L91.81,59.53L92.81,72.4L93.14,65.09L93.47,70.73L93.8,67.31L94.13,65.26L94.8,72.44L95.13,68.25L95.79,70.02L96.12,68.69L96.46,62.53L96.79,70.5L97.12,71.01L97.45,69.51L98.78,63.13L99.11,70.34L99.44,75.88L99.77,72.81L100.1,64.48L100.43,69.22L100.76,64.67L101.1,61.23L101.43,72.11L102.09,69.87L102.42,68.55L103.42,59.4L103.75,67.98L104.41,62.02L104.74,53.27L105.07,61.26L105.4,60.95L105.74,57.89L106.4,69.11L106.73,67.84L107.06,59.81L107.39,63.08L107.72,58.03L108.06,56.32L108.39,58.39L108.72,57.82L109.38,55.17L109.71,60.97L110.38,55.49L110.71,61.8L111.04,60.93L111.37,62.92L112.37,55.29L112.7,55.02L113.03,53.77L113.36,58L113.69,62.27L114.02,53.95L114.35,55.28L114.69,54.91L115.02,51.92L115.68,47.71L116.01,49.37L116.34,40.72L116.67,46.27L117.01,45.36L117.34,44.13L117.67,50.73L118.33,96.74L118.66,80.15L118.99,46.24L119.99,37.8L120.32,47.39L120.65,65.79L120.98,47.4L121.31,43.14L121.98,38.54L122.64,38.69L122.97,39.6L123.97,30.43L124.3,27.53L125.29,37.72L125.62,34.81L126.62,17.42L126.95,24.66L127.28,31.91L127.61,27.13L127.94,24L128.28,24.76L128.61,24.47L128.94,24.11L129.27,32.98L129.93,32.65L130.26,33.52L130.6,35.21L130.93,31.86L131.26,31.02L131.59,38.24L131.92,36.5L132.25,39.65L133.25,30L133.58,30.8L133.91,42.35L134.24,41.32L134.57,33.75L135.57,23.89L135.9,37.02L136.56,41.52L136.89,41.19L137.22,38.2L137.56,36.85L137.89,31.43L138.22,30.56L138.55,39.26L139.21,36.94L139.54,29.16L139.88,28.65L140.21,24.61L140.54,23.46L140.87,35.83L141.2,36.74L141.53,35.53L141.87,30.2L142.86,24.06L143.19,27.08L143.52,29.74L143.85,28.56L144.19,26.18L144.52,24.98L144.85,29.73L145.18,28.42L145.51,36.16L145.84,35.92L146.17,38.79L146.51,33.07L146.84,33.58L147.17,35.51L147.5,33.97L147.83,45.32L148.83,41.86L149.16,42.36L149.82,36.64L150.15,40.9L150.48,43.06L150.81,38.15L151.81,43.89L152.14,40.05L152.47,41.63L152.8,38.42L153.47,36.96L153.8,35.98L154.13,35.66L154.46,33.96L155.12,45.5L155.46,44.16L155.79,40.28L156.12,41.13L156.45,38.96L156.78,40.72L157.11,49.68L157.44,44.08L157.78,51.7L159.1,44.35L159.43,45.54L159.76,46.57L160.1,44.7L160.43,45.29L160.76,50.05L161.09,48.96L161.42,43.41L162.42,51.15L162.75,49.84L163.08,49.95L163.41,52.1L163.74,42.07L164.07,52.54L164.4,49.89L165.4,45.47L165.73,44.31L166.06,42.13L166.39,47.25L167.39,43.53L167.72,43.32L168.05,42.93L168.38,39.8L169.38,51.8L169.71,48.82L170.04,49.7L170.37,46.79L170.7,44.48L171.03,46.33L171.37,53.91L172.03,46.71L172.36,51.65L175.34,36.03L175.67,46.03L176.34,49.57L176.67,54.89L177,91.86L177.33,78.56L177.66,78.4L177.99,80.15L178.33,75.14L178.66,72.49L178.99,72.79L179.32,73.65L179.98,72.71L180.31,80.45L182.3,59.38L182.63,65.84L182.97,62.87L183.3,63.13L183.63,65.96L183.96,69.13L184.29,64.82L184.62,63.53L184.96,66.67L185.29,61.63L185.62,64.62L185.95,63.22L186.28,64.13L186.61,61L187.28,57.14L187.61,58.02L187.94,56.6L188.6,58.62L188.93,56.14L189.26,56.88L189.6,64.61L189.93,58.38L190.26,63.76L190.59,61.58L191.25,64.64L191.58,61.89L191.92,67.15L192.25,60.63L192.58,61.46L192.91,63.33L193.24,62.52L193.57,60.3L193.9,58.14L194.24,62.11L194.57,55.32L194.9,56.6L195.23,57.99L196.22,54.85L196.56,74.04L197.55,64.32L197.88,64.78L199.21,47.13L199.54,50.75L199.87,48.94L200.2,50.37L200.53,48.04L201.86,46.34L202.19,45.7L202.52,49.75L202.85,47.35L203.19,43.73L203.52,44.87L203.85,39.68L204.84,45.96L205.17,42.22L205.84,46.95L206.17,43.5L206.83,51.26L207.16,50.46L207.49,48.88L207.83,51.23L208.16,47.89L208.49,53.75L208.82,52.68L209.15,50.9L209.48,52.2L209.81,50.93L210.15,50.32L210.48,54.48L210.81,52.55L211.14,51.94L211.47,50.29L211.8,54.97L212.47,52.05L212.8,53.41L213.13,50.82L213.46,53.96L213.79,53.08L214.12,53.45L214.46,51.04L214.79,50.63L215.12,55.78L215.45,51.62L215.78,54.94L216.11,53.71L216.44,54.02L216.78,50.99L217.11,53.17L217.44,61.59L218.43,56.3L218.76,56.17L219.1,55.04L219.43,50.42L219.76,60.19L220.42,59.66L220.75,50.24L221.08,50.79L221.42,50.21L221.75,47.39L222.74,55.34L223.07,53.54L223.74,50.67L224.07,47.57L225.06,60.58L225.39,55.34L226.39,50.43L226.72,53.88L227.38,57.45L227.71,51.42L228.04,52.46L228.38,50.15L228.71,50.21L229.04,54.83L229.37,54.66L229.7,52.96L231.03,49.35L231.36,54.42L231.69,63.83L232.02,61.14L232.35,57.47L232.69,59.05L233.02,57.47L233.35,55.43L234.01,66.56L234.34,65.36L234.67,57.42L235.01,54.21L235.34,56.13L235.67,57.73L236.33,68.2L236.66,64.62L236.99,61.85L237.33,65.33L237.66,62.12L237.99,60.94L239.65,106.38L239.98,57.37L240.31,50.16L240.64,52.07L240.97,53.64L241.3,53.92L241.63,62.96L242.63,55.37L242.96,58.53L243.29,54.59L243.62,57.39L243.96,57.7L244.29,59.43L244.62,54.36L245.28,55.12L245.61,60.02L245.94,60.06L246.28,58.19L246.61,58.08L246.94,56.27L247.27,56.83L247.6,60.16L247.93,60.12L248.26,62.71L249.26,58.91L249.59,62.43L250.58,67.43L250.92,64.47L251.91,59.59L252.24,66.08L252.57,65.51L252.9,66.91L253.9,61.9L254.23,58.87L254.89,68.13L255.22,66.66L255.56,64.98L255.89,66.81L256.22,64.83L256.55,58.11L257.21,68.49L257.54,67.97L257.88,66.96L258.54,66.09L258.87,62.2L259.2,61.47L259.53,62.14L259.87,66.85L260.53,62.6L260.86,67.57L261.19,68.16L261.52,74.39L262.52,70.23L262.85,69.95L263.18,71.02L263.51,68.65L264.51,80.64L264.84,75.16L265.17,75.36L265.5,70.35L266.83,79.29L267.16,76.2L267.49,77.73L267.82,75.61L268.48,80.72L268.81,77.61L269.15,79.61L269.48,80.91L269.81,80.64L270.14,78.59L270.47,78.78L270.8,86.88L271.47,87.51L271.8,85.24L273.79,101.04L274.12,98.33L275.44,88.65L275.78,89.37L276.11,89.77L277.76,83.86L278.1,84.86L279.09,89.52L279.42,86.2L279.75,83.97L280.08,89.35L280.42,91.68L281.08,91.34L281.41,88.47L281.74,90.27L282.07,85.65L283.07,91.48L283.4,88.02L283.73,91.9L284.06,85.26L285.06,94.09L285.39,92.6L285.72,88.21L286.38,91.83L286.71,86.11L287.04,86.96L287.38,93.73L287.71,93.4L288.04,91.86L289.03,87.84L289.37,93.54L290.03,95.84L290.36,94.33L291.35,90.43L291.69,96.84L292.02,97.22L292.35,95.88L292.68,98.12L293.01,96.8L293.34,92.62L293.67,92.96L294.01,95.36L295.66,86.89L295.99,86.42L296.33,92.92L296.66,86.99L296.99,88.75L297.65,93.79L297.98,89.23L298.31,90.53L298.65,98.77L298.98,103.94L299.64,103.52L299.97,99.85L300.3,99.19L300.63,100.55L301.3,96.75L301.63,97.49L301.96,98.52L302.29,96.6L302.62,90.09L303.62,96.8L303.95,96.25L304.61,93.54L304.94,88.43L305.28,86.07L305.61,92.96L305.94,97.48L306.27,95.49L306.6,93.53L307.26,88.54L307.6,78.39L308.59,84.45L308.92,84.47L309.25,86.03L309.58,79.87L309.92,89.28L310.58,88.1L310.91,85.41L311.24,89.62L311.57,89.34L311.9,87.74L312.9,83.12L313.23,80.05L313.56,82.23L313.89,79.99L314.22,75.67L314.89,83.81L315.22,78.03L315.55,85.06L315.88,83.92L316.21,79.65L316.88,74.96L317.21,79.22L318.2,71.07L318.53,72.76L319.2,71.05L319.53,76.27L320.52,70.13L320.85,73.48L321.85,69.94L322.18,77.74L322.51,78.02L322.84,73.46L323.51,71.35L323.84,67.52L324.83,79.7L325.16,79.82L326.16,74.09L326.49,75.83L326.82,77.8L327.15,75.36L327.48,76.15L328.48,71.82L328.81,72.46L329.14,71.15L329.47,74.42L330.13,74.45L330.47,69.95L331.13,65.66L331.46,71.3L331.79,69.61L332.12,63.36L332.46,69.79L332.79,68.18L333.12,66.06L334.11,77.7L334.44,74.51L334.78,70.07L335.11,70.89L335.44,75.73L335.77,78.87L336.43,78.58L336.76,76.18L338.09,73.92L338.42,74.98L338.75,75.01L339.08,71.33L339.75,71.64L340.08,64.05L340.74,90.51L341.07,85.71L341.4,82.22L342.73,68.81L343.06,76.86L343.39,76.39L343.72,68.06L344.72,72.43L345.05,70.32L345.38,73.59L345.71,70.76L346.04,72.34L346.38,71.79L346.71,74.98L347.04,74.21L347.37,76.43L348.03,78.7L348.37,74.86L348.7,74.17L349.03,71.73L349.36,71.24L349.69,68.03L350.35,75.78L350.69,75.03L351.02,73.24L351.35,74.56L351.68,71.7L352.67,73.14L353.01,70.75L353.67,69.39L354,71.79L354.33,72.73L354.66,77.53L354.99,79L355.33,73.17L355.99,76.27L356.32,73L356.65,72.36L356.98,74.41L357.31,74.09L357.65,70.61L357.98,69.51L358.31,70.45L358.64,70.8L358.97,71.29L359.3,80.19L359.97,83.14L360.3,98.98L360.63,103.1L360.96,71.73L361.29,52.11L361.62,61.56L361.96,67.74L362.29,64.54L362.62,74.4L363.94,65.34L364.28,73.41L364.61,72.29L364.94,65.73L365.27,65.27L365.6,73.28L366.26,71L366.6,66.83L366.93,62.18L367.26,68.1L367.59,64.58L367.92,63.76L368.25,67.07L369.25,61.96L369.58,66.3L370.24,64.15L370.57,66.41L372.56,71.93L372.89,70.58L373.56,73.09L373.89,72.73L374.22,71.37L374.55,71.79L374.88,75.06L375.21,76.42L375.54,74.15L375.88,78.98L376.21,76.06L376.54,76.19L376.87,72.78L377.2,75.89L377.53,80.65L378.2,87.26L378.53,80.08L379.19,73.94L379.52,70.63L380.52,72.12L380.85,69.32L381.18,71.24L381.51,61.58L382.17,72.67L382.51,72.33L382.84,73.36L383.83,69.02L384.16,70.79L384.83,76.56L385.16,75.23L385.49,75.68L385.82,77.34L386.15,75.59L386.48,74.73L387.15,77.34L387.48,74.29L387.81,73.6L388.14,73.83L388.47,74.42L388.8,72.48L389.13,65.2L389.8,64.55L390.13,67.23L390.46,69.4L390.79,77.66L391.12,75.25L391.46,82.73L393.11,77.52L393.44,81.7L394.44,77.55L394.77,81.58L395.1,81.89L395.43,79.43L395.76,73.67L396.1,83.65L397.75,74.93L398.08,83.09L398.42,86.6L398.75,85.29L399.08,83.95L399.41,86.21L399.74,84.9L400.07,84.87L400.4,85.06L400.74,79.53L401.4,83.47L401.73,82.25L402.06,78.45L403.72,87.12L404.05,88.53L404.38,88.12L404.71,89.74L405.71,85.26L406.04,88.43L406.37,95.7L407.03,95.37L407.37,93.25L408.03,86.83L408.36,90.47L408.69,92.69L409.35,95.09L409.69,93.34L410.02,105.46L410.35,96.86L410.68,94.48L411.01,93.83L411.34,90.69L412.01,86.7L412.34,104.68L413.66,96.04L413.99,97.21L414.99,90.38L415.32,91.82L415.65,88.44L415.98,92.79L416.98,84.38L417.31,86.74L417.64,84.38L417.97,87.39L418.3,86.87L418.63,84.39L419.3,78.93L419.63,86.02L420.62,79.37L420.96,82.23L423.28,96.45L423.61,93.09L423.94,92.61L424.27,93.46L424.6,92.62L424.93,93.19L425.26,93.5L425.6,95.89L425.93,91.91L426.26,99.27L426.59,93.77L426.92,92.32L428.25,86.11L428.58,85.2L428.91,84.91L429.24,86.46L429.57,87.88L429.9,84.45L430.24,83.77L430.57,86.36L431.23,81.93L431.56,83.18L431.89,82.37L432.89,78.16L433.22,81.69L433.88,79.35L434.21,82.09L435.21,75.77L435.54,79.78L435.87,80.3L436.2,78.64L437.2,84.37L437.53,78.59L437.86,78.22L438.19,76.59L438.52,76L438.85,78.14L439.19,77.74L439.52,75.76L441.17,80.23L441.51,77.81L441.84,76.73L442.17,77.33L442.5,86.89L443.49,85.18L443.83,86.96L444.82,82.35L445.15,86.54L445.81,82.47L446.15,83.34L446.48,85.31L446.81,87.56L447.14,86.43L447.47,85.73L447.8,88.33L448.13,87.28L448.47,85.58L448.8,87.48L449.46,87.16L449.79,86.79L450.12,88.09L450.79,87.86L451.12,88.57L451.45,90.11L451.78,99.71L452.11,100.05L452.44,97.92L453.77,93.29L454.1,105.41L454.43,106.09L454.76,104.82L456.42,94.43L456.75,96.04L458.08,99.22L458.41,100.01L459.74,105.93L460.07,102.91L460.4,104.54L460.73,101.96L461.39,106.53L461.72,110.78L462.06,112.5L462.39,110.61L462.72,111.42L463.05,110.12L463.38,121.91L464.38,117.66L464.71,114.43L465.7,107.69L466.03,109.34L466.37,108.97L466.7,109.19L467.03,106.73L467.36,107.96L467.69,102.83L468.35,109.66L468.69,108.11L469.02,110.89L469.68,109.45L470.01,105.9L470.34,109.91L470.67,108.84L471.01,107.8L471.34,107.81L471.67,110.16L472,108.73" style="vector-effect: non-scaling-stroke; fill: none; stroke: rgb(0, 204, 150); stroke-opacity: 1; stroke-width: 2px; opacity: 1;"/></g><g class="points"/><g class="text"/></g><g class="trace scatter trace7950bd" style="stroke-miterlimit: 2; opacity: 1;"><g class="fills"/><g class="errorbars"/><g class="lines"><path class="js-line" d="M0,69.95L0.66,73.39L0.99,71.77L1.33,69.6L1.99,69.92L2.32,65.58L2.65,67.73L3.31,64.35L3.65,68.79L4.64,73.43L4.97,70.72L5.3,70.46L5.63,66.57L5.97,66.81L6.3,71.4L6.96,71.75L7.29,68.95L7.62,69.87L7.96,66.08L8.62,66.75L8.95,70.13L9.28,69.77L9.61,65.41L11.27,75.82L11.6,75.17L12.93,65.11L13.26,65.19L13.59,66.19L13.92,64.03L14.25,55.52L14.58,49.04L14.92,55.46L15.25,61.19L15.58,59.91L15.91,61.31L16.24,62.7L16.57,59.9L16.9,60.24L17.24,60.68L17.57,58.88L17.9,62.66L18.89,60.53L19.22,60.53L19.56,56.86L19.89,57.73L20.22,58.51L20.55,65.56L20.88,62.87L21.21,56.79L21.54,59.89L21.88,59.48L22.21,57.98L22.87,65.16L23.2,63.24L23.53,61.8L23.87,61.02L24.2,62.7L24.86,61.5L25.19,60.65L25.52,66.61L25.85,63.78L26.19,60.37L26.52,57.69L26.85,58.95L27.18,63.97L28.51,60.45L28.84,62.54L29.17,62.31L29.5,59.61L29.83,62.95L30.49,62.59L30.83,61.31L31.82,54.77L32.15,58.65L32.48,58.74L32.81,59.97L33.81,51.44L34.14,52.53L34.47,52.21L34.8,54.2L35.13,49.68L35.47,54.41L35.8,51.29L36.13,50.15L36.46,49.37L36.79,50.77L37.46,54.38L37.79,50.29L38.78,55.07L39.11,53.6L39.44,49.54L40.11,49.92L40.44,49.57L40.77,46.75L41.1,33.34L41.43,33.77L41.76,36.92L42.1,35.52L42.43,35.93L42.76,40.27L43.09,38.78L43.42,40.75L43.75,44.3L44.08,45.88L44.42,43.85L44.75,44.14L45.08,45.48L45.41,33.99L46.4,52.09L46.74,48.75L47.4,49.03L47.73,47.65L48.72,55.13L49.06,53.66L50.05,47.92L50.71,50.71L51.04,50.73L51.38,47.77L52.04,43.6L52.37,45.62L52.7,47.67L53.37,50.15L53.7,46.86L54.03,47.9L54.36,46.17L55.02,36.93L55.35,40.86L55.69,47.01L56.35,45.06L56.68,40.34L57.34,37.24L57.67,38.88L59.33,46.91L59.66,46.03L59.99,43.82L60.99,46.16L61.32,44.66L61.65,39.8L61.98,40.18L62.31,41.97L62.65,46.54L62.98,39.64L63.31,42.12L63.64,39.01L63.97,40.07L64.3,40.32L64.63,46.46L64.97,48.7L65.3,46.05L65.63,45.88L65.96,44.84L66.29,50.88L66.62,58.51L66.96,57.35L67.29,54.98L67.62,55.43L67.95,51.65L68.61,47.58L68.94,49.39L69.28,51.45L69.61,52.74L69.94,50.21L70.27,50L70.6,51.75L71.26,55.2L71.6,50.57L72.92,45.12L73.25,49.5L73.58,52.48L74.25,52.36L74.58,53.26L75.24,50.94L75.57,54.01L76.57,61.12L76.9,58.52L77.23,55.12L77.56,57.34L77.89,57.47L78.89,75.13L79.22,71.4L80.21,69.19L80.54,69.57L80.88,70.71L81.21,74.72L81.54,76.37L81.87,74.34L82.2,75.22L82.87,76.14L83.2,74.43L83.86,77.95L84.19,77.27L84.52,78.49L84.85,77.77L85.19,81.44L85.52,84.95L85.85,79.25L86.51,79.05L86.84,76.62L87.17,79.58L87.51,72.87L88.5,80.96L88.83,75.91L90.49,69.36L90.82,71.8L91.15,66.6L91.81,67.37L92.15,71.95L92.48,71.92L92.81,75.94L93.8,79.45L94.13,73.89L94.47,71.7L94.8,72.59L95.13,74.6L95.79,79.9L96.12,73.84L97.12,71.44L97.45,76.63L97.78,79.25L98.11,79.05L98.44,74.35L98.78,79.87L99.11,74.6L99.44,71.51L100.1,85.33L100.43,80.48L100.76,80.83L101.43,79.23L101.76,79.49L102.09,80.07L102.42,79.68L102.75,80.44L103.08,77.99L104.08,74.19L104.41,77.02L105.07,75.43L105.4,76.49L105.74,76.66L106.07,79.63L107.06,84.96L107.39,82.02L108.06,79.45L108.39,79.79L108.72,85.12L109.05,90.41L109.38,84.63L109.71,83.87L110.71,77.82L111.04,84.11L111.37,89.1L111.7,84.59L112.03,81.93L112.37,81.4L112.7,83.29L113.03,78.98L113.36,85.86L113.69,92.34L114.02,84.99L114.35,80.56L115.02,86.73L115.35,79.35L116.01,84.99L116.34,79.97L116.67,75L117.01,78.72L117.34,81.54L118.33,106.53L118.66,127.42L119.33,71.2L119.66,78L119.99,77.07L120.32,75.16L120.65,78.88L120.98,66.56L121.31,76.94L121.65,76.09L122.97,71.01L123.3,75.1L123.63,70.01L124.3,70.14L124.63,79.51L124.96,78.8L125.29,80.43L126.29,72.92L126.62,72.41L127.61,76.67L127.94,75.94L128.94,74.36L129.27,64.74L130.6,72.02L130.93,71.34L132.25,81.42L132.58,76.38L133.91,84.4L134.24,81.74L134.57,84.27L135.24,84.12L135.57,79.63L136.23,82.75L136.56,86.92L137.56,88.61L137.89,86.6L138.22,85.08L138.55,91.88L139.21,87.22L139.54,90.79L139.88,89.77L140.21,91.25L140.54,81.17L140.87,83.23L141.2,90.51L142.53,102.32L142.86,90.64L143.85,103.52L144.19,109.19L144.52,108.73L144.85,104.26L145.18,101.42L145.51,119.26L145.84,113.91L146.17,119.97L146.51,123.65L146.84,122.13L147.17,124.93L148.16,110L148.49,117.74L148.83,119.77L149.16,119.04L149.49,113.65L150.15,111.17L150.48,111.96L150.81,113.01L151.15,113.1L151.48,114.77L152.14,111.11L152.47,108.31L152.8,105.09L153.13,107.98L153.47,108.61L153.8,109.87L154.13,106.04L154.79,96.03L155.12,96.89L155.46,103.79L156.78,91.2L157.11,99.11L157.78,108.32L158.11,106.29L158.44,105.15L159.1,102.54L159.43,102.85L159.76,103.07L160.1,104.03L160.43,102.66L160.76,102.88L161.09,100.28L161.42,98.34L161.75,101.18L162.42,101.51L162.75,104.76L163.74,101.11L164.07,103.93L164.74,100.47L165.07,105.46L165.4,108.12L165.73,104.1L166.06,104.99L166.39,97.61L166.72,97.55L167.06,101.68L168.05,106.26L168.38,102.68L168.71,117.7L169.38,116.87L169.71,116.7L170.37,107.32L170.7,108.52L171.03,108.79L171.37,109.1L171.7,111.27L172.03,110.89L172.36,111.38L172.69,108.24L173.02,107.82L173.35,112.44L174.02,108.53L174.35,109.83L175.01,105.06L175.34,107.19L175.67,109.18L176.01,107.3L176.34,106.41L177,167.82L177.33,150.75L177.66,146.16L178.66,136.3L178.99,138.73L179.98,131.74L180.31,132.19L180.65,129.41L180.98,124.54L181.31,127.22L181.64,126.66L183.3,116.4L183.63,123.03L184.62,117.73L184.96,122.17L185.29,120.38L185.62,123.12L185.95,125.12L186.28,121.04L186.61,121.47L186.94,119.3L187.28,120.86L187.61,116.59L188.6,128.51L188.93,125.1L189.26,128.07L189.6,123.45L189.93,120.55L190.26,124.89L190.59,127.48L190.92,126.57L191.25,125.74L192.25,113.81L192.58,118.38L192.91,120.1L193.24,119.85L193.57,117.8L193.9,117.46L194.24,123.12L194.57,119.5L195.23,120.31L195.56,123.57L195.89,120.06L196.22,120.55L196.56,140.92L197.22,130.3L197.55,131.73L197.88,127.26L198.21,129.67L198.54,126.24L198.88,124.01L199.21,125.04L199.54,131.41L199.87,133.04L200.2,130.61L200.53,130.13L200.87,127.8L202.19,115.12L202.52,117.54L202.85,117.98L203.19,115.99L203.52,118.68L203.85,113.96L204.84,124.51L205.17,126.7L206.5,131.35L206.83,130.57L207.83,123.03L208.16,124.96L209.15,120.62L209.48,121.4L209.81,124.34L210.15,120.09L210.48,104.7L210.81,108.27L211.14,112.11L211.47,113.22L211.8,110.21L213.79,123.98L214.12,120.27L215.12,124.83L215.45,123.82L216.44,126.66L216.78,124.3L217.11,123.1L217.44,134.4L217.77,130.98L218.1,133.13L218.43,134.91L219.43,127.21L219.76,138.78L220.09,131L220.42,131.75L220.75,137.72L221.75,119.89L222.08,130.37L223.07,125.11L223.4,124.25L224.07,120.85L224.4,129.19L225.06,132.03L225.39,127.95L226.72,121.19L227.05,124.65L227.38,129.3L227.71,126.6L228.04,123.53L228.38,123.94L228.71,120.09L229.04,119.17L229.37,124.11L230.03,123.17L230.37,129.08L230.7,140.39L231.36,137.97L231.69,140.71L232.35,144.53L232.69,140.94L233.35,138L233.68,157.43L234.01,150.14L234.34,153.73L234.67,153.2L235.01,151.23L235.34,154.33L236.33,147.84L236.66,153.78L236.99,151.72L237.33,144.18L237.66,144.5L237.99,143.77L238.32,142.66L238.65,143.64L238.98,147.78L239.31,161.31L239.65,152.69L239.98,149.07L240.97,132.33L241.3,132.79L241.63,131.08L241.97,105.34L242.3,137.86L242.96,135.97L243.29,136.34L243.96,145.75L244.29,143.6L244.62,140.19L244.95,138.43L245.28,142.67L245.61,137.86L245.94,142.64L246.28,145.29L247.27,136.86L247.6,143.96L247.93,143.84L248.26,144.88L248.6,145.53L248.93,143.75L249.59,143.54L249.92,146.25L250.25,145.58L250.58,147.4L250.92,142.45L251.25,140.02L251.58,142.14L251.91,144.5L252.24,144.55L252.57,143.14L253.24,145.55L253.57,139.68L254.23,135.72L254.56,141L254.89,137.68L255.22,142.1L256.55,130.57L256.88,133.65L258.21,141.68L258.54,139.82L259.87,135.47L260.2,138.53L261.19,131.98L261.52,136.36L261.85,140.01L262.19,139.21L262.52,138.93L262.85,140.21L263.18,138.31L263.84,135.14L264.17,136.95L264.51,136.41L264.84,133.55L265.17,135.22L265.5,135.32L266.49,141.38L266.83,143.53L268.15,134.92L268.48,143.97L268.81,143.65L269.15,141.25L269.48,142.95L269.81,140.29L270.14,136.72L270.47,136.85L270.8,139.68L271.47,147.92L271.8,143.38L272.79,135.89L273.12,140.99L273.79,147.43L274.12,147.39L274.45,146.17L274.78,145.56L275.11,142.79L275.44,138.73L275.78,142.16L276.11,146.04L276.44,145.89L276.77,143.74L277.1,145.67L277.43,140.54L278.43,145.09L278.76,143.14L279.09,142.79L279.42,143.82L279.75,146.11L280.08,142.01L280.75,146.64L281.08,145.22L281.41,144.57L281.74,148.02L282.07,141.56L283.07,149.44L283.4,148.07L284.06,150.6L284.39,146.47L284.72,146.73L285.06,140.82L285.39,145.12L285.72,143.1L286.05,139.81L286.38,140.9L286.71,139.86L287.04,130.82L287.38,130.38L287.71,134.45L288.7,128.7L289.03,129.16L289.37,138.79L290.69,135.34L291.02,135.8L291.35,132.56L291.69,144.18L292.02,138.76L292.35,136.12L292.68,138.38L293.01,137.3L293.34,135.41L293.67,135.39L294.01,139.37L294.34,136.27L295,136.41L295.33,135.57L295.99,129.93L296.33,134.55L296.66,134.43L296.99,131.96L298.65,136.32L298.98,133.52L299.31,139.77L299.97,138.73L300.3,133.88L300.97,119.14L301.3,120.43L301.63,127.99L301.96,125.19L302.29,127.23L302.62,127.13L302.96,123.01L303.29,124.86L303.62,127.92L304.61,130.77L304.94,128.81L305.28,128.58L305.61,132.62L305.94,130.35L306.27,131.87L306.6,132.93L308.26,123.15L308.59,125.44L309.25,117.27L309.58,119.32L309.92,120.56L310.25,115.15L310.58,115.45L310.91,118.97L311.24,114.85L311.57,118.83L311.9,116.53L312.24,111.7L312.57,95.15L313.23,103.48L313.56,102.85L313.89,111.85L314.22,103.02L314.56,105.45L314.89,108.9L315.55,118.81L315.88,117.49L316.21,115.32L316.54,114.03L316.88,118.26L317.21,115.18L317.54,116.1L317.87,117.59L318.53,119.33L318.87,124.74L319.86,143.69L320.19,135.6L320.52,143.54L320.85,138.49L321.19,135.55L321.52,136.09L321.85,93.44L322.84,113.79L323.17,110.08L323.51,104.47L324.83,129.93L325.16,129.27L325.49,125.09L325.83,131.38L326.16,127.61L326.49,131.53L326.82,129.1L327.48,134.5L327.81,131.64L328.15,131.59L328.48,127.96L328.81,130.06L329.14,128.78L329.47,128.8L329.8,130.31L330.13,129.62L330.47,128.78L331.13,132.9L331.46,129.49L331.79,124.69L332.12,125.5L332.46,126.32L332.79,126.72L333.12,125.35L333.45,132.04L334.11,130.91L334.44,134.07L335.44,122.55L335.77,125.72L337.1,130.75L337.43,127.69L337.76,135.36L338.09,131.72L338.42,128.5L339.08,129.77L339.42,128.6L340.08,131.88L340.41,144.81L341.07,133.23L341.4,138.45L341.74,135.82L343.06,125.05L343.39,127.68L344.06,127.36L344.39,128.65L344.72,132.23L345.38,126.96L345.71,129.45L346.04,131.64L347.7,121.73L348.03,129.98L348.37,131.01L348.7,126.46L349.03,126.83L349.36,125.73L349.69,121.73L350.02,127.35L350.35,129.5L350.69,128.87L351.02,127.69L351.68,128.82L352.01,139.97L352.34,136.66L352.67,140.19L353.01,139.21L353.67,135.95L354,136.16L354.33,139.41L354.99,132.73L355.33,135.01L355.66,135.39L355.99,137.18L356.32,138.07L356.65,129.66L358.31,135.54L358.64,136.08L358.97,137.87L359.63,137.69L359.97,138.65L360.3,141.17L360.63,127.86L360.96,141.33L361.29,137.37L361.62,134.67L362.29,135.7L362.62,130.21L362.95,90.52L363.28,138.91L363.61,135.96L363.94,132.8L364.28,136.52L364.61,138.21L364.94,140.34L365.27,136.55L365.6,136.17L365.93,139.84L366.26,136.32L366.6,137.88L366.93,137.8L367.26,139.13L367.59,135.33L367.92,135.43L368.25,130.98L368.58,128.34L368.92,132.37L370.24,125.66L370.57,135.19L370.9,141.24L371.24,140.35L371.57,136.98L371.9,139.4L372.23,136.88L372.56,135.11L373.22,139.16L373.56,136.82L373.89,136.87L374.22,132.78L374.55,132.08L374.88,128.95L375.88,135.76L376.21,131.54L377.53,138.92L377.87,133.49L378.86,138.93L379.19,133.44L379.52,135.91L379.85,128.49L380.85,133.91L381.51,133.51L381.84,132.55L382.17,127.34L382.51,134.72L382.84,140.17L383.17,136.64L383.5,137.8L383.83,135.56L384.16,136.62L384.49,136.68L386.48,143.18L386.81,146.09L387.15,144.98L387.48,149.11L388.47,148.13L388.8,149.07L389.8,138.46L390.13,141.85L390.46,142.18L390.79,149.37L391.12,150.03L391.46,154.2L391.79,153.34L392.12,154.73L392.45,156.64L392.78,155.28L393.11,155.06L393.44,155.8L393.78,151.98L394.11,149.28L394.44,150.86L394.77,150.74L395.76,153.76L396.1,151.83L397.42,160.19L397.75,157.45L398.08,155.91L398.42,173.13L399.08,167.94L399.41,170.69L399.74,171.34L400.07,168.11L400.4,168.67L400.74,169.63L401.4,162.53L401.73,165.75L402.72,161.72L403.06,163.51L403.39,160.72L403.72,162.43L404.05,163.7L405.38,170.6L405.71,164.27L406.37,181.18L406.7,179.72L407.03,178.83L408.36,165.9L408.69,172.02L410.02,188.8L410.35,177.29L410.68,173.77L411.01,181.07L412.34,187.69L412.67,178.07L413.33,178.39L413.66,169.5L413.99,172.72L414.99,167.11L415.32,168.21L415.65,175.8L415.98,165.79L416.65,167.26L416.98,169.36L417.64,165.01L417.97,170.2L418.3,172.96L418.63,170.1L418.97,170.84L419.96,156.16L420.29,165.83L421.29,168.61L421.62,167.92L422.28,157.07L422.61,166.31L422.94,166.05L423.28,160.97L423.94,163.68L424.27,156.74L424.6,154.4L424.93,164.5L425.6,160.45L425.93,164.73L426.26,174.71L426.59,164.21L426.92,162.81L427.25,170.13L427.58,168.81L427.92,167.99L428.91,161.15L429.24,158.5L429.57,166.28L429.9,160.99L430.24,161.39L430.57,158.64L430.9,147.3L431.23,141.84L431.56,142.69L431.89,153.28L432.56,151L432.89,152.25L433.88,147.38L434.21,151.67L435.54,155.58L435.87,150.68L436.2,151.31L436.53,157.05L436.87,156.2L437.2,156.75L437.53,159.04L438.19,153.41L438.52,155.92L438.85,158.48L439.19,160.86L439.52,158.14L439.85,158.28L440.18,163.64L440.51,157.28L440.84,158.45L441.51,166.19L441.84,165.3L442.17,162.63L443.16,154.89L443.49,163.93L444.49,162.58L444.82,154.43L445.15,150.24L445.48,152.08L445.81,154.83L446.15,159.36L446.48,157.42L446.81,157.64L447.14,162.79L447.47,154.85L447.8,154.72L448.13,158.37L448.47,158.71L448.8,162.55L450.12,149.6L450.46,157.31L450.79,160.21L451.12,159.26L451.45,158.51L451.78,165.06L452.11,159.46L452.44,157.69L453.11,169.76L453.44,163.86L453.77,162.34L454.1,174.72L454.76,167.35L455.1,174.04L456.09,166.71L456.42,166.12L456.75,156.02L457.08,157.37L457.42,167.36L457.75,167.63L458.08,165.43L458.41,164.23L458.74,165.26L459.07,160.89L459.4,160.52L459.74,174.53L460.07,172.33L460.4,179.93L461.72,159.47L462.06,170.62L463.05,166.93L463.38,184.66L464.04,160.86L464.38,173.93L465.37,177.04L465.7,176.54L466.03,172.73L466.37,171.15L466.7,176.33L467.03,180.34L467.36,179.21L467.69,174.19L469.35,184.55L469.68,184.68L470.01,177.59L470.34,188.57L471.01,182.56L471.34,186.05L471.67,185.59L472,186.5" style="vector-effect: non-scaling-stroke; fill: none; stroke: rgb(171, 99, 250); stroke-opacity: 1; stroke-width: 2px; opacity: 1;"/></g><g class="points"/><g class="text"/></g><g class="trace scatter trace2e5c18" style="stroke-miterlimit: 2; opacity: 1;"><g class="fills"/><g class="errorbars"/><g class="lines"><path class="js-line" d="M0,98.46L0.99,111.29L1.33,99.94L1.66,114.3L1.99,106.57L2.32,102.29L2.98,113.35L3.31,112.92L3.65,114.28L4.31,121.93L4.64,104.04L4.97,113.91L5.63,113.49L5.97,116.08L6.63,127.97L6.96,126.42L7.29,117.7L7.62,117.25L7.96,114.61L8.29,116.28L8.62,121.9L8.95,129.39L9.28,126.95L9.61,115.95L11.27,125.92L11.6,120.45L11.93,116.84L12.26,119.32L12.6,119L12.93,119.22L13.26,118.44L13.59,120.19L13.92,116.17L14.58,103.9L14.92,107.93L15.25,107.74L15.58,112.7L15.91,116.67L16.24,114.25L16.57,106.35L17.24,101.46L17.57,102.5L17.9,114L18.89,122.2L19.22,117.24L20.22,107.5L20.55,117L20.88,117.44L21.21,106.65L21.88,105.85L22.21,104.09L22.87,114.41L23.2,113.97L23.53,100.01L23.87,99.12L24.2,101.72L24.53,100.46L24.86,103.63L25.52,110.6L25.85,97.59L26.19,99.8L26.52,96.05L26.85,93.21L27.18,100.39L27.51,105.1L27.84,99.92L28.17,94.35L29.17,91.5L29.5,95.67L30.16,101.08L30.49,90.87L30.83,92.59L31.16,90.4L31.49,91.2L32.15,103.41L32.48,97.42L32.81,90.75L33.15,88.25L33.48,91.77L34.14,91.93L34.47,95.98L35.8,82.14L36.13,83.01L36.46,92.89L36.79,92.15L37.12,89.64L37.46,83.45L38.12,84.93L38.45,85.58L39.11,92.92L39.44,89.59L40.77,80.78L41.1,84.06L41.76,87.37L42.1,79.65L44.08,87.45L44.42,81.71L45.41,67.42L45.74,78.47L46.07,85.28L46.4,83.54L46.74,79.08L47.07,76.08L47.4,76.37L47.73,78.26L48.06,86.55L48.72,85.44L49.06,77.7L50.05,79.55L50.71,86.98L51.38,75.16L52.04,75.44L52.37,73.65L53.37,85.53L53.7,76.12L54.69,78.04L55.02,80.47L55.35,83.54L55.69,81.75L56.02,75.98L56.35,81.1L56.68,78.03L57.01,78.17L57.67,84.69L58.01,78.51L58.67,72.69L59,74.3L59.33,73.16L59.99,78.9L60.33,77.02L60.66,70.21L61.65,68.7L61.98,74.84L62.31,79.18L62.65,77.9L62.98,67.68L63.31,67.01L63.64,69.1L64.63,76.61L64.97,75.89L65.3,69.15L65.63,69.93L65.96,67.42L66.62,88.35L66.96,85.35L67.29,82.49L68.28,74.17L68.61,73.29L69.28,80.52L69.61,79.25L69.94,71.37L70.27,70.7L70.6,75.39L71.26,77.71L71.6,79.72L71.93,78.35L72.26,69.73L74.25,79.45L74.58,73.1L74.91,73.59L75.24,72.81L75.57,75.99L76.57,88.24L76.9,79.11L77.89,75.31L78.22,84.58L78.89,91.04L79.22,85.88L79.88,81.61L80.21,84.19L80.88,91.83L81.21,88.61L82.2,79.85L82.53,83.05L83.2,91.42L83.53,90.98L83.86,82.41L84.19,81.71L84.52,82.54L84.85,88.16L85.85,109.28L86.18,101.5L86.84,83.9L87.51,84.45L87.84,90.24L89.16,77.7L89.49,81.88L89.83,72.09L90.49,74.02L90.82,69.36L91.81,69.06L92.15,73.74L92.48,71.42L92.81,76.73L93.47,62.19L93.8,65.52L94.13,69.14L94.47,69.29L94.8,78.21L95.13,78.21L95.46,69.74L95.79,67.82L96.12,69.34L96.46,71.51L96.79,80.6L97.12,75.52L97.45,75.21L98.11,72.36L98.44,75.16L98.78,73.54L99.11,75.64L99.44,79.58L99.77,77.34L100.1,73.31L100.76,72.98L101.1,74.3L101.43,74.38L101.76,78.2L102.09,80.06L102.42,71.01L103.42,74.03L103.75,74.17L104.41,83.45L104.74,79.69L105.07,78.84L105.74,73.04L106.07,79.86L106.4,89.83L106.73,88.23L107.06,83.7L107.72,80.96L108.06,84.35L109.05,90.61L109.38,81.13L110.71,88.62L111.04,93.93L111.37,91.43L111.7,82.9L113.36,96.99L113.69,94.12L114.02,91.15L114.69,92.06L115.02,96.52L115.68,95.51L116.01,91.69L117.01,87.94L117.34,93.96L117.67,89.15L118,93.14L118.33,102.63L118.66,144.87L118.99,89.87L119.33,89.04L119.66,94.78L120.65,104.23L120.98,90.46L121.98,98.76L122.31,96.94L122.64,95.96L122.97,98.29L123.97,91.81L124.3,94.78L124.63,105.73L124.96,102.55L125.29,101.32L126.29,89.86L126.62,95.74L127.61,102.93L127.94,95.18L128.94,94.74L129.27,93.06L129.93,104.79L130.26,93.06L130.6,93.69L130.93,92.5L131.59,92.95L131.92,100.14L132.25,102.52L132.58,91.92L132.92,92.4L133.25,88.92L134.57,103.97L134.9,95.85L135.24,94.88L135.57,90.12L135.9,87.93L136.23,95.07L136.56,102.45L136.89,101.56L137.22,92.36L137.89,87.62L138.22,89.73L138.55,96.62L139.21,107.07L139.54,95.27L139.88,97.47L140.21,97.38L140.54,96.67L141.2,103.28L141.53,107.46L142.53,97.53L142.86,100.96L143.19,102.31L143.52,109.08L143.85,108.87L144.19,101.1L144.52,100.85L144.85,98.07L146.17,117.4L146.51,109.01L147.17,105.85L147.5,109.85L147.83,110.07L148.16,114.25L148.49,118.69L148.83,109.09L149.49,106.59L149.82,110.88L150.81,115.09L151.15,107.84L151.48,108.14L151.81,107.24L152.14,107.06L152.47,113.22L153.13,119.54L153.47,108.22L154.46,101.79L154.79,102.49L155.12,103.88L155.46,81.28L155.79,99.85L156.12,94.51L157.11,108.51L157.44,116.03L157.78,114.01L158.11,103.95L158.77,102.45L159.1,105.61L159.43,105.18L159.76,106.17L160.1,107.55L160.43,102.47L160.76,107.32L161.09,100.54L161.42,97.76L161.75,100.3L162.08,105.21L162.42,103.39L162.75,96.42L163.74,95.03L164.07,103.65L164.4,105.28L164.74,103.43L165.07,99.21L165.4,99.14L165.73,96.42L166.06,97.23L166.39,101.44L167.06,110.96L167.39,105.38L167.72,105.74L168.05,105.03L168.38,104.43L169.38,122.19L169.71,116.1L170.37,108.9L171.03,109.42L171.37,110.68L171.7,114.03L172.03,108.26L172.69,104.49L173.02,104.91L173.35,108.01L173.69,112.57L174.02,111.91L174.35,103.48L174.68,103.86L175.01,102.93L176.34,121.49L176.67,114.49L177,145.11L177.33,139.63L177.66,136.57L178.33,141.27L178.66,138.52L178.99,137.23L179.32,128.43L179.65,129.2L179.98,128L180.65,142.43L180.98,136.31L181.31,130.32L181.97,120.54L182.3,121.4L182.63,131.55L182.97,132.25L183.3,130.71L183.96,118.55L184.29,118.86L184.62,117.8L185.62,132.38L185.95,126.51L186.28,126.41L186.61,129.12L186.94,123.22L187.28,129.65L187.61,133.05L187.94,133.34L188.27,128.22L188.93,130.06L189.26,128.14L189.6,128L189.93,131.26L190.26,132.71L190.59,124.15L191.25,121.2L191.58,121.74L191.92,126.45L192.58,123.69L192.91,118L193.24,114.5L193.57,116.08L193.9,115.77L194.24,126.24L194.9,125.61L195.23,120.61L195.56,117.82L195.89,119.41L196.22,120.61L196.89,132.23L197.22,131.78L197.55,119.91L198.88,114.63L199.21,130.35L199.54,135.42L199.87,121.08L200.2,120.98L200.53,123.53L200.87,121.32L201.2,124.37L201.53,129.66L201.86,129.07L202.19,116.61L202.85,110.74L203.19,116.03L204.18,132.85L204.51,121.04L205.17,120.41L205.51,124.55L205.84,123.61L206.17,129.05L206.5,136.07L206.83,127.7L207.16,129.47L207.49,123.36L207.83,127.53L208.16,129.03L208.49,135.65L208.82,133.92L209.15,126.56L209.48,126.48L209.81,128.77L210.15,128.29L210.48,131.74L210.81,137.27L211.14,134.94L211.47,132.34L212.8,128.34L213.13,134.18L213.46,134.92L213.79,129.75L215.12,132.76L215.45,135.15L216.44,128.49L216.78,129.03L217.11,128.7L217.44,130.07L217.77,135.87L218.1,139.91L218.43,126.31L218.76,123.48L219.1,124.49L219.43,126.42L220.09,135.52L220.42,133.9L220.75,127.95L221.42,128.15L221.75,123.02L222.08,128.63L222.41,126.11L222.74,124.42L223.74,114.65L224.07,115.07L224.73,126.21L225.06,124.77L225.39,120.25L226.06,115.81L226.39,120.99L226.72,117.98L227.05,125.39L228.38,111.75L228.71,114.6L229.37,121.58L229.7,118.51L230.03,113.91L230.37,112.65L230.7,115.3L231.69,125.37L232.02,121.82L232.35,119.49L233.68,128.09L234.01,129.54L234.34,128.87L234.67,124.64L235.01,123.67L235.34,127.19L235.67,126.31L236,134.47L236.33,145.26L236.66,137.81L236.99,127.84L237.33,131.39L237.66,129.31L237.99,127.29L238.98,133.54L239.31,152.98L239.65,167.63L239.98,133.22L240.31,132L240.64,136.91L240.97,137.45L241.3,133.97L241.63,136.81L241.97,118.03L242.3,132.63L242.96,129.67L243.29,137.38L243.62,137.25L243.96,133.66L244.62,136.86L244.95,133.77L245.61,141.16L245.94,138.83L246.28,134.59L246.61,129.74L246.94,135.86L247.27,136.34L247.93,144.54L248.26,144.5L248.6,137.47L249.92,147.55L250.25,142.74L250.58,145.22L250.92,141.11L251.25,140.99L251.58,142.78L252.57,145.87L252.9,140.18L253.24,139.78L253.57,136.34L253.9,131.88L254.23,134.01L254.56,137.16L254.89,139.65L255.22,137.48L255.56,130.62L256.55,127.81L256.88,133.02L257.21,136.8L257.54,130.08L257.88,129.4L258.21,126.44L258.54,125.02L258.87,125.82L259.2,129.33L259.53,134.98L259.87,131.41L260.2,125.94L260.86,124.36L261.19,128.23L261.85,141.56L262.19,141.29L262.52,137.01L263.51,129.55L263.84,131.9L264.17,136.24L264.51,134.56L264.84,126.23L265.17,124.53L265.5,125.85L265.83,126.63L266.49,133.54L266.83,133.09L267.16,124.06L267.49,123.61L267.82,121.79L268.15,123.24L268.48,131.66L268.81,141.84L269.15,135.89L269.48,129.12L270.14,128.18L270.47,124.32L271.13,138.02L271.47,136.82L271.8,128.78L272.79,123.38L273.12,128.9L273.46,131.86L273.79,126.23L274.12,123.1L274.45,125.96L274.78,125.22L275.11,117.06L275.44,123.77L275.78,126.91L276.11,126.91L276.44,122.59L276.77,122.41L277.1,120.03L277.43,119.67L277.76,122.6L278.1,125.82L278.43,125.31L278.76,121.71L279.09,127.07L279.42,124.87L279.75,123.52L280.08,125.85L280.42,123.25L280.75,122.77L281.08,121.25L281.41,121.83L281.74,122.43L282.07,119.88L282.4,127.24L282.74,132.32L283.07,128.78L283.4,120.72L284.06,123.24L284.39,122.01L284.72,121.97L285.06,126.98L285.39,100.58L285.72,121.68L286.38,116.34L286.71,118.91L287.04,119.34L287.38,122.09L288.7,105.01L289.03,105.82L289.37,120.66L289.7,121.75L290.03,120.2L290.69,108.42L291.02,111.1L291.35,110.74L292.02,127.45L292.35,122.98L292.68,119.88L293.01,117.63L293.34,118.95L293.67,120.07L294.34,128.86L294.67,126.26L295,115.24L295.33,116.75L295.66,113.78L295.99,115.75L296.33,124.23L296.66,130.96L296.99,125.95L297.32,118.68L298.98,125.16L299.31,124.01L299.64,117.96L300.3,108.28L300.63,108.84L300.97,110.64L301.3,116.31L301.63,113.41L301.96,104.98L302.29,99.62L302.62,103.88L302.96,103.49L303.62,111.49L303.95,105.14L304.61,105.32L304.94,104.71L305.28,102.92L305.61,114.49L305.94,113.69L306.27,114.42L306.6,105.02L306.93,103.53L307.26,104.63L307.6,105.58L308.26,110.86L308.59,110.44L308.92,105.38L309.58,99.24L309.92,102.09L310.25,107.05L310.91,111.97L311.24,105.32L312.24,98.65L312.57,101.8L312.9,104.14L313.23,101.91L313.56,96.71L313.89,98.33L314.22,106.61L314.56,99.74L314.89,116.15L315.55,127.01L315.88,111.17L316.21,99.87L316.88,102.55L317.21,111.66L317.54,119.53L317.87,115.64L318.2,109.34L318.87,113.32L319.2,110.18L319.86,126.42L320.19,123.6L320.52,111.08L320.85,109.85L321.19,110.41L321.52,111.06L321.85,108.07L322.18,118.18L322.51,115.85L322.84,107.64L323.17,107.44L323.51,109.02L323.84,107.5L324.17,120.21L324.5,129.5L324.83,125.24L325.16,119.96L325.49,118.73L325.83,121.75L326.49,128.1L326.82,132.91L327.81,124.87L328.15,135.93L328.81,126.88L329.14,131.69L329.47,130.52L329.8,122.53L330.13,122.36L330.47,123.52L331.46,127.75L331.79,124.19L332.79,117.44L333.12,121.71L333.78,131.63L334.11,128.46L334.44,125.04L334.78,124.93L335.11,121.38L335.44,120.55L335.77,122.73L336.1,126.32L336.43,124.33L336.76,119.98L337.1,119.14L337.43,121.51L338.42,130.03L338.75,127.69L339.08,123.53L340.41,130.65L340.74,129.24L341.07,129.37L341.4,125.75L342.07,122.68L342.4,126.29L342.73,131.27L343.06,130.05L343.39,127.02L343.72,129.77L344.06,125.49L344.39,123.76L344.72,127.41L345.38,131.46L345.71,129.76L346.04,134.56L346.38,132.77L346.71,129.67L347.04,127.84L347.37,135.79L348.37,128.29L348.7,129.76L349.03,129.83L349.36,134.42L349.69,127.92L350.02,131.5L350.35,130.16L351.35,128.27L351.68,127.48L352.01,132.41L352.67,131.06L353.01,134.5L353.34,131.75L353.67,133.33L354,137.06L354.33,136.71L354.66,133.38L354.99,132.11L355.33,136.8L355.66,136.87L355.99,113.63L356.32,136.12L356.65,132.15L356.98,129.43L357.98,135.64L358.31,135.06L358.64,134.57L359.3,131.29L359.63,126.15L360.63,150.01L360.96,132.75L361.96,123.77L362.29,130.83L362.62,130.7L362.95,109.18L363.28,132.18L363.61,126.15L363.94,124.63L364.28,120.42L364.61,125.68L364.94,125.29L365.27,126.61L365.6,128.17L365.93,133.84L366.6,124.76L366.93,130.6L367.59,132.75L367.92,130.8L368.58,127.73L368.92,131.47L369.25,125.84L369.91,126.77L370.24,125.26L370.57,129.98L370.9,129.16L371.24,128.25L371.57,133.26L372.23,132.22L372.56,132.44L373.22,134.33L373.56,132.52L374.88,124.65L375.21,131.59L376.21,135.54L376.54,131.96L376.87,131L377.2,127.71L377.87,132.6L378.2,131.97L378.53,132.92L379.85,120.85L380.19,126.42L380.85,128.02L381.18,127.16L381.51,125.23L382.17,120.22L382.51,134.15L382.84,135.77L383.17,128.3L383.5,127.92L383.83,126.31L384.83,138.85L385.16,138.74L385.49,137.51L385.82,135.61L386.15,136.34L386.48,138.93L386.81,140.11L387.15,146.31L387.48,146.37L387.81,143.36L388.47,136.56L388.8,140.66L389.13,143.79L389.47,139.97L389.8,141.1L390.46,141.49L390.79,146.51L391.46,148.72L391.79,151.02L392.12,146.13L392.78,147.42L393.11,147.79L393.44,146.08L393.78,150.49L394.44,146.52L394.77,149.24L395.76,145.91L396.1,146.59L396.43,149.3L396.76,142.21L397.09,152.17L397.42,151.22L397.75,146.82L398.08,146.68L398.42,160.29L399.08,149.1L399.41,156.11L399.74,156.45L400.07,152.91L400.4,152.67L400.74,155.98L401.4,150.46L401.73,150.91L402.06,156.37L402.72,145.86L403.06,147.6L403.39,148.19L404.38,146.07L404.71,147.13L405.04,145.13L405.38,145.87L405.71,147.75L406.37,160.08L406.7,157.15L407.03,157.12L408.36,152.38L408.69,158.12L409.02,154.38L409.35,157.58L409.69,158.07L410.02,170.04L410.35,156.02L410.68,151.21L411.67,157.58L412.01,160.87L412.34,159.15L412.67,152.64L413,149.11L413.33,155.94L414.33,147.44L414.66,151.08L415.32,147.11L415.65,147.84L415.98,138.56L416.31,137.81L416.65,144.14L416.98,148.51L417.31,147.19L417.64,141.98L417.97,146.75L418.3,145.39L418.63,143.05L419.63,147.19L419.96,138.54L420.29,127.81L420.62,139.52L420.96,141.77L421.62,143.41L421.95,146.93L423.28,138.45L423.61,139.8L424.27,145.95L424.6,140.08L424.93,141.13L425.26,140.04L425.6,138.6L425.93,139.11L426.26,146.87L426.92,136.34L427.25,143.13L427.58,143.52L427.92,142.66L428.58,150.38L428.91,144.43L429.24,140.02L429.57,144.65L429.9,149.27L430.24,143.1L430.57,146.67L430.9,147.92L431.23,148.04L431.56,141.99L432.22,151.79L432.56,146.15L432.89,145.42L433.22,147.57L433.55,147L433.88,141.77L434.21,150.73L434.54,150.27L434.88,148.54L435.21,149.11L435.54,152.95L436.2,142.15L436.53,149.54L436.87,153.97L437.2,153.28L437.53,152.53L437.86,152.75L438.19,146.88L438.52,142.97L438.85,150.21L439.52,154.37L439.85,149.94L440.18,154.03L440.51,151.82L440.84,150.83L442.5,156.93L442.83,152.9L443.16,147.51L443.49,156.31L444.82,146.37L445.15,139.45L445.48,131.74L445.81,145.83L446.81,139.84L447.14,139.62L447.47,139.22L447.8,132.15L448.47,146.32L448.8,143.46L449.13,149.74L449.46,159.11L449.79,153.7L450.12,140.13L450.46,147.34L450.79,142.05L451.12,144.15L451.78,152.79L452.11,149.95L452.44,148.27L452.78,152.13L453.11,150.21L453.44,148.7L453.77,150.72L454.1,160.46L454.43,160.58L454.76,155.61L455.1,155.94L455.43,153.01L456.09,145.48L456.42,149.75L456.75,142.45L457.08,146.24L457.42,150.94L457.75,153.74L458.08,152.26L458.41,151.66L459.4,148.08L459.74,166.12L461.72,146.62L462.06,161.73L462.39,162.14L462.72,158.91L463.05,159.1L463.38,170.09L464.04,144.17L464.38,152.1L464.71,159.99L466.37,148.2L466.7,160.92L467.03,160.69L467.36,157.6L468.02,163.38L468.35,158.88L468.69,150.56L469.02,161.66L469.35,164.64L469.68,160.56L470.01,159.39L470.34,164.2L471.01,150.88L471.34,159.74L471.67,163.24L472,158.71" style="vector-effect: non-scaling-stroke; fill: none; stroke: rgb(255, 161, 90); stroke-opacity: 1; stroke-width: 2px; opacity: 1;"/></g><g class="points"/><g class="text"/></g><g class="trace scatter trace96c000" style="stroke-miterlimit: 2; opacity: 1;"><g class="fills"/><g class="errorbars"/><g class="lines"><path class="js-line" d="M0,72.68L0.33,70.65L0.66,77.67L0.99,83.13L1.33,77.89L1.66,65.01L2.32,57.83L2.65,60.48L2.98,63.78L3.98,80.09L4.31,67.53L4.97,66.78L5.63,80.13L5.97,70.68L6.3,80.37L6.96,79.84L7.29,75.66L7.96,86.78L8.29,81.9L8.95,68.87L9.28,73.41L9.61,74.24L9.94,76.9L10.28,66.91L10.61,54.81L10.94,71.99L11.6,59.13L11.93,73L12.6,77.14L12.93,72.3L13.92,80.07L14.25,70.5L14.58,62.61L14.92,73.61L15.25,73.8L15.58,75.68L15.91,71.19L16.24,71.75L16.57,73.19L17.57,78.65L17.9,72.77L18.23,69.22L18.56,70.77L18.89,72.73L19.56,71.29L19.89,86.21L20.88,64.49L21.21,67.71L21.54,81.4L22.21,80.77L22.54,82.28L22.87,71.7L23.53,73.53L23.87,73.46L24.86,82.42L25.19,74.55L25.52,75.02L25.85,80.94L26.19,83.69L26.52,83.45L26.85,78.1L27.18,82.22L27.51,76.73L29.17,94.73L29.5,87.26L29.83,86.34L30.16,92.45L30.49,92.46L30.83,89.84L32.15,76.66L32.48,85.46L32.81,86.07L33.15,80.63L33.48,82.95L33.81,76.45L34.47,63.55L34.8,65.68L35.13,74.94L35.8,83.33L36.13,79.02L36.46,73.34L36.79,67.17L37.12,76.65L37.46,69.48L37.79,77.63L38.12,80.93L38.78,85.33L39.11,79.88L39.44,78.57L39.78,79.27L40.11,80.45L41.1,71.82L41.43,76.74L41.76,81.87L42.1,78.32L42.43,79.06L42.76,82.83L43.09,82.66L43.42,80.08L43.75,76.41L44.08,81.7L44.42,86.47L45.08,86.39L45.41,76.69L45.74,76.59L46.07,77.96L47.07,87.31L47.4,84.36L47.73,85.55L48.06,91.63L48.72,85.45L49.06,93.66L50.05,96.31L50.71,89.26L51.04,83.46L51.38,96.06L51.71,99.7L52.04,95.03L52.7,103.73L53.03,91.73L53.37,90.92L53.7,95.83L54.03,94.96L54.36,96.06L54.69,89.94L55.02,90.98L55.35,86.5L55.69,86.36L56.02,91.19L56.68,83.3L57.01,87.78L57.34,95.26L57.67,80.59L58.01,89.91L58.34,88.69L59.33,82.91L59.66,93.07L59.99,80.81L60.33,80.84L60.66,89.36L61.65,75.88L61.98,88.76L62.98,81.49L63.31,88.8L63.64,84.77L63.97,87.69L64.3,92.27L64.63,90.97L64.97,83.68L65.3,86.94L65.63,84.96L65.96,85.28L66.62,103.01L66.96,96.47L67.29,90.99L67.62,91.69L67.95,87.25L68.28,84.63L68.61,91.83L68.94,98.05L69.61,97.84L69.94,95.88L70.93,86.32L71.26,101.44L71.6,87.06L72.26,90.54L72.59,89.87L72.92,91.3L73.25,81.36L73.58,97.63L73.92,86.43L74.25,92.12L74.58,89.34L74.91,89.84L75.24,92.69L75.57,91.97L75.9,102.82L76.57,92.23L76.9,96.65L77.23,92.76L77.56,94.66L77.89,101.59L78.89,141.21L79.22,143.18L79.55,141.65L79.88,135.85L80.21,134.78L80.54,128.9L80.88,122.78L81.21,125.71L81.54,130.17L82.53,114.27L82.87,127.1L83.2,122.08L83.53,124.93L83.86,131.38L84.19,125.68L84.52,131.94L84.85,133.83L85.52,118.49L85.85,127.7L86.18,128.79L86.51,126.14L86.84,127.21L87.17,115.99L87.51,114.7L87.84,109.51L89.16,127.93L89.49,121.91L90.16,89.49L90.49,98.45L90.82,106.66L91.48,111.38L91.81,105.26L93.14,118.81L93.47,113.53L93.8,116.8L94.13,103.79L94.47,110.66L94.8,92.35L95.79,113.43L96.12,111.86L96.46,117.14L96.79,106.29L97.12,101.28L97.45,104.87L97.78,113.72L98.78,121.85L99.11,119.26L99.44,98.32L99.77,111.86L100.1,117.73L100.76,116.34L101.1,117.85L101.43,127.93L102.09,125.56L102.42,131.85L103.75,119.56L104.08,105.37L105.07,117.26L105.4,114.16L105.74,113.37L106.07,114.9L106.4,107.52L106.73,116.51L107.06,123.37L107.39,119.94L107.72,133.63L108.72,103.64L109.05,121.41L109.71,120.5L110.04,123.36L110.71,126.28L111.04,121.5L111.37,136.1L111.7,130.5L112.03,131.27L112.37,126.06L112.7,132.78L113.03,126.71L113.36,130.58L113.69,137.53L114.02,135.6L114.35,136.68L114.69,143.04L115.68,112.97L116.01,125.5L117.01,148.75L117.34,163.17L118,178.05L118.33,213.47L118.99,113.62L119.66,116.25L119.99,112.45L120.32,110.9L120.65,88.38L121.65,111.05L121.98,106.9L122.31,105.11L122.97,105.51L123.3,110.36L123.63,113.35L123.97,105.51L124.63,116.42L124.96,107.07L125.29,118.55L125.62,115.92L125.96,113.81L126.29,113.55L126.62,110.07L126.95,110.48L127.28,94.86L128.28,129.06L128.61,126.47L128.94,123.73L129.27,91.02L130.93,118.82L131.26,114.47L131.92,102.68L132.25,115.65L132.58,114.4L132.92,115.49L133.25,109.17L133.91,115.21L134.24,111.26L134.57,124.4L134.9,120.79L135.24,116.1L135.57,104.1L135.9,117.22L136.23,117.02L136.56,107.88L136.89,115.84L137.22,120.41L137.56,121.76L137.89,117.99L138.55,129.63L138.88,114.59L139.54,129.35L139.88,127.65L140.21,122.74L140.54,121.57L140.87,129.94L141.2,114.63L141.53,125.05L141.87,125.67L142.2,131.56L142.53,126.6L142.86,122.59L143.19,129.16L143.52,122.68L143.85,125.89L144.19,127.82L144.52,134.5L144.85,126.26L145.18,127.38L145.51,184.55L146.17,170.93L146.51,175.53L146.84,167.99L148.16,131.26L148.49,133.42L148.83,140.83L149.16,136.8L149.49,135.21L150.15,115.87L150.48,125.21L150.81,125.01L151.81,141.68L152.14,137.46L152.8,134.59L153.13,135.72L153.47,144.97L154.13,137.36L154.46,139.91L154.79,139.63L155.46,133.24L155.79,143.86L156.78,137.1L157.11,139.94L157.44,130.14L157.78,142.38L158.11,150.1L158.44,137.84L158.77,132.14L159.1,138.6L159.43,133.97L159.76,131.59L160.1,138.53L160.76,153.41L161.09,151.96L161.42,152.02L161.75,155.75L162.08,142.74L162.42,142.94L162.75,149.96L163.08,152.21L163.41,147.88L164.4,125.57L164.74,132.39L165.07,138.24L165.4,135.55L165.73,141.58L166.72,114.39L167.06,131.25L167.39,140.74L168.05,140.46L168.38,141.01L169.71,166.72L170.04,154.54L171.37,124.42L171.7,135.48L172.36,148.54L172.69,147.81L173.02,140.31L173.35,140L173.69,138.53L174.68,155.46L175.01,153.74L175.34,153.27L175.67,157.51L176.01,139.67L176.34,142.81L176.67,166.47L177,255.8L177.33,242.94L177.66,216.35L178.33,184.26L178.66,195.07L178.99,200.39L179.98,171.41L180.31,172.49L180.65,165.41L180.98,177.74L181.31,184.41L181.64,177.34L181.97,181.42L182.97,162.61L183.3,177.09L185.29,156.67L185.62,171.08L187.28,150.89L187.61,152.09L188.27,177.92L188.6,173.64L188.93,172.09L189.26,171.47L189.6,163.96L189.93,146.43L190.26,169.1L191.25,175.58L191.58,171.42L191.92,172.89L192.25,164.73L192.91,183.74L193.24,177.82L193.57,184L194.24,179.89L194.57,150.56L195.23,173.5L195.56,169.1L195.89,166.52L196.22,169.75L196.56,183.14L196.89,165.28L197.22,175.14L197.55,172.54L197.88,177.49L198.54,176.9L198.88,152.83L199.21,141.13L199.54,165.71L199.87,168.83L200.2,167.87L200.53,162.69L201.53,142.28L201.86,154.43L202.85,165.76L203.19,157.83L203.85,128.54L204.18,145.94L204.84,156.64L205.17,147.13L205.51,147.26L205.84,138.53L206.17,122.3L206.5,137L206.83,149.86L207.16,146.48L207.49,152.24L208.49,121.67L208.82,137.43L209.15,145.95L209.48,142.92L209.81,134.84L210.15,121.65L210.48,130.62L210.81,126.73L211.8,145.71L212.13,142.06L212.47,145.43L212.8,137.62L213.13,124.2L213.46,142.9L213.79,146.07L214.12,142.67L214.46,135.63L214.79,135.51L215.12,147.56L215.45,133.62L215.78,147.23L216.11,151.65L216.78,142.22L217.11,145.75L217.44,153.68L217.77,137.18L219.1,158.25L219.43,159.62L220.09,159.44L220.75,176.68L221.08,173.59L221.42,158.97L221.75,167.19L222.08,167.18L223.07,172.87L223.4,176.48L223.74,176.96L224.07,175.06L224.4,177.8L224.73,171.66L225.39,183.74L225.72,177.06L226.06,179.53L227.05,169.34L227.38,185.84L227.71,178.68L228.04,181.73L228.38,180.55L229.04,173.9L229.37,176.81L229.7,185.23L230.03,181.7L230.37,185.69L230.7,205.25L231.03,197.48L231.36,217.07L232.02,231.5L232.35,224.77L233.35,206.73L233.68,235.86L234.01,231.82L234.34,238.48L235.34,222.36L235.67,219.34L236,222.38L236.33,208.98L236.66,217.71L236.99,212.92L237.33,215.29L237.66,210.24L237.99,216.2L238.32,214.74L238.65,212.21L238.98,218.74L239.31,247.22L239.65,222.42L239.98,163.08L240.31,174.12L240.64,167.06L240.97,162.94L241.3,163.07L241.63,128.07L242.63,176.4L242.96,177.62L243.29,173.08L243.62,186.08L244.29,193.12L244.62,185.72L244.95,186.02L245.28,182.66L245.61,162.57L245.94,181.71L246.28,192.43L247.6,181.42L247.93,162.05L249.26,194.55L249.59,192.36L250.25,148.41L250.58,164.07L250.92,180.12L251.58,187.85L251.91,184.36L252.24,182.47L252.57,166.71L253.24,186.58L253.57,181.26L253.9,177.15L254.23,188.4L254.56,178.47L254.89,172.2L255.56,192.62L255.89,190.05L256.22,182.38L257.21,158.93L257.54,182.99L257.88,183.55L258.21,179.74L258.87,173.81L259.2,161.7L259.53,157.18L259.87,162.24L260.2,167.36L260.53,167.35L260.86,168.42L261.85,146.11L262.19,159.65L262.52,175.82L263.18,172.82L263.51,171.95L263.84,169.6L264.17,156.43L265.17,194.1L265.5,184.78L265.83,188.37L266.16,181.96L266.49,176.43L266.83,190.39L267.49,195.57L267.82,194.57L268.15,219.81L268.81,173.09L269.15,185.88L269.48,198.73L269.81,197.24L270.14,198.77L270.47,201.81L271.13,182.21L271.47,192.57L272.13,202.65L272.46,199.62L272.79,202.24L273.46,191.76L273.79,201.2L274.12,212.13L274.45,210.04L274.78,204.76L275.78,182.27L276.11,194.03L276.44,196.34L276.77,195.4L277.1,192.62L278.43,160.38L278.76,180.44L279.42,176.03L279.75,186.03L280.08,216.94L280.42,189.33L280.75,209.29L281.08,218.16L281.41,215.87L281.74,209.73L282.74,183.89L283.07,192.01L283.4,197.67L283.73,197.42L284.06,194.1L284.39,193.55L284.72,185.89L285.06,179.38L285.39,193.39L285.72,201.37L286.05,198.27L286.38,197.58L286.71,194.86L287.04,195.8L287.38,182.89L288.04,199.83L288.37,197.32L288.7,192.35L289.03,190.9L289.37,193.65L289.7,182L290.03,190.37L290.36,197.45L290.69,196.98L291.02,189.53L291.35,178.19L291.69,194.48L292.02,178.11L292.35,181.33L292.68,186.52L293.34,183.37L293.67,188L294.34,175.98L294.67,178.97L295,183.19L295.33,185.47L295.66,183.45L295.99,181.9L296.66,172.33L296.99,174.86L297.32,188.26L297.98,182.33L298.31,184.53L298.98,180.29L299.31,191.11L299.64,194.72L299.97,194.09L300.3,189.61L301.3,177.4L301.63,183.99L302.29,197.25L302.62,194.87L302.96,197.37L303.62,183.96L303.95,185.23L304.28,196.69L304.61,196.11L304.94,196.37L305.28,198.2L305.61,191.07L305.94,193.97L306.27,203.21L306.93,214.92L307.26,210.22L308.26,189.43L308.59,198.02L308.92,214.07L309.25,213.57L309.58,209.17L309.92,209.48L310.25,187.95L310.58,179.23L310.91,191.64L311.57,208.1L311.9,203.82L312.24,206.29L312.9,165.87L313.23,187.75L313.56,187.15L313.89,192.6L314.89,171.38L315.22,173.23L316.21,206.44L316.54,204.59L317.54,186.03L317.87,199.32L318.53,208.7L318.87,207.65L319.2,209.43L319.86,190.77L320.19,202.83L320.85,212.24L321.19,211.72L321.52,177.25L322.18,88.09L322.51,126.59L322.84,108.56L323.17,142.15L324.17,210.42L324.5,211.6L325.49,228.46L325.83,223.33L326.16,221.69L326.49,210.86L326.82,200.29L327.15,211.1L327.48,224.63L327.81,224.1L328.15,219.55L329.14,193.48L329.47,207.93L330.13,224.1L330.47,220.31L330.8,209.7L331.13,213.08L331.46,200.49L332.12,228.95L332.46,223.11L332.79,221.87L333.78,200.37L334.11,212.5L335.11,229.47L335.44,230.46L336.1,205.81L336.43,225.39L336.76,228.13L337.1,227.77L337.43,223.39L338.42,210.05L338.75,222.6L339.42,233.1L339.75,227.56L340.08,224.78L340.41,238.14L340.74,234.38L341.07,238.19L341.4,255.03L342.07,261.24L342.4,249.2L343.06,217.87L343.39,230.02L343.72,241.81L344.72,226.62L345.05,208.87L345.38,206.08L345.71,231.35L346.04,235.71L346.38,234.5L346.71,228.24L347.04,222.46L347.37,202.31L347.7,197.41L348.03,219.35L348.7,227.71L349.03,226.94L349.36,217.23L350.02,201.43L350.35,218.39L351.02,227.27L351.35,217.92L351.68,220.43L352.01,209.59L352.67,248.43L353.01,244.75L353.34,240.9L354,227.2L354.33,231.03L354.66,229.03L355.33,254.02L355.66,250.64L355.99,252.57L356.98,227.2L357.31,238.7L358.64,255.61L358.97,249.4L359.3,244.55L359.63,247.15L359.97,262.65L360.3,275.7L360.63,246.96L360.96,206.44L361.62,211.02L361.96,206.19L362.29,210.67L362.62,160L363.61,224.11L363.94,217.32L364.61,231.65L364.94,223.33L365.27,221.08L365.6,221.09L365.93,212.28L366.26,191.89L366.6,210.3L366.93,225.24L367.92,219.57L368.25,203.24L368.58,198.17L368.92,202.37L369.25,210.29L369.58,213.06L369.91,208.83L370.57,200.51L370.9,186.76L371.24,170.35L371.57,208.49L372.23,220.25L372.56,217.2L372.89,204.01L374.22,227.8L374.55,224.01L374.88,218.95L375.21,218.56L375.54,215.31L375.88,241.72L376.21,234.15L376.54,228.52L376.87,229.64L377.2,223.24L377.53,205.28L377.87,217.96L378.2,214.38L378.53,230.64L379.19,226.34L379.52,228.57L380.19,203.22L380.52,213.06L380.85,225.03L381.18,224.13L381.51,220.61L382.51,199.84L382.84,217.93L383.17,228.43L383.5,224.45L383.83,223.68L384.49,206.6L384.83,213.31L385.16,224.51L385.49,234.34L385.82,233.65L386.15,231.08L386.48,231.85L386.81,223.58L387.48,185.97L387.81,208.35L388.14,217.46L388.47,215.6L388.8,220.59L389.47,189.26L389.8,203.34L390.13,224.78L390.46,218.77L390.79,215.29L391.12,209.49L391.46,217.32L391.79,201.68L392.12,210L392.45,227.31L392.78,225L393.11,226.86L393.44,229.53L394.11,192.81L394.44,215.08L395.43,232.16L395.76,215.64L396.1,181.97L396.43,185.41L396.76,193.99L397.42,238.09L397.75,236.36L398.08,238.06L398.42,236.87L398.75,219.8L399.41,241.53L399.74,239.43L400.07,237.99L400.4,236.1L400.74,219.81L401.07,184.57L401.4,213.25L401.73,235.89L402.06,240.93L402.39,232.53L403.06,223.14L403.39,188.68L404.05,238.99L404.38,236.26L404.71,232.83L405.04,230.42L405.38,219.71L405.71,172.97L406.04,208.2L406.37,243.35L407.37,230.42L407.7,201.67L408.03,169.5L408.36,206.85L408.69,233.1L409.35,229.63L409.69,221.02L410.02,217.04L410.35,179.21L411.01,230.44L411.34,220.41L411.67,211.53L412.34,226.78L412.67,205.63L413,206.63L413.33,219.48L413.66,226.24L413.99,219.58L414.33,217.78L414.99,183.22L415.32,210.36L416.31,224.79L416.65,223.41L417.31,200.75L417.64,218.09L417.97,229.58L418.3,225.91L418.63,218.58L418.97,215.89L419.3,204.03L419.63,192.79L419.96,216.11L420.29,222.52L420.62,215.02L420.96,216.12L421.29,214.73L421.62,205.16L421.95,187.97L422.28,211.47L422.61,226.79L422.94,222.05L423.28,220.35L423.61,213.77L423.94,227.04L424.27,210.37L424.6,230.2L424.93,231.52L425.26,234.04L425.6,231.11L425.93,225.97L426.26,249.56L426.92,249.52L427.25,258.25L428.91,218.93L429.24,232.62L429.57,243.59L429.9,235.13L430.24,237.38L430.9,216.65L431.23,193.48L431.89,229.16L432.22,218.44L432.56,206.61L433.55,188.69L433.88,196.56L434.21,210.68L434.54,199.21L434.88,198.7L435.21,195.47L435.54,199.97L435.87,184.07L436.2,197.32L436.53,211.48L437.53,214.89L437.86,203.81L438.19,187.59L438.52,197.15L438.85,215.71L440.51,176.65L440.84,203.17L441.51,213.99L441.84,209.9L442.5,194.96L442.83,175.34L443.49,221.6L443.83,212.85L444.16,213.15L444.82,193.28L445.15,177.95L445.81,215.26L446.15,213.76L446.48,210.78L446.81,207.93L447.14,187.11L447.47,169.39L447.8,197.21L448.47,219.67L448.8,210.72L449.13,208.28L449.46,188.36L449.79,179.69L450.12,196.3L450.79,212.72L451.12,206.46L451.45,201.41L451.78,201.76L452.11,181.82L452.78,216.01L453.11,208.85L453.44,204.89L454.1,204.94L454.43,179.8L454.76,188.18L455.43,204.04L455.76,202.28L456.09,198.07L456.75,165.69L457.08,191.09L457.42,204.58L457.75,202.8L458.08,198.54L458.41,203.1L458.74,190.61L459.07,180.64L459.4,208.8L460.07,218.51L460.4,211.76L461.39,165.56L461.72,185.49L462.39,225.63L462.72,215.28L463.05,211.89L463.38,221.25L463.71,204.01L465.04,239.23L465.37,230.42L466.03,204.16L466.37,221.54L466.7,242.51L467.03,236.6L467.36,225.43L467.69,222.56L468.02,211.27L468.35,179.51L468.69,204.2L469.02,234.74L470.67,171.7L471.01,198.1L471.67,223L472,210.42" style="vector-effect: non-scaling-stroke; fill: none; stroke: rgb(25, 211, 243); stroke-opacity: 1; stroke-width: 2px; opacity: 1;"/></g><g class="points"/><g class="text"/></g></g></g><g class="overplot"/><path class="xlines-above crisp" d="M0,0" style="fill: none;"/><path class="ylines-above crisp" d="M0,0" style="fill: none;"/><g class="overlines-above"/><g class="xaxislayer-above"><g class="xtick"><text text-anchor="middle" x="0" y="433" transform="translate(80,0)" style="font-family: 'Open Sans', verdana, arial, sans-serif; font-size: 12px; fill: rgb(42, 63, 95); fill-opacity: 1; white-space: pre;">2017</text></g><g class="xtick"><text text-anchor="middle" x="0" y="433" transform="translate(200.98000000000002,0)" style="font-family: 'Open Sans', verdana, arial, sans-serif; font-size: 12px; fill: rgb(42, 63, 95); fill-opacity: 1; white-space: pre;">2018</text></g><g class="xtick"><text text-anchor="middle" x="0" y="433" transform="translate(321.97,0)" style="font-family: 'Open Sans', verdana, arial, sans-serif; font-size: 12px; fill: rgb(42, 63, 95); fill-opacity: 1; white-space: pre;">2019</text></g><g class="xtick"><text text-anchor="middle" x="0" y="433" transform="translate(442.95,0)" style="font-family: 'Open Sans', verdana, arial, sans-serif; font-size: 12px; fill: rgb(42, 63, 95); fill-opacity: 1; white-space: pre;">2020</text></g></g><g class="yaxislayer-above"><g class="ytick"><text text-anchor="end" x="79" y="4.199999999999999" transform="translate(0,406.13)" style="font-family: 'Open Sans', verdana, arial, sans-serif; font-size: 12px; fill: rgb(42, 63, 95); fill-opacity: 1; white-space: pre;">190k</text></g><g class="ytick"><text text-anchor="end" x="79" y="4.199999999999999" transform="translate(0,337.19)" style="font-family: 'Open Sans', verdana, arial, sans-serif; font-size: 12px; fill: rgb(42, 63, 95); fill-opacity: 1; white-space: pre;">200k</text></g><g class="ytick"><text text-anchor="end" x="79" y="4.199999999999999" transform="translate(0,268.25)" style="font-family: 'Open Sans', verdana, arial, sans-serif; font-size: 12px; fill: rgb(42, 63, 95); fill-opacity: 1; white-space: pre;">210k</text></g><g class="ytick"><text text-anchor="end" x="79" y="4.199999999999999" transform="translate(0,199.31)" style="font-family: 'Open Sans', verdana, arial, sans-serif; font-size: 12px; fill: rgb(42, 63, 95); fill-opacity: 1; white-space: pre;">220k</text></g><g class="ytick"><text text-anchor="end" x="79" y="4.199999999999999" transform="translate(0,130.36)" style="font-family: 'Open Sans', verdana, arial, sans-serif; font-size: 12px; fill: rgb(42, 63, 95); fill-opacity: 1; white-space: pre;">230k</text></g></g><g class="overaxes-above"/></g></g><g class="polarlayer"/><g class="ternarylayer"/><g class="geolayer"/><g class="funnelarealayer"/><g class="pielayer"/><g class="treemaplayer"/><g class="sunburstlayer"/><g class="glimages"/><defs id="topdefs-701134"><g class="clips"/><clipPath id="legend701134"><rect width="127" height="140" x="0" y="0"/></clipPath></defs><g class="layer-above"><g class="imagelayer"/><g class="shapelayer"/></g><g class="infolayer"><g class="legend" pointer-events="all" transform="translate(561.44, 100)"><rect class="bg" shape-rendering="crispEdges" width="127" height="140" x="0" y="0" style="stroke: rgb(68, 68, 68); stroke-opacity: 1; fill: rgb(255, 255, 255); fill-opacity: 1; stroke-width: 0px;"/><g class="scrollbox" transform="translate(0, 0)" clip-path="url('#legend701134')"><text class="legendtitletext" text-anchor="start" x="2" y="15.600000000000001" style="font-family: 'Open Sans', verdana, arial, sans-serif; font-size: 12px; fill: rgb(42, 63, 95); fill-opacity: 1; white-space: pre;">Continents</text><g class="groups"><g class="traces" transform="translate(0, 30.1)" style="opacity: 1;"><text class="legendtext" text-anchor="start" x="40" y="4.680000000000001" style="font-family: 'Open Sans', verdana, arial, sans-serif; font-size: 12px; fill: rgb(42, 63, 95); fill-opacity: 1; white-space: pre;">Global</text><g class="layers" style="opacity: 1;"><g class="legendfill"/><g class="legendlines"><path class="js-line" d="M5,0h30" style="fill: none; stroke: rgb(99, 110, 250); stroke-opacity: 1; stroke-width: 2px;"/></g><g class="legendsymbols"><g class="legendpoints"/></g></g><rect class="legendtoggle" x="0" y="-9.5" width="121.734375" height="19" style="fill: rgb(0, 0, 0); fill-opacity: 0;"/></g><g class="traces" transform="translate(0, 49.1)" style="opacity: 1;"><text class="legendtext" text-anchor="start" x="40" y="4.680000000000001" style="font-family: 'Open Sans', verdana, arial, sans-serif; font-size: 12px; fill: rgb(42, 63, 95); fill-opacity: 1; white-space: pre;">Europe</text><g class="layers" style="opacity: 1;"><g class="legendfill"/><g class="legendlines"><path class="js-line" d="M5,0h30" style="fill: none; stroke: rgb(239, 85, 59); stroke-opacity: 1; stroke-width: 2px;"/></g><g class="legendsymbols"><g class="legendpoints"/></g></g><rect class="legendtoggle" x="0" y="-9.5" width="121.734375" height="19" style="fill: rgb(0, 0, 0); fill-opacity: 0;"/></g><g class="traces" transform="translate(0, 68.1)" style="opacity: 1;"><text class="legendtext" text-anchor="start" x="40" y="4.680000000000001" style="font-family: 'Open Sans', verdana, arial, sans-serif; font-size: 12px; fill: rgb(42, 63, 95); fill-opacity: 1; white-space: pre;">Asia</text><g class="layers" style="opacity: 1;"><g class="legendfill"/><g class="legendlines"><path class="js-line" d="M5,0h30" style="fill: none; stroke: rgb(0, 204, 150); stroke-opacity: 1; stroke-width: 2px;"/></g><g class="legendsymbols"><g class="legendpoints"/></g></g><rect class="legendtoggle" x="0" y="-9.5" width="121.734375" height="19" style="fill: rgb(0, 0, 0); fill-opacity: 0;"/></g><g class="traces" transform="translate(0, 87.1)" style="opacity: 1;"><text class="legendtext" text-anchor="start" x="40" y="4.680000000000001" style="font-family: 'Open Sans', verdana, arial, sans-serif; font-size: 12px; fill: rgb(42, 63, 95); fill-opacity: 1; white-space: pre;">North America</text><g class="layers" style="opacity: 1;"><g class="legendfill"/><g class="legendlines"><path class="js-line" d="M5,0h30" style="fill: none; stroke: rgb(171, 99, 250); stroke-opacity: 1; stroke-width: 2px;"/></g><g class="legendsymbols"><g class="legendpoints"/></g></g><rect class="legendtoggle" x="0" y="-9.5" width="121.734375" height="19" style="fill: rgb(0, 0, 0); fill-opacity: 0;"/></g><g class="traces" transform="translate(0, 106.1)" style="opacity: 1;"><text class="legendtext" text-anchor="start" x="40" y="4.680000000000001" style="font-family: 'Open Sans', verdana, arial, sans-serif; font-size: 12px; fill: rgb(42, 63, 95); fill-opacity: 1; white-space: pre;">South America</text><g class="layers" style="opacity: 1;"><g class="legendfill"/><g class="legendlines"><path class="js-line" d="M5,0h30" style="fill: none; stroke: rgb(255, 161, 90); stroke-opacity: 1; stroke-width: 2px;"/></g><g class="legendsymbols"><g class="legendpoints"/></g></g><rect class="legendtoggle" x="0" y="-9.5" width="121.734375" height="19" style="fill: rgb(0, 0, 0); fill-opacity: 0;"/></g><g class="traces" transform="translate(0, 125.1)" style="opacity: 1;"><text class="legendtext" text-anchor="start" x="40" y="4.680000000000001" style="font-family: 'Open Sans', verdana, arial, sans-serif; font-size: 12px; fill: rgb(42, 63, 95); fill-opacity: 1; white-space: pre;">Oceania</text><g class="layers" style="opacity: 1;"><g class="legendfill"/><g class="legendlines"><path class="js-line" d="M5,0h30" style="fill: none; stroke: rgb(25, 211, 243); stroke-opacity: 1; stroke-width: 2px;"/></g><g class="legendsymbols"><g class="legendpoints"/></g></g><rect class="legendtoggle" x="0" y="-9.5" width="121.734375" height="19" style="fill: rgb(0, 0, 0); fill-opacity: 0;"/></g></g></g><rect class="scrollbar" rx="20" ry="3" width="0" height="0" x="0" y="0" style="fill: rgb(128, 139, 164); fill-opacity: 1;"/></g><g class="g-gtitle"/><g class="g-xtitle"><text class="xtitle" x="316" y="461.8" text-anchor="middle" style="font-family: 'Open Sans', verdana, arial, sans-serif; font-size: 14px; fill: rgb(42, 63, 95); opacity: 1; font-weight: normal; white-space: pre;">Date</text></g><g class="g-ytitle"><text class="ytitle" transform="rotate(-90,27.309375000000003,260)" x="27.309375000000003" y="260" text-anchor="middle" style="font-family: 'Open Sans', verdana, arial, sans-serif; font-size: 14px; fill: rgb(42, 63, 95); opacity: 1; font-weight: normal; white-space: pre;">duration_ms</text></g></g></svg>