<svg class="main-svg" xmlns="http://www.w3.org/2000/svg" xmlns:xlink="http://www.w3.org/1999/xlink" width="700" height="500" style="" viewBox="0 0 700 500"><rect x="0" y="0" width="700" height="500" style="fill: rgb(255, 255, 255); fill-opacity: 1;"/><defs id="defs-aa3084"><g class="clips"><clipPath id="clipaa3084xyplot" class="plotclip"><rect width="516" height="320"/></clipPath><clipPath class="axesclip" id="clipaa3084x"><rect x="80" y="0" width="516" height="500"/></clipPath><clipPath class="axesclip" id="clipaa3084y"><rect x="0" y="100" width="700" height="320"/></clipPath><clipPath class="axesclip" id="clipaa3084xy"><rect x="80" y="100" width="516" height="320"/></clipPath></g><g class="gradients"/></defs><g class="bglayer"><rect class="bg" x="80" y="100" width="516" height="320" style="fill: rgb(229, 236, 246); fill-opacity: 1; stroke-width: 0;"/></g><g class="layer-below"><g class="imagelayer"/><g class="shapelayer"/></g><g class="cartesianlayer"><g class="subplot xy"><g class="layer-subplot"><g class="shapelayer"/><g class="imagelayer"/></g><g class="gridlayer"><g class="x"><path class="xgrid crisp" transform="translate(212.26,0)" d="M0,100v320" style="stroke: rgb(255, 255, 255); stroke-opacity: 1; stroke-width: 1px;"/><path class="xgrid crisp" transform="translate(344.52,0)" d="M0,100v320" style="stroke: rgb(255, 255, 255); stroke-opacity: 1; stroke-width: 1px;"/><path class="xgrid crisp" transform="translate(476.78,0)" d="M0,100v320" style="stroke: rgb(255, 255, 255); stroke-opacity: 1; stroke-width: 1px;"/></g><g class="y"><path class="ygrid crisp" transform="translate(0,418.5)" d="M80,0h516" style="stroke: rgb(255, 255, 255); stroke-opacity: 1; stroke-width: 1px;"/><path class="ygrid crisp" transform="translate(0,379.43)" d="M80,0h516" style="stroke: rgb(255, 255, 255); stroke-opacity: 1; stroke-width: 1px;"/><path class="ygrid crisp" transform="translate(0,340.36)" d="M80,0h516" style="stroke: rgb(255, 255, 255); stroke-opacity: 1; stroke-width: 1px;"/><path class="ygrid crisp" transform="translate(0,301.3)" d="M80,0h516" style="stroke: rgb(255, 255, 255); stroke-opacity: 1; stroke-width: 1px;"/><path class="ygrid crisp" transform="translate(0,262.23)" d="M80,0h516" style="stroke: rgb(255, 255, 255); stroke-opacity: 1; stroke-width: 1px;"/><path class="ygrid crisp" transform="translate(0,223.17000000000002)" d="M80,0h516" style="stroke: rgb(255, 255, 255); stroke-opacity: 1; stroke-width: 1px;"/><path class="ygrid crisp" transform="translate(0,184.1)" d="M80,0h516" style="stroke: rgb(255, 255, 255); stroke-opacity: 1; stroke-width: 1px;"/><path class="ygrid crisp" transform="translate(0,145.04)" d="M80,0h516" style="stroke: rgb(255, 255, 255); stroke-opacity: 1; stroke-width: 1px;"/><path class="ygrid crisp" transform="translate(0,105.97)" d="M80,0h516" style="stroke: rgb(255, 255, 255); stroke-opacity: 1; stroke-width: 1px;"/></g></g><g class="zerolinelayer"/><path class="xlines-below"/><path class="ylines-below"/><g class="overlines-below"/><g class="xaxislayer-below"/><g class="yaxislayer-below"/><g class="overaxes-below"/><g class="plot" transform="translate(80, 100)" clip-path="url('#clipaa3084xyplot')"><g class="scatterlayer mlayer"><g class="trace scatter traced5a8d6" style="stroke-miterlimit: 2; opacity: 1;"><g class="fills"/><g class="errorbars"/><g class="lines"><path class="js-line" d="M0,56.82L1.09,50.15L1.45,50L2.54,41.82L2.9,39.98L3.62,61.69L3.99,57.52L4.35,58.94L4.71,64.75L5.44,57.73L5.8,61.54L6.16,60.68L6.52,49.77L7.25,67.89L7.61,67.74L7.97,55.97L8.33,59.55L8.7,59.42L9.06,56.47L9.42,51.46L9.78,64.32L10.87,48.86L11.23,51.81L11.96,57.73L12.32,57.33L12.68,48.88L13.04,45.23L13.41,50.82L13.77,49.68L14.13,42.68L15.22,63.48L15.58,49.69L15.94,40.92L16.31,46.91L16.67,50.11L17.39,69.74L17.76,64.89L18.12,69.23L18.48,54.58L18.84,55.55L19.57,58.26L19.93,48.8L20.29,54.15L20.65,67.2L21.02,52.91L21.38,56.84L21.74,56.61L22.1,49.17L22.47,58.52L23.19,51.91L23.55,55.89L25,77.36L25.37,75.89L25.73,74.07L26.09,74.05L26.45,83.31L26.81,80.87L27.18,83.63L27.54,86.91L27.9,82.38L28.26,82.7L28.63,80.93L28.99,80.17L29.35,76L30.08,93.55L30.44,90.97L30.8,90.93L31.53,85.96L31.89,86.45L32.25,93.42L32.61,97.02L32.97,96.82L33.34,90.65L33.7,92.41L34.06,91.61L34.42,91.43L34.79,95.37L35.15,91.74L35.51,87.7L36.24,92.34L36.6,87.96L36.96,82.72L37.32,65.92L37.69,62.57L38.05,66.97L38.41,75.29L38.77,65.54L39.13,70.29L39.5,66.2L39.86,62.85L40.22,66.95L40.58,63.56L40.95,63.79L41.31,60.26L41.67,66.93L42.03,65.6L42.4,85.42L42.76,84.71L43.12,81.58L44.21,69.13L44.57,69.91L45.29,16L45.66,49.03L46.02,46.05L46.38,55.34L48.19,79.7L48.56,80.58L48.92,75.74L49.28,78.95L49.64,60.7L50.73,91.88L51.09,83.41L51.46,88.63L51.82,86.9L52.18,85.27L52.54,107.12L52.9,98.34L53.27,95.88L53.63,88.25L54.72,97.69L55.44,106.53L55.8,96.53L56.17,97.49L56.53,94.06L56.89,95.5L57.25,91.97L57.62,97.02L57.98,92.04L58.34,95.23L58.7,94.84L59.06,95.87L59.43,96.37L59.79,94.3L60.51,92.91L60.88,93.52L61.24,93.86L61.6,92.93L61.96,82.9L62.69,97.24L63.05,94.19L63.41,87.72L64.14,91.84L64.5,88.34L64.86,88.33L65.22,93.03L65.95,87.68L66.31,89.93L67.04,95.13L67.4,91.77L68.12,91.17L68.49,86.89L68.85,91.78L69.21,91.34L69.57,89.58L70.3,84.41L70.66,89.41L71.02,87.03L71.38,92.03L71.75,90.53L72.11,92.65L72.83,110.81L73.2,107.24L73.56,99.08L73.92,101.97L74.28,92.3L75.73,103.01L76.1,99.47L76.82,105.08L77.18,104.8L77.54,101.12L78.27,111.22L78.63,107.44L78.99,106.6L79.36,102.39L80.08,101.09L80.44,119.12L81.89,97.24L82.26,92.79L82.62,91.75L82.98,97.94L83.34,105.86L83.71,99.07L84.07,96.33L84.43,95.16L84.79,90.09L85.15,93.11L85.52,152.55L86.6,144.14L86.97,134.78L88.42,126.05L88.78,128.23L89.14,125.59L89.5,128.67L89.87,124.45L90.23,125.53L90.59,136.86L91.31,128.51L91.68,133.23L92.04,127.42L92.4,130.96L92.76,134.87L93.13,135.11L93.49,132.27L94.21,143.48L94.58,140.33L94.94,136.46L95.3,141.68L95.66,132.28L96.03,128.47L96.39,134L97.84,126.05L98.2,120.76L98.92,126.01L99.29,130.54L100.01,121.43L100.37,121.82L100.74,140.93L101.46,118.35L101.82,128.92L102.19,126.06L102.55,124.37L102.91,118.58L103.63,121.45L104,114.19L105.08,121.96L105.45,119.87L105.81,134.63L106.17,121.17L106.53,121.36L106.9,126.15L107.26,123.22L107.62,125.37L108.35,127.04L108.71,111.75L109.07,111.51L109.43,122.85L110.52,117L110.88,124.8L111.24,123.11L111.61,113.63L111.97,119.39L112.33,117.54L112.69,111.9L113.78,97.36L114.14,103.42L114.87,100.4L115.23,105.45L115.59,107.49L115.96,116.18L116.32,114.68L116.68,109.61L117.04,110.09L117.4,111.89L117.77,113L118.13,112.36L118.49,121.51L119.22,127.36L119.58,124.58L119.94,122.04L120.3,122.4L120.67,123.18L121.75,163.78L122.12,153.26L123.56,123.62L123.93,139.1L124.29,160.07L124.65,132.17L125.38,135.2L125.74,144.45L126.1,108.55L126.46,111.52L126.83,116.8L127.55,105.68L127.91,120.12L129,184.7L129.36,236.91L129.72,257.6L130.09,135.27L130.81,113.61L131.17,117.07L131.54,106.29L131.9,119.14L132.26,111.64L132.62,103.43L132.99,106.24L133.35,99.56L133.71,94.03L134.07,97.36L134.44,102.5L134.8,110.2L135.16,101.45L135.52,98.36L135.88,99.82L136.25,116.53L136.97,103.61L137.33,111.38L138.42,100.97L138.78,111.04L139.15,112.46L139.51,105.69L140.96,114.86L141.32,76.6L142.04,97.85L142.41,88.99L142.77,98.73L143.13,103.11L143.49,101.68L143.86,96.41L144.22,95.51L144.58,96.29L144.94,105.97L145.31,109.48L145.67,107.53L146.03,107.31L146.76,122.56L147.12,116.17L147.48,122.32L147.84,107.21L148.21,103.74L148.57,108.02L148.93,123.85L149.29,115.06L149.65,121.09L150.02,117.34L150.38,118.09L150.74,125.04L151.1,117.47L151.47,136.71L151.83,131.88L152.19,132.15L152.55,136.45L152.92,138.34L153.28,131.52L153.64,129.18L154,142.16L154.37,137.97L154.73,139.64L155.09,143.05L156.18,131.83L156.54,156.82L157.26,140.77L157.63,141.08L157.99,139.57L158.71,131.61L159.08,206.19L160.53,172.27L160.89,166.04L161.25,156.37L161.61,170.67L162.34,149.46L162.7,155.62L163.06,150.11L163.42,155.95L163.79,151.49L164.15,146.49L164.51,148.06L164.87,147.17L165.24,147.57L165.96,142.63L166.32,146.16L166.69,152.22L167.05,152.08L167.41,145.03L168.13,145.56L168.5,144.11L169.22,146.68L169.58,145.61L169.95,139.66L170.31,153.09L170.67,151.25L171.03,157.16L172.12,142.32L172.48,153.11L172.85,151.68L173.21,153.97L173.57,152.63L173.93,145.42L174.29,144.97L174.66,156.16L175.74,146.35L176.11,151.48L176.47,153.27L176.83,152.95L177.19,158.9L178.28,145.62L178.64,147.35L179.01,149.42L179.37,147.5L179.73,147.08L180.46,149.85L180.82,139.76L181.54,135.56L181.9,128.17L182.63,123.63L182.99,131.82L183.35,133.16L183.72,131.53L184.08,133.66L184.44,174.1L184.8,175.3L185.17,153.85L185.53,151.14L185.89,154.36L186.25,151L186.62,165.2L186.98,159.3L187.7,159.59L188.06,158.72L188.43,161.05L188.79,160.09L189.15,155.17L190.6,166.3L190.96,165.3L191.33,160.39L191.69,162.25L192.05,173.15L192.41,151.64L192.78,158.06L193.14,173.93L193.5,282.12L193.86,248.8L194.22,216.82L194.59,220.83L194.95,203.83L197.12,177.39L197.49,177.49L197.85,175.99L198.21,183.05L199.3,169.83L199.66,182.67L200.02,183.4L200.38,181.6L201.11,174.91L201.47,170.73L201.83,164.15L202.2,171.16L202.56,172.99L202.92,163.97L203.28,174.25L204.01,173.69L204.37,157.09L205.46,163.68L205.82,174.11L206.91,155.88L207.27,171.88L207.99,166.35L208.36,176.56L208.72,173.56L209.08,159.61L209.44,157.01L209.81,177.81L210.17,182.74L210.53,175.42L211.98,193.63L212.34,201.37L212.71,184.53L213.07,191.21L213.43,190.32L213.79,195.17L214.15,179.09L214.88,200.7L215.24,189.97L215.6,184.82L215.97,189.56L216.33,188.82L216.69,192.17L217.05,190.26L217.42,175.32L217.78,164.91L218.14,165.71L218.5,172.96L218.87,175.82L219.23,170.85L219.59,167.84L219.95,178.59L220.68,160.94L221.04,167.97L221.4,167.78L221.76,160.5L222.13,156.84L222.49,161.8L222.85,153.51L223.21,159.94L223.58,163.41L224.3,149.17L224.66,150.47L225.03,162.95L225.39,161.25L225.75,150L226.11,161.74L226.47,153.44L226.84,153.53L227.2,148.78L227.56,149.63L227.92,159.55L228.29,152.68L228.65,161.93L229.01,163.24L229.37,156.33L229.74,159.01L230.1,114.84L230.46,118.58L230.82,142.29L231.19,130.53L231.55,143.89L232.27,152.31L232.63,178.16L233.72,155.81L234.08,150.93L234.45,151.16L234.81,158.71L235.53,169.62L235.9,167.01L236.26,153.46L236.98,162.08L237.35,170.57L237.71,201.09L238.07,184.39L238.43,177.38L239.16,171.76L239.52,176.61L240.24,197.43L240.61,196.61L240.97,190.87L241.33,196.37L241.69,186.13L242.06,177.66L242.42,182.89L242.78,195.49L243.14,190.74L243.51,195.17L243.87,199.42L244.96,192.83L245.32,216.09L246.04,200.94L246.4,204.2L246.77,203.91L247.13,213.29L247.49,202.25L247.85,180.14L248.22,188.92L248.58,192.97L249.67,207.39L250.03,207.43L251.48,221.93L251.84,226.3L253.29,250.36L253.65,251.6L254.38,227.67L254.74,236.57L255.1,239.4L255.46,272.76L256.19,262.46L256.55,262.99L256.91,266.12L257.28,266.11L257.64,253.96L258,262.82L258.36,254.93L258.72,255.09L259.09,253.85L259.45,249.66L259.81,250.11L260.17,244.95L260.54,223.82L260.9,255.63L261.99,277.59L262.35,240.79L262.71,210.96L263.07,216.59L263.44,222.87L263.8,225.21L264.16,202.22L264.52,215.03L264.88,213.92L265.25,212.96L266.33,228.37L266.7,215.71L267.06,220.92L267.42,218.25L267.78,215.34L268.87,232.49L269.23,223.95L269.6,219.38L269.96,221.75L270.32,226.43L270.68,225.86L271.04,235.91L271.41,234.25L271.77,219.11L272.49,224.74L272.86,223.81L273.22,221.25L273.58,236.67L273.94,232.99L274.31,227.28L274.67,226.05L275.03,227.89L275.76,224.87L276.12,235.6L277.93,217.17L278.29,210.02L278.65,219.22L279.02,208.38L279.38,211.65L279.74,211.17L280.1,200.68L280.47,182.52L280.83,191.84L281.19,188.05L282.28,202.74L282.64,202.6L283,198.59L283.37,205.22L283.73,184.4L284.81,199.25L285.18,197.4L285.54,187.84L285.9,190.63L286.26,182.2L286.99,181.33L287.35,184.02L289.53,206.45L289.89,205.12L290.61,200.96L290.97,213.2L291.34,212.81L291.7,209.84L292.06,219.8L292.42,216.64L292.79,215.3L293.15,210.99L293.51,225.58L293.87,208.37L294.24,211.85L294.6,217.46L294.96,205.64L295.32,209.51L295.69,215.71L296.77,208.8L297.13,213.4L297.5,215.06L297.86,210.4L298.22,207.07L298.58,186.9L299.67,221.08L300.03,218.17L301.12,204.53L301.48,204.59L301.85,201.48L302.21,211.66L302.57,208.03L302.93,206.56L303.66,190.44L304.02,194.05L304.38,189.56L305.11,197.58L305.47,185.25L305.83,194.02L306.19,229.88L306.56,197.54L306.92,203.92L307.28,214.94L308.01,216.33L308.37,206.28L308.73,205.51L309.09,199.61L309.46,206.74L309.82,204.96L310.18,202.47L310.54,198.7L310.9,204.05L311.27,203.19L311.63,188.79L312.72,202.26L313.08,199.34L313.44,194.1L313.8,175.65L314.53,201.72L314.89,191.21L315.25,182.51L315.98,190.35L316.34,197.16L317.43,187.93L317.79,189.61L318.15,189.38L318.51,185.53L318.88,192.49L319.24,188L319.6,189.62L319.96,189.9L320.69,183.62L321.05,189.51L321.41,211.87L321.78,192.16L322.14,181.02L322.86,190.98L323.22,186.26L323.59,186.62L323.95,196.26L324.67,183.03L325.04,189.84L325.4,190.23L325.76,185.94L326.12,184.46L326.49,209.13L327.21,201.54L327.57,209.81L328.3,203.43L328.66,187.74L329.02,177.39L329.38,185.19L329.75,183.65L330.47,180.95L330.83,183.94L331.2,181.35L331.56,223.53L332.65,205.65L333.01,208.74L333.73,197.4L334.1,205.12L334.82,202.41L335.18,204.53L335.54,207.68L335.91,204.82L336.27,198.14L336.99,198.39L337.36,191.63L337.72,195.16L338.08,190.16L338.44,190.47L338.81,192.38L339.53,172.17L339.89,180.27L340.62,176.67L340.98,180.99L341.34,183.32L341.71,156.09L343.15,186.23L343.52,172.33L343.88,173.42L344.24,162.88L344.97,200.68L345.33,198.68L345.69,206.38L346.05,200.89L346.42,201.55L346.78,201.84L347.14,203L347.5,207.43L349.68,215.5L350.04,208.75L350.76,214.89L351.13,203.15L351.49,208.14L351.85,79.54L352.94,196.52L353.3,191.89L353.66,207.77L354.39,213.21L354.75,209.23L355.47,246.61L355.84,235.46L356.56,235.14L356.92,244.36L357.29,243.69L357.65,240.86L358.01,244.22L359.1,242.58L359.46,249.38L360.19,233.53L360.55,240.93L361.63,235.53L362,261.98L362.72,231.8L363.08,241.66L363.45,236.8L363.81,239.77L364.17,234.24L364.53,252.02L364.9,243.8L365.26,240.5L365.62,243.94L365.98,240.32L366.35,241.65L366.71,238.55L367.07,240.23L367.43,248.6L367.79,249.01L368.16,240.88L368.52,239.1L368.88,244.32L369.24,240.1L369.61,249.92L370.69,259.2L371.06,251.5L372.87,287.61L373.23,284.7L373.59,281.35L373.96,287.6L374.32,256.71L374.68,262.81L375.04,285.37L376.49,258.06L376.85,250.98L377.22,246.42L377.58,257.92L377.94,245.77L378.3,248.31L378.67,251.54L379.39,235.04L379.75,241.98L380.12,243.72L380.48,246.26L380.84,239.78L381.2,243.48L381.56,233.72L381.93,235.6L382.29,253.4L382.65,250.14L383.01,256.58L383.74,251.97L384.1,252.97L384.46,258.22L385.19,280.24L385.55,260.47L386.64,273.94L387,265.34L387.72,267.83L388.09,257.46L388.81,266.58L389.17,277.57L389.54,274.8L389.9,247.71L390.26,241.5L390.62,242.18L390.99,249.3L391.35,243.38L391.71,243.86L392.07,245.03L392.44,243.59L392.8,258.06L393.88,276.71L394.25,274.02L394.97,249.45L395.33,255.42L395.7,253.8L396.06,241.75L396.42,225.02L396.78,231.42L397.15,237.05L397.87,243.4L398.23,239.38L399.32,236.26L399.68,240.1L400.04,229.46L400.41,236.07L400.77,243.45L401.13,237.56L401.49,245.63L402.22,235.52L402.58,203.66L402.94,213.62L403.31,209.84L403.67,202.3L404.39,193.51L404.76,206.1L405.48,229.75L405.84,227.96L406.21,221.98L407.65,228.35L408.02,236.59L408.38,244.94L408.74,227.86L409.1,234.83L409.47,227.93L409.83,224.78L410.55,247.01L410.92,245.78L411.28,231.91L412.37,228.64L412.73,208.54L413.81,232.97L414.18,227.68L415.26,203.45L415.63,209.86L415.99,208.54L416.35,210.45L417.44,207.06L417.8,211L418.16,216.18L418.53,215.4L418.89,212.1L419.25,210.8L419.61,219.61L419.97,217.73L420.34,225.13L420.7,222.74L421.06,235.22L421.79,225.11L422.15,231.58L422.51,222.93L422.87,247.61L423.24,242.15L423.6,252.33L424.69,239.35L425.05,246.01L426.13,215.74L426.5,220.46L426.86,236L427.22,229.35L427.58,228.48L427.95,235.63L428.31,234.83L428.67,228.85L429.03,230.63L429.4,229.96L429.76,230.3L430.48,237.83L430.85,233.74L431.93,248.46L432.29,245.95L432.66,244.64L433.38,228.05L433.74,237.58L434.47,245.15L434.83,239.44L435.19,242.18L435.56,266.15L436.64,247.43L437.01,252.23L437.73,241.47L438.09,252.26L438.46,236L438.82,242.58L439.18,253.78L439.54,254.6L439.9,249.98L440.27,249.28L440.63,241.62L440.99,226.94L441.35,233.65L441.72,240.56L442.08,244.05L442.44,240.17L442.8,238.91L443.17,274.21L443.53,227.92L443.89,241.37L444.25,245.18L444.98,257.03L445.34,256.18L445.7,261.7L446.06,232.21L446.43,235.09L446.79,251.51L447.15,252.45L447.51,245.71L447.88,234.9L448.24,284.01L448.96,237.81L449.33,250.81L449.69,249.26L450.05,246.23L450.41,250.25L450.78,255.22L451.14,248.73L451.5,249.7L451.86,266.76L452.22,243.23L452.59,251.06L452.95,247.53L453.31,256.57L453.67,240.36L454.76,258.97L455.12,251.7L455.49,247.79L455.85,251.59L456.21,238.27L456.57,235.48L456.94,250.95L457.3,255.89L457.66,253.14L458.02,254.73L458.75,232.47L459.11,239.16L459.47,249.94L459.83,250.42L460.2,243.38L460.92,243.03L461.28,220.47L462.37,242.82L462.73,233.96L463.1,234.22L463.46,247.89L463.82,225.01L464.18,237.24L464.54,259.44L464.91,249.37L465.27,253.3L465.63,258.1L465.99,291.29L466.36,264.63L466.72,269.81L467.08,289.38L467.44,274.69L467.81,264.28L468.17,267.03L468.53,260.58L468.89,244.68L469.26,252.07L469.62,267.75L470.71,254.83L471.07,208.85L472.15,242.05L472.52,232.47L472.88,228L473.24,234.51L473.6,229.83L473.97,213.34L474.69,230.44L475.05,228.7L475.42,239.17L476.5,224.34L476.87,232.55L477.23,241.52L477.59,238.63L477.95,235.33L479.04,206.61L479.4,214.64L479.76,216.2L480.49,200.54L480.85,212.73L481.21,210.57L481.58,217.75L482.66,207.5L483.03,208.24L483.75,218.23L484.11,208.42L485.2,224.69L485.56,225.37L486.65,201.28L487.01,227.58L488.1,218.69L488.46,220.29L488.82,222.34L489.19,225.98L489.55,217.54L489.91,217.38L490.27,220.03L491.36,226.56L491.72,223.05L492.45,212.69L492.81,217.75L493.17,222.75L493.53,217.11L493.9,258.94L494.26,255.13L494.62,232.91L495.35,211.68L495.71,211.81L496.07,211.81L496.43,260.86L496.79,246.04L497.16,232.78L497.88,220.71L498.24,225.87L499.33,211.26L499.69,219.69L500.06,224.55L500.42,219.18L500.78,216.59L501.14,208.17L502.23,231.61L502.59,229.22L503.32,226.15L503.68,230.47L504.04,245.92L504.77,245.5L505.13,255.29L505.85,251.7L506.22,254.19L506.58,260.74L506.94,235.22L508.03,272L508.39,262.41L508.75,261.84L509.12,268.72L509.48,254.59L509.84,260.6L510.2,258.32L510.93,249.75L511.29,251.49L511.65,251.29L512.01,247.81L512.38,252.1L513.1,264.78L513.46,260.11L513.83,249.66L514.19,272.28L514.55,258.86L514.91,253.22L515.28,258.17L515.64,255.39L516,250.9" style="vector-effect: non-scaling-stroke; fill: none; stroke: rgb(99, 110, 250); stroke-opacity: 1; stroke-width: 2px; opacity: 1;"/></g><g class="points"/><g class="text"/></g><g class="trace scatter traceae3369" style="stroke-miterlimit: 2; opacity: 1;"><g class="fills"/><g class="errorbars"/><g class="lines"><path class="js-line" d="M0,66.89L0.36,66.49L0.72,70.43L1.09,71.29L1.45,63.35L2.54,39.93L2.9,40.04L3.26,48.16L4.71,66.77L5.07,53.8L5.44,49.48L5.8,56.51L6.16,68.48L6.52,38.74L6.88,65.85L7.25,61.64L7.61,59.3L7.97,58.55L8.33,64.22L8.7,74.31L9.06,56.63L9.78,47.94L10.15,53.93L11.6,23.83L11.96,61.8L12.32,66.72L12.68,53.13L13.41,43.65L13.77,54.1L14.13,40L14.49,52.67L14.86,45.88L15.22,60.31L15.58,52.27L15.94,35.16L17.03,52.71L17.39,44.21L19.21,58.65L19.57,44.28L19.93,38.09L20.29,46.96L21.02,41.95L21.38,45.61L21.74,51.39L22.1,39.65L22.47,40.59L22.83,31.69L23.19,32.11L23.55,48.48L23.92,42L24.28,43.48L24.64,59.98L25.73,45.21L26.09,45.51L27.18,58.83L27.54,45.81L28.99,62.56L29.35,56.5L29.71,68.67L30.08,66.66L30.44,63.21L31.53,68.28L31.89,76.93L32.25,73.14L32.61,75.54L32.97,74.8L33.7,74.86L34.06,69.52L34.42,69.48L34.79,67.53L35.15,66.08L35.51,77.67L37.32,54.17L37.69,56.91L38.41,62.62L38.77,67.18L39.13,67.6L39.5,65.11L40.22,53.71L40.58,60.34L40.95,52.49L41.31,59.43L41.67,62.85L42.03,55.15L42.4,66.64L42.76,63.63L43.12,52.71L43.85,58.2L44.21,56.21L44.57,58.51L44.93,52.45L45.29,63.3L45.66,56.84L46.02,48.77L46.74,66.23L47.11,60.68L47.47,59.93L47.83,54.47L48.19,58.16L48.56,58.96L49.28,63.59L49.64,61.01L50.01,65.85L50.37,62.69L50.73,62.35L51.09,58.24L51.46,64.14L51.82,63.69L52.18,65.9L52.9,76.16L53.27,58.8L53.63,67.29L54.72,69.67L55.44,76.14L55.8,67.64L56.53,77.52L56.89,75.42L57.25,69.61L57.62,94.41L57.98,78.1L58.34,75.66L58.7,79.07L59.06,74.88L59.79,65.28L60.15,74.06L60.51,70.24L60.88,72.4L61.24,71.15L61.6,62.35L61.96,66.08L62.33,67.34L62.69,80.24L63.05,62.31L63.41,70.13L63.78,65.64L64.14,61.34L64.5,63.28L64.86,60.17L65.22,77.11L65.59,64.69L65.95,70.35L66.31,69.95L66.67,67.5L67.04,68.68L67.4,54.7L67.76,79.47L68.12,69.51L68.49,71.37L68.85,72.66L69.21,80.17L69.57,75.51L69.94,80.77L70.3,84.59L70.66,75.42L71.02,75.28L71.38,77.87L72.11,70.52L72.47,82.5L72.83,93.55L73.2,83.56L73.56,85.42L73.92,84.42L74.28,75.48L74.65,74.78L75.01,75.86L75.37,90.23L75.73,76.39L76.1,86.63L76.46,87.86L76.82,84.2L77.18,80.58L77.54,68.45L77.91,93.88L78.27,73.25L78.63,77.38L79.72,79.08L80.08,62.85L80.44,84.49L80.81,67.96L81.17,81.07L81.53,74.22L81.89,76.69L82.26,79.97L82.62,80.2L82.98,96.27L83.71,81.31L84.07,83.88L84.43,83.31L84.79,85.09L85.15,93.78L86.24,143.9L86.6,136.7L87.69,130.88L88.05,135.57L88.78,121.01L89.14,126.46L89.5,123.83L89.87,127.4L90.23,113.6L90.59,132.18L90.95,123.1L91.31,127.9L91.68,131.12L92.04,124.69L92.4,125.97L92.76,131.77L93.13,114.97L93.49,117.54L93.85,128.33L94.58,122.27L94.94,122.89L95.3,111.66L95.66,116.55L96.03,107.35L97.47,126.34L97.84,115.48L98.56,89.42L98.92,91.91L99.29,95.93L100.01,112.26L100.37,103.06L101.46,115.86L101.82,116.82L102.19,111.84L102.55,118.74L103.63,97.99L104,107.11L104.36,105.15L104.72,116.17L105.45,119.89L105.81,114.22L106.17,99.52L106.53,115.9L106.9,117.56L107.26,112.73L107.62,116.34L107.98,115.8L108.35,113.43L108.71,103.65L109.07,105.82L109.43,115.91L110.52,108.82L110.88,123.37L111.24,113.99L111.61,116.96L111.97,125.6L112.33,124.25L112.69,117.49L113.78,100.14L114.14,105.75L114.87,115.74L115.23,105.77L115.59,97.83L115.96,115.15L116.32,100.19L116.68,112.38L117.04,121.81L117.4,116.11L117.77,123L118.13,123.77L118.49,115.79L118.85,100.25L119.22,117.65L119.94,113.4L120.3,117.11L120.67,117.94L121.03,139.29L121.39,136.85L121.75,146.27L122.84,122.53L123.2,124.8L123.56,124.93L123.93,135.57L124.29,138.25L124.65,128.25L125.01,123.9L125.38,135.1L126.1,111.75L126.46,115.14L126.83,122.83L127.19,118.84L127.55,124.1L129.36,225.76L129.72,201.41L130.45,102.81L130.81,103.27L131.17,109.31L131.54,110.24L131.9,71.72L132.62,100.7L132.99,98.49L133.35,95.07L134.07,98.69L134.44,96.97L134.8,103.28L135.16,101.21L135.52,96.32L136.97,109.64L137.33,107.11L137.7,103.93L138.06,107.66L138.42,96.7L138.78,103.18L139.15,99.78L140.6,125.36L140.96,116.99L141.32,65.19L141.68,90.3L142.04,89.92L142.41,85.16L142.77,99.19L143.13,100.61L143.49,96.64L143.86,98.96L144.22,94.76L144.58,100.77L144.94,100.14L145.31,93.62L146.76,101.03L147.12,117.22L148.21,86.2L148.57,105.1L148.93,104.55L149.29,99.9L149.65,112.07L150.02,102.38L150.38,102.59L150.74,91.87L151.1,110.71L151.47,118.79L151.83,116.23L152.19,113.83L152.55,118.57L152.92,111.42L153.64,106.28L154,121.48L154.37,106.11L154.73,116.03L155.09,117.41L155.45,120.14L155.81,119.11L156.18,102.45L156.54,115.18L156.9,104.86L157.26,107.76L157.63,100.7L157.99,117.49L158.71,111.6L159.08,174.62L161.25,129.49L161.61,135.67L163.06,121.02L163.42,120.24L164.15,108.84L164.51,113.12L164.87,113.74L165.96,125.08L166.32,117.04L167.77,128.11L168.13,120.15L168.86,124.89L169.22,120.37L169.58,122.35L169.95,117.9L171.03,126.97L171.4,121.17L171.76,124.13L172.12,105.28L172.85,131.83L173.21,117.7L173.57,109.15L173.93,117.98L174.29,119.06L174.66,117.03L175.02,126.38L175.74,141.07L176.11,137.96L176.47,137.87L176.83,148.23L177.19,126.83L177.56,126.69L177.92,132.15L178.28,129.67L178.64,133.29L179.73,106.58L180.09,115.99L180.46,123.91L180.82,115.01L181.18,128.85L181.54,118.89L181.9,119.75L182.27,96.21L182.63,113.2L182.99,124.5L183.35,120.65L183.72,128.21L184.08,128.26L184.44,149.54L185.17,137.62L185.53,150.84L186.98,112.53L187.34,113.58L187.7,130.49L188.79,143.89L189.15,129.74L189.51,129.94L189.88,128.74L190.96,146.83L191.33,137.2L191.69,139.35L192.05,151L192.78,125.17L193.14,145.23L193.5,253.78L193.86,233.43L194.22,201.97L194.59,196.68L194.95,177.53L195.31,182.61L195.67,181.28L196.04,167.07L196.76,141.27L197.12,158.6L197.49,154.14L197.85,161.74L198.21,160.67L198.57,155.31L199.66,162.11L200.02,148.26L200.38,161.76L200.75,157.13L201.11,152.87L201.83,148.87L202.2,159.35L202.56,151.25L202.92,161.91L204.37,151.49L204.73,151.9L205.1,152.98L205.46,161.63L206.54,155.09L206.91,155.05L207.27,157.43L207.63,133.24L208.36,153.83L208.72,153.38L209.08,154.04L209.44,148.61L209.81,157.08L210.17,153.44L210.53,161.02L210.89,162.06L211.26,156.64L212.34,166.25L212.71,143.78L213.07,152.02L213.43,151.53L213.79,148.28L214.15,143.1L214.52,149.24L214.88,178.28L215.24,162.59L215.6,161.09L215.97,155.95L216.33,161.96L216.69,160.1L217.05,164.84L217.78,131.51L218.14,150.8L218.5,158.43L218.87,154.64L219.23,150.73L219.59,134.16L219.95,149.06L220.31,137.38L221.76,152.21L222.13,139.95L222.49,138.56L222.85,127.65L223.94,151.9L224.3,140.64L225.39,120.24L225.75,120.87L226.11,141.73L227.2,128.45L227.56,145.21L228.29,125.47L228.65,126.89L229.01,125.6L229.74,99.82L230.1,123.54L230.82,128.44L231.19,137.35L231.91,143.22L232.27,141.31L232.63,137.28L233,117.77L233.36,137.02L233.72,142.45L234.45,127.13L234.81,128.57L235.17,142.16L235.53,124.53L235.9,139.75L236.26,141.4L236.62,141.92L236.98,139.77L237.35,133.7L237.71,144.44L238.07,127.83L238.43,142.64L238.79,138.84L239.88,144.63L240.24,158.72L240.61,151.62L240.97,156.42L241.33,161.86L242.06,149.53L242.42,163.9L243.51,155.58L243.87,165.24L244.23,176.76L244.59,174.44L244.96,171.63L245.32,176.74L245.68,172.27L246.04,174.68L246.4,177.3L246.77,173.83L247.13,174.33L247.49,171.67L247.85,167L248.22,170.54L248.58,181.12L249.3,172.04L249.67,175.74L250.03,173.84L250.39,177.8L250.75,178.51L251.12,184.53L251.48,183.6L251.84,186.5L252.93,218.78L253.29,234.6L253.65,243.92L254.01,226.08L254.38,222.6L254.74,222.75L255.1,209.47L256.19,255.12L256.55,232.02L256.91,219.19L257.28,229.1L257.64,226.95L258,229.71L258.36,221.13L258.72,231.67L259.09,217.52L259.45,217.73L259.81,216.85L260.17,210.42L260.54,223.68L260.9,222.92L261.26,224.28L261.62,245.83L261.99,241.25L262.35,174.34L262.71,190.28L263.07,181.27L263.44,178.65L263.8,183.22L264.16,130.82L264.88,189.99L265.25,185.98L265.61,190.74L265.97,194.04L266.33,188.86L267.06,198.16L267.42,189.56L267.78,191.24L268.15,189.75L268.51,175.82L269.23,192.6L269.6,188.39L269.96,189.87L271.04,174.79L271.41,178L271.77,183.21L272.49,186.41L272.86,191.09L273.22,180.46L273.58,128.81L274.67,184.42L275.03,181.68L275.76,178.03L276.12,166.61L276.84,182.22L277.21,180.18L277.57,178.56L278.29,185.67L278.65,182.68L279.02,185.2L279.38,193.07L279.74,191.08L280.1,182.96L281.19,166.43L281.55,188.56L282.64,173.71L283,174.35L283.37,158.02L283.73,148.53L284.09,152.98L284.45,160.76L285.54,173.89L285.9,170.14L286.26,159.18L286.63,165.34L286.99,183.77L287.35,172.01L287.71,182.62L288.08,181.98L288.44,180.24L288.8,163.15L289.53,200.7L289.89,197.06L290.25,191.61L290.61,199.79L290.97,190.32L291.34,190.18L291.7,202.18L292.06,201.27L292.42,205.16L292.79,205.92L293.15,254.59L293.87,187.32L294.24,198.35L294.6,207.43L295.32,202.66L295.69,214.34L296.41,199.51L296.77,207.89L297.5,210.41L297.86,202.6L298.22,212.43L298.58,202.95L298.95,198.58L299.67,215.03L300.03,212.28L300.4,206.35L301.48,181.33L301.85,201.47L302.93,199.22L303.29,174.51L304.38,155.98L304.74,187.44L305.47,177.67L305.83,184.51L306.19,226.01L306.56,193.82L306.92,212.55L307.64,227.51L308.01,220.78L308.73,209.84L309.09,190.59L309.82,207.46L310.18,205.54L310.54,204.65L310.9,201.94L311.27,192.59L311.63,184.02L311.99,199.04L312.35,199.53L312.72,205.44L313.08,204.63L313.44,199.81L313.8,200.82L314.17,188.1L314.53,188.84L314.89,211.52L315.98,193.05L316.34,198.61L316.7,189.52L317.06,192.76L317.43,198.58L318.15,189.87L318.51,175.62L318.88,197.6L319.24,186.63L319.6,194.09L319.96,191.68L320.33,179.42L320.69,181.85L321.05,190.77L321.41,192.43L321.78,186.77L322.14,180.76L322.5,185.06L322.86,192.85L323.59,193.4L323.95,178.78L324.31,183.87L324.67,177.26L325.04,197.37L325.4,194.84L325.76,190.88L326.85,184.43L327.21,195.49L328.3,203.45L328.66,189.74L329.02,188.56L329.38,194.46L329.75,190.24L330.11,201.83L330.83,199.28L331.2,200.17L331.56,199.98L332.28,189.86L332.65,201.99L333.37,205.79L333.73,205.38L334.1,202.89L335.54,218.81L335.91,217.53L336.63,198.49L336.99,199.86L337.36,201.11L338.08,217.85L338.44,212.55L338.81,214.54L339.17,192.16L339.89,184.51L340.26,207.15L340.62,207.71L340.98,211.06L341.34,212.95L341.71,192.38L342.79,210.38L343.15,208.74L344.24,178.26L344.6,187.06L346.05,225.23L346.42,218.4L347.14,206.54L347.5,214.28L347.87,213.83L348.23,217.15L348.59,220.92L348.95,218.23L349.31,208.44L349.68,199.31L350.04,216.15L350.76,218.11L351.13,222.13L351.49,214.95L351.85,79.92L352.21,94.67L352.58,156.68L352.94,107.7L353.3,174.13L354.39,229.92L354.75,223.22L355.84,239.28L356.2,236.36L356.56,237.27L356.92,229.53L357.29,216.89L357.65,232.08L358.01,236.59L358.37,236.55L358.74,232.39L359.82,218.77L360.19,227.6L360.91,240.94L361.27,239.35L361.63,223.43L362,222.98L362.36,218.77L363.45,242.24L363.81,235.57L364.9,220.05L365.26,228.61L366.35,248.86L366.71,246.84L367.43,233.85L367.79,246.42L369.24,238.5L369.61,236.71L369.97,238.98L370.33,235.73L371.06,248.09L371.42,239.45L371.78,238.79L372.14,256.74L372.51,259.49L372.87,272.75L373.96,281.76L374.32,270.9L375.04,241.71L375.4,251.7L375.77,259.69L376.13,258.41L376.49,257.15L376.85,252.07L377.22,235.8L377.58,237.1L377.94,249.43L378.3,251.99L378.67,249.3L379.03,244.21L380.12,222.12L380.48,229.02L380.84,231.47L381.2,240.05L382.65,221.89L383.01,231.01L383.38,233.12L383.74,229.12L384.1,227.74L384.46,232.71L384.83,220.22L385.19,238.33L385.55,261.42L385.91,248.45L386.28,249.09L387,238.52L387.36,240.63L388.45,265.11L388.81,268.08L389.54,275.76L389.9,260.78L390.26,237.71L390.62,248.32L390.99,255.57L392.44,263.81L392.8,264.61L393.16,269.45L393.52,286.22L393.88,304L394.25,278.73L394.61,232.15L394.97,246.16L395.33,240.8L396.06,236.66L396.42,184.8L397.51,243.91L397.87,232.73L398.6,243.82L398.96,231.04L399.32,227.65L399.68,228.03L400.04,229.12L400.41,219.72L400.77,224.45L401.13,230.67L401.49,233.75L401.86,232.62L402.22,229.77L402.94,215.35L403.31,217.07L403.67,229.71L404.03,228.62L404.39,224.48L405.12,217.05L405.48,201.69L405.84,142.33L406.21,213.81L407.29,237.86L407.65,217.34L409.47,253.12L409.83,248.59L410.55,234.53L410.92,245.5L411.28,250.86L411.64,241.71L412.37,241.93L412.73,207.93L413.81,231.49L414.18,240.26L414.9,249.93L415.26,212.53L415.63,211.79L415.99,216.89L416.35,241.56L417.08,240.8L417.44,229.74L418.16,215.84L418.53,228.82L418.89,237.15L419.25,232.36L419.61,233.08L419.97,234.46L420.34,219.23L421.42,245.02L421.79,242.86L422.15,249.69L422.51,251.24L422.87,243.93L423.6,161.84L423.96,185.37L424.32,204.35L425.05,227.54L425.41,199.01L425.77,188.89L426.13,215.68L426.86,233.22L427.22,231.6L427.58,223.78L427.95,226.18L428.31,199.45L429.76,243.48L430.12,247.35L430.85,210.48L431.21,219.56L431.57,241.93L431.93,251.95L432.29,251.4L432.66,228.69L433.74,179.86L434.11,240.8L435.19,258.47L435.56,245.79L435.92,214.84L436.28,231.24L436.64,255.57L437.01,255.3L437.37,254.06L437.73,253.04L438.09,227.03L438.46,178.15L438.82,229.1L439.18,249.98L439.54,250.99L439.9,248.76L440.63,237.04L440.99,192.38L442.08,255.88L442.44,246.64L442.8,241.58L443.17,230.24L443.53,185.6L444.25,252.19L444.62,248.35L444.98,242.45L445.34,246.46L445.7,217.45L446.06,171.91L446.43,216.33L446.79,247.55L447.15,249.48L447.51,246.58L448.6,185.81L448.96,209.4L449.33,236.12L449.69,221.33L450.05,217.16L450.41,215.81L450.78,237.99L451.5,223.2L451.86,237.33L452.22,243.92L452.59,235.17L453.31,213.88L453.67,193.19L455.49,240.63L455.85,225.04L456.21,216.99L456.57,227L456.94,237L457.3,230.44L457.66,224.33L458.02,225.58L458.38,212.74L458.75,211.62L459.11,224.74L459.47,229.22L459.83,228.19L460.2,225.36L460.56,223.09L460.92,215.77L461.28,198.24L461.65,227.11L462.01,233.69L462.37,228.18L462.73,226.63L463.1,226.19L463.46,252.16L463.82,230.15L464.18,247.88L464.54,248.06L464.91,247.8L465.27,246.58L465.63,242.66L465.99,270.17L466.36,257.53L466.72,270.45L467.08,281.9L468.89,235.06L469.26,254.36L469.62,268.43L469.98,261.28L470.34,260.33L471.43,221.07L471.79,238.66L472.15,249.52L472.52,247.42L472.88,233.08L473.6,226.46L473.97,203.05L474.69,229.24L475.05,218.91L475.42,220.67L475.78,213.93L476.14,216.53L476.5,194.74L477.23,225.14L477.59,224.76L477.95,226.14L478.31,227.65L478.68,218.16L479.04,205.01L479.4,221.2L479.76,227.92L480.13,215.12L481.21,220.02L481.58,201.22L483.03,227.96L483.39,229.49L483.75,222.35L484.11,189.96L484.84,237.48L485.2,233.17L485.56,229.82L486.29,213.98L486.65,186.97L487.37,231.49L487.74,227.05L488.1,228.95L488.46,226.47L488.82,204.04L489.19,181.51L489.55,208.45L490.27,232.55L490.63,228.53L491,223.38L491.36,203.12L491.72,185.98L492.08,210.98L492.81,226.98L493.17,221.72L493.53,215.79L493.9,230.81L494.26,188.79L494.62,208.39L494.98,220.38L495.35,217.04L495.71,217.65L496.07,194.55L496.43,224.59L496.79,187.79L497.88,220.51L498.24,215.89L498.97,189.74L499.33,171.01L500.06,213.98L500.42,211.5L500.78,210.99L501.14,216.88L501.51,205.42L501.87,196.63L502.23,222.73L502.96,237.07L503.32,227.89L504.4,199.93L504.77,232.87L505.13,241.53L505.49,238.75L505.85,227.5L506.22,230.68L506.58,241.67L506.94,226.68L507.3,240.42L507.67,252.57L508.03,244.56L508.39,260.45L509.12,251.73L509.48,225.11L510.2,263.02L510.56,262.73L510.93,260.44L511.65,249.64L512.01,199.31L512.74,258.74L513.1,239.29L513.46,228.94L513.83,236.31L514.19,224.71L514.55,190.65L514.91,232.7L515.28,252.54L515.64,248.82L516,237.14" style="vector-effect: non-scaling-stroke; fill: none; stroke: rgb(239, 85, 59); stroke-opacity: 1; stroke-width: 2px; opacity: 1;"/></g><g class="points"/><g class="text"/></g><g class="trace scatter trace3ac455" style="stroke-miterlimit: 2; opacity: 1;"><g class="fills"/><g class="errorbars"/><g class="lines"><path class="js-line" d="M0,40.98L0.36,36.77L0.72,48.74L1.09,60.26L1.45,56.32L1.81,36.47L2.54,34.28L2.9,40.18L3.26,39.53L3.62,52.19L3.99,46.92L4.35,59.19L4.71,29.42L5.07,54.95L5.44,45L6.52,64.58L6.88,59.43L7.25,55.04L7.61,64.79L7.97,56.06L8.33,57.2L8.7,65.51L9.06,72.12L9.42,65.33L9.78,51.28L10.87,69.37L11.23,58.45L12.68,24.02L13.04,64.59L13.41,71.13L13.77,63.87L14.86,70.35L15.22,64.3L15.94,49.88L16.31,60.15L16.67,62.44L17.03,61.94L17.39,60.26L18.12,55.71L18.48,62.22L18.84,59.36L19.21,62.75L19.57,63.78L19.93,61.92L20.29,56.57L20.65,65.02L21.02,64.97L21.38,59.1L21.74,87.14L22.1,55.76L22.47,51.44L22.83,57.59L24.28,82.71L24.64,69.64L25,53.89L25.37,62L25.73,64.59L26.09,64.13L26.45,67.28L26.81,63.79L27.18,71.11L27.9,60.13L28.26,64.88L28.63,73.16L29.71,60.82L30.08,50.37L30.8,70.49L31.16,69.62L31.53,78.34L31.89,80.92L32.25,67.76L32.61,63.28L32.97,77.87L33.34,78.17L33.7,71.88L34.06,70.23L34.42,74.76L35.15,50.8L35.51,59.16L35.87,66.62L37.32,41.83L37.69,30.25L38.05,33.51L38.41,50.37L39.13,64.39L39.5,57.13L39.86,54.46L40.22,41.67L41.31,59.65L41.67,63.71L42.03,74.83L42.4,69.89L42.76,60.55L43.12,68.51L43.48,64.82L43.85,67.26L44.93,53.47L45.29,53.77L46.02,71.87L46.38,63.41L46.74,64.65L47.11,69.79L47.83,61.84L48.19,70.16L48.56,80.16L48.92,74.78L49.28,75.34L50.01,50.87L50.37,57.14L51.46,76.87L51.82,70.65L52.18,71.13L52.54,75.59L52.9,68.99L53.27,78.02L53.63,88.12L54.72,91.76L55.8,64.66L56.17,88.22L56.53,91.58L56.89,83.11L57.25,95.5L57.62,83.82L57.98,72.93L58.34,73.54L58.7,81.25L59.43,89.52L59.79,81.71L60.88,66.48L61.24,78.67L61.6,77.61L61.96,65.84L62.69,78.81L63.05,63.49L63.78,78.51L64.14,77.38L64.5,71.91L64.86,70.87L65.22,76.97L65.95,56L66.31,75.71L67.4,60.41L67.76,64.85L68.85,55.18L69.21,64.22L69.57,59.75L69.94,61.11L70.3,67.67L70.66,73.89L71.02,57.52L72.83,83.05L73.2,78.21L73.56,63.95L73.92,66.52L74.28,65.4L74.65,60.17L75.73,78.11L76.1,78.26L76.82,69.82L77.18,75.54L77.54,70.33L77.91,79.17L78.27,67.19L78.63,73.41L78.99,69.34L79.36,68.14L79.72,70.97L80.08,64.69L80.44,79.93L81.17,70.84L81.53,71.4L81.89,70.06L82.98,79.92L83.34,78.32L83.71,70.86L84.07,78.31L84.43,70.07L85.15,79.6L85.52,107.46L86.6,130.95L86.97,129.8L88.42,98.63L88.78,107.05L89.14,111.71L89.5,101.14L89.87,102.73L90.23,88.53L91.68,109.79L92.04,103.3L92.4,116.22L92.76,114.7L93.13,96.73L93.49,94.15L93.85,104.25L94.21,109.75L94.58,106.78L94.94,108.56L96.03,84L96.39,90.62L97.47,106.76L97.84,103.96L98.56,56.54L98.92,74.36L99.29,88.95L99.65,93.63L100.01,83.31L101.1,72.87L101.46,84.91L101.82,95.6L102.19,88.61L102.55,89.12L103.63,54.45L104,72.37L104.36,91.72L104.72,84.05L105.08,77.45L105.45,88.73L105.81,69.82L106.17,73.17L106.53,64.92L107.98,103.51L108.35,100L108.71,62.32L109.07,90.84L109.43,94.06L110.88,109.72L111.24,100.46L111.97,116.39L112.33,109.63L112.69,112.31L113.06,104.36L113.42,100.42L113.78,81.82L115.59,102.24L115.96,88.41L116.32,86.63L116.68,94.84L117.04,100.94L117.4,98.86L118.13,97.08L118.49,94.76L118.85,77.79L119.94,102.86L120.3,105.63L120.67,110.77L121.03,90.07L121.39,81.68L121.75,105.33L122.48,112.51L122.84,106.32L123.2,119.28L123.56,105.4L123.93,103.53L125.38,132.24L125.74,115.64L126.46,84.05L126.83,104.75L128.64,156.45L129,165.89L129.36,201.22L129.72,162L130.09,89.09L130.45,103.87L130.81,103.34L131.54,84.26L132.26,86.42L132.99,96.34L133.35,90.34L134.07,83.88L134.44,85.29L134.8,89.97L135.16,98.83L135.52,85.94L136.25,98.64L136.61,78.76L136.97,102.18L137.33,98.76L137.7,97.17L138.78,90.37L139.15,58.34L140.23,115.62L140.6,104.43L140.96,106.57L141.32,84.23L141.68,72.06L142.04,96.47L143.13,111.83L143.49,105.94L144.22,81.09L144.58,104.48L144.94,102.29L145.31,111.26L145.67,93.59L146.03,106.98L146.39,103.51L146.76,94.27L147.12,107.86L147.48,106.64L147.84,102.25L148.21,92.86L148.57,103.72L148.93,103.81L149.29,87.75L149.65,93.62L150.02,113.65L150.74,118.68L151.1,112.05L151.47,118.16L151.83,86.62L152.92,121.04L153.28,114.02L153.64,112.4L154,116.17L154.37,96.85L154.73,110.52L155.09,110.56L155.45,121.17L155.81,110.97L156.18,118.54L156.54,120.7L156.9,116.33L157.63,132.14L157.99,130.5L158.35,116.61L158.71,120.25L159.08,186.81L159.44,172.59L159.8,174.46L160.16,184.17L161.97,112.12L162.34,116.3L162.7,133.97L163.42,129.35L163.79,108.03L164.15,96.92L164.51,113.79L164.87,112.74L165.24,135.44L165.6,135.44L165.96,139.16L166.32,137.64L166.69,130.76L167.41,127.1L167.77,143.59L168.5,131.43L168.86,135.34L169.22,139.23L169.95,127.22L170.31,144.74L171.03,130.45L171.4,132.7L171.76,136.17L172.12,132.81L172.48,140.39L172.85,151.51L173.21,137.86L173.57,133.49L173.93,139.29L174.66,124.35L175.02,130.74L175.74,149.77L176.11,149.6L176.47,149.81L176.83,147.91L177.19,139.83L177.56,140.43L177.92,150.87L178.28,158.45L178.64,145.03L179.01,146.21L179.37,132.39L179.73,121.16L180.09,127.2L180.46,132.55L180.82,135.35L181.18,135.18L181.54,126.96L182.27,106.19L182.63,127.42L182.99,137.62L183.35,134.35L183.72,133.28L184.08,134.49L184.44,143.15L184.8,136.8L185.17,156.53L185.53,170.18L185.89,153.36L187.34,111.55L187.7,119.7L188.43,140.44L188.79,134.26L189.88,128.37L190.24,158.38L190.96,148.65L191.33,154.4L192.05,149.12L192.41,124.64L193.14,175.23L193.5,269.14L193.86,260.34L194.22,231.54L194.95,183.24L195.31,202.66L195.67,216.04L196.04,186.72L196.4,184.3L196.76,190.37L197.49,163.89L197.85,184.25L198.21,200.43L198.57,189.78L198.94,192.79L200.02,163.44L200.38,182.77L201.11,175.15L201.47,179.31L201.83,175.15L202.2,158.31L202.56,146.99L202.92,168.99L204.01,153.42L204.37,148.16L204.73,133.24L205.1,134.86L205.46,178.58L205.82,188.45L206.18,177.89L206.54,178.09L206.91,176.72L207.27,157.32L207.63,141.78L207.99,173.21L208.72,187.63L209.08,187.05L209.44,183.04L210.17,163.06L210.53,188.28L211.62,199.65L211.98,196.43L212.34,184.61L212.71,140.6L213.43,184.85L213.79,178.12L214.15,177.47L214.88,179.94L215.24,155.16L216.33,183.46L216.69,175.81L217.05,179.24L217.42,136.36L218.87,168.98L219.23,161.15L220.31,128.25L220.68,151.93L221.04,149.37L221.4,160.47L221.76,166.63L222.13,160.92L222.49,137.19L222.85,106.82L223.21,133.75L223.58,148.67L223.94,146.26L224.3,135.96L224.66,144.44L225.03,127.16L225.39,100.09L225.75,132.78L226.84,150.57L227.2,129.64L227.56,133.08L227.92,91.55L228.65,147.06L229.01,141.48L229.37,131.3L230.46,104.68L230.82,125.98L231.55,132.67L231.91,121.91L232.27,131.45L232.63,117.77L233,106.88L233.36,130L233.72,131.76L234.08,130.45L234.45,123.41L234.81,121.7L235.17,135.42L235.53,121.45L235.9,137.08L236.26,145.44L236.62,124.12L236.98,125.71L237.35,139.78L237.71,147.03L238.07,126.23L238.43,129.96L238.79,146.7L240.24,163.36L240.61,152.88L241.33,181.73L241.69,179.04L242.06,153.92L243.87,169.71L244.23,166.37L244.59,169.78L244.96,168.28L245.32,169.38L245.68,159.93L246.04,169.57L246.4,182.29L247.49,165.89L247.85,164.16L248.22,156.41L248.58,183.24L248.94,174.2L249.3,182.99L249.67,176.62L250.39,159.48L250.75,165.38L251.12,178.43L251.48,171.36L251.84,177.5L252.2,193.9L252.56,190.14L252.93,216.35L253.29,208.63L253.65,223.93L254.01,226.51L254.38,213.32L255.1,202.22L255.46,230.88L256.55,224.45L256.91,232.42L258.36,195.66L258.72,204.91L259.45,213.36L259.81,202.8L260.17,222.75L260.54,206.16L260.9,201.2L261.26,214.63L261.62,257.64L262.35,138.41L263.07,140.52L263.44,133.8L263.8,129.53L264.16,102.59L265.25,156.96L265.61,154.98L265.97,141.4L266.33,176.02L266.7,173.65L267.06,182.69L268.15,167.39L268.51,135.78L269.23,186.7L269.6,183.16L269.96,176.27L270.68,165.45L271.04,135.64L272.49,197.68L272.86,188.04L273.58,150.69L273.94,157.21L274.31,186.02L274.67,183.14L275.03,187.22L275.76,178.69L276.12,154.38L276.84,183.8L277.21,173.79L277.57,166.1L277.93,184.86L278.65,150.75L279.02,175.92L279.38,186.64L279.74,182.81L280.1,173.54L281.19,136.92L281.55,169.32L281.92,175.75L282.28,172.74L282.64,169.74L283.73,150.85L284.09,157.87L284.45,161.72L284.81,155.04L285.18,156.99L285.54,138.79L286.26,115.12L286.63,139.66L286.99,157.86L287.35,142.56L287.71,152.23L288.44,147.31L288.8,134.53L289.89,186L290.25,170.33L290.61,170.28L290.97,165.24L291.34,152.85L291.7,172.48L292.06,182.88L292.42,181.24L292.79,178.21L293.15,186.75L293.51,148.8L293.87,148.12L294.24,166.1L295.32,191L295.69,186.22L296.41,156.6L296.77,171.72L297.86,192.98L298.22,189.09L298.58,187.98L298.95,179.19L299.67,208.9L300.03,206.92L300.4,200.88L300.76,194.97L301.12,176.13L301.48,174.92L301.85,181.43L302.21,189.02L302.57,185.69L302.93,180.51L304.38,150.65L304.74,164.66L305.11,166.84L305.47,164.43L306.19,208.82L306.56,178.43L307.28,213.6L307.64,204.9L308.01,197.73L309.09,169.33L309.46,177.07L309.82,183.7L310.18,185.05L310.54,178.42L310.9,179.88L311.27,171.87L311.63,165.68L311.99,182.41L312.35,200.02L312.72,187.08L313.08,186.32L313.44,184.99L313.8,186.1L314.17,169.57L314.89,184.54L315.25,182.87L315.62,179.34L316.34,183.44L316.7,166.11L317.79,193.89L318.15,182.83L318.51,171.39L318.88,186.33L319.6,160.04L319.96,174.21L320.33,182.65L320.69,176.89L321.05,178.47L321.78,155.22L322.14,168.03L322.5,173.28L322.86,170.65L323.22,165.93L324.31,149.86L324.67,162.19L325.04,172.46L325.4,171.57L325.76,165.52L326.12,173.6L326.49,163.21L326.85,167.33L327.21,180.8L327.57,181.25L327.94,180.7L328.3,169.43L328.66,170.47L329.02,158.73L329.38,150.75L329.75,169.93L330.47,189.25L330.83,185.53L331.2,190.31L331.92,165.72L332.28,173.1L332.65,186.95L333.37,182.43L333.73,186.97L334.1,173.31L334.46,175.39L334.82,197.06L335.54,211.44L335.91,202.08L336.99,172.62L337.36,190.84L337.72,213.1L338.08,209.35L338.44,204.69L338.81,203.39L339.17,176.97L339.53,161.63L339.89,192.98L340.62,207.08L340.98,194.05L341.34,197.74L341.71,147.89L342.07,117.76L342.43,167.06L342.79,156.94L343.15,170.92L343.88,150.03L344.24,153.32L344.6,148.71L344.97,184.97L345.69,188.61L346.05,181.6L346.42,179.67L346.78,171.57L347.14,158.24L347.5,180.62L348.23,199.01L348.59,192.85L348.95,199.59L349.31,183.13L349.68,176.22L350.04,186.71L350.76,206.08L351.13,200.87L351.49,129.94L352.21,48.13L352.58,73.38L352.94,81.48L353.3,91.2L353.66,146.67L354.03,135.98L354.39,190.13L355.47,221.88L355.84,221.67L356.2,212.96L356.56,208.34L356.92,191.52L357.29,180.22L357.65,189.52L358.01,215.69L358.37,214.53L358.74,208.35L359.82,162.91L360.19,186.81L360.91,210.12L361.27,203.13L362.36,178.78L362.72,201.82L363.08,220.88L363.45,206.58L363.81,210.44L364.17,208.71L364.53,185.71L364.9,177.24L365.26,196.17L365.98,214.91L366.35,214.39L366.71,218.64L367.43,175.78L367.79,207.58L368.52,217.83L368.88,208.27L369.61,195.56L369.97,180.25L370.69,226.51L371.06,223.38L371.42,219.46L371.78,213.82L372.14,226.14L372.87,210.25L373.23,241.42L373.59,254.53L373.96,253.49L374.32,237.06L375.04,195.23L375.4,212.8L375.77,231.52L376.85,204.71L377.22,180.74L377.58,173.13L377.94,218.06L378.3,225.39L378.67,225.33L379.03,216.25L379.39,213.25L379.75,176.29L380.12,168.45L380.48,211.27L381.56,224.58L381.93,206.5L382.65,177.8L383.01,207.1L383.38,216.77L384.1,209.33L384.46,210.04L384.83,197.97L385.19,202.35L385.55,244.79L385.91,249.43L386.28,240.04L387.72,206.92L388.09,244.5L388.45,253.78L388.81,243.14L389.17,243.04L389.54,224.32L389.9,205.67L390.26,220.37L390.62,235.84L391.71,253.84L392.07,260.55L392.8,232.8L393.16,233.86L393.52,252.23L393.88,264.02L394.25,224.17L394.61,178.89L395.33,180.61L395.7,172.55L396.06,183.96L396.42,120.99L397.51,207.17L397.87,202.97L398.6,224.37L398.96,218.27L399.32,216.58L399.68,216.21L400.04,195.16L400.41,158.33L400.77,195.33L401.13,222.98L402.22,211.02L402.58,183.86L402.94,176.95L403.31,184.75L404.03,197.42L404.39,191.97L404.76,189.92L405.48,164.74L405.84,186.9L406.57,209.08L406.93,207.39L407.29,197.58L408.02,184.66L408.38,208.4L409.83,190.8L410.19,197.75L410.55,196.61L411.28,222.99L411.64,219.38L412,221.69L412.37,207.19L412.73,200.47L413.09,206.61L413.45,208.04L413.81,234.39L414.18,222.17L414.54,210.33L414.9,211.26L415.26,193.53L415.63,191.94L415.99,209.16L416.71,215.83L417.08,202.35L418.16,180.25L418.53,208.25L418.89,223.73L419.25,219.49L419.61,217.04L420.34,192.17L420.7,196.87L421.06,216.1L421.79,229.85L422.15,217.19L422.51,217.4L422.87,205.96L423.24,187.46L423.6,202.8L423.96,230L424.32,231.68L424.69,217.51L425.05,215.56L425.41,189.93L425.77,183.2L426.13,188.34L426.5,229.88L427.58,194.17L427.95,209.52L428.67,200.39L429.03,217.83L429.4,212.96L429.76,213.86L430.12,216.04L430.85,169.66L431.21,211.07L432.29,217.94L432.66,203.19L433.38,170.36L433.74,202.97L434.47,231.32L434.83,227.19L435.19,224.24L435.56,234.22L435.92,226.47L436.28,231.44L436.64,235.01L437.01,230.5L437.73,225.23L438.09,214.3L438.46,183.33L438.82,197.38L439.18,227.82L439.54,238.22L439.9,221.42L440.27,219.48L440.63,211.86L440.99,178.41L441.35,213.62L441.72,236.36L442.08,222.74L442.8,223.81L443.17,210.89L443.53,149.58L443.89,199.94L444.25,242.5L445.7,182.77L446.06,155.4L446.79,223.9L447.15,220.06L447.51,217.04L447.88,217.57L448.24,210.23L448.6,163.52L448.96,212.48L449.33,229.32L450.05,205.43L450.41,226.7L450.78,219.16L451.14,180.23L452.22,211.99L452.59,205.66L452.95,208.62L453.31,198.19L453.67,165.22L454.4,222.93L454.76,212.79L455.12,213.33L455.85,206.29L456.21,181.15L456.94,226.5L457.3,224.73L457.66,214.23L458.38,192.83L458.75,168.48L459.47,218.28L459.83,202.31L460.2,207.61L460.56,206.73L460.92,192.37L461.28,170.94L461.65,195.34L462.01,223.47L462.37,218.25L462.73,215.94L463.82,189.79L464.18,217.03L464.91,225.8L465.27,220.38L465.63,212.65L465.99,238.62L466.36,222.22L466.72,238.25L467.08,246.57L468.17,209.48L468.53,214.67L468.89,204.29L469.26,216.02L469.62,226.82L469.98,214.79L470.34,220.85L470.71,212.5L471.43,160.61L471.79,180.22L472.15,213.03L473.24,169.43L473.6,174.2L474.33,165.84L474.69,191.42L475.78,172.25L476.14,179.84L476.5,165.6L476.87,175.64L477.23,197.31L477.59,204.37L477.95,197.26L478.31,202.54L479.04,163.31L479.4,168.78L479.76,204.13L480.85,192.46L481.21,173.4L481.58,142.3L481.94,188.86L482.66,206.69L483.03,190.91L484.11,150.6L484.47,175.35L484.84,207.91L485.2,192.4L485.56,196.43L485.92,191.23L486.29,167.22L486.65,159.5L487.01,183.43L487.74,200.57L488.1,191.93L488.46,187.96L488.82,163.19L489.19,145.54L489.55,181.67L490.27,208.49L490.63,192.21L491,191.82L491.36,166.93L491.72,164.43L492.08,177.08L492.81,198.29L493.17,189.38L494.26,166.46L494.62,200.81L494.98,212.34L495.35,199.46L496.79,162.86L497.16,173.9L497.52,188.62L497.88,185.08L498.24,185.73L498.61,182.95L498.97,157.97L499.33,147.66L499.69,183.89L500.06,192.85L500.42,191.28L500.78,182.14L501.14,186.58L501.51,169.73L501.87,155.92L502.23,193.65L502.59,204.97L502.96,201.32L503.32,195.21L504.4,118.46L504.77,130.69L505.13,186.13L505.49,215.79L505.85,203.57L506.22,192.72L506.58,202.95L506.94,178.85L507.67,228.41L508.03,227.88L508.39,224.92L509.48,180.75L509.84,201.3L510.2,229.77L510.56,216.68L510.93,193.63L511.29,192.68L511.65,172.34L512.01,150.69L512.38,169.69L512.74,216.43L513.1,212.26L513.46,196.73L514.55,141.64L514.91,159.43L515.64,199.76L516,182.93" style="vector-effect: non-scaling-stroke; fill: none; stroke: rgb(0, 204, 150); stroke-opacity: 1; stroke-width: 2px; opacity: 1;"/></g><g class="points"/><g class="text"/></g></g></g><g class="overplot"/><path class="xlines-above crisp" d="M0,0" style="fill: none;"/><path class="ylines-above crisp" d="M0,0" style="fill: none;"/><g class="overlines-above"/><g class="xaxislayer-above"><g class="xtick"><text text-anchor="middle" x="0" y="433" transform="translate(80,0)" style="font-family: 'Open Sans', verdana, arial, sans-serif; font-size: 12px; fill: rgb(42, 63, 95); fill-opacity: 1; white-space: pre;">2017</text></g><g class="xtick"><text text-anchor="middle" x="0" y="433" transform="translate(212.26,0)" style="font-family: 'Open Sans', verdana, arial, sans-serif; font-size: 12px; fill: rgb(42, 63, 95); fill-opacity: 1; white-space: pre;">2018</text></g><g class="xtick"><text text-anchor="middle" x="0" y="433" transform="translate(344.52,0)" style="font-family: 'Open Sans', verdana, arial, sans-serif; font-size: 12px; fill: rgb(42, 63, 95); fill-opacity: 1; white-space: pre;">2019</text></g><g class="xtick"><text text-anchor="middle" x="0" y="433" transform="translate(476.78,0)" style="font-family: 'Open Sans', verdana, arial, sans-serif; font-size: 12px; fill: rgb(42, 63, 95); fill-opacity: 1; white-space: pre;">2020</text></g></g><g class="yaxislayer-above"><g class="ytick"><text text-anchor="end" x="79" y="4.199999999999999" transform="translate(0,418.5)" style="font-family: 'Open Sans', verdana, arial, sans-serif; font-size: 12px; fill: rgb(42, 63, 95); fill-opacity: 1; white-space: pre;">190k</text></g><g class="ytick"><text text-anchor="end" x="79" y="4.199999999999999" transform="translate(0,379.43)" style="font-family: 'Open Sans', verdana, arial, sans-serif; font-size: 12px; fill: rgb(42, 63, 95); fill-opacity: 1; white-space: pre;">195k</text></g><g class="ytick"><text text-anchor="end" x="79" y="4.199999999999999" transform="translate(0,340.36)" style="font-family: 'Open Sans', verdana, arial, sans-serif; font-size: 12px; fill: rgb(42, 63, 95); fill-opacity: 1; white-space: pre;">200k</text></g><g class="ytick"><text text-anchor="end" x="79" y="4.199999999999999" transform="translate(0,301.3)" style="font-family: 'Open Sans', verdana, arial, sans-serif; font-size: 12px; fill: rgb(42, 63, 95); fill-opacity: 1; white-space: pre;">205k</text></g><g class="ytick"><text text-anchor="end" x="79" y="4.199999999999999" transform="translate(0,262.23)" style="font-family: 'Open Sans', verdana, arial, sans-serif; font-size: 12px; fill: rgb(42, 63, 95); fill-opacity: 1; white-space: pre;">210k</text></g><g class="ytick"><text text-anchor="end" x="79" y="4.199999999999999" transform="translate(0,223.17000000000002)" style="font-family: 'Open Sans', verdana, arial, sans-serif; font-size: 12px; fill: rgb(42, 63, 95); fill-opacity: 1; white-space: pre;">215k</text></g><g class="ytick"><text text-anchor="end" x="79" y="4.199999999999999" transform="translate(0,184.1)" style="font-family: 'Open Sans', verdana, arial, sans-serif; font-size: 12px; fill: rgb(42, 63, 95); fill-opacity: 1; white-space: pre;">220k</text></g><g class="ytick"><text text-anchor="end" x="79" y="4.199999999999999" transform="translate(0,145.04)" style="font-family: 'Open Sans', verdana, arial, sans-serif; font-size: 12px; fill: rgb(42, 63, 95); fill-opacity: 1; white-space: pre;">225k</text></g><g class="ytick"><text text-anchor="end" x="79" y="4.199999999999999" transform="translate(0,105.97)" style="font-family: 'Open Sans', verdana, arial, sans-serif; font-size: 12px; fill: rgb(42, 63, 95); fill-opacity: 1; white-space: pre;">230k</text></g></g><g class="overaxes-above"/></g></g><g class="polarlayer"/><g class="ternarylayer"/><g class="geolayer"/><g class="funnelarealayer"/><g class="pielayer"/><g class="treemaplayer"/><g class="sunburstlayer"/><g class="glimages"/><defs id="topdefs-aa3084"><g class="clips"/><clipPath id="legendaa3084"><rect width="82" height="83" x="0" y="0"/></clipPath></defs><g class="layer-above"><g class="imagelayer"/><g class="shapelayer"/></g><g class="infolayer"><g class="legend" pointer-events="all" transform="translate(606.32, 100)"><rect class="bg" shape-rendering="crispEdges" width="82" height="83" x="0" y="0" style="stroke: rgb(68, 68, 68); stroke-opacity: 1; fill: rgb(255, 255, 255); fill-opacity: 1; stroke-width: 0px;"/><g class="scrollbox" transform="translate(0, 0)" clip-path="url('#legendaa3084')"><text class="legendtitletext" text-anchor="start" x="2" y="15.600000000000001" style="font-family: 'Open Sans', verdana, arial, sans-serif; font-size: 12px; fill: rgb(42, 63, 95); fill-opacity: 1; white-space: pre;">Oceania</text><g class="groups"><g class="traces" transform="translate(0, 30.1)" style="opacity: 1;"><text class="legendtext" text-anchor="start" x="40" y="4.680000000000001" style="font-family: 'Open Sans', verdana, arial, sans-serif; font-size: 12px; fill: rgb(42, 63, 95); fill-opacity: 1; white-space: pre;">Global</text><g class="layers" style="opacity: 1;"><g class="legendfill"/><g class="legendlines"><path class="js-line" d="M5,0h30" style="fill: none; stroke: rgb(99, 110, 250); stroke-opacity: 1; stroke-width: 2px;"/></g><g class="legendsymbols"><g class="legendpoints"/></g></g><rect class="legendtoggle" x="0" y="-9.5" width="76.09375" height="19" style="fill: rgb(0, 0, 0); fill-opacity: 0;"/></g><g class="traces" transform="translate(0, 49.1)" style="opacity: 1;"><text class="legendtext" text-anchor="start" x="40" y="4.680000000000001" style="font-family: 'Open Sans', verdana, arial, sans-serif; font-size: 12px; fill: rgb(42, 63, 95); fill-opacity: 1; white-space: pre;">au</text><g class="layers" style="opacity: 1;"><g class="legendfill"/><g class="legendlines"><path class="js-line" d="M5,0h30" style="fill: none; stroke: rgb(239, 85, 59); stroke-opacity: 1; stroke-width: 2px;"/></g><g class="legendsymbols"><g class="legendpoints"/></g></g><rect class="legendtoggle" x="0" y="-9.5" width="76.09375" height="19" style="fill: rgb(0, 0, 0); fill-opacity: 0;"/></g><g class="traces" transform="translate(0, 68.1)" style="opacity: 1;"><text class="legendtext" text-anchor="start" x="40" y="4.680000000000001" style="font-family: 'Open Sans', verdana, arial, sans-serif; font-size: 12px; fill: rgb(42, 63, 95); fill-opacity: 1; white-space: pre;">nz</text><g class="layers" style="opacity: 1;"><g class="legendfill"/><g class="legendlines"><path class="js-line" d="M5,0h30" style="fill: none; stroke: rgb(0, 204, 150); stroke-opacity: 1; stroke-width: 2px;"/></g><g class="legendsymbols"><g class="legendpoints"/></g></g><rect class="legendtoggle" x="0" y="-9.5" width="76.09375" height="19" style="fill: rgb(0, 0, 0); fill-opacity: 0;"/></g></g></g><rect class="scrollbar" rx="20" ry="3" width="0" height="0" x="0" y="0" style="fill: rgb(128, 139, 164); fill-opacity: 1;"/></g><g class="g-gtitle"/><g class="g-xtitle"><text class="xtitle" x="338" y="461.8" text-anchor="middle" style="font-family: 'Open Sans', verdana, arial, sans-serif; font-size: 14px; fill: rgb(42, 63, 95); opacity: 1; font-weight: normal; white-space: pre;">Date</text></g><g class="g-ytitle"><text class="ytitle" transform="rotate(-90,27.309375000000003,260)" x="27.309375000000003" y="260" text-anchor="middle" style="font-family: 'Open Sans', verdana, arial, sans-serif; font-size: 14px; fill: rgb(42, 63, 95); opacity: 1; font-weight: normal; white-space: pre;">duration_ms</text></g></g></svg>