<svg class="main-svg" xmlns="http://www.w3.org/2000/svg" xmlns:xlink="http://www.w3.org/1999/xlink" width="700" height="500" style="" viewBox="0 0 700 500"><rect x="0" y="0" width="700" height="500" style="fill: rgb(255, 255, 255); fill-opacity: 1;"/><defs id="defs-1208c2"><g class="clips"><clipPath id="clip1208c2xyplot" class="plotclip"><rect width="516" height="320"/></clipPath><clipPath class="axesclip" id="clip1208c2x"><rect x="80" y="0" width="516" height="500"/></clipPath><clipPath class="axesclip" id="clip1208c2y"><rect x="0" y="100" width="700" height="320"/></clipPath><clipPath class="axesclip" id="clip1208c2xy"><rect x="80" y="100" width="516" height="320"/></clipPath></g><g class="gradients"/></defs><g class="bglayer"><rect class="bg" x="80" y="100" width="516" height="320" style="fill: rgb(229, 236, 246); fill-opacity: 1; stroke-width: 0;"/></g><g class="layer-below"><g class="imagelayer"/><g class="shapelayer"/></g><g class="cartesianlayer"><g class="subplot xy"><g class="layer-subplot"><g class="shapelayer"/><g class="imagelayer"/></g><g class="gridlayer"><g class="x"><path class="xgrid crisp" transform="translate(212.26,0)" d="M0,100v320" style="stroke: rgb(255, 255, 255); stroke-opacity: 1; stroke-width: 1px;"/><path class="xgrid crisp" transform="translate(344.52,0)" d="M0,100v320" style="stroke: rgb(255, 255, 255); stroke-opacity: 1; stroke-width: 1px;"/><path class="xgrid crisp" transform="translate(476.78,0)" d="M0,100v320" style="stroke: rgb(255, 255, 255); stroke-opacity: 1; stroke-width: 1px;"/></g><g class="y"><path class="ygrid crisp" transform="translate(0,383.47)" d="M80,0h516" style="stroke: rgb(255, 255, 255); stroke-opacity: 1; stroke-width: 1px;"/><path class="ygrid crisp" transform="translate(0,346.35)" d="M80,0h516" style="stroke: rgb(255, 255, 255); stroke-opacity: 1; stroke-width: 1px;"/><path class="ygrid crisp" transform="translate(0,309.23)" d="M80,0h516" style="stroke: rgb(255, 255, 255); stroke-opacity: 1; stroke-width: 1px;"/><path class="ygrid crisp" transform="translate(0,272.11)" d="M80,0h516" style="stroke: rgb(255, 255, 255); stroke-opacity: 1; stroke-width: 1px;"/><path class="ygrid crisp" transform="translate(0,234.99)" d="M80,0h516" style="stroke: rgb(255, 255, 255); stroke-opacity: 1; stroke-width: 1px;"/><path class="ygrid crisp" transform="translate(0,197.87)" d="M80,0h516" style="stroke: rgb(255, 255, 255); stroke-opacity: 1; stroke-width: 1px;"/><path class="ygrid crisp" transform="translate(0,160.75)" d="M80,0h516" style="stroke: rgb(255, 255, 255); stroke-opacity: 1; stroke-width: 1px;"/><path class="ygrid crisp" transform="translate(0,123.63)" d="M80,0h516" style="stroke: rgb(255, 255, 255); stroke-opacity: 1; stroke-width: 1px;"/></g></g><g class="zerolinelayer"/><path class="xlines-below"/><path class="ylines-below"/><g class="overlines-below"/><g class="xaxislayer-below"/><g class="yaxislayer-below"/><g class="overaxes-below"/><g class="plot" transform="translate(80, 100)" clip-path="url('#clip1208c2xyplot')"><g class="scatterlayer mlayer"><g class="trace scatter trace4b7cca" style="stroke-miterlimit: 2; opacity: 1;"><g class="fills"/><g class="errorbars"/><g class="lines"><path class="js-line" d="M0,39.76L0.36,63.64L1.09,62.82L1.45,63.89L2.54,84.39L2.9,80.32L4.35,74.92L4.71,61.85L6.16,77.47L6.52,67.34L7.25,68.3L7.61,75.08L7.97,85.53L8.33,83.51L8.7,83.52L9.06,85.46L9.42,58.61L9.78,58.48L10.15,77.14L10.51,89.24L10.87,82.08L11.23,76.44L11.6,75.37L11.96,63.8L12.32,58.13L12.68,71.78L13.04,67.16L13.41,73.96L13.77,78.11L14.13,69.69L14.49,59.37L14.86,61.64L15.22,69.22L15.94,91.15L16.31,70.77L16.67,59L17.03,78.16L17.39,69.54L18.12,69.83L18.48,76.08L18.84,74.41L19.57,58.04L20.29,74.27L20.65,88.6L21.02,70.97L21.38,75.5L21.74,73.32L22.83,92.94L23.19,88.8L24.28,74.52L24.64,62.36L25,61.32L25.37,75.12L25.73,76.31L26.09,75.15L26.45,70.89L26.81,68.02L27.18,59L27.54,57.82L27.9,97.54L28.26,90.9L28.63,95.94L28.99,96.51L30.08,79.5L30.44,85.5L30.8,82.18L31.16,90.69L31.89,85.02L32.25,75.27L32.61,71.27L32.97,79.32L33.34,79.3L33.7,75.62L34.79,57.05L35.15,57.26L35.87,77.86L36.24,73.83L36.6,69L37.69,60.26L38.05,65.89L38.41,58.11L39.13,58.31L39.5,53.88L40.22,43.2L40.58,52.48L40.95,49.39L41.31,52.31L41.67,55.7L42.03,57.52L42.4,38.94L42.76,33.02L43.12,42.38L44.21,62.77L44.57,55.01L44.93,31.38L45.29,34.44L45.66,50.96L46.02,54.48L46.38,50.02L46.74,51.65L47.11,44.91L47.47,41.77L47.83,47.12L48.56,58.51L48.92,53.08L49.64,38.1L50.01,40.99L50.37,38.08L50.73,45.97L51.09,43.88L51.46,41.98L52.18,37.49L52.54,64.59L53.63,39.87L54.72,41.04L55.44,41.96L55.8,43.84L56.53,44.46L56.89,48.18L57.25,43.02L57.62,49.29L57.98,36.05L58.34,50.36L58.7,51.1L59.06,52.18L59.43,43.98L60.15,66.28L60.51,60.87L60.88,63.25L61.6,71.79L61.96,56.89L62.33,53.2L62.69,27.44L64.14,46.48L64.5,47.59L64.86,47.69L65.22,46.74L65.59,39.57L65.95,47.63L67.04,38.12L67.4,46.02L67.76,46.48L68.12,44.34L68.85,55.71L69.21,50.97L70.3,29.03L70.66,35.76L71.02,45.2L71.38,38.5L71.75,40.31L72.83,16L73.2,32.06L74.65,50.37L75.01,43.25L75.73,30.37L76.1,49.92L77.18,34.67L77.54,32.61L78.63,45.85L78.99,45.9L79.72,44.87L80.08,45.19L80.44,37.03L80.81,42.45L81.17,52.2L82.26,38.46L82.62,35.57L82.98,30.51L83.34,38.87L83.71,40.79L84.07,35.43L84.43,35.46L84.79,42.67L85.15,37.96L85.52,77.48L86.24,79.13L86.6,68.89L86.97,76.5L87.69,76.27L88.05,68.62L88.42,66.55L88.78,73.57L89.5,63.84L89.87,66.96L90.23,67.36L90.59,67.72L90.95,58.99L91.31,81.86L91.68,75.52L92.04,76.35L92.76,66.55L93.13,50.97L93.49,47.93L93.85,62.98L94.58,53.69L94.94,53.77L95.3,51.12L95.66,46.58L96.03,47.62L96.39,61.58L97.47,57.08L97.84,56.52L98.2,45.14L98.56,46.23L98.92,56.24L99.29,55.38L99.65,59.78L100.01,66.22L100.37,55.37L100.74,59.06L101.1,48.42L101.82,60.28L102.19,56.33L102.55,54.9L102.91,55.11L103.27,51.01L103.63,43.3L104,58.54L104.36,63.62L104.72,61.31L105.08,58.91L105.45,55.7L105.81,63.3L106.17,59.89L106.53,66.22L107.26,62.48L107.62,63L107.98,57.62L108.35,56.31L108.71,48.14L110.52,97.95L110.88,115.17L111.24,99.14L111.61,109.34L111.97,113.28L112.33,116.63L112.69,110.15L113.78,72.28L114.14,76.82L114.51,82.28L114.87,80.69L115.23,72.76L115.59,71.89L115.96,64.84L116.32,65.35L116.68,70.37L117.04,74.89L117.4,67.54L118.13,56.59L118.49,57.91L118.85,68.85L119.22,79.99L119.58,77.99L119.94,73.14L120.67,75.87L121.03,87.61L121.75,135.22L122.12,111.34L122.84,102.48L123.2,104.11L123.56,105.75L124.29,139.81L124.65,121.59L125.74,113.47L126.1,95.07L126.83,120.48L127.19,101.64L127.55,105.57L127.91,119.13L129,137.36L129.36,206.45L129.72,267.11L130.09,107.57L131.17,67.89L131.54,59.92L131.9,39.92L132.26,50.37L132.62,69.59L133.35,61.32L133.71,73.05L134.07,65.83L134.44,74.79L134.8,85.69L135.16,78.08L135.52,72.73L135.88,68.22L136.25,73.53L136.61,69.71L136.97,78.58L137.7,86.65L138.06,74.26L138.42,74.07L138.78,71.46L139.87,61.34L140.23,66.08L140.6,67.86L140.96,62.07L141.32,83.79L141.68,74.71L142.04,79.37L143.49,70.73L143.86,65.14L144.22,60.59L144.58,69.06L144.94,76.68L145.31,73.97L145.67,73.5L146.39,76.91L146.76,73.37L148.21,98.97L148.57,93.68L148.93,81.11L149.29,78.32L149.65,85.95L150.38,88.81L150.74,83.73L151.1,85.17L151.47,75.83L151.83,75.54L152.19,78.97L152.55,77.35L152.92,81.12L153.64,84.07L154,67.65L155.09,79.47L155.45,76.41L155.81,77.19L156.18,76.46L156.54,87.38L157.63,74.21L157.99,75.8L158.71,81.51L159.08,96.35L159.44,97.21L159.8,100.48L161.97,65.98L162.34,80.01L163.79,77.17L164.15,83.06L164.51,74.83L164.87,82.53L165.24,91.64L167.05,69.53L167.41,72.3L168.5,79.94L168.86,77.25L169.22,80.85L169.58,52.34L170.31,82.04L170.67,79.35L171.03,79.53L171.76,73.18L172.12,44.51L173.21,69.58L173.57,73.57L173.93,76.37L174.29,63.7L174.66,63.29L175.02,69.78L175.38,72.63L175.74,67.18L176.11,68.51L176.47,66.34L176.83,52.14L177.19,56.91L177.56,70.89L177.92,71.83L178.28,77.28L178.64,75.95L179.01,66.85L179.73,56.38L180.09,69.76L181.18,75.16L181.54,72.48L181.9,56.45L182.27,61.91L182.63,68.74L182.99,71.59L183.35,68.17L183.72,73.77L184.08,66.19L184.8,66L185.17,80.67L185.53,83.33L185.89,86.6L186.25,66.89L186.62,67.39L186.98,58.88L188.06,78.31L188.43,76.59L188.79,74.76L189.15,75.88L189.51,69.76L189.88,58.14L190.24,71.46L190.6,70.04L190.96,71.94L192.41,41.85L192.78,59.27L193.14,75.36L193.5,136.73L194.95,75.92L195.31,81.87L195.67,90.53L196.4,84.53L196.76,85.06L197.12,102.95L197.49,92.28L197.85,110.39L198.21,108.75L198.57,102.46L198.94,84.85L199.3,89.8L199.66,96.42L200.02,85.65L200.38,96.42L200.75,101.11L201.11,101.51L201.47,97.92L201.83,102.18L202.2,101.27L202.56,89.8L203.28,100.56L203.65,93.68L204.01,88.57L204.37,95.23L205.1,70.17L205.46,83.9L206.18,80.33L206.54,81.1L206.91,89.37L207.27,68.99L207.63,65.92L207.99,78.33L209.44,68.93L209.81,77.47L210.17,70.81L210.53,73.88L210.89,74.48L211.26,74.41L211.62,72.87L211.98,74.45L212.34,63L212.71,62.18L213.07,68.17L214.15,77.7L214.52,81.52L214.88,96.13L215.24,86.19L215.6,91.79L216.69,95.95L217.05,92.99L217.78,68.56L218.14,83.59L218.5,87.3L218.87,82.34L219.23,89.3L219.59,87.02L219.95,79.9L220.31,65.13L220.68,84.96L221.04,80.9L221.4,81.18L221.76,86.74L222.13,88.29L222.49,73.05L223.21,101.46L223.58,99.88L223.94,100.22L224.3,92.53L224.66,93.94L225.03,100.67L225.39,87.4L225.75,98.28L226.11,103.5L227.56,74.77L227.92,74.1L228.65,83.78L229.01,83.24L229.37,82.34L229.74,82.38L230.1,60.11L230.46,55.82L230.82,77.49L231.91,88.55L232.27,84.71L232.63,73.45L233,76.48L233.36,82.34L233.72,76.98L234.08,85.67L234.45,91.02L234.81,81.6L235.17,69.7L235.53,69.88L235.9,81.82L236.62,84.2L236.98,96.78L237.35,100.89L237.71,113.3L238.07,92.34L238.43,99.04L238.79,100.27L239.52,105.38L239.88,101.97L240.61,72.71L240.97,84.37L241.33,92.25L241.69,93.1L242.06,82.16L242.42,87.39L242.78,117.46L244.23,98.31L244.59,103.63L244.96,106.04L245.32,82.93L246.04,109.54L246.4,101.73L246.77,93.92L247.85,86.6L248.22,94.68L248.58,109.43L249.3,109.04L249.67,118.96L250.03,117.73L250.39,108.83L251.48,142.68L251.84,137.84L252.2,126.11L252.93,143.01L253.29,153.11L255.1,136.53L255.46,161.35L255.83,164.36L256.19,160.89L256.55,158.73L256.91,161.57L258,145.9L258.36,153.61L258.72,160.94L259.09,153.28L259.45,148.65L259.81,150.45L260.17,147.52L260.54,144.65L260.9,169.23L261.26,183.02L261.62,257.25L261.99,281.7L262.35,152.37L263.44,98.02L263.8,95.87L264.16,45.16L264.52,60.68L264.88,109.09L265.25,115.03L265.61,114.7L265.97,107.12L266.7,121.14L267.06,114.73L267.42,117.98L267.78,113.68L268.15,115.08L268.51,107.95L268.87,108.14L269.23,116.6L269.96,112.77L270.32,116.72L271.41,101.68L271.77,113.52L272.49,123.08L272.86,122.88L273.22,119.23L273.58,101.89L273.94,113.37L274.31,130.06L274.67,130.05L275.03,125.5L275.39,125.56L275.76,117.78L276.12,104.09L276.48,120.81L277.21,124.54L277.57,120.97L278.65,110.06L279.02,116.01L279.38,124.88L279.74,122.23L280.1,123.93L280.47,132.32L280.83,121.69L281.19,108.41L281.55,117.72L281.92,109.83L282.64,120.4L283,114.52L283.37,139.53L283.73,118.41L284.09,127.34L284.45,134.3L284.81,133.33L285.18,132.45L285.54,138.88L285.9,130.73L286.26,124.65L286.63,134.57L287.71,151.28L288.08,150.07L288.44,129.49L288.8,131.71L289.16,141.96L289.53,137.04L289.89,140.52L290.25,140.96L290.61,143.33L290.97,131.25L291.34,130.7L291.7,139.76L293.15,148.67L293.51,120.55L293.87,122.76L294.24,132.3L294.6,127.46L294.96,132.24L295.32,133.22L295.69,135.08L296.05,159.7L296.41,161.21L296.77,169.84L297.13,169.75L297.5,168.79L297.86,167.55L298.22,168.12L298.58,183.46L298.95,183.23L299.31,181.54L300.03,187.35L300.4,179.41L301.12,145.85L301.48,148.07L301.85,155.05L302.21,160.45L302.57,153.49L303.66,145.11L304.02,140.48L304.74,144L305.11,167.06L305.83,146.67L306.19,167.48L306.56,145.64L306.92,160.66L307.28,162.43L307.64,154.49L308.01,159.37L308.37,163.64L309.09,144.72L309.46,159.85L310.18,148.24L310.54,152.33L311.63,124.79L311.99,150.21L312.35,153.06L312.72,146.29L313.44,145.5L313.8,108.61L314.17,109.23L314.53,128.12L314.89,128.7L315.25,139.6L316.7,131.32L317.06,141L317.43,140.3L317.79,141.9L318.15,141L318.51,143.11L318.88,117.01L319.24,120.06L319.6,133.53L319.96,131.31L320.33,139.42L321.05,135.31L321.41,113.19L321.78,113.84L322.14,124.13L322.86,135.23L323.22,132.63L323.59,133.16L323.95,110.39L324.31,111L324.67,126.72L325.04,125.03L325.4,132.94L326.12,135.23L326.49,104.78L326.85,100.6L327.21,117.29L328.3,114.7L328.66,114.68L329.38,82.45L329.75,92.09L330.83,103.87L331.2,97.71L331.56,77.1L331.92,85.96L332.28,108.38L332.65,111.45L333.01,107.78L334.1,117.94L334.46,101.18L335.18,119.74L335.54,114.19L335.91,114.45L336.63,114.42L336.99,106.05L337.72,118.44L338.08,108.51L338.44,109.99L338.81,108.96L339.17,93.08L339.53,90.64L339.89,114.28L340.26,105.96L340.62,107.36L340.98,109.5L342.07,97.83L342.43,119.99L343.52,110.53L343.88,106.19L344.6,97.48L344.97,110.47L345.69,117.76L346.05,115.33L346.42,109.85L346.78,113.69L347.14,106.51L347.5,123.35L347.87,116.98L348.23,114.41L348.59,114.78L348.95,114.02L349.31,135.43L349.68,111.86L350.4,142.66L350.76,133.38L351.13,136.88L351.49,135.97L351.85,151.41L352.21,128.83L352.58,138.67L352.94,143.5L354.03,130.63L354.39,103.5L354.75,93.79L355.11,116.31L355.47,122.62L355.84,113.43L356.2,119.7L356.56,118.46L356.92,100.08L357.29,90.59L357.65,112.23L358.01,125.16L358.37,123.49L358.74,117.93L359.46,99.35L359.82,89.62L360.19,121.1L360.55,110.27L360.91,109.73L361.27,113.61L361.63,109.37L362,86.14L362.36,89.66L362.72,118.6L363.08,118.02L363.45,113.82L363.81,111.35L364.17,113.87L364.53,94.27L364.9,89.65L365.26,121.13L365.98,124.86L366.35,122.79L367.43,101.43L367.79,115.21L368.52,123.49L368.88,117.73L369.24,118.19L369.61,110.96L369.97,101.7L370.33,115.41L371.06,121.79L371.42,116.05L371.78,124.56L372.14,118.82L372.51,108.24L373.59,132.48L373.96,134.85L374.68,105.59L375.04,107.35L375.4,131.49L375.77,134.93L376.13,130.33L377.58,110.16L377.94,134.93L378.3,135.65L378.67,126.6L379.03,130.38L379.39,143.38L379.75,122.05L380.12,126.77L380.48,151.59L381.2,142.92L381.56,143.46L381.93,147.62L382.29,134.14L382.65,136.01L383.01,157.95L383.38,165.05L383.74,162.54L384.1,164.19L384.46,142.66L384.83,143.5L385.19,145.58L385.91,181.74L386.28,174.58L386.64,181.69L387,159.66L387.36,167.46L387.72,159.64L388.09,165.66L389.17,177.94L389.54,170.91L390.26,152.06L390.62,173.95L391.35,180.15L391.71,169.98L392.07,172.54L392.44,159.44L394.25,304L394.61,191.72L395.33,151.87L395.7,154.55L396.06,156.17L396.42,97.94L396.78,105.32L397.15,158.36L397.51,159.55L397.87,140.92L398.6,161.13L398.96,157.13L399.32,157.37L399.68,151.64L400.04,167.37L400.41,161.98L400.77,163.99L401.13,174.63L402.22,167.85L402.58,165.38L403.67,181.97L404.03,180.82L404.39,173.14L405.48,152.17L405.84,166.81L406.21,195.79L406.57,189.86L406.93,187.71L407.29,188.75L407.65,168.61L408.02,163.35L408.38,176.38L409.83,180.82L410.19,147.89L410.55,145.82L410.92,159.81L411.64,174.23L412,171.09L412.73,161.32L413.09,141.57L414.54,180.36L414.9,180.91L415.26,129.19L415.63,131.62L415.99,150.32L417.44,176.8L417.8,147.75L418.16,129.07L418.53,146L418.89,143.97L419.97,134.75L420.34,142.18L420.7,140.61L421.06,150.86L421.42,153.93L421.79,148.23L422.15,150.06L422.51,147.74L422.87,149.2L423.24,141.39L423.96,166.01L424.32,157.09L424.69,149.22L425.05,151.77L425.41,147.64L425.77,146.97L426.13,158.87L426.86,152.91L427.22,158.36L428.31,145.06L428.67,150.67L429.03,159.67L429.4,150.94L429.76,148.59L430.12,146.28L430.48,166.65L431.21,145.41L431.57,155.52L432.66,137.52L433.02,141.44L433.38,135.24L433.74,142.12L434.47,153.34L434.83,152.47L435.19,149.73L435.56,140.08L435.92,140.8L436.28,142.71L436.64,153.32L437.01,144.25L437.37,145.16L437.73,144.29L438.09,150.14L438.46,150.74L438.82,153.24L439.18,161.5L439.54,160.41L439.9,157.77L440.27,148.1L440.63,153.06L440.99,153.72L441.72,160.86L442.08,157.47L442.44,162.45L442.8,158.44L443.17,137.95L443.53,132.31L443.89,150.72L444.25,150.05L444.62,151.36L444.98,152.04L445.34,144.63L445.7,149.99L446.06,133.36L446.43,132.78L446.79,147.34L447.88,134.9L448.24,124.85L448.6,118.62L448.96,130.39L450.05,137.52L450.41,135.14L451.14,93.75L451.5,110.49L452.95,135.12L453.31,133.9L453.67,128.06L454.04,139.52L454.4,140.61L454.76,138.72L455.49,135.57L455.85,125.49L456.21,124.26L456.57,137.25L456.94,139.64L457.3,137.9L457.66,138.77L458.02,145.01L458.38,134.14L458.75,114.88L459.11,140.27L459.83,136.45L460.2,134.47L461.28,99.78L461.65,125.41L462.37,141.02L462.73,138.73L463.1,135.51L463.82,106.91L464.18,124.4L465.27,143.23L465.63,141L466.36,114.77L466.72,129.35L467.44,139.58L467.81,138.44L468.17,145.06L468.89,121.82L469.26,135.56L469.62,136.57L469.98,134.3L470.34,137.72L470.71,121.88L471.43,139.17L471.79,162.1L472.15,165.04L472.52,163.53L472.88,159L473.24,162.28L473.6,159.95L473.97,150.97L474.33,170.39L475.05,170.01L475.42,176.38L476.14,149.38L476.5,134.7L477.23,162.18L477.59,158.53L477.95,156.17L478.31,159.49L478.68,142.6L479.04,132.89L479.4,158.79L480.13,159.91L480.49,155.38L480.85,148.27L481.21,123.36L481.58,124.88L481.94,134.05L482.66,150.36L483.03,147L483.39,144.61L483.75,117.23L484.11,121.41L484.47,127.72L485.2,149.84L485.56,145.9L485.92,145.42L486.29,98.98L486.65,116.84L487.01,124.82L488.1,150.64L488.46,149.74L489.19,112.37L489.55,129.1L489.91,138.63L490.27,136.61L490.63,137.24L491,136.37L491.36,129.87L491.72,110.86L492.08,138.2L492.45,137.96L492.81,142L493.53,148.55L493.9,113.61L494.26,116.72L494.62,131.09L495.71,144.52L496.07,144.52L496.79,102.82L497.16,117L497.52,125.48L497.88,123.2L498.24,108.77L498.61,119.19L498.97,107.73L499.33,89.23L499.69,116.42L500.42,135.11L500.78,132.39L501.14,131.93L501.87,106.29L502.23,124.67L502.59,143.5L502.96,137.54L503.32,129.53L504.04,101.25L504.4,103.52L504.77,110.32L505.49,130.19L505.85,125.66L506.94,100.94L507.3,102.56L507.67,127.11L508.03,137.95L508.39,134.9L508.75,136.62L509.48,105.02L509.84,117.63L510.56,135.55L510.93,128.11L511.29,128.81L511.65,133.35L512.01,123.01L512.38,131.54L512.74,152.09L513.1,150.98L513.46,152.2L513.83,147.32L514.19,122.09L514.55,129.29L514.91,146.64L515.28,148.74L515.64,145.45L516,157.62" style="vector-effect: non-scaling-stroke; fill: none; stroke: rgb(99, 110, 250); stroke-opacity: 1; stroke-width: 2px; opacity: 1;"/></g><g class="points"/><g class="text"/></g><g class="trace scatter traceeb2ebb" style="stroke-miterlimit: 2; opacity: 1;"><g class="fills"/><g class="errorbars"/><g class="lines"><path class="js-line" d="M0,70.03L1.45,60.8L1.81,65.66L2.17,66.92L2.54,84.9L3.99,58.3L4.35,65.07L4.71,56.38L5.07,69.46L5.44,67.03L5.8,54.9L6.16,54.42L6.52,47.75L7.61,68.59L7.97,59.72L9.06,43.64L9.42,56.84L9.78,55.08L10.15,71.41L10.51,73.46L10.87,64.72L11.23,62.22L11.6,45.99L12.68,73.77L13.04,72.54L13.41,71.79L13.77,68.54L14.13,74.54L14.49,47.69L14.86,57.71L15.22,80.05L15.58,68.46L15.94,89.58L16.67,56.56L17.03,62.57L17.39,65.18L17.76,83.47L18.12,71.85L18.48,71.35L19.21,74.92L19.57,66.75L19.93,68.94L20.29,86.55L20.65,78.04L21.02,80.3L21.38,82.12L22.1,104.16L22.47,101.95L22.83,115.63L23.55,98.26L23.92,103.08L24.28,102.26L24.64,91.39L25,94.01L25.37,110.52L26.09,91.51L26.45,97.47L26.81,102.7L27.18,88.96L27.54,102.17L27.9,135.39L28.99,119.73L29.35,118.28L29.71,117.69L30.08,122.81L30.44,130.63L30.8,119.21L31.16,116.89L31.53,121.5L31.89,126.76L32.25,109.93L32.97,114.93L33.34,106.37L34.42,94.34L34.79,107.06L35.87,93.55L36.24,102.86L36.96,96.06L37.32,106.2L37.69,104.65L38.05,112.5L38.41,113.56L38.77,95.45L39.13,96.06L39.5,101.51L39.86,104.56L40.22,104.47L40.58,119.53L40.95,102.71L41.31,114.01L41.67,111.56L42.03,111.29L42.4,81.57L43.48,112L43.85,107.91L44.21,107.73L44.57,104.38L45.29,86.47L45.66,108.11L46.02,101.29L46.38,106.81L46.74,106.77L47.11,114.43L47.47,96.73L47.83,101.03L48.19,121.41L49.28,113.78L49.64,120.75L50.01,98.38L50.37,100.17L50.73,121.8L51.09,124.65L51.46,117.6L52.54,94.87L52.9,96.45L53.27,124.65L53.63,110.41L54.72,112.82L55.44,104.17L55.8,111.5L56.53,122.43L56.89,122.18L57.25,126.13L57.62,97.89L57.98,101.03L58.34,110.59L59.79,127.57L60.15,109.73L61.24,128.53L61.6,126.51L61.96,126.06L63.05,97.73L63.41,116.59L63.78,113.24L64.14,118.41L64.5,111.5L64.86,113.02L65.22,87.55L65.59,89.37L65.95,99.52L67.04,98.14L67.4,96.19L67.76,86.72L68.12,99.43L68.49,117.13L68.85,109.03L69.21,107.8L69.94,93.71L70.3,87.86L71.75,114.15L72.11,112.07L72.47,102.68L72.83,38.47L73.2,70.95L73.56,88.53L74.28,107.35L74.65,101.51L75.01,101.39L75.37,71.99L75.73,85.57L76.1,113.95L76.46,96.78L76.82,102.18L77.18,104.07L78.27,80.28L78.63,101.7L78.99,94.71L79.36,108.91L80.44,76.37L80.81,83.72L81.17,101.37L81.53,100.33L81.89,107.09L82.62,100.26L82.98,73.31L83.34,75.88L83.71,101.81L84.07,99.16L84.43,100.07L84.79,90.76L85.15,83.74L85.52,104.32L85.88,105.72L86.24,137.32L88.05,89.61L88.42,94.38L88.78,117.39L89.14,108.38L89.5,107.96L89.87,105.59L90.23,109.82L90.59,87.33L90.95,92.81L91.31,109.78L91.68,113.04L92.04,104.17L92.4,97.27L92.76,105.66L93.49,83.34L93.85,100.35L94.94,102.87L95.3,97.11L95.66,76.9L96.03,88.94L96.39,94.94L96.75,96.12L97.11,91.01L97.47,92.72L97.84,87.7L98.56,77.69L98.92,83.83L99.29,83.24L99.65,80.13L101.46,97.93L101.82,98.71L102.19,96.49L102.55,99.55L102.91,106.06L103.27,88.79L104,100.61L104.36,99.15L104.72,87.74L105.45,101.22L105.81,78.6L106.53,104.87L106.9,103.32L107.26,94.73L107.62,100.96L107.98,93.59L108.35,78.69L108.71,93.41L109.07,98.28L109.79,90.2L110.16,101.95L110.52,93.4L110.88,101.54L111.24,117.18L111.61,125.91L111.97,112.62L112.69,110.96L113.06,103.89L113.78,87.66L114.14,102.04L114.51,95.42L114.87,96.21L115.23,101.83L115.59,100.26L115.96,79.05L116.68,88.45L117.04,83.63L117.77,82.37L118.13,78.02L118.49,63.04L118.85,78.56L119.22,86.14L119.58,69.78L119.94,75.89L120.3,84.13L120.67,76.4L121.03,88.79L121.75,108.24L122.12,98.38L122.48,95.58L122.84,97.99L123.2,103.52L123.56,81.65L123.93,87.62L124.29,99.45L125.01,93.48L125.38,97.05L125.74,92.45L126.1,72.03L126.46,69.96L126.83,93.25L127.19,68.43L127.55,81.82L127.91,100.66L129,143.69L129.36,198.5L129.72,195.62L130.09,82.26L130.45,87.9L130.81,86.58L131.17,80.42L131.54,90.85L131.9,28.15L132.99,88.4L133.35,91.36L133.71,79.43L134.07,86.7L134.44,85.17L134.8,95.87L135.16,94.93L135.52,93.93L135.88,98.14L136.25,90.13L136.61,92.3L136.97,108.95L138.06,100.89L138.42,98.33L138.78,90.16L139.15,91.73L139.51,98.07L139.87,105.42L140.23,102.49L140.6,93.43L140.96,93.18L141.32,35.55L142.41,100.12L142.77,105.22L143.13,106.83L143.49,98.34L143.86,86.81L144.22,102.35L144.58,98.23L144.94,101.04L145.31,99.76L145.67,101.38L146.03,96.8L146.39,73.51L146.76,97.47L147.12,102.88L147.84,97.48L148.21,122.31L148.57,87.99L148.93,89.34L149.29,97.96L150.74,111.37L151.1,104.53L151.47,105.69L151.83,95.56L152.19,111.7L152.55,106.09L152.92,102.15L153.64,106.8L154,99.1L154.37,102.02L154.73,118.3L155.45,115.08L155.81,119.87L156.18,123.71L156.54,103.37L156.9,103.53L157.26,116.79L157.63,130.26L157.99,128.25L158.35,122.59L159.08,146.49L159.44,136.62L159.8,153.64L160.16,146.84L160.53,141.79L160.89,148.86L161.25,134.91L161.97,126.05L162.34,141.98L163.79,119.16L164.15,123.15L165.24,136.91L165.6,121.49L165.96,131.75L166.32,123.76L166.69,115.87L167.05,113.95L167.41,125.41L168.13,110.81L168.5,122.75L168.86,120.35L169.22,98.13L169.58,100.23L169.95,115.81L170.31,107.61L170.67,110.87L171.03,108.38L171.4,112.65L171.76,101.81L172.12,89.78L172.48,90.99L172.85,104.26L173.21,102.98L173.57,107.92L173.93,109.31L174.29,93.81L174.66,79.2L175.02,88.66L175.38,95.03L176.47,106.82L176.83,84.81L177.19,81.84L177.56,101.63L177.92,101.41L178.28,97.14L178.64,101.13L179.01,98.01L179.37,78.05L179.73,80.98L180.09,103.92L180.46,93.24L180.82,107.42L181.18,108.37L181.54,111.46L182.27,85.81L182.63,99.53L183.35,104.6L183.72,96.07L184.08,79.2L184.44,104.28L184.8,101.73L185.17,125.12L185.53,108.78L185.89,117.56L186.25,111.61L186.98,79.19L187.34,94.76L188.43,116.35L188.79,118.38L189.88,97.77L190.24,105.52L190.6,106.5L190.96,112.22L192.41,68.2L192.78,107.97L193.14,114.9L193.5,172.25L194.95,106.6L195.31,131L195.67,118.7L196.04,124.1L196.4,132.8L196.76,125.94L197.12,148.53L197.49,142.22L197.85,152.99L198.21,155.07L198.57,148.65L198.94,151.59L199.3,144.13L200.02,129.14L200.38,144.31L202.2,131.96L202.56,135.47L202.92,136.36L203.28,143.4L204.01,135.84L204.37,122.68L205.1,113.74L205.46,120.91L206.54,132.11L206.91,124.12L207.63,111.69L207.99,114.78L208.36,123.84L208.72,121.74L209.08,124.74L209.44,123.16L209.81,115.04L210.17,110.12L210.53,122.47L210.89,130.9L211.26,128.68L211.62,126.9L211.98,122.42L212.34,106.09L212.71,102.69L213.07,118.3L213.43,125.34L213.79,118.12L214.15,120.14L214.52,121.55L214.88,129.04L215.24,119.19L215.6,130.09L216.33,133.49L216.69,129.84L217.05,132.87L217.42,108.5L217.78,104.1L218.14,115.42L218.87,122.77L219.23,120.93L220.31,103.94L220.68,119.38L221.76,105.37L222.13,87.69L223.58,129.88L223.94,118.18L224.66,105.63L225.03,115.93L225.39,99.5L225.75,119.44L226.11,126.9L226.47,116.53L227.2,104.52L227.56,81.4L228.65,92.17L229.01,91.95L229.37,91.58L229.74,83.79L230.1,86.71L230.46,81.28L230.82,86.72L231.19,83.11L231.55,84.54L231.91,91.43L232.27,83.94L232.63,81.74L233,92.1L233.72,92.1L234.08,99.88L235.17,79.74L235.53,85.57L236.98,96.75L237.35,94.48L237.71,94.39L238.07,90.56L238.43,119.48L238.79,106.96L239.16,111.35L239.52,122.41L239.88,111.09L240.24,106.36L240.97,129.22L241.33,128.51L241.69,119.09L242.06,117.03L242.42,126.42L243.14,119.47L243.51,132.22L243.87,136.62L244.23,131.07L244.59,136.2L244.96,117.9L245.68,107.21L246.04,123.61L247.49,113.71L247.85,105.02L248.58,122.95L248.94,118.72L249.3,117.54L250.03,127L250.39,110.81L251.48,133.15L251.84,130.8L252.2,114.65L252.56,117.84L252.93,107.97L253.65,143.74L254.01,126.61L254.38,124.76L254.74,132.23L255.1,118.82L255.46,135.92L255.83,152.19L256.19,150.22L256.55,131.19L256.91,127.94L257.28,139.54L257.64,144.48L258,138.22L258.72,162.91L259.09,141.88L259.45,144.31L259.81,143.61L260.17,141.44L260.9,156.47L261.26,185.81L261.62,252.46L261.99,245.13L262.35,114.31L263.44,98.94L263.8,103.03L264.16,43.2L264.88,105.95L265.25,98.18L265.61,106.71L266.33,121.19L266.7,117.13L267.06,120.4L267.42,126.01L267.78,120.73L268.15,118.15L268.51,108.12L268.87,126.48L269.23,126.07L269.6,126.9L269.96,124.7L270.32,117.49L271.04,112.61L271.41,123.6L272.49,130.19L272.86,112.35L273.58,56.39L273.94,112.95L274.31,114.94L274.67,131.29L275.03,135.56L275.39,133.01L275.76,122.31L276.12,122.02L276.48,144.14L277.21,139.51L277.57,141.58L278.65,122.92L279.02,142.73L279.38,143.13L279.74,136.88L280.1,137.81L280.47,147.84L280.83,123.13L281.19,124.44L281.55,148.72L281.92,133.13L282.28,136.2L282.64,137.52L283.37,124.3L283.73,113.04L284.81,136.77L285.18,131.79L285.54,130L285.9,121.77L286.26,124.6L286.63,139.67L286.99,142.4L287.35,136.94L288.08,147.98L288.44,132.22L288.8,133.18L289.16,146.82L290.25,149.52L290.61,144.35L290.97,138.42L291.34,139.86L291.7,156.11L292.06,151.49L292.42,154.49L292.79,155.46L293.51,131.61L293.87,138.62L294.24,156.79L295.32,152.99L295.69,174.06L296.05,166.97L296.41,171.22L296.77,195.78L298.22,165.79L298.58,172.63L298.95,174.04L299.31,187.28L299.67,195.62L300.03,189.09L300.4,190.06L301.48,151.95L301.85,165.55L302.93,168.12L303.29,159.42L304.02,157.36L304.38,168.02L305.83,176.03L306.19,169.51L306.56,167.77L306.92,179.58L308.37,185.86L308.73,158.77L309.09,158.12L309.46,179.74L311.27,145.56L311.63,147.81L311.99,166.57L312.35,170.16L312.72,162.68L313.44,166.7L313.8,145.24L314.17,146.18L314.53,168.09L314.89,164.05L315.25,170.02L316.34,159.19L316.7,149.24L317.06,160.33L317.43,152.12L317.79,153.97L318.51,155.83L318.88,149.43L319.24,142.73L319.6,160.61L319.96,157.63L320.33,166.39L320.69,163.47L321.05,169.46L321.78,140.01L322.14,150.47L323.22,160.18L323.59,155.17L324.31,127.98L324.67,162.24L325.4,166.58L325.76,162.89L326.12,160.56L326.49,139.83L326.85,138.28L327.21,158.13L327.57,162.28L327.94,154.3L328.3,158.18L328.66,138.21L329.02,138.51L329.38,132.42L329.75,147.88L330.11,142.87L330.47,142.56L330.83,147.04L331.2,144.1L331.56,133.91L331.92,125.85L332.28,150.63L332.65,150.28L333.01,146.16L333.73,137.89L334.1,129.35L334.46,113.91L334.82,144.28L335.91,138.91L336.27,135.13L336.99,125.81L337.36,155.7L338.44,143.06L338.81,150.66L339.53,120.28L339.89,150.7L340.98,145.24L341.34,136.74L341.71,144.17L342.07,125.98L342.79,162.07L343.15,157.76L343.52,159.59L344.24,130.01L344.6,142.89L344.97,167.33L345.33,165.26L345.69,158.34L346.78,132.75L347.14,133.01L347.5,160.63L348.95,140.77L349.31,149.77L349.68,155.45L350.04,174.58L351.13,162.07L351.49,167.03L351.85,180.95L352.21,159.84L352.94,178.76L353.3,169.09L353.66,167.18L354.03,150.8L354.39,148.77L354.75,141.7L355.47,156.22L355.84,152.99L356.56,144.72L356.92,138.23L357.29,132.68L357.65,154.66L358.37,161.88L358.74,151.47L359.1,148.65L359.46,136.79L360.91,144.65L361.27,144.04L362.36,121.68L362.72,128.39L363.08,136.5L363.45,130.79L363.81,135.45L364.17,134.92L364.53,139.03L364.9,131.75L365.26,143.24L365.62,142.7L365.98,152.16L367.07,132.11L367.43,132.38L367.79,145.42L368.52,150.12L368.88,146.39L369.24,145.28L369.61,138.61L370.69,156.3L371.06,153.07L371.42,150.41L371.78,150.95L372.14,159.7L372.51,156.66L372.87,157.85L373.23,164.45L373.59,166.64L373.96,160.03L374.68,133.06L375.04,133.24L375.4,149.05L376.13,157.17L376.49,153.46L376.85,152.87L377.22,128.74L378.67,152.32L379.03,151.44L379.39,151.93L379.75,136.03L380.84,154.99L381.2,154.41L381.56,147.95L381.93,145.9L382.29,138.26L383.74,156.27L384.1,151.46L384.46,157.98L384.83,140.16L385.19,148L385.55,185.59L386.64,167.8L387,159.98L387.36,154.81L387.72,164.17L388.09,173.49L388.45,168.19L388.81,169.69L389.9,177.74L390.26,185.78L390.62,192.29L390.99,177.77L391.35,181.18L391.71,181.09L392.07,180.55L392.44,175.2L392.8,178.77L393.16,201.62L393.52,210.31L393.88,282.08L394.25,263.28L394.61,151.15L394.97,157.49L395.33,156.09L395.7,148.48L396.06,146.85L396.42,88.92L397.15,157.12L397.51,154.1L397.87,152.09L398.96,167.5L399.32,161.16L400.41,152.65L400.77,159.8L401.13,173.01L401.49,166.09L401.86,169.82L402.22,173.96L402.58,173.06L402.94,171.48L403.67,178.3L404.03,170.89L405.48,148.76L405.84,115.32L406.93,161.63L407.29,160.39L408.02,153.63L408.38,163.62L408.74,154.09L409.1,161.8L409.47,156.67L410.19,148.95L410.55,154.45L410.92,167.63L411.28,157.16L411.64,163.02L412.37,166.97L412.73,181.35L413.09,165.5L413.45,177.05L413.81,173.49L414.9,164.61L415.26,142.01L415.63,143.06L415.99,166.37L417.08,174.13L417.44,173.64L417.8,158.67L418.16,155.11L418.53,164.21L419.25,180.79L419.61,180.08L419.97,176.19L420.34,175.4L420.7,157.21L421.42,176.59L421.79,172.8L422.15,166.95L422.87,170.98L423.24,166.07L423.6,178.82L423.96,175.36L424.32,170.19L424.69,168.93L425.05,171.36L425.41,156.9L425.77,160.86L426.13,188.82L426.5,174.24L426.86,178.59L427.22,179.42L427.58,179.9L427.95,151.58L429.03,172.35L429.4,170.77L429.76,170.31L430.85,178.07L431.21,177.05L431.93,182.01L432.29,178.52L433.38,164.1L433.74,167.27L434.11,164.74L434.47,176.79L434.83,174.95L435.19,176.64L435.56,165.76L436.64,183.29L437.01,180.9L437.37,183.03L437.73,176.33L438.46,164L438.82,171.34L439.18,175.25L439.54,166.65L439.9,172.57L440.27,170.96L440.63,164.59L440.99,184.52L441.35,177.17L441.72,170.08L442.08,172.74L442.44,165.96L442.8,164.47L443.17,168.22L443.89,177.7L444.25,163.14L444.62,169.36L444.98,167.26L445.34,162.04L446.43,170.79L446.79,169.26L447.15,163.91L447.51,170.33L447.88,174.29L448.24,164.94L448.6,179.24L448.96,174.01L449.33,178.05L449.69,186.6L450.05,179.16L450.41,171.87L450.78,141.57L451.14,154.24L451.5,149.96L451.86,166.17L452.22,158.28L452.59,156.61L453.67,165.32L454.04,168.27L454.4,167.1L454.76,175.82L455.85,155.24L456.21,160.27L456.57,163.82L457.3,169.86L457.66,165.97L458.02,165.09L458.38,155.08L458.75,152.99L459.11,161.18L460.2,169.51L460.56,151.63L461.28,146.14L461.65,155.99L462.37,142.15L462.73,146.58L463.1,144.12L463.46,141.68L463.82,145.12L464.54,136.19L464.91,137.94L465.27,138.25L465.63,137.21L465.99,138.03L466.36,141.26L466.72,156.46L467.08,149.01L467.44,145.85L467.81,137.88L468.17,139.95L468.53,140.88L469.26,150.99L469.62,148.71L469.98,150.3L470.71,139.95L471.07,171.15L471.43,169.6L471.79,179.6L472.15,190.35L472.52,187.36L472.88,179.89L473.24,167.83L473.6,178.6L473.97,178.79L474.69,189.19L475.05,186.22L475.42,184.68L475.78,182.25L476.14,174.32L476.87,177.12L477.23,181.27L479.04,153.37L479.4,166.97L480.13,172.47L480.49,164.85L481.58,150.48L481.94,154.8L482.3,164.08L482.66,163.99L483.03,150.01L483.39,148.57L483.75,136.42L484.11,136.72L484.47,156.53L484.84,157.7L485.2,152.37L485.92,145.57L486.29,138.69L486.65,132.18L487.01,156.11L487.37,155.31L487.74,157.89L488.82,131.8L489.19,133.15L489.55,144.61L489.91,149.38L490.27,140L491,136.41L491.36,127.22L491.72,120.79L492.08,139.5L492.81,131.29L493.17,132.43L493.53,134.02L494.98,120.54L495.35,123.17L495.71,128.93L496.07,119.14L496.79,108.61L497.16,118.46L497.52,118.67L497.88,113.39L498.24,122.98L498.61,118.96L498.97,112.64L499.33,110.12L499.69,113.28L500.06,109.38L500.42,113.67L500.78,112.84L501.14,121.93L502.59,109.46L502.96,127.08L503.68,112.52L504.04,115.27L504.4,116.18L504.77,114.49L505.13,114.52L505.49,116.1L506.22,104.07L506.58,109.93L506.94,98.2L507.3,122.77L507.67,123.78L508.03,130.73L508.39,133.32L508.75,130.5L509.12,126.43L509.48,120.63L509.84,120.68L510.2,129.49L510.56,128.64L510.93,125.83L511.65,139.74L512.01,132.59L512.38,132.33L512.74,135.8L513.1,134.36L513.46,136.23L514.19,123.42L514.55,125.18L514.91,142.2L515.64,127.31L516,127.98" style="vector-effect: non-scaling-stroke; fill: none; stroke: rgb(239, 85, 59); stroke-opacity: 1; stroke-width: 2px; opacity: 1;"/></g><g class="points"/><g class="text"/></g><g class="trace scatter trace6b5671" style="stroke-miterlimit: 2; opacity: 1;"><g class="fills"/><g class="errorbars"/><g class="lines"><path class="js-line" d="M0,80.4L0.36,88.11L0.72,83.51L1.09,84.09L1.45,83.6L1.81,89.12L2.54,109.72L2.9,98.69L3.99,83.8L4.35,87.25L4.71,78.46L5.07,87.18L5.44,82.76L5.8,72.28L6.16,72.64L6.52,73.29L7.61,85.23L7.97,73.19L8.7,79.17L9.06,77.91L9.42,72.89L10.15,84.41L10.51,84.21L10.87,81.21L11.96,66.62L12.32,70.13L13.04,83.7L13.41,73.52L14.13,81.96L14.49,80.74L14.86,80.88L15.22,78.41L15.58,87.19L15.94,93.58L16.31,78.44L17.03,86.85L17.39,85.01L17.76,86.46L18.12,92.38L19.57,81.39L19.93,88.25L20.29,97.29L21.02,96.98L21.38,101.91L23.19,128.51L23.55,124.51L23.92,124.55L24.28,120.46L24.64,116.28L25,124.47L25.73,106.56L26.09,107.49L26.45,105.68L27.18,90.67L27.54,107.24L28.63,153.48L28.99,152.07L29.71,144.14L30.08,145.64L30.44,150.13L30.8,141.25L31.16,152.47L32.61,135.56L32.97,147.41L33.34,150.51L33.7,143.55L34.06,142.09L34.42,135.89L34.79,127.1L35.15,130.73L35.51,135.64L35.87,123.26L36.24,125.1L36.6,145.84L37.32,130.52L37.69,135.81L38.05,141.36L38.41,143.36L38.77,132.63L40.22,116.7L40.58,130.38L40.95,132.88L41.31,118.14L42.4,107.88L42.76,116.51L43.12,110.54L43.48,110.61L43.85,111.5L44.21,124.28L44.57,114.25L44.93,107.81L46.02,119.07L46.38,115.6L46.74,124.09L47.11,111.86L47.83,110.08L48.19,120.67L48.56,116.65L48.92,126.04L49.28,126.42L49.64,120.86L50.01,113L50.37,122.67L51.46,134.27L51.82,137.74L52.18,136.63L52.54,106.53L53.27,136.25L53.63,123.24L54.72,124.13L55.44,123.47L56.17,134.45L56.53,126.67L56.89,131.22L57.25,130.25L57.62,130.84L57.98,120.29L58.34,128.3L58.7,122.92L59.79,149.74L60.15,137.34L60.88,150.02L61.24,141.08L61.6,141.52L61.96,145.19L63.05,138.17L63.41,140.23L63.78,142.35L64.14,148.98L64.86,160.22L65.22,140.18L65.59,140.99L65.95,147.07L66.31,144.22L66.67,146.51L67.04,151.89L67.76,135.02L68.12,142.87L68.49,141.98L68.85,137.33L69.21,141.88L69.57,136.13L70.3,123.5L70.66,124.24L71.02,153.55L72.83,92.26L73.2,117.02L73.56,120.01L73.92,129.69L74.28,131.26L74.65,129.37L75.37,118.24L75.73,119.51L76.1,137.24L76.46,124.99L76.82,125.94L77.18,134.86L77.54,130.71L77.91,117.1L78.27,118.55L78.63,148.46L78.99,129.66L79.36,134.74L79.72,139.14L80.08,141L80.44,127.42L80.81,114.88L81.17,139.41L81.53,137.01L81.89,137.16L82.26,140.58L82.62,140.99L82.98,113.17L83.34,110.81L83.71,136.93L85.15,116.45L85.52,140.75L85.88,140.22L86.24,159.61L87.33,137.85L87.69,146.22L88.42,129.4L88.78,140.77L89.14,138.38L89.5,128.03L90.23,136.64L90.59,136.56L90.95,126.03L91.31,149.92L91.68,141.4L92.04,132.48L92.76,140L93.13,124.89L93.49,125.4L93.85,140.31L94.94,125.45L95.3,128.61L96.03,122.31L96.39,128.61L96.75,122.99L97.11,135.51L97.47,137.2L97.84,136.42L98.2,118.57L98.56,114.4L98.92,118.1L99.29,116.97L99.65,121.33L100.01,118.47L100.37,120.06L101.46,140.84L101.82,124.96L102.55,122.28L102.91,125.9L103.63,122.56L104,133.12L104.36,124.37L104.72,124.49L105.08,128.9L105.81,121.19L106.17,128.99L106.9,140.23L107.26,135.06L107.62,138.64L107.98,126.92L108.71,118.22L109.07,122.81L110.16,144.02L110.52,134.09L111.61,162.14L111.97,160.16L112.33,163.08L112.69,171.04L113.06,152.93L113.78,124.89L114.14,138.75L114.51,141.29L114.87,139.6L115.23,138.17L116.32,112.2L116.68,133.08L117.04,119.01L117.4,122.95L118.13,112.76L118.85,105.52L119.22,117.19L119.58,109.15L119.94,109.38L120.3,120.14L120.67,121.98L121.03,128.24L121.39,123.41L121.75,137.61L122.84,122.82L123.2,130.08L123.93,121.79L124.29,142.62L124.65,126.38L125.01,129.37L125.38,137.26L125.74,132.99L126.1,112.08L126.46,109.41L126.83,116.35L127.19,111.21L127.55,113.6L127.91,129.96L129.36,220.28L129.72,184.49L130.45,107.55L130.81,109.03L131.17,108.11L131.54,107.34L132.26,102.05L132.62,103.23L132.99,112.59L133.35,123.7L133.71,115.81L134.07,120.74L134.44,119.99L134.8,123.34L136.25,132.35L136.61,119.96L136.97,116.17L137.33,118.09L137.7,128.33L138.06,127.87L138.42,129.45L139.15,115.2L139.51,128.67L139.87,135.06L140.23,129.85L140.6,129.27L140.96,131.5L141.32,122.61L141.68,115.26L142.04,120.24L142.41,135.43L142.77,135.97L143.13,141.12L143.49,148.01L143.86,133.4L144.22,114.09L144.58,128.42L144.94,129.76L145.31,137.36L145.67,131.25L146.03,134.34L146.39,119.35L146.76,119.73L147.12,155.14L147.48,132.54L147.84,139.65L148.21,150.41L149.29,115.54L149.65,136.77L150.02,128.71L150.38,143.56L150.74,143.23L151.1,145.28L151.83,113.79L152.19,137.39L153.28,146.41L153.64,148.79L154.37,125.88L154.73,140.6L155.09,140.87L155.45,140.02L156.18,143.27L156.54,123.5L156.9,120.67L157.26,141.35L157.63,135.55L157.99,140.71L158.35,141.96L158.71,145.68L159.08,161.93L159.44,140.99L159.8,172.31L160.16,174.82L160.53,171.54L160.89,175.52L161.25,170.93L161.61,160.5L161.97,170.08L162.34,176.82L163.06,171.7L163.42,168.53L163.79,170.05L164.15,159.07L164.51,163.74L164.87,159.45L165.24,153.05L165.6,160.33L165.96,157.86L166.32,154.13L166.69,136.32L167.05,143.32L167.41,154.47L167.77,145.07L168.13,148.62L168.5,152.62L169.58,131.61L169.95,149.29L170.31,141.14L170.67,149.71L171.03,148.1L172.12,126.15L172.48,139.77L173.57,156.69L173.93,147.58L174.66,136.63L175.02,147.79L175.38,136.77L175.74,140.6L176.11,142.42L176.83,136.91L177.19,127.19L178.28,148.1L178.64,153.08L179.01,148.45L179.37,128.47L179.73,121.48L180.09,139.94L180.46,132.12L180.82,134.81L181.18,143.6L181.54,148.23L181.9,131.21L182.27,129.78L182.63,144.53L182.99,138.66L183.35,143.97L183.72,139.62L184.08,131.36L184.44,151.2L184.8,143.9L185.17,171.54L186.25,146.59L186.62,140.67L186.98,122.08L187.34,130.56L187.7,144.69L188.43,149.07L188.79,144.07L189.15,142.66L189.51,136.75L189.88,125.64L190.24,145.11L190.6,145.23L190.96,148.52L191.33,151.39L191.69,138.5L192.41,114.82L192.78,138.29L193.14,135.28L193.5,190.52L193.86,190.26L194.22,183.24L194.95,148.29L195.31,156.62L196.4,136.72L196.76,147.45L197.85,177.55L198.21,179.71L198.57,180.81L198.94,180.3L199.3,178.26L200.02,147.36L200.38,160.6L201.47,151.88L201.83,152.16L202.2,150.2L202.56,144.19L202.92,158.25L203.28,157.15L203.65,144.56L204.01,142.68L204.37,147.92L205.1,135.84L205.46,151.45L206.18,151.68L206.54,144.64L206.91,145.3L207.63,132.49L207.99,144.55L208.72,140.78L209.08,145.87L209.44,144.1L209.81,132.05L210.17,135.23L210.53,147.44L211.26,132.96L211.62,137.31L211.98,135.14L212.34,138.07L212.71,121.34L213.79,144.65L214.15,142.01L214.52,136.9L214.88,164.47L215.24,147.58L215.6,155.94L215.97,156.09L216.33,152.95L216.69,159.18L217.05,155.87L217.42,137.19L218.14,142.21L218.5,137.92L218.87,142.25L219.23,138.96L219.59,131.63L219.95,128.62L220.31,114.43L220.68,136.67L221.04,125.94L221.4,124.95L221.76,128.73L222.13,113.37L223.21,145.61L223.58,139.9L223.94,138.29L224.3,141.61L225.03,127.59L225.39,109.92L226.11,150.32L226.47,147.23L226.84,140.67L227.92,92.16L228.29,113.51L229.01,125.39L229.37,114.07L229.74,112.34L230.1,97.45L230.46,99.36L230.82,112.78L231.91,117.45L232.27,114.18L232.63,110L233,110.79L233.36,127.34L234.81,105.93L235.17,105.51L235.53,106.32L235.9,124.91L236.62,115.87L236.98,118.25L237.35,126.57L237.71,119.12L238.07,126.56L238.43,136.12L238.79,151.84L239.52,151.7L239.88,145.57L240.61,134.72L240.97,149.24L242.06,140.6L242.42,151.44L242.78,149.23L243.14,161.79L244.23,148.95L244.59,150.64L244.96,151.12L245.32,140.4L246.04,148.54L246.4,145.64L246.77,147.41L247.13,144.21L247.49,158.28L248.22,134.71L248.58,164.1L249.3,154.97L249.67,161.61L250.39,143.09L250.75,147.82L251.12,167.37L252.2,139.27L252.56,141.41L252.93,141.81L253.29,161.18L253.65,157.54L254.01,154.2L255.1,147.4L255.46,161.6L255.83,164.3L256.19,172.82L257.28,157.19L257.64,153.16L258.72,162.11L259.09,156.73L259.45,155.9L259.81,157.21L261.26,195.62L261.62,279.04L263.07,121.88L263.44,124.35L263.8,121.86L264.16,89.39L264.88,122.91L265.25,121.71L265.61,126.1L265.97,122.77L266.33,140.99L266.7,139.12L267.06,149.05L268.51,120.96L268.87,145.67L269.6,130.99L269.96,142.89L270.68,137.47L271.04,140.11L271.77,137.47L272.13,139.13L272.86,150.45L273.22,138.08L274.67,147.94L275.03,148.39L275.39,149.99L275.76,135.1L276.12,130.68L276.48,157.84L276.84,157.43L277.21,159.2L277.57,164.74L277.93,159.25L278.29,142.42L278.65,144.26L279.02,160.82L279.74,162.29L280.1,161.44L280.47,160.44L280.83,150.34L281.19,143.84L281.55,168.14L281.92,155.58L282.28,163.83L282.64,164.57L283,153.62L283.37,159.88L283.73,167.3L284.09,177.03L284.45,163.38L285.18,157.84L285.54,152.2L286.26,146.38L286.63,157.7L287.71,179.47L288.08,178.76L288.8,149.02L289.16,179.51L290.25,172.09L290.61,175.31L290.97,173.29L291.34,147.41L291.7,186.44L292.06,179.37L292.42,182.44L292.79,182.78L293.15,165.61L293.87,155.45L294.24,184L294.6,174.15L294.96,177.01L295.32,177.59L295.69,209.52L296.05,202.37L296.41,190.32L296.77,226.54L297.13,207.82L297.5,208.93L297.86,202.18L298.22,205.36L298.58,218.25L298.95,199.2L299.31,217.95L299.67,222.27L301.12,189.54L301.48,178.07L302.57,193.97L302.93,192.85L303.29,193.65L303.66,180.94L305.47,206.85L305.83,201.03L306.56,187L306.92,208.5L307.28,204.71L307.64,205.98L308.01,206.47L308.37,206.35L308.73,190.39L309.09,181.27L309.46,200.5L310.18,194.49L310.54,195.3L310.9,191.44L311.27,168.75L311.63,175.58L311.99,209.19L312.35,202.04L312.72,204.94L313.08,205.65L313.44,205.52L313.8,177.09L314.17,163.46L314.53,197.38L314.89,197.65L315.25,200.69L315.62,201.28L315.98,199.65L316.7,165.89L317.06,197.67L317.43,204.84L317.79,199.38L318.15,194.06L318.51,193.45L318.88,175.51L319.24,168.46L319.6,180.97L320.69,189.22L321.05,188.52L321.41,179.91L321.78,172.2L322.14,195.17L323.22,182.49L323.59,189.13L324.31,173.75L324.67,192.37L325.04,187.76L325.4,195.55L325.76,203.15L326.12,200.36L326.49,164.52L326.85,163.64L327.21,200.3L327.57,193.35L327.94,196.15L328.3,195.29L328.66,191.25L329.02,168.24L329.38,152.99L329.75,189.87L330.11,185.44L330.47,187.96L330.83,201.46L331.92,157.11L332.28,184.88L332.65,184.69L333.01,179.22L333.73,168.59L334.1,160.99L334.46,148.9L334.82,186.75L336.27,173.01L336.63,160.56L336.99,157.46L337.36,183.59L337.72,188.03L338.08,186.92L338.44,178.39L339.53,164.95L339.89,193.3L340.26,180.53L340.62,185.4L340.98,184.06L341.34,183.51L341.71,160.67L342.07,158.91L342.43,185.7L343.52,182.18L343.88,190.47L344.24,167.46L344.6,173.28L344.97,197.65L345.69,192.58L346.05,196.98L346.42,198.68L346.78,176.09L347.14,175.11L347.5,196.09L347.87,192.2L348.23,197.96L349.31,193.99L349.68,196.77L350.04,218.92L350.4,205.2L350.76,198.71L351.13,208.68L351.49,203.86L351.85,202.93L352.21,178.01L352.58,204.69L352.94,208.66L353.3,190.64L354.03,192.48L354.39,173.39L354.75,164.79L355.11,188.87L355.47,192.72L355.84,187.93L356.2,187.68L356.56,194.5L357.29,166.76L357.65,191.41L358.37,183.68L358.74,186.52L359.1,181.61L359.46,165.93L359.82,163.47L360.19,192.59L362.36,158.92L362.72,167.59L363.08,179.04L363.45,169.54L363.81,174.5L364.53,168.92L364.9,169.15L365.26,171.45L366.35,178L366.71,170.5L367.07,160.09L367.43,167.29L367.79,185.73L368.16,180.84L368.52,183.23L368.88,186.05L369.24,185.09L369.61,167.47L370.33,186.2L370.69,178.36L371.42,181.98L371.78,177.55L372.14,177.95L372.51,174.64L373.59,192.87L373.96,189.2L374.32,191.11L374.68,171.3L375.77,190.8L376.13,185.85L376.49,182.94L376.85,194.75L377.22,191.22L377.58,191.93L377.94,198.82L378.3,189.15L378.67,189.57L379.03,192.88L379.39,199.08L379.75,195.41L380.12,193.03L380.48,197.08L380.84,192.61L381.56,186.95L381.93,194.15L382.65,180.68L383.01,195.66L383.38,197.58L384.1,191.45L384.83,188.06L385.19,191.54L385.55,200.5L385.91,192.19L386.28,194.74L386.64,193.92L387,200.55L387.36,209.72L387.72,202.62L388.09,206.88L388.81,199.94L389.17,201.41L389.54,200.88L390.62,215.22L390.99,205.44L392.07,220.89L392.44,224.13L392.8,226.97L393.16,222.13L393.52,228.47L393.88,275.85L394.25,264.41L394.61,210.32L394.97,201.03L395.33,201.22L395.7,205.04L396.06,206.5L396.42,148.59L397.51,210.26L397.87,211.16L398.6,200.87L398.96,207.46L399.32,199.15L399.68,203.64L400.04,215.07L400.41,201.06L400.77,216.82L401.13,217.46L401.49,214.23L401.86,214.04L402.22,210.46L402.94,223.74L403.31,212.39L403.67,215.74L404.03,210.88L404.39,208.83L404.76,193.99L406.57,224.42L406.93,209.76L407.29,215.74L407.65,206L408.02,218.16L408.38,214.82L408.74,210.9L409.83,207.67L410.19,200.24L410.55,193.2L411.28,214.67L411.64,211.27L412,213.43L412.37,222.01L413.09,205.98L413.45,215.77L414.54,227.66L414.9,224.18L415.26,219.17L415.63,223.46L415.99,232.35L416.35,235.59L416.71,229.99L417.8,218.36L418.16,215.91L419.25,234.8L419.61,232.3L419.97,230.92L420.34,214.84L421.42,222.26L421.79,221.25L422.15,227.6L422.51,220.95L422.87,217.24L423.24,211.53L423.6,230.37L424.32,218.79L424.69,221.85L425.05,222.36L425.41,219.33L425.77,237.06L426.13,232.95L426.5,210.24L427.22,218.38L427.58,214.38L427.95,205.52L428.31,208.67L428.67,211.24L429.4,206.15L429.76,207.55L430.12,214.85L430.48,230.5L430.85,222.28L431.21,224.25L431.93,225.2L432.29,231.96L432.66,235.58L433.02,214.34L433.38,219.9L433.74,242.11L434.47,228.14L434.83,231.9L435.19,243.19L435.92,228.72L436.28,239.37L437.01,232.04L437.37,238.33L438.46,218.71L438.82,227.91L439.54,223.57L439.9,224.52L440.27,226.83L440.63,216.13L440.99,219.92L441.35,232.39L441.72,230.12L442.08,241.2L442.44,222.45L442.8,226.58L443.17,227.52L443.53,213.45L443.89,237.37L444.98,216.13L445.34,219.82L445.7,211.83L446.06,206.42L446.43,226.49L447.15,217.33L447.51,221.77L447.88,217.98L448.24,200.16L448.6,204.89L448.96,230.77L449.69,219.96L450.05,228.5L451.14,184.67L451.5,207.83L451.86,216.63L452.22,204.41L453.31,213.59L453.67,207.32L454.04,228.58L454.4,220.89L454.76,221.41L455.12,223.72L455.49,222.43L455.85,216.77L456.21,199.91L456.57,224.64L457.66,216.31L458.02,220.33L458.75,205.62L459.11,225.52L459.47,222.67L459.83,229.98L461.28,204.1L461.65,218.85L462.37,213.93L462.73,216.8L463.1,215.14L463.46,196.84L463.82,180.39L464.18,197.35L464.54,199.1L465.27,203.95L465.63,200.55L465.99,187.27L466.36,191.7L466.72,197.35L467.08,185.35L467.44,189.5L467.81,190.32L469.26,206.65L469.62,195.26L470.34,199.3L470.71,189.73L471.79,220.21L472.15,216.73L472.52,223.42L472.88,214.87L473.6,221.83L473.97,225.86L474.33,230.91L474.69,226.36L475.05,224.78L475.78,229.21L476.14,214.99L476.5,206.11L476.87,229.55L478.68,196.6L479.04,199.12L479.4,224.33L479.76,207.98L480.13,209.95L481.21,203.42L481.58,200.81L481.94,217.2L482.3,205.32L482.66,211.82L483.03,219.32L483.39,210.44L484.11,187.64L484.47,212.67L484.84,203.79L485.2,213.83L486.29,182.37L486.65,183.72L487.01,207.19L487.37,197.38L487.74,201.23L488.1,202.76L488.46,204.19L488.82,179.34L489.19,181.24L489.55,207.77L489.91,200.83L490.27,201.98L490.63,209.47L491.36,171.49L491.72,173.7L492.08,198.19L492.45,200.57L492.81,194.5L493.17,190.03L493.53,195.71L494.26,158.35L494.62,176.97L494.98,180.31L495.35,174.75L496.07,171.54L496.43,145.99L497.52,168.95L497.88,175.34L499.33,158.75L499.69,176.44L500.06,181.72L500.42,180.56L500.78,179.14L501.14,175.69L501.51,176.65L501.87,176.75L502.23,188.1L502.59,184.93L502.96,181.6L503.32,177.27L503.68,188.17L504.4,167.55L504.77,173.66L505.13,173.75L505.49,165.09L505.85,171.33L506.22,170L506.94,154.89L507.3,186.18L507.67,175.1L508.03,178.19L508.39,181.12L509.48,157.89L509.84,175.53L510.2,167.02L510.56,170.02L510.93,179.16L511.29,183.16L511.65,179.44L512.01,173.44L513.1,183.44L513.46,182.89L513.83,180.01L514.19,167.69L514.91,190.85L515.28,189.13L515.64,187.49L516,187.11" style="vector-effect: non-scaling-stroke; fill: none; stroke: rgb(0, 204, 150); stroke-opacity: 1; stroke-width: 2px; opacity: 1;"/></g><g class="points"/><g class="text"/></g></g></g><g class="overplot"/><path class="xlines-above crisp" d="M0,0" style="fill: none;"/><path class="ylines-above crisp" d="M0,0" style="fill: none;"/><g class="overlines-above"/><g class="xaxislayer-above"><g class="xtick"><text text-anchor="middle" x="0" y="433" transform="translate(80,0)" style="font-family: 'Open Sans', verdana, arial, sans-serif; font-size: 12px; fill: rgb(42, 63, 95); fill-opacity: 1; white-space: pre;">2017</text></g><g class="xtick"><text text-anchor="middle" x="0" y="433" transform="translate(212.26,0)" style="font-family: 'Open Sans', verdana, arial, sans-serif; font-size: 12px; fill: rgb(42, 63, 95); fill-opacity: 1; white-space: pre;">2018</text></g><g class="xtick"><text text-anchor="middle" x="0" y="433" transform="translate(344.52,0)" style="font-family: 'Open Sans', verdana, arial, sans-serif; font-size: 12px; fill: rgb(42, 63, 95); fill-opacity: 1; white-space: pre;">2019</text></g><g class="xtick"><text text-anchor="middle" x="0" y="433" transform="translate(476.78,0)" style="font-family: 'Open Sans', verdana, arial, sans-serif; font-size: 12px; fill: rgb(42, 63, 95); fill-opacity: 1; white-space: pre;">2020</text></g></g><g class="yaxislayer-above"><g class="ytick"><text text-anchor="end" x="79" y="4.199999999999999" transform="translate(0,383.47)" style="font-family: 'Open Sans', verdana, arial, sans-serif; font-size: 12px; fill: rgb(42, 63, 95); fill-opacity: 1; white-space: pre;">0.54</text></g><g class="ytick"><text text-anchor="end" x="79" y="4.199999999999999" transform="translate(0,346.35)" style="font-family: 'Open Sans', verdana, arial, sans-serif; font-size: 12px; fill: rgb(42, 63, 95); fill-opacity: 1; white-space: pre;">0.56</text></g><g class="ytick"><text text-anchor="end" x="79" y="4.199999999999999" transform="translate(0,309.23)" style="font-family: 'Open Sans', verdana, arial, sans-serif; font-size: 12px; fill: rgb(42, 63, 95); fill-opacity: 1; white-space: pre;">0.58</text></g><g class="ytick"><text text-anchor="end" x="79" y="4.199999999999999" transform="translate(0,272.11)" style="font-family: 'Open Sans', verdana, arial, sans-serif; font-size: 12px; fill: rgb(42, 63, 95); fill-opacity: 1; white-space: pre;">0.6</text></g><g class="ytick"><text text-anchor="end" x="79" y="4.199999999999999" transform="translate(0,234.99)" style="font-family: 'Open Sans', verdana, arial, sans-serif; font-size: 12px; fill: rgb(42, 63, 95); fill-opacity: 1; white-space: pre;">0.62</text></g><g class="ytick"><text text-anchor="end" x="79" y="4.199999999999999" transform="translate(0,197.87)" style="font-family: 'Open Sans', verdana, arial, sans-serif; font-size: 12px; fill: rgb(42, 63, 95); fill-opacity: 1; white-space: pre;">0.64</text></g><g class="ytick"><text text-anchor="end" x="79" y="4.199999999999999" transform="translate(0,160.75)" style="font-family: 'Open Sans', verdana, arial, sans-serif; font-size: 12px; fill: rgb(42, 63, 95); fill-opacity: 1; white-space: pre;">0.66</text></g><g class="ytick"><text text-anchor="end" x="79" y="4.199999999999999" transform="translate(0,123.63)" style="font-family: 'Open Sans', verdana, arial, sans-serif; font-size: 12px; fill: rgb(42, 63, 95); fill-opacity: 1; white-space: pre;">0.68</text></g></g><g class="overaxes-above"/></g></g><g class="polarlayer"/><g class="ternarylayer"/><g class="geolayer"/><g class="funnelarealayer"/><g class="pielayer"/><g class="treemaplayer"/><g class="sunburstlayer"/><g class="glimages"/><defs id="topdefs-1208c2"><g class="clips"/><clipPath id="legend1208c2"><rect width="82" height="83" x="0" y="0"/></clipPath></defs><g class="layer-above"><g class="imagelayer"/><g class="shapelayer"/></g><g class="infolayer"><g class="legend" pointer-events="all" transform="translate(606.32, 100)"><rect class="bg" shape-rendering="crispEdges" width="82" height="83" x="0" y="0" style="stroke: rgb(68, 68, 68); stroke-opacity: 1; fill: rgb(255, 255, 255); fill-opacity: 1; stroke-width: 0px;"/><g class="scrollbox" transform="translate(0, 0)" clip-path="url('#legend1208c2')"><text class="legendtitletext" text-anchor="start" x="2" y="15.600000000000001" style="font-family: 'Open Sans', verdana, arial, sans-serif; font-size: 12px; fill: rgb(42, 63, 95); fill-opacity: 1; white-space: pre;">Oceania</text><g class="groups"><g class="traces" transform="translate(0, 30.1)" style="opacity: 1;"><text class="legendtext" text-anchor="start" x="40" y="4.680000000000001" style="font-family: 'Open Sans', verdana, arial, sans-serif; font-size: 12px; fill: rgb(42, 63, 95); fill-opacity: 1; white-space: pre;">Global</text><g class="layers" style="opacity: 1;"><g class="legendfill"/><g class="legendlines"><path class="js-line" d="M5,0h30" style="fill: none; stroke: rgb(99, 110, 250); stroke-opacity: 1; stroke-width: 2px;"/></g><g class="legendsymbols"><g class="legendpoints"/></g></g><rect class="legendtoggle" x="0" y="-9.5" width="76.09375" height="19" style="fill: rgb(0, 0, 0); fill-opacity: 0;"/></g><g class="traces" transform="translate(0, 49.1)" style="opacity: 1;"><text class="legendtext" text-anchor="start" x="40" y="4.680000000000001" style="font-family: 'Open Sans', verdana, arial, sans-serif; font-size: 12px; fill: rgb(42, 63, 95); fill-opacity: 1; white-space: pre;">au</text><g class="layers" style="opacity: 1;"><g class="legendfill"/><g class="legendlines"><path class="js-line" d="M5,0h30" style="fill: none; stroke: rgb(239, 85, 59); stroke-opacity: 1; stroke-width: 2px;"/></g><g class="legendsymbols"><g class="legendpoints"/></g></g><rect class="legendtoggle" x="0" y="-9.5" width="76.09375" height="19" style="fill: rgb(0, 0, 0); fill-opacity: 0;"/></g><g class="traces" transform="translate(0, 68.1)" style="opacity: 1;"><text class="legendtext" text-anchor="start" x="40" y="4.680000000000001" style="font-family: 'Open Sans', verdana, arial, sans-serif; font-size: 12px; fill: rgb(42, 63, 95); fill-opacity: 1; white-space: pre;">nz</text><g class="layers" style="opacity: 1;"><g class="legendfill"/><g class="legendlines"><path class="js-line" d="M5,0h30" style="fill: none; stroke: rgb(0, 204, 150); stroke-opacity: 1; stroke-width: 2px;"/></g><g class="legendsymbols"><g class="legendpoints"/></g></g><rect class="legendtoggle" x="0" y="-9.5" width="76.09375" height="19" style="fill: rgb(0, 0, 0); fill-opacity: 0;"/></g></g></g><rect class="scrollbar" rx="20" ry="3" width="0" height="0" x="0" y="0" style="fill: rgb(128, 139, 164); fill-opacity: 1;"/></g><g class="g-gtitle"/><g class="g-xtitle"><text class="xtitle" x="338" y="461.8" text-anchor="middle" style="font-family: 'Open Sans', verdana, arial, sans-serif; font-size: 14px; fill: rgb(42, 63, 95); opacity: 1; font-weight: normal; white-space: pre;">Date</text></g><g class="g-ytitle"><text class="ytitle" transform="rotate(-90,30.418750000000003,260)" x="30.418750000000003" y="260" text-anchor="middle" style="font-family: 'Open Sans', verdana, arial, sans-serif; font-size: 14px; fill: rgb(42, 63, 95); opacity: 1; font-weight: normal; white-space: pre;">energy</text></g></g></svg>