<svg class="main-svg" xmlns="http://www.w3.org/2000/svg" xmlns:xlink="http://www.w3.org/1999/xlink" width="700" height="500" style="" viewBox="0 0 700 500"><rect x="0" y="0" width="700" height="500" style="fill: rgb(255, 255, 255); fill-opacity: 1;"/><defs id="defs-fc3bbe"><g class="clips"><clipPath id="clipfc3bbexyplot" class="plotclip"><rect width="472" height="320"/></clipPath><clipPath class="axesclip" id="clipfc3bbex"><rect x="80" y="0" width="472" height="500"/></clipPath><clipPath class="axesclip" id="clipfc3bbey"><rect x="0" y="100" width="700" height="320"/></clipPath><clipPath class="axesclip" id="clipfc3bbexy"><rect x="80" y="100" width="472" height="320"/></clipPath></g><g class="gradients"/></defs><g class="bglayer"><rect class="bg" x="80" y="100" width="472" height="320" style="fill: rgb(229, 236, 246); fill-opacity: 1; stroke-width: 0;"/></g><g class="layer-below"><g class="imagelayer"/><g class="shapelayer"/></g><g class="cartesianlayer"><g class="subplot xy"><g class="layer-subplot"><g class="shapelayer"/><g class="imagelayer"/></g><g class="gridlayer"><g class="x"><path class="xgrid crisp" transform="translate(200.98000000000002,0)" d="M0,100v320" style="stroke: rgb(255, 255, 255); stroke-opacity: 1; stroke-width: 1px;"/><path class="xgrid crisp" transform="translate(321.97,0)" d="M0,100v320" style="stroke: rgb(255, 255, 255); stroke-opacity: 1; stroke-width: 1px;"/><path class="xgrid crisp" transform="translate(442.95,0)" d="M0,100v320" style="stroke: rgb(255, 255, 255); stroke-opacity: 1; stroke-width: 1px;"/></g><g class="y"><path class="ygrid crisp" transform="translate(0,360.38)" d="M80,0h472" style="stroke: rgb(255, 255, 255); stroke-opacity: 1; stroke-width: 1px;"/><path class="ygrid crisp" transform="translate(0,300.64)" d="M80,0h472" style="stroke: rgb(255, 255, 255); stroke-opacity: 1; stroke-width: 1px;"/><path class="ygrid crisp" transform="translate(0,240.9)" d="M80,0h472" style="stroke: rgb(255, 255, 255); stroke-opacity: 1; stroke-width: 1px;"/><path class="ygrid crisp" transform="translate(0,181.16)" d="M80,0h472" style="stroke: rgb(255, 255, 255); stroke-opacity: 1; stroke-width: 1px;"/><path class="ygrid crisp" transform="translate(0,121.42)" d="M80,0h472" style="stroke: rgb(255, 255, 255); stroke-opacity: 1; stroke-width: 1px;"/></g></g><g class="zerolinelayer"/><path class="xlines-below"/><path class="ylines-below"/><g class="overlines-below"/><g class="xaxislayer-below"/><g class="yaxislayer-below"/><g class="overaxes-below"/><g class="plot" transform="translate(80, 100)" clip-path="url('#clipfc3bbexyplot')"><g class="scatterlayer mlayer"><g class="trace scatter trace376f1e" style="stroke-miterlimit: 2; opacity: 1;"><g class="fills"/><g class="errorbars"/><g class="lines"><path class="js-line" d="M0,115.44L0.33,130.82L0.99,130.29L1.33,130.97L2.32,144.17L2.65,141.55L3.98,138.08L4.31,129.67L5.63,139.72L5.97,133.2L6.63,133.82L6.96,138.18L7.29,144.91L7.96,143.62L8.29,144.86L8.95,127.49L9.28,139.5L9.61,147.29L9.94,142.68L10.28,139.06L10.61,138.36L10.94,130.92L11.27,127.27L11.6,136.06L11.93,133.08L12.26,137.46L12.6,140.13L12.93,134.71L13.26,128.07L13.59,129.53L13.92,134.41L14.58,148.53L14.92,135.41L15.25,127.83L15.58,140.16L15.91,134.61L16.57,134.8L16.9,138.82L17.24,137.75L17.9,127.21L18.89,146.88L19.22,135.53L20.22,143.9L20.55,138.14L20.88,149.68L21.21,147.01L21.54,144.92L22.87,129.32L23.2,138.21L23.53,138.97L23.87,138.23L24.2,135.48L25.19,127.07L25.52,152.64L25.85,148.36L26.19,151.61L26.52,151.97L27.51,141.02L27.84,144.89L28.17,142.75L28.51,148.23L29.17,144.58L29.5,138.3L29.83,135.73L30.16,140.91L30.49,140.9L30.83,138.53L31.82,126.57L32.15,126.71L32.81,139.97L33.15,137.38L33.48,134.27L34.47,128.64L34.8,132.26L35.13,127.26L35.8,127.38L36.13,124.53L36.79,117.66L37.12,123.63L37.46,121.64L37.79,123.52L38.12,125.71L38.45,126.88L38.78,114.92L39.11,111.11L39.44,117.13L40.44,130.26L40.77,125.26L41.1,110.05L41.43,112.02L41.76,122.65L42.1,124.92L42.43,122.05L42.76,123.1L43.09,118.76L43.42,116.74L43.75,120.18L44.42,127.52L44.75,124.02L45.41,114.37L45.74,116.24L46.07,114.36L46.4,119.44L46.74,118.09L47.07,116.88L47.73,113.98L48.06,131.43L49.06,115.51L50.05,116.27L51.71,118.47L52.04,120.87L52.7,121.58L53.03,113.05L53.37,122.26L54.03,123.44L54.36,118.16L55.02,132.52L55.35,129.03L55.69,130.56L56.35,136.06L56.68,126.47L57.01,124.1L57.34,107.51L58.67,119.77L59,120.48L59.66,119.93L59.99,115.32L60.33,120.51L60.66,116.82L60.99,116.83L61.32,114.39L61.65,119.47L61.98,119.77L62.31,118.39L62.98,125.71L63.31,122.66L63.64,117.19L63.97,116.88L64.3,108.54L64.97,118.94L65.3,114.64L65.63,115.8L66.62,100.15L66.96,110.49L68.28,122.28L68.61,117.69L69.28,109.4L69.61,121.98L70.6,112.17L70.93,110.84L71.93,119.36L72.26,119.4L72.92,118.73L73.25,118.94L73.58,113.69L74.25,123.45L74.58,117.82L74.91,117.69L75.24,114.61L75.9,109.49L76.24,114.87L76.57,116.11L76.9,112.66L77.23,112.68L77.56,117.32L77.89,114.28L78.22,139.73L78.89,140.78L79.22,134.2L79.55,139.09L80.21,138.94L80.54,134.02L80.88,132.69L81.21,137.21L81.87,130.94L82.2,132.95L82.53,133.21L82.87,133.44L83.2,127.82L83.53,142.55L84.19,139L84.52,136.12L85.52,120.71L85.85,130.39L86.51,124.41L86.84,124.46L87.17,122.75L87.51,119.83L87.84,120.5L88.17,129.49L89.16,126.6L89.49,126.23L89.83,118.91L90.16,119.61L90.49,126.05L90.82,125.5L91.15,128.33L91.48,132.47L91.81,125.49L92.15,127.87L92.48,121.02L93.14,128.65L93.47,126.11L93.8,125.19L94.13,125.32L94.47,122.68L94.8,117.72L95.13,127.53L95.46,130.8L95.79,129.31L96.12,127.77L96.46,125.71L96.79,130.6L97.12,128.4L97.45,132.48L98.11,130.07L98.44,130.41L98.78,126.94L99.11,126.1L99.44,120.84L101.1,152.9L101.43,163.99L101.76,153.67L102.09,160.23L102.42,162.77L102.75,164.92L103.08,160.75L104.08,136.37L104.41,139.3L104.74,142.81L105.07,141.79L105.4,136.69L105.74,136.12L106.07,131.59L106.4,131.92L106.73,135.15L107.06,138.06L107.39,133.33L108.06,126.28L108.39,127.13L108.72,134.17L109.05,141.34L109.38,140.05L109.71,136.93L110.38,138.69L110.71,146.24L111.37,176.9L111.7,161.52L112.37,155.82L112.7,156.87L113.03,157.92L113.69,179.85L114.02,168.12L115.02,162.89L115.35,151.05L116.01,167.4L116.34,155.28L116.67,157.81L117.01,166.54L118,178.27L118.33,222.75L118.66,261.79L118.99,159.09L119.99,133.55L120.32,128.42L120.65,115.54L120.98,122.28L121.31,134.65L121.98,129.32L122.31,136.88L122.64,132.22L122.97,137.99L123.3,145.01L124.3,133.76L124.63,137.18L124.96,134.73L125.29,140.43L125.96,145.63L126.29,137.65L126.62,137.53L126.95,135.85L127.94,129.34L128.28,132.38L128.61,133.53L128.94,129.8L129.27,143.79L129.93,140.94L130.26,139.49L130.6,139.75L130.93,139.16L131.26,135.38L131.92,128.85L132.25,134.31L132.58,139.21L132.92,137.47L133.25,137.16L133.91,139.36L134.24,137.08L135.57,153.56L135.9,150.16L136.23,142.06L136.56,140.26L136.89,145.17L137.56,147.02L137.89,143.75L138.22,144.68L138.55,138.66L138.88,138.48L139.21,140.68L139.54,139.64L139.88,142.07L140.54,143.97L140.87,133.4L141.87,141L142.2,139.04L142.53,139.54L142.86,139.07L143.19,146.1L144.19,137.62L144.52,138.64L145.18,142.32L145.51,151.87L145.84,152.43L146.17,154.53L148.16,132.32L148.49,141.35L149.82,139.52L150.15,143.32L150.48,138.02L150.81,142.98L151.15,148.84L152.8,134.61L153.13,136.39L154.13,141.31L154.46,139.58L154.79,141.89L155.12,123.54L155.79,142.66L156.45,141.05L156.78,137.12L157.11,136.95L157.44,118.5L158.44,134.64L158.77,137.21L159.1,139.01L159.43,130.85L159.76,130.59L160.1,134.77L160.43,136.6L160.76,133.1L161.09,133.95L161.42,132.55L161.75,123.41L162.08,126.48L162.42,135.48L162.75,136.09L163.08,139.59L163.41,138.74L163.74,132.88L164.4,126.14L164.74,134.76L165.73,138.23L166.06,136.51L166.39,126.19L166.72,129.7L167.06,134.1L167.72,133.73L168.05,137.34L168.38,132.46L169.04,132.34L169.38,141.78L169.71,143.49L170.04,145.6L170.37,132.91L170.7,133.23L171.03,127.75L172.03,140.26L172.36,139.15L172.69,137.98L173.02,138.69L173.35,134.76L173.69,127.28L174.02,135.85L174.35,134.94L174.68,136.16L175.01,131.23L175.34,134.16L175.67,120.34L176.01,116.79L176.34,128.01L176.67,138.36L177,177.86L178.33,138.72L178.66,142.55L178.99,148.13L179.65,144.26L179.98,144.61L180.31,156.12L180.65,149.25L180.98,160.91L181.31,159.85L181.64,155.81L181.97,144.47L182.3,147.65L182.63,151.92L182.97,144.98L183.3,151.92L183.63,154.94L183.96,155.19L184.29,152.88L184.62,155.62L184.96,155.04L185.29,147.65L185.95,154.58L186.28,150.16L186.61,146.87L186.94,151.15L187.61,135.02L187.94,143.86L188.6,141.56L188.93,142.06L189.26,147.38L189.93,132.28L190.26,140.27L191.58,134.22L191.92,139.72L192.25,135.43L192.58,137.41L192.91,137.8L193.24,137.75L193.57,136.76L193.9,137.77L194.24,130.41L194.57,129.88L194.9,133.73L195.89,139.87L196.22,142.32L196.56,151.73L196.89,145.33L197.22,148.94L198.21,151.61L198.54,149.71L199.21,133.99L199.54,143.66L199.87,146.05L200.2,142.85L200.53,147.34L201.2,141.29L201.53,131.77L201.86,144.54L202.52,142.1L202.85,145.69L203.19,146.69L203.52,136.87L204.18,155.16L204.51,154.15L204.84,154.36L205.17,149.42L205.51,150.32L205.84,154.65L206.17,146.11L206.5,153.11L206.83,156.48L208.16,137.98L208.49,137.55L209.15,143.78L209.48,143.44L209.81,142.85L210.15,142.88L210.48,128.54L210.81,125.78L211.14,139.73L212.13,146.85L212.47,144.38L212.8,137.13L213.13,139.08L213.46,142.85L213.79,139.4L214.12,145L214.46,148.44L214.79,142.38L215.12,134.72L215.45,134.83L215.78,142.52L216.44,144.05L216.78,152.15L217.44,162.79L217.77,149.29L219.1,157.68L219.43,155.49L220.09,136.66L220.42,144.16L220.75,149.23L221.08,149.78L221.42,142.74L221.75,146.11L222.08,165.46L223.4,153.13L223.74,156.56L224.07,158.11L224.4,143.23L225.06,160.36L225.39,155.34L225.72,150.31L226.72,145.6L227.05,150.8L227.38,160.29L228.04,160.04L228.38,166.43L228.71,165.64L229.04,159.91L230.03,181.69L230.37,178.58L230.7,171.03L231.36,181.91L231.69,188.41L233.35,177.74L233.68,193.72L234.01,195.65L234.34,193.42L234.67,192.03L235.01,193.86L235.34,186.68L236,183.77L236.33,188.73L236.66,193.45L236.99,188.52L237.33,185.54L237.66,186.7L237.99,184.81L238.32,182.97L238.65,198.78L238.98,207.66L239.31,255.45L239.65,271.19L239.98,187.94L240.97,152.95L241.3,151.57L241.63,118.92L241.97,128.91L242.3,160.07L242.63,163.9L242.96,163.69L243.29,158.81L243.96,167.83L244.29,163.71L244.62,165.8L244.95,163.03L245.28,163.93L245.61,159.34L245.94,159.46L246.28,164.91L246.94,162.44L247.27,164.98L248.26,155.31L248.6,162.92L249.26,169.08L249.59,168.95L249.92,166.6L250.25,155.44L250.58,162.83L250.92,173.57L251.25,173.57L251.58,170.64L251.91,170.68L252.24,165.66L252.57,156.85L252.9,167.62L253.24,169.83L253.57,170.02L253.9,167.72L254.89,160.69L255.22,164.53L256.55,175.03L256.88,168.19L257.21,159.64L257.88,160.55L258.21,167.08L258.54,167.36L258.87,163.57L259.2,179.67L259.53,166.07L259.87,171.82L260.2,176.3L260.86,175.11L261.19,179.25L261.85,170.09L262.19,176.48L263.18,187.23L263.51,186.45L263.84,173.2L264.17,174.63L264.51,181.23L264.84,178.07L265.17,180.31L265.5,180.59L265.83,182.12L266.16,174.34L266.49,173.99L266.83,179.82L268.15,185.55L268.48,167.45L268.81,168.87L269.15,175.01L269.48,171.9L269.81,174.98L270.14,175.61L270.47,176.81L270.8,192.65L271.13,193.62L271.47,199.18L272.13,198.5L272.46,197.71L272.79,198.07L273.12,207.95L273.46,207.8L273.79,206.71L274.45,210.45L274.78,205.34L275.44,183.74L275.78,185.16L276.11,189.66L276.44,193.13L276.77,188.65L277.76,183.26L278.1,180.28L278.76,182.55L279.09,197.39L279.75,184.27L280.08,197.66L280.42,183.6L280.75,193.27L281.08,194.41L281.41,189.3L281.74,192.44L282.07,195.19L282.74,183.01L283.07,192.75L283.73,185.28L284.06,187.91L285.06,170.18L285.39,186.54L285.72,188.38L286.05,184.02L286.71,183.51L287.04,159.76L287.38,160.16L287.71,172.33L288.04,172.7L288.37,179.72L289.7,174.38L290.03,180.62L290.36,180.16L290.69,181.2L291.02,180.62L291.35,181.97L291.69,165.17L292.02,167.13L292.35,175.81L292.68,174.37L293.01,179.6L293.67,176.95L294.01,162.71L294.34,163.13L294.67,169.76L295.33,176.9L295.66,175.23L295.99,175.57L296.33,160.91L296.66,161.3L296.99,171.42L297.32,170.34L297.65,175.43L298.31,176.9L298.65,157.3L298.98,154.61L299.31,165.35L300.63,163.67L300.97,145L301.3,142.92L301.63,149.13L302.62,156.71L302.96,152.75L303.29,139.48L303.62,145.19L303.95,159.61L304.61,159.23L305.61,165.77L305.94,154.98L306.6,166.93L306.93,163.36L307.26,163.53L307.93,163.5L308.26,158.11L308.92,166.09L309.25,159.7L309.58,160.65L309.92,159.99L310.25,149.77L310.58,148.2L310.91,163.41L311.24,158.06L311.57,158.96L311.9,160.34L312.9,152.83L313.23,167.09L314.22,161L314.56,158.2L315.22,152.6L315.55,160.96L316.21,165.65L316.54,164.09L316.88,160.56L317.21,163.04L317.54,158.41L317.87,169.26L318.2,165.15L318.53,163.5L318.87,163.74L319.2,163.25L319.53,177.03L319.86,161.85L320.19,172.07L320.52,181.68L320.85,175.71L321.19,177.96L321.52,177.38L321.85,187.31L322.18,172.78L322.84,182.22L323.17,179.34L323.51,175.8L323.84,173.94L324.17,156.48L324.5,150.22L324.83,164.72L325.16,168.78L325.49,162.87L325.83,166.9L326.16,166.11L326.49,154.27L326.82,148.17L327.15,162.09L327.48,170.42L327.81,169.34L328.15,165.77L328.81,153.8L329.14,147.54L329.47,167.8L329.8,160.83L330.13,160.49L330.47,162.98L330.8,160.25L331.13,145.3L331.46,147.56L331.79,166.2L332.12,165.82L332.46,163.12L332.79,161.53L333.12,163.15L333.45,150.53L333.78,147.56L334.11,167.82L334.78,170.22L335.11,168.89L336.1,155.14L336.43,164.01L337.1,169.34L337.43,165.64L337.76,165.93L338.09,161.28L338.42,155.32L338.75,164.14L339.42,168.25L339.75,164.55L340.08,170.03L340.41,166.33L340.74,159.52L341.74,175.13L342.07,176.66L342.73,157.82L343.06,158.95L343.39,174.49L343.72,176.7L344.06,173.75L345.38,160.76L345.71,176.7L346.04,177.17L346.38,171.35L346.71,173.78L347.04,182.15L347.37,168.42L347.7,171.45L348.03,187.43L348.7,181.85L349.03,182.2L349.36,184.88L349.69,176.2L350.02,177.4L350.35,191.53L350.69,196.1L351.35,195.54L351.68,181.68L352.34,183.56L352.67,203.65L353.01,206.84L353.34,202.23L353.67,206.81L354,192.63L355.33,203.95L355.66,203.17L355.99,204.39L356.32,199.87L356.98,187.73L357.31,201.83L357.98,205.82L358.31,199.27L358.64,200.92L358.97,192.49L360.63,285.54L360.96,213.27L361.62,187.61L361.96,189.34L362.29,190.38L362.62,152.89L362.95,157.65L363.28,191.79L363.61,192.55L363.94,180.56L364.61,193.58L364.94,191L365.27,191.15L365.6,187.46L365.93,197.59L366.26,194.12L366.6,195.42L366.93,202.26L367.92,197.9L368.25,196.31L369.25,206.99L369.58,206.25L369.91,201.3L370.9,187.8L371.24,197.23L371.57,215.88L371.9,212.06L372.23,210.68L372.56,211.35L372.89,198.39L373.22,195L373.56,203.39L374.88,206.25L375.21,185.05L375.54,183.72L375.88,192.72L376.54,202L376.87,199.99L377.2,198.3L377.87,180.98L378.2,192.43L379.19,205.95L379.52,206.31L379.85,173.01L380.19,174.58L380.52,186.62L381.84,203.66L382.17,184.96L382.51,172.94L382.84,183.83L383.17,182.52L384.16,176.59L384.49,181.38L384.83,180.36L385.16,186.96L385.49,188.94L385.82,185.27L386.15,186.45L386.48,184.95L386.81,185.89L387.15,180.87L387.48,189.52L387.81,196.72L388.14,190.97L388.47,185.9L388.8,187.55L389.13,184.89L389.47,184.46L389.8,192.12L390.46,188.28L390.79,191.79L391.79,183.23L392.12,186.84L392.45,192.63L392.78,187.02L393.11,185.5L393.44,184.01L393.78,197.12L394.44,183.46L394.77,189.96L395.76,178.38L396.1,180.9L396.43,176.91L396.76,181.33L397.09,187.15L397.42,188.56L397.75,188L398.08,186.23L398.42,180.02L398.75,180.49L399.08,181.72L399.41,188.55L399.74,182.71L400.07,183.29L400.4,182.73L400.74,186.5L401.07,186.88L401.4,188.49L401.73,193.81L402.06,193.11L402.39,191.41L402.72,185.19L403.06,188.38L403.39,188.8L404.71,194.42L405.04,191.84L405.71,175.02L406.04,186.87L406.37,186.44L406.7,187.28L407.03,187.72L407.37,182.95L407.7,186.4L408.03,175.7L408.36,175.32L408.69,184.7L409.69,176.69L410.02,170.22L410.35,166.21L410.68,173.78L411.67,178.37L412.01,176.84L412.67,150.2L413,160.98L414.33,176.83L414.66,176.04L414.99,172.28L415.32,179.66L415.65,180.37L415.98,179.15L416.65,177.12L416.98,170.63L417.31,169.84L417.64,178.2L417.97,179.74L418.3,178.62L418.63,179.18L418.97,183.2L419.3,176.2L419.63,163.8L419.96,180.15L420.62,177.68L420.96,176.41L421.95,154.08L422.28,170.58L422.94,180.63L423.28,179.15L423.61,177.08L424.27,158.67L424.6,169.93L425.6,182.05L425.93,180.61L426.59,163.73L426.92,173.11L427.58,179.7L427.92,178.97L428.25,183.23L428.91,168.27L429.24,177.11L429.57,177.76L429.9,176.3L430.24,178.5L430.57,168.31L431.23,179.43L431.56,194.2L431.89,196.09L432.22,195.12L432.56,192.2L432.89,194.32L433.22,192.81L433.55,187.03L433.88,199.53L434.54,199.29L434.88,203.39L435.54,186.01L435.87,176.56L436.53,194.25L436.87,191.9L437.2,190.38L437.53,192.52L437.86,181.65L438.19,175.4L438.52,192.06L439.19,192.79L439.52,189.87L439.85,185.3L440.18,169.26L440.51,170.23L440.84,176.14L441.51,186.64L441.84,184.48L442.17,182.94L442.5,165.31L442.83,168.01L443.16,172.06L443.83,186.3L444.16,183.77L444.49,183.46L444.82,153.57L445.15,165.06L445.48,170.2L446.48,186.82L446.81,186.24L447.14,164.11L447.47,162.18L447.8,172.95L448.13,179.09L448.8,178.19L449.13,177.64L449.79,161.21L450.12,178.81L450.46,178.66L450.79,181.26L451.45,185.47L451.78,162.98L452.11,164.98L452.44,174.24L453.44,182.88L453.77,182.88L454.43,156.03L454.76,165.16L455.1,170.62L455.43,169.15L455.76,159.86L456.09,166.57L456.42,159.2L456.75,147.29L457.75,176.82L458.08,175.07L458.41,174.78L458.74,163.97L459.07,158.27L459.4,170.1L459.74,182.22L460.07,178.39L460.4,173.23L461.06,155.03L461.39,156.49L461.72,160.87L462.39,173.66L462.72,170.74L463.05,166.7L463.71,154.83L464.04,155.87L464.38,171.67L464.71,178.65L465.37,177.8L465.7,159.67L466.03,157.45L466.37,165.57L467.03,177.1L467.36,172.32L467.69,172.77L468.02,175.69L468.35,169.03L468.69,174.52L469.02,187.76L469.35,187.04L469.68,187.82L470.01,184.69L470.34,168.44L470.67,173.08L471.01,184.24L471.34,185.6L471.67,183.48L472,191.31" style="vector-effect: non-scaling-stroke; fill: none; stroke: rgb(99, 110, 250); stroke-opacity: 1; stroke-width: 2px; opacity: 1;"/></g><g class="points"/><g class="text"/></g><g class="trace scatter tracee8cbdb" style="stroke-miterlimit: 2; opacity: 1;"><g class="fills"/><g class="errorbars"/><g class="lines"><path class="js-line" d="M0,95.88L0.99,107.94L1.33,102.96L2.32,129.14L2.65,117.57L3.65,111.16L3.98,116.35L4.31,110.46L4.64,126.52L6.3,108.48L6.63,110.05L6.96,124.96L7.96,117.93L8.29,116.32L8.95,108.98L9.28,128.63L11.27,108.51L11.6,122.82L12.26,113.95L12.6,114.88L12.93,115.63L13.26,101.79L13.59,104.79L13.92,119.74L14.25,114.56L14.58,129.61L15.58,110.03L15.91,109.81L16.24,125.21L16.57,118.41L16.9,118.57L17.24,118.27L17.57,114.41L17.9,105.8L18.23,105.9L18.56,121.88L18.89,118.74L19.22,120.28L19.56,120L19.89,116.66L20.22,123.36L20.55,123.41L20.88,135.39L21.88,124.92L22.21,122.16L22.87,116.38L23.2,129.33L23.53,118.08L24.2,119.38L24.53,118.74L24.86,110.25L25.19,112.45L25.52,145.49L26.85,134.91L27.18,122.52L27.51,123.1L27.84,133.5L28.17,124.41L28.84,125.62L29.17,120.72L29.83,116.81L30.16,125.69L31.16,120.67L31.49,119.99L32.15,114.02L32.48,122.43L33.48,116.81L33.81,115.62L34.8,130.57L35.13,126.93L36.79,112.09L37.12,121.64L38.12,116.41L38.45,116.01L39.11,109.98L39.44,114.78L39.78,118.5L40.11,117.53L40.44,117.3L40.77,116.99L41.1,109.09L41.43,110.85L41.76,122.87L42.1,117.47L42.76,118.76L43.09,117.08L43.42,112.44L43.75,112.67L44.08,124.29L45.08,114.82L45.41,115.77L46.07,110.99L46.4,118.75L47.73,111.47L48.06,108.77L48.39,107.79L48.72,114.24L49.06,112.28L50.05,112.8L50.71,103.37L51.04,111.35L52.04,110.68L52.37,109.49L53.03,99.16L53.37,107.89L54.36,102.74L54.69,102.04L55.35,98.64L55.69,103.82L56.02,99.57L56.35,101.88L56.68,100.79L57.01,100.59L57.34,92.27L57.67,93.45L58.01,101.14L58.67,97.15L59,99.84L59.33,100.88L59.66,94.4L59.99,93.83L60.33,101.6L61.65,95.53L61.98,92.68L62.31,93.84L62.65,99.65L62.98,95.62L63.31,98.71L63.64,99.04L63.97,97.48L64.3,90.45L64.63,90.43L64.97,97.34L66.29,88.97L66.62,77.26L67.95,92.59L68.28,94.09L68.61,93.52L68.94,88.29L69.28,89.92L69.61,96.45L69.94,93.15L70.27,95.39L70.6,96.32L71.26,93.97L71.6,94.55L71.93,99.88L72.26,96.55L72.59,97.79L72.92,97.8L73.25,98.6L73.58,92.79L73.92,93.19L74.25,100.15L74.58,93.85L74.91,97.26L75.24,97.9L75.9,89.34L76.24,91.41L76.57,99.9L76.9,94.57L77.56,95.05L77.89,93.24L78.89,107.65L79.22,104.19L79.88,106.02L80.21,104.13L80.88,99.27L81.21,109.55L81.54,105.08L81.87,106.14L82.2,107.33L82.87,105.98L83.2,104.63L83.53,117.66L83.86,111.67L84.19,112.26L84.52,111.84L84.85,108.51L85.52,104.2L85.85,117.11L86.18,108.3L86.51,111.36L86.84,111.25L87.84,105.68L88.17,118.91L88.5,113.35L89.16,114.41L89.49,112.85L90.16,103.38L90.49,114.39L90.82,111.41L91.15,113.95L91.48,113.17L92.15,111.16L92.48,113.53L92.81,125.82L93.14,119.99L93.47,119.45L93.8,117.7L94.13,118.28L94.47,111.79L94.8,113.49L95.13,125.06L96.46,117.25L96.79,118.55L97.12,118.69L97.45,130.2L98.78,117.93L99.11,115.21L99.44,111.91L99.77,127.18L100.1,119.95L100.43,120.37L100.76,126.38L101.43,127.66L101.76,129.81L102.09,144.31L102.42,134.78L102.75,132.99L103.42,126.7L103.75,120.27L104.08,119.11L104.41,137.8L104.74,127.19L105.4,128.97L105.74,121.12L106.07,115.46L106.4,118.55L106.73,136.99L107.06,125.88L107.72,126.94L108.06,122.68L108.39,115.28L108.72,123.31L109.05,142.86L109.38,130.91L109.71,134.02L110.04,134.59L110.71,143.79L111.04,162.62L111.37,182.38L111.7,149.85L112.37,156.08L112.7,149.73L113.03,149.54L113.36,172.43L113.69,187.49L114.02,158.14L114.35,156.61L114.69,160.26L115.02,160.87L115.35,151.3L116.01,183.09L116.34,159.21L116.67,160.25L117.01,170.04L117.67,193.57L118,230.63L118.33,304L118.66,224.9L118.99,160.74L119.99,123.05L120.32,122.63L120.65,76.56L120.98,108.27L121.31,126.66L121.65,129.38L121.98,124.23L122.64,123.78L122.97,135.34L123.63,127.97L123.97,128.44L124.3,125.78L124.96,125.26L125.29,139.43L125.62,132.61L126.29,133.05L126.62,128.52L127.28,122.86L127.61,136.96L128.28,126.79L128.61,127.36L128.94,125.68L129.27,124.87L129.6,121.66L129.93,134L130.26,127.76L130.6,128.37L131.59,124.54L131.92,120.29L132.25,133.17L132.58,127.92L132.92,128.35L133.25,127.82L133.58,128.25L133.91,123.31L134.24,117.1L134.57,130.04L134.9,125.95L135.24,126.96L135.57,144.88L136.56,120.04L136.89,129.28L137.89,123.31L138.22,122.7L138.55,113.67L138.88,113.85L139.21,125.37L139.54,120.56L139.88,121.64L140.21,122.67L141.2,118.56L141.53,126.25L143.52,111.15L143.85,123.37L144.85,117.06L145.18,117.6L146.17,140.49L146.51,133.31L146.84,132.4L147.17,128.9L148.16,118.13L148.49,130.47L149.82,119.63L150.15,118.09L150.48,117.79L150.81,126.45L152.14,117.75L152.47,111.73L152.8,108.17L153.13,117.45L154.13,111.58L154.46,110.39L154.79,112.38L155.12,109.61L155.46,120.78L155.79,115.52L156.12,115.28L156.78,108.27L157.11,111.24L157.44,100.3L157.78,112.23L158.44,110.64L158.77,109.96L159.76,107.41L160.1,114.57L160.43,110.08L160.76,114.03L161.09,114.65L162.08,104.59L162.42,111.3L162.75,111.23L163.08,112.23L163.41,112.6L163.74,108.91L164.4,106.92L164.74,118.43L165.73,113.44L166.06,111.13L166.72,107.89L167.06,115.31L167.39,114.29L167.72,117.49L168.38,114.75L168.71,125.24L169.04,115.62L169.38,125.11L169.71,122.23L171.03,110.69L171.37,115.3L171.7,121.75L172.36,120.19L172.69,119.33L173.69,110.74L174.02,119.42L175.01,116.79L175.34,114.36L175.67,105.43L176.01,105.46L176.34,115.72L176.67,121.23L177,163.67L178.33,123.32L178.66,128.97L179.65,120.9L179.98,121.27L180.31,148.07L181.64,133.22L181.97,130.42L182.63,121.24L182.97,116.97L183.3,124.93L183.96,123.75L184.29,123.15L184.62,124.35L184.96,121.54L185.29,118.91L185.62,122.12L185.95,121.85L186.94,114.6L187.28,110.91L187.61,110.77L187.94,117.75L188.27,117.05L188.6,114.11L189.26,114.26L189.6,111.38L189.93,110.69L190.26,117.47L191.58,112.94L191.92,114.62L192.25,112.09L192.58,118.09L193.24,117.13L193.57,117.85L193.9,117.71L194.57,111.51L194.9,120.9L195.89,115.64L196.22,119.09L196.56,130.67L196.89,120.76L197.22,125.71L198.88,106.09L199.21,109.04L199.54,119.24L201.53,111.53L201.86,119.33L202.19,117.96L202.85,118.18L203.19,118.26L203.52,114.81L203.85,121.86L204.18,125.68L204.51,122.29L204.84,121.78L205.51,119.87L205.84,121.74L206.17,119.2L206.5,129.04L208.16,115.27L208.49,116.22L208.82,126.63L209.15,123.14L209.48,122.5L209.81,124.34L210.15,123.29L210.48,116.41L210.81,119.48L211.14,129.84L212.47,124.67L212.8,123.96L213.13,126.24L213.46,135.82L214.12,129.1L214.46,129.31L214.79,128.57L215.12,124.01L215.45,124.88L215.78,132.97L216.11,131.56L216.44,132.63L216.78,137.04L217.44,135.06L217.77,135.82L218.1,147.43L218.43,139.55L218.76,140.08L219.1,141.16L219.43,139.68L219.76,134.86L220.09,135.84L220.42,146.11L221.42,137.53L221.75,142.05L222.08,143.19L222.41,141.69L222.74,151.49L223.4,145.83L223.74,145.95L224.07,145.68L224.4,141.67L224.73,144.8L225.06,154.82L226.06,147.22L226.39,150.07L226.72,143.92L227.05,146.32L227.38,159.97L227.71,151.18L228.04,151.64L228.38,155.04L228.71,150.8L229.04,151.08L229.37,161.85L229.7,172.95L230.03,163.93L230.37,164.59L230.7,159.06L231.03,159.19L231.36,161.34L232.02,199.24L232.35,175.17L232.69,174.58L233.02,177.77L233.35,175.98L233.68,186.62L234.34,205.42L234.67,185.71L235.01,180L235.34,180.93L235.67,183.96L236,179.58L236.33,200.23L236.66,209.06L236.99,187.39L237.33,187.62L237.66,190.66L237.99,193.25L238.32,206.05L238.98,238.2L239.31,296.07L240.64,149.8L240.97,146.77L241.3,147.18L241.63,109.29L242.3,147.83L242.63,147.12L242.96,145.81L243.62,153.83L243.96,152.29L244.29,150.96L244.62,152.77L244.95,150.9L245.28,149.92L245.61,148.15L245.94,155.63L247.27,147.26L247.6,144.52L247.93,146.24L248.26,154.17L248.93,148.53L249.26,151.06L249.92,144.68L250.25,146.3L250.58,151.02L251.25,149.66L251.58,151.88L251.91,152.78L252.24,147.7L252.9,155.88L253.24,151.49L253.57,150.95L253.9,151.2L254.23,148.63L254.56,147.47L254.89,150.96L255.22,157.28L255.56,155.1L255.89,154.94L256.22,153.67L256.55,163.47L256.88,146.67L257.21,147.43L257.54,153.96L258.87,147.87L259.2,148.83L259.53,145.47L259.87,151.44L260.2,151.12L260.53,149.6L261.85,142.93L262.19,151.1L262.52,148.39L263.18,148.93L263.51,150.63L263.84,142.98L264.17,146.47L264.51,155.53L265.5,150.38L265.83,150.57L266.16,145.79L266.49,147.64L266.83,155.56L268.15,151.28L268.48,141.05L269.15,151.06L269.81,150.28L270.14,149.8L270.47,148.8L270.8,166.77L271.13,167.97L271.47,175.33L272.79,170.74L273.12,171.5L273.46,167.77L273.79,175.55L275.11,166.71L275.44,154.75L275.78,154.95L276.11,164.8L278.1,147.77L278.43,153.02L279.09,163.18L279.42,162.8L279.75,161.32L280.42,151.7L280.75,160.34L281.41,152.68L281.74,156.88L282.07,157.19L282.4,148.62L282.74,148.17L283.07,156.57L283.4,156.25L283.73,154.04L284.06,153.7L284.39,151.86L285.06,143.2L285.39,152L286.38,148.64L286.71,144.87L287.38,134.2L287.71,146.12L288.7,140.91L289.03,141.8L289.37,134.94L289.7,137.77L290.03,147.27L291.02,140.29L291.35,141.32L291.69,132.52L292.02,133.92L292.35,141.14L294.34,134.6L294.67,142.55L295.33,141.82L295.66,139.28L295.99,138.28L296.33,132.21L296.66,130.69L296.99,139.05L297.98,135.81L298.31,135.02L298.65,126.97L298.98,129.48L299.31,137L300.3,132.46L300.63,133.08L300.97,128.24L301.3,125.96L301.63,134.15L302.29,133.51L302.62,132.53L303.62,130.15L303.95,139.43L304.94,136.48L305.28,136.98L305.94,136.73L306.27,142.14L306.6,140.72L308.26,133.87L308.59,142.13L310.25,130.81L310.58,132.88L310.91,142.34L311.24,137.64L311.57,138.69L312.9,133.32L313.23,139.69L314.22,136.96L314.56,137.31L314.89,129.87L315.22,133.07L315.55,141.39L315.88,138.13L316.21,141.27L316.54,139.22L316.88,141.95L317.21,139.12L317.54,135.7L317.87,146.39L318.53,145.08L318.87,143.42L319.2,142.59L319.53,145.84L319.86,139.14L320.19,145.31L320.52,144.57L321.19,141.81L321.52,142.83L321.85,158.71L322.18,147.44L322.51,155.94L322.84,153.37L323.84,150.34L324.17,143.05L324.5,142.79L324.83,150.89L325.49,149.12L325.83,147.71L326.16,148.18L326.49,145.27L326.82,143.78L327.15,151.67L328.48,148.45L328.81,148.4L329.14,144.8L329.47,154.39L331.46,146.6L331.79,156.45L332.46,152.32L332.79,153.78L333.78,150.3L334.11,159.13L335.77,147.84L336.1,148.69L336.43,157.08L336.76,153.26L337.1,153.79L337.43,154.73L337.76,154.25L338.09,149.77L338.42,149.55L338.75,161.23L339.42,156.64L339.75,159.71L340.08,158.83L340.41,159.87L340.74,160.7L341.07,168.73L341.4,165.75L341.74,164.55L342.07,163.79L342.4,156.2L342.73,157.19L343.06,155.22L343.39,168.36L343.72,165.35L344.06,163.31L345.38,159.85L345.71,170.67L346.71,166.89L347.04,170.69L347.7,166.82L348.03,177.81L349.03,169.88L349.36,169.62L349.69,167.97L350.02,170.65L350.35,184.49L350.69,176.35L351.02,175.82L351.68,176.36L352.01,171.79L352.67,211.66L353.01,192.32L354,187.24L354.33,188.22L354.66,200.55L354.99,210.49L355.33,189.04L356.32,191.98L356.65,191.6L356.98,205.36L357.31,215.61L357.65,196.54L357.98,197.14L358.31,200.16L358.97,209.39L359.3,222.74L359.97,235.12L360.3,300.24L361.62,180.9L361.96,180.07L362.29,176.08L362.62,140.63L363.28,178.26L363.61,176L363.94,174.66L364.28,182.95L364.94,181.11L365.27,179.23L365.6,178.45L365.93,181.18L366.26,179.45L366.6,189.61L367.92,181.97L368.25,182.37L368.58,176.56L368.92,183.52L369.25,179.79L370.57,171.45L370.9,173.1L371.24,184.43L371.57,187.79L371.9,187.19L372.23,186.01L372.56,185.88L372.89,178.74L373.22,176.99L373.56,191.03L374.55,184.57L374.88,181.84L375.21,168.53L375.54,171.03L375.88,185L377.2,177.01L377.53,183.78L377.87,180.96L378.2,192.25L379.85,164.51L380.19,167.61L380.52,178.87L381.18,177.68L381.51,178.85L381.84,177.96L382.17,170.85L382.51,172.13L382.84,183.86L384.16,174.54L384.49,170.77L384.83,168.22L385.16,180.51L385.82,176.56L386.15,177.31L386.48,176.84L387.15,173.72L387.48,181.53L389.13,173.92L389.47,174.48L389.8,179.61L390.13,176.51L390.46,175.01L391.12,172.45L391.46,163.94L391.79,163.35L392.12,174.06L393.44,169.32L393.78,170.07L394.11,166.59L394.44,172.11L396.43,161.55L396.76,169.68L397.09,173.36L397.42,172.27L397.75,170.3L398.42,163.61L398.75,160.87L399.08,169.82L399.41,168.03L399.74,166.29L400.74,163.51L401.07,164.05L402.06,170.49L402.39,170.8L403.39,162.71L403.72,168.96L404.38,167.95L404.71,165.55L405.38,163.94L405.71,155.67L406.04,172.12L406.7,168.7L407.03,167.71L407.37,166.53L407.7,160.58L408.03,156.7L408.36,166.63L410.35,154.49L410.68,162.95L412.01,157.31L412.34,143.86L412.67,140.18L413,147.15L414.33,155.99L414.66,152.55L414.99,149.99L415.32,160.6L417.31,144.54L417.64,156.2L417.97,154.18L418.3,156.32L418.63,155.78L418.97,153.62L419.3,145.22L419.63,142.62L419.96,157.05L421.95,137.66L422.28,149.85L422.61,149.77L422.94,147.09L424.27,140.64L424.6,149.67L424.93,149.66L425.26,147.7L425.6,147.91L425.93,146.3L426.26,145.85L426.59,142.77L426.92,150.53L427.58,149.84L427.92,148.52L428.25,148.72L428.58,142.65L428.91,141.31L429.24,149.76L430.57,144.92L430.9,155.69L431.23,148.86L431.56,160.11L432.89,148.7L433.22,147.88L433.55,143.71L433.88,154.9L434.21,154.93L434.54,153.94L435.21,150.69L435.54,144.37L435.87,140.18L436.2,149.04L436.53,150.59L436.87,150.04L437.2,148.8L437.53,149.33L437.86,143.89L438.19,141.7L438.52,151.03L438.85,151.5L439.19,150.56L439.52,151.96L439.85,150.05L440.18,143.47L440.51,143.84L440.84,155.86L442.17,150.64L442.5,141.74L442.83,141.64L443.16,152.84L444.49,148.09L444.82,139.76L445.15,139.79L445.48,152.97L445.81,151.19L446.48,151.66L446.81,150.59L447.14,145.1L447.47,146.49L447.8,157.77L448.47,152.88L448.8,155.4L449.13,154.06L449.46,146.29L449.79,145.07L450.12,157.65L450.46,152.91L450.79,153.39L451.12,155.17L451.45,154.98L451.78,148.51L452.11,151.76L452.44,163.81L453.77,156.36L454.1,148.66L454.43,147.47L454.76,157.24L455.76,151.3L456.09,152.23L456.75,143.81L457.08,158.43L457.42,153.45L457.75,154.19L458.08,157.3L458.41,158.11L458.74,156.59L459.07,156.56L459.4,166.12L460.07,159.38L460.4,160.29L460.73,157.33L461.06,147.92L461.39,151.03L461.72,163.41L462.39,155.15L462.72,155.28L463.05,154.69L463.71,149.31L464.04,164.28L465.04,157.57L465.37,157.9L465.7,150.76L466.03,154.15L466.37,164.73L467.03,159L467.36,161.14L467.69,164.5L468.02,159.86L468.35,163.12L468.69,175.57L469.02,170.74L469.35,174.38L469.68,173.76L470.01,174.33L470.34,169.94L471.01,182.71L471.34,173.85L472,175.75" style="vector-effect: non-scaling-stroke; fill: none; stroke: rgb(239, 85, 59); stroke-opacity: 1; stroke-width: 2px; opacity: 1;"/></g><g class="points"/><g class="text"/></g><g class="trace scatter traced75d7b" style="stroke-miterlimit: 2; opacity: 1;"><g class="fills"/><g class="errorbars"/><g class="lines"><path class="js-line" d="M0,156.31L1.33,160.57L1.66,158L2.32,169.14L2.65,165.44L2.98,165.52L3.65,169.03L3.98,160.27L5.63,175.06L5.97,172.72L6.3,169.03L6.63,171.76L6.96,174.64L7.29,180.79L7.62,176.13L7.96,178.68L8.29,179.02L8.62,167.6L8.95,166.79L9.28,167.96L9.61,172.23L9.94,172.92L10.28,177.75L10.61,177.73L10.94,173.54L11.27,170.47L11.6,172.64L11.93,176.16L12.26,177.25L12.6,175.06L12.93,177.54L13.26,172.77L13.92,167.86L14.25,169.08L14.58,169.48L15.58,165.21L15.91,167.3L16.57,173.98L16.9,172.43L17.24,172.22L17.57,171.03L17.9,166.06L18.89,179.32L19.22,173.47L20.55,179.81L20.88,184.96L21.21,187.73L21.54,181.97L22.54,178.33L22.87,179.58L23.2,181.82L23.53,186.01L23.87,183.2L24.2,183.18L24.53,181.22L24.86,171.91L26.19,193L26.52,189.95L26.85,190.23L27.18,180.62L27.84,193.91L28.17,185.5L29.5,173.08L29.83,179.81L30.49,171.78L31.16,171.99L31.49,172.95L31.82,168.15L32.48,168.6L32.81,174.07L33.48,170.92L33.81,172.93L34.14,169.27L34.47,174.13L34.8,172.57L35.13,173.29L35.47,173.47L36.13,173.98L36.46,166.97L37.46,174.16L37.79,173.06L38.78,164.35L39.44,164.77L39.78,168.96L40.11,166.56L40.44,168.8L40.77,168.43L41.1,166.05L41.43,166.68L41.76,168.85L42.43,173.48L42.76,170.08L43.09,171.69L43.42,166.6L44.75,170.71L45.08,169.4L45.41,175.83L45.74,170.55L46.07,170.59L46.4,171.15L46.74,174.24L47.4,171.44L47.73,174.69L48.06,172.32L48.39,176.16L49.06,172.77L50.05,178.32L51.04,173.15L51.38,175.18L51.71,173.25L52.04,175.22L52.37,176.66L52.7,162.57L53.03,167.5L53.37,171.75L53.7,172.86L54.03,169.45L55.35,181.44L55.69,179.08L56.02,177.43L56.35,179.79L57.34,169.15L57.67,173.16L58.01,174.32L58.34,173.89L58.67,171.51L59,170.37L59.33,172.81L59.99,161.55L60.33,173.83L60.66,172.61L60.99,172.75L61.32,173.27L61.65,175.92L61.98,171.45L62.31,175.8L62.65,174.02L62.98,170.23L63.31,172.32L63.64,169.55L63.97,173.29L64.3,162.19L64.97,170.16L65.3,166.78L65.63,164.46L65.96,162.73L66.29,166.32L66.62,118.53L66.96,138.23L67.29,151.16L67.62,149.97L67.95,155.33L68.28,157.55L68.61,165.26L68.94,159.23L69.28,163.66L69.61,165.54L69.94,166.23L70.27,169.19L70.6,168.18L70.93,171.23L71.93,165.6L72.26,166.72L72.59,167.08L72.92,164.03L73.92,168.85L74.25,168.41L74.58,171.25L74.91,171.04L75.24,169.55L75.57,173.55L75.9,167.21L76.9,174.07L77.23,172.42L78.22,168.47L78.56,167.07L79.55,171.96L79.88,166.12L80.21,169.8L80.54,164.93L80.88,170.28L81.21,170.17L81.54,168.27L82.2,170L82.53,173.27L83.2,176.04L83.53,179.37L84.52,173.63L84.85,175.87L85.19,171.32L85.52,172.83L85.85,174.59L86.51,166.18L86.84,166.45L87.17,169.07L87.51,168.97L87.84,165.14L88.5,170.32L88.83,167.59L89.49,173.99L89.83,172.64L90.16,171.38L90.82,175.52L91.15,174.31L91.48,173.84L92.48,177.78L92.81,178.08L93.14,183.87L93.47,180.14L93.8,181.82L94.13,184.76L94.47,180.9L95.46,180.92L95.79,180.08L96.46,182.28L96.79,176.71L97.78,182.94L98.11,181.31L98.44,182.53L98.78,187.67L99.11,181.93L99.44,177.32L99.77,178.83L100.1,185.37L100.43,184.17L100.76,186.41L101.76,197.43L102.09,195.39L102.42,196.3L104.08,181.02L104.41,182.77L104.74,186.97L105.07,182.43L105.4,183.71L105.74,186.26L106.07,179.12L106.4,177.76L106.73,179.11L107.06,180.58L107.39,179.11L107.72,182.3L108.06,180.71L108.39,175.45L108.72,171.66L109.05,175.9L109.38,177.74L110.38,176.32L110.71,180.49L111.37,178.31L111.7,184.57L112.03,183.85L112.37,178.19L113.03,175.35L113.36,181.1L114.35,182.29L114.69,181.6L115.02,181.58L115.35,180.37L116.67,190.68L117.01,190.46L118,200.31L118.33,211.95L119.66,186.41L119.99,186.48L120.32,183.38L120.65,163.72L121.98,191.52L122.31,188.9L122.64,191.46L123.3,191.24L123.63,191.73L124.63,196.47L124.96,194.96L125.29,196.15L125.96,192.74L126.29,193.68L126.62,196.48L127.61,190.86L127.94,195.04L128.28,193.44L128.61,194.63L128.94,194.75L129.6,189.64L129.93,191.25L130.26,191.8L130.93,190.06L131.26,192.17L132.25,189.38L132.58,197.78L134.24,189.77L134.57,194.61L135.24,195.33L135.57,204.15L136.23,184.6L136.56,187.56L136.89,188.47L137.89,197.08L138.22,195.35L138.55,189.91L140.54,199.3L140.87,189.72L141.87,198.85L142.2,197.05L142.53,193.53L142.86,197.81L143.19,192.9L143.52,194.89L144.52,200.44L144.85,198.52L145.18,201.69L145.51,196.86L145.84,197.08L146.17,198.4L146.84,200.66L147.17,199.93L147.5,198.01L147.83,189.52L148.16,199.25L148.49,197.2L148.83,195.6L149.16,196.74L149.49,197.05L149.82,195.08L150.15,195.21L150.48,196.57L150.81,201.66L151.15,198.32L151.48,192.99L151.81,191.22L152.14,192.15L152.47,192.61L154.13,197.22L154.46,198.72L155.12,191.47L155.46,193.48L155.79,194.23L156.12,191.86L156.45,194.07L156.78,193.14L157.44,168.87L157.78,176.81L158.11,175.9L159.43,184.36L159.76,182.97L160.1,186.7L160.43,185.89L160.76,184.23L161.42,186.79L161.75,183.83L162.42,188.99L162.75,188.45L163.08,188.53L163.74,187.25L164.07,180.69L165.4,187.56L165.73,188.99L166.06,190.55L166.39,176.71L167.06,182.34L167.39,181.8L167.72,179.83L168.05,179.91L168.38,183.78L168.71,181.43L169.04,186.54L169.71,182.73L170.04,182.91L170.37,183.92L171.03,180.78L171.37,189.83L172.36,185.26L172.69,186.12L173.02,184.9L175.01,190.11L175.34,187.66L175.67,177.4L176.01,184.06L176.34,180.99L176.67,177.24L177,190.4L177.66,187.94L177.99,188.52L178.33,190.61L178.66,188.52L178.99,190.69L179.32,190.64L179.98,187.13L180.31,190.17L180.98,196.42L181.31,192.42L181.97,191.14L182.3,188.91L182.63,184.7L182.97,188.25L183.3,188.79L184.62,181.45L184.96,182.3L185.29,183.8L185.62,182.98L185.95,181.93L186.94,183.98L187.28,179L187.94,184.63L188.27,179.83L188.93,184.61L189.26,182.85L189.6,179.4L189.93,182.72L190.26,183.95L191.25,179.68L191.58,180.27L191.92,179.15L192.25,185.4L192.58,186.53L192.91,177.55L193.24,179.12L193.57,176.86L194.9,182.74L195.23,179.76L195.89,181.28L196.22,180.44L196.89,184.84L197.22,182.78L197.55,180.02L198.54,177.1L198.88,156.36L199.54,165.5L199.87,160L200.87,169.04L201.2,164.94L201.86,175.64L202.19,168.96L202.85,172.52L203.19,172.04L203.52,171.67L204.18,176.86L204.51,171.33L204.84,170.17L205.17,175.01L205.51,174.63L205.84,176.91L206.5,180.3L206.83,174.88L207.49,178.74L207.83,177.37L208.16,175.56L209.15,178.29L209.48,177.82L210.15,177.93L210.48,174.95L211.14,182.57L211.47,178.16L211.8,178.57L212.13,182.09L212.47,182.72L212.8,174.67L213.46,186.65L213.79,182.77L214.46,188.35L214.79,187.47L215.12,183L215.45,186.44L215.78,184.68L216.11,183.66L216.78,190.38L217.11,189.13L217.44,187.46L217.77,192.74L218.1,191.89L218.43,191.03L219.1,195.52L219.43,195.3L219.76,190.72L220.42,200.48L220.75,198.49L221.08,197.41L221.75,195.99L222.08,189.67L222.41,191.43L222.74,188.71L223.07,185.16L223.4,186.18L223.74,186.99L224.07,187.75L224.4,186.87L224.73,190.75L225.06,188.83L225.72,189.2L226.06,191.3L226.39,192.45L226.72,190.3L227.71,194.67L228.04,194.98L228.38,197.6L228.71,196.83L229.04,192.28L229.7,198.51L230.03,197.79L230.37,198.4L230.7,199.78L231.03,198.15L231.36,193.42L231.69,205.11L232.02,200.88L232.35,201.21L233.35,197.87L233.68,199.24L234.01,202.54L234.34,202.06L234.67,196.72L235.34,201.43L235.67,200.1L236,198.64L236.66,203.44L236.99,200.13L238.65,206.14L238.98,210.52L239.65,218.17L239.98,202.19L241.3,199.34L241.63,187.77L242.3,198.91L242.63,198.6L242.96,198L243.62,200.99L243.96,197.9L245.28,201.91L245.61,201.21L246.28,199.72L246.61,202.25L246.94,203.66L247.27,202.64L247.6,202.38L247.93,202.47L248.26,200.79L248.93,202.69L249.26,206.56L249.59,206.4L249.92,203.12L250.58,205.38L250.92,203.51L251.58,207.49L251.91,206.18L252.24,200.21L252.57,203.35L252.9,201.31L253.24,201.72L253.57,198.2L253.9,204.32L254.23,205.37L254.56,205.11L254.89,204.92L255.56,208.66L255.89,206.74L256.55,216.39L256.88,206.47L257.21,206.84L257.54,208.9L258.21,209.2L258.54,206.49L258.87,206.68L259.53,213.17L259.87,211.74L260.2,210.27L260.53,212.48L260.86,206.84L261.52,204.68L261.85,205.55L262.19,206.77L262.52,203.83L262.85,204.58L263.18,206.04L263.51,205.78L263.84,202.47L264.17,208.58L264.51,205.73L264.84,206.61L265.17,210.24L265.5,208.67L265.83,207.72L266.16,205.36L266.49,207.91L266.83,207.85L268.15,205.59L268.48,202.7L269.15,206.65L269.48,203.93L269.81,203.66L270.14,204.73L270.47,204.15L270.8,218.39L271.8,223.94L272.13,221.54L272.79,214.78L273.12,208.93L274.12,203.69L274.45,207.08L275.11,203.58L275.44,189.9L276.77,198.1L277.1,198.55L277.43,202.5L277.76,200.42L278.1,200.88L279.09,194.2L279.42,196.1L279.75,198.31L280.08,194.2L280.75,196.19L281.08,193.91L281.41,194.52L281.74,194.23L282.07,202.02L282.4,190.74L283.07,192.55L283.4,194.77L283.73,195.59L284.06,200.89L284.39,193.68L285.06,194.78L285.39,194.62L286.38,196.9L286.71,197.22L288.04,192.99L288.37,195.61L289.03,196.08L289.37,194.94L289.7,196.03L290.03,193.92L290.36,192.53L290.69,193.04L291.02,194.36L291.35,195.04L291.69,190.84L292.35,193.08L292.68,191.13L293.67,191.82L294.01,189.84L295.33,195.71L295.66,195.94L296.66,194.28L296.99,198.18L297.32,197.08L297.65,198.46L297.98,199.42L298.31,198.68L298.65,192.45L299.64,191.93L299.97,192.43L300.3,192.96L300.63,191.89L300.97,193.58L301.3,190.41L301.96,189.51L302.29,190.05L302.62,191.49L303.29,191.3L303.62,191.12L303.95,191.06L304.28,188.95L305.61,194.28L305.94,192.72L306.27,193.33L306.6,190.57L307.93,198.57L308.26,197.43L308.59,195.99L309.58,200.76L309.92,199.25L310.25,195.49L310.58,199.02L310.91,198.11L311.57,200.34L311.9,204.59L312.24,204.52L312.57,201.4L314.22,204.41L314.56,205.53L314.89,201.52L315.22,202.16L315.55,202.89L315.88,201.98L316.21,205.49L316.88,203.58L317.21,202.47L317.54,201.51L317.87,204.22L318.2,205.64L318.53,204.21L318.87,203.01L319.86,210.76L320.19,207.68L320.52,207.81L320.85,210.44L321.19,207.41L321.85,207.49L322.18,205.8L322.51,204.77L322.84,205.51L323.17,206.48L323.84,208.06L324.17,204.25L324.5,206.41L324.83,204.36L325.16,204.56L325.83,207.09L326.16,206.96L326.49,207.53L326.82,206.56L327.15,206.71L327.48,210.27L328.48,210.81L328.81,211.13L329.14,211.68L329.47,210.73L330.13,206.81L330.47,209.11L330.8,211.68L331.13,211.17L331.46,207.54L332.12,213.67L332.46,210.4L332.79,210.56L333.12,212.06L333.78,207.67L334.11,208.49L334.44,211.09L334.78,213.82L335.11,213.48L335.44,208.59L336.76,214.04L337.1,213.24L337.43,213.15L338.42,211L338.75,212.54L339.08,212.32L339.42,210.08L339.75,212.51L340.08,212.28L340.41,211.19L341.74,208.68L342.07,209.92L342.4,206.84L342.73,208.86L343.06,210.15L343.39,208.99L343.72,204.41L344.39,205.91L344.72,208.17L345.05,206.85L345.38,206.99L345.71,209.14L346.04,207.41L346.71,207.76L347.04,212.47L347.7,215L348.03,213.77L348.37,214.27L348.7,214.89L349.03,214.58L349.36,213.56L350.69,220.52L351.02,220.89L351.35,215.98L352.01,216.74L352.34,218.41L353.34,222.24L353.67,222.63L354.33,219.05L354.66,219.84L354.99,220.57L356.32,223.09L356.65,222.43L356.98,222.16L357.31,223.85L358.31,224.18L358.64,222.66L358.97,222.64L359.3,224.97L360.63,230.36L360.96,222.26L361.62,217.17L361.96,219.78L362.29,219.1L362.62,214L363.28,221.79L363.61,221.72L363.94,219.86L364.28,222.45L364.61,222.31L364.94,220.98L365.93,220.46L366.26,221.61L366.6,224.51L366.93,223.42L367.26,222.54L367.59,221.55L367.92,222.23L368.25,217.29L368.58,217.48L368.92,219.59L369.58,222.12L369.91,220.99L370.24,220.13L370.57,216.18L371.24,219.5L371.57,223.08L372.23,227.09L372.56,224.54L372.89,221.98L373.22,223.97L373.56,224.57L374.88,220.83L375.21,217.2L375.54,217.26L375.88,218.9L377.2,217.95L377.53,223.19L377.87,223.98L378.2,223.35L378.53,223.18L379.19,223.5L379.52,221.91L379.85,208.61L380.52,209.7L380.85,209.57L381.84,213.48L382.17,213.06L382.51,212.88L383.5,214.66L383.83,215.76L385.16,217.82L385.49,215.24L385.82,214.72L386.15,215.23L386.48,215.61L387.15,218.02L387.48,219.1L387.81,217.98L388.47,218.18L388.8,220.05L389.13,216.09L389.47,217.87L389.8,219.34L390.46,216.53L390.79,217.55L391.12,217.41L391.46,211.61L391.79,214.82L392.12,214L392.78,215.27L393.11,218.97L394.11,217.6L394.44,217.29L394.77,215.08L395.1,216.61L395.43,218.52L396.1,216.34L396.43,218.76L397.09,218.23L397.42,219.21L398.08,215.88L398.42,216.35L398.75,221.02L399.08,221.41L399.41,216.84L401.4,219.22L401.73,219.08L402.06,222.34L402.39,213.42L403.06,214.38L403.39,216.63L404.38,217.84L404.71,213.31L405.71,215.99L406.04,215.39L407.03,212.25L407.37,216.04L407.7,215.11L408.03,216.08L408.36,216.67L409.02,208.13L409.35,210.99L409.69,211.82L410.02,201.9L410.35,208.43L410.68,209.49L411.01,207.63L411.34,210.5L411.67,210.79L412.01,210.02L412.34,201.15L412.67,206.15L413,207.42L413.33,201.95L413.66,205.48L413.99,210.09L415.65,217.77L415.98,216.21L416.31,216.69L416.65,219.5L416.98,220.06L417.31,218.91L417.64,217.78L417.97,219.49L418.3,216.13L418.63,216.65L418.97,217.01L419.3,216.28L419.63,217.72L420.62,214.83L420.96,215.05L421.29,214.93L421.62,207.08L421.95,209.01L422.28,210.02L422.61,207.23L422.94,208.02L423.28,208.13L424.6,208.91L424.93,206.9L425.26,205.23L425.6,206.43L425.93,208.16L426.92,213.94L427.25,211.9L427.92,210.73L428.25,214.44L428.58,216.68L429.24,216.27L429.57,216.78L429.9,217.6L430.24,216.8L430.57,210.31L431.56,227.25L431.89,226.06L432.56,225.88L432.89,222.07L433.88,228.45L434.21,226.36L435.21,227.25L435.54,224.08L436.2,226.49L436.53,226.25L436.87,225.15L437.86,222.3L438.19,223.31L438.52,225.41L438.85,222.57L439.52,225.19L439.85,222.88L440.18,217.4L440.51,219.37L440.84,221.23L441.17,217.01L441.51,221.36L441.84,221.92L442.17,221.65L442.5,212.45L443.16,219.67L443.49,218.12L443.83,218.37L444.82,217.08L445.15,217.82L445.81,217.78L446.15,218.93L446.48,218.52L446.81,219.61L447.14,217.34L447.47,219.73L447.8,220.29L448.13,219.13L448.47,219.71L448.8,221.14L449.13,222.02L449.46,220.25L449.79,220.26L450.12,221.89L450.79,219.53L451.12,220.5L451.45,221.23L452.44,227.38L452.78,225.84L453.11,225.87L454.1,216.75L454.76,217.02L455.1,221.07L455.43,219.91L455.76,221.27L456.09,222.9L456.75,224.95L457.08,224.45L457.42,218.1L457.75,217.37L458.08,220.75L459.4,223.6L459.74,217.61L460.73,222.06L461.06,219.93L461.39,220.48L461.72,222.88L462.39,211.53L462.72,212.56L463.05,216.66L463.38,215.42L463.71,216.35L464.04,217.95L465.04,217.44L465.37,216.8L466.03,216.26L466.37,219.48L467.36,215.14L467.69,216.29L468.02,216.75L468.35,219.68L468.69,221.54L469.02,217.73L469.35,216.65L469.68,218.4L470.01,219.19L470.34,218.17L470.67,221.53L471.01,222.79L471.34,219.02L471.67,216.68L472,218.54" style="vector-effect: non-scaling-stroke; fill: none; stroke: rgb(0, 204, 150); stroke-opacity: 1; stroke-width: 2px; opacity: 1;"/></g><g class="points"/><g class="text"/></g><g class="trace scatter traced4611e" style="stroke-miterlimit: 2; opacity: 1;"><g class="fills"/><g class="errorbars"/><g class="lines"><path class="js-line" d="M0,84.72L0.99,109.01L1.33,106.42L1.66,105.78L1.99,102.52L2.65,111.27L2.98,108.39L3.31,109.92L4.31,98.34L4.64,100.24L4.97,104.75L5.3,103.52L5.63,105.23L6.63,97.69L6.96,100.88L7.29,103.84L7.62,100.56L7.96,100.35L8.29,101.66L8.62,97.47L8.95,93.95L9.28,94.28L9.61,102.07L10.28,102.06L10.61,98.76L11.27,94.52L11.6,95.26L11.93,101.34L12.6,101.79L12.93,100.31L13.59,92.52L13.92,95.39L14.25,106.92L14.58,109.86L14.92,106.42L15.25,99.62L15.58,103.07L15.91,97.87L16.9,110.27L17.24,108.74L17.57,105.22L18.23,97.47L18.56,98.54L18.89,106.36L19.22,106.81L19.56,105.69L19.89,102.19L20.22,106.4L20.55,105.78L21.21,116.5L21.54,113.26L21.88,112.1L22.21,112.22L22.54,105.02L22.87,101.42L23.2,105.38L23.53,110.84L23.87,111.09L24.2,107.53L24.53,106.72L24.86,100.88L25.19,100.39L25.52,114.69L26.19,123.26L26.52,120.41L27.51,105.95L27.84,111.08L28.51,115.07L28.84,113.32L29.5,109.76L29.83,103.41L30.16,103.01L30.49,110.53L30.83,110.17L31.16,111.16L32.15,99.74L32.48,104.17L33.15,107.56L33.48,105.15L33.81,100.9L34.14,106.2L34.47,105.19L35.8,110.94L36.13,108.3L36.79,101.05L37.12,105.53L37.46,109.74L38.45,106.81L38.78,99.48L39.11,99.22L39.44,100.74L40.44,109.63L40.77,107.35L41.43,101.26L41.76,104.22L42.1,109.48L42.76,107L43.09,107.66L43.42,108.27L43.75,104.2L44.08,109.91L44.42,111.7L44.75,110.38L45.08,110.59L45.41,106.35L46.07,106.59L46.4,111.48L47.07,119.04L47.4,117.06L47.73,113.49L48.06,114.46L48.39,111.36L49.06,116.28L50.05,115.1L51.04,109.76L51.38,117.87L51.71,117.88L52.04,116.88L53.03,105.43L53.37,107.75L53.7,114.25L55.35,104.06L55.69,109.38L56.02,113.58L56.35,112.07L56.68,111.55L57.01,109.51L57.34,100.14L58.34,108.26L59,108.04L59.33,107.43L59.99,99.62L60.33,104.39L60.66,105.95L60.99,103.69L61.98,106.35L62.31,104.5L63.31,113.39L63.64,108.05L64.63,100.68L64.97,101.64L65.3,108.17L65.63,109.69L65.96,106.75L66.62,90.28L66.96,94.82L67.29,101.2L67.62,101.16L67.95,104.83L68.28,103.75L68.61,104.16L68.94,98L69.28,96.29L69.61,96.87L69.94,103.51L70.6,99.59L70.93,100.55L71.26,102.37L71.6,100.13L71.93,102.35L72.26,107.58L72.59,105.5L72.92,106.13L73.25,107.04L73.92,100.55L74.25,101.46L74.58,103.96L76.24,95.1L76.57,97.4L77.23,103.12L77.56,98.81L77.89,99.2L78.22,103.44L78.56,102.19L78.89,104.3L79.88,107.8L80.21,106.91L80.88,101.41L81.21,103.95L81.54,106.88L82.2,106.57L82.53,108.7L82.87,104.35L83.2,102.43L83.53,106.59L83.86,111.55L84.19,108.97L84.52,107.84L85.52,105.45L85.85,106.31L86.18,107.32L86.51,107.42L86.84,109.15L87.17,109.51L87.51,105.36L87.84,102.73L88.17,108.13L88.5,113.04L88.83,112.06L89.16,111.62L89.83,107.41L90.16,103.14L90.82,117.53L91.15,113.03L91.48,112.94L91.81,113.49L92.15,112.65L92.48,108.76L92.81,111.32L93.14,119.99L93.8,117.63L94.13,118.66L94.8,111.09L95.13,112.98L95.46,121.52L95.79,121.94L96.12,117.49L97.12,111.71L97.45,115.27L97.78,120.59L98.44,119.56L98.78,118.16L99.44,111.28L99.77,112.49L100.1,119.48L100.43,123.58L101.1,123.27L101.43,126.42L101.76,125.79L102.09,128.17L102.75,131.92L103.08,128.56L103.42,130.15L103.75,121.34L104.08,118.36L104.41,119.57L104.74,126.61L105.07,127.05L105.4,124.77L106.07,118.1L106.4,118.5L106.73,121.72L107.06,127.07L107.39,123.85L107.72,124.23L108.06,124.09L108.39,122.58L108.72,123.38L109.05,128.09L109.38,130.79L109.71,128.94L110.04,127.79L110.38,125.42L110.71,129.43L111.04,128.07L111.37,132.88L112.03,131.53L112.37,132.77L113.03,129.03L113.36,131.38L114.02,139.08L114.35,136.25L114.69,133.77L115.02,133.54L115.35,123.55L116.01,131.72L116.34,131.56L116.67,130.19L117.34,134.74L117.67,131.75L118.66,155.66L118.99,134.83L119.66,112.32L119.99,113.89L120.32,112.55L120.98,93.62L121.31,117.57L121.65,119.68L121.98,118.86L122.31,117.71L122.64,114.3L122.97,117.23L123.3,123.94L124.3,120.46L124.63,123.91L124.96,119.45L125.29,121.61L125.62,126.15L126.62,120.53L126.95,117.12L127.61,115.62L127.94,121.04L128.28,119.67L128.61,121.13L128.94,120.49L129.27,121.19L129.6,117.34L129.93,117.4L130.26,122.39L130.6,124.71L130.93,122.68L131.26,121.84L131.92,114.21L132.25,117.5L132.58,122.05L132.92,122.49L133.25,119.9L133.91,117.6L134.24,114.41L134.9,121.76L135.24,121.3L135.57,128.97L136.56,114.05L136.89,115.78L137.22,121.09L137.89,120.29L138.22,117.17L138.88,105.59L139.21,109.71L139.54,114.59L139.88,112.67L140.21,113.23L140.54,113.48L141.2,107.44L141.53,110.17L141.87,115.08L142.53,114.17L142.86,113.01L143.52,105.44L143.85,106.91L144.19,112.96L145.51,104.89L145.84,101.86L146.84,112.54L147.17,112.12L147.5,110.31L148.16,100.73L148.49,105.79L148.83,105.55L149.16,106.19L149.49,104.14L150.15,104.35L150.48,102.5L150.81,107.46L152.14,110.98L152.47,106.24L152.8,103.03L153.13,106.7L153.47,110.44L153.8,110.26L154.13,112.07L155.12,103.34L155.46,107.65L156.45,112.62L156.78,111.03L157.44,93.05L157.78,98.37L158.11,102.89L158.44,103.16L158.77,102.22L159.1,101.94L159.43,99.98L159.76,96.72L160.1,97.58L160.43,102.08L160.76,101.79L161.09,106.73L161.42,106.38L161.75,107.43L162.08,100.09L162.42,103.37L162.75,112.1L163.08,111.64L163.41,111.88L163.74,114.14L164.4,99.73L164.74,104.9L165.73,110.46L166.06,108.02L166.72,99.27L167.06,103.78L168.05,110.41L168.38,108.78L168.71,111.18L169.04,107.35L169.71,111.96L170.04,111.01L170.37,110.5L171.37,104.87L171.7,111.1L172.36,116.28L172.69,113.64L173.02,112.29L173.35,105.64L173.69,101.47L174.02,107.39L174.35,113.75L175.01,112.15L175.34,111.54L176.01,100.13L176.34,106.39L176.67,116.91L177,136.52L177.33,131.06L177.66,126.24L178.33,114.07L178.66,114.59L178.99,120.75L179.65,117.98L179.98,118.26L180.31,131.09L180.98,125.72L181.31,128.47L181.64,128.3L181.97,124.39L183.3,119.47L183.63,126.34L183.96,128.09L184.29,127.49L184.62,126.71L185.29,118.99L185.62,120.46L185.95,126.14L187.61,112.81L187.94,114.02L188.93,122.74L189.26,122.2L189.93,115.74L190.26,119.91L191.25,125.52L191.58,124L191.92,125.06L192.25,120.72L192.58,119.64L192.91,125.74L193.24,125.69L193.57,122.3L193.9,121.38L194.24,117.48L194.57,113.54L194.9,116.28L195.23,120.44L195.56,122.58L195.89,119.14L196.22,117.51L196.56,127.15L196.89,119.24L197.22,121.11L197.55,125.28L197.88,122.53L198.21,127.4L198.88,106.89L199.21,107.69L199.54,113.75L200.53,118.8L200.87,117.66L201.53,110.08L201.86,110.52L202.19,116.55L202.52,116.07L202.85,116.95L203.19,116.41L203.52,113.86L204.51,122.47L204.84,120.39L205.17,119.7L205.51,119.43L205.84,122.62L206.17,119.46L206.5,125.57L206.83,124.92L207.16,121.69L208.49,112.04L208.82,115.09L209.81,120.03L210.15,118.9L210.81,108.17L211.14,111.15L211.47,116.44L211.8,115.9L212.13,117.81L212.8,118.62L213.13,117.56L213.46,117.35L213.79,124.33L214.79,124.31L215.12,119.36L215.45,118.18L215.78,122.91L216.78,130.05L217.11,131.28L217.77,127.11L218.1,129.77L218.43,136.53L218.76,136.23L219.1,133.15L219.43,132.7L219.76,126.27L220.09,122.86L220.42,126.72L220.75,133.91L221.42,126.41L221.75,126.8L222.08,130.12L222.41,125.21L222.74,126.32L223.07,132.21L223.74,137.25L224.07,135.45L224.4,131.53L224.73,124.33L225.06,127.46L225.39,135.02L225.72,137.06L226.06,134.43L226.39,136.31L226.72,129.9L227.05,125.27L227.38,129.34L227.71,137.7L228.04,137.79L228.38,140.89L228.71,141.16L229.04,140.48L229.37,139.68L229.7,140.56L230.03,146.94L231.36,135.38L231.69,136.36L232.02,139.52L232.35,140.87L232.69,140.68L233.02,139.83L233.35,136.02L233.68,137.24L234.01,138.09L234.34,141.83L234.67,141.38L235.01,140.82L236,130.61L236.33,130.72L236.66,135.42L236.99,139.44L237.33,138.78L237.66,135.65L237.99,136.01L238.32,134.17L238.98,140.75L239.31,162.48L239.65,168.69L239.98,140.72L240.97,125.17L241.3,123.71L241.63,120.95L241.97,103.92L242.96,130.63L243.29,126.18L243.62,127.01L243.96,133.06L244.29,132.5L244.62,133.21L244.95,133.79L245.28,133.12L245.61,127.19L246.28,136.21L246.61,133.96L246.94,133.05L247.27,134.21L247.6,133.68L247.93,129.43L249.26,141.23L249.59,138.87L250.25,131.18L250.58,134.61L251.58,139.95L251.91,140.71L252.57,131.73L252.9,132.73L253.24,137.59L253.57,136.76L253.9,139.63L254.23,138.3L254.56,142.18L254.89,136.33L255.22,139.96L255.56,148.54L255.89,147.63L256.22,148.55L256.55,151.81L257.21,133.45L257.54,136.19L257.88,142.32L259.2,140.86L259.53,136.29L259.87,135.9L260.2,142.05L261.52,135.26L261.85,129.24L262.19,131.53L262.52,139.17L262.85,139.5L263.18,141.99L264.17,132.69L264.51,135.92L264.84,143.38L265.5,142.37L265.83,140.6L266.49,132.18L266.83,132.97L267.16,141.95L268.15,139.43L268.48,140.79L268.81,133.15L269.15,137.59L269.48,143.67L269.81,144.05L270.14,141.54L270.47,141.51L270.8,152.64L271.13,152.02L271.47,153.01L271.8,158.97L272.13,156.1L272.46,155.82L273.12,149.67L273.46,144.85L274.12,154.83L274.45,153.49L274.78,153.34L275.11,150.75L275.44,140.58L275.78,135.89L276.11,139.11L276.44,143.76L276.77,144.67L277.1,140.22L278.1,135.35L278.43,138.79L279.42,148.71L279.75,146.16L280.42,135.48L280.75,140.11L281.08,141.48L281.74,141.14L282.07,142.59L282.74,134.18L283.07,135.82L283.4,141.19L284.39,140.63L284.72,133.11L285.06,129.69L285.39,134.47L286.05,142.05L286.38,140.86L286.71,139.69L287.38,127.09L287.71,131.63L288.04,138.51L289.37,141.49L289.7,136.27L290.69,147.79L291.02,146.87L291.35,145.17L292.02,131.91L292.35,132.2L292.68,140.74L293.01,141.53L293.34,138.44L293.67,139.35L294.01,132.33L294.34,129.94L294.67,133.61L295,140.55L295.66,139.64L295.99,139.04L296.66,130.06L296.99,132.58L297.32,137.87L297.65,138.08L297.98,136.53L298.98,126.71L299.31,130.31L299.64,135.5L299.97,135.22L300.3,133.88L300.63,131.6L300.97,123.23L301.3,121.41L301.63,124.75L301.96,128.75L302.29,128.04L302.62,126.81L303.29,118.53L303.62,119.23L303.95,124.66L304.28,130.84L304.94,130.06L305.28,131.51L305.61,129.92L305.94,122.85L306.6,132.49L306.93,130.53L307.26,129.65L307.6,129.55L307.93,127.14L308.26,120.61L308.59,126.58L308.92,133.32L309.92,129.93L310.25,122.27L310.58,119.91L310.91,125.02L311.24,130.96L311.9,129.97L312.24,127.93L312.9,121.38L313.23,122.36L313.56,129.66L313.89,132L314.22,128.46L314.56,127.82L314.89,123.61L315.22,120.2L315.55,125.78L315.88,130.69L316.54,129.9L316.88,127.86L317.21,127.96L317.54,123.04L318.87,134.85L319.2,145.29L319.53,143.76L319.86,134.61L320.19,134.38L320.52,170.88L320.85,172.71L321.19,164.53L321.52,134.73L321.85,136L322.18,145.39L322.84,158.68L323.17,149.67L324.5,122.39L324.83,126.63L325.16,135.86L325.49,134.29L325.83,132.33L326.16,132.13L326.49,124.95L326.82,124.05L327.15,128.65L327.48,136.62L327.81,133.1L328.15,132.06L328.48,131.62L328.81,127.13L329.14,124L329.47,127.58L329.8,133.16L330.47,133.64L330.8,131.24L331.13,122.76L331.46,123.75L331.79,139.53L333.78,126.03L334.11,129.09L335.11,136.5L335.44,134.99L336.1,123.51L336.43,128.49L336.76,135.23L337.1,133.24L337.43,131.18L337.76,134.12L338.09,127.45L338.42,119.54L338.75,125.03L339.08,131.92L339.42,131.91L339.75,130.65L340.08,130.12L340.41,131.16L340.74,123.51L341.07,125.53L341.4,134.97L341.74,134.63L342.07,132.33L343.06,122.53L343.39,125.75L344.72,133.86L345.05,125.72L345.38,120.55L345.71,124.64L346.04,133.81L347.04,137.72L347.37,135.34L347.7,129.43L348.03,133.14L348.37,140.46L350.02,129.1L350.35,134.1L350.69,139.94L351.35,139.47L351.68,139.49L352.34,135.13L352.67,141.01L353.01,143.08L353.34,141.52L353.67,139.07L354,139.9L354.33,138.07L354.66,137.39L354.99,138.91L355.33,143.88L355.99,142.75L356.32,140.45L356.98,136.63L357.31,138.12L357.65,143.15L357.98,141.05L358.64,141.27L358.97,140.91L359.63,143.31L359.97,150.18L360.63,165.8L360.96,142.99L361.62,133.37L361.96,134.5L362.29,136.43L362.95,116.22L363.28,139.29L363.61,138.66L363.94,136.32L364.94,142.66L365.27,140.14L365.6,141.18L365.93,144.89L366.6,140.98L366.93,146.54L367.26,146.68L367.59,144.72L368.25,143.48L368.58,139.93L368.92,141.8L369.25,148L370.57,142.62L370.9,137.55L371.57,154.46L371.9,153.11L372.23,150.41L372.56,149.73L372.89,142.5L373.22,139.29L373.56,144.12L374.88,148.59L375.21,143.29L375.54,140.68L375.88,144.61L376.21,149.43L376.54,147.23L376.87,147.12L377.53,151.35L377.87,148.61L378.86,155.24L379.19,153.99L379.52,152.84L380.19,133.52L380.52,139.29L380.85,145.43L381.18,144.83L381.51,146.84L381.84,146.26L382.17,143.29L382.51,130.45L382.84,135.16L383.17,136.4L383.83,136.76L384.16,135.43L384.83,130.92L385.16,134.66L386.15,136.93L386.48,136.97L387.15,131.98L387.48,137.18L387.81,142.62L388.47,142.33L388.8,141.33L389.47,138.18L389.8,141.38L390.13,141.69L390.46,138.37L390.79,139.42L391.12,137.47L391.79,131.22L392.12,134.03L393.11,138.21L393.44,137.32L393.78,137.95L394.11,137.39L394.44,139.6L394.77,140.66L395.1,139.07L395.76,140.31L396.1,139.63L396.43,137.53L396.76,139.34L397.09,143.12L398.08,137.44L398.42,141.34L398.75,138.29L399.41,138.83L399.74,139.48L400.74,140.07L401.07,139.16L401.73,144.88L402.06,142.27L402.39,141.84L403.06,143.9L403.39,141.56L404.05,144.02L404.38,143.66L404.71,142.18L405.04,142.62L405.38,141.9L405.71,140.66L406.04,141.26L406.37,140.03L407.37,137.77L407.7,138.66L408.03,136.32L408.36,139.07L408.69,139.78L410.02,128.56L410.35,129.73L411.67,134.84L412.01,134.31L412.34,118.35L412.67,121.84L413,127.85L413.33,126.11L413.66,129.59L413.99,126.97L414.66,127.58L414.99,128.4L415.98,132.77L416.31,132.07L416.65,132.29L417.31,127.16L417.64,131.35L417.97,132.68L418.3,130.16L418.97,132.65L419.3,129.25L419.63,129.42L419.96,133.68L420.29,134.1L420.62,133.26L421.95,127.36L422.28,130.26L422.94,131.52L423.28,129.24L423.61,129.06L423.94,126.83L424.27,123.65L424.6,128.98L425.6,133.21L425.93,130.45L426.26,132.09L426.59,127.56L427.25,134.19L427.58,134.07L427.92,133.51L428.91,129.16L429.24,134.06L429.57,132.9L429.9,133.57L430.24,134.85L430.57,128.91L430.9,140.31L431.23,134.52L431.56,138.59L431.89,139.46L432.89,134.25L433.22,134.41L433.55,134.03L434.21,139.86L434.88,139.64L435.21,139.24L435.87,133.86L436.2,137.94L436.53,140.63L436.87,139.66L437.2,137.87L437.53,139.14L437.86,137.76L438.19,135.32L438.85,141.77L439.19,139.88L439.52,139L439.85,138.67L440.18,133.38L440.51,133.2L440.84,137.76L441.84,136.26L442.17,136.43L442.5,131.94L442.83,132.19L443.16,133.37L444.16,135.64L444.49,134.39L444.82,118.21L445.15,124.53L445.48,131.05L446.15,135.06L446.48,133.63L446.81,133.99L447.47,131.9L447.8,135.53L448.8,143.66L449.13,138.43L449.79,133.04L450.12,137.26L450.46,135.02L450.79,135.97L451.12,137.09L451.45,137.77L451.78,132.45L452.11,130.79L452.44,135.67L453.11,137.83L453.44,135.89L453.77,136.34L454.1,135.52L454.43,134.66L454.76,136.04L455.1,137.64L455.43,134.38L455.76,132.53L456.09,134.86L456.42,134L456.75,131.4L457.08,134.65L457.42,137.46L457.75,138.92L458.08,137.91L458.41,136.2L459.07,132.23L459.4,136.79L460.4,143.12L460.73,138.15L461.39,131.75L461.72,136.17L462.06,140.8L462.39,139.1L462.72,138.93L463.71,130.38L464.04,131.86L464.38,143.89L464.71,143.42L465.04,141.06L465.7,136.38L466.03,133.3L467.69,143.18L468.02,139.88L468.35,140.19L468.69,144.32L469.02,148.35L469.68,147.56L470.01,145.45L470.67,139.96L471.01,144.6L471.67,144.09L472,145.08" style="vector-effect: non-scaling-stroke; fill: none; stroke: rgb(171, 99, 250); stroke-opacity: 1; stroke-width: 2px; opacity: 1;"/></g><g class="points"/><g class="text"/></g><g class="trace scatter trace336af7" style="stroke-miterlimit: 2; opacity: 1;"><g class="fills"/><g class="errorbars"/><g class="lines"><path class="js-line" d="M0,16L0.99,45.3L1.33,43.74L2.32,34.07L2.65,42.6L3.31,44.03L3.65,43.58L3.98,38.21L4.31,33.39L4.64,33.77L4.97,41.34L5.63,41.41L5.97,39.97L6.3,40.32L6.63,32.84L7.96,42.57L8.29,42.15L8.95,35.02L9.28,37.68L9.61,46.16L9.94,47.33L10.28,46.35L10.61,43.35L11.27,36.75L11.6,38.18L11.93,48.4L12.93,46.31L13.26,40.57L13.59,33.99L13.92,36.04L14.25,50.94L14.58,53.63L14.92,48.22L15.25,48.65L15.58,46.91L15.91,38.3L16.24,40.23L16.57,52.26L16.9,52.59L17.24,59.15L18.23,36.9L18.56,40.13L18.89,47.86L19.22,48.04L19.56,52.17L19.89,51.49L20.22,59.14L20.55,53.49L20.88,53.75L21.21,65.77L21.88,63.21L22.21,65.67L22.87,45.71L23.2,49.18L23.53,60.61L23.87,61.92L24.2,59L24.53,58.57L24.86,50.79L25.19,44.06L25.52,47.78L25.85,58.77L26.52,56.01L26.85,54.1L27.51,44.09L27.84,47.68L28.17,57.45L28.51,57.59L28.84,56.53L29.83,43.33L30.16,44.66L30.49,60.89L31.82,50.03L32.15,46.49L32.48,48.83L32.81,60.81L33.15,62.34L33.48,57.47L34.47,47.86L34.8,50.95L35.47,64.13L35.8,63.15L36.13,60.07L36.79,48.03L37.12,48.53L37.46,61.51L37.79,62.96L38.12,62.88L38.45,59.63L39.11,50.93L39.44,51.98L39.78,56.16L40.11,65.28L40.44,60.99L40.77,59L41.1,57.18L41.43,51L41.76,53.62L42.1,64.98L42.43,64.56L42.76,60.8L43.09,60.38L43.42,62.67L44.08,54.41L44.42,66.07L44.75,67.62L45.08,64.91L45.41,66.28L45.74,62.31L46.07,59.56L46.4,60.92L46.74,76.49L47.73,69.69L48.06,63.25L48.39,58.89L48.72,60.71L49.06,72.47L51.04,54.67L51.38,67.24L52.37,64.28L52.7,59.62L53.03,53.89L53.37,55.12L53.7,66.43L54.03,66.7L54.36,62.6L55.35,51.83L55.69,52.94L56.02,60.16L56.35,62.13L56.68,61.43L57.01,60.09L57.67,50.43L58.01,53.08L58.34,59.45L58.67,61.75L59,60.18L59.33,57.39L59.99,49.37L60.33,50.11L60.66,59.06L60.99,60.81L61.32,58.86L61.65,57.8L62.31,46.93L62.65,48.02L62.98,58.1L63.64,57.9L63.97,55.36L64.63,48.56L64.97,49.04L65.3,58.68L65.63,58.92L65.96,57.77L66.62,43.98L66.96,47.39L67.29,48.49L67.62,59.73L68.28,58.13L68.61,57.04L69.28,46.45L69.61,48.84L69.94,57.75L70.27,58.62L70.6,57.27L71.26,53.36L71.6,50.25L71.93,50.35L72.26,58.69L72.59,59.75L72.92,57.53L73.25,59.06L73.58,55.72L74.25,49.1L74.58,56.51L75.24,57.76L75.57,55.73L76.57,47.74L76.9,54.52L77.56,56.33L77.89,53.95L78.56,45.05L78.89,45.56L79.22,55.05L79.55,56.26L79.88,55.45L80.21,54.03L80.88,45.35L81.21,47.22L81.54,56.91L81.87,57.67L82.2,56.54L83.2,50.05L83.53,51.02L83.86,62.06L84.85,58.72L85.19,57.83L85.85,51.36L86.18,59.86L86.51,59.47L86.84,57.44L87.51,54.94L87.84,48.34L88.17,49.21L88.5,58.49L88.83,58.34L89.16,59.43L90.16,52.9L90.49,53.75L90.82,64.65L91.15,65.43L91.48,62.88L91.81,61.76L92.15,56.59L92.81,54.77L93.14,64.21L93.47,65.95L93.8,64.02L94.13,64.97L94.8,54.77L95.13,54.92L95.46,63.67L95.79,68.54L96.12,66.52L96.46,63.46L97.12,58.34L97.45,59.33L97.78,66.88L98.11,67.7L98.44,65.06L98.78,66.68L99.11,61.77L99.44,57.11L99.77,59.64L100.1,65.7L100.43,66.42L100.76,64.52L101.1,64.88L101.43,61.6L101.76,60.04L102.09,63.85L102.75,72.7L103.08,71.93L103.42,68.55L104.08,56.67L104.41,59.28L104.74,64.35L105.74,68.95L106.07,62.59L106.4,57.33L106.73,62.49L107.06,70.01L107.72,71.44L108.06,68.19L108.72,60.3L109.05,65.94L109.71,72.98L110.04,71.79L110.38,71.56L111.04,64.53L111.37,67L111.7,74.14L113.36,61.98L113.69,63.73L114.35,71.87L114.69,69.95L115.02,68.78L115.68,61.6L116.01,64.53L116.34,74.05L117.34,70.01L117.67,65.14L118,59.52L118.33,65.14L118.66,72.75L120.65,53.45L120.98,37.92L121.98,66.99L122.31,63.72L122.97,58.56L123.3,68.45L123.63,66.97L123.97,68.49L124.3,69.57L124.63,76.09L124.96,68.45L125.29,70.92L125.62,79.46L125.96,78.62L126.29,75.84L126.95,71.79L127.28,65.4L127.61,65.71L127.94,76.63L128.28,77.74L128.61,77.1L128.94,73.1L129.27,72.71L129.6,65.27L129.93,65.7L130.26,76.38L130.93,78.09L131.26,75.86L132.25,65.42L132.58,76.51L133.58,73.67L133.91,70.51L134.57,61.18L134.9,70.03L135.24,70.56L135.57,77.57L135.9,76.85L136.23,72.07L136.56,67.22L136.89,67.98L137.22,79.7L137.56,79.83L137.89,78.03L138.88,65.53L139.21,66.52L139.54,74.95L139.88,75.63L140.21,73.95L140.54,73.04L140.87,69.79L141.2,64.18L141.53,64.36L141.87,77.83L142.53,72.55L142.86,67.69L143.52,60.53L143.85,61.78L144.19,68.63L144.52,68.66L144.85,67.67L145.18,66.81L145.51,62.91L146.17,56.83L146.51,67.46L146.84,69.31L147.17,68.22L147.5,65.29L148.16,55.42L148.49,55.75L148.83,65.56L149.16,65.9L149.49,63.04L150.48,57.05L150.81,57.91L151.81,69.19L152.14,68.18L152.8,57.86L153.13,59.26L153.47,68.84L154.46,64.91L154.79,63.48L155.46,60.24L155.79,69.81L156.78,66.34L157.11,57.64L157.78,55.57L158.11,64.97L158.44,64.75L158.77,63.35L159.1,62.68L159.43,57.43L160.1,58.15L160.43,63.77L160.76,61.42L161.09,68.8L162.42,64.09L162.75,75.43L163.08,73.35L163.41,74.03L163.74,74.43L164.4,62.28L164.74,62.39L165.07,71.73L165.4,71.51L165.73,72.51L166.06,71.62L166.39,63.56L166.72,60.74L167.06,62.8L167.39,70L168.05,70.87L168.38,70.15L168.71,75.75L169.04,68.47L169.38,70.04L169.71,75.41L171.37,66.64L171.7,67.33L172.03,75.57L172.36,74.7L172.69,73.26L173.02,74.5L173.35,67.91L173.69,62.44L174.02,66.3L174.35,73.93L174.68,75.53L175.01,74.68L175.34,71L176.34,62.96L176.67,76.54L177,87.48L177.33,84.47L177.66,83.01L178.33,71.23L178.66,73.86L178.99,85.11L179.98,77.9L180.31,81.95L180.65,74.78L180.98,77.55L181.31,86.53L181.64,87.38L181.97,86.47L182.3,84.47L182.97,74.9L183.3,76.66L183.63,87.04L184.29,86.09L184.62,86.65L184.96,81.24L185.29,76.84L185.62,77.74L185.95,85.67L186.94,80.9L187.28,75.99L187.61,72.24L187.94,75.77L188.27,82.82L188.6,82.02L188.93,83.28L189.93,75.82L190.26,76.11L190.59,84.56L191.92,77.05L192.25,72.16L192.91,83.54L193.24,81.21L193.57,82.26L194.24,77.47L194.57,72.47L194.9,72.92L195.23,78.69L195.56,80.29L195.89,76.94L196.56,85.55L196.89,76.91L197.22,76.4L197.55,82.06L197.88,82.53L198.21,81.38L199.21,66.21L199.54,69.61L199.87,78.12L200.2,77.62L200.53,75.48L200.87,75.21L201.2,72.06L201.53,68.09L201.86,69.55L202.19,77.77L203.85,64.43L204.18,67.47L204.51,74.68L205.17,73.09L205.51,74.45L206.17,66.93L206.5,71.89L206.83,80.29L207.16,78.24L207.49,74.08L207.83,75.38L208.16,70.25L208.49,66.42L208.82,67.48L209.15,79.38L209.48,79.12L209.81,79.6L210.15,76.58L210.81,66.26L211.14,69.41L211.47,77.56L211.8,78.51L212.13,78.33L212.47,77.07L213.13,68.93L213.46,69.66L213.79,78.58L214.46,80.98L214.79,78.05L215.45,69.06L215.78,69.98L216.11,80.61L216.78,83.36L217.11,81.17L217.77,70.23L218.1,73.8L218.43,85.61L219.1,86.64L219.43,83.95L220.09,70.27L220.42,71.34L220.75,85.52L221.08,86.43L221.42,84.09L222.41,67.39L222.74,71.4L223.07,84.72L223.4,85.24L223.74,83.73L224.73,71.32L225.06,73.18L225.39,84.73L226.72,75.06L227.05,69.52L227.38,72.91L227.71,86.15L228.71,83.76L229.04,78.6L229.7,72.76L230.03,88.04L231.03,83.17L231.36,73.32L231.69,66.12L232.02,66.48L232.35,77.87L232.69,77.45L233.02,75.72L233.35,74.86L233.68,68.73L234.01,63.35L234.34,64.57L234.67,74.46L235.34,70.08L235.67,70.24L236,64.85L236.66,57.79L236.99,71.08L237.99,65.19L238.32,61.16L238.98,55.93L239.31,73.6L239.65,78.7L239.98,73L240.31,71.33L241.3,64.33L241.63,64.68L241.97,45.91L242.63,77.1L242.96,73.18L243.29,66.28L243.62,65.5L243.96,78.83L245.28,74.47L245.61,65.65L245.94,65.61L246.28,79.47L246.94,75.35L247.27,76.82L247.6,79.2L248.26,70.41L248.6,84.65L250.58,71.44L250.92,83.33L251.91,83.68L252.24,78.99L252.9,73.4L253.24,85.82L254.23,83.2L254.56,88.16L255.22,83.66L255.56,97.18L255.89,96.41L256.22,92.9L256.55,94.94L256.88,90.39L257.21,85.05L257.54,85.17L257.88,94.3L258.21,94.2L258.54,95.91L259.2,88.56L259.53,81.5L260.2,94.55L260.53,93.31L260.86,91.47L262.19,77.66L262.52,83.88L263.51,92.38L263.84,87.12L264.17,83.45L264.51,85.5L264.84,95.96L265.17,95.55L265.5,96.29L265.83,94.65L266.49,84.85L266.83,87.13L267.16,98.75L267.49,98.38L267.82,98.95L268.15,96.74L268.81,84.4L269.15,87.2L269.48,99.05L269.81,99.79L270.14,97.85L270.47,96.9L270.8,108.39L271.13,100.24L271.47,100.86L271.8,115.39L273.46,94.25L273.79,96.35L274.12,106.22L274.45,106.76L274.78,104.86L275.44,99.38L275.78,90.06L276.11,91.85L276.44,104.23L277.1,100.74L277.43,94L277.76,94.22L278.1,93.07L278.43,95.48L278.76,106.58L279.09,106.66L279.42,105.11L280.42,90.55L280.75,92.22L281.08,100.73L281.74,90.6L282.07,98.86L282.74,87.17L283.07,93.76L283.4,104.43L284.06,101.8L284.39,99.14L285.06,90.32L285.39,94.05L285.72,102.2L287.38,89.85L287.71,95.19L288.37,102.81L288.7,102.61L289.03,101.53L289.37,103.09L289.7,97.38L290.69,111.53L291.02,110.2L291.35,110.17L292.02,97.59L292.35,99.74L292.68,111.42L293.01,113.04L293.34,111.87L293.67,108.1L294.34,100.69L294.67,102.88L295,113.69L295.66,111.41L295.99,109.12L296.66,98.92L296.99,102.18L297.32,110.07L298.65,100.43L298.98,94.76L299.31,97.48L299.64,106.65L300.3,108.7L300.63,105.63L301.3,93.26L301.63,95.46L301.96,105.64L302.96,102.83L303.29,100.29L303.62,94.91L303.95,97.24L304.28,105.85L305.61,98.41L305.94,92.14L306.6,105.57L306.93,105.33L307.26,104.26L307.6,102.36L307.93,95.77L308.26,89.64L308.59,92.62L308.92,100.42L309.92,102.27L310.25,96.2L310.58,89.32L310.91,91.19L311.24,97.89L312.57,89.47L312.9,85.44L313.56,97.57L313.89,94.45L314.22,96.1L314.56,90.51L314.89,93.91L315.22,96.31L315.55,101.32L315.88,96.82L316.21,94.97L316.54,97.66L316.88,92.68L317.54,82.73L317.87,84.02L318.2,97.07L318.53,97.07L318.87,93.17L320.19,80.75L320.52,93.89L321.85,86.13L322.18,81.52L322.84,93.47L323.17,91.58L323.51,90.86L323.84,93.44L324.17,86.01L324.5,79.85L324.83,82.34L325.16,95.8L326.82,79.2L327.15,79.65L328.15,93.95L328.48,88.69L329.14,74.16L329.47,78.08L329.8,88.81L331.13,80.31L331.46,72.46L332.12,88.93L332.79,88.62L333.12,88.21L333.78,78.06L334.11,80.17L334.44,90.46L335.44,88.51L335.77,83.49L336.1,78.69L336.43,81.01L336.76,89.31L338.09,79.65L338.42,74.51L338.75,76.07L339.08,86.93L340.74,78.59L341.07,80.69L341.4,86.84L341.74,85.01L342.07,84.38L342.73,73.97L343.06,74.88L343.39,77.71L343.72,86.22L344.39,84.78L344.72,83.53L345.38,79.19L345.71,80.51L346.04,84.03L346.38,84.22L346.71,83.23L347.04,86.44L347.37,83.13L347.7,82.38L348.03,83.7L348.37,88.34L348.7,87.9L349.03,85.72L349.36,86.5L349.69,81.54L350.02,79.67L350.35,81.51L350.69,87.75L351.02,88.05L351.35,86.53L352.34,79.68L352.67,81.44L353.01,89.09L353.67,86.42L354,87.62L354.66,79.83L354.99,81.47L355.33,89.54L356.65,85.42L356.98,80.72L357.31,81.52L357.65,88.1L358.64,81.61L358.97,82.95L359.3,82.95L359.63,80.91L359.97,85.44L360.3,85.13L360.63,87.79L361.96,79.67L362.29,83.13L362.62,78.02L362.95,58.64L363.28,86.95L363.94,84.2L364.28,84.95L364.61,91.75L364.94,89.21L365.27,86.53L365.6,87.4L365.93,90.91L366.6,85.22L366.93,91L368.25,88.39L368.58,82.9L368.92,82.11L369.25,90.42L370.24,92.78L370.57,88.42L371.24,83.11L371.57,99.59L372.23,97.83L372.56,98.61L372.89,91.04L373.22,83.07L373.56,84.8L373.89,93.43L375.21,88.61L375.54,83.91L376.21,96.52L376.54,95.28L376.87,93.2L377.2,89.6L377.53,94.58L377.87,87.12L378.2,90.17L378.53,98.6L379.52,96.4L379.85,84.41L380.19,80.91L380.52,82.52L380.85,84.39L381.84,95.18L382.17,90.47L382.84,85.07L383.17,91.1L384.16,87.81L384.49,85.04L384.83,82.07L385.16,83.67L385.49,90.66L385.82,92.35L386.15,90.24L386.48,91L387.15,83.58L387.48,84.76L387.81,92.65L388.14,93.25L388.47,96.34L389.47,92.82L389.8,95.73L390.13,98.1L390.46,98.03L390.79,97.28L391.12,98.55L391.46,92.92L391.79,90.38L392.12,92.9L392.45,95.86L393.44,98.19L393.78,94.42L394.11,95.08L394.44,99.64L395.1,103.29L395.43,103.15L395.76,100.97L397.42,105.09L397.75,103.4L398.08,100.42L398.42,103.54L398.75,101.74L399.41,106.82L400.07,106.21L400.4,107.65L400.74,108.94L401.07,104.65L402.06,112.32L402.39,109.72L402.72,108.92L403.06,104.08L403.72,101.32L404.05,107.52L405.04,106.84L405.38,106.33L405.71,102.28L406.04,105.49L406.37,106.18L407.37,106.74L407.7,106.05L408.03,102.72L408.36,103.84L408.69,108.55L410.35,100.82L410.68,102.14L411.01,104.95L411.34,104.47L411.67,104.06L412.01,102.61L412.34,92.81L412.67,89.25L413,94.41L413.66,99.57L413.99,99.52L414.33,98.85L414.99,95L415.32,95.96L415.65,100.37L415.98,102.54L416.31,101.45L416.65,100.31L416.98,99.66L417.31,96.41L417.97,101.89L418.3,99.75L419.3,97.47L419.63,92.72L420.29,102.86L420.62,100.39L420.96,99.52L421.62,97.59L421.95,93.49L422.94,101.8L423.28,100.96L423.61,99.77L424.27,93.93L424.6,95.34L424.93,100.25L425.26,102.06L425.6,101.59L425.93,99.83L426.59,93.83L426.92,93.92L427.25,99.94L427.58,100.26L427.92,98.91L428.25,98.62L428.58,93.12L428.91,90.5L429.24,90.74L429.57,97.94L430.57,95.03L430.9,103.97L431.56,95.95L431.89,102.87L432.22,104.09L432.56,99.2L432.89,99.26L433.22,94.65L433.88,88.97L434.21,99.26L434.88,98.5L435.21,99.68L435.87,91.14L436.2,91.47L436.53,99.18L437.2,101.92L437.53,100.14L438.19,90.48L438.52,93L438.85,101.17L439.19,100.16L439.52,101.09L439.85,101.45L440.51,89.21L440.84,90.85L441.17,96.05L441.51,93.49L441.84,97.38L442.17,97.11L442.5,94.92L442.83,87.17L443.16,89.55L443.49,98.94L443.83,99.04L444.16,100.14L444.49,97.74L444.82,83.66L445.15,83.72L445.48,86.98L446.48,98.75L446.81,96.55L447.47,87.68L447.8,89.44L448.13,100.96L448.47,101.05L448.8,99.24L449.13,100.88L449.46,98.21L450.12,87.79L450.46,100.08L451.12,99.85L451.45,97.99L452.44,89.39L452.78,100.67L453.11,100.71L453.44,98.21L453.77,98.62L454.1,97.01L454.43,92.42L454.76,93.81L455.1,102.44L455.43,101.63L455.76,96.7L456.09,97.68L456.42,91.32L457.08,86.45L457.42,94.75L457.75,100.72L458.41,100.61L458.74,93.03L459.07,87.96L459.4,91.48L459.74,101.84L460.07,103.71L460.4,100.33L461.06,94.7L461.39,90.33L461.72,90.2L462.06,102.95L463.05,97.9L463.38,100.18L464.04,85.13L464.38,95.64L465.37,98.65L465.7,92.51L466.03,88.5L466.37,90.84L466.7,103.29L467.69,98.45L468.02,96.52L468.69,94.94L469.02,105.07L469.35,104.92L469.68,103.29L470.34,103.84L470.67,96.11L471.01,96.32L471.34,106.21L471.67,106.2L472,107.11" style="vector-effect: non-scaling-stroke; fill: none; stroke: rgb(255, 161, 90); stroke-opacity: 1; stroke-width: 2px; opacity: 1;"/></g><g class="points"/><g class="text"/></g><g class="trace scatter trace14f6d7" style="stroke-miterlimit: 2; opacity: 1;"><g class="fills"/><g class="errorbars"/><g class="lines"><path class="js-line" d="M0,138.27L0.33,139.62L0.66,137.67L1.33,136.32L1.66,139.67L2.32,152.49L2.65,146.28L3.65,135.59L3.98,138.88L4.31,133.25L4.64,140.27L4.97,138.06L5.97,128.81L6.3,135.86L6.63,134.44L6.96,139.36L7.62,131.13L7.96,132.2L8.29,128.97L9.61,140.6L9.94,136.82L10.61,127.67L10.94,130.3L11.27,132.23L11.93,140.14L12.26,136.62L12.6,138.09L12.93,140.22L13.26,131.19L14.58,148.8L14.92,135.13L15.91,138.19L16.24,144.54L16.9,140.79L17.24,142.11L17.57,141.86L17.9,137.53L18.23,140.44L18.56,149.02L18.89,145.15L19.22,146.91L19.56,149.08L20.88,167.65L21.21,165.73L22.54,156.69L22.87,160.17L23.2,162.13L23.53,155.48L23.87,153.9L24.2,155.23L24.53,155.07L24.86,147.67L25.19,157.25L25.52,179.7L26.19,178.01L26.52,177.33L27.18,174.12L27.51,176.25L27.84,180.21L28.17,173.68L29.17,177.83L29.5,170.56L29.83,170.03L30.16,174.29L31.49,163.95L32.15,164.49L32.48,167.86L32.81,159.63L33.15,163.22L33.48,167.95L33.81,165.67L34.14,166.04L34.47,167.25L35.13,172.54L35.47,163.26L35.8,161.1L36.13,162.11L36.46,163.28L36.79,161.04L37.12,170.29L38.12,161.55L38.45,163.2L38.78,150.83L39.11,158.84L39.44,161.29L39.78,161.5L40.11,160.47L40.44,164.52L40.77,160.22L41.1,155.46L41.43,154.94L41.76,162.74L42.1,160.78L42.43,161.43L42.76,164.15L43.09,162.68L43.42,156.64L43.75,157.8L44.08,167.77L44.42,164.3L44.75,168.29L45.08,167.16L45.41,167.61L45.74,157.88L46.74,172.43L47.07,170.92L47.73,167.65L48.06,154.67L48.72,173.83L49.06,165.05L50.05,166.12L50.71,163.12L51.04,167.2L51.38,171.81L52.04,171.41L52.37,172.37L53.03,161.09L53.37,166.74L53.7,167.25L54.03,170.8L54.36,170.24L54.69,179.1L55.02,169.37L55.35,174.44L55.69,178.57L57.01,170.99L57.34,168.57L57.67,165.78L58.01,172.51L58.34,172.11L58.67,175.91L59,174.92L59.33,177.8L59.66,163.15L59.99,163.99L60.33,169.22L60.66,168.16L60.99,168.72L61.32,170.32L61.98,161.22L62.31,167.84L62.65,173.25L62.98,169.14L63.31,170.21L64.3,157.88L64.63,160.22L64.97,172.97L66.29,163.91L66.62,131.92L67.95,166.65L68.28,164.16L68.61,162.92L68.94,151.08L69.61,170.7L69.94,161.23L70.6,166.75L70.93,161.27L71.6,153.85L71.93,170.37L72.26,162.07L72.59,168.27L72.92,166.07L73.25,165.44L73.58,155.44L73.92,153.77L74.25,167.35L74.58,166.24L74.91,168.47L75.57,167.5L75.9,149.87L76.24,149.94L76.57,166.69L77.89,154.28L78.22,168.73L78.56,169.01L78.89,185.42L79.88,170.39L80.21,169.86L80.54,161.43L80.88,161.88L81.21,172.94L81.87,165.81L82.2,165.93L82.53,169.18L83.2,160.29L83.53,173.44L83.86,171.74L84.19,166.02L84.52,165.52L84.85,168.92L85.52,157.03L85.85,167.31L86.84,163.34L87.17,162.5L87.51,155.23L87.84,157.84L88.17,161.8L88.5,160.37L88.83,162.76L89.16,163.85L89.49,161.98L90.16,151.68L90.49,154.84L90.82,154.29L91.81,156.65L92.15,159.16L92.48,160.88L92.81,166.7L93.47,160.25L93.8,161.25L94.13,164.51L94.47,158.53L94.8,159.33L95.13,165.08L95.79,158.16L96.12,162.15L96.46,163.26L96.79,154.16L97.12,160.46L97.45,166.58L97.78,168.24L98.11,163.81L98.44,166.97L98.78,160.82L99.11,154.02L99.44,157.96L99.77,161.01L100.76,169.02L101.1,163.07L102.09,182.56L102.42,177.65L102.75,178.18L103.08,180.61L103.42,172.51L104.08,158.26L104.41,167.35L105.07,165.75L105.4,167.1L106.07,153.07L106.4,154.03L106.73,161.15L107.72,142.87L108.06,151.25L108.39,144.6L108.72,149.1L109.05,155.29L109.38,147.44L109.71,149.48L110.04,155.6L110.38,153.7L110.71,159.7L111.37,168.98L111.7,163.68L112.03,160.73L112.37,160.92L112.7,165.04L113.03,155.54L113.36,157.25L113.69,167.76L114.02,160.62L114.35,161.58L114.69,165.27L115.02,162.41L115.35,149.11L115.68,147.58L116.01,157.31L116.34,147.67L116.67,152.75L117.01,164.08L118,197.51L118.33,224.64L118.66,212.19L118.99,158.33L119.99,150.53L120.32,153.64L120.65,107.97L120.98,149.88L121.31,149.08L121.98,159.07L122.31,152.69L123.63,161.25L123.97,161.33L124.3,163.24L124.63,161.46L124.96,158.17L125.96,164.31L126.29,163.48L126.62,163.16L126.95,158.32L127.28,156.45L127.61,162.83L127.94,167.25L128.28,164.63L128.61,161.53L128.94,162.17L129.27,140.76L130.26,165.66L130.6,167.48L130.93,169.66L131.26,169.14L131.59,160.73L131.92,159.51L132.25,162.8L132.92,166.17L133.25,164.72L133.58,164.25L133.91,151.92L134.24,159.76L134.57,172.9L134.9,164.13L135.24,166.17L135.57,177.63L136.23,157.91L136.56,158.57L136.89,167.4L137.22,163.23L137.56,169.92L137.89,171.8L138.22,170.26L138.55,162.99L138.88,157.23L139.21,170.02L139.54,170.93L139.88,167.35L140.54,172.11L140.87,163.64L141.2,163.2L141.53,173.18L142.2,171.96L142.53,174.12L142.86,175.78L143.19,162.87L143.52,162.01L143.85,172.94L145.18,179.01L145.51,189.12L145.84,179.2L146.17,194.76L146.84,190.7L147.17,194.25L147.83,182.56L148.16,185.16L148.49,192.46L150.15,180.69L150.48,184.83L151.48,180.56L151.81,183.06L152.47,171.02L152.8,172.65L153.13,179.93L153.8,173.35L154.13,178.48L155.12,164.47L155.46,175.18L155.79,169.92L156.12,173.72L156.45,172.4L156.78,171.13L157.11,165.49L157.44,159.35L157.78,164.12L158.11,170.81L158.44,170.99L158.77,175.02L159.43,164.7L159.76,159.32L160.76,166.7L161.09,168.5L161.42,169.55L161.75,161.21L162.08,157.13L162.42,168.78L162.75,166.79L163.08,168.78L163.41,171.67L163.74,169.17L164.07,156.32L164.4,155.01L164.74,168.34L165.07,162.39L165.4,167.81L165.73,170.95L166.06,173.43L166.39,160.09L166.72,159.24L167.06,168.4L167.39,167.87L167.72,169.85L168.38,157.62L168.71,172.08L169.04,168.91L169.38,185.33L170.37,172.96L170.7,167.51L171.03,154.63L171.37,162.37L171.7,173.28L172.36,175.28L172.69,174.32L173.69,161.75L174.02,170.52L174.35,170.87L174.68,173.77L176.01,148.76L176.34,169.11L176.67,170.37L177,206.61L177.66,193.84L177.99,176.23L178.33,171.89L178.66,182.42L179.32,174.64L179.65,176.6L179.98,177.84L180.98,196.24L181.31,197.6L182.3,193.61L182.63,183.72L182.97,178.84L183.3,187.99L184.62,181.59L184.96,180.67L185.29,179.86L185.62,184.67L185.95,186.59L186.28,181.93L187.61,170.18L187.94,177.51L188.27,177.65L188.6,180.44L189.26,176.57L189.6,171.74L189.93,168.44L190.26,173.32L191.25,176.95L191.58,175.87L192.25,168.82L192.58,176.72L192.91,176.36L193.24,174.06L193.57,174.89L193.9,172.75L194.57,161.96L194.9,170.09L195.56,174.43L195.89,174.23L196.22,173.04L196.56,184.32L197.22,181.91L197.55,182.32L197.88,182.04L198.21,182.88L198.54,182.78L198.88,168.93L199.21,156.86L199.54,172.77L200.2,175.15L200.53,173.5L201.53,160.13L201.86,172.26L203.19,154.56L203.52,161.24L204.51,176.68L204.84,172.4L205.17,172.27L205.51,168.27L205.84,168.23L206.17,157.25L206.83,179.08L207.16,174.75L207.49,170.23L208.16,148L208.49,148.35L208.82,154.5L209.48,159.8L209.81,156.04L210.81,147.99L211.14,154.06L211.8,153.41L212.13,157.08L212.8,151.56L213.13,155.15L214.12,160.65L214.46,153.76L215.12,149.47L215.45,151.61L215.78,159.43L216.11,157.83L216.44,156.63L217.11,161L217.44,158.57L217.77,159.73L218.76,173.73L219.1,178.08L219.76,168.22L220.09,170.32L220.42,179.47L221.42,172.77L221.75,179.28L222.08,176.81L222.41,180.38L223.07,182.89L223.4,179.98L223.74,182.17L224.07,176.44L224.4,170.2L224.73,170.48L225.06,177.45L226.06,173.2L226.39,177.39L226.72,168.25L227.05,168.5L227.38,182.24L228.04,177.56L228.38,181.79L229.04,171.57L229.37,174.71L229.7,185.42L230.03,183.74L230.37,177.99L231.36,170.24L231.69,185.7L232.02,186.82L232.35,180.23L233.35,175.54L233.68,185.61L234.34,193.82L234.67,183.34L235.01,182.4L235.34,185.35L236,186.27L236.33,190.81L236.66,194.46L236.99,185.96L237.66,186.67L237.99,188.85L238.65,194.68L238.98,212.62L239.31,260.92L239.65,244.63L239.98,168.74L240.31,167.59L240.64,163.12L240.97,161.72L241.3,162.23L241.63,132.52L242.3,163.51L242.63,160.62L242.96,164.78L243.29,166.18L243.62,174.23L243.96,172.33L244.29,176.58L244.62,176.34L244.95,174.24L245.28,173.05L245.61,163.58L245.94,177.45L246.28,174.22L246.61,172.85L246.94,175.98L247.27,172.54L247.6,171.3L247.93,171.19L248.26,174.15L248.93,175.13L249.26,178.22L249.92,162.86L250.25,153.78L251.25,179.72L251.58,181.24L251.91,180.93L252.24,172.7L252.57,171.18L252.9,187.05L253.24,185.63L253.57,185.99L253.9,188.44L254.56,175.66L254.89,175.84L255.22,187.55L255.56,188.12L255.89,186.14L256.22,186.17L256.55,189.07L257.21,176.2L257.54,191.83L257.88,182.77L258.21,186.42L258.54,187.08L259.53,180.08L259.87,190.27L260.86,183.07L261.19,180.68L261.52,176.93L261.85,177.07L262.19,185.56L263.18,194.29L263.51,195.01L264.17,180.68L264.51,194.88L266.16,190.18L266.49,182.31L266.83,200.1L267.49,198.29L267.82,198.72L268.48,182.31L268.81,184.5L269.15,199.54L269.48,195.56L270.14,196.25L270.47,213.31L271.13,206.22L271.47,225.78L272.46,213.43L272.79,209.31L274.12,224.35L274.45,219.89L274.78,220.4L275.11,214.69L275.78,196.07L276.11,204.36L276.44,203.12L277.1,206.03L277.43,203.49L277.76,198.95L278.1,201.01L278.43,207.57L278.76,207.64L279.09,209.76L279.42,212.84L279.75,211.21L280.08,207.57L280.42,204.03L280.75,214.76L281.41,214.7L281.74,215.18L282.07,216.09L282.4,202.23L282.74,199.09L283.07,212.23L284.72,191.01L285.06,193.94L285.39,210.79L286.05,208.17L286.38,209.49L286.71,209.65L287.38,189.51L287.71,207.48L288.04,206.27L288.37,209.17L289.03,206.6L289.37,196.11L289.7,191.28L290.03,205.08L290.69,203.58L291.02,202.42L291.35,202.27L291.69,194.44L292.02,190.01L292.35,199.79L292.68,199.73L293.01,204.1L293.34,203.37L293.67,205.07L294.34,190.34L294.67,201.1L295,199.67L295.66,200.14L295.99,200.67L296.66,186.97L296.99,203.98L297.32,203.05L297.65,206.41L297.98,207.66L298.31,206.02L298.65,187.81L298.98,187.02L299.31,205.21L299.97,202.65L300.3,203.62L300.63,195.89L301.3,181.71L301.63,198.56L301.96,195.52L302.29,196.23L302.62,202.02L303.62,180.92L303.95,197.84L304.28,197.66L304.61,194.58L305.28,188.49L305.61,183.3L305.94,174.44L306.27,196.39L308.26,181.02L308.59,199.05L309.25,198.46L309.58,193.32L309.92,194.35L310.25,185.69L310.58,181.65L310.91,200.57L311.9,195.84L312.24,192.92L312.9,181.54L313.23,199.83L313.56,201.26L313.89,200.27L314.22,199.85L314.56,198.44L314.89,185.59L315.55,207.32L315.88,205.15L316.21,202.8L316.88,201.53L317.21,189.26L317.54,189.02L317.87,204.67L318.87,198.91L319.2,198.59L319.86,203.22L320.19,216.5L320.85,206L321.19,209.18L321.52,209.22L321.85,213.41L322.18,198.59L322.84,214.54L323.17,205.63L323.51,205.19L323.84,200.34L324.5,188.5L324.83,200.63L325.16,202.16L325.49,199.58L325.83,198.61L326.16,199.03L326.49,193.31L326.82,186.23L327.15,201.24L328.48,196.15L328.81,187.28L329.14,187L329.47,197.97L330.8,189.21L331.13,182.53L331.46,180.17L331.79,185.12L332.12,191.41L332.46,186.51L332.79,189.61L333.78,186.7L334.11,191.14L334.78,195.12L335.11,193.11L335.77,183.9L336.1,186.3L336.43,196.43L336.76,195.56L337.1,197.14L337.76,196.18L338.09,188.37L338.75,197.66L339.42,197.07L339.75,196.83L340.08,195.58L340.41,198.53L340.74,196.48L341.07,199.54L341.74,205.56L342.07,202.25L342.4,198.88L342.73,187.81L343.39,196.5L343.72,201.42L344.39,198.12L344.72,201.74L345.05,192.83L345.38,195.98L345.71,201.76L346.04,199.09L346.38,199.89L346.71,200.67L347.04,202.83L347.37,196.53L347.7,197.74L348.03,201.9L348.37,201.73L348.7,200.31L349.69,194.26L350.02,194.39L350.35,202.2L350.69,203.22L351.02,190.44L351.68,201.62L352.01,195.49L352.34,199.14L352.67,214.12L353.67,206.27L354,205.89L354.66,207.9L354.99,212.27L355.66,208.82L355.99,210.04L356.32,210.15L357.31,221.01L357.65,213.19L357.98,219.19L358.64,219.06L358.97,218.38L359.63,226.24L359.97,231.08L360.3,269.43L360.63,259.69L360.96,206.19L362.29,203.58L362.62,166.3L363.61,207.12L363.94,206.77L364.94,210.54L365.27,205.82L365.6,205.89L365.93,209.75L366.26,203.69L366.6,211.07L366.93,215.53L367.26,212.26L367.59,213.4L367.92,213.58L368.58,217.06L368.92,215.5L369.25,216.68L369.58,212.73L370.24,203.49L370.57,204.48L370.9,204.38L371.24,193.2L371.57,210.45L371.9,213L372.23,209.39L372.56,210.91L372.89,206.46L373.56,211.66L373.89,207.33L374.22,209.19L374.55,207.24L374.88,206.43L375.88,197.76L376.21,209.53L376.87,211.39L377.2,215.05L377.53,214.83L377.87,209.41L378.53,217.52L378.86,216.1L379.19,217.84L379.85,206.1L380.19,207.82L380.52,218.18L380.85,220.15L381.18,219.39L381.51,217.36L381.84,218.45L382.17,211.2L382.51,209.27L382.84,214.71L383.5,223.61L383.83,222.58L384.16,220.88L384.83,210.34L385.16,215.71L385.49,218.22L387.15,211.39L387.48,221.55L388.14,215.05L388.47,215.63L388.8,216.57L389.13,210.94L389.47,217.92L389.8,225.6L390.13,213.6L390.46,215.77L390.79,217.89L391.12,216.75L391.46,204.79L392.45,212.77L392.78,211.17L393.11,211.47L393.44,215.77L393.78,219.54L394.44,219.01L394.77,220.23L395.43,221.97L395.76,219.48L396.1,211.76L396.43,213.44L396.76,221.61L397.09,219.39L397.42,220.18L397.75,220.8L398.08,224.98L398.42,219.23L398.75,220.46L399.08,224.63L399.41,224.49L399.74,222.76L400.07,225.47L400.4,220.08L400.74,218.52L401.07,213.03L401.73,218.67L402.06,215.45L402.72,217.88L403.06,212.39L403.72,221.67L404.05,218.66L404.38,223.08L404.71,214.86L405.04,215.71L405.38,217.22L405.71,215.26L406.04,223.44L407.03,213.25L407.37,212.76L407.7,212.86L408.03,210.6L408.36,217.72L408.69,214.58L409.02,212.55L409.69,216.11L410.02,207.36L411.34,220.71L411.67,221.06L412.34,195.16L412.67,198.93L413,205.01L413.33,213.06L413.66,206.58L413.99,208L414.66,210.98L414.99,209.79L415.32,217.58L415.65,214.73L415.98,217.7L416.31,216.37L417.31,205.78L417.64,214.88L418.3,216.44L418.63,212.89L418.97,213.9L419.3,208.74L419.63,205.27L419.96,214.31L420.62,216.75L420.96,216.26L421.29,209.96L421.95,202.58L422.28,210.5L422.94,204.46L423.28,206.81L423.61,205.48L424.27,194.62L424.6,198.84L424.93,197.77L425.6,199.99L425.93,198.56L426.26,194.55L426.59,197.02L426.92,203.73L427.92,195.48L428.25,197.45L428.58,197.94L428.91,200.82L429.24,204.96L429.57,200.56L429.9,201.39L430.24,200.24L430.57,195.96L431.56,218.53L431.89,220.87L432.22,222.06L432.56,216.91L432.89,213.65L433.22,218.73L434.21,223.6L434.54,222.13L435.21,222.28L435.54,215.15L435.87,212.64L436.2,220.74L437.2,215.81L437.53,210.27L438.19,203.3L438.52,215.8L440.18,204.03L440.51,202.92L441.51,210.81L441.84,208.72L442.83,194.25L443.16,208.68L444.49,199.53L444.82,193.19L445.15,191.53L445.48,206.78L446.48,202.75L446.81,202.83L447.14,189.99L447.47,191.04L447.8,203.26L448.13,202.57L448.47,199.92L448.8,201.93L449.13,197.31L449.79,184.64L450.12,198.54L451.12,193.64L451.45,195.98L452.11,181.06L452.44,187.28L453.11,185.74L453.44,187.05L454.1,172.93L454.43,177.79L455.43,182.78L455.76,184.56L456.09,184.48L456.42,179.53L456.75,176.39L457.08,183.1L457.75,184.55L458.08,183.83L458.41,185.64L459.07,183.96L459.4,188.67L460.07,189.2L460.4,183.5L460.73,186.63L461.39,181.17L461.72,182.6L462.06,182.63L463.71,171.31L464.04,189.29L464.38,186.05L464.71,189.28L465.04,191.06L466.03,179.49L466.37,185.19L467.03,185.98L467.36,188.01L468.02,192.58L468.35,188.35L469.68,192.56L470.01,187.94L470.34,183.55L470.67,188.56L471.01,197.05L471.67,191.17L472,191.26" style="vector-effect: non-scaling-stroke; fill: none; stroke: rgb(25, 211, 243); stroke-opacity: 1; stroke-width: 2px; opacity: 1;"/></g><g class="points"/><g class="text"/></g></g></g><g class="overplot"/><path class="xlines-above crisp" d="M0,0" style="fill: none;"/><path class="ylines-above crisp" d="M0,0" style="fill: none;"/><g class="overlines-above"/><g class="xaxislayer-above"><g class="xtick"><text text-anchor="middle" x="0" y="433" transform="translate(80,0)" style="font-family: 'Open Sans', verdana, arial, sans-serif; font-size: 12px; fill: rgb(42, 63, 95); fill-opacity: 1; white-space: pre;">2017</text></g><g class="xtick"><text text-anchor="middle" x="0" y="433" transform="translate(200.98000000000002,0)" style="font-family: 'Open Sans', verdana, arial, sans-serif; font-size: 12px; fill: rgb(42, 63, 95); fill-opacity: 1; white-space: pre;">2018</text></g><g class="xtick"><text text-anchor="middle" x="0" y="433" transform="translate(321.97,0)" style="font-family: 'Open Sans', verdana, arial, sans-serif; font-size: 12px; fill: rgb(42, 63, 95); fill-opacity: 1; white-space: pre;">2019</text></g><g class="xtick"><text text-anchor="middle" x="0" y="433" transform="translate(442.95,0)" style="font-family: 'Open Sans', verdana, arial, sans-serif; font-size: 12px; fill: rgb(42, 63, 95); fill-opacity: 1; white-space: pre;">2020</text></g></g><g class="yaxislayer-above"><g class="ytick"><text text-anchor="end" x="79" y="4.199999999999999" transform="translate(0,360.38)" style="font-family: 'Open Sans', verdana, arial, sans-serif; font-size: 12px; fill: rgb(42, 63, 95); fill-opacity: 1; white-space: pre;">0.55</text></g><g class="ytick"><text text-anchor="end" x="79" y="4.199999999999999" transform="translate(0,300.64)" style="font-family: 'Open Sans', verdana, arial, sans-serif; font-size: 12px; fill: rgb(42, 63, 95); fill-opacity: 1; white-space: pre;">0.6</text></g><g class="ytick"><text text-anchor="end" x="79" y="4.199999999999999" transform="translate(0,240.9)" style="font-family: 'Open Sans', verdana, arial, sans-serif; font-size: 12px; fill: rgb(42, 63, 95); fill-opacity: 1; white-space: pre;">0.65</text></g><g class="ytick"><text text-anchor="end" x="79" y="4.199999999999999" transform="translate(0,181.16)" style="font-family: 'Open Sans', verdana, arial, sans-serif; font-size: 12px; fill: rgb(42, 63, 95); fill-opacity: 1; white-space: pre;">0.7</text></g><g class="ytick"><text text-anchor="end" x="79" y="4.199999999999999" transform="translate(0,121.42)" style="font-family: 'Open Sans', verdana, arial, sans-serif; font-size: 12px; fill: rgb(42, 63, 95); fill-opacity: 1; white-space: pre;">0.75</text></g></g><g class="overaxes-above"/></g></g><g class="polarlayer"/><g class="ternarylayer"/><g class="geolayer"/><g class="funnelarealayer"/><g class="pielayer"/><g class="treemaplayer"/><g class="sunburstlayer"/><g class="glimages"/><defs id="topdefs-fc3bbe"><g class="clips"/><clipPath id="legendfc3bbe"><rect width="127" height="140" x="0" y="0"/></clipPath></defs><g class="layer-above"><g class="imagelayer"/><g class="shapelayer"/></g><g class="infolayer"><g class="legend" pointer-events="all" transform="translate(561.44, 100)"><rect class="bg" shape-rendering="crispEdges" width="127" height="140" x="0" y="0" style="stroke: rgb(68, 68, 68); stroke-opacity: 1; fill: rgb(255, 255, 255); fill-opacity: 1; stroke-width: 0px;"/><g class="scrollbox" transform="translate(0, 0)" clip-path="url('#legendfc3bbe')"><text class="legendtitletext" text-anchor="start" x="2" y="15.600000000000001" style="font-family: 'Open Sans', verdana, arial, sans-serif; font-size: 12px; fill: rgb(42, 63, 95); fill-opacity: 1; white-space: pre;">Continents</text><g class="groups"><g class="traces" transform="translate(0, 30.1)" style="opacity: 1;"><text class="legendtext" text-anchor="start" x="40" y="4.680000000000001" style="font-family: 'Open Sans', verdana, arial, sans-serif; font-size: 12px; fill: rgb(42, 63, 95); fill-opacity: 1; white-space: pre;">Global</text><g class="layers" style="opacity: 1;"><g class="legendfill"/><g class="legendlines"><path class="js-line" d="M5,0h30" style="fill: none; stroke: rgb(99, 110, 250); stroke-opacity: 1; stroke-width: 2px;"/></g><g class="legendsymbols"><g class="legendpoints"/></g></g><rect class="legendtoggle" x="0" y="-9.5" width="121.734375" height="19" style="fill: rgb(0, 0, 0); fill-opacity: 0;"/></g><g class="traces" transform="translate(0, 49.1)" style="opacity: 1;"><text class="legendtext" text-anchor="start" x="40" y="4.680000000000001" style="font-family: 'Open Sans', verdana, arial, sans-serif; font-size: 12px; fill: rgb(42, 63, 95); fill-opacity: 1; white-space: pre;">Europe</text><g class="layers" style="opacity: 1;"><g class="legendfill"/><g class="legendlines"><path class="js-line" d="M5,0h30" style="fill: none; stroke: rgb(239, 85, 59); stroke-opacity: 1; stroke-width: 2px;"/></g><g class="legendsymbols"><g class="legendpoints"/></g></g><rect class="legendtoggle" x="0" y="-9.5" width="121.734375" height="19" style="fill: rgb(0, 0, 0); fill-opacity: 0;"/></g><g class="traces" transform="translate(0, 68.1)" style="opacity: 1;"><text class="legendtext" text-anchor="start" x="40" y="4.680000000000001" style="font-family: 'Open Sans', verdana, arial, sans-serif; font-size: 12px; fill: rgb(42, 63, 95); fill-opacity: 1; white-space: pre;">Asia</text><g class="layers" style="opacity: 1;"><g class="legendfill"/><g class="legendlines"><path class="js-line" d="M5,0h30" style="fill: none; stroke: rgb(0, 204, 150); stroke-opacity: 1; stroke-width: 2px;"/></g><g class="legendsymbols"><g class="legendpoints"/></g></g><rect class="legendtoggle" x="0" y="-9.5" width="121.734375" height="19" style="fill: rgb(0, 0, 0); fill-opacity: 0;"/></g><g class="traces" transform="translate(0, 87.1)" style="opacity: 1;"><text class="legendtext" text-anchor="start" x="40" y="4.680000000000001" style="font-family: 'Open Sans', verdana, arial, sans-serif; font-size: 12px; fill: rgb(42, 63, 95); fill-opacity: 1; white-space: pre;">North America</text><g class="layers" style="opacity: 1;"><g class="legendfill"/><g class="legendlines"><path class="js-line" d="M5,0h30" style="fill: none; stroke: rgb(171, 99, 250); stroke-opacity: 1; stroke-width: 2px;"/></g><g class="legendsymbols"><g class="legendpoints"/></g></g><rect class="legendtoggle" x="0" y="-9.5" width="121.734375" height="19" style="fill: rgb(0, 0, 0); fill-opacity: 0;"/></g><g class="traces" transform="translate(0, 106.1)" style="opacity: 1;"><text class="legendtext" text-anchor="start" x="40" y="4.680000000000001" style="font-family: 'Open Sans', verdana, arial, sans-serif; font-size: 12px; fill: rgb(42, 63, 95); fill-opacity: 1; white-space: pre;">South America</text><g class="layers" style="opacity: 1;"><g class="legendfill"/><g class="legendlines"><path class="js-line" d="M5,0h30" style="fill: none; stroke: rgb(255, 161, 90); stroke-opacity: 1; stroke-width: 2px;"/></g><g class="legendsymbols"><g class="legendpoints"/></g></g><rect class="legendtoggle" x="0" y="-9.5" width="121.734375" height="19" style="fill: rgb(0, 0, 0); fill-opacity: 0;"/></g><g class="traces" transform="translate(0, 125.1)" style="opacity: 1;"><text class="legendtext" text-anchor="start" x="40" y="4.680000000000001" style="font-family: 'Open Sans', verdana, arial, sans-serif; font-size: 12px; fill: rgb(42, 63, 95); fill-opacity: 1; white-space: pre;">Oceania</text><g class="layers" style="opacity: 1;"><g class="legendfill"/><g class="legendlines"><path class="js-line" d="M5,0h30" style="fill: none; stroke: rgb(25, 211, 243); stroke-opacity: 1; stroke-width: 2px;"/></g><g class="legendsymbols"><g class="legendpoints"/></g></g><rect class="legendtoggle" x="0" y="-9.5" width="121.734375" height="19" style="fill: rgb(0, 0, 0); fill-opacity: 0;"/></g></g></g><rect class="scrollbar" rx="20" ry="3" width="0" height="0" x="0" y="0" style="fill: rgb(128, 139, 164); fill-opacity: 1;"/></g><g class="g-gtitle"/><g class="g-xtitle"><text class="xtitle" x="316" y="461.8" text-anchor="middle" style="font-family: 'Open Sans', verdana, arial, sans-serif; font-size: 14px; fill: rgb(42, 63, 95); opacity: 1; font-weight: normal; white-space: pre;">Date</text></g><g class="g-ytitle"><text class="ytitle" transform="rotate(-90,30.418750000000003,260)" x="30.418750000000003" y="260" text-anchor="middle" style="font-family: 'Open Sans', verdana, arial, sans-serif; font-size: 14px; fill: rgb(42, 63, 95); opacity: 1; font-weight: normal; white-space: pre;">energy</text></g></g></svg>