<svg class="main-svg" xmlns="http://www.w3.org/2000/svg" xmlns:xlink="http://www.w3.org/1999/xlink" width="700" height="500" style="" viewBox="0 0 700 500"><rect x="0" y="0" width="700" height="500" style="fill: rgb(255, 255, 255); fill-opacity: 1;"/><defs id="defs-5f75dd"><g class="clips"><clipPath id="clip5f75ddxyplot" class="plotclip"><rect width="516" height="320"/></clipPath><clipPath class="axesclip" id="clip5f75ddx"><rect x="80" y="0" width="516" height="500"/></clipPath><clipPath class="axesclip" id="clip5f75ddy"><rect x="0" y="100" width="700" height="320"/></clipPath><clipPath class="axesclip" id="clip5f75ddxy"><rect x="80" y="100" width="516" height="320"/></clipPath></g><g class="gradients"/></defs><g class="bglayer"><rect class="bg" x="80" y="100" width="516" height="320" style="fill: rgb(229, 236, 246); fill-opacity: 1; stroke-width: 0;"/></g><g class="layer-below"><g class="imagelayer"/><g class="shapelayer"/></g><g class="cartesianlayer"><g class="subplot xy"><g class="layer-subplot"><g class="shapelayer"/><g class="imagelayer"/></g><g class="gridlayer"><g class="x"><path class="xgrid crisp" transform="translate(212.26,0)" d="M0,100v320" style="stroke: rgb(255, 255, 255); stroke-opacity: 1; stroke-width: 1px;"/><path class="xgrid crisp" transform="translate(344.52,0)" d="M0,100v320" style="stroke: rgb(255, 255, 255); stroke-opacity: 1; stroke-width: 1px;"/><path class="xgrid crisp" transform="translate(476.78,0)" d="M0,100v320" style="stroke: rgb(255, 255, 255); stroke-opacity: 1; stroke-width: 1px;"/></g><g class="y"><path class="ygrid crisp" transform="translate(0,342.76)" d="M80,0h516" style="stroke: rgb(255, 255, 255); stroke-opacity: 1; stroke-width: 1px;"/><path class="ygrid crisp" transform="translate(0,275.45)" d="M80,0h516" style="stroke: rgb(255, 255, 255); stroke-opacity: 1; stroke-width: 1px;"/><path class="ygrid crisp" transform="translate(0,208.13)" d="M80,0h516" style="stroke: rgb(255, 255, 255); stroke-opacity: 1; stroke-width: 1px;"/><path class="ygrid crisp" transform="translate(0,140.81)" d="M80,0h516" style="stroke: rgb(255, 255, 255); stroke-opacity: 1; stroke-width: 1px;"/></g></g><g class="zerolinelayer"><path class="yzl zl crisp" transform="translate(0,410.08)" d="M80,0h516" style="stroke: rgb(255, 255, 255); stroke-opacity: 1; stroke-width: 2px;"/></g><path class="xlines-below"/><path class="ylines-below"/><g class="overlines-below"/><g class="xaxislayer-below"/><g class="yaxislayer-below"/><g class="overaxes-below"/><g class="plot" transform="translate(80, 100)" clip-path="url('#clip5f75ddxyplot')"><g class="scatterlayer mlayer"><g class="trace scatter tracef87ee6" style="stroke-miterlimit: 2; opacity: 1;"><g class="fills"/><g class="errorbars"/><g class="lines"><path class="js-line" d="M0,252.39L0.36,261.85L1.09,261.79L1.45,261.76L1.81,258.71L2.17,261.68L2.54,261.67L2.9,261.83L3.26,256.56L3.99,256.56L4.35,205.93L4.71,207.99L5.07,250.25L6.16,250.58L6.52,246.74L6.88,248.69L7.25,245.08L9.06,257.06L9.42,257.12L10.15,255.69L10.51,225.29L10.87,257.11L11.6,257.09L11.96,257.13L12.32,257.12L12.68,253.25L13.41,257.27L13.77,257.22L14.13,257.24L14.49,257.22L14.86,255.02L15.58,257.2L15.94,266.67L17.03,253.03L17.39,252.96L18.48,253.54L18.84,253.54L20.29,253.43L20.65,221.75L21.02,253.71L21.74,253.68L22.1,228.87L22.47,228.83L22.83,253.73L23.19,228.9L23.55,253.72L23.92,253.7L27.18,253.77L27.54,258.98L28.63,249.79L28.99,250.4L29.35,240.87L29.71,254.7L31.53,254.6L31.89,250.4L32.97,255.74L33.34,251.22L34.42,240.83L34.79,251.37L35.51,251L35.87,241.68L36.6,241.7L36.96,236.51L38.05,240.28L38.41,240.48L38.77,240.31L39.13,235.3L39.5,229.93L39.86,240.43L40.95,240.88L41.31,240.91L42.03,240.81L42.4,230.77L43.12,259.95L43.48,234.64L44.93,279.65L45.29,252.35L46.02,252.38L46.38,279.56L47.11,279.61L47.47,277.63L47.83,250.5L48.19,277.32L48.56,277.3L48.92,277.42L49.28,279.48L49.64,273.03L50.01,279.62L50.37,279.5L53.63,278.99L54.72,272.73L55.8,272.81L56.17,270.93L59.79,270.78L60.15,246.49L61.24,270.51L61.6,270.37L61.96,270.11L62.33,270.84L63.05,267.45L63.41,269.12L64.5,269.08L64.86,269.85L67.4,269.81L67.76,254.47L68.49,269.87L68.85,269.85L69.21,269.82L69.94,269.87L70.3,244.74L71.02,269.88L71.38,269.86L71.75,269.9L72.11,269.85L72.47,274.06L73.2,278.52L73.56,269.49L74.65,271.46L75.01,271.48L75.37,273.73L75.73,283.18L76.46,273.57L76.82,273.61L77.18,273.67L77.54,273.91L77.91,269.73L78.27,279.32L78.63,270L78.99,270.04L80.08,270.04L80.44,260.76L80.81,278.83L81.17,275.94L81.53,276L82.62,276.53L82.98,285.75L83.34,285.74L83.71,276.52L84.79,276.52L85.15,272.65L85.52,262.64L85.88,282.49L86.6,282.63L86.97,272.06L87.69,272.65L88.05,285.02L88.42,284.98L88.78,277.9L90.23,277.9L90.59,285.37L90.95,285.35L91.31,278.38L91.68,278.01L92.04,278.38L92.4,278.38L92.76,278.38L93.13,282.17L93.49,284.72L93.85,278.89L94.94,278.89L95.3,288.21L96.39,288.24L96.75,280.07L97.11,288.22L97.84,288.15L98.2,288.27L98.92,289.41L99.29,280.08L99.65,279.3L100.01,280.08L100.37,289.4L101.46,289.49L101.82,280.11L102.55,280.18L102.91,289.49L104.36,276.27L104.72,285.43L105.08,276.11L105.45,285.43L105.81,285.57L106.17,285.51L106.53,293.54L107.26,285.43L107.62,285.57L107.98,285.57L108.71,285.57L109.07,293.54L109.79,228.21L110.16,230.04L110.52,230.2L111.61,262.57L111.97,262.56L112.69,262.56L113.06,260.82L113.42,268.79L113.78,293.52L114.14,293.52L114.51,260.65L114.87,293.52L115.23,285.58L115.59,285.32L115.96,293.44L116.68,293.29L117.04,293.46L118.13,285.31L118.49,285.75L118.85,293.73L119.22,281.86L120.3,293.74L120.67,281.85L121.75,280.77L122.12,281.73L123.56,281.69L123.93,280.75L124.29,280.75L124.65,281.69L125.38,281.69L125.74,280.74L126.1,281.74L126.46,285.2L126.83,285.2L127.19,281.7L127.55,281.7L127.91,280.74L128.28,280.73L128.64,287.92L129.72,287.77L130.09,281.39L130.81,293.24L131.17,293.18L131.54,291.28L131.9,282.71L132.26,284.86L132.62,291.58L134.44,290.02L134.8,290.08L136.97,290.07L137.33,289.28L139.51,289.29L139.87,289.49L140.96,289.43L141.32,294.73L142.04,289.46L142.41,290.56L143.49,290.56L143.86,270.66L145.31,290.21L145.67,290.21L146.03,290.21L146.39,295.16L147.12,294.24L147.48,289.77L147.84,294.21L148.21,286.51L148.57,286.45L148.93,294.99L149.29,295.85L149.65,295.65L150.02,290.74L150.38,295.21L150.74,290.97L151.1,293.56L152.19,297.51L152.55,293.42L153.64,299.12L154,298.96L155.09,298.92L155.45,298.92L158.71,298.93L159.08,285.75L159.44,285.03L159.8,287.1L160.53,287.82L160.89,292.9L161.25,293.02L161.61,294.43L162.34,292.8L162.7,293.83L164.87,292.48L165.24,293.22L166.32,299.53L166.69,301.34L167.41,298.56L167.77,299.25L168.13,299.25L168.86,299.26L169.22,301.04L169.58,301.11L169.95,299.3L170.67,299.41L171.03,301.28L171.4,301.28L171.76,273.61L172.12,265.9L172.48,266.39L172.85,269.18L173.93,273.67L174.29,255.54L177.19,255.56L177.56,252.36L178.64,255.28L179.01,255.28L179.37,259.93L179.73,259.56L180.09,275.39L180.46,262.41L180.82,274.26L181.18,302.77L181.54,274.94L182.27,276.15L182.63,304L183.35,295.42L183.72,295.45L184.08,295.54L184.44,299.44L184.8,298.01L185.17,291.56L186.62,290.81L186.98,290.1L188.06,290.82L188.43,291.1L189.15,290.82L189.51,289.78L189.88,299.11L190.24,289.77L190.6,290.06L191.69,289.86L192.05,282.5L192.41,298.91L192.78,298.13L193.14,291.98L193.5,279.29L193.86,282.38L194.22,290.54L195.67,291.44L196.04,291.96L196.76,291.93L197.12,236.02L198.21,287.99L198.57,290.07L201.11,290.2L201.47,283L204.01,283.25L204.37,285.1L204.73,280.17L205.1,281.92L205.46,282.08L206.54,282.02L206.91,280.06L207.63,294.24L207.99,288.84L208.36,287.28L208.72,288.35L209.08,288.12L209.44,287.58L209.81,294.81L210.17,295.42L210.53,294.45L210.89,294.43L211.26,295.79L211.98,295.79L212.34,282.87L213.07,295.95L213.43,294.75L213.79,295.8L214.15,294.1L214.52,295.44L214.88,295.81L215.97,295.26L216.33,295.81L217.05,295.81L217.42,278.89L218.5,278.86L218.87,270.87L220.31,298.64L220.68,295.13L221.76,295.94L222.13,299.98L222.49,299.75L222.85,294.72L223.58,299.05L223.94,299.02L224.3,299.35L224.66,299.46L225.03,286.33L226.11,286.95L226.47,286.57L227.2,286.55L227.56,277.61L228.65,287.02L229.01,287.11L232.27,287.19L232.63,270.6L233.72,270.34L234.08,270.48L235.17,284.59L235.53,284.09L236.26,284.25L236.62,286.28L237.35,286.43L237.71,227.66L238.79,284.34L239.16,284.64L239.88,288.51L240.24,278.25L240.61,278.8L240.97,277.33L241.33,268.47L241.69,276.69L242.06,277.31L242.42,277.48L242.78,274.24L243.51,277.43L243.87,277.22L244.23,277.22L246.4,269.36L246.77,269.61L247.49,272.13L247.85,269.53L248.22,272.18L248.58,267.89L249.3,267.9L249.67,266.87L250.39,266.9L250.75,255.02L252.56,255.02L252.93,259.27L253.29,259.3L253.65,261.03L254.74,259.41L255.1,261.21L256.19,211.23L256.55,212.16L257.64,212.27L258,228.07L258.36,231.46L258.72,229.5L259.09,230.47L259.81,230.45L260.17,231.49L260.54,238.63L260.9,237.63L261.26,237.62L261.62,241.14L261.99,240.17L262.35,231.43L263.44,243.2L263.8,243.19L264.16,246.84L264.52,244.43L264.88,242.33L265.25,242.15L265.61,242.86L265.97,243.23L266.33,242.2L267.06,242.39L267.42,227.81L267.78,227.47L268.15,228.78L269.6,228.51L269.96,243.08L270.32,243.07L270.68,241.34L271.04,245.02L271.41,243.08L271.77,243.07L273.22,243.07L273.58,245.03L275.39,237.62L275.76,237.64L276.12,237.1L276.48,232.81L277.57,232.81L277.93,237.08L278.65,235.26L279.02,237.99L280.1,236.3L280.47,229.58L281.19,269.95L281.55,237.98L281.92,239.04L282.28,236.85L282.64,236.85L283,267.74L284.09,266.15L284.45,269.99L288.08,270.33L288.44,252.08L289.53,261.4L289.89,261.4L293.15,261.48L293.51,255.54L294.96,253.31L295.32,255.16L295.69,250.88L296.05,166.32L298.22,166.44L298.58,124.5L299.31,160.95L299.67,158.91L300.03,159.01L300.4,160.13L300.76,185.67L301.48,218.69L301.85,218.68L302.21,198.35L303.29,218.86L303.66,218.89L304.74,219.54L305.11,195.3L305.47,195.61L305.83,219.59L308.01,219.35L308.37,217.51L309.46,219.73L309.82,218.14L310.9,218.13L311.27,255.75L311.63,255.88L311.99,240.01L313.08,218.14L313.44,237.57L313.8,225.97L314.17,228.25L314.53,244.97L314.89,232.69L315.25,233.22L315.62,247.2L316.34,246.68L316.7,255.35L318.51,255.9L318.88,257.44L319.24,258.02L319.6,255.55L320.69,255.55L321.05,255.22L321.41,257.34L321.78,255.81L322.14,253.64L323.59,253.68L323.95,256.15L324.31,255.81L324.67,253.27L325.04,253.7L325.4,253.28L325.76,253.28L326.12,253.28L326.49,260.22L326.85,261.1L327.21,258.58L327.94,258.63L328.3,261.1L328.66,261.11L329.02,263.02L330.11,260.92L330.47,261.01L331.2,260.99L331.56,261.94L331.92,259.95L332.28,260.72L332.65,260.72L333.73,260.62L334.1,244.65L334.46,249.54L334.82,233.93L335.91,249.58L336.27,249.58L336.63,248.9L336.99,233.25L337.36,231.31L337.72,248.36L339.17,251.78L339.53,236.06L340.62,234.1L340.98,234.11L341.34,234.11L341.71,242.71L342.79,234.1L343.15,234.1L343.88,217.13L344.24,219.76L345.33,234.11L345.69,234.11L346.78,234.24L347.14,241.63L347.87,234.16L348.23,234.26L348.59,234.59L348.95,234.66L349.31,242.09L349.68,243.66L350.04,241.79L351.49,241.6L351.85,33.83L352.94,219.41L353.3,219.41L354.39,240.63L354.75,239.13L355.11,237.04L355.47,237L355.84,238.95L359.1,239.08L359.46,238.04L359.82,238.03L360.19,240.06L363.08,239.79L363.45,235.65L364.9,235.99L365.26,236.78L366.35,255.69L366.71,250.92L367.07,251.36L367.43,248.02L367.79,247.8L368.16,251.66L368.88,251.69L369.24,267.34L370.33,235.11L370.69,250.53L371.42,250.75L371.78,260.43L372.14,240.21L372.51,247.53L372.87,255.74L373.23,247.08L373.59,255.5L373.96,255.5L374.32,246.45L374.68,255.88L375.04,255.97L376.13,233.28L376.49,255.53L376.85,255.56L377.22,230.73L377.58,255.98L377.94,254.83L378.3,232.57L378.67,233.32L379.03,255.56L379.39,228.46L379.75,228.86L380.12,239.96L380.48,255.01L380.84,243.34L381.2,243.34L381.93,243.33L382.29,257.72L382.65,260.6L383.01,259.67L383.38,243.16L383.74,243.51L384.1,255.7L384.46,255.78L384.83,243.84L385.19,243.85L385.55,257.93L386.64,258.13L387,247.3L387.72,247.89L388.09,263.83L388.45,247.76L388.81,251.51L389.17,263.56L389.54,261.62L389.9,250.68L390.62,250.82L390.99,249.95L391.71,249.94L392.07,250.74L392.44,250.74L392.8,255.49L393.52,255.79L393.88,267.75L394.25,267.05L394.61,251.36L395.7,224.74L396.06,241.08L396.42,247.35L396.78,238.81L397.87,252.43L398.23,252.33L399.32,251.37L399.68,251.52L400.04,267.07L400.41,252.04L400.77,257.78L401.86,257.59L402.22,246.39L402.58,259.26L402.94,258.28L403.31,256.62L404.03,256.76L404.39,252.16L405.12,267.01L405.48,247.38L405.84,257.91L406.21,254.9L406.57,255.26L406.93,255.01L407.29,250.5L407.65,255.3L408.02,251.45L408.38,251.56L409.1,255.96L409.47,255.75L409.83,251.25L410.19,263.28L410.55,248.28L411.28,255.63L411.64,255.52L412,251.71L412.37,251.71L412.73,227.89L413.81,249.51L414.18,245L414.54,244.67L414.9,249.17L415.63,267.79L415.99,267.33L416.35,267.34L417.44,267.59L417.8,273.61L419.97,272.9L420.34,279.06L420.7,279.49L421.06,278.47L421.79,266.33L422.15,278.58L422.51,278.35L422.87,267.63L423.24,278.37L423.6,276.82L423.96,271.38L424.32,272.21L424.69,277.63L425.05,277.66L425.41,249.3L425.77,249.3L426.13,241.4L427.95,266.79L428.31,261.76L429.4,272.17L429.76,272.17L430.12,272.27L430.48,277.29L431.57,277.33L431.93,246.88L433.38,230.87L433.74,234.29L434.11,245.62L434.83,244.74L435.19,244.95L436.28,223.2L436.64,233.65L437.73,233.76L438.09,231.43L438.46,222.81L438.82,233.12L439.9,233.48L440.27,233.49L440.63,234.67L440.99,224.15L441.35,233.84L442.08,233.81L442.44,234.6L442.8,234.4L443.17,238.62L443.53,228.54L443.89,235.72L444.25,235.61L444.62,235.64L444.98,229.35L445.34,229.68L445.7,239.07L446.43,226.59L446.79,227.01L447.15,227L447.88,260.71L448.24,260.42L448.6,229.78L449.69,218.1L450.05,218.87L450.41,220.81L450.78,200.79L451.14,162.35L451.5,201.31L451.86,198.28L452.95,257.79L453.31,257.36L453.67,219.21L454.76,253.51L455.12,253.69L455.49,253.61L455.85,264.33L456.57,250.78L456.94,258.31L458.02,258.28L458.38,264.11L459.11,247.63L459.47,253.6L459.83,253.52L460.2,259.7L460.56,259.62L460.92,261.6L461.28,251.14L461.65,262.18L462.01,253.76L463.46,265.78L463.82,254.98L464.91,270.15L465.27,265.58L465.63,265.67L465.99,267L467.44,266.98L467.81,270.24L468.17,270.29L468.53,266.12L468.89,254.72L469.26,269.44L470.34,269.57L470.71,270.76L472.15,269.89L472.52,269.67L473.24,269.33L473.6,246.85L473.97,248.79L474.33,246.87L474.69,247.46L475.78,249.75L476.14,248.14L476.5,265.24L476.87,265.07L477.23,257.3L477.59,257.51L477.95,255.68L478.31,255.72L478.68,231.19L479.4,256.37L479.76,255.16L480.13,257.15L480.85,255.02L481.21,228.86L481.94,257.23L482.3,240.41L483.39,255.42L483.75,256.13L484.11,255.89L484.47,257.2L485.56,254.79L485.92,254.79L486.29,252.78L486.65,241.85L487.01,252.95L487.37,251.2L487.74,249.29L488.46,251.09L488.82,236.07L489.19,237.73L489.55,254.7L489.91,236.48L490.27,251.83L490.63,254.71L491,254.84L491.36,225.62L491.72,255.28L492.45,254.67L492.81,254.52L493.53,254.32L493.9,174.95L494.26,180.22L494.62,230.19L494.98,225.3L495.35,240.88L496.07,241.02L496.43,202.68L496.79,203.29L497.16,208.81L497.88,214.79L498.24,188.42L499.33,255.49L499.69,245.92L500.06,245.76L501.14,246.04L501.51,250.68L502.23,250.35L502.59,250.34L504.77,250.12L505.13,249.61L506.22,249.81L506.58,261.63L506.94,264.97L507.3,251.46L507.67,260.79L508.03,249.64L508.39,249.84L508.75,261.04L509.12,272.46L509.48,261.37L509.84,251.69L510.2,262.81L510.56,262.58L510.93,251.44L512.38,258.06L512.74,253.69L513.1,253.7L513.46,258.13L513.83,258.2L514.19,266.48L514.91,270.65L515.28,267.14L515.64,267.34L516,264.49" style="vector-effect: non-scaling-stroke; fill: none; stroke: rgb(99, 110, 250); stroke-opacity: 1; stroke-width: 2px; opacity: 1;"/></g><g class="points"/><g class="text"/></g><g class="trace scatter tracec6755c" style="stroke-miterlimit: 2; opacity: 1;"><g class="fills"/><g class="errorbars"/><g class="lines"><path class="js-line" d="M0,217.24L1.09,208.17L1.45,181.89L1.81,184.91L2.17,213.79L2.9,207.96L3.26,208.11L3.62,208.46L4.35,150.73L4.71,211.77L5.44,193.66L5.8,196.7L6.16,199.68L6.52,232.9L6.88,188.6L7.61,215.56L7.97,199.23L8.33,199.51L8.7,204L9.06,221.45L9.42,194.38L9.78,230.62L10.15,214.25L10.51,196.94L10.87,198.59L11.23,204.84L11.6,209.86L11.96,184.28L12.32,205.02L13.04,204.76L13.41,197.7L13.77,204.87L14.13,187.44L14.49,176.22L14.86,180.46L15.22,204.77L16.31,199.24L16.67,179.1L17.03,147.64L17.39,166.01L17.76,199.33L18.84,199.16L19.21,178.15L20.65,205.73L21.02,198.96L21.38,198.32L21.74,190.49L22.1,176.98L22.47,232.51L23.19,211.65L23.55,212.77L23.92,223.57L24.28,195.11L24.64,214.09L25,237.49L26.09,207.72L26.45,222.84L26.81,222.19L27.18,195.03L27.54,241.9L27.9,227.13L28.26,231.98L28.63,226.26L28.99,232L29.35,211.06L29.71,199.44L30.08,222.57L30.44,231.07L30.8,219.79L31.16,220.88L31.53,232.15L31.89,232.48L32.25,211.29L32.97,232.28L33.34,227.17L33.7,222.43L34.06,232.28L34.42,248.72L34.79,201.48L35.15,244.27L35.51,227.43L35.87,223.65L36.24,212.69L36.6,223.62L36.96,228.93L37.32,195.81L37.69,229.2L38.05,233.06L38.77,202.05L39.13,216.87L39.5,233.24L39.86,209.65L40.22,229L40.58,232.73L40.95,214.09L41.31,232.18L41.67,223.04L42.03,243.31L42.4,218.9L43.12,246.1L43.48,218.36L44.57,225.98L44.93,184.56L45.66,242.67L46.02,219.72L47.11,227.47L47.47,194.27L48.19,242.87L48.56,220.83L49.64,230.66L50.01,193.48L50.73,242.07L51.09,229.7L51.46,225.83L51.82,230.21L52.18,246.72L52.54,198.06L53.27,246.17L53.63,219.94L54.72,230.82L55.44,220.59L55.8,241.28L56.17,218.23L56.89,223.27L57.25,223.09L57.62,219.92L57.98,223.51L58.34,250.73L58.7,222.04L59.43,222.23L59.79,223.3L60.15,214.96L60.51,262.42L60.88,261.56L61.24,244.86L61.6,265.13L61.96,238L62.33,238.73L62.69,218.45L63.05,264.96L63.41,264.91L63.78,253.27L64.14,264.07L64.5,235.75L65.59,265.76L65.95,266.27L67.04,227.78L67.4,238.22L67.76,244.64L68.12,238.18L68.49,260.91L69.57,261.07L69.94,265.14L70.66,237.69L71.02,265.15L71.38,260.1L71.75,265.79L73.2,248.08L73.56,267.02L74.28,263.84L74.65,265.62L75.01,265.71L75.37,254.6L75.73,248.01L76.1,265.8L76.46,261.06L76.82,238.51L77.18,238.51L77.54,237.44L77.91,187.56L78.27,230.94L78.63,234.89L79.36,228.92L79.72,229.65L80.08,238.96L80.44,185.11L80.81,230.86L81.17,234.89L81.89,233.71L82.26,233.85L82.62,238.96L83.34,231.98L83.71,235.96L84.79,227.94L85.15,233.03L85.52,237.55L85.88,234.46L86.24,229.03L86.6,224.64L86.97,199.9L88.05,269.62L88.42,235.84L89.14,226.07L89.5,203.44L90.59,272.74L90.95,241.36L92.04,215.75L92.4,240.19L92.76,215.92L93.49,216.76L93.85,216.31L94.21,215.19L94.58,211L94.94,210.99L95.3,215.52L95.66,216.19L96.03,215.33L96.39,214.97L97.47,210.71L97.84,214.79L98.2,216.77L98.56,215.91L98.92,215.69L99.65,200.67L100.01,210.59L101.1,221.17L101.46,215.44L101.82,216.68L102.19,244.01L102.55,248.96L102.91,216.75L104,256.86L104.36,247.96L104.72,247.78L105.08,256.48L105.45,256.88L105.81,252.66L106.53,252.83L106.9,247.79L107.26,247.94L107.62,244.07L107.98,222.14L108.35,252.24L109.43,217.26L109.79,223.35L110.16,228.58L110.52,221.78L110.88,252.99L111.24,226.66L111.61,226.41L112.69,253.91L113.06,224.52L113.42,252.79L113.78,237.82L114.14,238.12L114.51,233.36L114.87,248.14L115.23,248.27L115.59,238.43L116.32,252.11L116.68,236.94L117.04,233.21L117.4,248.26L117.77,248.26L118.13,220.96L119.22,237.97L119.58,230.67L120.3,230.47L120.67,220.63L121.03,235.37L121.39,227.36L121.75,213.32L122.12,240.09L122.84,239.67L123.2,239.43L123.56,239.73L123.93,227.78L124.29,213.18L124.65,219.81L125.01,225.1L125.38,212.66L125.74,213.2L126.1,227.76L126.46,227.96L126.83,235.26L127.91,226.92L128.28,234.22L129,215.43L129.36,238L129.72,237.43L130.09,220.3L130.81,218.6L131.17,233L131.54,233.02L131.9,165.28L132.99,233.05L133.35,218.27L134.44,232.34L134.8,231.98L135.52,231.89L135.88,217.29L136.97,232.16L137.33,226.83L138.06,235.81L138.42,221.06L138.78,231.59L139.15,220.95L139.51,220.66L139.87,234.85L140.23,231.27L140.6,227.1L140.96,226.19L141.32,203.72L141.68,225.42L142.04,218.43L142.41,215.98L143.86,223.37L144.22,223.26L144.58,219.58L144.94,223.6L145.31,220.11L146.39,225.34L146.76,223.12L147.12,218.11L147.48,224.97L147.84,224.96L148.21,226.47L148.93,219.98L149.29,220.94L149.65,220.75L150.38,222.47L150.74,223.57L151.1,229.08L151.47,224.9L151.83,228.35L152.19,225.39L152.55,229.32L152.92,225.81L153.28,227.29L153.64,227.29L154.37,225.47L154.73,226.42L155.81,226.15L156.18,236.99L156.9,226.31L157.26,233.86L157.63,237.74L157.99,233.89L158.35,234.15L158.71,238.08L159.08,220.25L159.44,223.33L159.8,219.92L160.89,231.61L161.25,231.68L161.97,227.56L162.34,227.67L162.7,229.69L163.79,222.2L164.15,231.4L164.51,233.03L164.87,230.91L165.24,227.59L165.6,231.61L166.32,215.79L166.69,228.58L167.77,236.77L168.13,232.22L168.5,237.26L168.86,236.04L169.22,232.79L169.58,233.02L169.95,237.52L170.67,236.67L171.03,237.23L171.4,236.63L171.76,214.25L172.12,203.2L172.48,206.91L172.85,211.75L173.93,216.13L174.29,195.15L174.66,192.88L175.02,220.86L175.38,211.31L176.11,211.62L176.47,220.31L177.19,191.85L177.56,247.66L177.92,247.51L178.28,236.84L179.01,250.97L179.37,235.38L179.73,236.05L180.09,267.2L180.82,267.74L181.18,268.13L181.9,250.55L182.27,250.74L182.63,268.61L183.35,242.74L183.72,262.84L184.08,226.48L184.44,237.18L184.8,243.35L185.17,253.75L185.53,252.36L185.89,251.62L186.98,220.01L187.34,223.48L188.06,251.62L188.43,249.28L188.79,253.31L189.15,253.3L189.51,235.48L190.6,250.12L190.96,245.89L191.33,245.66L191.69,227.36L193.14,257.21L193.5,239.02L194.22,251.76L194.59,237.44L195.31,254.64L195.67,248.43L196.76,248.58L197.12,245.63L197.85,250.56L198.21,245.66L198.57,247.06L198.94,246.93L199.3,251.39L199.66,234.18L200.02,246.45L200.38,252.28L200.75,252.94L201.11,255.41L201.47,255.27L201.83,248.15L202.2,247.31L202.56,252.64L203.28,245.84L203.65,249.7L204.01,240.55L204.37,247.61L204.73,253.79L205.1,259.12L205.46,247.08L206.54,237.76L206.91,235.78L207.27,225.63L207.63,253.7L208.72,241.34L209.08,246.39L209.44,240.04L209.81,254.64L210.53,252.17L210.89,241.11L211.62,252.18L211.98,251.97L212.34,248.48L213.07,252.34L213.43,251.8L213.79,245.89L214.88,253.37L215.24,253.02L216.33,251.1L216.69,250.98L217.05,251.62L217.42,254.19L219.59,250.74L219.95,263.93L220.31,263.2L220.68,251.83L221.4,264.09L221.76,253.91L222.13,248.71L222.49,253.41L222.85,262.5L223.21,252.94L223.58,263.78L224.3,263.94L224.66,263.1L225.03,278.52L225.39,249.92L225.75,250.35L226.11,245.88L226.84,240.54L227.2,244.8L227.56,246.79L227.92,217.18L229.01,221.53L229.37,220.97L229.74,249.78L230.1,217.32L230.46,246.65L230.82,221.36L231.19,221.36L232.27,221.82L232.63,239.08L233,214.53L233.36,242.51L234.08,221.63L234.45,245.29L235.53,217.87L235.9,246.4L237.35,242.85L237.71,203.81L239.16,267.36L239.52,267.36L239.88,268.23L240.24,258.88L240.97,261.77L241.33,261.25L241.69,261.27L242.06,271.6L242.42,263.11L242.78,259.39L243.14,259.4L243.51,232.24L244.23,261.72L244.59,257.45L244.96,257.02L245.32,253.44L245.68,259.91L246.04,256.8L246.4,256.61L247.49,256.24L247.85,259.95L248.22,255.67L248.58,256.8L248.94,256.8L249.3,256.76L249.67,255.96L250.39,255.28L250.75,255.19L251.84,255.96L252.2,266.09L252.56,265.61L252.93,269.91L253.29,257.99L253.65,258.95L254.01,270.53L254.38,270.47L254.74,258.59L255.1,256.01L255.46,197.76L256.19,208.29L256.55,168.78L256.91,171.84L257.28,210.98L258.36,229.48L258.72,201L259.45,229.52L259.81,229.51L260.17,229.53L261.26,211.98L261.62,217.76L261.99,221.83L262.71,241.02L263.07,216.64L263.44,216.67L263.8,183.88L264.88,213.63L265.25,213.62L265.97,213.01L266.33,211.97L267.06,240.89L267.42,226.32L267.78,226.39L268.15,198.95L268.87,197.33L269.23,226.21L269.96,226.21L270.32,222.87L270.68,219.1L271.04,197.93L271.41,197.77L271.77,226.08L272.49,226.21L272.86,224.29L273.22,208.04L273.58,212.7L273.94,215.66L275.03,194.17L275.39,183.64L276.12,198.6L276.48,170.16L276.84,199.31L277.21,199.14L277.57,184.26L277.93,180.69L278.29,202.33L278.65,203.2L279.02,197.36L280.1,207.63L280.47,207.03L280.83,204.34L281.19,204.83L281.55,207.52L281.92,207.64L282.28,208.69L283,208.77L283.37,185.48L283.73,244.02L284.45,243.91L284.81,243.91L285.54,243.42L285.9,239.73L286.26,239.57L286.63,243.77L286.99,243.92L287.35,199.16L287.71,263.31L288.08,262.5L288.44,231.15L288.8,230.58L289.16,254.61L289.89,254.79L290.25,259.04L290.61,260.91L290.97,215.51L291.34,215.89L291.7,256.31L292.06,260.89L292.42,260.61L292.79,256.5L293.15,126.36L293.51,237.91L293.87,211.41L294.96,241.53L295.32,241.39L295.69,230.79L296.05,162.4L296.41,162.42L296.77,182.5L297.13,182.57L297.5,183.69L298.95,138.6L299.31,144.21L300.76,144.84L301.12,124.03L301.48,156.89L301.85,145.21L302.21,145.19L302.57,183.22L302.93,183L303.29,179.92L303.66,177.38L304.02,153.72L304.74,200.9L305.11,199.29L305.47,199.54L306.92,160.15L307.28,183.53L308.01,183.56L308.37,198.33L308.73,174.52L309.09,175.61L309.46,201.91L310.54,202.07L310.9,216.7L311.63,156.44L311.99,186.74L312.35,186.21L312.72,201.04L313.08,186.51L313.44,201.24L313.8,189.96L314.17,166.83L314.53,176.03L314.89,201.46L315.25,201.33L315.62,192.61L316.7,193.14L317.06,178.74L317.43,178.89L317.79,193.24L318.51,186.61L318.88,217.12L319.24,178.66L319.6,198.65L319.96,202.8L320.33,203.12L320.69,202.68L321.05,202.42L321.41,216.8L321.78,212.72L322.14,198.18L322.86,218.26L323.22,218.06L323.59,223.22L324.31,209.02L324.67,213.92L325.04,217.57L325.4,242.83L326.85,210.51L327.21,233.88L327.57,217.68L327.94,240.15L328.66,233.32L329.02,247.68L329.38,227.92L329.75,233.04L330.11,247.48L331.92,247.27L332.28,249.92L333.01,247.34L333.37,247.55L333.73,246.6L334.82,239.07L335.18,252.09L337.36,252.16L337.72,261.57L338.44,261.44L338.81,262.5L339.53,248.08L339.89,252.23L340.62,263.2L340.98,263.18L341.34,263.2L342.07,248.33L342.43,248.8L342.79,262.77L343.15,258.88L343.52,235.28L344.24,224.73L344.6,231.35L344.97,231.84L345.33,235.7L346.42,258.96L346.78,252.31L347.14,248.39L347.5,251.54L347.87,262.96L348.95,263.16L349.31,261.58L349.68,253.54L350.04,254.88L350.4,262.5L351.49,262.68L351.85,31.71L352.58,178.51L352.94,149.14L353.3,214.09L353.66,265.95L354.39,264.62L354.75,256.86L356.2,269.84L356.56,265.36L357.65,247.15L358.01,276.65L358.74,279.39L359.1,272.75L359.82,262.38L360.19,265.17L360.91,276.74L361.27,276.71L361.63,276.85L362.36,258.99L362.72,265.19L363.45,275.71L363.81,275.69L364.17,265.19L365.26,265.2L365.62,275.73L366.35,275.7L366.71,272.96L367.07,257.05L367.43,265.09L367.79,275.45L368.16,279.32L368.52,276.55L368.88,272.71L369.61,272.97L369.97,262L371.06,269.63L371.42,274.95L371.78,274.06L372.14,277.89L372.51,273.21L372.87,278.04L373.23,286.52L373.59,286.56L373.96,288.41L375.04,269.65L375.4,257.89L376.49,266.17L376.85,266.09L377.58,246.59L377.94,257.75L378.3,257.49L378.67,262L379.03,261.98L379.39,233.93L379.75,257.73L380.12,240.87L380.48,252.26L380.84,256.83L381.2,248.58L381.93,244.05L382.29,249.53L382.65,257.24L383.01,243.95L383.38,243.93L383.74,248.49L384.1,248.6L384.46,252.17L384.83,252.12L385.19,257.55L385.55,257.88L385.91,264.33L387.72,242.15L388.09,248.97L389.17,264.45L389.54,252.21L390.26,239.7L390.62,239.95L390.99,239.88L391.35,217.61L391.71,239.87L392.07,239.73L392.44,252.2L392.8,249.6L393.16,244.83L393.52,245.16L393.88,249.94L394.61,253.53L394.97,230.44L395.33,230.45L395.7,253.54L396.06,253.48L396.42,224.47L397.51,253.64L397.87,253.58L398.23,257.46L398.6,253.69L398.96,253.65L399.32,258.16L399.68,254.29L400.04,252.88L400.41,248.35L400.77,252.14L401.13,252.92L401.49,244.74L402.22,244.78L402.58,248.44L402.94,248.33L403.31,249.39L404.39,248.29L404.76,249.2L405.48,239L405.84,219.7L406.21,240.17L406.57,233.52L406.93,236.87L407.29,237.02L407.65,241.79L408.02,238L408.38,240.84L408.74,245.71L409.47,246.17L409.83,249.47L410.55,238.41L410.92,248.84L411.64,235.25L412,235.45L412.37,241.84L412.73,200.35L413.09,222.67L413.45,218.21L413.81,218.78L414.18,221.72L415.26,254.6L415.63,259.43L415.99,249.74L416.35,253.62L416.71,255.2L417.44,259.06L417.8,255.25L418.16,245.44L418.53,259.07L419.97,259.07L420.34,255.95L421.06,259.77L421.42,247.57L422.51,259.2L422.87,259.17L423.24,251.43L423.6,213.51L423.96,203.03L424.32,232.14L424.69,232.59L425.05,244.54L425.41,200.54L425.77,225.71L426.13,232.48L427.22,250L427.58,250.02L427.95,257.57L428.31,243.86L428.67,256.46L429.03,255.01L429.4,248.94L430.12,269.79L430.48,258.34L431.57,251.89L431.93,271.23L433.02,248.43L433.38,251.23L433.74,248.22L434.11,262.55L435.19,241.36L435.56,252.69L436.28,233.13L436.64,245.04L437.73,245.26L438.09,221.48L438.82,256.48L439.18,245.22L440.27,245.03L440.63,235.11L440.99,250.35L441.35,242.59L441.72,246.35L442.8,246.35L443.17,243.39L443.89,242.95L444.25,247.14L444.62,247.16L444.98,244.52L445.34,244.54L445.7,251.16L446.43,237.98L446.79,244.32L447.15,244.52L447.88,244.54L448.24,249.31L448.6,249.58L448.96,243.95L450.05,244.56L450.41,244.55L451.14,190.45L451.5,243.98L452.22,243.61L452.59,244.49L452.95,244.58L453.31,239.06L453.67,250.41L454.04,237.21L454.76,244.35L455.12,244.33L455.49,244.33L456.21,239.75L456.57,244.33L458.02,244.58L458.38,208.82L459.47,242.64L459.83,239.96L460.56,239.29L460.92,235.77L461.28,236.65L461.65,241.66L463.1,243.11L463.46,243.64L464.54,242.87L464.91,242.91L465.27,241.78L465.63,233.97L465.99,256.77L466.36,224.09L467.08,208.15L467.44,209.22L467.81,210.82L468.17,237.05L468.53,234.08L468.89,230.95L469.26,227.16L469.62,215.09L469.98,215.63L470.34,217.56L471.07,241.77L471.43,237.43L471.79,235.08L472.88,232.58L473.24,235.5L475.05,222.78L475.42,220.09L476.5,233.13L476.87,222.03L477.23,215.29L477.59,215.68L477.95,222.04L478.31,224.37L478.68,224.09L479.04,221.43L480.13,215.82L480.49,224.55L481.21,224.3L481.58,221.49L481.94,224.63L482.3,221.93L482.66,218.42L483.75,224.59L484.11,217.64L484.84,224.57L485.2,223.96L485.56,223.96L485.92,221.18L486.29,220.95L486.65,217.8L487.01,187.35L487.37,221.38L487.74,221.38L488.1,223.99L488.82,221.39L489.19,217.56L490.27,223.92L490.63,223.92L491,223.91L491.36,218.23L492.08,224L492.45,223.75L492.81,223.75L493.17,224.53L493.53,221.87L493.9,176.48L494.26,214.81L494.62,215.32L494.98,221.49L495.35,218.82L495.71,217.39L496.07,223.58L496.43,205.68L497.52,220.97L497.88,220.98L498.61,220.96L498.97,239.52L499.33,242.45L499.69,217.47L500.42,216.78L500.78,217.39L501.51,217.39L501.87,243.23L502.96,216.5L503.32,220.52L503.68,220.48L504.04,246.48L504.4,254.54L504.77,218.09L505.85,232.57L506.22,232.58L506.58,260.61L507.3,259.99L507.67,259.93L508.03,259.99L508.39,240.42L508.75,240.7L509.12,260.57L509.84,260.08L510.2,240.71L510.93,240.7L511.29,233.5L511.65,230.01L512.01,244.7L513.46,232.22L513.83,232.83L514.55,266.14L514.91,232.92L515.64,235.34L516,229.34" style="vector-effect: non-scaling-stroke; fill: none; stroke: rgb(239, 85, 59); stroke-opacity: 1; stroke-width: 2px; opacity: 1;"/></g><g class="points"/><g class="text"/></g><g class="trace scatter tracef0fc20" style="stroke-miterlimit: 2; opacity: 1;"><g class="fills"/><g class="errorbars"/><g class="lines"><path class="js-line" d="M0,238.69L0.36,239.42L0.72,242.51L1.09,241.55L1.45,241.73L1.81,255.15L2.17,263.16L2.54,242.26L3.62,241.71L3.99,246.5L5.07,263.82L5.44,255.36L5.8,239.07L6.16,256.96L6.52,260.83L6.88,255.49L7.61,260.67L7.97,239.09L8.33,239.09L8.7,243.91L9.42,235.68L9.78,252.72L10.15,252.3L10.51,235.74L10.87,235.75L11.23,225.97L11.6,237.52L11.96,233.64L12.32,229.65L12.68,214.35L13.04,235.68L13.77,235.73L14.13,197.56L14.86,235.94L15.22,235.19L15.58,233.78L16.31,238.81L16.67,187.84L17.39,239.61L17.76,234.86L18.12,238.59L18.48,238.57L18.84,242.53L19.21,217.38L19.57,235.08L19.93,256.7L21.02,238.08L21.38,241.17L22.1,234.25L22.47,256.27L22.83,263.55L23.19,251.14L23.92,250.94L24.28,246.73L24.64,243.37L25,263.44L25.73,241.7L26.09,246.78L26.45,250.57L26.81,250.57L27.18,266.88L27.54,264.05L27.9,249.07L28.63,232.74L28.99,232.77L29.35,249.66L30.08,247.66L30.44,247.96L30.8,247.97L31.16,232.82L31.53,233.32L31.89,249.7L32.25,276.56L32.61,249.34L32.97,233.32L33.7,233.41L34.06,233.86L35.15,264.4L35.51,231.01L35.87,230.67L36.24,221.88L36.96,246.82L37.32,284.76L38.05,231.94L38.77,232.41L39.13,248.82L39.5,251.85L39.86,262.47L40.58,232.48L41.31,232.55L41.67,248.4L42.03,278.72L42.4,270.23L42.76,270.26L43.48,273.77L43.85,254.37L44.21,246.23L44.57,257.18L45.29,276.44L45.66,260.53L46.02,260.54L46.38,257.42L46.74,260.54L47.11,276.7L47.83,274.62L48.19,275L48.56,275L48.92,258.71L49.28,247.73L49.64,268.38L50.01,267.98L50.37,274.61L51.09,258.58L51.46,274.7L52.18,274.32L52.54,275.86L52.9,275.86L53.27,274.44L53.63,276.17L54.72,275.86L55.44,269.09L55.8,275.93L57.25,251.13L57.62,267.16L58.34,267.21L58.7,250.94L59.06,251.25L59.43,266.93L59.79,266.2L60.15,266.42L60.51,266.44L61.6,266.82L61.96,266.44L62.33,266.79L62.69,265.7L63.41,265.12L63.78,264.67L64.14,265.44L64.5,265.08L64.86,265.06L66.31,265.31L66.67,265.52L67.04,264.97L67.4,265.48L67.76,266.29L68.12,266.14L68.49,261.58L68.85,261.73L69.21,266.78L71.75,266.67L72.11,267.03L72.47,267.03L72.83,275.9L73.92,264.57L74.28,267.02L74.65,263.1L75.01,266.96L75.37,272.58L75.73,276.31L76.1,263.13L76.46,263.28L76.82,267.05L77.18,267.14L77.54,239.77L78.27,241.93L78.63,235.94L78.99,232.34L79.36,236.21L80.08,235.9L80.44,268.58L81.17,236.07L81.53,240.24L81.89,240.38L82.62,240.08L82.98,268.98L83.71,236.33L84.07,259.43L84.43,245.59L84.79,267.37L85.15,241.86L85.52,265.43L85.88,268.47L86.24,236.15L86.6,273.17L86.97,272.76L87.33,263.47L88.42,276.17L88.78,273.16L89.14,273.62L89.5,273.3L89.87,273.3L90.59,272.34L90.95,276.51L91.31,251.13L91.68,273.05L92.04,276.15L92.76,276.09L93.13,270.81L93.49,272.98L93.85,251.12L94.58,285.61L94.94,281.75L95.3,258.43L95.66,275.02L96.03,281.72L97.11,252.62L97.47,256.6L97.84,257.94L98.2,281.85L98.56,284.9L98.92,258.51L99.29,258.39L99.65,279.47L100.01,251.92L100.37,258.1L100.74,281.91L101.1,285.84L101.46,258.09L101.82,289.2L102.19,259.6L102.55,285.37L103.27,289.69L103.63,256.76L104.36,263.73L104.72,259.89L105.08,259.51L105.45,262.97L105.81,256.37L106.17,259.65L106.53,259.61L106.9,263.36L107.26,259.71L107.62,259.71L107.98,263.24L108.35,259.1L108.71,256.32L109.07,259.19L109.43,263.57L109.79,235.12L110.16,238.96L110.52,263.59L110.88,292.85L111.24,263.79L111.61,264.31L113.06,263.95L113.42,292.92L113.78,260.47L114.14,264.15L114.51,263.88L114.87,260.34L115.23,263.78L115.59,263.55L115.96,289.25L116.32,260L116.68,263.61L117.04,259.62L118.13,259.66L118.49,256.08L118.85,257.12L119.22,263.79L119.58,264.15L119.94,260.34L120.3,263.88L120.67,263.37L121.03,260.07L121.39,257.19L121.75,261.3L122.12,264.16L122.48,263.68L122.84,263.19L123.2,263.25L123.56,258.3L123.93,258.38L124.29,247.04L124.65,263.52L125.01,263.39L125.38,251.53L125.74,246.65L126.1,250.15L126.46,247.27L126.83,247.6L127.19,252.98L127.55,253L127.91,251.9L128.28,254.17L128.64,253.56L129,234.09L129.36,268.3L129.72,237.54L130.09,263.13L131.17,255.88L131.54,258.9L132.26,255.86L132.62,258.13L133.71,256.37L134.07,253.01L135.16,259.9L135.52,256.71L136.25,260.75L136.61,256.68L136.97,256.82L137.33,261.05L138.06,260.75L138.42,243.53L138.78,242.4L139.15,251.53L140.23,261.3L140.6,260.93L140.96,260.92L141.32,243.66L141.68,239.5L142.04,260.92L142.41,260.92L142.77,244.07L143.13,261.29L143.49,243.81L143.86,243.43L144.22,240.31L144.58,257L145.67,260.93L146.03,243.74L146.39,248.64L146.76,239.43L147.12,265.33L147.48,243.57L147.84,244.24L148.21,248.66L148.57,243.26L148.93,240.22L149.29,241.36L149.65,248.59L150.38,241.3L150.74,244.96L151.1,246.62L151.47,242.69L151.83,242.96L152.19,247.14L153.28,252.85L153.64,252.54L154.37,240.52L154.73,248.31L155.09,251.39L155.45,248.1L155.81,247.52L156.18,251.68L156.54,250.64L156.9,251.22L157.26,247.83L157.63,252.05L157.99,247.56L158.35,247.88L158.71,251.72L159.08,237.84L159.44,242.83L159.8,251.23L160.89,263.11L161.25,248.54L162.34,266.36L162.7,266.37L163.79,265.99L164.15,299.88L164.87,299.89L165.24,301.09L165.6,266.03L165.96,266.04L166.32,295.04L167.77,301.13L168.13,268.24L168.5,272.11L168.86,298.09L169.22,297.16L169.58,300.17L169.95,298.18L170.31,301.62L170.67,301.07L171.03,298.27L171.4,301L171.76,275.29L172.12,270.31L172.48,238.44L172.85,246.64L173.57,246.28L173.93,275.63L174.66,225.27L175.02,225.66L175.38,254.08L176.47,253.4L176.83,282.13L177.19,280.28L177.56,251.52L178.28,282.51L178.64,282.49L179.01,274.53L179.37,287.8L179.73,286.02L180.09,271.77L181.18,303.4L181.54,303.08L182.99,303.41L183.35,294.84L183.72,294.87L184.08,291.06L184.44,290.09L184.8,299.09L185.89,283.68L186.25,280.33L187.34,279.92L187.7,285.82L188.06,289.52L188.43,283.67L189.51,283.26L189.88,291.2L190.96,282.27L191.33,283.16L191.69,282.89L192.05,273.75L192.41,273.77L192.78,288.07L193.86,278.9L194.22,281.62L194.95,289.99L195.31,289.85L195.67,287.43L196.4,287.89L196.76,287.62L197.12,283.06L197.49,285.93L197.85,284.04L198.21,283.57L198.57,286.3L198.94,286.3L199.3,284.93L201.11,289.12L201.47,282.09L202.2,285.71L202.56,261.93L203.65,286.02L204.01,286.02L204.37,281.73L204.73,287.7L205.1,289.74L205.46,240.82L206.54,276.5L206.91,283.85L207.99,256.72L208.36,284.19L209.08,283.86L209.44,285.15L210.17,267.33L210.53,291.39L211.62,291.73L211.98,278.79L212.71,265.06L213.07,291.64L213.43,291.75L213.79,290.66L214.15,291.11L214.52,290.62L214.88,292.95L215.24,264.77L215.6,291.14L215.97,291.13L217.05,291.1L217.42,266.42L218.14,291L218.5,290.8L218.87,290.06L219.23,286.67L219.59,288.62L219.95,288.82L220.31,264.34L220.68,291.16L221.76,290.81L222.13,293.26L222.49,292.95L222.85,263.24L223.58,292.53L223.94,292.13L224.3,292.1L224.66,292.71L225.03,278.09L225.39,277.63L225.75,279.47L226.11,279.52L226.47,277.01L227.56,284.04L227.92,278.56L228.29,284.16L228.65,277.78L229.37,284.71L229.74,283.8L230.1,280.84L230.46,280.84L230.82,284.48L231.55,284.4L231.91,284.1L232.27,284.43L232.63,273L233,273.01L233.36,276.33L234.08,276.56L234.45,281.7L234.81,281.7L235.17,284.61L235.53,281.14L235.9,284.3L236.26,284.71L236.62,284.45L236.98,282.24L237.35,284.69L237.71,247.36L238.79,286.25L239.16,283.85L239.88,284.02L240.24,279.35L240.61,278.97L240.97,244.89L242.06,284.89L242.42,273.81L243.14,274.76L243.51,272.61L244.23,272.62L244.59,268.34L245.32,267.85L245.68,265.59L246.04,264.99L246.4,267.28L247.13,267.28L247.49,266.52L247.85,271.11L248.22,261.33L248.94,267.08L249.3,266.11L250.03,265.64L250.39,262.21L250.75,261.98L251.12,265.49L252.56,265.86L252.93,270.45L254.01,254.97L254.38,271.04L254.74,255.35L255.1,258.52L255.46,208.15L256.55,208.74L256.91,211.77L257.28,211.46L257.64,224.21L258.72,229.44L259.09,229.45L259.81,229.96L260.17,228.73L261.26,209.38L261.62,219.27L261.99,211.67L262.35,233.28L262.71,234.51L263.07,233.26L263.44,233.29L263.8,233.21L264.16,231.26L264.52,213.15L264.88,233.31L265.25,215.05L265.61,234.5L265.97,186.45L266.33,237.87L266.7,191.4L267.06,214.55L267.42,176.85L268.15,176.42L268.51,171.87L268.87,223.65L269.23,177.29L269.6,177.15L269.96,200.14L270.32,176.41L270.68,187.2L271.04,171.87L271.41,200.14L272.13,200.42L272.49,223.57L272.86,223.26L273.22,187.64L273.58,189.39L273.94,237.46L274.31,238.14L274.67,223.54L275.03,217.67L275.39,194.14L276.12,180.97L276.48,232.34L276.84,232.65L277.21,208.23L277.93,214.28L278.29,209.91L278.65,206.33L279.02,230.35L279.74,231.02L280.1,230.72L280.47,231.97L280.83,210.99L281.19,206.45L281.55,235.01L283,235.33L283.37,234.6L284.45,235.29L284.81,266.25L285.18,235.36L285.54,265.97L285.9,266.62L287.35,202.14L287.71,251.5L288.08,266.22L288.44,257.51L288.8,232.4L289.16,257.21L289.53,242.51L289.89,244.41L290.61,244.4L290.97,259.53L291.34,231.27L291.7,243.84L292.06,244.21L292.42,244.19L292.79,240.1L293.15,209.29L293.51,241.37L293.87,240.16L294.6,244.43L294.96,244.09L295.32,239.6L296.41,139.51L296.77,166.42L297.86,168.48L298.22,167.9L298.95,116.85L299.31,144L299.67,119.61L300.03,143.96L300.4,143.82L300.76,144.4L301.12,140.9L301.48,155.27L301.85,144.96L302.21,144.98L302.57,182.43L302.93,182.41L303.29,178.8L303.66,178.3L304.02,154.52L305.11,180.9L305.47,179.29L305.83,179.36L306.19,183.17L306.56,154.6L306.92,183.71L307.28,183.52L308.37,183.26L308.73,200.82L309.09,172.74L309.46,201.32L309.82,201.73L310.9,202L311.27,159.37L311.63,159.25L311.99,201.91L312.35,186.58L312.72,202.13L313.08,202.1L313.44,201.81L313.8,191.49L314.17,179.03L314.53,191.73L314.89,191.83L315.25,217L315.62,206.19L315.98,193.97L316.34,206.79L316.7,181.55L317.06,194.22L317.43,170.91L318.88,194.62L319.24,185.61L319.96,214.2L320.33,198.96L321.05,198.4L321.41,170.94L322.5,197.84L322.86,197.84L323.22,213.6L323.59,206.48L323.95,186.24L324.31,181.95L324.67,209.62L325.04,209.9L325.4,217.45L325.76,213.59L326.12,217.47L326.49,191.68L326.85,186.36L327.21,210.08L327.57,210.23L327.94,218.25L329.02,214.7L329.38,186.26L330.47,219.09L330.83,219.1L331.2,221.6L331.56,217.75L331.92,192.82L332.28,215.6L332.65,218.95L333.01,218.95L333.37,221.43L333.73,217.86L334.1,223.02L334.46,196.56L334.82,213.26L335.18,223.79L335.54,213.5L335.91,231.45L336.27,229.17L336.63,247.46L337.36,216.87L337.72,232.05L338.08,227.86L338.44,242.63L338.81,234.41L339.17,251.33L339.53,223.46L339.89,237.32L340.26,252.04L340.62,267.18L340.98,259.29L341.34,262.5L342.07,88.31L342.43,145.78L342.79,116.39L343.88,155.04L344.24,151.96L345.69,235.33L346.05,235.19L346.42,235.37L346.78,231.82L347.14,207.08L347.5,248.23L347.87,237.51L348.23,251.9L348.95,252.35L349.31,247.13L349.68,247.49L350.04,254.9L350.4,252.75L350.76,256.84L351.13,256.41L351.49,187.38L352.21,16L352.58,38.19L352.94,61.64L353.3,151.9L354.75,265.77L355.11,270.86L355.84,278.58L356.2,278.36L356.56,278.03L357.29,266.04L357.65,266.75L358.01,283.08L359.1,272.54L359.46,257.88L359.82,253.71L360.19,262.45L360.91,260.4L361.27,277.89L361.63,275.94L362,280.89L362.36,263.48L362.72,275.05L363.08,276.92L363.81,277L364.17,275.86L364.9,249.87L365.26,251.17L365.62,263.08L365.98,264.99L366.35,264.76L366.71,264.7L367.43,254.77L367.79,262.87L368.52,267.68L368.88,271.36L369.97,255.36L370.33,264.32L370.69,260.5L371.06,262.11L371.42,262.11L372.51,282.36L372.87,268.01L373.23,283.22L373.59,278.24L373.96,273.66L374.32,291.48L374.68,279.74L375.04,271.74L375.77,247.56L376.13,265.07L376.49,275.37L376.85,274.97L377.22,270.22L377.94,252.9L378.3,265.17L378.67,265.07L379.03,287.67L380.12,247.51L380.48,262.85L381.2,268L381.56,245.8L381.93,264.74L382.29,260.05L382.65,256.08L383.38,265.58L384.1,269.34L385.19,256.3L385.55,258.04L385.91,269.88L386.64,269.89L387,261.39L387.36,259.85L387.72,243.74L388.09,246.89L388.45,265.28L389.17,262.47L389.54,249.81L390.99,238.03L391.35,222.08L392.44,255.6L392.8,249.94L393.16,250.26L393.52,239.15L394.61,252.37L394.97,220.17L396.06,252.1L396.42,240.87L397.51,257.19L397.87,253.82L398.23,257.6L398.96,257.47L399.32,256.5L399.68,257.15L400.04,256.39L400.41,250.53L401.49,256.55L401.86,256.52L402.22,255.57L402.58,251.71L403.67,252.17L404.03,252.47L404.39,254.84L404.76,262.73L405.12,261.07L405.48,254.14L406.21,257.03L406.57,252.59L407.29,257.37L407.65,255.86L408.02,253.92L408.38,257.45L409.83,241.86L410.19,247.28L410.55,246.19L411.28,252.07L412,262.81L412.37,262.11L412.73,242.09L413.81,258.35L414.18,258.37L414.54,257.63L414.9,261.69L415.63,261.3L415.99,261.99L418.16,261.17L418.53,262.1L419.61,261.17L419.97,260.97L420.7,265.27L421.06,261.38L422.15,261.38L422.51,265.8L423.24,264.02L423.6,265.57L425.05,265.83L425.41,260.03L426.13,260.27L426.5,260.73L427.58,260.52L427.95,262.53L428.31,273.46L428.67,261.01L429.03,259.88L429.4,261.35L430.12,261.24L430.48,272.83L430.85,272.76L431.21,266.43L431.93,266.03L432.29,259.34L432.66,260.1L433.02,255.35L433.38,251L433.74,259.07L434.11,257.66L434.47,246.89L435.19,246.76L435.56,247.7L436.64,247.82L437.01,248.37L437.37,247.79L437.73,248.33L438.09,186.98L439.18,248.15L439.54,248.53L440.63,249.98L440.99,245.46L442.08,250.45L442.44,250.28L442.8,250.17L443.17,245.9L443.53,245.33L443.89,249.84L444.25,250.63L444.62,227.3L445.34,226.75L445.7,221.83L446.06,221.81L446.43,226.65L447.51,226.73L447.88,226.73L448.6,221.66L448.96,223.41L449.33,223.73L450.05,223.48L450.41,164.01L450.78,166.43L451.14,232.3L451.5,221.91L451.86,222.72L452.22,223.71L452.95,223.93L453.31,223.46L453.67,221.43L454.04,223.35L454.4,223.01L455.49,223.49L455.85,226.08L456.57,222.67L456.94,223.3L457.3,223.94L458.02,223.58L458.38,220.84L459.47,223.3L459.83,219.29L460.92,223.8L461.28,210.87L461.65,219.51L462.01,216.71L462.37,216.55L463.46,225.98L463.82,224.49L464.18,213.32L464.54,217.39L464.91,222.07L465.63,221.56L465.99,231.91L466.36,239.51L466.72,219.03L467.44,245.94L467.81,245.68L468.17,245.24L468.89,266.84L469.26,247.54L470.34,245.26L470.71,247.16L471.07,267.29L471.43,265.27L471.79,259.36L472.15,256.61L472.52,245.76L472.88,245.76L473.24,256.99L473.97,263.53L474.33,243.83L474.69,240.71L475.05,241.24L475.42,243.55L475.78,234.73L476.14,251.93L476.5,264.53L476.87,233.84L477.59,234.1L477.95,236.42L478.31,236.53L478.68,254.1L479.04,249.52L479.4,234.11L480.49,234.52L480.85,245.6L481.21,250.73L481.58,245.27L482.3,230.16L482.66,245.53L483.03,245.08L483.39,236.69L484.47,253.66L484.84,236.52L485.2,235.86L485.56,253.56L485.92,253.24L486.29,251.65L487.37,242.13L487.74,242.21L488.1,241.89L488.46,253.14L488.82,252.27L489.19,248.12L489.55,249.3L489.91,242.3L490.27,242.3L490.63,238.39L491,249.13L491.36,248.42L491.72,248.15L492.08,249.24L492.45,237.85L493.17,238.2L493.53,249.44L494.62,239.14L494.98,239.35L496.07,249.56L496.43,229.29L496.79,243.6L497.16,226.21L497.52,226.52L497.88,251.34L498.61,251.31L498.97,270.88L499.33,270.9L499.69,247.72L500.42,248.41L500.78,253.31L501.14,253.27L501.51,274.62L501.87,274.62L502.23,253.29L503.68,253.94L504.04,283.44L505.49,256.44L505.85,257.21L506.22,256.68L506.58,287L506.94,282.49L507.3,265.5L507.67,265.46L508.03,254.81L509.12,283.17L509.48,282.9L509.84,264.74L510.2,265.29L510.56,264.93L510.93,264.36L512.01,254.67L512.38,270.75L512.74,260.55L513.46,260.71L513.83,255.73L514.19,279.15L514.55,276.4L514.91,254.79L515.64,262.57L516,258.9" style="vector-effect: non-scaling-stroke; fill: none; stroke: rgb(0, 204, 150); stroke-opacity: 1; stroke-width: 2px; opacity: 1;"/></g><g class="points"/><g class="text"/></g></g></g><g class="overplot"/><path class="xlines-above crisp" d="M0,0" style="fill: none;"/><path class="ylines-above crisp" d="M0,0" style="fill: none;"/><g class="overlines-above"/><g class="xaxislayer-above"><g class="xtick"><text text-anchor="middle" x="0" y="433" transform="translate(80,0)" style="font-family: 'Open Sans', verdana, arial, sans-serif; font-size: 12px; fill: rgb(42, 63, 95); fill-opacity: 1; white-space: pre;">2017</text></g><g class="xtick"><text text-anchor="middle" x="0" y="433" transform="translate(212.26,0)" style="font-family: 'Open Sans', verdana, arial, sans-serif; font-size: 12px; fill: rgb(42, 63, 95); fill-opacity: 1; white-space: pre;">2018</text></g><g class="xtick"><text text-anchor="middle" x="0" y="433" transform="translate(344.52,0)" style="font-family: 'Open Sans', verdana, arial, sans-serif; font-size: 12px; fill: rgb(42, 63, 95); fill-opacity: 1; white-space: pre;">2019</text></g><g class="xtick"><text text-anchor="middle" x="0" y="433" transform="translate(476.78,0)" style="font-family: 'Open Sans', verdana, arial, sans-serif; font-size: 12px; fill: rgb(42, 63, 95); fill-opacity: 1; white-space: pre;">2020</text></g></g><g class="yaxislayer-above"><g class="ytick"><text text-anchor="end" x="79" y="4.199999999999999" transform="translate(0,410.08)" style="font-family: 'Open Sans', verdana, arial, sans-serif; font-size: 12px; fill: rgb(42, 63, 95); fill-opacity: 1; white-space: pre;">0</text></g><g class="ytick"><text text-anchor="end" x="79" y="4.199999999999999" transform="translate(0,342.76)" style="font-family: 'Open Sans', verdana, arial, sans-serif; font-size: 12px; fill: rgb(42, 63, 95); fill-opacity: 1; white-space: pre;">0.01</text></g><g class="ytick"><text text-anchor="end" x="79" y="4.199999999999999" transform="translate(0,275.45)" style="font-family: 'Open Sans', verdana, arial, sans-serif; font-size: 12px; fill: rgb(42, 63, 95); fill-opacity: 1; white-space: pre;">0.02</text></g><g class="ytick"><text text-anchor="end" x="79" y="4.199999999999999" transform="translate(0,208.13)" style="font-family: 'Open Sans', verdana, arial, sans-serif; font-size: 12px; fill: rgb(42, 63, 95); fill-opacity: 1; white-space: pre;">0.03</text></g><g class="ytick"><text text-anchor="end" x="79" y="4.199999999999999" transform="translate(0,140.81)" style="font-family: 'Open Sans', verdana, arial, sans-serif; font-size: 12px; fill: rgb(42, 63, 95); fill-opacity: 1; white-space: pre;">0.04</text></g></g><g class="overaxes-above"/></g></g><g class="polarlayer"/><g class="ternarylayer"/><g class="geolayer"/><g class="funnelarealayer"/><g class="pielayer"/><g class="treemaplayer"/><g class="sunburstlayer"/><g class="glimages"/><defs id="topdefs-5f75dd"><g class="clips"/><clipPath id="legend5f75dd"><rect width="82" height="83" x="0" y="0"/></clipPath></defs><g class="layer-above"><g class="imagelayer"/><g class="shapelayer"/></g><g class="infolayer"><g class="legend" pointer-events="all" transform="translate(606.32, 100)"><rect class="bg" shape-rendering="crispEdges" width="82" height="83" x="0" y="0" style="stroke: rgb(68, 68, 68); stroke-opacity: 1; fill: rgb(255, 255, 255); fill-opacity: 1; stroke-width: 0px;"/><g class="scrollbox" transform="translate(0, 0)" clip-path="url('#legend5f75dd')"><text class="legendtitletext" text-anchor="start" x="2" y="15.600000000000001" style="font-family: 'Open Sans', verdana, arial, sans-serif; font-size: 12px; fill: rgb(42, 63, 95); fill-opacity: 1; white-space: pre;">Oceania</text><g class="groups"><g class="traces" transform="translate(0, 30.1)" style="opacity: 1;"><text class="legendtext" text-anchor="start" x="40" y="4.680000000000001" style="font-family: 'Open Sans', verdana, arial, sans-serif; font-size: 12px; fill: rgb(42, 63, 95); fill-opacity: 1; white-space: pre;">Global</text><g class="layers" style="opacity: 1;"><g class="legendfill"/><g class="legendlines"><path class="js-line" d="M5,0h30" style="fill: none; stroke: rgb(99, 110, 250); stroke-opacity: 1; stroke-width: 2px;"/></g><g class="legendsymbols"><g class="legendpoints"/></g></g><rect class="legendtoggle" x="0" y="-9.5" width="76.09375" height="19" style="fill: rgb(0, 0, 0); fill-opacity: 0;"/></g><g class="traces" transform="translate(0, 49.1)" style="opacity: 1;"><text class="legendtext" text-anchor="start" x="40" y="4.680000000000001" style="font-family: 'Open Sans', verdana, arial, sans-serif; font-size: 12px; fill: rgb(42, 63, 95); fill-opacity: 1; white-space: pre;">au</text><g class="layers" style="opacity: 1;"><g class="legendfill"/><g class="legendlines"><path class="js-line" d="M5,0h30" style="fill: none; stroke: rgb(239, 85, 59); stroke-opacity: 1; stroke-width: 2px;"/></g><g class="legendsymbols"><g class="legendpoints"/></g></g><rect class="legendtoggle" x="0" y="-9.5" width="76.09375" height="19" style="fill: rgb(0, 0, 0); fill-opacity: 0;"/></g><g class="traces" transform="translate(0, 68.1)" style="opacity: 1;"><text class="legendtext" text-anchor="start" x="40" y="4.680000000000001" style="font-family: 'Open Sans', verdana, arial, sans-serif; font-size: 12px; fill: rgb(42, 63, 95); fill-opacity: 1; white-space: pre;">nz</text><g class="layers" style="opacity: 1;"><g class="legendfill"/><g class="legendlines"><path class="js-line" d="M5,0h30" style="fill: none; stroke: rgb(0, 204, 150); stroke-opacity: 1; stroke-width: 2px;"/></g><g class="legendsymbols"><g class="legendpoints"/></g></g><rect class="legendtoggle" x="0" y="-9.5" width="76.09375" height="19" style="fill: rgb(0, 0, 0); fill-opacity: 0;"/></g></g></g><rect class="scrollbar" rx="20" ry="3" width="0" height="0" x="0" y="0" style="fill: rgb(128, 139, 164); fill-opacity: 1;"/></g><g class="g-gtitle"/><g class="g-xtitle"><text class="xtitle" x="338" y="461.8" text-anchor="middle" style="font-family: 'Open Sans', verdana, arial, sans-serif; font-size: 14px; fill: rgb(42, 63, 95); opacity: 1; font-weight: normal; white-space: pre;">Date</text></g><g class="g-ytitle"><text class="ytitle" transform="rotate(-90,30.418750000000003,260)" x="30.418750000000003" y="260" text-anchor="middle" style="font-family: 'Open Sans', verdana, arial, sans-serif; font-size: 14px; fill: rgb(42, 63, 95); opacity: 1; font-weight: normal; white-space: pre;">instrumentalness</text></g></g></svg>