<svg class="main-svg" xmlns="http://www.w3.org/2000/svg" xmlns:xlink="http://www.w3.org/1999/xlink" width="700" height="500" style="" viewBox="0 0 700 500"><rect x="0" y="0" width="700" height="500" style="fill: rgb(255, 255, 255); fill-opacity: 1;"/><defs id="defs-e5c611"><g class="clips"><clipPath id="clipe5c611xyplot" class="plotclip"><rect width="512" height="320"/></clipPath><clipPath class="axesclip" id="clipe5c611x"><rect x="80" y="0" width="512" height="500"/></clipPath><clipPath class="axesclip" id="clipe5c611y"><rect x="0" y="100" width="700" height="320"/></clipPath><clipPath class="axesclip" id="clipe5c611xy"><rect x="80" y="100" width="512" height="320"/></clipPath></g><g class="gradients"/></defs><g class="bglayer"><rect class="bg" x="80" y="100" width="512" height="320" style="fill: rgb(229, 236, 246); fill-opacity: 1; stroke-width: 0;"/></g><g class="layer-below"><g class="imagelayer"/><g class="shapelayer"/></g><g class="cartesianlayer"><g class="subplot xy"><g class="layer-subplot"><g class="shapelayer"/><g class="imagelayer"/></g><g class="gridlayer"><g class="x"><path class="xgrid crisp" transform="translate(211.24,0)" d="M0,100v320" style="stroke: rgb(255, 255, 255); stroke-opacity: 1; stroke-width: 1px;"/><path class="xgrid crisp" transform="translate(342.47,0)" d="M0,100v320" style="stroke: rgb(255, 255, 255); stroke-opacity: 1; stroke-width: 1px;"/><path class="xgrid crisp" transform="translate(473.71,0)" d="M0,100v320" style="stroke: rgb(255, 255, 255); stroke-opacity: 1; stroke-width: 1px;"/></g><g class="y"><path class="ygrid crisp" transform="translate(0,362.05)" d="M80,0h512" style="stroke: rgb(255, 255, 255); stroke-opacity: 1; stroke-width: 1px;"/><path class="ygrid crisp" transform="translate(0,320.1)" d="M80,0h512" style="stroke: rgb(255, 255, 255); stroke-opacity: 1; stroke-width: 1px;"/><path class="ygrid crisp" transform="translate(0,278.14)" d="M80,0h512" style="stroke: rgb(255, 255, 255); stroke-opacity: 1; stroke-width: 1px;"/><path class="ygrid crisp" transform="translate(0,236.19)" d="M80,0h512" style="stroke: rgb(255, 255, 255); stroke-opacity: 1; stroke-width: 1px;"/><path class="ygrid crisp" transform="translate(0,194.23000000000002)" d="M80,0h512" style="stroke: rgb(255, 255, 255); stroke-opacity: 1; stroke-width: 1px;"/><path class="ygrid crisp" transform="translate(0,152.28)" d="M80,0h512" style="stroke: rgb(255, 255, 255); stroke-opacity: 1; stroke-width: 1px;"/><path class="ygrid crisp" transform="translate(0,110.32)" d="M80,0h512" style="stroke: rgb(255, 255, 255); stroke-opacity: 1; stroke-width: 1px;"/></g></g><g class="zerolinelayer"><path class="yzl zl crisp" transform="translate(0,404.01)" d="M80,0h512" style="stroke: rgb(255, 255, 255); stroke-opacity: 1; stroke-width: 2px;"/></g><path class="xlines-below"/><path class="ylines-below"/><g class="overlines-below"/><g class="xaxislayer-below"/><g class="yaxislayer-below"/><g class="overaxes-below"/><g class="plot" transform="translate(80, 100)" clip-path="url('#clipe5c611xyplot')"><g class="scatterlayer mlayer"><g class="trace scatter traceb24087" style="stroke-miterlimit: 2; opacity: 1;"><g class="fills"/><g class="errorbars"/><g class="lines"><path class="js-line" d="M0,300.41L1.08,301L1.44,301L3.6,300.67L3.96,300.67L4.31,297.52L4.67,297.65L5.03,300.28L10.07,300.62L10.43,298.73L11.51,300.71L11.87,300.71L15.46,300.71L15.82,301.3L16.9,300.45L17.26,300.45L20.13,300.48L20.49,298.5L21.57,300.49L21.93,298.95L22.29,298.95L22.65,300.5L23.01,298.95L23.37,300.5L23.73,300.5L28.76,300.29L29.12,299.7L30.2,300.56L30.56,300.55L33.8,300.02L34.16,299.69L35.24,300.33L35.6,299.75L42.07,299.07L42.43,300.89L42.79,300.89L43.15,299.31L44.58,302.11L44.94,300.41L45.66,300.41L46.02,302.11L47.1,301.99L47.46,300.3L48.54,301.97L48.9,302.1L49.26,301.7L49.62,302.11L49.98,302.1L59.33,301.56L59.69,300.05L60.76,301.54L61.12,301.54L66.88,301.5L67.24,300.54L68.31,301.5L68.67,301.5L69.39,301.5L69.75,299.94L70.83,301.5L71.19,301.51L74.79,301.74L75.15,302.33L76.22,301.74L76.58,301.74L79.46,301.51L79.82,300.94L80.9,301.89L81.26,301.89L84.13,301.92L84.49,301.68L84.85,301.05L85.21,302.29L87.01,301.68L87.37,302.45L103.19,302.48L103.55,301.9L104.63,302.47L104.99,302.48L108.22,302.98L108.58,301.9L108.94,298.91L109.66,299.03L110.02,300.22L111.1,301.05L111.46,301.05L112.54,301.44L112.9,302.98L113.26,302.98L113.62,300.93L113.98,302.98L114.34,302.48L114.7,302.47L115.78,302.96L116.13,302.97L117.21,302.47L117.57,302.49L118.65,302.99L119.01,302.99L119.73,302.25L120.09,302.21L127.28,302.18L127.64,302.63L142.38,302.79L142.74,301.55L144.18,302.77L144.54,302.77L151.73,303.25L152.09,303.33L157.48,303.32L157.84,302.49L160,302.95L160.36,303.03L163.96,302.96L164.31,303.33L170.07,303.46L170.43,301.74L171.51,301.46L171.87,301.6L172.58,301.74L172.94,300.61L178.34,300.86L178.7,301.85L179.06,301.04L179.42,301.78L179.78,303.55L180.85,301.9L181.21,303.63L182.29,303.1L182.65,303.1L183.37,303.26L183.73,302.86L190.2,302.75L190.56,302.29L191.28,303.27L191.64,302.88L192,302.09L192.36,302.28L192.72,302.79L195.24,302.88L195.6,299.39L196.67,302.63L197.03,302.76L205.3,302.14L205.66,302.96L210.34,303.12L210.7,302.31L211.78,303.05L212.13,303.12L214.65,303.12L215.01,303.12L215.37,303.12L215.73,302.07L217.53,301.97L217.89,303.09L222.92,303.35L223.28,302.53L230.47,302.58L230.83,301.55L232.99,302.05L233.35,302.42L235.51,302.54L235.87,298.87L236.94,302.41L237.3,302.42L238.02,302.67L238.38,302.03L243.06,301.84L243.42,301.68L248.45,301.32L248.81,300.58L253.12,300.96L253.48,297.91L255.64,297.91L256,298.9L257.44,299.05L257.8,299.05L264.27,299.78L264.63,299.79L264.99,299.79L265.35,298.88L267.51,298.93L267.87,299.83L273.98,299.46L274.34,299.19L278.29,298.99L278.65,301.49L279.01,301.51L279.37,299.52L280.45,299.45L280.81,301.37L284.4,301.53L284.76,301.53L285.84,301.53L286.2,300.4L287.28,300.98L287.64,300.98L293.39,300.32L293.75,295.05L295.91,295.06L296.27,292.44L296.99,294.72L297.35,294.59L297.71,294.59L298.07,294.66L298.43,296.26L299.51,298.31L299.87,297.05L300.94,298.32L301.3,298.33L302.38,298.37L302.74,296.86L303.1,296.88L303.46,298.37L308.49,298.28L308.85,300.62L309.21,300.63L309.57,299.64L310.65,298.28L311.01,299.49L311.73,298.91L312.09,299.95L312.81,299.22L313.17,300.09L323.6,300.47L323.96,300.9L328.99,301.01L329.35,300.89L331.15,300.93L331.51,299.93L331.87,300.24L332.22,299.26L333.3,300.24L333.66,300.24L334.02,300.2L334.38,299.22L334.74,299.1L335.1,300.16L336.54,300.38L336.9,299.4L338.7,299.27L339.06,299.81L341.21,298.22L341.57,298.38L342.65,299.28L343.01,299.28L348.76,299.74L349.12,286.79L350.2,298.36L350.56,298.36L352,299.59L352.36,299.46L362.43,299.44L362.79,300.33L363.87,300.32L364.22,300.35L365.66,300.36L366.02,300.37L366.38,301.35L366.74,299.71L367.1,300.03L367.46,299.34L368.54,300.31L368.9,300.92L369.26,299.66L369.62,300.11L369.98,300.62L370.34,300.08L370.7,300.61L371.06,300.61L371.42,300.04L371.78,300.63L372.13,300.64L373.21,299.22L373.57,300.61L373.93,300.61L374.29,299.06L375.01,300.57L375.37,299.18L375.73,299.23L376.09,300.61L376.81,298.95L377.17,299.64L377.53,300.58L377.89,299.85L378.25,299.85L378.97,299.85L379.33,300.75L380.04,300.87L380.4,299.84L381.48,300.63L381.84,299.88L382.2,299.88L382.56,300.76L384.72,300.13L385.08,301.13L385.44,300.13L385.8,300.36L386.16,301.11L389.03,300.31L389.39,300.31L391.19,301.33L391.55,300.35L392.63,298.69L392.99,299.71L394.43,300.41L394.79,300.42L396.58,300.36L396.94,301.33L397.3,300.39L397.66,300.75L398.02,300.73L399.1,300.04L399.46,300.84L401.62,300.87L401.98,301.33L402.34,300.1L402.7,300.76L403.06,300.57L407.01,301.09L407.37,300.16L408.81,300.37L409.17,300.37L409.53,298.89L409.89,300.03L410.25,299.27L410.61,300.24L410.97,299.95L411.33,299.93L413.48,301.35L413.84,301.35L417.8,302.04L418.16,301.28L418.52,301.28L418.88,302.05L421.75,301.99L422.11,300.22L423.55,300.22L423.91,301.22L424.99,301L425.35,301.65L426.79,301.65L427.15,301.97L428.22,301.97L428.58,300.07L430.38,299.29L430.74,299.99L432.54,299.27L432.9,298.6L433.98,299.26L434.34,299.25L435.42,299.21L435.78,299.24L439.37,299.29L439.73,299.56L440.09,298.93L440.45,299.38L440.81,299.37L442.61,298.94L442.97,298.81L443.69,298.83L444.04,300.81L444.76,300.92L445.12,299.01L446.56,298.33L446.92,298.45L447.64,294.8L448,297.23L448.36,297.04L448.72,298.86L449.8,300.72L450.16,298.35L451.24,300.48L451.6,300.5L452.67,300.51L453.03,300.31L454.11,300.78L454.47,300.78L454.83,301.15L455.19,300.37L456.27,300.48L456.63,300.87L459.51,301.07L459.87,301.25L460.22,300.58L460.58,301.24L460.94,300.86L461.3,301.52L461.66,301.24L462.02,301.24L464.9,301.27L465.26,300.56L466.34,301.48L466.7,301.49L469.57,301.47L469.93,300.07L472.45,300.15L472.81,301.22L474.61,300.62L474.97,299.09L476.4,300.71L476.76,300.6L477.12,300.58L477.48,298.95L478.2,300.72L478.56,299.67L479.64,300.6L480,300.65L482.52,300.44L482.88,299.76L483.96,300.22L484.31,300.33L484.67,300.33L485.03,299.4L485.39,299.5L485.75,300.56L486.11,299.42L486.47,300.38L486.83,300.56L487.19,300.57L487.55,298.75L488.63,300.56L488.99,300.55L489.71,300.53L490.07,295.59L490.43,295.92L490.79,299.03L491.15,298.73L491.51,299.7L492.22,299.71L492.58,297.32L494.02,298.07L494.38,296.43L495.46,300.61L495.82,300.01L496.18,300L502.29,300.25L502.65,300.99L503.01,301.2L503.37,300.36L503.73,300.94L504.09,300.24L504.45,300.26L505.17,301.67L505.53,300.97L505.89,300.37L506.61,301.05L506.97,300.36L511.28,301.33L511.64,301.35L512,301.17" style="vector-effect: non-scaling-stroke; fill: none; stroke: rgb(99, 110, 250); stroke-opacity: 1; stroke-width: 2px; opacity: 1;"/></g><g class="points"/><g class="text"/></g><g class="trace scatter trace92c3ad" style="stroke-miterlimit: 2; opacity: 1;"><g class="fills"/><g class="errorbars"/><g class="lines"><path class="js-line" d="M0,300.1L1.08,300.92L1.44,300.92L2.88,300.93L3.24,300.59L19.42,300.66L19.78,299.61L20.85,300.67L21.21,300.67L21.57,300.67L21.93,299.13L23.37,299.08L23.73,300.63L27.33,300.63L27.69,299.47L34.16,299.52L34.52,301.21L36.31,300.62L36.67,298.92L37.39,298.74L37.75,300.44L38.11,300.44L48.9,300.4L49.26,299.6L49.62,300.66L49.98,300.4L50.34,300.4L51.78,300.33L52.13,301.44L54.29,301.18L55.01,300.66L56.09,301.69L56.45,301.69L59.33,301.69L59.69,300.17L60.76,301.65L61.12,301.69L66.88,301.42L67.24,300.47L68.31,300.48L68.67,300.73L69.03,300.72L69.39,301.63L69.75,300.66L70.11,301.54L70.47,301.55L77.3,302L77.66,301.42L84.85,301.75L85.21,302.33L86.29,301.77L86.65,301.79L92.76,301.83L93.12,302.04L102.11,302.32L102.47,301.27L103.55,302.35L103.91,302.35L104.63,294.89L104.99,299.96L105.35,299.98L105.71,301.11L106.43,301.16L106.79,302.37L108.58,302.37L108.94,298.75L112.9,299.6L113.26,299.99L115.42,300.39L115.78,299.63L116.85,300.42L117.21,300.42L118.29,300.02L118.65,300.42L119.37,299.69L119.73,299.69L120.81,302.39L121.17,300.02L121.53,300.08L121.89,301.57L123.33,302.46L123.69,301.81L127.64,302.46L128,300.41L128.36,300.54L128.72,298.57L129.8,302.67L130.16,302.67L137.35,302.41L137.71,302.61L142.38,302.64L142.74,301.49L143.1,301.48L143.46,302.37L143.82,301.79L144.18,302.64L152.45,302.84L152.81,303.44L155.33,303.44L155.69,303.43L156.76,302.85L157.12,302.86L165.03,302.45L165.39,303.41L170.07,303.45L170.43,301.7L170.79,301.27L171.15,301.72L171.51,301.72L172.58,301.72L172.94,300.43L176.18,300.39L176.54,302.13L180.13,302.05L180.49,303.43L183.37,303.04L183.73,302.5L186.61,302.75L186.97,302.75L191.28,303.27L191.64,302.31L192.72,302.61L193.08,302.79L195.24,302.79L195.6,302.25L198.83,302.7L199.19,302.72L202.79,302.63L203.15,303.01L212.49,303.09L212.85,302.28L213.93,303.16L214.29,303.16L222.92,303.38L223.28,302.54L230.47,302.6L230.83,301.6L231.91,301.83L232.27,301.49L232.99,301.83L233.35,302.54L234.79,301.96L235.15,301.96L235.51,301.6L235.87,298.82L237.3,298.44L237.66,301.8L238.02,301.84L238.38,301.03L239.1,302.02L239.46,301.02L239.82,301.19L240.18,299.54L241.26,301.93L241.62,301.93L242.7,301.81L243.06,300.81L243.42,301.5L243.78,300.82L244.13,300.9L244.49,300.48L244.85,301.2L245.21,301.02L245.93,301.44L246.29,300.55L247.37,299.7L247.73,299.62L248.81,300.54L249.17,296.64L249.53,296.05L249.89,299.95L250.97,300.83L251.33,300.78L253.12,300.77L253.48,298.48L255.64,297.83L256,298.81L257.08,299.48L257.44,299.46L259.6,300.37L259.96,298.29L260.31,299.97L260.67,299.77L261.03,299.74L264.99,299.15L265.35,298.25L267.87,298.27L268.22,298.27L268.94,298.81L269.3,298.27L270.74,298.34L271.1,299.83L271.82,299.83L272.18,299.18L272.9,297.93L273.26,298.84L273.98,299.42L274.34,298.81L274.7,299.12L275.06,298.54L275.42,298.54L275.78,298.54L276.13,299.34L278.29,298.76L278.65,300.02L279.73,299.38L280.09,299.38L280.81,299.38L281.17,301.17L283.33,301.35L283.69,299.89L284.76,301.35L285.12,301.35L285.84,301.35L286.2,300.21L293.39,300.54L293.75,296.02L295.91,295.99L296.27,292.96L298.43,293.06L298.79,294.59L299.15,295.78L299.51,294.8L299.87,294.61L300.22,294.63L300.58,296.22L300.94,296.23L301.3,298.19L302.38,298.19L302.74,296.97L303.1,296.7L303.46,298.19L305.26,298.19L305.62,298.19L306.7,298.2L307.06,299.37L308.13,298.2L308.49,298.2L308.85,299.51L309.21,299.4L309.57,299.24L311.01,298.25L311.37,299.48L312.45,298.86L312.81,299.52L315.33,299.64L315.69,300.12L316.04,300.12L316.4,301.34L317.12,300.71L317.48,301.2L318.56,300.71L318.92,301.8L319.64,300.88L320,301.08L320.36,301.08L321.44,300.57L321.8,300.58L323.24,301.23L323.6,301.53L324.67,301.02L325.03,300.89L325.75,301.55L326.11,301.02L327.19,300.81L327.55,299.62L328.63,301.7L328.99,301.69L329.71,301.02L330.07,301.69L331.15,301.04L331.51,300.35L332.22,300.8L332.58,300.35L332.94,301L333.3,300.35L333.66,300.35L334.74,300.71L335.1,300.72L340.49,300.83L340.85,299.77L341.93,299.79L342.29,300.84L342.65,299.78L343.01,301.5L343.37,299.79L343.73,300.84L344.09,300.9L345.17,300.26L345.53,300.86L348.76,301.5L349.12,285.47L350.92,299.28L351.28,301.58L358.83,301.61L359.19,301.92L360.63,301.62L360.99,301.6L366.02,301.64L366.38,302.32L367.1,302.33L367.46,301.96L369.26,302.56L369.62,301.94L371.06,302.57L371.42,297.88L372.13,302.9L372.49,301.23L373.93,301.52L374.29,301.54L376.09,301.53L376.45,299.81L378.97,299.81L379.33,301.5L380.4,300.45L380.76,300.44L382.2,300.81L382.56,301.46L383.64,300.81L384,300.45L387.24,300.66L387.6,300.66L387.96,300.72L388.31,299.34L389.39,301.42L389.75,301.44L391.55,301.43L391.91,299.32L392.63,299.31L392.99,301.03L399.82,301.23L400.18,300.41L405.57,300.48L405.93,300.79L409.89,300.51L410.25,301.48L410.97,300.76L411.33,301.79L411.69,301.09L412.04,301.79L412.4,301.79L415.28,301.04L415.64,300.34L417.08,301.09L417.44,301.22L420.31,300.65L420.67,301.41L421.03,302.1L421.39,301.8L421.75,301.81L422.11,300.72L422.47,301.77L422.83,301.27L423.55,301.41L423.91,301.5L429.3,301.49L429.66,301.78L431.1,301.07L431.46,301.05L432.9,301.33L433.26,301.33L446.92,301.24L447.28,297.49L447.64,297.51L448,301.22L458.79,301.39L459.15,300.3L460.22,301.56L460.58,301.55L464.9,301.61L465.26,301.54L471.37,301.31L471.73,301.32L483.6,300.59L483.96,300.47L485.75,300.59L486.11,300.59L489.71,300.59L490.07,295.93L490.43,295.89L490.79,297.43L491.15,297.56L491.51,298.97L491.87,298.99L492.22,299.96L493.3,297.33L493.66,297.32L494.02,298.09L494.38,296.75L495.46,298.7L495.82,298.7L497.26,298.44L497.62,299.07L498.34,300.63L498.7,299.81L500.85,300.88L501.21,300.28L502.29,300.79L502.65,301.15L503.01,298.12L503.37,302.23L504.45,300.84L504.81,300.84L505.89,302.6L506.25,300.88L508.04,300.15L508.4,299.83L512,299.99" style="vector-effect: non-scaling-stroke; fill: none; stroke: rgb(239, 85, 59); stroke-opacity: 1; stroke-width: 2px; opacity: 1;"/></g><g class="points"/><g class="text"/></g><g class="trace scatter tracef8be2a" style="stroke-miterlimit: 2; opacity: 1;"><g class="fills"/><g class="errorbars"/><g class="lines"><path class="js-line" d="M0,303.38L0.72,301.76L1.08,303.19L1.44,302.6L1.8,303.21L2.16,303.21L6.11,302.61L6.47,302.35L6.83,302.35L7.19,303.19L7.91,302.63L8.27,302.35L8.63,302.35L8.99,303.19L18.34,303.22L18.7,303.21L27.33,303.21L27.69,302.19L29.12,302.2L29.48,302.96L36.67,302.43L37.03,302.26L48.9,301.96L49.26,301.17L50.34,301.96L50.7,301.97L57.17,302.55L57.53,302.66L58.97,301.82L59.33,302.4L61.48,302.56L61.84,302.56L69.39,302.78L69.75,301.31L70.83,302.77L71.19,302.77L118.65,303.28L119.01,303.29L147.06,303.25L147.42,303.26L152.09,303.46L152.45,303.46L156.76,303.34L157.12,301.97L157.84,301.92L158.2,303.33L158.92,303.44L159.28,302.6L160.36,303.44L160.72,303.44L169.71,302.75L170.07,299.38L170.43,299.52L170.79,300.68L171.87,301.69L172.22,301.69L174.38,301.67L174.74,303.42L177.62,303.41L177.98,302.48L179.06,303.42L179.42,302.78L183.37,303.27L183.73,303.47L184.45,302.21L184.81,302.79L185.17,302.79L195.96,303.25L196.31,303.57L197.75,303.43L198.11,303.43L202.07,303L202.43,302.78L203.51,303.45L203.87,303.45L207.46,302.72L207.82,303.33L209.62,303.37L209.98,302.72L211.42,303.35L211.78,303.37L212.49,302.71L212.85,303.37L213.21,302.76L213.57,303.36L213.93,303.37L215.01,302.73L215.37,302.73L216.45,303.4L216.81,303.41L223.28,302.72L223.64,303.35L225.08,302.31L225.44,302.48L226.88,302.32L227.24,301.66L228.31,302.58L228.67,302.59L230.47,301.91L230.83,301.6L240.18,302.05L240.54,301.34L241.26,301.61L241.62,302.07L243.06,301.36L243.42,301.52L244.85,301.28L245.21,301.28L246.65,301.99L247.01,299.37L248.09,295.03L248.45,287.17L248.81,286.02L249.17,294.7L249.53,294.25L249.89,296.47L250.97,300.93L251.33,300.93L252.76,301.6L253.12,301.59L253.48,299.63L253.84,300.77L254.2,300.77L254.56,300.78L254.92,299.64L255.64,301.56L256,299.63L256.72,302.78L257.08,302.03L257.44,301.63L257.8,302.32L258.16,302.33L259.24,302.78L259.6,302.79L260.67,302.78L261.03,302.76L272.54,302.77L272.9,301.97L273.98,302.4L274.34,302.4L291.96,301.92L292.31,301.46L293.39,301.93L293.75,299.62L294.11,297.99L294.47,299.13L294.83,299.61L295.91,299.16L296.27,297.7L297.35,300.63L297.71,300.87L298.43,301.35L298.79,301.65L299.15,302.12L299.51,301.36L299.87,301.35L302.74,301.33L303.1,300.89L304.54,301.62L304.9,301.64L311.01,302.12L311.37,300.85L312.81,302.1L313.17,302.1L326.11,302.01L326.47,301.32L326.83,302.42L327.19,302.12L327.55,301.62L328.99,301.98L329.35,302.44L329.71,302.45L330.07,301.64L332.58,301.42L332.94,300.95L334.74,301.75L335.1,301.29L335.46,300.74L335.82,301.28L336.18,301.75L338.7,301.76L339.06,288.78L339.42,291.46L339.78,300.8L340.13,293.99L340.49,300.44L340.85,299.73L341.21,300.56L341.57,299.5L342.65,302.46L343.01,302.72L344.09,301.48L344.45,301.54L345.17,301.82L345.53,301.08L346.61,301.51L346.97,301.52L348.04,301.82L348.4,301.52L348.76,301.53L349.12,287.01L349.48,288.31L349.84,297.3L350.2,293.93L350.56,297.2L350.92,301.8L352,301.81L352.36,301.81L356.31,301.51L356.67,301.05L357.75,301.51L358.11,301.51L364.58,301.51L364.94,301.79L366.74,301.04L367.1,301.45L370.7,301.46L371.06,300.98L372.49,301.75L372.85,301L374.65,301.47L375.01,301.75L375.37,300.05L375.73,301.02L376.09,301.02L376.45,299.64L376.81,299.91L377.17,300.37L378.25,298.21L378.61,298.21L379.69,300.37L380.04,298.67L380.4,298.67L380.76,300.36L381.12,299.9L381.48,298.2L382.56,298.66L382.92,298.62L383.28,298.62L383.64,300.31L384.36,300.88L384.72,299.9L385.08,299.95L385.44,300.94L385.8,300.94L386.16,299.96L386.88,300.14L387.24,299.16L388.31,299.95L388.67,299.95L391.55,300.42L391.91,298.7L392.27,298.7L392.63,300.42L396.22,300.43L396.58,301.4L397.66,299.97L398.02,300.94L399.82,301.07L400.18,300.13L401.26,301.12L401.62,301.12L401.98,299.12L402.34,301.11L402.7,301.12L403.06,300.48L403.42,300.78L403.78,300.78L404.13,300.66L404.49,301.4L409.17,301.39L409.53,302L410.61,301.3L410.97,301.3L412.76,301.28L413.12,301.94L413.84,301.28L414.2,301.94L416.36,301.99L416.72,301.23L417.8,302.02L418.16,301.99L421.39,301.99L421.75,300.55L422.83,300.43L423.19,300.43L424.27,300.56L424.63,300.77L427.15,300.75L427.51,299.88L433.26,300.1L433.62,298.19L434.7,300.12L435.06,299.91L436.13,299.92L436.49,299.87L440.09,299.91L440.45,301.49L441.53,299.9L441.89,301.28L442.97,301.28L443.33,299.91L444.4,299.89L444.76,301.49L445.48,301.5L445.84,300.12L446.2,301.29L446.56,300.12L446.92,299.91L448,297.76L448.36,299.6L449.44,301.5L449.8,301.29L453.75,301.32L454.11,302.31L454.83,301.31L455.19,302.31L455.55,301.32L455.91,302.31L456.27,302.27L457.35,302.26L457.71,301.27L458.79,302.27L459.15,302.27L463.1,302.32L463.46,300.95L464.54,302.1L464.9,302.12L471.73,301.84L472.09,301.67L477.12,301.86L477.48,302.62L479.64,301.59L480,301.86L482.52,302.08L482.88,302.41L483.6,302.07L483.96,301.86L485.03,302.63L485.39,302.63L486.83,302.07L487.19,301.87L488.27,302.63L488.63,302.09L490.79,302.63L491.15,302.86L512,302.69" style="vector-effect: non-scaling-stroke; fill: none; stroke: rgb(0, 204, 150); stroke-opacity: 1; stroke-width: 2px; opacity: 1;"/></g><g class="points"/><g class="text"/></g><g class="trace scatter trace181c09" style="stroke-miterlimit: 2; opacity: 1;"><g class="fills"/><g class="errorbars"/><g class="lines"><path class="js-line" d="M0,302.19L3.6,302.33L3.96,302.39L7.19,302.58L7.55,302.47L11.51,302.59L11.87,302.68L25.17,302.93L25.53,303.56L26.61,302.75L26.97,302.84L27.33,302.73L27.69,301.7L29.12,302.17L29.48,301.5L32,302.38L32.36,301.77L33.44,302.2L33.8,302.55L35.24,301.63L35.6,302.62L37.75,301.46L38.11,302.56L39.91,301.95L40.27,303.61L41.35,302.58L41.71,302.57L42.43,302.65L42.79,303.61L43.87,303.58L44.22,302.5L45.3,302.68L45.66,303.57L46.74,303.19L47.1,302.21L48.18,303.5L48.54,303.09L49.62,303.18L49.98,301.49L50.7,303.12L51.06,302.08L51.78,303.17L52.13,302.29L52.49,302.26L52.85,303.08L55.37,303.11L55.73,302.86L58.97,303.07L59.33,303.07L76.94,302.58L77.3,302.38L79.46,302.38L79.82,300.37L80.9,299.99L81.26,300.62L82.7,300.62L83.06,301.52L84.49,301.75L84.85,301.94L89.17,301.51L89.53,300.86L90.25,301.94L90.61,301.64L90.97,301.74L94.56,301L94.92,301.84L105.35,301.18L105.71,300.72L107.15,301.06L107.51,301.31L108.58,301L108.94,301.45L112.18,301.74L112.54,301.47L115.42,301.86L115.78,301.54L116.49,302.85L116.85,301.68L118.29,301.17L118.65,302.79L119.37,302.87L119.73,301.39L121.17,301.14L121.53,302.49L123.33,301.18L123.69,302.34L124.76,301.53L125.12,301.35L126.2,301.3L126.56,300.01L129.44,301.03L129.8,300L132.67,301.26L133.03,300.13L134.11,301.2L134.47,301.19L135.19,301.33L135.55,300.53L135.91,300.38L136.27,301.08L139.87,301.04L140.22,301.07L140.94,300.2L141.3,300.95L141.66,301.37L142.02,300.98L142.38,300.97L145.26,301.54L145.62,300.37L147.06,301.61L147.42,301.42L147.78,301.53L148.13,300.35L149.21,301.3L149.57,301.38L150.65,301.62L151.01,301.03L159.64,301.41L160,301.95L161.44,301.84L161.8,301.9L163.6,301.85L163.96,301.71L168.63,301.67L168.99,301.58L170.07,301.67L170.43,300.01L171.51,299.82L171.87,299.92L173.66,299.92L174.02,301.57L175.46,302.06L175.82,301.58L176.54,301.9L176.9,302.33L178.34,301.82L178.7,301.68L179.42,302.44L179.78,302.13L180.13,301.79L182.65,302.47L183.01,301.09L183.37,300.44L183.73,301.92L184.81,302.33L185.17,301.67L185.53,302.54L185.89,301.94L186.25,301.75L187.33,302.55L187.69,302.51L189.84,302.47L190.2,302.46L192,302.13L192.36,302.13L195.96,302.32L196.31,302.02L197.75,302.42L198.11,302.14L199.55,303.67L199.91,302.48L201.71,302.23L202.07,303.32L202.79,303.45L203.15,302.22L204.58,302.24L204.94,302.19L205.66,302.25L206.02,301.28L206.38,300.55L206.74,301.07L207.1,301.09L211.42,301.43L211.78,301.5L222.2,301.42L222.56,302.54L223.64,301.4L224,301.67L225.08,302.61L225.44,302.6L225.8,300.7L226.16,301.51L226.52,301.52L228.31,301.84L228.67,302.64L229.39,302.65L229.75,301.83L231.19,301.95L231.55,300.83L232.63,301.96L232.99,301.96L240.54,301.97L240.9,297.78L241.98,300.95L242.34,299.65L244.13,300.41L244.49,299.67L246.65,300.43L247.01,299.8L249.17,300.43L249.53,299.57L250.61,300.63L250.97,301.42L252.76,300.68L253.12,301.28L254.2,299.16L254.56,299.3L255.28,299.39L255.64,301.32L262.47,301.04L262.83,301.36L264.99,301.35L265.35,300.65L270.02,300.63L270.38,302.03L271.46,300.6L271.82,300.61L272.18,300.61L272.54,302.02L273.62,300.28L273.98,300.28L274.34,300.24L274.7,301.67L281.17,301.66L281.53,300.25L281.89,300.25L282.25,301.67L282.61,301.04L282.97,301.7L283.33,301.71L284.04,301.71L284.4,300.3L285.48,301.74L285.84,301.74L286.56,301.71L286.92,300.34L288,301.74L288.36,301.75L288.72,301.74L289.08,300.31L289.44,300.31L289.8,301.74L291.6,301.27L291.96,299.84L293.03,301.28L293.39,301.29L294.47,299.25L294.83,299.22L295.55,299.23L295.91,300.22L297.35,301.48L297.71,300.73L298.79,301.49L299.15,301.49L316.04,301.44L316.4,301.72L318.56,301.44L318.92,303.57L320,301.31L320.36,301.32L323.6,301.7L323.96,303.51L324.67,301.71L325.03,303.51L326.47,303.51L326.83,301.75L327.19,301.73L327.55,303.54L328.63,303.54L328.99,301.76L329.35,301.76L329.71,303.53L331.15,303.54L331.51,301.06L332.22,301.06L332.58,302.85L334.02,302.78L334.38,300.99L334.74,301.01L335.1,302.78L339.06,302.65L339.42,301.66L340.85,302.74L341.21,302.64L341.93,302.26L342.29,303.24L343.37,301.77L343.73,301.75L344.81,302.45L345.17,301.53L368.54,301.84L368.9,301.42L373.93,301.47L374.29,300.15L375.37,301.47L375.73,301.47L376.09,301.47L376.45,300.08L376.81,298.41L377.17,299.64L377.53,299.64L377.89,298.41L378.25,299.73L378.61,299.77L382.56,300.04L382.92,301.09L384,300.17L384.36,301.15L386.88,300.37L387.24,301.11L391.55,301.06L391.91,299.38L392.99,301.09L393.35,301.09L393.71,300.62L394.07,301.1L394.43,301.1L410.61,301.05L410.97,301.18L421.75,301.13L422.11,299.97L424.27,300.08L424.63,300.31L424.99,300.32L425.35,301.3L425.71,300.36L426.07,301.35L426.43,301.72L426.79,301.35L427.15,301.72L427.51,301.73L428.22,301.7L428.58,299.78L428.94,299.78L429.3,301.7L431.82,301.7L432.18,302.11L435.78,301.66L436.13,302.05L436.85,301.62L437.21,302.09L438.29,302.09L438.65,301.66L439.73,301.64L440.09,302.4L441.53,301.95L441.89,301.68L442.25,301.45L442.61,302.16L442.97,302.18L443.33,300.09L444.4,300.79L444.76,302.32L445.48,302.18L445.84,301.26L446.2,301.47L446.56,300.39L446.92,301.55L447.28,299.88L448.36,303.62L448.72,303.59L453.03,303.42L453.39,302.05L454.47,303.55L454.83,303.59L458.07,303.55L458.43,302.19L459.51,302.17L459.87,303.57L460.58,303.58L460.94,302.19L462.38,302.19L462.74,303.62L463.1,303.59L463.46,302.25L464.54,302.27L464.9,303.62L465.62,303.46L465.98,302.12L467.42,302.25L467.78,303.62L468.13,303.46L468.49,302.25L472.45,302.01L472.81,303.39L473.17,303.38L473.53,302.06L474.97,302.05L475.33,303.43L475.69,303.36L476.04,302.05L477.48,301.78L477.84,303.7L478.2,302.07L478.56,303.48L478.92,303.74L480,303.7L480.36,303.68L489.35,303.7L489.71,303.65L506.97,303.57L507.33,303.19L512,303.25" style="vector-effect: non-scaling-stroke; fill: none; stroke: rgb(171, 99, 250); stroke-opacity: 1; stroke-width: 2px; opacity: 1;"/></g><g class="points"/><g class="text"/></g><g class="trace scatter trace7cf61d" style="stroke-miterlimit: 2; opacity: 1;"><g class="fills"/><g class="errorbars"/><g class="lines"><path class="js-line" d="M0,303.55L3.24,303.54L3.6,303.52L17.98,303.27L18.34,301.41L18.7,303.3L19.06,301.56L19.42,301.59L20.49,303.56L20.85,301.41L21.57,303.32L21.93,301.82L23.01,303.59L23.37,303.58L28.04,303.33L28.4,302.37L28.76,302.43L29.12,303.38L36.67,303.32L37.03,303.64L40.63,303.36L40.99,302.72L44.58,302.5L44.94,302.4L45.3,302.95L45.66,302.34L46.02,302.2L47.1,302.53L47.46,303.08L48.9,302.12L49.26,302.22L50.34,302.55L50.7,302.33L55.37,303.29L55.73,302.19L58.97,302.9L59.33,302.92L59.69,301.53L60.04,302.97L60.4,303.11L61.84,302.93L62.2,303.04L63.64,303.26L64,303.24L69.39,303.04L69.75,301.55L70.83,303.24L71.19,303.29L85.93,303.3L86.29,303.48L87.73,303.48L88.09,303.49L110.02,303.47L110.38,303.48L113.98,302.98L114.34,303.47L152.09,303.69L152.45,302.64L154.97,302.62L155.33,303.68L156.4,303.65L156.76,302.29L158.56,302.29L158.92,303.65L163.6,303.59L163.96,300.55L165.03,303.61L165.39,303.53L169.71,303.35L170.07,302.15L170.43,300.62L170.79,301.44L171.15,301.56L171.51,300.3L171.87,301.86L173.3,301.92L173.66,301.92L175.46,301.82L175.82,303.63L176.18,303.56L176.54,301.68L177.62,303.63L177.98,303.6L179.42,303.65L179.78,302.82L180.49,303L180.85,303.66L185.17,303.37L185.53,303.56L187.33,303.38L187.69,303.31L189.12,303.59L189.48,303.59L190.92,303.57L191.28,303.57L199.55,303.6L199.91,303.15L221.84,303.54L222.2,303.33L227.96,303.33L228.31,302.54L229.03,303.57L229.39,302.74L231.19,301.76L231.55,302.23L232.99,302.74L233.35,302.74L234.07,303.55L234.43,302.29L235.51,302.53L235.87,302.03L237.3,302.23L237.66,302.03L241.26,302.2L241.62,302.91L242.7,302L243.06,302.69L244.85,302.02L245.21,302.71L247.37,301.96L247.73,301.95L249.17,302.71L249.53,302.03L250.61,302L250.97,302.71L269.66,302.93L270.02,302.64L271.46,302.87L271.82,302.86L272.9,302.86L273.26,302.32L274.7,302.29L275.06,302.29L276.49,302.45L276.85,302.39L279.73,302.55L280.09,302.54L281.17,302.34L281.53,302.83L282.97,302.34L283.33,302.55L286.56,302.9L286.92,302.62L289.8,302.44L290.16,302.63L290.88,302.62L291.24,302.45L292.31,302.09L292.67,302.46L295.19,301.22L295.55,301.51L295.91,301.43L296.27,302.19L302.02,302.58L302.38,301.74L303.46,302.62L303.82,302.2L309.57,302.11L309.93,302.17L313.89,302.1L314.25,302.57L321.44,302.63L321.8,301.68L322.16,302.32L322.52,301.33L331.15,301.69L331.51,301L332.58,301L332.94,301.01L334.38,301.01L334.74,301.29L335.82,300.79L336.18,300.8L337.26,301.29L337.62,301.29L339.42,301.29L339.78,301.98L340.85,300.8L341.21,301.01L343.01,301.98L343.37,301.98L350.56,302.08L350.92,301.43L352,302.09L352.36,302.09L357.03,301.37L357.39,299.67L358.47,299.67L358.83,301.37L359.19,301.37L359.55,299.67L359.91,300.33L360.27,299.67L360.63,299.67L361.71,301.37L362.07,299.67L373.93,300.27L374.29,300.81L376.09,300.81L376.45,299.43L394.79,299.59L395.15,300.57L403.42,300.5L403.78,298.95L409.17,300.28L409.53,301.99L410.25,300.24L410.61,300.52L410.97,300.32L413.12,300.51L413.48,300.51L418.52,300.53L418.88,302.23L419.24,302.23L419.6,300.53L419.96,302.22L420.31,300.53L420.67,300.53L421.75,300.52L422.11,298.79L427.51,299.1L427.87,301.47L428.94,299.41L429.3,300.06L430.38,303.1L430.74,299.42L431.82,301.77L432.18,301.79L433.26,303.16L433.62,302.51L433.98,301.52L434.34,302.17L434.7,302.17L435.42,302.19L435.78,303.18L437.21,303.14L437.57,302.15L438.65,303.14L439.01,303.14L439.73,303.14L440.09,302.15L441.17,303.12L441.53,302.97L442.61,303.12L442.97,302.32L443.33,302.97L443.69,302.34L444.04,302.34L444.4,302.34L444.76,303.41L446.92,302.99L447.28,299.65L448.36,303.4L448.72,303.39L449.8,302.77L450.16,302.76L450.52,303.41L450.88,302.76L451.24,302.73L455.91,302.76L456.27,302.78L469.57,302.58L469.93,302.31L472.09,302.59L472.45,303.24L473.53,302.59L473.89,302.52L475.69,303.26L476.04,303.68L512,303.39" style="vector-effect: non-scaling-stroke; fill: none; stroke: rgb(255, 161, 90); stroke-opacity: 1; stroke-width: 2px; opacity: 1;"/></g><g class="points"/><g class="text"/></g><g class="trace scatter trace23fd2a" style="stroke-miterlimit: 2; opacity: 1;"><g class="fills"/><g class="errorbars"/><g class="lines"><path class="js-line" d="M0,303.3L3.24,303.25L3.6,303.3L9.71,303.45L10.07,303.38L14.02,303.42L14.38,303.46L27.33,303.51L27.69,303.12L28.04,301.87L28.4,302.06L28.76,302.12L29.48,301.75L29.84,303.2L30.92,303.51L31.28,303.55L50.7,302.93L51.06,301.97L52.13,303.03L52.49,303.04L56.45,302.82L56.81,302.84L76.94,302.86L77.3,302.56L78.38,302.84L78.74,302.85L90.61,303.11L90.97,303.08L95.28,303.22L95.64,303.09L101.75,302.91L102.11,303.14L107.87,303.11L108.22,302.95L117.93,303.18L118.29,302.87L120.45,302.68L120.81,302.68L122.97,303.12L123.33,302.82L128.36,303.12L128.72,303.85L129.8,303.04L130.16,303.08L152.45,303.48L152.81,302.08L153.17,302.23L153.53,303.47L153.89,303.43L154.25,301.7L154.61,301.53L154.97,303.37L161.08,303.39L161.44,303.39L170.07,303.36L170.43,300.87L171.51,300.36L171.87,300.35L172.58,300.02L172.94,303.86L182.65,303.4L183.01,303.12L184.81,303.9L185.17,303.9L185.89,303.46L186.25,303.88L187.33,303.41L187.69,303.44L192,303.12L192.36,303.87L193.44,303.41L193.8,303.86L195.24,303.42L195.6,303.18L199.91,303.76L200.27,302.79L203.87,303.76L204.22,303.47L208.9,303.89L209.26,303.31L213.57,303.29L213.93,303.89L215.01,303.37L215.37,303.38L218.61,303.11L218.97,303.72L220.04,303.34L220.4,303.41L223.28,303.3L223.64,303.89L230.83,303.72L231.19,303.86L232.27,303.72L232.63,301.84L232.99,303.73L233.35,302.43L233.71,303.36L234.43,303.87L234.79,302.44L235.15,302.02L235.51,302.48L235.87,302.78L236.94,302.71L237.3,302.72L238.02,302.33L238.38,302.53L238.74,302.46L239.1,303.89L240.54,301.31L240.9,301.75L242.34,302.88L242.7,302.78L243.78,302.51L244.13,302.9L252.76,302.96L253.12,302.51L272.9,302.79L273.26,302.68L274.7,302.55L275.06,302.3L276.13,302.33L276.49,302.28L279.37,302.71L279.73,302.65L282.25,302.66L282.61,302.37L284.04,302.73L284.4,302.68L291.6,302.55L291.96,302.61L293.39,302.72L293.75,301.54L294.11,300.51L294.47,301.29L294.83,301.16L295.91,301.82L296.27,302.3L297.71,302.14L298.07,302.15L300.58,302.5L300.94,302.39L302.38,302.25L302.74,302.19L304.9,303.07L305.26,302.24L311.73,302.4L312.09,302.26L316.76,302.08L317.12,303.13L318.2,302.11L318.56,302.51L318.92,301.41L319.28,302.14L319.64,302.25L320.36,302.04L320.72,301.8L321.08,302.48L321.44,300.79L322.16,302.36L322.52,301.18L323.6,300.9L323.96,301.38L325.03,301.07L325.39,301.94L326.11,301.22L326.47,301.5L326.83,301.27L327.19,302.18L328.27,301.15L328.63,301.03L329.35,300.56L329.71,301.2L330.43,300.97L330.79,300.97L331.51,300.57L331.87,299.94L332.22,300.6L332.58,300.34L332.94,300.18L334.02,300.02L334.38,299.59L335.1,300.65L335.46,300.39L335.82,300.44L336.54,300.03L336.9,300.26L337.98,300.37L338.34,300.4L338.7,299.83L339.06,300.12L339.42,300.29L340.13,301.34L340.49,299.62L340.85,299.54L341.21,301.24L341.57,299.93L341.93,300.15L342.29,301.53L343.37,300.78L343.73,299.93L344.81,300.79L345.17,300.65L345.53,301.74L345.89,301.53L346.25,300.73L347.33,302.42L347.69,301.64L348.4,300.7L348.76,301.01L349.12,301.06L349.84,300.98L350.2,302.36L351.28,300.92L351.64,300.56L352.36,300.74L352.72,301.99L353.44,300.53L353.8,300.81L354.16,300.3L354.88,300.26L355.24,301.74L356.31,300.49L356.67,300.3L357.75,301.13L358.11,300.42L359.91,301.34L360.27,300.39L362.43,300.34L362.79,299.05L363.87,298.47L364.22,298.88L365.3,299.16L365.66,298.73L366.74,299.09L367.1,298.82L368.18,299.36L368.54,299.53L369.26,297.42L369.62,299.69L371.06,299.3L371.42,299.2L371.78,298.35L372.13,299.01L372.49,299.14L373.57,299.04L373.93,299.04L376.09,299.94L376.45,298.35L376.81,298.83L377.17,298.18L377.53,298.53L378.61,298.34L378.97,298.34L379.33,298.83L379.69,297.85L381.48,298.82L381.84,298.17L383.64,298.17L384,299.46L385.08,298.18L385.44,299.25L386.16,298.04L386.52,298.83L387.96,298.81L388.31,298.16L389.03,298.16L389.39,299.13L390.47,298.83L390.83,299.51L391.19,299.55L391.55,298.82L393.71,299.55L394.07,299.74L394.43,298.83L394.79,299.8L395.15,299.82L396.22,299.87L396.58,298.82L396.94,298.82L397.3,298.06L398.38,300.2L398.74,299.37L399.1,300.13L399.46,299.58L399.82,299.58L401.62,299.64L401.98,299.89L403.06,300.44L403.42,300.5L404.49,299.81L404.85,299.8L407.73,299.84L408.09,299.7L408.81,302.03L409.17,299.91L409.53,301.59L409.89,299.82L410.25,299.82L410.97,299.88L411.33,301.49L412.76,301.56L413.12,300.42L414.2,299.79L414.56,300.49L416.72,300.5L417.08,301.57L418.16,300.51L418.52,299.88L421.39,300.52L421.75,299.04L423.19,298.74L423.55,298.74L428.22,299.06L428.58,300.05L428.94,299.05L429.3,300.75L430.02,300.7L430.38,301.69L430.74,301.69L431.1,299.99L432.18,301.75L432.54,301.74L433.62,300.76L433.98,300.75L437.57,300.74L437.93,302.12L439.01,300.74L439.37,300.74L440.09,300.74L440.45,302.11L441.53,302.12L441.89,301.16L442.25,301.17L442.61,302.17L442.97,302.17L443.33,303.14L446.92,303.14L447.28,299.39L448.36,303.1L448.72,303.12L454.11,303.15L454.47,303.43L460.58,303.37L460.94,302.45L462.02,303.12L462.38,303.11L463.46,303.23L463.82,302.97L464.54,303.24L464.9,302.96L466.34,303.18L466.7,302.88L467.78,303.26L468.13,303.26L475.69,302.64L476.04,303.27L477.12,302.65L477.48,301.6L478.56,303.28L478.92,302.73L480,303.25L480.36,303.27L481.08,302.73L481.44,303.15L482.16,302.72L482.52,303.73L482.88,303.73L483.24,302.11L484.31,303.1L484.67,303.71L485.39,303.62L485.75,302.92L487.19,303.61L487.55,302.99L507.69,303.46L508.04,302.81L509.12,303.34L509.48,303.29L512,303.42" style="vector-effect: non-scaling-stroke; fill: none; stroke: rgb(25, 211, 243); stroke-opacity: 1; stroke-width: 2px; opacity: 1;"/></g><g class="points"/><g class="text"/></g><g class="trace scatter traceae900c" style="stroke-miterlimit: 2; opacity: 1;"><g class="fills"/><g class="errorbars"/><g class="lines"><path class="js-line" d="M0,302.93L1.08,303.31L1.44,303.32L1.8,302.37L2.16,303.35L2.52,303.34L2.88,302.88L3.24,303.34L3.6,303.31L15.46,303.21L15.82,301.7L16.9,303.3L17.26,303.32L21.57,303.28L21.93,301.77L23.01,303.32L23.37,303.29L28.04,302.94L28.4,302.16L29.12,302.14L29.48,302.88L33.44,302.98L33.8,302.81L34.16,302.99L34.52,301.18L35.24,303.02L35.6,302.82L35.96,302.96L37.03,302.28L37.39,302.32L41.71,302.4L42.07,301.69L43.51,302.28L43.87,301.93L46.02,302.01L46.38,301.97L52.85,302.62L53.21,301.97L55.37,302.68L55.73,301.89L56.81,302.55L57.17,302.54L59.33,302.27L59.69,301.01L60.4,302.58L60.76,302.48L61.12,302.48L69.39,303L69.75,301.56L70.83,303L71.19,303L72.63,302.9L72.99,302.84L76.58,302.7L76.94,302.75L78.38,302.71L78.74,302.77L83.06,302.89L83.42,299.31L84.49,302.98L84.85,303.07L85.93,302.34L86.29,303L98.52,302.84L98.88,302.18L99.24,302.85L99.6,301.83L100.67,302.94L101.03,302.87L109.3,303.11L109.66,303.17L116.49,303.14L116.85,303.14L117.93,303.21L118.29,303.21L122.25,303.14L122.61,303.14L126.92,303.23L127.28,303.23L133.03,302.81L133.39,302.06L134.47,303.05L134.83,303.02L135.55,303.06L135.91,302.05L136.99,302.93L137.35,302.96L140.58,303.01L140.94,302.02L142.02,303.02L142.38,303.06L143.1,303.06L143.46,302.05L144.18,303.03L144.54,302.8L145.62,303.1L145.98,302.08L147.06,303.2L147.42,303.2L148.13,303.22L148.49,302.21L149.57,303.19L149.93,303.1L151.37,303.32L151.73,303.11L152.09,303.18L152.45,301.52L153.17,302.28L153.53,301.26L154.25,302.28L154.61,302.07L155.69,302.28L156.04,301.18L157.12,302.06L157.48,302.05L158.92,302.19L159.28,301.12L159.64,301.13L160,301.99L160.36,301.35L160.72,302.2L161.08,302.21L165.03,301.94L165.39,299.89L166.47,301.79L166.83,301.96L168.27,302.09L168.63,302.08L169.71,301.78L170.07,290.23L170.43,291.01L170.79,297.93L171.15,299.84L171.51,298.35L171.87,298.16L172.58,298.21L172.94,300.05L174.38,300.04L174.74,301.77L175.82,301.84L176.18,301.03L177.26,301.78L177.62,301.84L178.34,299.88L178.7,301L179.06,302.02L180.13,301.27L180.49,301.25L183.01,301.06L183.37,300.01L183.73,301.41L184.45,301.2L184.81,301.2L185.53,301.21L185.89,299.97L188.04,301.84L188.4,301.02L188.76,302.1L189.12,301.83L189.48,301.21L190.56,301.86L190.92,301.03L191.64,302.06L192,301.48L193.08,301.84L193.44,301.04L193.8,301.03L194.16,302.09L195.6,298.92L195.96,301.97L197.03,302.03L197.39,301.01L198.83,301.03L199.19,301.92L199.91,300.25L200.27,301.25L201.35,300.62L201.71,301.59L202.43,300.62L202.79,301.03L203.87,301.12L204.22,301.88L206.38,300.99L206.74,301.62L207.82,300.97L208.18,300.97L208.54,299.96L208.9,300.37L209.26,300.96L210.7,300.96L211.06,300.13L213.21,301.1L213.57,301.14L215.37,301.07L215.73,301.11L216.45,300.35L216.81,301.97L218.61,300.35L218.97,302.28L220.76,301.12L221.12,301.59L222.92,301.08L223.28,303.27L224.36,301.3L224.72,301.09L225.8,302.37L226.16,302.6L226.52,303.28L226.88,302.57L227.24,302.37L228.31,302.4L228.67,303.28L229.39,302.61L229.75,302.39L230.83,301.91L231.19,302.76L231.91,303.06L232.27,302.2L234.07,303.29L234.43,302.62L235.87,301.96L236.22,302.63L236.94,301.97L237.3,301.76L239.1,302.65L239.46,301.94L239.82,301.73L240.18,302.43L249.17,302.67L249.53,301.38L249.89,301.36L250.25,302.64L252.04,302.67L252.4,301.39L252.76,302.67L253.12,301.36L253.48,301.38L258.52,301.39L258.88,302.65L259.96,303.2L260.31,301.39L261.39,302.67L261.75,302.88L262.83,302.66L263.19,301.38L263.55,301.38L263.91,302.65L264.27,302.87L264.63,301.38L265.35,301.39L265.71,302.67L266.79,302.88L267.15,301.39L267.51,301.36L267.87,302.64L276.85,302.39L277.21,300.93L278.29,302.52L278.65,302.32L291.96,302.39L292.31,301.89L293.39,301.71L293.75,299.81L294.83,301.36L295.19,301.15L295.91,301.44L296.27,301.99L304.54,302.26L304.9,302.28L305.98,302.28L306.34,302.16L307.42,301.28L307.78,301.25L316.04,301.1L316.4,301.39L317.84,300.87L318.2,300.87L328.99,300.95L329.35,301.86L331.51,300.53L331.87,301.23L333.66,300.56L334.02,300.84L336.54,300.88L336.9,301.1L345.89,300.89L346.25,297.85L347.69,301.1L348.04,301.1L352.36,301.07L352.72,299.39L353.8,299.39L354.16,301.08L355.24,301.12L355.6,299.37L359.55,299.33L359.91,299.59L361.71,299.32L362.07,300.02L364.22,300.01L364.58,298.36L366.74,298.11L367.1,299.97L367.46,299.97L367.82,298.33L368.18,297.71L368.54,299.36L369.98,299.94L370.34,298.31L371.42,299.96L371.78,300.01L376.09,300.01L376.45,298.63L386.52,298.63L386.88,297.85L387.96,298.62L388.31,298.62L390.83,298.72L391.19,299.53L392.27,298.69L392.63,298.71L393.35,298.71L393.71,299.52L394.79,298.68L395.15,298.71L399.82,298.44L400.18,299.09L401.26,298.41L401.62,298.41L406.29,298.69L406.65,298.69L421.75,299.3L422.11,297.58L424.63,297.91L424.99,299.68L425.35,299.63L425.71,297.91L426.79,297.24L427.15,297.89L427.51,297.89L427.87,299.62L428.58,297.21L428.94,298.93L430.02,299.6L430.38,300.98L431.46,298.95L431.82,298.95L432.9,301.07L433.26,300.65L434.34,299.67L434.7,300.58L435.42,301L435.78,300.57L436.49,300.57L436.85,298.95L437.93,301.08L438.29,301.3L439.37,300.4L439.73,300.42L440.09,300.35L440.45,302.03L441.53,301.38L441.89,301.38L442.61,299.44L442.97,301.31L443.33,299.45L443.69,301.38L444.04,301.38L446.92,301.33L447.28,299.29L448.72,302.37L449.08,302.4L449.44,302.39L449.8,301.4L450.88,302.33L451.24,302.37L454.11,302.32L454.47,302.33L457.35,302.32L457.71,301.3L458.79,302.28L459.15,302.28L459.87,302.27L460.22,301.3L461.3,302.28L461.66,302.28L475.33,302.54L475.69,303.2L476.4,302.27L476.76,302.54L477.12,302.54L480.72,303.21L481.08,302.54L483.6,303.22L483.96,302.56L486.11,303.18L486.47,299.98L486.83,298.01L487.19,303.54L492.22,303.52L492.58,303.59L494.74,302.81L495.1,303.57L496.9,303.58L497.26,303.58L509.48,303.29L509.84,302.64L510.92,303.31L511.28,303.3L512,302.69" style="vector-effect: non-scaling-stroke; fill: none; stroke: rgb(255, 102, 146); stroke-opacity: 1; stroke-width: 2px; opacity: 1;"/></g><g class="points"/><g class="text"/></g><g class="trace scatter trace8b068c" style="stroke-miterlimit: 2; opacity: 1;"><g class="fills"/><g class="errorbars"/><g class="lines"><path class="js-line" d="M0,303.82L15.1,303.93L15.46,303.9L29.48,304L29.84,303.94L34.16,303.93L34.52,303.91L41.71,303.97L42.07,303.97L293.75,303.92L294.11,302.85L296.63,303.88L298.79,303.91L304.18,302.78L306.7,303.87L309.21,302.85L316.76,302.8L319.28,302.85L321.44,296.21L324.31,302.8L326.11,302.78L326.83,302.99L328.63,302.76L331.87,302.85L334.38,303.87L336.54,302.91L336.9,303.88L338.7,303.92L339.06,300.47L339.78,300.2L340.13,299.97L341.21,300.05L341.57,298.88L341.93,299.12L342.29,298.31L343.37,298.61L343.73,300.34L344.81,298.51L345.17,300.14L345.53,298.3L345.89,298.67L346.25,252.56L347.33,301.62L347.69,44.19L348.04,16L348.4,44.24L348.76,258.65L349.12,275.29L349.48,177.58L349.84,115.76L350.2,127.09L350.56,192.67L350.92,217.99L351.28,300.42L352.36,300.52L352.72,251.05L353.08,254.35L353.44,300.14L354.52,300.79L354.88,300.45L355.96,299.97L356.31,300.26L359.91,301.07L360.27,303.84L361.35,303.86L361.71,301.11L362.43,300.74L362.79,303.85L363.87,303.84L364.22,301.14L364.94,300.74L365.3,303.85L365.66,303.86L366.02,300.98L367.1,301.29L367.46,300.99L368.54,303.86L368.9,303.73L369.98,301.19L370.34,303.71L371.06,303.74L371.42,301.27L372.49,301.19L372.85,303.78L373.93,303.76L374.29,301.6L375.01,301.58L375.37,303.85L376.45,303.84L376.81,298.88L377.89,303.81L378.25,303.83L378.61,303.82L378.97,301.93L380.04,301.6L380.4,303.82L381.84,303.84L382.2,301.8L383.28,303.83L383.64,303.82L384,303.37L384.36,301.65L385.44,303.82L385.8,303.82L386.88,303.31L387.24,303.84L392.27,303.29L392.63,303.82L393.35,301.62L393.71,301.95L394.07,303.11L395.51,303.15L395.87,303.14L398.38,303.25L398.74,303.23L402.7,303.14L403.06,300.04L404.13,300.63L404.49,300.59L404.85,300.56L405.21,303.24L405.57,303.2L405.93,300.34L407.01,303.26L407.37,300.72L408.09,300.15L408.45,300.39L408.81,300.58L409.53,300.78L409.89,303.27L411.33,303.16L411.69,300.35L412.4,303.34L412.76,303.26L413.12,303.24L415.28,303.86L415.64,303.86L421.75,303.84L422.11,300.85L422.83,300.6L423.19,302.54L424.99,303.82L425.35,303.8L434.34,303.77L434.7,303.09L435.78,303.04L436.13,303.83L437.21,303.02L437.57,303.02L438.29,302.96L438.65,303.79L439.01,303.79L439.37,302.95L443.33,303L443.69,303.86L444.76,303.8L445.12,303.03L445.48,302.9L445.84,303.85L446.92,303.84L447.28,297.81L448.36,303.88L448.72,303.89L449.8,303.89L450.16,302.95L451.24,303.83L451.6,303.83L452.67,302.92L453.03,302.84L453.39,303.83L453.75,302.82L454.11,302.87L454.47,302.9L454.83,303.85L455.19,302.95L455.55,303.88L455.91,303.83L459.87,303.7L460.22,302.86L461.3,303.7L461.66,303.7L462.38,303.72L462.74,302.87L463.82,303.72L464.18,303.7L464.9,303.73L465.26,302.93L465.62,302.89L465.98,303.75L467.42,303.75L467.78,302.95L468.85,303.7L469.21,303.76L473.17,303.43L473.53,303.78L474.97,303.45L475.33,303.48L476.4,303.46L476.76,303.46L477.12,303.46L477.48,300.14L478.56,303.47L478.92,303.49L510.2,303.46L510.56,303.85L512,303.4" style="vector-effect: non-scaling-stroke; fill: none; stroke: rgb(182, 232, 128); stroke-opacity: 1; stroke-width: 2px; opacity: 1;"/></g><g class="points"/><g class="text"/></g><g class="trace scatter trace21c5e8" style="stroke-miterlimit: 2; opacity: 1;"><g class="fills"/><g class="errorbars"/><g class="lines"><path class="js-line" d="M0,301.27L0.36,300.62L0.72,301.13L1.08,301.26L6.83,301.73L7.19,301.64L8.27,301.62L8.63,301.64L12.22,301.74L12.58,301.29L14.38,301.87L14.74,301.73L15.1,301.3L15.46,301.72L15.82,301.82L18.7,301.76L19.06,302.24L21.21,301.74L21.57,302.08L23.37,302.18L23.73,302.19L27.33,301.99L27.69,300.36L28.76,300.25L29.12,300.58L29.84,300.58L30.2,301.59L30.56,302.19L30.92,300.39L31.28,301.71L31.64,300.58L32,300.82L33.44,303.61L33.8,303.62L34.52,303.63L34.88,301.95L35.96,303.57L36.31,301.87L36.67,302.06L37.03,303.52L37.39,301.5L37.75,303.53L38.11,303.58L43.15,303.55L43.51,302.58L44.58,303.57L44.94,303.55L46.02,303.05L46.38,302.11L47.46,303.13L47.82,303L50.7,303.05L51.06,302.13L52.85,303.03L53.21,302.22L55.01,303.11L55.37,303L59.33,302.98L59.69,303.03L78.38,303.01L78.74,302.75L79.46,302.27L79.82,303.08L90.97,303.35L91.33,303.39L98.16,303.24L98.52,303.25L103.91,303.29L104.27,303.28L112.18,303.25L112.54,303.2L121.89,303.35L122.25,303.14L124.04,303.09L124.4,303.07L149.57,303.3L149.93,303.5L170.07,303.8L170.43,301.82L171.51,301.42L171.87,301.36L173.66,301.38L174.02,303.9L184.09,303.61L184.45,303.85L191.64,303.87L192,303.29L199.91,303.78L200.27,303.3L210.34,303.52L210.7,303.52L211.78,303.5L212.13,303.51L224,303.82L224.36,302.69L225.8,303L226.16,303L241.26,302.46L241.62,302.31L252.76,302.38L253.12,303.2L254.2,301.12L254.56,301.19L256.36,301.25L256.72,303.05L257.08,301.2L257.44,303.12L257.8,303.21L259.24,303.08L259.6,302.14L259.96,301.42L260.31,303.82L272.9,303.45L273.26,302.8L274.34,303.41L274.7,303.42L276.49,303.3L276.85,302.65L277.93,303.32L278.29,303.31L284.76,302.83L285.12,302.78L292.31,303.03L292.67,303.04L293.39,303.04L293.75,300.99L295.19,301.04L295.55,301.99L295.91,301.99L296.27,303.23L296.63,303.22L296.99,302.27L297.35,302L297.71,302.75L298.79,303.23L299.15,303.26L301.66,302.76L302.02,302.3L302.74,303.22L303.1,302.74L303.46,303.21L303.82,302.77L304.18,302.76L313.53,302.77L313.89,303.57L322.16,303.57L322.52,302.6L335.46,301.87L335.82,301.86L344.81,302.5L345.17,301.82L347.33,302.5L347.69,302.52L358.83,302.02L359.19,301.43L373.93,301.4L374.29,300.61L375.37,301.96L375.73,301.95L376.09,301.95L376.45,300.57L376.81,299.24L377.17,300.62L377.53,300.56L382.2,301.18L382.56,300.58L383.64,302.17L384,301.25L385.44,301.25L385.8,302.17L386.88,302.19L387.24,301.24L387.6,301.24L387.96,302.16L388.31,302.22L388.67,301.24L389.75,302.2L390.11,301.23L390.47,302.2L390.83,300.55L391.19,300.53L391.55,302.21L391.91,300.49L392.27,301.23L392.63,301.23L392.99,302.21L393.35,301.23L393.71,301.12L394.07,301.23L394.43,302.16L394.79,302.21L395.15,301.23L396.22,302.21L396.58,302.21L397.66,300.89L398.02,301.87L399.82,301.92L400.18,300.69L401.26,301.93L401.62,301.93L402.7,302.15L403.06,301.27L404.85,302.16L405.21,302.15L411.69,302.15L412.04,302.15L413.12,301.17L413.48,302.15L421.75,302.13L422.11,300.34L426.79,300.74L427.15,298.82L428.22,299.82L428.58,299.82L429.66,299.77L430.02,301.68L430.74,299.76L431.1,301.69L431.82,299.82L432.18,301.75L436.13,301.77L436.49,299.86L437.57,301.78L437.93,301.78L440.09,301.75L440.45,303.14L441.53,301.75L441.89,303.13L442.25,301.74L442.61,303.11L442.97,303.12L443.33,301.74L443.69,303.12L444.04,303.12L445.48,303.42L445.84,303.41L446.92,303.14L447.28,299.66L448.72,303.38L449.08,303.41L461.3,303.37L461.66,301.99L462.74,303.37L463.1,303.36L469.57,303.39L469.93,301.7L470.65,303.06L471.01,301.7L471.37,301.7L471.73,303.08L477.12,303.52L477.48,301.85L477.84,303.81L478.2,303.55L478.56,303.53L479.64,303.26L480,303.77L506.97,303.87L507.33,303.59L512,303.59" style="vector-effect: non-scaling-stroke; fill: none; stroke: rgb(255, 151, 255); stroke-opacity: 1; stroke-width: 2px; opacity: 1;"/></g><g class="points"/><g class="text"/></g><g class="trace scatter traceca2da4" style="stroke-miterlimit: 2; opacity: 1;"><g class="fills"/><g class="errorbars"/><g class="lines"><path class="js-line" d="M0,301.54L1.08,303.19L1.44,303.19L6.11,303.23L6.47,303.25L20.13,303.91L20.49,303.27L24.09,303.94L24.45,303.44L35.6,303.56L35.96,303.43L38.11,303.56L38.47,303.51L48.9,302.87L49.26,301.88L50.34,302.89L50.7,302.89L51.42,301.9L51.78,303L55.37,303.25L55.73,302.61L58.97,303L59.33,302.73L76.94,303.09L77.3,302.66L78.38,303.03L78.74,303.11L100.67,303.03L101.03,303.02L128,303.14L128.36,302.18L128.72,301.96L129.08,303.1L130.88,302.73L131.24,301.87L132.31,303.08L132.67,303.19L136.99,303.09L137.35,303.13L143.46,303.23L143.82,303.19L152.45,303.58L152.81,302.2L153.89,303.46L154.25,303.51L170.07,303.5L170.43,301.04L171.51,300.46L171.87,300.55L173.3,300.98L173.66,303.47L182.65,303.51L183.01,303.31L186.25,303.45L186.61,303.48L191.64,303.48L192,302.95L199.55,303.57L199.91,302.97L213.57,303.48L213.93,303.42L216.45,303.38L216.81,303.51L218.97,303.4L219.33,303.5L223.64,303.35L224,303.3L225.8,303.39L226.16,303.4L230.83,302.83L231.19,301.72L232.27,303.36L232.63,303.46L233.35,302.44L233.71,303.44L234.79,303.42L235.15,302.41L236.22,301.82L236.58,303.42L238.02,301.88L238.38,302.03L239.1,303.51L239.46,302.41L240.54,301.69L240.9,302.51L244.13,302.5L244.49,302.53L247.73,302.62L248.09,302.59L252.04,302.8L252.4,302.61L253.12,302.72L253.48,300.78L254.56,302.72L254.92,302.8L256.72,302.61L257.08,302.76L258.52,302.67L258.88,302.88L259.6,302.3L259.96,299.86L261.03,302.92L261.39,302.87L262.47,302.09L262.83,302.86L267.87,302.74L268.22,302.66L271.82,302.85L272.18,302.87L273.98,302.39L274.34,302.48L277.93,302.29L278.29,302.29L280.81,302.42L281.17,302.42L282.97,302.63L283.33,302.44L285.48,302.44L285.84,301.46L286.56,301.46L286.92,302.44L293.39,301.97L293.75,300.96L295.91,301.24L296.27,302.17L304.18,301.7L304.54,301.41L305.26,301.7L305.62,301.9L306.34,302.14L306.7,302.39L307.78,302.11L308.13,301.53L308.49,301.53L308.85,302.36L311.01,302.16L311.37,301.53L312.09,301.74L312.45,302.37L313.53,301.46L313.89,302.11L314.25,301.45L314.61,301.73L314.97,302.15L315.69,301.53L316.04,302.36L316.4,301.5L316.76,302.33L317.12,302.33L318.2,301.55L318.56,302.14L319.28,301.52L319.64,302.14L321.44,301.49L321.8,302.46L322.16,301.49L322.52,301.7L322.88,302.19L323.96,300.53L324.31,300.86L325.39,301.49L325.75,300.52L326.83,301.48L327.19,300.85L328.27,301.56L328.63,300.93L329.35,301.48L329.71,300.52L330.43,301.49L330.79,300.86L331.15,300.86L331.51,299.9L331.87,300.16L332.22,300.79L333.3,300.17L333.66,300.17L340.49,300.87L340.85,301.49L341.21,300.18L341.57,300.8L341.93,300.87L343.73,301.49L344.09,300.87L346.25,300.86L346.61,301.74L347.69,302.41L348.04,300.86L348.76,300.86L349.12,301.67L350.2,301.07L350.56,300.86L358.83,300.8L359.19,301.69L360.27,302.41L360.63,300.92L360.99,301.79L361.35,301.13L361.71,300.85L362.07,301.06L362.43,299.99L362.79,300.64L363.15,299.85L363.51,299.85L363.87,299.22L364.22,299.43L364.58,300.71L365.66,299.43L366.02,299.84L366.38,299.22L366.74,299.77L367.1,299.75L368.18,299.37L368.54,299.82L369.62,299.3L369.98,299.97L370.34,299.96L370.7,299.17L371.06,299.82L371.42,299.11L371.78,299.1L372.85,299.96L373.21,299.17L374.29,299.82L374.65,299.82L376.09,300.03L376.45,298.65L378.25,298.42L378.61,298.63L380.76,298.63L381.12,299.26L381.48,298.63L381.84,299.61L382.2,299.4L382.56,298.29L383.64,299.6L384,300.51L384.36,299.61L384.72,299.87L385.08,299.87L386.16,300.24L386.52,299.61L386.88,299.14L387.24,300.47L387.6,299.9L387.96,300.22L388.31,300.49L389.39,300.47L389.75,299.3L391.91,300.56L392.27,299.93L393.71,299.69L394.07,300.51L400.9,300.22L401.26,299.6L401.98,299.39L402.34,300.5L403.06,299.94L403.42,299.88L403.78,300.29L404.13,299.73L404.49,299.93L405.93,300.07L406.29,299.72L407.37,300.56L407.73,300.55L421.75,300.51L422.11,298.78L426.43,299.1L426.79,299.94L428.94,300.07L429.3,299.92L431.46,299.92L431.82,301.77L432.18,300.07L432.54,301.78L432.9,303.16L433.26,300.46L433.62,301.78L433.98,302.17L434.34,300.79L434.7,302.17L435.06,302.19L435.42,302.02L435.78,300.66L436.85,301.98L437.21,302.13L438.65,302.03L439.01,303.03L440.09,302.18L440.45,302.16L440.81,302.16L441.17,303.14L441.53,302.01L441.89,303.16L442.25,303L446.92,303.15L447.28,299.66L447.64,299.39L448,301.24L449.08,303.13L449.44,303.13L468.49,303.26L468.85,302.64L469.57,303.26L469.93,302.98L477.12,303.28L477.48,301.61L478.56,303.29L478.92,303.28L486.47,303.18L486.83,303.61L504.45,303.71L504.81,302.62L505.53,303.71L505.89,303.08L506.97,303.71L507.33,303.7L508.4,302.8L508.76,303.42L509.12,303.42L512,303.43" style="vector-effect: non-scaling-stroke; fill: none; stroke: rgb(254, 203, 82); stroke-opacity: 1; stroke-width: 2px; opacity: 1;"/></g><g class="points"/><g class="text"/></g><g class="trace scatter tracef01c6a" style="stroke-miterlimit: 2; opacity: 1;"><g class="fills"/><g class="errorbars"/><g class="lines"><path class="js-line" d="M0,299.68L1.08,300.79L1.44,300.8L3.6,300.48L3.96,300.48L4.31,298.53L4.67,300.16L5.03,300.31L6.83,300.61L7.19,300.94L8.63,300.62L8.99,300.71L10.07,300.71L10.43,300.72L15.1,301.05L15.46,301.31L17.26,301.19L17.62,301.18L19.06,301.18L19.42,300.13L21.93,299.69L22.29,301.25L22.65,301.25L23.01,299.7L24.09,301.25L24.45,301.26L27.33,301.28L27.69,300.11L30.92,300.37L31.28,302.07L33.8,301.86L34.16,301.86L41.71,301.07L42.07,298.21L43.51,300.7L43.87,300.77L44.58,300.04L44.94,300.9L45.3,300.89L45.66,300.05L46.38,300.05L46.74,300.9L47.82,301.58L48.18,301.58L49.26,300.87L49.62,301.71L59.33,301.73L59.69,300.1L60.76,301.7L61.12,301.7L65.8,301.58L66.16,300.44L66.88,301.58L67.24,298.78L68.67,298.81L69.03,300.51L69.39,300.52L69.75,299.2L70.83,301.51L71.19,301.51L71.91,301.63L72.27,300.25L72.63,299.71L72.99,301.4L79.82,301.13L80.18,301.71L81.62,301.31L81.98,301.31L82.34,301.04L82.7,302.06L83.78,301.4L84.13,301.4L84.49,301.15L84.85,302.63L85.21,302.05L85.57,302.66L85.93,302.66L87.01,302.08L87.37,302.06L89.53,301.52L89.89,302.51L91.69,301.53L92.04,301.53L92.76,302.29L93.12,301.71L97.08,301.74L97.44,302.87L98.88,300.53L99.24,302.32L100.31,302.95L100.67,302.95L101.75,302.37L102.11,302.95L104.27,302L104.63,302.58L104.99,303.19L105.35,302.6L105.71,302.6L106.43,303.19L106.79,302.02L107.51,303.19L107.87,302.49L108.22,302.49L108.58,302.61L108.94,297.49L110.02,299.75L110.38,299.75L112.9,300.42L113.26,301.25L113.62,300.43L113.98,301.25L114.34,301.25L116.85,301.24L117.21,300.43L120.45,300.93L120.81,302.48L121.53,300.94L121.89,302.49L128,302.43L128.36,300.42L128.72,298.44L129.08,302.44L130.16,303.11L130.52,303.04L131.24,302.52L131.6,303.1L142.38,303.09L142.74,301.84L143.82,301.93L144.18,302.97L148.13,303.09L148.49,303.09L154.97,303.33L155.33,301.65L155.69,301.65L156.04,303.44L157.48,303.44L157.84,302.55L170.07,303.03L170.43,301.72L170.79,301.22L171.15,301.67L171.51,301.71L177.62,302.13L177.98,301.35L179.06,302.05L179.42,302.05L182.65,301.55L183.01,302.57L183.37,303.11L183.73,302.57L184.09,302.54L187.33,302.59L187.69,302.62L189.84,302.52L190.2,302.52L191.28,303.27L191.64,302.87L192.72,302.3L193.08,302.7L195.24,302.58L195.6,299.35L196.67,302.56L197.03,302.69L198.11,302.71L198.47,302.7L209.98,302.66L210.34,301.46L210.7,301.32L211.06,302.13L212.13,302.56L212.49,302.61L222.92,302.38L223.28,300L223.64,302.15L224,301.57L224.36,301.52L230.47,302.25L230.83,301.42L231.91,301.2L232.27,301.2L232.99,301.14L233.35,302.12L235.51,301.16L235.87,298.74L236.94,298.24L237.3,300.72L237.66,302.23L238.02,301.93L238.38,295.62L238.74,301.59L239.46,301.39L239.82,301.44L240.18,299.88L240.54,301.74L241.62,300.92L241.98,301.18L243.78,301.13L244.13,301.16L244.85,300.64L245.21,301.14L247.37,301.29L247.73,300.55L250.61,300.48L250.97,301.31L252.4,301.55L252.76,301.55L253.12,301.27L253.48,298.51L257.8,298.5L258.16,299.75L259.6,300.4L259.96,298.36L261.03,300.15L261.39,300.15L263.19,300.16L263.55,299.19L264.63,300.16L264.99,300.16L266.07,299.32L266.43,299.32L268.58,299.45L268.94,300.36L270.02,299.3L270.38,299.53L270.74,299.56L271.1,300.47L272.18,300.47L272.54,299.56L272.9,298.89L273.26,299.78L273.62,299.78L278.65,299.6L279.01,299.24L280.81,299.08L281.17,299.6L282.25,299.6L282.61,299.6L283.33,299.15L283.69,295.77L284.76,299.8L285.12,299.53L285.48,299.53L285.84,298.52L286.56,298.38L286.92,298.11L287.28,298.66L287.64,298.38L288,298.38L289.08,298.79L289.44,298.79L290.52,298.53L290.88,298.53L291.24,298.98L291.6,298.53L291.96,298.53L292.67,298.32L293.03,297.87L293.39,297.87L293.75,296.09L294.47,294.16L294.83,296.45L295.91,296.16L296.27,294.02L296.99,293.14L297.35,293.74L298.43,293.76L298.79,295.68L299.51,294.75L299.87,295.54L300.22,295.57L300.58,296.93L301.66,296.42L302.02,297.19L303.46,296.38L303.82,299.27L305.26,297.84L305.62,298.88L311.01,299.32L311.37,298.08L312.09,299.35L312.45,298.65L313.89,300.86L314.25,300.57L315.33,300.85L315.69,299.58L316.4,301.5L316.76,301.23L317.12,300.77L318.56,301.26L318.92,301.54L326.11,301.12L326.47,300.09L327.19,301.7L327.55,301.42L331.15,301.38L331.51,300.82L332.58,301L332.94,300.99L338.7,301.31L339.06,296.24L340.13,301.31L340.49,301.31L341.57,299.82L341.93,300.26L343.01,301.31L343.37,301.31L346.61,301.26L346.97,301.74L348.04,301.29L348.4,301.3L348.76,302.45L349.12,286.55L350.2,299.43L350.56,297.79L352,302.26L352.36,302.43L355.24,302.14L355.6,302.15L371.06,302.2L371.42,297.65L371.78,302.02L372.13,300.77L372.49,300.79L376.09,301.52L376.45,299.38L377.89,299.67L378.25,299.67L378.61,299.67L378.97,301.06L379.69,301.52L380.04,300.43L380.4,301.16L380.76,300.75L381.12,300.01L382.2,300.39L382.56,300.35L386.52,300.19L386.88,299.58L387.6,300.67L387.96,299.95L388.31,298.58L388.67,299.64L389.03,299.98L390.11,300.21L390.47,300.21L390.83,301.42L391.19,299.46L391.55,299.24L391.91,297.79L392.63,299.02L392.99,300.74L399.82,301.29L400.18,300.46L402.7,300.13L403.06,299.35L406.65,300.03L407.01,300.79L407.73,300.33L408.09,300.03L409.17,300.33L409.53,298.48L409.89,298.48L410.25,299.58L410.61,298.88L410.97,299.09L411.33,299.81L412.76,301.83L413.12,301.09L414.2,301.11L414.56,299.98L415.64,301.05L416,300.36L417.08,301.47L417.44,301.48L420.31,300.65L420.67,301.41L421.75,301.37L422.11,299.54L422.47,301.74L422.83,298.86L424.27,301.45L424.63,300.98L425.71,301.34L426.07,301.35L429.3,301.76L429.66,301.11L430.02,300.7L430.38,301.33L430.74,301.35L439.37,301.37L439.73,301.54L446.92,301.24L447.28,297.65L448,297.63L448.36,299.49L449.44,301.4L449.8,301.55L455.91,301.54L456.27,301.54L471.37,301.19L471.73,300.64L477.12,300.48L477.48,298.84L477.84,300.6L478.2,297.7L479.28,300.56L479.64,300.56L483.96,300.55L484.31,300.55L487.55,300.23L487.91,294.91L489.71,300.2L490.07,294.57L491.15,294.01L491.51,295.56L492.22,298.71L492.58,297.08L492.94,298.43L493.66,296.42L494.02,297.2L494.38,295.63L494.74,297.47L495.46,298.05L495.82,293.92L497.26,297.7L497.62,298.11L498.34,299.29L498.7,297.75L499.06,298.03L499.42,299.58L500.13,300.29L500.49,300.81L502.29,299.86L502.65,301.22L503.01,297.75L503.37,302.09L503.73,300.46L504.09,301.11L504.45,300.73L505.89,302.49L506.25,301.12L506.97,301.12L507.33,300.29L508.76,300.27L509.12,300.27L510.56,300.57L510.92,299.81L512,299.61" style="vector-effect: non-scaling-stroke; fill: none; stroke: rgb(99, 110, 250); stroke-opacity: 1; stroke-width: 2px; opacity: 1;"/></g><g class="points"/><g class="text"/></g></g></g><g class="overplot"/><path class="xlines-above crisp" d="M0,0" style="fill: none;"/><path class="ylines-above crisp" d="M0,0" style="fill: none;"/><g class="overlines-above"/><g class="xaxislayer-above"><g class="xtick"><text text-anchor="middle" x="0" y="433" transform="translate(80,0)" style="font-family: 'Open Sans', verdana, arial, sans-serif; font-size: 12px; fill: rgb(42, 63, 95); fill-opacity: 1; white-space: pre;">2017</text></g><g class="xtick"><text text-anchor="middle" x="0" y="433" transform="translate(211.24,0)" style="font-family: 'Open Sans', verdana, arial, sans-serif; font-size: 12px; fill: rgb(42, 63, 95); fill-opacity: 1; white-space: pre;">2018</text></g><g class="xtick"><text text-anchor="middle" x="0" y="433" transform="translate(342.47,0)" style="font-family: 'Open Sans', verdana, arial, sans-serif; font-size: 12px; fill: rgb(42, 63, 95); fill-opacity: 1; white-space: pre;">2019</text></g><g class="xtick"><text text-anchor="middle" x="0" y="433" transform="translate(473.71,0)" style="font-family: 'Open Sans', verdana, arial, sans-serif; font-size: 12px; fill: rgb(42, 63, 95); fill-opacity: 1; white-space: pre;">2020</text></g></g><g class="yaxislayer-above"><g class="ytick"><text text-anchor="end" x="79" y="4.199999999999999" transform="translate(0,404.01)" style="font-family: 'Open Sans', verdana, arial, sans-serif; font-size: 12px; fill: rgb(42, 63, 95); fill-opacity: 1; white-space: pre;">0</text></g><g class="ytick"><text text-anchor="end" x="79" y="4.199999999999999" transform="translate(0,362.05)" style="font-family: 'Open Sans', verdana, arial, sans-serif; font-size: 12px; fill: rgb(42, 63, 95); fill-opacity: 1; white-space: pre;">0.1</text></g><g class="ytick"><text text-anchor="end" x="79" y="4.199999999999999" transform="translate(0,320.1)" style="font-family: 'Open Sans', verdana, arial, sans-serif; font-size: 12px; fill: rgb(42, 63, 95); fill-opacity: 1; white-space: pre;">0.2</text></g><g class="ytick"><text text-anchor="end" x="79" y="4.199999999999999" transform="translate(0,278.14)" style="font-family: 'Open Sans', verdana, arial, sans-serif; font-size: 12px; fill: rgb(42, 63, 95); fill-opacity: 1; white-space: pre;">0.3</text></g><g class="ytick"><text text-anchor="end" x="79" y="4.199999999999999" transform="translate(0,236.19)" style="font-family: 'Open Sans', verdana, arial, sans-serif; font-size: 12px; fill: rgb(42, 63, 95); fill-opacity: 1; white-space: pre;">0.4</text></g><g class="ytick"><text text-anchor="end" x="79" y="4.199999999999999" transform="translate(0,194.23000000000002)" style="font-family: 'Open Sans', verdana, arial, sans-serif; font-size: 12px; fill: rgb(42, 63, 95); fill-opacity: 1; white-space: pre;">0.5</text></g><g class="ytick"><text text-anchor="end" x="79" y="4.199999999999999" transform="translate(0,152.28)" style="font-family: 'Open Sans', verdana, arial, sans-serif; font-size: 12px; fill: rgb(42, 63, 95); fill-opacity: 1; white-space: pre;">0.6</text></g><g class="ytick"><text text-anchor="end" x="79" y="4.199999999999999" transform="translate(0,110.32)" style="font-family: 'Open Sans', verdana, arial, sans-serif; font-size: 12px; fill: rgb(42, 63, 95); fill-opacity: 1; white-space: pre;">0.7</text></g></g><g class="overaxes-above"/></g></g><g class="polarlayer"/><g class="ternarylayer"/><g class="geolayer"/><g class="funnelarealayer"/><g class="pielayer"/><g class="treemaplayer"/><g class="sunburstlayer"/><g class="glimages"/><defs id="topdefs-e5c611"><g class="clips"/><clipPath id="legende5c611"><rect width="86" height="235" x="0" y="0"/></clipPath></defs><g class="layer-above"><g class="imagelayer"/><g class="shapelayer"/></g><g class="infolayer"><g class="legend" pointer-events="all" transform="translate(602.24, 100)"><rect class="bg" shape-rendering="crispEdges" width="86" height="235" x="0" y="0" style="stroke: rgb(68, 68, 68); stroke-opacity: 1; fill: rgb(255, 255, 255); fill-opacity: 1; stroke-width: 0px;"/><g class="scrollbox" transform="translate(0, 0)" clip-path="url('#legende5c611')"><text class="legendtitletext" text-anchor="start" x="2" y="15.600000000000001" style="font-family: 'Open Sans', verdana, arial, sans-serif; font-size: 12px; fill: rgb(42, 63, 95); fill-opacity: 1; white-space: pre;">North America</text><g class="groups"><g class="traces" transform="translate(0, 30.1)" style="opacity: 1;"><text class="legendtext" text-anchor="start" x="40" y="4.680000000000001" style="font-family: 'Open Sans', verdana, arial, sans-serif; font-size: 12px; fill: rgb(42, 63, 95); fill-opacity: 1; white-space: pre;">Global</text><g class="layers" style="opacity: 1;"><g class="legendfill"/><g class="legendlines"><path class="js-line" d="M5,0h30" style="fill: none; stroke: rgb(99, 110, 250); stroke-opacity: 1; stroke-width: 2px;"/></g><g class="legendsymbols"><g class="legendpoints"/></g></g><rect class="legendtoggle" x="0" y="-9.5" width="76.09375" height="19" style="fill: rgb(0, 0, 0); fill-opacity: 0;"/></g><g class="traces" transform="translate(0, 49.1)" style="opacity: 1;"><text class="legendtext" text-anchor="start" x="40" y="4.680000000000001" style="font-family: 'Open Sans', verdana, arial, sans-serif; font-size: 12px; fill: rgb(42, 63, 95); fill-opacity: 1; white-space: pre;">ca</text><g class="layers" style="opacity: 1;"><g class="legendfill"/><g class="legendlines"><path class="js-line" d="M5,0h30" style="fill: none; stroke: rgb(239, 85, 59); stroke-opacity: 1; stroke-width: 2px;"/></g><g class="legendsymbols"><g class="legendpoints"/></g></g><rect class="legendtoggle" x="0" y="-9.5" width="76.09375" height="19" style="fill: rgb(0, 0, 0); fill-opacity: 0;"/></g><g class="traces" transform="translate(0, 68.1)" style="opacity: 1;"><text class="legendtext" text-anchor="start" x="40" y="4.680000000000001" style="font-family: 'Open Sans', verdana, arial, sans-serif; font-size: 12px; fill: rgb(42, 63, 95); fill-opacity: 1; white-space: pre;">cr</text><g class="layers" style="opacity: 1;"><g class="legendfill"/><g class="legendlines"><path class="js-line" d="M5,0h30" style="fill: none; stroke: rgb(0, 204, 150); stroke-opacity: 1; stroke-width: 2px;"/></g><g class="legendsymbols"><g class="legendpoints"/></g></g><rect class="legendtoggle" x="0" y="-9.5" width="76.09375" height="19" style="fill: rgb(0, 0, 0); fill-opacity: 0;"/></g><g class="traces" transform="translate(0, 87.1)" style="opacity: 1;"><text class="legendtext" text-anchor="start" x="40" y="4.680000000000001" style="font-family: 'Open Sans', verdana, arial, sans-serif; font-size: 12px; fill: rgb(42, 63, 95); fill-opacity: 1; white-space: pre;">do</text><g class="layers" style="opacity: 1;"><g class="legendfill"/><g class="legendlines"><path class="js-line" d="M5,0h30" style="fill: none; stroke: rgb(171, 99, 250); stroke-opacity: 1; stroke-width: 2px;"/></g><g class="legendsymbols"><g class="legendpoints"/></g></g><rect class="legendtoggle" x="0" y="-9.5" width="76.09375" height="19" style="fill: rgb(0, 0, 0); fill-opacity: 0;"/></g><g class="traces" transform="translate(0, 106.1)" style="opacity: 1;"><text class="legendtext" text-anchor="start" x="40" y="4.680000000000001" style="font-family: 'Open Sans', verdana, arial, sans-serif; font-size: 12px; fill: rgb(42, 63, 95); fill-opacity: 1; white-space: pre;">gt</text><g class="layers" style="opacity: 1;"><g class="legendfill"/><g class="legendlines"><path class="js-line" d="M5,0h30" style="fill: none; stroke: rgb(255, 161, 90); stroke-opacity: 1; stroke-width: 2px;"/></g><g class="legendsymbols"><g class="legendpoints"/></g></g><rect class="legendtoggle" x="0" y="-9.5" width="76.09375" height="19" style="fill: rgb(0, 0, 0); fill-opacity: 0;"/></g><g class="traces" transform="translate(0, 125.1)" style="opacity: 1;"><text class="legendtext" text-anchor="start" x="40" y="4.680000000000001" style="font-family: 'Open Sans', verdana, arial, sans-serif; font-size: 12px; fill: rgb(42, 63, 95); fill-opacity: 1; white-space: pre;">hn</text><g class="layers" style="opacity: 1;"><g class="legendfill"/><g class="legendlines"><path class="js-line" d="M5,0h30" style="fill: none; stroke: rgb(25, 211, 243); stroke-opacity: 1; stroke-width: 2px;"/></g><g class="legendsymbols"><g class="legendpoints"/></g></g><rect class="legendtoggle" x="0" y="-9.5" width="76.09375" height="19" style="fill: rgb(0, 0, 0); fill-opacity: 0;"/></g><g class="traces" transform="translate(0, 144.1)" style="opacity: 1;"><text class="legendtext" text-anchor="start" x="40" y="4.680000000000001" style="font-family: 'Open Sans', verdana, arial, sans-serif; font-size: 12px; fill: rgb(42, 63, 95); fill-opacity: 1; white-space: pre;">mx</text><g class="layers" style="opacity: 1;"><g class="legendfill"/><g class="legendlines"><path class="js-line" d="M5,0h30" style="fill: none; stroke: rgb(255, 102, 146); stroke-opacity: 1; stroke-width: 2px;"/></g><g class="legendsymbols"><g class="legendpoints"/></g></g><rect class="legendtoggle" x="0" y="-9.5" width="76.09375" height="19" style="fill: rgb(0, 0, 0); fill-opacity: 0;"/></g><g class="traces" transform="translate(0, 163.1)" style="opacity: 1;"><text class="legendtext" text-anchor="start" x="40" y="4.680000000000001" style="font-family: 'Open Sans', verdana, arial, sans-serif; font-size: 12px; fill: rgb(42, 63, 95); fill-opacity: 1; white-space: pre;">ni</text><g class="layers" style="opacity: 1;"><g class="legendfill"/><g class="legendlines"><path class="js-line" d="M5,0h30" style="fill: none; stroke: rgb(182, 232, 128); stroke-opacity: 1; stroke-width: 2px;"/></g><g class="legendsymbols"><g class="legendpoints"/></g></g><rect class="legendtoggle" x="0" y="-9.5" width="76.09375" height="19" style="fill: rgb(0, 0, 0); fill-opacity: 0;"/></g><g class="traces" transform="translate(0, 182.1)" style="opacity: 1;"><text class="legendtext" text-anchor="start" x="40" y="4.680000000000001" style="font-family: 'Open Sans', verdana, arial, sans-serif; font-size: 12px; fill: rgb(42, 63, 95); fill-opacity: 1; white-space: pre;">pa</text><g class="layers" style="opacity: 1;"><g class="legendfill"/><g class="legendlines"><path class="js-line" d="M5,0h30" style="fill: none; stroke: rgb(255, 151, 255); stroke-opacity: 1; stroke-width: 2px;"/></g><g class="legendsymbols"><g class="legendpoints"/></g></g><rect class="legendtoggle" x="0" y="-9.5" width="76.09375" height="19" style="fill: rgb(0, 0, 0); fill-opacity: 0;"/></g><g class="traces" transform="translate(0, 201.1)" style="opacity: 1;"><text class="legendtext" text-anchor="start" x="40" y="4.680000000000001" style="font-family: 'Open Sans', verdana, arial, sans-serif; font-size: 12px; fill: rgb(42, 63, 95); fill-opacity: 1; white-space: pre;">sv</text><g class="layers" style="opacity: 1;"><g class="legendfill"/><g class="legendlines"><path class="js-line" d="M5,0h30" style="fill: none; stroke: rgb(254, 203, 82); stroke-opacity: 1; stroke-width: 2px;"/></g><g class="legendsymbols"><g class="legendpoints"/></g></g><rect class="legendtoggle" x="0" y="-9.5" width="76.09375" height="19" style="fill: rgb(0, 0, 0); fill-opacity: 0;"/></g><g class="traces" transform="translate(0, 220.1)" style="opacity: 1;"><text class="legendtext" text-anchor="start" x="40" y="4.680000000000001" style="font-family: 'Open Sans', verdana, arial, sans-serif; font-size: 12px; fill: rgb(42, 63, 95); fill-opacity: 1; white-space: pre;">us</text><g class="layers" style="opacity: 1;"><g class="legendfill"/><g class="legendlines"><path class="js-line" d="M5,0h30" style="fill: none; stroke: rgb(99, 110, 250); stroke-opacity: 1; stroke-width: 2px;"/></g><g class="legendsymbols"><g class="legendpoints"/></g></g><rect class="legendtoggle" x="0" y="-9.5" width="76.09375" height="19" style="fill: rgb(0, 0, 0); fill-opacity: 0;"/></g></g></g><rect class="scrollbar" rx="20" ry="3" width="0" height="0" x="0" y="0" style="fill: rgb(128, 139, 164); fill-opacity: 1;"/></g><g class="g-gtitle"/><g class="g-xtitle"><text class="xtitle" x="336" y="461.8" text-anchor="middle" style="font-family: 'Open Sans', verdana, arial, sans-serif; font-size: 14px; fill: rgb(42, 63, 95); opacity: 1; font-weight: normal; white-space: pre;">Date</text></g><g class="g-ytitle"><text class="ytitle" transform="rotate(-90,37.278125,260)" x="37.278125" y="260" text-anchor="middle" style="font-family: 'Open Sans', verdana, arial, sans-serif; font-size: 14px; fill: rgb(42, 63, 95); opacity: 1; font-weight: normal; white-space: pre;">instrumentalness</text></g></g></svg>