<svg class="main-svg" xmlns="http://www.w3.org/2000/svg" xmlns:xlink="http://www.w3.org/1999/xlink" width="700" height="500" style="" viewBox="0 0 700 500"><rect x="0" y="0" width="700" height="500" style="fill: rgb(255, 255, 255); fill-opacity: 1;"/><defs id="defs-cf2285"><g class="clips"><clipPath id="clipcf2285xyplot" class="plotclip"><rect width="472" height="320"/></clipPath><clipPath class="axesclip" id="clipcf2285x"><rect x="80" y="0" width="472" height="500"/></clipPath><clipPath class="axesclip" id="clipcf2285y"><rect x="0" y="100" width="700" height="320"/></clipPath><clipPath class="axesclip" id="clipcf2285xy"><rect x="80" y="100" width="472" height="320"/></clipPath></g><g class="gradients"/></defs><g class="bglayer"><rect class="bg" x="80" y="100" width="472" height="320" style="fill: rgb(229, 236, 246); fill-opacity: 1; stroke-width: 0;"/></g><g class="layer-below"><g class="imagelayer"/><g class="shapelayer"/></g><g class="cartesianlayer"><g class="subplot xy"><g class="layer-subplot"><g class="shapelayer"/><g class="imagelayer"/></g><g class="gridlayer"><g class="x"><path class="xgrid crisp" transform="translate(200.98000000000002,0)" d="M0,100v320" style="stroke: rgb(255, 255, 255); stroke-opacity: 1; stroke-width: 1px;"/><path class="xgrid crisp" transform="translate(321.97,0)" d="M0,100v320" style="stroke: rgb(255, 255, 255); stroke-opacity: 1; stroke-width: 1px;"/><path class="xgrid crisp" transform="translate(442.95,0)" d="M0,100v320" style="stroke: rgb(255, 255, 255); stroke-opacity: 1; stroke-width: 1px;"/></g><g class="y"><path class="ygrid crisp" transform="translate(0,368.09)" d="M80,0h472" style="stroke: rgb(255, 255, 255); stroke-opacity: 1; stroke-width: 1px;"/><path class="ygrid crisp" transform="translate(0,328.85)" d="M80,0h472" style="stroke: rgb(255, 255, 255); stroke-opacity: 1; stroke-width: 1px;"/><path class="ygrid crisp" transform="translate(0,289.61)" d="M80,0h472" style="stroke: rgb(255, 255, 255); stroke-opacity: 1; stroke-width: 1px;"/><path class="ygrid crisp" transform="translate(0,250.37)" d="M80,0h472" style="stroke: rgb(255, 255, 255); stroke-opacity: 1; stroke-width: 1px;"/><path class="ygrid crisp" transform="translate(0,211.13)" d="M80,0h472" style="stroke: rgb(255, 255, 255); stroke-opacity: 1; stroke-width: 1px;"/><path class="ygrid crisp" transform="translate(0,171.89)" d="M80,0h472" style="stroke: rgb(255, 255, 255); stroke-opacity: 1; stroke-width: 1px;"/><path class="ygrid crisp" transform="translate(0,132.65)" d="M80,0h472" style="stroke: rgb(255, 255, 255); stroke-opacity: 1; stroke-width: 1px;"/></g></g><g class="zerolinelayer"><path class="yzl zl crisp" transform="translate(0,407.34)" d="M80,0h472" style="stroke: rgb(255, 255, 255); stroke-opacity: 1; stroke-width: 2px;"/></g><path class="xlines-below"/><path class="ylines-below"/><g class="overlines-below"/><g class="xaxislayer-below"/><g class="yaxislayer-below"/><g class="overaxes-below"/><g class="plot" transform="translate(80, 100)" clip-path="url('#clipcf2285xyplot')"><g class="scatterlayer mlayer"><g class="trace scatter trace8e908f" style="stroke-miterlimit: 2; opacity: 1;"><g class="fills"/><g class="errorbars"/><g class="lines"><path class="js-line" d="M0,273.71L0.33,279.22L0.99,279.18L1.33,279.17L1.66,277.39L1.99,279.12L2.32,279.12L2.65,279.21L2.98,276.14L3.65,276.14L3.98,246.62L4.31,247.83L4.64,272.46L5.63,272.65L5.97,270.41L6.3,271.55L6.63,269.45L8.29,276.43L8.62,276.47L9.28,275.63L9.61,257.91L10.61,276.45L10.94,276.47L11.27,276.47L11.6,274.21L12.6,276.52L12.93,276.53L13.26,276.53L13.59,275.24L14.25,276.51L14.58,282.03L15.58,274.08L15.91,274.04L17.24,274.38L17.9,274.4L18.56,274.31L18.89,255.84L19.22,274.48L19.89,274.46L20.22,260L20.55,259.97L20.88,274.49L21.21,260.01L21.54,274.49L21.88,274.47L24.86,274.51L25.19,277.55L26.19,272.19L26.52,272.55L26.85,266.99L27.18,275.05L28.84,275L29.17,272.55L30.16,275.66L30.49,273.02L31.49,266.97L31.82,273.11L32.48,272.9L32.81,267.46L33.48,267.48L33.81,264.45L34.8,266.65L35.13,266.76L35.47,266.67L35.8,263.74L36.13,260.61L36.46,266.73L37.79,267.02L38.12,266.95L38.45,266.96L38.78,261.1L39.44,278.11L39.78,263.36L41.1,289.6L41.43,273.68L42.1,273.7L42.43,289.55L43.09,289.58L43.42,288.42L43.75,272.61L44.08,288.24L44.42,288.23L44.75,288.3L45.08,289.5L45.41,285.74L45.74,289.58L46.07,289.51L49.06,289.22L50.05,285.56L51.04,285.61L51.38,284.51L54.69,284.43L55.02,270.27L56.02,284.27L56.35,284.19L57.01,284.47L57.34,283.23L57.67,282.49L58.01,283.46L58.34,283.46L61.65,283.86L61.98,274.92L62.98,283.89L63.31,283.87L63.97,283.9L64.3,269.25L64.97,283.9L65.3,283.89L65.63,283.91L65.96,283.88L66.29,286.34L66.96,288.94L67.29,283.68L68.28,284.83L68.61,284.84L68.94,286.15L69.28,291.66L70.27,286.08L70.6,286.11L70.93,286.25L71.26,283.82L71.6,289.41L71.93,283.97L72.26,284L73.25,284L73.58,278.59L73.92,289.12L74.58,287.47L74.91,287.48L75.57,287.78L75.9,293.15L76.24,293.15L76.57,287.77L77.56,287.77L77.89,285.52L78.22,279.68L78.56,291.25L79.22,291.33L79.55,285.18L80.21,285.52L80.54,292.73L80.88,292.7L81.21,288.58L82.53,288.58L82.87,292.93L83.2,292.92L83.53,288.86L84.85,288.86L85.19,291.07L85.52,292.56L85.85,289.16L86.84,289.16L87.17,294.59L88.17,294.6L88.5,289.85L89.49,294.55L89.83,294.62L90.49,295.29L90.82,289.85L91.15,289.39L91.48,289.85L91.81,295.28L92.81,295.34L93.14,289.87L93.8,289.91L94.13,295.34L95.46,287.63L95.79,292.97L96.12,287.54L96.46,292.97L96.79,293.05L97.12,293.02L97.45,297.7L98.11,292.97L98.44,293.05L98.78,293.05L99.44,293.05L99.77,297.7L100.43,259.61L101.1,260.77L101.43,271.87L102.42,279.63L102.75,279.63L103.08,279.63L103.42,278.62L104.41,297.69L104.74,278.52L105.07,297.68L105.4,293.05L105.74,292.91L106.07,297.64L106.73,297.55L107.06,297.65L108.06,292.9L108.39,293.15L108.72,297.81L109.05,290.89L110.04,297.81L110.38,290.88L111.37,290.25L111.7,290.81L114.69,290.79L115.02,290.23L116.01,292.84L116.34,290.8L117.34,290.23L117.67,294.42L118.66,294.33L118.99,290.62L119.66,297.52L119.99,297.49L120.32,296.38L120.65,291.38L120.98,292.64L121.31,296.55L123.63,295.68L123.97,295.69L128.94,295.3L129.27,298.39L129.93,295.32L130.26,295.96L130.6,295.96L131.26,295.96L131.59,284.36L132.92,295.76L133.25,295.76L133.58,295.76L133.91,298.64L134.57,298.1L134.9,295.5L135.24,298.09L135.57,293.6L135.9,293.56L136.23,298.54L136.89,298.93L137.22,296.06L137.56,298.67L137.89,296.2L138.22,297.71L139.21,300.01L139.54,297.62L140.54,300.95L140.87,300.86L142.2,300.83L142.53,300.83L145.18,300.84L145.51,293.15L145.84,292.73L146.17,293.94L146.84,294.36L147.17,297.32L147.83,298.21L148.16,297.45L149.16,297.66L149.49,297.85L150.81,297.08L151.15,297.51L152.14,301.19L152.47,302.24L153.13,300.62L153.47,301.03L153.8,301.03L154.46,301.03L154.79,302.07L155.12,302.11L155.46,301.05L156.12,301.12L156.45,302.21L156.78,302.21L157.11,286.08L157.44,281.58L157.78,281.87L158.11,283.49L159.1,286.11L159.43,275.54L162.08,275.55L162.42,273.69L163.41,275.4L163.74,275.39L164.07,278.1L164.4,277.89L164.74,287.12L165.07,279.55L165.4,286.45L165.73,303.08L166.06,286.86L166.72,287.56L167.06,303.79L168.05,298.81L168.38,298.86L168.71,301.13L169.04,300.3L169.38,296.54L170.7,296.11L171.03,295.69L172.36,296.27L172.69,296.27L173.35,295.51L173.69,300.94L174.02,295.5L174.68,295.67L175.01,295.55L175.34,295.55L175.67,291.26L176.01,300.83L176.34,300.37L176.67,296.79L177,289.39L177.33,291.19L177.66,295.95L179.98,296.75L180.31,264.17L181.31,294.46L181.64,295.67L183.96,295.75L184.29,291.55L186.61,291.7L186.94,292.77L187.28,289.9L187.61,290.92L187.94,291.01L188.93,290.98L189.26,289.84L189.93,298.11L190.26,294.96L190.59,294.05L190.92,294.67L191.25,294.54L191.58,294.22L191.92,298.44L192.25,298.79L192.58,298.22L192.91,298.21L193.9,299.01L194.24,291.47L194.9,299.1L195.23,298.4L195.56,299.02L195.89,298.02L196.22,298.8L196.56,299.02L197.55,298.7L197.88,299.02L198.54,299.02L198.88,289.16L199.87,289.14L200.2,284.48L201.53,300.67L201.86,298.62L202.85,299.1L203.19,301.45L203.52,301.31L203.85,298.39L204.84,300.89L205.17,301.08L205.51,301.15L205.84,293.49L207.49,293.64L207.83,293.62L208.16,288.41L208.49,293.63L208.82,293.88L212.47,293.99L212.8,284.32L214.12,284.25L214.46,288.99L214.79,288.98L215.12,292.48L216.11,292.28L216.44,293.46L217.11,293.55L217.44,259.29L218.43,292.33L218.76,292.51L219.43,294.76L219.76,288.78L220.09,289.1L220.42,288.25L220.75,283.08L221.08,287.87L221.42,288.24L221.75,288.33L222.08,286.44L222.74,288.3L223.07,288.19L223.4,288.18L225.39,283.6L225.72,283.75L226.39,285.21L226.72,283.7L227.05,285.24L227.38,282.75L229.04,282.16L229.37,275.24L231.03,275.24L231.36,277.72L231.69,277.74L232.02,278.74L233.02,277.8L233.35,278.85L234.34,249.71L234.67,250.25L235.67,250.32L236,259.53L236.33,261.5L236.99,260.93L237.33,260.93L237.99,261.52L238.32,265.69L238.98,265.1L239.31,267.15L239.65,266.59L239.98,261.49L240.97,268.35L241.3,268.35L241.63,270.47L241.97,269.07L242.3,267.84L242.96,268.15L243.29,268.37L244.29,267.88L244.62,259.38L244.95,259.18L245.28,259.95L246.61,259.79L246.94,268.28L247.27,268.28L247.6,267.26L247.93,269.41L248.26,268.28L248.6,268.27L249.92,268.28L250.25,269.42L252.24,265.11L252.57,264.79L253.57,262.29L253.9,262.29L254.23,264.78L254.56,264.34L254.89,263.72L255.22,265.32L255.56,264.33L255.89,264.33L256.22,264.33L256.55,260.41L257.21,283.94L257.54,265.31L257.88,265.93L258.21,264.65L258.54,264.65L258.87,282.66L259.87,281.73L260.2,283.97L263.51,284.17L263.84,273.53L264.84,278.96L265.17,278.96L268.15,279.01L268.48,275.54L269.81,274.25L270.14,275.32L270.47,272.83L270.8,223.53L272.79,223.6L273.12,199.16L273.79,220.4L274.12,219.22L274.45,219.27L274.78,219.92L275.11,234.81L275.78,254.07L276.11,254.06L276.44,242.21L277.43,254.16L277.76,254.18L278.76,254.56L279.09,240.43L279.42,240.61L279.75,254.59L281.74,254.45L282.07,253.38L283.07,254.67L283.4,253.74L284.39,253.74L284.72,275.67L285.06,275.74L285.39,266.49L286.38,253.74L286.71,265.07L287.04,258.3L287.38,259.64L287.71,269.38L288.04,262.22L288.37,262.53L288.7,270.68L289.37,270.38L289.7,275.43L291.35,275.76L291.69,276.65L292.02,276.99L292.35,275.55L293.34,275.55L293.67,275.36L294.01,276.6L294.34,275.7L294.67,274.44L295.99,274.46L296.33,275.9L296.66,275.7L296.99,274.22L297.98,274.23L298.31,274.23L298.98,278.78L299.31,277.32L299.64,277.34L299.97,277.34L300.3,278.78L300.63,278.79L300.97,279.9L301.96,278.68L302.29,278.73L303.29,279.27L303.62,278.11L304.61,278.56L304.94,278.51L305.28,278.5L305.61,269.2L305.94,272.05L306.27,262.95L307.26,272.07L307.6,272.07L307.93,271.68L308.26,262.55L308.59,261.42L308.92,271.36L310.25,273.35L310.58,264.19L311.57,263.05L311.9,263.05L312.24,263.05L312.57,268.07L313.56,263.05L313.89,263.05L314.56,253.15L314.89,254.68L315.22,263.05L317.21,263.13L317.54,267.44L318.2,263.08L318.53,263.14L318.87,263.33L319.2,263.37L319.53,267.7L319.86,268.62L320.19,267.53L320.52,267.55L321.52,267.42L321.85,146.3L322.84,254.48L323.17,254.48L324.17,266.85L324.5,265.98L324.83,264.76L325.16,264.74L325.49,265.87L329.14,265.34L329.47,266.52L332.12,266.36L332.46,263.95L334.11,264.61L334.44,272.94L335.11,275.63L335.44,272.85L335.77,273.11L336.1,271.16L336.43,271.03L336.76,273.28L337.43,273.3L337.76,282.42L338.75,263.63L339.08,272.62L339.75,272.75L340.08,278.39L340.41,266.61L340.74,270.87L341.07,275.66L341.4,270.62L341.74,275.52L342.07,275.52L342.4,270.25L342.73,275.74L343.06,275.8L344.06,262.57L344.39,275.54L344.72,275.56L345.05,261.08L345.38,275.8L345.71,275.13L346.04,262.15L346.38,262.59L346.71,275.56L347.04,259.76L347.37,259.99L347.7,266.46L348.03,275.24L348.37,268.43L348.7,268.43L349.36,268.43L349.69,276.81L350.02,278.49L350.35,277.95L350.69,268.33L351.02,268.53L351.35,275.64L351.68,275.68L352.01,268.72L352.34,268.73L352.67,276.94L353.67,277.05L354,270.74L354.66,271.08L354.99,280.38L355.33,271.01L355.66,273.19L355.99,280.22L356.32,279.09L356.65,272.71L358.97,272.75L359.3,275.52L359.97,275.69L360.3,282.66L360.63,282.25L360.96,273.11L361.96,257.59L362.29,267.11L362.62,270.77L362.95,265.79L363.94,273.73L364.28,273.67L365.27,273.11L365.6,273.2L365.93,282.27L366.26,273.51L366.6,276.85L367.59,276.74L367.92,270.21L368.25,277.71L368.92,276.18L369.25,276.25L369.58,276.25L369.91,273.57L370.57,282.23L370.9,270.79L371.24,276.92L371.9,275.38L372.23,275.23L372.56,272.6L372.89,275.41L373.22,273.16L373.56,273.23L374.22,275.79L374.55,275.67L374.88,273.04L375.21,280.06L375.54,271.31L375.88,273.47L376.21,275.6L376.54,275.54L376.87,273.31L377.2,273.31L377.53,259.42L378.53,272.03L378.86,269.4L379.19,269.21L379.52,271.83L380.19,282.69L380.52,282.42L380.85,282.42L381.84,282.57L382.17,286.08L384.16,285.67L384.49,289.26L384.83,289.51L385.16,288.91L385.49,281.84L385.82,281.83L386.15,288.97L386.48,288.84L386.81,282.59L387.15,288.85L387.48,287.95L387.81,284.78L388.14,285.26L388.47,288.42L388.8,288.44L389.13,271.91L389.47,271.91L389.8,267.3L391.46,282.1L391.79,279.17L392.78,285.24L393.11,285.24L393.44,285.3L393.78,288.22L394.77,288.24L395.1,270.5L396.43,261.16L396.76,263.16L397.09,269.76L398.08,269.37L398.42,262.98L398.75,263.02L399.08,256.69L400.07,262.87L400.4,262.85L400.74,261.49L401.07,256.47L402.06,262.68L402.39,262.68L403.06,263.38L403.39,257.25L404.38,262.87L404.71,263.34L405.04,263.22L405.38,265.68L405.71,259.8L406.04,263.99L406.37,263.93L406.7,263.94L407.03,260.28L407.37,260.47L407.7,265.94L408.36,258.67L408.69,258.91L409.02,258.91L409.69,278.56L410.02,278.39L410.35,260.53L411.34,253.72L411.67,254.17L412.01,255.3L412.67,221.22L413,243.93L413.33,242.16L413.66,259.21L414.33,276.86L414.66,276.61L414.99,254.37L415.98,274.36L416.31,274.46L416.65,274.42L416.98,280.67L417.64,272.77L417.97,277.16L418.97,277.14L419.3,280.54L419.96,270.93L420.29,274.42L420.62,274.36L421.62,279.07L421.95,272.98L422.28,279.42L422.61,274.5L422.94,276.25L423.28,276.29L423.61,279.85L423.94,281.51L424.27,275.21L425.26,284.06L425.6,281.39L427.58,282.22L427.92,284.11L428.25,284.14L428.58,281.71L428.91,275.07L429.24,283.65L431.89,283.91L432.22,283.78L432.89,283.58L433.22,270.48L433.55,271.61L433.88,270.49L434.21,270.84L435.21,272.17L435.54,271.23L435.87,281.2L436.2,281.1L436.53,276.57L436.87,276.69L437.2,275.63L437.53,275.65L437.86,261.35L439.19,276.49L439.52,275.43L439.85,275.24L440.18,259.99L440.84,276.53L441.17,266.72L442.17,275.48L442.5,275.89L442.83,275.75L443.16,276.51L444.16,275.11L444.49,275.11L444.82,273.93L445.15,267.57L445.48,274.04L445.81,273.01L446.15,271.9L446.81,272.95L447.14,264.19L447.47,265.16L447.8,275.06L448.13,264.43L448.47,273.38L448.8,275.06L449.13,275.14L449.46,258.1L449.79,275.39L450.46,275.04L450.79,274.95L451.45,274.83L451.78,228.57L452.11,231.64L452.44,260.77L452.78,257.92L453.11,267L453.77,267.08L454.1,244.73L454.43,245.09L454.76,248.3L455.43,251.79L455.76,236.41L456.75,275.52L457.08,269.93L457.42,269.85L458.41,270.01L458.74,272.71L460.73,272.57L461.06,272.44L463.05,272.2L463.38,279.09L463.71,281.04L464.04,273.17L464.38,278.61L464.71,272.1L465.04,272.22L465.7,285.41L466.03,278.94L466.37,273.3L466.7,279.78L467.03,279.65L467.36,273.15L468.69,277.01L469.02,274.46L469.35,274.47L469.68,277.05L470.01,277.09L470.34,281.92L471.01,284.35L471.34,282.31L471.67,282.42L472,280.76" style="vector-effect: non-scaling-stroke; fill: none; stroke: rgb(99, 110, 250); stroke-opacity: 1; stroke-width: 2px; opacity: 1;"/></g><g class="points"/><g class="text"/></g><g class="trace scatter trace4a9fbb" style="stroke-miterlimit: 2; opacity: 1;"><g class="fills"/><g class="errorbars"/><g class="lines"><path class="js-line" d="M0,270.44L1.33,266.91L1.66,273.89L1.99,273.66L2.32,268.83L3.65,262.21L3.98,233.84L4.64,248.78L4.97,217.8L5.63,254.31L5.97,250.87L6.3,262.84L7.29,248.29L7.62,249.51L7.96,250.84L8.29,249.48L8.62,255.94L8.95,258.06L9.28,249.27L9.61,242.13L9.94,247.94L10.28,255.17L10.61,253.12L10.94,255L11.27,258.37L11.93,249.23L12.26,255.7L13.59,268.26L13.92,259.47L14.25,260.42L14.58,264.69L14.92,263.06L15.25,264.23L15.58,269.85L16.57,266.38L16.9,267.99L17.9,271.05L18.23,271.67L18.56,268.1L18.89,249.59L19.89,261.72L20.22,255.57L21.21,273.26L21.54,272.7L22.54,270.93L22.87,276.07L23.53,276.46L23.87,275.45L24.2,274.3L24.53,275.87L24.86,273.99L25.19,275.22L25.52,268.29L25.85,269.38L26.19,268L26.52,267.92L27.18,260.19L27.51,269.02L28.84,275.31L29.17,274.83L29.5,274.11L29.83,276.43L30.16,278.16L30.49,276.86L30.83,277.65L31.49,275.28L31.82,265.7L32.48,276.84L32.81,275.98L33.15,276.35L33.48,276.91L33.81,275.78L35.47,273.29L35.8,274.57L36.13,275.94L36.46,274.58L36.79,273.54L37.12,273L37.46,274.02L38.45,273.35L38.78,263.09L40.11,270.95L40.44,270.95L40.77,269.68L41.1,271.31L41.43,273.04L42.43,271.79L42.76,268.95L43.09,270.95L43.42,265.37L44.08,273.71L44.42,272.07L44.75,272.39L45.08,270.57L45.41,271.79L45.74,273.06L46.07,270.51L46.4,273.02L46.74,271.93L47.73,274.47L48.06,267.36L48.39,267.14L48.72,269.42L49.06,272.69L50.05,270.41L50.71,271.62L51.04,277.73L51.71,273.78L52.04,275.82L52.7,276.69L53.03,277.43L53.37,277.02L53.7,279.06L55.02,268.85L55.35,277.11L55.69,278.64L56.02,276.46L56.35,277.48L56.68,276.02L57.01,275.03L57.34,277.43L57.67,277.11L58.01,278.54L59,279.36L59.33,277.27L60.33,279.43L60.66,279.4L61.32,279.64L61.65,278.2L61.98,279.4L62.65,279.15L62.98,278.28L63.31,277.59L63.64,280.42L63.97,281.31L64.3,264.22L65.3,281.39L65.63,279.48L66.29,279.12L66.62,283.22L66.96,282.01L67.29,281.48L67.62,283.5L67.95,281.32L68.28,281.69L68.61,283.73L68.94,283.25L69.28,279.08L69.94,282.88L70.27,282.12L70.6,282L70.93,283.32L71.26,280.87L71.6,280.96L71.93,283.34L73.25,281.92L73.58,276.91L74.58,282.67L74.91,280.49L75.57,280.48L75.9,278.53L76.57,282.68L76.9,282.05L77.23,282.21L77.89,280.61L78.22,269.55L78.89,280L79.22,277.53L79.55,279.68L79.88,281.18L80.21,278.17L80.54,275.25L80.88,278.52L81.21,278.78L81.54,283.18L81.87,282.17L82.2,281.48L82.53,280.23L82.87,259.48L83.53,278.05L83.86,276.34L84.19,278.47L84.52,280.73L84.85,278.4L85.19,274.88L86.18,280.98L86.51,281.62L86.84,283.03L87.17,280.57L87.51,279.9L87.84,282.71L88.17,284.23L88.5,283.96L88.83,283.45L89.16,285.64L89.49,285.1L89.83,284.79L90.16,281.36L90.82,282.2L91.15,281.04L92.15,284.64L92.48,282.72L92.81,284.41L93.14,281.65L93.8,283.19L94.13,285.84L94.47,283.49L94.8,285.34L95.13,286.12L95.46,287.22L95.79,286.11L96.12,285.9L96.46,283.74L96.79,286.21L97.12,285.81L97.78,287.21L98.11,286.43L98.44,286.38L98.78,283.11L100.1,287.3L100.43,275.23L101.76,283.38L102.09,284.49L102.75,286.26L103.08,285.85L103.42,285.45L103.75,285.25L104.08,283.49L104.41,286.3L105.07,285.56L105.4,283.12L105.74,280.94L106.07,284.12L106.4,284.99L106.73,284.55L107.06,284.09L107.72,281.37L108.06,283.04L108.39,282.05L108.72,282.54L109.05,284.95L110.38,279.89L110.71,285.62L111.04,284.64L111.37,285.66L111.7,285.38L112.37,281.49L112.7,284.44L113.36,285.82L113.69,284.66L114.35,283.96L114.69,279.62L115.35,286.7L115.68,286.5L116.01,284.84L116.67,285.95L117.01,284.14L117.67,282.35L118,273.35L118.33,249.4L118.66,278L118.99,285.95L119.66,284.38L119.99,287.8L120.32,284.81L120.65,261.29L121.31,284.26L121.65,284.19L121.98,283.07L122.64,283.36L122.97,284.69L123.97,280.37L124.3,283.48L125.29,286.34L125.62,282.61L125.96,283.59L126.29,279.81L127.61,285.36L127.94,282.45L128.61,280.68L128.94,282.1L129.93,285.86L130.26,286.12L130.93,284.13L131.26,285.91L131.59,281.01L131.92,284.84L132.25,285.22L132.58,284.33L132.92,285.7L133.58,285.39L133.91,287.13L134.24,287.95L134.57,286.29L134.9,287.25L135.24,287.07L135.57,285.05L135.9,287.93L136.23,284.21L137.22,285.8L137.56,286.66L138.55,281.4L138.88,287.23L139.54,289.89L139.88,288.19L140.21,288.58L140.87,288.46L141.2,290.44L142.2,290.13L142.53,289.54L143.52,291.66L143.85,290.87L144.19,290.59L144.52,291.25L144.85,289.6L145.18,290.18L145.51,286.34L145.84,286.39L146.17,287.95L147.17,287.43L147.5,289.46L148.49,292.71L148.83,291.43L150.15,296.2L150.48,293.57L151.15,294.82L151.48,295.46L152.47,294.25L152.8,294.21L153.8,295.23L154.13,294.8L154.46,295.67L154.79,291.5L155.12,291.64L155.46,292.63L156.45,293.58L156.78,290.07L157.44,253.8L157.78,269.03L158.11,272.81L158.44,272.91L158.77,274.28L159.1,274.53L159.43,265.5L159.76,265.05L160.1,266.99L160.43,267.75L160.76,270.74L161.42,273.91L161.75,278.7L162.08,279.66L162.42,279.09L162.75,278.71L163.41,280.82L163.74,280.64L164.07,275.61L165.4,283.43L165.73,281.91L166.06,280.46L166.39,285.84L167.06,284.72L167.39,285.13L167.72,286.55L168.38,285.09L168.71,285.94L169.38,284.77L169.71,287.92L170.04,287.5L170.37,285.1L170.7,286.2L171.03,278.02L171.7,284.06L172.03,281.5L172.36,284.47L173.02,283.78L173.35,285.23L173.69,284.35L174.02,287.67L174.35,287.76L174.68,286.99L175.34,284.93L175.67,280.21L176.67,286.72L177,279.9L177.66,283.75L177.99,279.84L178.33,279.58L178.66,283.92L179.32,285.95L179.65,283.39L179.98,285.25L180.31,279.13L180.98,286.72L181.31,286.46L181.64,284.46L182.3,286.97L182.63,289.96L183.3,287.75L183.63,288.25L183.96,289.34L184.29,284.62L184.96,285.18L185.29,283.55L185.62,283.67L185.95,284.94L187.28,281.78L187.61,282.56L188.6,284.47L188.93,285.01L189.26,283.3L189.6,285.23L189.93,284.63L190.59,286.17L190.92,285.62L191.25,285.82L191.58,285.54L191.92,288.24L192.58,286.26L192.91,288.24L193.57,285.09L193.9,271.28L194.24,269.08L194.9,269.64L195.23,271.04L195.56,271.48L195.89,269.83L196.22,269.02L196.56,276.15L196.89,273.84L197.22,274.08L197.55,274.9L198.21,272.63L198.54,273L198.88,273.42L199.54,270.15L199.87,270.25L200.2,268.52L200.87,270.8L201.2,287.24L201.53,285.45L201.86,288L202.19,288.5L202.52,287.1L202.85,286.83L203.19,287.27L203.52,284.67L204.18,256.86L204.51,284.42L205.17,283.69L205.51,285.24L206.5,276.72L206.83,278.27L207.16,278.43L207.49,276.16L207.83,278.1L208.16,276.86L208.49,277.38L209.15,279.13L209.48,276.71L210.15,277.55L210.48,282.21L211.47,277.69L211.8,277.45L212.47,279.68L212.8,274.91L213.13,275.64L213.46,274.48L214.46,278.37L214.79,277.29L216.11,280.1L216.44,279.53L217.11,280.95L217.44,271.88L218.76,283.38L219.1,282.41L219.43,283.25L219.76,277.76L221.08,282L221.42,277.45L221.75,278.74L222.08,273.01L222.74,280.12L223.07,279.33L223.4,278.08L223.74,278.39L224.07,267.05L224.4,275.54L225.06,275.36L225.39,275.53L226.39,276.63L226.72,272.53L227.71,276.54L228.04,275.74L228.38,274.83L228.71,276.62L229.04,274.42L229.37,270.15L229.7,269.82L230.03,270.66L230.37,270.61L230.7,273.41L231.36,275.41L231.69,274.18L232.02,274.22L232.35,276.02L232.69,273.72L233.02,275.73L233.35,276.01L233.68,246.78L234.34,247.15L234.67,249.4L235.34,257.05L235.67,256.92L236,256.52L237.99,260.57L238.32,260.29L239.31,256.35L239.65,267.98L240.64,261.17L240.97,260.14L241.3,259.97L241.63,246.14L242.63,261.42L242.96,257.25L243.62,262.57L243.96,258.46L244.29,258.92L244.62,252.78L244.95,256.92L245.28,252.36L245.61,255.25L245.94,255.61L246.28,257.93L246.61,255.87L246.94,257.7L247.27,257.7L247.6,262.84L248.26,262.29L248.6,260L250.25,265.59L250.58,268.65L250.92,263.29L251.25,266.96L251.58,265.88L251.91,265.44L252.24,269.84L252.57,269.25L252.9,274.31L253.9,271.81L254.23,273.55L255.22,277L255.56,276.56L256.55,279L256.88,276.28L257.21,275.51L257.54,277.15L258.54,280.33L258.87,277.1L259.2,280.98L259.87,280.2L260.2,278.4L260.86,279.61L261.19,278.07L261.52,280.02L262.19,279.75L262.52,257.74L263.51,276.73L263.84,270.32L264.51,277.9L264.84,274.96L265.17,275L266.16,276.68L266.49,275.63L266.83,274.87L267.16,275.88L267.49,275.55L268.15,274.55L268.48,275.8L268.81,274.78L269.15,276.18L269.81,275.08L270.14,277.83L270.47,274.54L270.8,220.48L271.47,236.34L271.8,232.37L272.13,234.93L272.79,238.12L273.12,225.31L274.12,233.89L274.45,235.72L275.11,241.61L275.44,248.08L275.78,249.2L276.11,247.65L276.44,247.36L276.77,251.29L277.1,251.1L277.43,253.12L278.43,259.6L278.76,258.93L279.09,255.81L279.75,257.18L280.08,262.07L280.42,262.16L280.75,263.62L282.07,256.07L282.4,260.28L283.07,266.59L283.4,264.89L283.73,265.54L284.72,269.26L285.06,269.11L285.39,270.78L285.72,266.32L286.05,266.05L286.38,266.77L286.71,268.09L287.04,254.6L287.71,268.63L288.04,267.38L288.37,268.79L288.7,271.12L289.03,265.66L290.03,273.28L290.36,266.31L290.69,266.02L291.02,266.62L291.35,266.66L292.68,274.63L293.01,273.56L293.67,274.27L294.01,272.51L294.34,267.77L294.67,267.94L295,276.02L295.99,272.54L296.33,274.19L296.99,276.87L297.32,275.83L297.65,275.29L297.98,274.91L298.31,272.03L298.98,277L299.31,274.58L300.3,278.01L300.63,277.03L300.97,275.82L301.3,280.74L301.96,275.5L302.29,280.06L302.96,279.62L303.29,281.31L303.95,282.51L304.28,281.32L305.28,279.77L305.61,273.66L306.27,275.91L306.6,275.73L306.93,273.8L307.26,274.66L307.6,273.22L307.93,273.24L308.26,270.85L308.59,275.72L308.92,274.76L309.25,273.52L309.92,274.26L310.25,271.51L310.91,275.41L311.24,273.08L311.9,274.17L312.24,272.6L312.57,271.11L312.9,273.62L313.23,275.81L313.56,274.68L313.89,273.45L314.56,268.18L314.89,254.02L315.55,275.5L315.88,272.76L316.21,267.59L316.54,273.24L316.88,266.3L317.21,269.04L318.2,275.24L318.53,275.03L318.87,273.4L319.2,275.72L320.19,278.87L320.52,277.61L321.52,280.03L321.85,214.33L322.51,269.77L322.84,261.73L323.17,267.76L324.17,280.52L324.5,280.06L324.83,280.47L325.83,283.43L326.16,282.76L326.49,281.87L327.15,280.39L327.48,283.59L328.48,282.25L328.81,278.68L329.14,277.83L329.47,278.38L329.8,280.88L330.13,280.58L330.47,282.59L330.8,282.74L331.13,280.47L331.79,278.36L332.12,281.25L332.46,281.16L332.79,282.83L333.12,282.92L333.45,281.33L333.78,280.92L334.11,283.69L335.44,283.16L335.77,280.96L336.76,284.32L337.1,283.03L337.43,284.53L337.76,283.76L338.09,282.59L338.42,281.86L338.75,282.15L339.08,282.43L339.42,282.68L339.75,283.94L340.08,284.24L340.41,279.9L341.07,282.73L341.4,282.32L341.74,282.1L342.07,282L342.4,281L342.73,281.13L343.06,278.34L343.72,277.19L344.06,277.7L344.39,283.31L344.72,282.63L345.05,276.98L346.04,284.11L346.38,284.49L346.71,283.97L347.04,267.99L347.37,265.76L347.7,267.1L348.03,267.94L348.7,269.5L349.03,268.76L349.36,269.46L349.69,249.37L350.02,262.31L350.35,266.3L351.68,267.29L352.01,265.69L353.01,269.62L353.34,269.83L353.67,269.03L354,264.84L354.33,263.03L354.66,264.22L354.99,266.75L355.66,268.1L355.99,266.94L356.32,268.25L356.65,263.04L357.65,265.07L357.98,266.31L358.64,268.48L358.97,259.22L359.3,254.81L359.63,263.69L360.3,262.08L360.63,264.44L360.96,265.51L361.29,251.04L362.29,265.21L362.62,257.87L363.61,268.62L363.94,267.85L364.28,267.88L364.61,270L364.94,269.27L365.27,270.45L365.6,270.37L365.93,267.34L366.93,265.96L367.26,266.72L368.25,264.78L368.58,267.87L369.58,269.19L369.91,267.06L370.24,269.23L370.57,268.9L370.9,267.31L371.24,268.25L371.57,262.84L371.9,260.87L372.23,263.36L372.56,264.03L373.56,263.89L373.89,266.23L374.55,265.22L374.88,266.21L375.21,266.96L375.54,266.39L375.88,266.26L376.21,263.59L376.54,265.96L376.87,267.15L377.2,268.79L377.53,253.55L378.2,265.28L378.53,263.45L378.86,265.93L379.52,268.38L379.85,261.75L380.52,266.43L380.85,264.92L381.18,267.26L381.84,268.91L382.17,267.55L384.16,271.8L384.49,271.24L384.83,274.61L385.16,274.57L385.49,272.47L385.82,272.01L386.15,273.34L386.48,272.35L386.81,268.09L388.14,272.74L388.47,272.61L388.8,272.5L389.13,264.66L390.13,269.31L390.46,269.02L390.79,268.24L391.12,269.47L391.46,269.71L391.79,272.29L392.12,272.81L392.45,271.63L393.11,272.35L393.44,270.13L394.11,265.88L394.44,269.72L395.76,263.27L396.1,255.41L396.76,258.36L397.09,255.36L398.42,258.75L398.75,258.06L399.08,258.09L399.41,256.39L400.07,257.51L400.4,255.86L400.74,252.74L401.07,254.04L401.4,253.99L401.73,252.7L402.06,255.15L402.39,253.45L402.72,255.4L403.06,260.42L404.38,256.52L404.71,256.78L405.04,256.27L405.38,247.01L406.7,258.07L407.03,258.21L407.37,257.53L407.7,250.55L408.03,252.44L408.36,245.26L409.35,256.51L409.69,258.31L410.02,249.89L410.35,252.41L410.68,254.32L411.01,254.54L411.34,253.76L411.67,255.86L412.01,255.68L412.34,230.28L413.66,258.36L413.99,256.89L414.33,257.23L414.66,254.17L414.99,251.15L415.32,253.64L415.65,255.82L416.65,258.54L416.98,257.54L417.31,256.41L417.64,259.79L417.97,259.61L418.3,260.48L418.63,260.59L418.97,261.96L419.96,254.8L420.29,256.96L420.62,259.73L421.95,264.95L422.28,263.59L423.28,260.04L423.61,260.72L423.94,263.34L424.27,263.67L424.6,258.44L424.93,251.16L425.26,262.26L426.92,270.89L427.25,269.34L427.58,268.42L427.92,263.25L428.25,263.43L428.58,265.56L429.57,267.1L429.9,264.97L430.24,266.3L430.57,264.28L431.23,265.71L431.56,260.17L432.22,267.37L432.56,267.17L432.89,259.05L433.55,257.66L433.88,251.81L434.88,262.37L435.21,261.46L436.2,265.1L436.53,262.05L436.87,263.47L437.2,263L437.53,262.49L437.86,254.26L438.19,261.14L438.52,259.8L438.85,259.77L439.19,256.91L439.52,258.95L439.85,249.78L440.84,243.66L441.17,245.12L442.17,260.05L442.5,261.99L443.16,260.89L443.49,261.14L443.83,258.43L445.15,267.87L445.48,267.08L446.48,265.77L446.81,266.99L447.14,261.65L447.8,262.57L448.13,262.32L448.47,261.88L448.8,253.05L449.46,253.74L449.79,263.83L450.12,260.92L450.46,262.86L450.79,262.41L452.44,231.76L452.78,226.2L453.77,245.65L454.1,234.38L455.43,254.7L455.76,257.99L456.09,252.92L456.42,256.26L456.75,257.15L457.08,253.82L457.42,257.23L457.75,254.29L458.08,230.92L458.41,218.51L458.74,219.18L459.07,234.36L459.74,250.35L460.07,261.77L460.4,259.36L461.06,259.63L461.39,263.6L461.72,262.94L462.06,264.02L462.39,264.26L462.72,265.99L463.05,264.89L463.38,270.8L463.71,266.27L464.38,266.39L464.71,266.17L465.04,263.44L465.37,266.92L465.7,268.01L466.03,266.56L466.37,268.32L466.7,268.37L467.03,269.63L467.36,267.57L468.02,255.59L468.35,262.49L468.69,260.61L469.02,261.32L469.35,261.18L470.01,263.66L470.34,269.89L470.67,271.17L471.01,269.97L471.34,270.42L471.67,270.34L472,268.95" style="vector-effect: non-scaling-stroke; fill: none; stroke: rgb(239, 85, 59); stroke-opacity: 1; stroke-width: 2px; opacity: 1;"/></g><g class="points"/><g class="text"/></g><g class="trace scatter tracedb2dc1" style="stroke-miterlimit: 2; opacity: 1;"><g class="fills"/><g class="errorbars"/><g class="lines"><path class="js-line" d="M0,247.52L0.66,258.74L0.99,256.7L1.33,261.44L1.99,267.21L2.32,263.72L3.98,241.78L4.31,249.3L4.97,225.7L5.3,232.9L5.63,230.11L6.63,238.77L6.96,237.88L7.29,227.33L7.62,234.25L7.96,234.5L8.29,234.03L8.62,237.28L8.95,232.56L9.28,235.14L9.61,237.72L10.28,231.6L10.61,233.39L10.94,244.58L11.27,243.78L11.6,246.35L11.93,246.44L12.26,243.72L12.6,242.75L12.93,253.35L13.92,259.69L14.25,258.18L14.58,256.92L14.92,257.14L15.25,259.34L16.24,262.8L16.57,262.58L16.9,260.02L17.24,261.66L17.57,264.96L18.56,251.11L18.89,235.03L19.22,236.96L19.56,234.24L20.22,237.04L20.55,242.04L21.21,242.45L21.54,239.67L21.88,248L22.54,248.67L22.87,253.02L23.2,253.09L23.53,251.36L24.53,263.91L24.86,263.51L25.19,264.64L25.52,257.69L25.85,254.78L26.19,258.93L26.85,263.28L27.18,259.44L27.51,264.15L28.17,262.84L28.51,265.14L29.17,273.95L29.5,260.29L30.16,256.65L30.49,261.83L31.16,261.3L31.49,270.8L32.48,277.61L32.81,273.71L33.48,262.85L33.81,264.24L34.14,265.55L35.13,276.29L35.47,275.74L35.8,273.39L36.46,275.06L36.79,270.74L37.12,272.07L37.46,270.76L37.79,269.11L38.45,275.49L38.78,271.81L39.11,269.65L39.78,273.83L40.11,268.89L40.44,267.86L40.77,272.85L41.43,268.39L41.76,269.92L42.1,270.84L42.76,273.32L43.09,276.39L44.42,270.5L44.75,272.42L45.08,272.01L45.41,275.21L45.74,273.75L46.07,274.63L46.4,274.98L46.74,273.19L47.07,273.86L47.4,275.96L47.73,275.99L48.06,271.2L48.39,272.93L48.72,271.41L49.06,271.11L50.71,277.87L51.04,277.46L51.38,277.04L52.37,283.27L52.7,276.95L53.37,280.41L53.7,277.78L54.03,275.07L54.36,277.28L54.69,277.71L55.69,262.01L56.02,264.55L56.35,271.83L57.01,270.65L57.34,274.85L57.67,275.73L58.01,272.48L59.33,279.22L59.66,276.82L59.99,274.23L60.33,276.34L60.66,277.83L61.32,277.84L61.65,281.15L62.31,280.13L62.65,281.74L63.31,283.75L63.64,282.1L63.97,284.68L64.3,264.58L65.63,283.62L65.96,285.05L66.29,281.02L66.62,287.33L67.95,282.96L68.28,283.7L68.61,287.04L68.94,285.72L69.28,281.95L70.93,286.43L71.26,285.21L71.6,285.48L71.93,284.52L72.26,283.31L72.59,286.13L72.92,285.52L73.25,286.66L73.58,283.93L73.92,285.29L74.25,284.99L74.91,286.51L75.24,286.33L75.57,286.6L75.9,286.08L76.24,287.06L76.57,286.91L76.9,285.48L77.89,288.36L78.22,277.95L79.55,287.13L79.88,287.06L80.21,288.18L80.54,287.85L80.88,287.7L81.54,285.22L81.87,286.37L82.2,286.1L82.53,286.96L82.87,284.62L83.2,286.71L83.53,287.53L84.52,284.45L84.85,287.06L85.52,285.67L85.85,286.13L86.18,285.86L88.83,286.16L89.16,287.46L89.49,288.2L89.83,284.27L90.16,290.31L90.49,289.02L90.82,287.97L91.48,287.77L91.81,289.72L92.15,285.92L92.48,288.16L92.81,287.49L93.47,288.94L93.8,287.63L94.13,289.34L94.47,272.76L94.8,288.63L95.46,288.57L95.79,288.23L96.12,287.87L96.46,289.47L96.79,287.35L97.12,289.32L97.45,289.72L97.78,289.06L98.11,292.46L99.11,276.11L99.44,293.04L100.1,290.25L100.43,291.45L100.76,291.06L101.76,294.48L102.09,294.25L103.08,292.34L103.42,294.2L103.75,295.17L104.08,294.35L104.41,294.66L105.4,291.31L105.74,294.39L106.4,292.88L106.73,293.2L107.06,293.76L107.39,293.92L107.72,292.94L108.39,294.41L108.72,292.32L109.05,291.2L109.38,294.17L111.37,294.61L111.7,292.01L112.03,294.2L112.37,292.71L112.7,292.31L113.03,290.65L113.36,292.88L114.02,288.35L114.35,290.53L114.69,291.6L115.35,291.95L115.68,290.59L116.01,291.4L116.34,290.72L116.67,290.67L117.01,290.57L117.34,288.06L117.67,289.47L118,287.84L118.33,288.45L118.66,287.97L118.99,290.86L119.33,291.9L119.66,290.44L120.32,291.73L120.65,287.44L121.98,291.5L122.31,288.58L122.97,291.47L123.3,288.69L124.3,290.92L124.63,290.01L124.96,290.02L125.29,291.34L126.29,290.13L126.62,290.91L127.28,291.8L127.61,291.45L127.94,290.76L128.61,287.86L128.94,290.22L130.26,286.76L130.6,288.62L131.26,289.71L131.59,289.32L131.92,287.47L132.25,289.1L132.58,286.43L133.25,289.3L133.58,289.07L133.91,288.04L134.24,286.27L134.57,287L134.9,288.05L135.24,286.48L135.57,287.49L135.9,288.04L136.56,289.05L136.89,287.91L137.56,290.1L137.89,289.55L138.22,290.42L138.55,273.51L139.21,277.78L139.54,277.7L140.54,278.03L140.87,266.24L141.53,276.41L141.87,267.86L142.86,281.59L143.19,276.4L143.85,284.44L144.19,277.67L144.52,276.57L144.85,261.2L145.18,261.36L145.51,267.67L145.84,272.75L146.17,268.61L146.51,262.78L147.5,268.6L147.83,265.03L148.16,273.61L148.83,272.23L149.16,274.36L149.49,274.04L149.82,276.89L150.48,285.47L150.81,281.02L151.15,277.7L151.81,276.75L152.47,287.28L152.8,283.47L153.13,283.74L153.47,281.62L154.46,286.9L154.79,286.37L155.46,284.2L155.79,287.61L156.78,288.4L157.11,287.04L157.44,232.72L157.78,244.25L158.11,266.34L159.43,275.66L159.76,274.95L161.09,280.47L161.42,280.45L161.75,281.73L162.08,279.92L162.42,283.76L162.75,282.78L163.08,281.36L163.41,281.02L163.74,283.24L164.07,281.95L164.4,284.9L165.4,288.62L165.73,287.72L166.72,291.58L167.06,290.13L167.39,287.8L168.38,292.73L168.71,291.7L169.04,291.56L169.38,288.95L170.04,289.04L170.37,289.08L170.7,287.95L171.03,289.69L171.37,290.59L171.7,289.16L172.36,290L172.69,289.23L173.35,288.73L173.69,289.74L174.68,287.91L175.01,288.14L175.67,283.53L176.01,286.7L176.67,284.81L177,286.46L177.33,285.57L177.66,285.75L177.99,287.91L178.66,287.44L178.99,288.54L179.32,287.87L179.65,288.5L179.98,289.31L180.31,289.44L180.65,288.29L180.98,287.42L181.31,287.83L181.64,288.44L182.63,289.24L182.97,288.84L183.63,288.22L183.96,288.66L184.29,290.37L184.62,288.78L184.96,284.02L185.29,286.55L185.62,286.46L185.95,285.74L187.28,285.43L187.61,281.71L188.27,284.59L188.6,282.96L189.26,284.04L189.6,281.79L191.25,286.7L191.58,285.97L193.24,287.45L193.57,286.53L193.9,287.77L194.24,284.52L194.57,288.79L195.23,288.05L195.56,288.09L195.89,287.45L196.22,288.8L196.56,289.34L196.89,288.56L197.22,288.03L197.88,289.83L198.21,287.74L198.54,287.39L198.88,288.17L199.21,288.66L199.54,290.83L201.53,286.26L201.86,286.16L202.19,285.66L202.52,287.95L203.85,285.89L204.18,285.95L204.84,287.03L205.17,285.69L205.51,287.02L205.84,278.7L206.17,281.17L206.5,277.76L206.83,278.08L207.16,277.45L207.49,277.19L207.83,278.57L208.16,274.6L208.82,278.84L209.15,278.41L209.48,277.77L209.81,278.94L210.15,278.83L210.48,278.48L210.81,277.51L211.14,279.88L211.47,278.27L211.8,279.6L212.13,278.91L212.47,279.42L212.8,276.31L213.13,275.96L213.46,276.8L213.79,277.77L214.46,277.42L214.79,275.68L215.12,276.48L215.45,275.05L216.11,277.01L216.44,275.32L216.78,277.16L217.11,275.45L217.44,270.4L217.77,275.07L218.1,275.02L218.43,273.66L219.43,280.53L219.76,278.28L220.42,274.4L220.75,276.65L221.08,277.99L221.42,278.76L221.75,277.43L222.08,277.67L222.41,273.8L222.74,275.24L223.07,273.44L223.4,274.29L223.74,273.77L224.07,271.56L225.06,273.34L225.39,272.93L225.72,268.24L226.06,274.96L226.39,274.14L226.72,270.15L227.38,275.08L227.71,272.92L228.71,275.05L229.04,273.62L229.7,273.45L230.03,271.14L231.03,275.79L231.36,275.33L231.69,274.17L232.02,275.46L232.35,276.44L233.02,276.84L233.35,279.57L234.34,267.99L234.67,271.31L235.01,272.76L235.34,269.95L235.67,269.79L236,268.52L238.32,276.76L238.65,274.54L238.98,274.49L239.31,277.32L240.31,279.92L240.64,274.62L240.97,276.04L241.3,274.58L241.63,272.65L242.3,275.37L242.63,274.94L242.96,274.24L243.62,274.01L243.96,275.46L244.29,274.84L244.62,277.29L244.95,277.71L245.28,274L246.94,280.89L247.27,280.33L247.6,280.73L247.93,279.47L248.26,280.07L248.6,282.55L248.93,282.68L249.26,280.96L250.58,284.33L250.92,282.73L251.58,282.89L251.91,280.84L252.57,280.23L252.9,280.5L253.24,281.38L254.23,280.45L254.56,281L255.22,280.03L255.56,281.46L255.89,280.74L256.22,281.82L256.55,281.29L256.88,279.16L257.21,282.07L257.54,281.43L257.88,282.55L258.87,281.65L259.2,279.1L259.53,278.84L259.87,281.09L260.86,278.67L261.19,279.3L261.52,278.23L261.85,281.54L262.85,281.69L263.18,280.75L263.51,280.64L263.84,274.99L264.51,276.54L264.84,272.54L265.17,269.08L265.5,272.49L265.83,276.54L266.16,275.74L266.49,276.17L266.83,276.6L267.16,278.04L267.82,277.82L268.15,278.08L269.15,275.61L269.48,276.97L270.47,276.82L270.8,248.84L271.47,244.76L271.8,246.04L272.13,248.46L272.79,254.03L273.12,247.68L275.11,263.25L275.44,264.19L275.78,264.08L276.11,262.94L277.43,266.47L277.76,266.12L279.09,272.07L279.42,272.02L280.75,274.54L281.08,274.98L282.07,276.27L282.4,275.43L283.4,277.35L283.73,276.27L284.06,276.58L284.39,278.23L285.39,276.27L285.72,277.85L286.71,276.61L287.04,276.87L287.38,274.78L287.71,277.41L288.04,277.41L289.7,281.85L290.03,279.8L290.36,279.01L290.69,281.18L291.69,282.01L292.02,281.18L292.68,281.34L293.01,279.96L293.34,281.39L293.67,280.59L294.01,280.55L294.34,282.1L294.67,281.89L295,280.01L295.33,278.74L295.66,279.19L295.99,281.71L296.99,282.48L297.32,281.22L297.65,281.71L297.98,280.12L298.31,280.55L298.65,279.75L300.3,282.54L300.63,281.38L300.97,273.35L301.3,277.64L301.63,282.03L302.29,281.38L302.62,283.92L304.61,284.89L304.94,283.73L305.28,284.63L305.61,275.77L306.6,278.49L306.93,277.47L307.26,276.66L307.6,277.09L307.93,277.26L308.26,276.43L308.59,276.81L308.92,277.01L310.25,279.06L310.58,278.36L310.91,277.48L311.24,278.39L311.57,278.97L311.9,274.58L312.24,278.51L312.57,278.52L313.56,278.27L313.89,278.87L314.89,278.37L315.22,277.23L316.54,279.34L316.88,279.28L317.54,278.23L317.87,279.6L319.2,277.72L319.53,277.4L319.86,276.6L320.19,277.94L321.52,278.31L321.85,274.93L322.84,279.79L323.17,278.7L323.84,279.69L324.17,278.96L324.5,279.29L324.83,280.72L325.83,278.18L326.16,279.46L326.49,279.68L326.82,277.55L327.81,279.51L328.15,278.4L328.48,280.93L328.81,277.38L329.47,278.12L329.8,279.71L330.13,280.84L330.47,278.35L331.13,281.26L331.46,279.9L332.12,279.06L332.46,279.53L333.12,280.39L333.45,278.39L333.78,279.46L334.11,278.62L334.44,278.45L335.44,279.38L335.77,277.18L336.76,278.97L337.1,278.58L337.76,279.56L338.09,280.29L339.08,275.85L339.42,276.75L339.75,277.16L340.08,273.71L341.74,277.63L342.07,277.19L343.06,273.79L343.39,274.07L343.72,274.64L344.39,274.72L344.72,273.71L345.05,273.7L345.38,272.6L346.38,273.59L346.71,273.72L347.04,260.53L347.7,263.21L348.03,261.62L349.03,263.24L349.36,263.31L350.35,261.16L350.69,261.78L351.35,262.21L351.68,264.13L352.01,265.65L352.34,262.71L353.34,266.04L353.67,263.72L354,263.03L354.33,264.57L354.66,263.61L354.99,264.16L355.33,264.86L356.32,264.29L356.65,265.08L357.65,265.29L357.98,265.05L358.31,266.25L358.64,265.21L358.97,264.1L359.3,262.22L359.63,262.5L359.97,253.68L360.96,265.23L361.29,251.69L361.62,247.2L361.96,266.71L362.29,255.31L362.62,265.81L362.95,264.36L363.28,263.77L363.61,265.51L363.94,248.35L364.28,264.68L364.61,264.86L365.27,252.22L365.6,264.45L365.93,263.58L366.26,264.4L366.6,264.18L367.59,256.29L367.92,257.34L368.58,256.72L368.92,257.22L369.91,256.59L370.24,258.48L370.9,257.05L371.24,258.52L371.57,259.11L371.9,256.28L374.88,261.31L375.21,260.99L375.54,254.89L375.88,263.09L376.54,258.22L376.87,253.26L377.87,264.16L378.2,262.67L378.53,262.36L378.86,263.82L379.52,262.36L379.85,265.02L380.19,263.43L380.52,264.4L380.85,263.97L381.18,264.03L381.51,264.88L382.84,263.8L383.17,264.34L384.16,267.68L384.49,266.02L384.83,264.33L385.16,267.2L385.49,267.1L385.82,269.03L386.48,268L386.81,268.92L387.15,269.33L387.48,268.11L388.14,267.79L388.47,268.95L388.8,267.87L389.13,270.32L389.8,269.35L390.13,270.01L390.46,266.81L390.79,269.39L391.12,265.83L391.46,270.24L391.79,269.73L392.12,268.18L392.45,268.27L392.78,266.79L393.11,261.28L393.44,267.19L393.78,268.01L395.43,259.16L395.76,264.41L396.1,265.02L396.43,263.51L396.76,263.47L397.09,259.07L397.75,263.27L398.08,259.87L398.42,263.08L398.75,260.99L399.08,260.25L400.74,266.17L401.07,265.29L401.73,265.9L402.06,264.5L402.39,266.64L402.72,266.07L403.06,264.8L403.72,262.88L404.05,264.96L404.38,258.23L404.71,262.46L405.04,261.84L406.04,250.88L406.37,253.91L406.7,253.75L407.03,263L408.03,249.47L408.36,256.72L408.69,263.97L409.02,257.19L409.35,249.09L409.69,259.22L410.02,257.04L410.35,246.61L410.68,248.44L411.01,262.89L412.01,265.36L412.34,235.55L413.99,264.24L414.33,262.89L415.32,272.4L415.65,260.07L415.98,261.59L416.31,240.46L416.65,241.26L416.98,249.84L417.31,248.45L417.64,264.67L417.97,253.18L418.3,264.77L418.63,262.44L418.97,262.56L419.3,261.87L419.63,238.87L419.96,260.53L420.29,263.12L420.96,266.64L421.29,263.75L421.95,267.02L422.28,266.29L422.61,264.17L423.28,262.46L423.61,264.87L424.27,259.23L424.6,266.69L424.93,270.6L425.26,268.67L425.6,252.73L425.93,253.69L426.26,258.67L426.59,260.31L426.92,259.45L427.25,257.71L427.58,248.95L427.92,256.68L428.25,263.25L428.58,259.4L428.91,270.53L429.24,271.7L429.57,268.13L430.9,274.55L431.23,271.5L431.56,271.47L431.89,270.08L432.56,269.41L432.89,273.11L433.88,268.66L434.21,269.97L434.88,269.53L435.21,270.24L436.87,272.89L437.2,272.79L437.53,273.26L437.86,271.47L438.85,273.21L439.19,272.35L439.52,274.45L439.85,274.24L440.18,263.37L440.51,263.48L440.84,265.71L441.17,258.94L441.51,270.17L441.84,270.3L442.17,271.9L442.5,269.43L442.83,273.93L443.83,272.09L444.16,273.06L445.15,274.76L445.48,272.58L446.15,274.94L446.48,274.52L446.81,274.8L447.47,276.7L447.8,273.75L448.13,275.39L448.47,274.52L448.8,266.86L449.13,272.87L449.79,271.53L450.12,265.11L451.12,276.79L451.45,269.19L451.78,235.06L452.44,243.3L452.78,248.38L453.11,245.06L453.44,262.38L454.43,272.21L454.76,270.63L455.76,274.92L456.09,270.86L456.75,273.34L457.08,273.29L457.42,271L459.07,276.37L459.4,273.6L459.74,270.85L460.07,275.64L460.4,275.78L460.73,277.76L461.06,278.78L461.39,276.64L461.72,276.27L462.06,277.65L462.72,277.12L463.05,276.29L463.38,276.16L463.71,277.71L464.38,275.91L464.71,277.56L465.37,277.42L465.7,279.6L466.03,277.08L466.37,277.75L466.7,278L467.36,278.36L467.69,287.8L468.35,266.92L468.69,270.26L469.02,271.52L470.01,272.27L470.34,274.01L471.01,272.78L471.34,273.1L471.67,274.01L472,272.46" style="vector-effect: non-scaling-stroke; fill: none; stroke: rgb(0, 204, 150); stroke-opacity: 1; stroke-width: 2px; opacity: 1;"/></g><g class="points"/><g class="text"/></g><g class="trace scatter trace51db7b" style="stroke-miterlimit: 2; opacity: 1;"><g class="fills"/><g class="errorbars"/><g class="lines"><path class="js-line" d="M0,287.69L0.99,291.71L1.33,291.1L1.66,290.84L1.99,292.41L2.98,290.02L3.31,290.16L3.65,290.41L3.98,287.91L4.31,290.15L4.64,290.59L5.97,289.82L6.3,290.72L6.63,292.09L6.96,290.44L7.29,290.67L7.96,288.56L8.29,291.76L8.95,292.94L9.28,290.91L11.27,292.54L11.6,292.19L11.93,291.48L12.26,291.89L12.6,292.27L12.93,291.57L13.26,292.37L13.59,293.14L14.58,290.88L14.92,292.83L16.57,293.06L16.9,291.25L17.24,293.2L17.57,291.26L17.9,290.32L18.56,291.96L18.89,291.34L19.22,289.8L19.56,292.24L19.89,292.16L20.22,286.6L20.88,292.41L21.21,290.53L22.21,294.38L22.54,293.3L23.53,294.1L23.87,293.05L24.86,292.64L25.19,293.51L26.19,284.18L26.52,284.63L28.17,289.94L28.51,288.87L28.84,292.07L29.5,291.46L29.83,291.69L30.16,291.13L30.49,292.93L32.15,293.01L32.48,294.18L33.15,292.99L33.48,289.93L34.47,286L34.8,290.05L35.13,291.77L35.8,291.64L36.13,292.04L36.46,292.28L36.79,291.16L37.12,292.39L37.46,291.93L37.79,291.57L38.45,292.01L38.78,286.45L39.78,291.82L40.11,290.49L40.44,290.7L40.77,289.06L41.1,289.2L41.43,290.39L41.76,290.37L42.1,289.21L42.43,289.02L42.76,287.83L43.75,291.55L44.08,290.82L44.42,290.01L44.75,290.2L45.08,289.4L45.41,286.37L45.74,291.19L47.07,287.36L47.4,288.77L48.72,292.54L49.06,290.72L51.04,293.37L51.38,289.97L52.37,293.43L52.7,293.38L53.03,293.59L53.37,292.62L54.36,292.38L54.69,292.97L55.02,286.37L55.35,293.21L55.69,292.73L56.68,293.23L57.01,293.04L57.34,293.64L57.67,293.42L58.01,293.07L59.66,294.11L59.99,293.88L60.99,292.31L61.32,293.58L61.65,293.79L61.98,289.5L62.31,289.51L62.65,288.46L63.97,293.26L64.3,285.61L65.3,294.05L65.63,294.42L65.96,294.18L66.29,295.47L66.96,293.66L67.29,294.79L67.62,294.23L68.28,295.16L68.61,294.03L69.28,295.16L69.61,294.27L70.93,294.53L71.26,292.53L72.59,293.83L72.92,292.7L73.25,292.59L73.58,291.16L73.92,291.92L74.25,291.43L74.58,291.27L75.57,292.37L75.9,292.49L76.57,293.32L76.9,289.3L77.56,294.13L77.89,293.52L78.22,295.65L79.55,294.81L79.88,295.79L80.21,294.44L80.54,294.88L80.88,295.35L82.53,293.9L82.87,295.73L84.85,294.66L85.19,295.94L85.52,295.93L85.85,294.44L86.18,295.16L86.51,294.57L86.84,294.63L87.17,294.37L87.51,295.94L88.17,295.4L88.5,294.35L89.49,294.82L89.83,296.89L91.15,292.29L91.48,295.98L91.81,295.33L92.15,296.55L92.81,296.25L93.14,295.48L94.13,296.44L94.47,295.18L95.46,296.26L95.79,295.46L96.12,286.76L96.46,287.82L96.79,294.5L97.12,293.34L97.45,293.79L97.78,294.92L98.44,295.31L98.78,296.11L99.11,297.01L99.44,295.94L99.77,295.21L100.1,296.08L100.43,285.07L101.1,289.37L101.43,289.28L101.76,289.72L102.75,288.33L103.08,290.08L104.08,290.74L104.41,291.63L104.74,290.49L105.07,292.03L105.4,292.77L106.4,292.82L106.73,290.93L107.06,293.65L107.72,292.88L108.06,291.75L109.05,290.41L109.38,292.6L109.71,293.03L110.04,292.11L110.38,290.54L110.71,291.78L111.04,294.19L111.37,295.72L111.7,291.21L112.37,296.39L113.03,295.98L113.36,295.96L113.69,295.48L114.02,296.19L114.35,296.36L114.69,297.04L115.02,296.3L115.35,296.28L116.34,296.06L116.67,294.75L117.67,295.12L118,292.53L118.66,285.75L118.99,295.41L119.33,296.84L119.66,295.68L119.99,295.89L120.32,295.55L120.65,293.95L120.98,292.82L121.31,296.18L122.31,296.69L122.64,295.05L122.97,294.05L123.3,296.13L124.63,296.37L124.96,295.42L125.29,293.13L125.62,295.68L125.96,295.8L127.28,295.55L127.61,295.09L128.61,295.92L128.94,295.93L129.6,296.09L129.93,293.64L130.6,297L130.93,296.44L131.26,296.58L132.25,293.8L132.58,294.27L133.58,296.64L133.91,297.31L134.57,295.02L134.9,296.79L135.24,296.96L135.57,296.23L136.23,297.41L136.56,296.08L136.89,295.71L137.22,296.94L138.55,298.51L138.88,298.15L139.88,298.21L140.21,299.15L140.87,295.53L141.2,297.11L142.2,295.62L142.53,295.03L143.52,296.94L143.85,296.87L144.19,298.38L144.52,296.36L145.51,293.41L145.84,294.95L146.51,296.76L146.84,294.7L148.16,298.4L148.49,297.58L148.83,298.34L149.16,297.7L149.49,297.39L150.48,298.09L150.81,297.65L151.15,293.71L151.48,297.14L151.81,297.22L152.47,296.13L152.8,298.36L153.13,296.31L153.47,296.88L153.8,296.95L154.79,297.83L155.12,298.42L156.12,296.03L156.45,296.59L156.78,277.73L157.11,266.8L157.44,274.31L157.78,278.93L158.11,275.96L158.44,277.75L158.77,277.57L159.1,277.64L159.43,282.05L159.76,282.23L160.1,283.42L161.09,291.75L161.42,291.61L161.75,292.06L163.08,296.21L163.41,295.96L163.74,296.23L164.07,292.49L164.4,293.3L164.74,294.63L165.07,296.42L165.4,295.05L165.73,293.75L166.06,293.3L166.39,295.8L166.72,296.28L167.06,295.65L167.39,295.27L167.72,295.64L168.05,295.33L168.38,295.2L169.04,293.43L169.38,296.03L170.04,294.96L170.37,295.88L170.7,295.34L171.03,296.43L171.7,294.07L172.03,296.34L173.35,297.33L173.69,296.46L174.35,297.39L174.68,296.88L175.67,298.9L176.01,298.03L176.34,299.43L176.67,297.93L177,293.56L178.99,298.63L179.32,297.28L179.98,297L180.31,289.61L181.31,297.36L181.64,298.23L182.63,296.64L182.97,297.02L183.3,296.76L183.63,298.01L183.96,298.13L184.29,293.75L185.62,294.02L185.95,295.74L186.61,295.63L186.94,296.83L187.28,295.47L187.61,296.97L187.94,296.37L188.6,297.28L188.93,296.93L189.26,295.42L189.6,295.57L189.93,294.54L190.59,295.57L190.92,294.25L191.25,294.04L191.58,295.32L191.92,295.62L192.25,293.46L193.24,294.89L193.57,294.32L194.57,293.18L194.9,295.02L195.89,294.96L196.22,294.59L197.22,296.17L197.55,294.87L197.88,295.13L198.21,293.93L198.88,296.65L199.21,295.66L199.54,295.65L199.87,297.02L200.2,296.41L200.53,295.66L201.2,296.47L201.53,295.71L201.86,298.01L202.19,297.45L202.52,296.15L203.52,295.53L203.85,296.23L204.18,296.28L204.51,294.64L204.84,294.3L205.17,296.15L206.5,294.28L206.83,294.35L207.16,293.69L207.49,294.94L207.83,295.27L208.16,293.52L208.82,295.86L209.15,294.03L210.15,293.56L210.48,294.68L210.81,297.78L211.14,297.25L211.47,295.22L212.47,293.34L212.8,289.2L213.79,291.91L214.12,290.83L214.46,290.85L214.79,291.04L215.12,292.4L215.78,295.39L216.11,292.29L217.11,289.27L217.44,283.84L218.1,285.03L218.43,282.17L219.1,290.43L219.43,289.37L219.76,282.19L220.42,291.86L220.75,288.43L221.08,287.98L221.42,285.72L221.75,287.89L222.08,283.17L223.07,287.73L223.4,286.49L224.07,285.8L224.4,286.15L224.73,286.37L225.06,286.84L225.39,284.13L226.72,286.78L227.05,286.18L227.38,286.29L227.71,281.83L228.71,277L229.04,270.79L229.37,269.09L229.7,273.6L230.03,270.14L230.37,276.94L231.69,288.23L232.02,288.1L232.35,288.1L232.69,286.57L233.02,288.07L233.35,287.68L233.68,273.92L234.01,277.44L234.67,276.86L235.01,275.67L236,279.02L236.33,283.27L236.66,284.98L236.99,281.72L238.98,289.44L239.31,288.6L239.65,280.13L239.98,287.27L240.31,289.53L240.64,287.45L240.97,288.88L241.3,289.3L242.3,288.63L242.63,287.53L242.96,286.59L243.29,289.72L243.96,286.87L244.29,287.75L244.62,284.24L245.28,287.18L245.61,286.91L245.94,286.11L246.61,284.11L246.94,285.53L247.27,285.59L247.6,287.11L247.93,288.21L248.26,285.98L248.93,285.74L249.26,287.49L249.59,286.55L249.92,288.87L250.25,289.27L250.58,288.31L251.25,287.79L251.58,283.99L251.91,283.95L252.24,285.56L252.57,285.57L252.9,284.12L253.24,286.26L253.57,285.3L253.9,285.35L254.23,284.85L254.56,285.72L255.22,285.34L255.56,284.63L256.55,285.07L256.88,286.7L257.21,285.56L257.88,285.89L258.21,286.42L258.87,284.68L259.2,287.17L259.87,286.35L260.2,287.98L260.53,286.84L261.19,287.19L261.52,282.63L261.85,289.56L262.52,288.88L262.85,287.97L263.18,288.14L263.51,285.2L263.84,284.7L264.17,285.69L265.17,285.18L265.5,285.48L265.83,285.78L266.16,285.32L266.49,285.22L268.15,286.61L268.48,285.36L268.81,285.56L269.15,283.75L270.14,283.53L270.47,283.28L271.13,262.83L271.47,263.77L271.8,266.47L272.13,266.47L272.46,267.43L272.79,268.91L273.12,266.74L273.46,270.83L273.79,268.79L274.12,268.61L275.11,270.59L275.44,276.77L275.78,277.85L276.11,274.94L276.44,275.32L276.77,275L277.1,278.88L277.43,278.79L277.76,280.81L279.42,275.91L279.75,278.98L280.08,282.28L280.42,281.66L280.75,280.75L281.41,279.41L281.74,280.71L282.07,280.75L282.4,282.68L283.07,283.19L283.4,281.98L284.39,280.88L284.72,284.15L287.04,280.17L287.38,281.27L288.37,283.37L288.7,282.38L289.37,285.95L289.7,285.04L290.03,284.55L290.69,285.61L291.02,284.69L292.02,288.1L292.35,287.86L292.68,286.59L293.01,286.05L293.34,286.79L293.67,287.27L294.01,289.52L294.34,287.55L294.67,287.49L295,287.77L295.33,287.03L296.33,284.13L296.66,286.21L296.99,287.05L297.32,283.74L297.65,284.08L297.98,282.61L298.65,285.41L298.98,283.9L299.64,285.31L299.97,287.35L300.97,285.02L301.3,286.39L301.96,284.66L302.29,285.98L302.96,286.9L303.29,284.56L303.95,287.41L304.28,286.91L304.61,286.84L305.28,285.28L305.61,277.69L305.94,280.08L306.6,279.68L306.93,279.71L307.6,279.23L307.93,280.18L308.26,279.14L308.59,279.73L308.92,280.89L309.58,280.19L309.92,280.79L311.24,282.4L311.57,281.46L312.24,281.6L312.57,262.68L313.23,281.64L313.89,280.31L314.22,276.81L314.56,277.93L314.89,275.88L315.55,285.54L315.88,281.57L316.21,283.34L316.54,281.16L317.21,281.38L317.54,281.72L317.87,282.86L318.2,281.42L318.53,281.36L318.87,281.18L319.2,233.97L320.19,285.06L320.52,42.81L320.85,16L321.19,42.94L321.52,254.75L322.51,92.4L322.84,108.01L323.17,168.4L324.5,284.36L324.83,284.42L325.49,267.37L325.83,282.35L326.82,283.21L327.15,283.28L327.48,284.63L327.81,281.95L328.15,282.35L328.48,281.58L329.47,279.09L329.8,280.01L330.13,279.18L330.47,279.54L330.8,281.15L331.13,282.32L331.46,280.37L331.79,282.3L332.12,281.48L332.46,279.45L332.79,281.22L333.45,280.76L333.78,279.85L334.78,277.65L335.11,277.75L336.1,276.58L336.43,276.16L336.76,276.83L337.1,276.03L337.43,275.12L338.42,278.55L338.75,277.25L339.08,277.93L339.42,276.58L339.75,279.47L340.41,274.55L340.74,277.94L341.07,278.41L341.4,276.99L342.07,278.9L342.4,268.44L343.06,277.01L343.39,275.71L343.72,277.18L344.06,276.71L344.39,277.36L344.72,277.29L345.05,275.15L345.38,278.46L345.71,279.29L346.04,278.16L346.38,278.98L346.71,279.61L347.37,261.8L347.7,265.46L348.03,263.3L349.03,264.7L349.36,267.08L349.69,269.85L350.02,268.78L350.35,266.03L351.02,270.02L351.35,268.87L351.68,266.94L352.01,268.38L352.34,267.48L352.67,267.73L354,272L354.33,271.57L354.99,270.76L355.33,273.36L355.66,273.32L355.99,271.84L356.32,272.18L356.65,269.42L357.65,272.71L357.98,269.51L358.97,273.67L359.3,272.84L359.63,272.34L360.3,273.9L360.63,272.43L360.96,273.5L361.29,264.95L362.29,273.91L362.62,271.85L362.95,272.63L364.28,275.75L364.61,276.54L365.6,276.57L365.93,275.04L366.26,273.85L366.6,274.19L366.93,276.14L367.59,275.29L367.92,276.92L368.92,272.98L369.25,274.39L369.58,274.59L369.91,273.19L370.24,274.29L370.57,272.77L370.9,277L371.24,275.9L371.57,271.59L371.9,272.42L372.23,271.47L372.56,271.39L373.89,276.07L374.22,273.77L375.21,275.81L375.54,275.19L376.54,274.35L376.87,276.77L377.2,274.89L377.53,277.49L378.53,275.04L378.86,274.97L380.19,282.43L380.52,280.01L381.51,277.37L381.84,277.97L382.17,277.79L382.51,279.98L382.84,279.93L383.17,278.61L384.16,277.84L384.49,281.4L385.82,279.35L386.15,281.04L386.81,278.85L387.15,280.5L387.48,277.94L387.81,280.52L388.14,281.18L388.47,280.93L388.8,277.9L389.8,265.09L390.13,266.91L392.12,274.23L392.45,271.2L393.44,272.94L393.78,272.27L394.11,272.52L394.44,276.43L394.77,272.6L395.1,272.13L395.43,271.99L395.76,276.01L396.76,281.8L397.09,275.51L399.08,286.12L399.41,282.61L399.74,280.84L400.4,281.38L400.74,282.97L401.07,283.93L401.4,283.68L401.73,282.56L402.06,284.34L402.39,281.68L402.72,281.96L403.06,284.34L403.39,284.28L403.72,286.63L404.38,283.99L404.71,285.89L405.71,283.67L406.04,290.54L407.03,286.04L407.37,288.89L407.7,285.31L408.03,288.44L408.36,289.47L408.69,284.37L409.02,287.35L409.35,287.76L409.69,288.41L410.02,292.22L411.01,289.37L411.34,290.77L411.67,288.27L412.01,289L412.34,259.85L413.66,294.37L413.99,293.92L414.33,294.01L414.66,292.49L415.32,294.47L415.65,293.43L415.98,293.92L417.31,293.52L417.64,293.53L417.97,292.48L418.3,293.41L418.63,294.37L418.97,293.67L419.3,295.01L419.63,294.98L419.96,294.14L420.96,294.77L421.29,294.74L421.62,294.68L421.95,293.04L422.28,294.77L422.61,293.01L422.94,293.08L423.28,291.75L423.61,292.81L423.94,294.65L424.6,294.97L424.93,292.42L425.26,293.17L425.6,291.17L425.93,293.57L426.26,293.15L426.59,295.05L426.92,294.58L427.25,291.9L428.58,294.5L428.91,294.41L429.24,294.78L429.57,292.93L431.56,295.41L431.89,293.56L432.22,293.04L432.56,294.1L432.89,293.16L433.22,289.09L433.88,291.22L434.21,289.3L434.54,289.29L434.88,290.14L435.21,290.49L435.54,292.06L435.87,291.88L436.2,292.9L437.2,289.4L437.53,290.53L437.86,290.86L438.19,292.4L438.52,293.52L438.85,292.98L439.19,292.86L439.85,291.47L440.18,284.86L440.51,295.8L441.17,294.03L441.51,293.19L442.83,295.28L443.16,293.99L444.16,292.79L444.49,293.15L444.82,296.03L445.15,295.7L445.48,293.62L445.81,294.61L446.15,293.06L447.47,296.11L447.8,294.43L448.13,294.91L448.47,291.89L448.8,290.34L449.13,295.13L449.46,295.29L449.79,290.22L451.45,295.89L451.78,286.65L452.11,284.88L452.44,285.91L452.78,287.77L453.77,294.07L454.1,290.9L454.43,292.55L454.76,289.99L455.43,291.19L455.76,287.6L456.42,293.15L456.75,291.69L457.08,287.48L458.08,291.82L458.41,291.5L459.4,295.14L459.74,294.07L460.73,295.44L461.06,296.79L461.39,297.79L461.72,296.27L462.06,296.76L462.39,295.93L462.72,295.9L463.05,296.37L463.38,299.11L463.71,291.02L464.04,299.84L464.38,296.97L464.71,298.42L465.04,297.49L465.37,297.1L466.03,301.24L466.37,300.78L466.7,298.19L468.69,293.51L469.02,294.22L470.01,293.82L470.34,295.09L470.67,295.42L471.01,294.75L471.34,294.02L471.67,292.89L472,293.33" style="vector-effect: non-scaling-stroke; fill: none; stroke: rgb(171, 99, 250); stroke-opacity: 1; stroke-width: 2px; opacity: 1;"/></g><g class="points"/><g class="text"/></g><g class="trace scatter traceab01fb" style="stroke-miterlimit: 2; opacity: 1;"><g class="fills"/><g class="errorbars"/><g class="lines"><path class="js-line" d="M0,297.57L0.33,298.96L0.66,298.38L0.99,298.07L2.32,299.63L2.65,299.4L2.98,300.04L3.31,299.33L3.65,299.46L3.98,299.04L4.31,299.64L4.64,300.12L6.3,299.77L6.63,300.11L7.62,300.82L7.96,300.35L8.29,299.12L8.62,299.74L8.95,300.56L9.61,300.46L9.94,300.23L10.94,300.57L11.27,301.53L13.26,300.65L13.59,301.42L14.25,301.24L14.58,300.74L14.92,300.16L15.25,301.28L16.57,301.72L16.9,301.46L17.24,301.47L17.57,300.16L18.23,299.65L18.56,299.48L18.89,296.99L19.22,300.72L19.56,299.1L19.89,299.28L20.22,292.36L20.55,299.77L21.21,299.64L21.54,299.29L21.88,300.89L22.21,299.63L22.54,287.24L23.2,299.35L23.53,294.42L23.87,299.66L24.53,299.13L24.86,297.92L25.85,298.22L26.19,296.06L27.51,299.55L27.84,299.28L28.17,299.33L29.5,299.35L29.83,297.66L30.16,297.4L30.49,294.05L31.49,299.19L31.82,296.64L32.15,298.96L32.81,298.55L33.15,298.39L33.81,298.56L34.14,297.97L34.8,297.56L35.13,296.81L35.47,296.31L35.8,296.85L36.13,296.96L36.46,298.1L36.79,297.27L37.12,296.91L37.79,295.24L38.12,296.87L38.78,293.9L39.11,295.99L39.78,294.24L40.11,292.06L41.76,296.69L42.1,293.59L42.76,292.19L43.09,293.83L43.75,296.43L44.08,296.35L44.42,293L45.08,292.43L45.41,282.42L46.4,295.24L46.74,291.2L47.4,291.7L47.73,288.66L48.06,295.37L48.39,296.07L48.72,295.16L49.06,293.5L50.05,293.95L50.71,296.65L51.71,293.77L52.04,294.2L52.37,293.87L53.03,295.89L53.37,295.55L53.7,294.47L54.36,294.11L54.69,294.79L55.02,288.98L55.35,294.75L55.69,292.77L56.02,292.69L56.35,293.61L57.01,291.97L57.34,293.55L57.67,294.38L58.01,294.19L58.34,293.83L58.67,292.35L59.33,292.66L59.66,294.25L61.32,295.1L61.65,295.44L62.31,296.5L62.65,295.14L63.31,295.24L63.64,294.92L63.97,295.97L64.3,291.63L64.63,297.28L64.97,296.06L65.3,295.81L65.96,296.17L66.29,296.81L67.62,296.97L67.95,296.56L68.94,296.75L69.28,297.3L70.93,295.22L71.26,293.41L71.93,295.81L72.26,295.19L72.59,294.92L72.92,294.61L73.25,295.09L73.58,296.91L75.9,297.78L76.24,297.23L76.57,297.28L76.9,295.82L77.23,297.94L77.89,297.6L78.22,297.65L82.87,298.29L83.2,297.98L84.52,297.96L84.85,298.01L85.19,297.33L85.52,298.19L85.85,297.99L86.18,298.79L86.51,298.24L86.84,298.06L87.84,298.2L88.17,296.93L89.16,297.79L89.49,296.38L90.16,297.53L90.49,297.13L90.82,297.55L91.48,297.06L91.81,297.69L92.81,296.49L93.14,297.92L93.47,295.96L93.8,296.35L94.13,297.13L95.46,297.51L95.79,297.56L97.78,296.93L98.11,296.03L99.11,298.11L99.44,297.92L99.77,297.52L100.1,297.3L100.43,295.53L100.76,297.64L101.43,297.28L101.76,297.97L102.42,297.59L102.75,296.28L103.75,297.39L104.08,297.35L104.74,297.66L105.07,296.07L106.07,294.12L106.4,294.91L106.73,296.13L107.06,294.37L107.39,293.73L107.72,295.07L108.06,294.3L108.39,295.79L110.38,295.63L110.71,296.63L111.04,297.16L111.37,296.55L111.7,296.38L113.69,296.42L114.02,297.89L114.69,298.44L115.02,297.86L115.35,298.45L115.68,298.15L116.01,297.64L116.67,297.1L117.01,297.74L117.34,296.95L117.67,298.56L118.66,295.56L118.99,298.42L119.66,297.44L119.99,297.99L120.32,297.96L120.98,296.07L121.31,296.91L121.65,297.24L121.98,295.4L122.31,297.96L122.64,298.55L122.97,297.67L123.3,297.81L123.97,297.4L124.3,297.73L124.63,298.49L124.96,298.11L125.29,297.68L126.29,297.74L126.62,297.79L126.95,296.86L127.28,298.12L127.61,297.82L129.27,297.72L129.6,297.57L131.92,298.6L132.25,298.27L132.58,298.63L132.92,298.16L133.25,297.91L133.91,297.4L134.24,298.34L134.57,298.63L134.9,298.07L135.24,298.22L136.23,299.34L136.56,298.15L137.89,297.41L138.22,298.66L138.88,298.42L139.21,298.25L140.21,298.85L140.54,296.56L140.87,295.39L141.2,296.75L141.53,296.38L142.2,296.16L142.53,295.76L142.86,295.54L143.19,296.1L143.52,297.25L143.85,298.47L144.19,295.68L144.52,295.94L144.85,295.24L145.18,295.51L145.51,297.03L145.84,298.48L146.17,298.33L146.51,296.15L146.84,298.45L147.17,296.89L147.5,296.21L147.83,300.07L148.16,296.01L148.49,297.03L148.83,297.34L149.16,296.24L149.82,298.31L150.15,297.54L150.48,296.71L150.81,296.58L151.15,299.74L152.14,298.23L152.47,300.76L153.13,296.68L153.47,297.57L153.8,299.21L154.46,298.53L154.79,300.05L155.12,297.8L155.46,301.44L156.78,296.89L157.11,279.83L157.78,281.07L158.11,279.23L158.44,279.85L158.77,282.32L159.1,282.59L159.43,285.78L159.76,283.14L160.1,284.29L160.43,286.68L160.76,285.75L161.09,286.26L161.42,286.26L162.75,296.86L163.41,296.53L163.74,296.73L164.07,291.22L164.4,295.09L164.74,295.75L165.07,298.03L165.4,297.97L165.73,297.01L166.06,296.8L166.39,297.99L167.06,295.38L167.39,298.19L168.71,297.02L169.04,296.18L169.38,295.72L169.71,296.6L170.7,295.96L171.03,298.16L171.37,296.62L171.7,299.16L172.36,297.62L172.69,297.81L173.02,298.04L173.69,301.1L174.02,300.96L174.35,299.29L175.01,298.3L175.34,302.4L177,298.54L177.33,300.14L177.66,299.12L177.99,302.2L178.66,302.3L178.99,301.54L179.65,301.64L179.98,300.71L180.31,297.95L180.65,301.51L181.31,298.33L181.64,301.54L182.3,300.13L182.63,301.74L183.3,302.15L183.63,300.25L184.96,297.43L185.29,299.09L185.62,300.67L185.95,298.02L186.61,300.16L186.94,299.91L187.28,300.44L187.94,301.4L188.27,300.7L189.26,299.89L189.6,301.28L190.26,301.95L190.59,300.54L191.25,300.25L191.58,300.99L191.92,300.87L192.25,301.63L192.58,301.54L192.91,300.37L194.24,298.93L194.57,300.6L194.9,301.01L195.23,299.89L196.22,300.07L196.56,300.35L197.22,300.88L197.55,299.77L198.21,298.29L198.54,299.32L199.87,301.64L200.2,299.94L200.53,298.82L200.87,299.13L201.2,299.28L202.19,296.25L202.52,296.8L202.85,298.14L203.19,296.3L203.52,297.55L203.85,298.14L204.51,299.06L204.84,298.45L205.51,298.42L205.84,299.39L206.83,301.75L207.16,301.34L207.83,300.15L208.16,300.66L208.82,301.59L209.15,300.22L210.15,299.73L210.48,299.92L211.47,301.12L211.8,299.67L212.13,300.89L212.47,298.39L212.8,296.21L213.13,299.59L214.12,300.48L214.46,299.96L214.79,298.44L215.78,300.42L216.11,302.17L218.1,293.92L218.43,296.19L219.76,298.53L220.09,296.96L221.08,297.25L221.42,297.08L222.41,288.9L222.74,291.27L223.07,293.23L223.4,295.05L223.74,294.88L224.07,294.22L224.4,294.84L224.73,293.25L225.39,294.44L225.72,293.9L226.06,293.54L227.05,293.13L227.38,294.17L228.04,295.52L228.38,294.91L229.04,295.23L229.37,294.09L229.7,293.99L230.03,295.24L231.03,295.12L231.36,293.83L232.02,294.29L232.35,295.1L233.35,295.68L233.68,295.97L234.01,294.1L234.34,294.94L234.67,296.14L235.34,294.66L235.67,295.73L236,297.49L236.33,294.85L237.66,297.33L237.99,296.87L238.65,296.79L238.98,297.88L239.31,297.75L239.65,289.69L239.98,297.93L240.64,297.81L240.97,297.9L241.97,294.9L242.3,297.53L243.62,297.17L243.96,296.14L244.95,295.53L245.28,296.13L246.28,295.78L246.61,296.08L246.94,296.34L247.27,295.34L248.26,295.67L248.6,295.6L250.25,295.55L250.58,296.04L251.58,295.51L251.91,292.67L252.9,292.69L253.24,293.58L254.23,292.32L254.56,292.54L255.22,291.75L255.56,292.24L257.21,292.77L257.54,291.38L257.88,292.02L258.21,291.44L258.54,291.53L260.2,293.97L260.53,293.68L261.52,295.34L261.85,294.99L262.19,295.16L262.52,294.09L262.85,293.7L263.18,294.7L263.51,294.65L263.84,295.43L264.17,295.81L264.51,294.79L265.17,293.48L265.5,293.72L265.83,294.75L266.16,294.62L266.49,295.89L267.82,293.21L268.15,293.65L269.15,290.93L269.48,291.74L269.81,291.63L270.47,290.37L270.8,279.23L271.13,278.87L271.47,282.32L272.13,278.16L272.46,279.85L273.46,288.17L273.79,287.83L274.12,286.45L275.11,287.71L275.44,289.63L275.78,290.57L276.11,289.15L276.44,289.8L276.77,288.9L277.1,288.31L277.76,289.05L278.1,288.64L278.43,287.84L278.76,287.45L279.09,285.62L280.42,288.32L280.75,288.12L281.41,287.57L281.74,288.27L283.07,290.16L283.4,289.66L283.73,288.82L284.06,290.01L284.39,289.68L285.06,290.61L285.39,289.65L286.05,289.59L286.38,290.38L286.71,289.14L287.04,290.21L287.38,292.26L288.04,291.98L288.37,291.68L288.7,290.88L289.03,291.41L289.37,291.65L290.03,292.22L290.36,291.21L291.02,290.57L291.35,291.45L292.02,293.54L292.35,292.84L292.68,290.97L293.01,290.68L293.34,291.55L293.67,291.24L294.01,292.19L295,290.41L295.33,291.41L295.99,292.59L296.33,290.33L296.99,289.73L297.32,286.16L297.65,284.25L297.98,287.78L298.31,287.47L298.65,288.74L300.63,284.62L300.97,287.11L301.96,286.86L302.29,284.82L302.62,286.93L303.29,286.55L303.62,286.68L303.95,285.39L304.28,286.94L304.61,287.54L305.28,287.61L305.61,281.75L307.26,281.59L307.6,281.45L307.93,281.4L308.26,282.16L308.92,281.52L309.25,281.08L309.92,281.14L310.25,281.96L310.58,283.87L310.91,283.53L311.24,282.2L312.24,281.9L312.57,282.26L312.9,284.67L313.23,282.9L313.56,282.31L313.89,280.37L314.22,271.8L314.56,277.37L314.89,214.51L315.22,176.74L315.55,199.85L315.88,255.62L316.21,284.27L316.88,281.49L317.21,284.15L317.54,284.2L317.87,285.14L318.53,281.93L318.87,283.04L319.2,284.14L320.19,287.61L320.52,286.25L320.85,285.24L321.19,262.87L321.52,261.97L321.85,279.8L322.18,283.17L322.51,281.05L322.84,281.17L323.17,283.4L323.51,281.61L323.84,282.56L324.5,284.25L324.83,283.89L325.16,280.62L325.49,282.13L325.83,280L326.49,284.07L326.82,281.69L327.15,280.51L327.48,281.63L327.81,282.64L328.15,282.91L328.48,281.82L328.81,283.11L329.14,280.68L329.47,279.75L329.8,281.16L331.13,283.42L331.46,283.47L331.79,279.36L332.12,283.12L332.46,282.41L332.79,282.14L333.12,282.83L333.45,284.28L333.78,283.58L334.11,280.12L334.78,282.6L335.11,282.14L335.44,281.43L335.77,282.38L336.1,279.71L336.43,278.26L336.76,282.11L337.43,282.58L337.76,281.39L338.09,282.26L338.42,280.85L338.75,276.65L339.08,281.63L339.42,280.61L339.75,280.33L340.08,282.14L341.07,275.35L341.4,279.35L342.07,282.12L342.4,281.85L342.73,280.76L343.39,276.08L343.72,279.39L344.72,280.35L345.05,280.56L345.38,277.63L346.04,277.89L346.38,278.44L346.71,278.9L347.04,266.48L347.37,265.17L347.7,267.45L348.03,262.93L348.37,265.71L348.7,266.58L349.03,266.62L349.36,268.39L349.69,270.97L350.02,268.25L350.35,265.08L351.02,268.16L351.35,267.59L351.68,269.37L352.34,263.05L352.67,264.11L353.01,266.77L353.67,267.6L354,270.49L354.66,273.43L354.99,268.34L355.66,270.38L355.99,268.15L356.65,268.01L356.98,271.57L357.31,264.8L358.97,272.95L359.3,268.15L359.63,268.58L359.97,271.47L360.3,271.02L360.63,276.09L361.96,269.41L362.29,273.13L362.62,269.77L362.95,276.46L363.28,270.25L363.94,271.32L364.28,267.68L365.6,275.97L365.93,275.74L366.26,273.19L366.6,271.68L366.93,273.93L367.92,276.05L368.25,274.46L368.58,277.55L368.92,276.59L369.25,275.8L369.58,276.44L369.91,274.88L370.24,276.04L370.57,274.31L370.9,272.87L371.24,274.2L371.57,275.39L371.9,274.29L372.56,274.62L372.89,274.39L373.56,272.98L373.89,275.64L374.22,273.88L374.55,275.06L374.88,276.21L375.88,270.98L376.21,276.21L376.54,275.5L376.87,278.36L377.53,279.11L377.87,275.91L378.2,272.7L378.53,277.84L379.52,276.69L379.85,281.28L380.85,276.23L381.18,276.03L381.51,278.53L381.84,277.33L382.17,275.47L382.51,284.71L383.17,282.87L383.5,285.11L384.16,286.56L384.49,289.93L384.83,289.5L385.16,287.79L386.15,291.98L386.48,288.25L386.81,291.35L387.15,288.05L387.48,284.99L387.81,287.2L388.14,286.92L388.47,286.2L389.13,277.06L389.47,277.27L389.8,280.35L390.13,277.04L390.79,277.74L391.12,277.96L391.79,287.31L392.12,285.53L392.45,283.24L392.78,282.85L393.11,284.66L393.78,281.8L394.11,285.82L394.44,282.18L394.77,282.99L395.1,284.46L396.43,287.17L396.76,285.14L397.42,283.45L397.75,284.63L398.42,286.5L398.75,290.48L399.74,286.75L400.07,285.88L400.4,283.25L400.74,290.26L401.07,290.05L401.4,288.61L401.73,286.53L402.06,289.67L402.72,287.24L403.06,289.43L403.39,290.05L403.72,288.83L404.38,287.19L404.71,287.28L405.04,288.01L405.38,286.56L405.71,289.22L406.04,289.79L406.37,292.3L407.37,293.42L407.7,290.35L408.03,290.46L408.36,291.51L408.69,291.32L409.02,289.9L410.02,294.13L410.35,292.65L410.68,293.28L411.34,294.49L411.67,292.92L412.01,293.66L412.34,267.86L413.33,290.51L413.66,292.32L413.99,290.66L414.33,293.27L414.66,294.31L414.99,293.66L415.32,292.84L415.65,293.79L416.31,293.56L416.65,290.8L417.64,293.41L417.97,293.64L418.3,293.49L418.63,294.34L418.97,294.96L419.3,294.14L419.63,293.16L419.96,292.65L420.29,294.46L420.96,290.77L421.29,292.78L421.62,294.53L421.95,292.77L422.28,292.8L422.61,295.19L422.94,294.19L423.28,292.4L424.27,293.7L424.6,292.3L425.6,290.88L425.93,291.2L426.26,293.76L426.59,293.63L426.92,292.86L427.25,293.19L427.58,288.38L428.58,295.18L428.91,293.95L429.24,294.79L429.57,294.08L429.9,293.4L430.24,293.15L430.57,295.01L431.23,295.34L431.56,294.57L431.89,295.96L432.22,293.91L432.56,295.23L432.89,294.86L433.22,293.54L433.88,293.46L434.21,292.38L435.21,291.64L435.54,292.63L436.2,293.55L436.53,292.17L436.87,291.61L437.2,291.86L437.53,292.04L438.19,295.25L438.52,293.54L438.85,295.06L439.19,295.95L439.52,294.54L439.85,294.32L440.18,286.7L440.84,296.42L441.17,292.5L441.51,298.35L441.84,298.89L442.17,297.56L442.5,296.89L442.83,297.88L443.16,297.77L444.16,296.36L444.49,299.06L444.82,300.92L445.15,298.77L445.48,298.15L446.48,299.92L446.81,299.2L447.14,299.75L447.47,298.62L447.8,297.75L448.13,299.71L448.8,301.7L449.13,299.97L449.46,299.94L449.79,298.5L450.12,298.61L450.46,301.24L451.12,302.08L451.45,301.36L451.78,303.41L452.11,302.15L452.44,301.34L453.44,302.78L453.77,302.53L454.43,303.51L454.76,302.36L455.1,301.88L455.43,302.77L456.42,303.36L456.75,302.44L457.08,300.96L457.42,302.74L457.75,303.24L458.08,302.62L458.41,303.46L458.74,303.55L459.07,301.47L459.4,302.19L459.74,303.46L460.73,303.46L461.06,303.5L461.72,302.84L462.06,303.42L463.38,304L463.71,303.13L464.04,302.72L464.38,303.91L465.37,303.15L465.7,303.82L466.03,303.36L466.37,295.67L466.7,294.2L467.03,294.82L467.36,302.55L468.35,291.74L468.69,300.64L469.68,300.45L470.01,299.97L471.01,301.44L471.34,301.16L471.67,300.52L472,301.07" style="vector-effect: non-scaling-stroke; fill: none; stroke: rgb(255, 161, 90); stroke-opacity: 1; stroke-width: 2px; opacity: 1;"/></g><g class="points"/><g class="text"/></g><g class="trace scatter trace5f650b" style="stroke-miterlimit: 2; opacity: 1;"><g class="fills"/><g class="errorbars"/><g class="lines"><path class="js-line" d="M0,259.47L0.99,257.66L1.33,250.05L1.99,265.6L2.32,257.94L3.31,257.79L3.65,252.94L3.98,244.67L4.31,262.85L4.64,263.82L4.97,257.46L5.3,253.59L5.63,259.68L5.97,270.49L6.3,256.02L6.96,265.39L7.29,254.34L7.62,254.42L7.96,257.13L8.29,260.97L8.62,251.93L8.95,267.46L9.28,262.57L9.61,252.69L9.94,253.18L10.28,252.15L10.61,256.98L10.94,248.39L11.93,254.96L12.26,252.92L12.6,255L12.93,238.8L14.58,255.16L14.92,254.26L15.58,228.25L15.91,244.81L16.9,254.19L17.24,255.32L17.57,241.86L17.9,250.04L18.23,254.89L18.89,257.29L19.22,253.96L19.56,254.68L19.89,251.1L20.22,246.44L20.55,269.04L20.88,268.02L21.21,261.47L21.54,261.84L21.88,264.89L22.21,255.36L22.54,259.91L22.87,272.58L23.87,259.05L24.2,264.56L24.53,264.37L24.86,261.21L25.19,274.05L25.52,265.38L25.85,262.04L27.18,257.06L27.51,263.64L27.84,266.2L28.17,262.92L28.51,258.82L29.5,268.77L29.83,265.82L30.83,259.44L31.16,262.45L31.82,261.75L32.15,274.84L32.48,260.2L32.81,259L33.15,253.24L34.47,268.45L34.8,262.11L35.47,253.21L35.8,262.31L36.13,267.97L36.46,264.19L36.79,265.67L37.46,257.58L37.79,262.03L38.12,263.99L38.45,278.74L39.11,276.87L39.44,277.5L40.44,263.83L40.77,267.41L41.1,259.49L41.43,276.48L42.1,266.56L42.43,267.39L42.76,268.3L43.09,273.53L43.42,263.25L44.08,277.52L44.42,271.1L45.08,265.72L45.41,272.03L45.74,261.08L46.07,276.95L46.74,268.9L47.07,272.47L47.4,273.63L47.73,278.45L48.06,264.71L48.39,278.33L48.72,278.32L49.06,271.18L50.05,274.26L50.71,269.31L51.04,277.33L51.38,268.16L51.71,264.54L52.37,264.8L52.7,268.55L53.03,269.5L53.37,277.54L53.7,264.44L54.03,264.65L54.36,269.16L54.69,269.26L55.02,266.89L55.35,280.73L55.69,280.58L56.02,275.72L56.35,281.63L56.68,273.61L57.01,273.92L57.34,267.69L57.67,281.23L58.01,281.07L58.34,277.54L58.67,280.92L59,272.56L59.99,281.28L60.33,281.5L61.32,270.2L61.65,273.39L61.98,275.5L62.31,273.58L62.65,278.87L62.98,278.95L63.31,280.44L63.64,280.42L63.97,281.57L64.63,273.59L64.97,281.59L65.63,281.78L65.96,280.23L66.29,281.74L66.62,282.43L66.96,276.67L67.29,282.2L67.95,281.31L68.28,280.69L68.61,281.84L68.94,280.24L69.28,279.4L69.61,280.75L69.94,279.41L70.27,273.94L70.6,273.96L70.93,265.67L71.26,251.59L71.6,264.41L71.93,263.81L72.26,261.34L72.59,262.15L72.92,262.32L73.25,264.99L73.58,258.82L74.58,264.77L74.91,264.76L75.24,264.71L75.57,266.21L75.9,273.75L76.24,265.69L76.57,264.24L77.56,270.95L77.89,265L78.56,273.17L78.89,262.16L79.22,271.68L79.55,264.35L79.88,268.39L80.21,265.49L80.54,283.67L81.87,265.53L82.2,280.59L82.53,273.73L82.87,285.45L83.53,268.52L84.19,269.95L84.52,277.05L85.85,262.82L86.18,272.55L86.84,270.2L87.17,264.72L87.84,271.46L88.17,264.4L88.83,261.62L89.16,262.78L89.49,264.37L90.16,272.55L90.49,264.79L90.82,263.3L91.15,266.53L91.48,261.39L91.81,264.91L92.15,271.92L92.48,274.36L92.81,264.6L93.8,282.32L94.13,274.03L94.47,283.7L94.8,275.17L95.13,278.3L95.79,274.55L96.12,276.97L96.46,278.1L96.79,274.95L97.45,275.94L97.78,275.56L98.44,273.42L98.78,268.06L99.11,275.62L99.44,267.08L99.77,266.73L100.1,266.73L100.43,260.21L101.1,268.05L101.43,285.68L101.76,269.53L102.09,269.61L102.42,276.1L103.08,277.61L103.42,268.95L103.75,285.64L104.08,271.82L104.41,272.98L104.74,271.51L105.07,274.79L105.4,275.83L105.74,272.89L106.07,284.3L106.4,275.84L106.73,272.47L107.06,270.22L107.39,274.6L108.06,266.67L108.39,269.68L108.72,269.94L109.05,272.83L109.38,270.81L109.71,269.7L110.04,270.67L110.38,267.65L110.71,270.99L111.04,267.81L111.37,264.92L111.7,273.56L112.37,273.15L112.7,273.09L113.36,268.28L113.69,260.72L114.35,268.96L114.69,261.88L115.02,260.61L115.35,265.88L115.68,265.1L116.01,267.32L117.01,266.14L117.34,268.93L117.67,267.36L118,257.6L118.33,274.15L118.66,265.02L118.99,267.49L119.33,266.4L119.66,266.98L119.99,269.07L120.32,269.96L120.65,222.93L121.31,269.73L121.65,269.54L121.98,265.23L122.97,269.15L123.3,269.94L123.63,269.96L123.97,268.99L124.3,265.71L124.63,270.15L125.62,268.78L125.96,270.12L126.29,271.31L126.62,262L127.94,271.2L128.28,270.15L128.61,268.83L128.94,268.56L129.27,256.98L129.93,266.3L130.26,265.58L130.6,261.49L130.93,266.58L131.26,261.48L131.59,262.64L131.92,261.7L132.25,265.49L133.25,268.01L133.58,263L133.91,264.73L134.24,261.4L134.57,267.49L134.9,263.15L135.24,263.34L135.57,265.07L135.9,262.95L136.23,260.71L136.89,263.38L137.22,262.2L137.56,261.75L137.89,263.14L138.22,265.23L138.55,262.87L138.88,263.95L139.21,264.31L139.54,266.77L139.88,264.46L140.21,266.53L140.54,266.44L141.2,262.4L141.53,264.95L141.87,265.77L142.2,264.82L142.53,264.64L142.86,269.01L143.19,267.66L143.52,265.77L144.19,269.34L144.52,266.91L144.85,267.08L145.18,269.34L145.51,260.1L145.84,262.45L146.17,263.91L147.17,270.77L147.5,266.55L148.49,270.57L148.83,271.17L149.82,268.87L150.15,281.43L150.48,281.91L150.81,281.29L151.15,280.67L151.81,270.17L152.14,275.47L153.47,283.36L153.8,272.45L154.46,282.26L155.12,281.99L155.46,282.72L155.79,283.52L156.12,283.32L156.45,282.66L156.78,283.28L157.11,269.27L157.78,256.39L158.11,260.19L158.44,261.37L158.77,260.69L159.1,269.91L159.76,248.46L160.1,256.73L160.43,262.23L161.09,262.3L161.42,264.65L162.08,264.19L162.42,272.08L162.75,280.53L163.08,277.96L163.41,280.98L163.74,279.75L164.4,278.75L164.74,283.67L165.73,293.16L166.06,288L166.72,287.96L167.06,293.28L167.72,283.27L168.05,289.13L168.38,277.42L168.71,280.26L169.04,284.68L169.71,284.25L170.04,282.6L171.03,272.3L171.37,273.3L171.7,280.3L172.03,284.31L172.36,281.92L172.69,283.09L173.02,283.09L173.35,277.77L173.69,281.88L174.35,281.76L174.68,280.52L175.01,280.71L175.34,275.3L175.67,275.71L176.01,280.04L176.34,284.34L176.67,283.62L177,277.6L178.66,285.28L178.99,282.76L179.98,282.87L180.31,280.68L180.98,282.4L181.31,280.83L182.3,282.9L182.63,278.24L183.96,285.29L184.29,283.21L184.62,281.68L184.96,281.94L185.29,276.56L185.62,283.02L186.28,282.73L186.61,280.06L186.94,280.86L187.28,284.41L187.61,286.55L187.94,268.79L188.93,276.47L189.26,278.03L189.6,270.4L189.93,277.74L190.26,273.22L190.59,281.23L191.25,281.13L191.58,279.66L191.92,279.59L192.25,278.55L192.58,285.01L193.24,283.55L193.57,285.12L194.57,277.22L194.9,285.13L195.23,285.01L195.56,282.97L196.56,285.82L196.89,277.5L197.88,284.64L198.21,284.58L198.54,284.76L198.88,278.32L199.21,274.41L199.54,284.76L200.2,284.31L200.53,283.34L200.87,283.78L201.2,287.69L201.53,280.34L201.86,284.84L202.19,287.68L202.52,288.27L202.85,285.35L203.19,284.55L203.52,285.83L203.85,279.82L204.18,285.49L204.51,288.73L205.84,288.82L206.17,280.34L206.5,281.01L206.83,279.72L207.16,277.55L207.49,278.14L207.83,279.46L208.16,281.3L208.49,271.07L208.82,273.81L209.15,272.11L209.48,272.77L209.81,273.97L210.15,282.1L210.48,271.78L211.14,274.02L211.47,274.09L212.47,274.14L212.8,275.83L213.13,268.68L213.46,277.81L214.12,271.79L214.46,280.18L215.45,272.03L215.78,281.26L216.44,281.02L216.78,279.74L217.11,280.34L217.44,258.08L218.43,283.91L218.76,287.24L219.43,287.54L219.76,283.46L220.09,284.1L220.42,274.26L221.42,288.78L221.75,283.08L222.41,282.27L222.74,273.73L223.07,282.34L223.4,282.32L223.74,279.83L224.07,279.65L224.4,278.52L224.73,279.75L225.06,278.67L225.39,279.28L226.39,278.95L226.72,281.37L227.05,277.27L227.38,279.21L227.71,279.27L229.37,277.32L229.7,278.53L230.37,278.75L230.7,281.62L231.03,281.49L231.36,284.08L231.69,276.16L232.02,277.53L232.35,279.75L232.69,284.41L233.02,276.38L233.35,276.55L233.68,244.89L234.34,247.97L234.67,236.62L235.01,238.39L235.34,249.71L236.33,260.33L236.66,252.04L237.66,260.5L237.99,260.15L238.98,249.39L239.31,253.96L239.65,252.93L239.98,264.62L240.31,265.18L240.64,257.71L240.97,257.73L241.3,248.15L242.3,256.85L242.63,251.52L242.96,257.19L243.29,243.01L244.29,259.33L244.62,244.09L244.95,244.1L245.28,235.99L245.61,234.45L245.94,249.28L246.61,244.15L246.94,250.85L247.93,234.36L248.26,242.56L249.26,257.68L249.59,257.03L249.92,241.91L250.25,243.78L250.58,258.65L251.91,236.69L252.57,237.21L252.9,243.9L253.24,252.48L253.57,245.32L253.9,242.74L254.23,241.7L254.56,246.73L254.89,245.95L255.22,251.24L255.89,254.43L256.22,254.35L256.55,254.54L257.21,246.45L257.54,255.56L258.87,256.02L259.2,249.02L260.2,266.25L260.53,275.28L260.86,266.27L261.19,275.05L261.52,274.17L262.19,275.14L262.52,266.28L262.85,243.54L263.51,280.69L263.84,269.01L264.17,261.52L264.51,275.76L265.17,272.08L265.5,273.32L265.83,273.86L266.16,265.04L266.49,256.91L266.83,272.36L267.16,273.8L267.49,273.71L267.82,271.33L268.15,224.41L268.48,266.27L268.81,258.2L269.48,268.19L269.81,268.12L270.14,266.77L271.13,214.58L271.47,228.28L272.13,228.92L272.46,224.87L272.79,226.23L273.12,202.43L273.46,201.04L273.79,210.59L274.12,203.47L274.45,210.56L274.78,210.52L275.11,210.88L275.44,203.8L275.78,217.57L276.11,211.15L276.44,211.15L276.77,233.16L277.43,231.14L277.76,230.25L278.1,216.42L278.43,235.17L279.09,237.39L279.42,237L279.75,232.09L280.08,236.24L280.42,218.52L281.08,233.56L281.74,233.46L282.07,237.8L282.4,235.98L282.74,228.11L283.73,244.34L284.06,244.29L284.39,248.62L284.72,223.63L285.06,218.59L285.39,239.86L285.72,235.24L286.05,244.09L287.38,227.39L287.71,233.77L288.37,248.51L288.7,242.82L289.03,239.3L289.37,243.03L289.7,235.79L290.03,235.28L290.36,228.53L290.69,235.1L291.02,233.26L291.35,233.08L291.69,246.59L292.02,232.75L292.35,245.93L292.68,248.12L294.01,239.59L294.34,242.91L294.67,242L295,246.66L295.33,247.86L295.66,252.4L295.99,251.82L296.33,242.93L296.66,240.54L296.99,250.03L297.32,251.17L297.65,260.74L298.98,242.25L299.31,255.98L299.64,251.3L299.97,260.19L300.63,257.38L300.97,261.35L301.3,247.3L301.63,257.29L301.96,261.62L302.96,263.37L303.29,262.12L303.62,254.85L303.95,262.27L304.28,262.5L304.61,262.49L304.94,263.27L305.28,261.96L305.61,262.13L305.94,254.36L307.26,267.52L307.6,266.85L307.93,272.2L308.26,265.3L308.59,263.29L308.92,270.45L309.25,269.19L309.58,273.5L309.92,271.41L310.25,272.15L310.58,264.02L311.57,281.17L311.9,278.86L312.24,279.8L312.9,224.7L313.23,241.59L313.56,237.09L313.89,245.75L314.22,240.32L314.56,239.21L314.89,236.37L315.22,249.55L316.21,267.68L316.54,267.64L316.88,270.66L317.54,259.34L317.87,272.25L318.2,272.45L318.53,276.7L319.2,276.84L319.53,274.85L319.86,272.61L320.19,275.16L320.52,276.76L320.85,278.07L321.19,277.95L321.52,257.76L321.85,141.73L322.18,168.44L322.51,189.74L322.84,188.02L323.17,233.25L324.17,273.68L324.5,278.91L325.49,286.42L325.83,286.36L326.16,284.96L327.15,276.37L327.48,289.72L328.15,288.52L328.48,285.52L329.14,277L329.47,280.37L330.47,288.23L330.8,287.7L331.13,284.95L331.46,278.86L331.79,284.04L332.12,287.66L332.79,287.67L333.12,284.28L333.78,276.73L334.11,277.09L334.44,283.63L335.11,284.11L335.44,283.29L335.77,277.22L336.1,278.1L336.43,283.48L337.43,285.16L337.76,283.56L338.42,277.38L338.75,282.21L339.08,280.3L339.42,281.57L339.75,283.11L340.74,288.51L341.07,285.74L341.4,292.64L341.74,291.2L342.07,290.41L342.4,294.04L342.73,289.77L343.06,284.38L343.72,276.32L344.06,281.42L344.39,284.42L344.72,284.28L345.05,280.42L345.38,274.11L345.71,275.42L346.04,278.92L346.38,280.2L346.71,286.79L347.7,268.93L348.03,276.72L348.37,279.54L348.7,277.15L349.03,269.36L350.02,276.2L350.35,274.83L350.69,275.08L351.02,271.43L351.35,277.55L352.01,276.17L352.34,276.35L352.67,276.95L353.01,282.29L353.67,280.02L354,276.03L354.33,274.47L354.66,268.2L355.66,280.73L355.99,280.16L356.32,272.9L357.31,267.67L357.65,265.88L357.98,254.74L358.31,267.71L358.64,267.95L358.97,274.59L359.3,272.18L359.63,270.88L359.97,267.74L360.3,271.83L360.63,269.61L360.96,274.03L361.29,257.92L361.62,265.79L361.96,273.64L362.29,273.94L362.62,262.21L363.61,275.47L363.94,274.47L364.28,276.7L364.61,275.43L364.94,275.56L365.27,276.59L365.6,275.65L365.93,275.01L366.26,271.99L366.6,274.74L366.93,273.76L367.92,272.41L368.25,272.36L369.58,272.8L369.91,273.23L370.24,275.79L370.57,274.24L370.9,270.31L371.24,265.06L371.57,271.5L371.9,268.26L372.89,271.63L373.22,269.96L374.22,272.26L374.55,268.97L374.88,269.79L375.21,269.28L375.54,267.82L375.88,271.64L376.21,269.62L376.54,270.16L377.2,273.47L377.53,255.53L377.87,266.45L378.53,265.65L378.86,266.51L380.19,278.36L380.52,275.73L381.84,278.42L382.17,277.11L382.51,274.24L382.84,278.49L384.16,278.15L384.49,278.46L384.83,279.62L385.16,278.48L385.49,274.98L386.48,279.6L386.81,279.44L387.15,276.82L387.48,266.22L387.81,263.25L388.14,271.73L388.47,271.85L388.8,275.34L389.13,260.82L389.47,268.14L389.8,270.2L390.79,275.47L391.12,275.39L391.46,278.18L392.12,277.41L392.45,276.66L392.78,275.31L393.11,279.01L393.78,281.4L394.11,279.68L394.77,277.64L395.1,283.17L396.43,272.96L396.76,274.44L397.09,278.2L397.42,269.91L397.75,270.04L398.08,268.85L398.42,272.43L398.75,269.04L399.08,266.78L399.74,270.4L400.07,270.29L400.4,270.44L400.74,245.63L401.07,270.88L401.4,272.62L401.73,270.38L402.39,270.56L402.72,270.84L403.06,267.97L403.39,271.1L403.72,270.29L404.71,271.33L405.04,271.3L405.71,268.99L406.04,270.21L406.37,271.67L406.7,264.87L408.36,262.01L408.69,263.94L409.69,263.94L410.02,264.87L411.34,263.03L411.67,263L412.34,231.5L412.67,249.8L413,262.37L414.33,263.14L414.66,261.39L414.99,264.11L415.32,260.82L415.65,262.79L416.98,263.1L417.31,261.59L418.3,263.13L418.63,263.12L418.97,263.04L419.3,251.81L420.29,262.39L420.62,260.44L420.96,261.58L421.29,261.38L421.62,260.53L421.95,257.02L422.28,261L422.61,260.29L422.94,260.24L423.28,262.07L423.61,261.52L423.94,263.46L424.27,262.81L424.6,259.55L425.26,262.11L425.6,261.82L425.93,259.35L426.26,269.01L426.59,261.7L426.92,253.49L428.58,269.43L428.91,271.67L429.57,260.74L429.9,260.93L430.24,261.48L430.9,274.95L431.23,273.1L431.56,270.69L432.56,266L432.89,270.13L433.55,270L433.88,264.31L434.88,261.71L435.21,260.29L435.87,271.63L436.2,259.45L436.53,257.6L436.87,257.68L437.2,260.21L437.53,260.92L437.86,265.96L439.19,257.77L439.52,260.38L440.18,265.04L440.51,262.63L441.17,258.35L441.51,261.81L441.84,263.48L442.17,261.02L443.16,265.97L443.49,260.97L443.83,260.6L444.16,265.76L445.15,261.64L445.48,254.47L446.48,262.37L446.81,265.46L447.47,262.31L447.8,263.87L448.8,261.33L449.13,264.46L449.46,262.59L449.79,263.66L450.12,264.51L450.79,261.11L451.12,261.45L451.45,263.95L451.78,248.46L452.11,260.19L452.44,259.04L453.77,264.49L454.1,253.36L454.43,261.06L454.76,256.05L455.1,257.01L456.42,275.35L456.75,276.21L457.75,262.17L458.08,263.77L458.41,263.76L458.74,269.99L459.07,277.52L459.4,264.52L460.07,263.52L460.4,264.69L460.73,264.86L461.06,281.04L461.39,280.32L461.72,272.66L462.39,266.36L462.72,269.34L463.05,269.18L463.38,286.19L463.71,284.26L464.04,279.74L464.38,279.72L464.71,276.63L465.37,274.08L465.7,285.07L466.03,285.02L466.37,279.55L467.36,273.79L467.69,270.51L468.02,268.45L468.35,272.13L468.69,275.79L469.02,271.03L469.35,271.06L469.68,270.25L470.01,268.98L470.34,282.25L470.67,284.71L471.01,268.73L471.67,271.7L472,268.89" style="vector-effect: non-scaling-stroke; fill: none; stroke: rgb(25, 211, 243); stroke-opacity: 1; stroke-width: 2px; opacity: 1;"/></g><g class="points"/><g class="text"/></g></g></g><g class="overplot"/><path class="xlines-above crisp" d="M0,0" style="fill: none;"/><path class="ylines-above crisp" d="M0,0" style="fill: none;"/><g class="overlines-above"/><g class="xaxislayer-above"><g class="xtick"><text text-anchor="middle" x="0" y="433" transform="translate(80,0)" style="font-family: 'Open Sans', verdana, arial, sans-serif; font-size: 12px; fill: rgb(42, 63, 95); fill-opacity: 1; white-space: pre;">2017</text></g><g class="xtick"><text text-anchor="middle" x="0" y="433" transform="translate(200.98000000000002,0)" style="font-family: 'Open Sans', verdana, arial, sans-serif; font-size: 12px; fill: rgb(42, 63, 95); fill-opacity: 1; white-space: pre;">2018</text></g><g class="xtick"><text text-anchor="middle" x="0" y="433" transform="translate(321.97,0)" style="font-family: 'Open Sans', verdana, arial, sans-serif; font-size: 12px; fill: rgb(42, 63, 95); fill-opacity: 1; white-space: pre;">2019</text></g><g class="xtick"><text text-anchor="middle" x="0" y="433" transform="translate(442.95,0)" style="font-family: 'Open Sans', verdana, arial, sans-serif; font-size: 12px; fill: rgb(42, 63, 95); fill-opacity: 1; white-space: pre;">2020</text></g></g><g class="yaxislayer-above"><g class="ytick"><text text-anchor="end" x="79" y="4.199999999999999" transform="translate(0,407.34)" style="font-family: 'Open Sans', verdana, arial, sans-serif; font-size: 12px; fill: rgb(42, 63, 95); fill-opacity: 1; white-space: pre;">0</text></g><g class="ytick"><text text-anchor="end" x="79" y="4.199999999999999" transform="translate(0,368.09)" style="font-family: 'Open Sans', verdana, arial, sans-serif; font-size: 12px; fill: rgb(42, 63, 95); fill-opacity: 1; white-space: pre;">0.01</text></g><g class="ytick"><text text-anchor="end" x="79" y="4.199999999999999" transform="translate(0,328.85)" style="font-family: 'Open Sans', verdana, arial, sans-serif; font-size: 12px; fill: rgb(42, 63, 95); fill-opacity: 1; white-space: pre;">0.02</text></g><g class="ytick"><text text-anchor="end" x="79" y="4.199999999999999" transform="translate(0,289.61)" style="font-family: 'Open Sans', verdana, arial, sans-serif; font-size: 12px; fill: rgb(42, 63, 95); fill-opacity: 1; white-space: pre;">0.03</text></g><g class="ytick"><text text-anchor="end" x="79" y="4.199999999999999" transform="translate(0,250.37)" style="font-family: 'Open Sans', verdana, arial, sans-serif; font-size: 12px; fill: rgb(42, 63, 95); fill-opacity: 1; white-space: pre;">0.04</text></g><g class="ytick"><text text-anchor="end" x="79" y="4.199999999999999" transform="translate(0,211.13)" style="font-family: 'Open Sans', verdana, arial, sans-serif; font-size: 12px; fill: rgb(42, 63, 95); fill-opacity: 1; white-space: pre;">0.05</text></g><g class="ytick"><text text-anchor="end" x="79" y="4.199999999999999" transform="translate(0,171.89)" style="font-family: 'Open Sans', verdana, arial, sans-serif; font-size: 12px; fill: rgb(42, 63, 95); fill-opacity: 1; white-space: pre;">0.06</text></g><g class="ytick"><text text-anchor="end" x="79" y="4.199999999999999" transform="translate(0,132.65)" style="font-family: 'Open Sans', verdana, arial, sans-serif; font-size: 12px; fill: rgb(42, 63, 95); fill-opacity: 1; white-space: pre;">0.07</text></g></g><g class="overaxes-above"/></g></g><g class="polarlayer"/><g class="ternarylayer"/><g class="geolayer"/><g class="funnelarealayer"/><g class="pielayer"/><g class="treemaplayer"/><g class="sunburstlayer"/><g class="glimages"/><defs id="topdefs-cf2285"><g class="clips"/><clipPath id="legendcf2285"><rect width="127" height="140" x="0" y="0"/></clipPath></defs><g class="layer-above"><g class="imagelayer"/><g class="shapelayer"/></g><g class="infolayer"><g class="legend" pointer-events="all" transform="translate(561.44, 100)"><rect class="bg" shape-rendering="crispEdges" width="127" height="140" x="0" y="0" style="stroke: rgb(68, 68, 68); stroke-opacity: 1; fill: rgb(255, 255, 255); fill-opacity: 1; stroke-width: 0px;"/><g class="scrollbox" transform="translate(0, 0)" clip-path="url('#legendcf2285')"><text class="legendtitletext" text-anchor="start" x="2" y="15.600000000000001" style="font-family: 'Open Sans', verdana, arial, sans-serif; font-size: 12px; fill: rgb(42, 63, 95); fill-opacity: 1; white-space: pre;">Continents</text><g class="groups"><g class="traces" transform="translate(0, 30.1)" style="opacity: 1;"><text class="legendtext" text-anchor="start" x="40" y="4.680000000000001" style="font-family: 'Open Sans', verdana, arial, sans-serif; font-size: 12px; fill: rgb(42, 63, 95); fill-opacity: 1; white-space: pre;">Global</text><g class="layers" style="opacity: 1;"><g class="legendfill"/><g class="legendlines"><path class="js-line" d="M5,0h30" style="fill: none; stroke: rgb(99, 110, 250); stroke-opacity: 1; stroke-width: 2px;"/></g><g class="legendsymbols"><g class="legendpoints"/></g></g><rect class="legendtoggle" x="0" y="-9.5" width="121.734375" height="19" style="fill: rgb(0, 0, 0); fill-opacity: 0;"/></g><g class="traces" transform="translate(0, 49.1)" style="opacity: 1;"><text class="legendtext" text-anchor="start" x="40" y="4.680000000000001" style="font-family: 'Open Sans', verdana, arial, sans-serif; font-size: 12px; fill: rgb(42, 63, 95); fill-opacity: 1; white-space: pre;">Europe</text><g class="layers" style="opacity: 1;"><g class="legendfill"/><g class="legendlines"><path class="js-line" d="M5,0h30" style="fill: none; stroke: rgb(239, 85, 59); stroke-opacity: 1; stroke-width: 2px;"/></g><g class="legendsymbols"><g class="legendpoints"/></g></g><rect class="legendtoggle" x="0" y="-9.5" width="121.734375" height="19" style="fill: rgb(0, 0, 0); fill-opacity: 0;"/></g><g class="traces" transform="translate(0, 68.1)" style="opacity: 1;"><text class="legendtext" text-anchor="start" x="40" y="4.680000000000001" style="font-family: 'Open Sans', verdana, arial, sans-serif; font-size: 12px; fill: rgb(42, 63, 95); fill-opacity: 1; white-space: pre;">Asia</text><g class="layers" style="opacity: 1;"><g class="legendfill"/><g class="legendlines"><path class="js-line" d="M5,0h30" style="fill: none; stroke: rgb(0, 204, 150); stroke-opacity: 1; stroke-width: 2px;"/></g><g class="legendsymbols"><g class="legendpoints"/></g></g><rect class="legendtoggle" x="0" y="-9.5" width="121.734375" height="19" style="fill: rgb(0, 0, 0); fill-opacity: 0;"/></g><g class="traces" transform="translate(0, 87.1)" style="opacity: 1;"><text class="legendtext" text-anchor="start" x="40" y="4.680000000000001" style="font-family: 'Open Sans', verdana, arial, sans-serif; font-size: 12px; fill: rgb(42, 63, 95); fill-opacity: 1; white-space: pre;">North America</text><g class="layers" style="opacity: 1;"><g class="legendfill"/><g class="legendlines"><path class="js-line" d="M5,0h30" style="fill: none; stroke: rgb(171, 99, 250); stroke-opacity: 1; stroke-width: 2px;"/></g><g class="legendsymbols"><g class="legendpoints"/></g></g><rect class="legendtoggle" x="0" y="-9.5" width="121.734375" height="19" style="fill: rgb(0, 0, 0); fill-opacity: 0;"/></g><g class="traces" transform="translate(0, 106.1)" style="opacity: 1;"><text class="legendtext" text-anchor="start" x="40" y="4.680000000000001" style="font-family: 'Open Sans', verdana, arial, sans-serif; font-size: 12px; fill: rgb(42, 63, 95); fill-opacity: 1; white-space: pre;">South America</text><g class="layers" style="opacity: 1;"><g class="legendfill"/><g class="legendlines"><path class="js-line" d="M5,0h30" style="fill: none; stroke: rgb(255, 161, 90); stroke-opacity: 1; stroke-width: 2px;"/></g><g class="legendsymbols"><g class="legendpoints"/></g></g><rect class="legendtoggle" x="0" y="-9.5" width="121.734375" height="19" style="fill: rgb(0, 0, 0); fill-opacity: 0;"/></g><g class="traces" transform="translate(0, 125.1)" style="opacity: 1;"><text class="legendtext" text-anchor="start" x="40" y="4.680000000000001" style="font-family: 'Open Sans', verdana, arial, sans-serif; font-size: 12px; fill: rgb(42, 63, 95); fill-opacity: 1; white-space: pre;">Oceania</text><g class="layers" style="opacity: 1;"><g class="legendfill"/><g class="legendlines"><path class="js-line" d="M5,0h30" style="fill: none; stroke: rgb(25, 211, 243); stroke-opacity: 1; stroke-width: 2px;"/></g><g class="legendsymbols"><g class="legendpoints"/></g></g><rect class="legendtoggle" x="0" y="-9.5" width="121.734375" height="19" style="fill: rgb(0, 0, 0); fill-opacity: 0;"/></g></g></g><rect class="scrollbar" rx="20" ry="3" width="0" height="0" x="0" y="0" style="fill: rgb(128, 139, 164); fill-opacity: 1;"/></g><g class="g-gtitle"/><g class="g-xtitle"><text class="xtitle" x="316" y="461.8" text-anchor="middle" style="font-family: 'Open Sans', verdana, arial, sans-serif; font-size: 14px; fill: rgb(42, 63, 95); opacity: 1; font-weight: normal; white-space: pre;">Date</text></g><g class="g-ytitle"><text class="ytitle" transform="rotate(-90,30.418750000000003,260)" x="30.418750000000003" y="260" text-anchor="middle" style="font-family: 'Open Sans', verdana, arial, sans-serif; font-size: 14px; fill: rgb(42, 63, 95); opacity: 1; font-weight: normal; white-space: pre;">instrumentalness</text></g></g></svg>