<svg class="main-svg" xmlns="http://www.w3.org/2000/svg" xmlns:xlink="http://www.w3.org/1999/xlink" width="700" height="500" style="" viewBox="0 0 700 500"><rect x="0" y="0" width="700" height="500" style="fill: rgb(255, 255, 255); fill-opacity: 1;"/><defs id="defs-530483"><g class="clips"><clipPath id="clip530483xyplot" class="plotclip"><rect width="512" height="320"/></clipPath><clipPath class="axesclip" id="clip530483x"><rect x="80" y="0" width="512" height="500"/></clipPath><clipPath class="axesclip" id="clip530483y"><rect x="0" y="100" width="700" height="320"/></clipPath><clipPath class="axesclip" id="clip530483xy"><rect x="80" y="100" width="512" height="320"/></clipPath></g><g class="gradients"/></defs><g class="bglayer"><rect class="bg" x="80" y="100" width="512" height="320" style="fill: rgb(229, 236, 246); fill-opacity: 1; stroke-width: 0;"/></g><g class="layer-below"><g class="imagelayer"/><g class="shapelayer"/></g><g class="cartesianlayer"><g class="subplot xy"><g class="layer-subplot"><g class="shapelayer"/><g class="imagelayer"/></g><g class="gridlayer"><g class="x"><path class="xgrid crisp" transform="translate(211.24,0)" d="M0,100v320" style="stroke: rgb(255, 255, 255); stroke-opacity: 1; stroke-width: 1px;"/><path class="xgrid crisp" transform="translate(342.47,0)" d="M0,100v320" style="stroke: rgb(255, 255, 255); stroke-opacity: 1; stroke-width: 1px;"/><path class="xgrid crisp" transform="translate(473.71,0)" d="M0,100v320" style="stroke: rgb(255, 255, 255); stroke-opacity: 1; stroke-width: 1px;"/></g><g class="y"><path class="ygrid crisp" transform="translate(0,347.45)" d="M80,0h512" style="stroke: rgb(255, 255, 255); stroke-opacity: 1; stroke-width: 1px;"/><path class="ygrid crisp" transform="translate(0,290.81)" d="M80,0h512" style="stroke: rgb(255, 255, 255); stroke-opacity: 1; stroke-width: 1px;"/><path class="ygrid crisp" transform="translate(0,234.17)" d="M80,0h512" style="stroke: rgb(255, 255, 255); stroke-opacity: 1; stroke-width: 1px;"/><path class="ygrid crisp" transform="translate(0,177.53)" d="M80,0h512" style="stroke: rgb(255, 255, 255); stroke-opacity: 1; stroke-width: 1px;"/><path class="ygrid crisp" transform="translate(0,120.9)" d="M80,0h512" style="stroke: rgb(255, 255, 255); stroke-opacity: 1; stroke-width: 1px;"/></g></g><g class="zerolinelayer"><path class="yzl zl crisp" transform="translate(0,404.08)" d="M80,0h512" style="stroke: rgb(255, 255, 255); stroke-opacity: 1; stroke-width: 2px;"/></g><path class="xlines-below"/><path class="ylines-below"/><g class="overlines-below"/><g class="xaxislayer-below"/><g class="yaxislayer-below"/><g class="overaxes-below"/><g class="plot" transform="translate(80, 100)" clip-path="url('#clip530483xyplot')"><g class="scatterlayer mlayer"><g class="trace scatter trace6b5c26" style="stroke-miterlimit: 2; opacity: 1;"><g class="fills"/><g class="errorbars"/><g class="lines"><path class="js-line" d="M0,294.38L1.08,295.96L1.44,295.95L1.8,295.44L2.16,295.94L2.52,295.94L2.88,295.96L3.24,295.08L3.96,295.08L4.31,286.56L4.67,286.91L5.03,294.02L6.83,293.75L7.19,293.15L8.99,295.16L9.35,295.17L10.07,294.93L10.43,289.82L11.51,295.17L11.87,295.17L15.46,295.19L15.82,296.78L16.9,294.48L17.26,294.47L20.13,294.55L20.49,289.22L21.57,294.59L21.93,290.42L22.29,290.41L22.65,294.6L23.01,290.42L23.37,294.6L23.73,294.6L26.97,294.61L27.33,295.48L28.4,293.94L28.76,294.04L29.12,292.44L29.48,294.77L31.64,294.04L32,294.94L32.72,294.94L33.08,294.18L34.16,292.43L34.52,294.21L35.24,294.14L35.6,292.57L36.31,292.58L36.67,291.7L37.75,292.34L38.11,292.37L38.47,292.34L38.83,291.5L39.19,290.6L39.55,292.36L41.71,292.43L42.07,290.74L42.79,295.65L43.15,291.39L44.58,298.96L44.94,294.37L45.66,294.37L46.02,298.95L47.1,298.62L47.46,294.06L48.54,298.59L48.9,298.94L49.26,297.85L49.62,298.96L49.98,298.94L53.21,298.85L54.29,297.8L59.33,297.47L59.69,293.38L60.76,297.43L61.12,297.4L65.44,297.31L65.8,297.31L66.88,297.31L67.24,294.73L68.31,297.31L68.67,297.31L69.39,297.32L69.75,293.09L70.83,297.32L71.19,297.32L71.91,298.02L72.27,298.54L72.63,298.77L72.99,297.25L74.79,297.97L75.15,299.56L76.22,297.95L76.58,297.96L77.3,297.29L77.66,298.91L78.74,297.35L79.1,297.35L79.46,297.35L79.82,295.79L80.18,298.82L80.54,298.34L80.9,298.35L81.98,298.44L82.34,299.99L82.7,299.99L83.06,298.44L84.49,297.78L84.85,296.1L85.93,299.46L86.29,297.69L87.01,297.79L87.37,299.87L87.73,299.86L88.09,298.67L89.53,298.67L89.89,299.93L90.25,299.92L90.61,298.75L92.04,298.75L92.4,299.39L92.76,299.82L93.12,298.84L94.2,298.84L94.56,300.4L95.64,300.41L96,299.03L97.08,300.39L97.44,300.41L98.16,300.61L98.52,299.04L99.24,299.04L99.6,300.6L100.67,300.62L101.03,299.04L101.75,299.05L102.11,300.62L103.55,298.4L103.91,299.94L104.27,298.37L104.63,299.94L104.99,299.96L105.35,299.95L105.71,301.3L106.79,299.96L107.15,299.96L107.87,299.96L108.22,301.3L108.94,290.31L109.3,290.62L109.66,290.64L110.74,296.09L111.1,296.09L112.18,295.79L112.54,297.14L113.26,301.3L113.62,295.77L113.98,301.3L114.34,299.96L114.7,299.92L115.78,301.26L116.13,301.29L117.21,299.92L117.57,299.99L117.93,301.33L118.29,299.33L119.37,301.33L119.73,299.33L122.25,299.32L122.61,299.31L124.76,299.15L125.12,299.32L125.84,299.9L126.2,299.31L127.28,299.15L127.64,300.36L128.72,300.33L129.08,299.26L130.16,301.24L130.52,300.92L130.88,299.48L131.24,299.84L131.6,300.97L137.71,300.56L138.07,300.59L139.87,300.61L140.22,301.5L140.94,300.61L141.3,300.8L141.66,300.8L142.38,300.8L142.74,297.45L144.18,300.74L144.54,300.74L144.9,300.74L145.26,301.57L146.34,300.67L146.7,301.41L147.42,300.11L147.78,301.54L148.49,301.66L148.85,300.83L149.21,301.58L149.57,300.87L149.93,301.3L151.01,301.97L151.37,301.28L152.45,302.24L152.81,302.21L157.48,302.21L157.84,299.99L158.92,300.33L159.28,300.34L160.36,301.45L160.72,301.23L163.96,301.25L164.31,302.25L170.07,302.6L170.43,297.95L171.15,296.73L171.51,297.2L172.58,297.96L172.94,294.91L177.62,294.86L177.98,295.64L178.34,295.58L178.7,298.25L179.06,296.06L179.42,298.06L179.78,302.85L180.13,298.17L180.85,298.38L181.21,303.06L182.29,301.62L182.65,301.64L183.01,302.29L183.37,302.05L183.73,300.97L188.04,300.67L188.4,302.24L189.48,300.71L189.84,300.68L190.2,300.68L190.56,299.44L190.92,302.21L191.28,302.07L191.64,301.04L192,298.9L192.36,299.42L192.72,300.8L195.24,301.03L195.6,291.62L196.67,300.37L197.03,300.72L199.55,300.74L199.91,299.53L202.79,299.88L203.15,299.05L204.58,299.36L204.94,299.36L205.3,299.03L205.66,301.24L206.02,301.42L206.38,300.51L207.82,300.3L208.18,301.51L210.34,301.68L210.7,299.51L211.42,301.71L211.78,301.5L212.13,301.68L213.21,301.68L213.57,301.59L215.37,301.68L215.73,298.84L216.81,298.83L217.17,297.49L218.61,302.16L218.97,301.57L220.76,302.35L221.12,301.5L222.2,302.22L222.56,302.28L222.92,302.3L223.28,300.09L225.44,300.12L225.8,298.62L226.88,300.2L227.24,300.22L230.47,300.23L230.83,297.44L232.27,297.42L232.63,298.79L232.99,298.79L233.35,299.79L235.15,300.09L235.51,300.1L235.87,290.22L236.22,299.73L236.58,299.75L238.02,300.45L238.38,298.73L239.1,298.57L239.46,297.08L240.54,298.6L240.9,298.05L241.98,298.56L242.34,298.55L244.85,297.27L245.21,297.66L246.29,297.71L246.65,296.99L248.45,296.82L248.81,294.82L251.33,295.54L251.69,295.83L252.76,295.56L253.12,295.86L254.2,287.45L254.56,287.61L255.64,287.62L256,290.28L257.08,290.69L257.44,290.69L258.16,290.86L258.52,292.06L259.24,291.89L259.6,292.48L259.96,292.32L260.31,290.85L261.39,292.83L261.75,292.83L262.11,293.44L262.47,293.04L262.83,292.68L264.99,292.69L265.35,290.24L267.51,290.36L267.87,292.81L272.54,292.81L272.9,291.89L273.98,291.8L274.34,291.08L276.49,291.49L276.85,291.95L278.29,290.54L278.65,297.27L279.01,297.33L279.37,291.95L280.45,291.76L280.81,296.96L281.89,296.69L282.25,297.34L285.84,297.4L286.2,294.32L287.28,295.89L287.64,295.89L290.88,295.91L291.24,294.91L293.39,294.12L293.75,279.89L295.91,279.91L296.27,272.86L296.99,278.99L297.35,278.65L297.71,278.66L298.07,278.85L298.43,283.15L299.51,288.7L299.87,285.28L300.94,288.73L301.3,288.74L302.38,288.85L302.74,284.77L303.1,284.82L303.46,288.86L308.49,288.61L308.85,294.94L309.21,294.96L309.57,292.29L310.65,288.61L311.01,291.88L311.37,289.93L311.73,290.31L312.09,293.13L312.45,291.06L312.81,291.15L313.17,293.5L313.89,293.42L314.25,294.87L319.28,294.95L319.64,294.59L323.6,294.53L323.96,295.69L325.03,295.43L325.39,295.43L326.47,296.16L326.83,295.84L331.15,295.76L331.51,293.07L331.87,293.9L332.22,291.27L333.3,293.9L333.66,293.9L334.02,293.79L334.38,291.16L334.74,290.83L335.1,293.7L336.54,294.27L336.9,291.63L338.34,291.3L338.7,291.3L339.06,292.75L339.42,291.62L339.78,291.3L340.49,291.3L340.85,288.44L341.57,288.88L341.93,291.3L344.09,291.32L344.45,292.57L345.53,291.33L345.89,291.38L346.25,291.39L346.61,292.64L347.69,292.6L348.04,292.56L348.76,292.56L349.12,257.6L350.2,288.83L350.56,288.83L351.64,292.4L352,292.14L352.36,291.79L360.27,292.26L360.63,291.56L362.43,291.75L362.79,294.15L363.51,294.93L363.87,294.13L366.02,294.26L366.38,296.89L367.46,291.47L367.82,294.06L368.54,294.1L368.9,295.73L369.26,292.33L369.62,293.56L369.98,294.94L370.34,293.48L370.7,294.9L371.06,294.9L371.42,293.38L371.78,294.96L372.13,294.98L373.21,291.16L373.57,294.91L373.93,294.91L374.29,290.73L374.65,294.98L375.01,294.79L375.37,291.04L375.73,291.17L376.09,294.91L376.45,290.35L376.81,290.42L377.17,292.29L377.53,294.82L377.89,292.85L378.25,292.85L378.97,292.85L379.33,295.27L380.04,295.6L380.4,292.82L380.76,292.88L381.12,294.93L381.48,294.95L381.84,292.94L382.2,292.94L382.56,295.31L383.64,295.34L384,293.52L384.72,293.62L385.08,296.3L385.44,293.6L385.8,294.23L386.16,296.26L386.52,295.93L386.88,294.09L389.39,294.1L389.75,294.9L390.47,294.95L390.83,296.96L391.19,296.84L391.55,294.2L392.63,289.72L392.99,292.47L393.35,293.53L393.71,292.09L394.79,294.38L395.15,294.37L396.58,294.23L396.94,296.85L397.3,294.32L397.66,295.28L398.02,295.22L398.74,295.25L399.1,293.37L399.46,295.53L399.82,295.37L400.18,295.09L400.9,295.11L401.26,294.34L401.98,296.84L402.34,293.53L402.7,295.3L403.06,294.8L403.42,294.86L404.13,294.06L404.49,294.87L405.21,294.24L405.57,294.94L406.29,294.94L406.65,294.18L407.01,296.21L407.37,293.68L408.45,294.9L408.81,294.26L409.17,294.26L409.53,290.25L410.61,293.89L410.97,293.13L411.33,293.08L411.69,293.84L412.4,296.97L412.76,296.89L413.12,296.89L414.2,296.93L414.56,297.95L416.72,297.83L417.08,298.87L417.8,298.76L418.16,296.72L418.52,296.72L418.88,298.78L419.24,298.74L419.6,296.94L419.96,298.75L420.31,298.49L420.67,297.57L421.75,298.63L422.11,293.86L422.47,293.86L422.83,292.53L424.63,296.8L424.99,295.95L426.07,297.7L426.43,297.7L426.79,297.72L427.15,298.57L428.22,298.57L428.58,293.45L430.02,290.76L430.38,291.33L430.74,293.24L431.82,293.12L432.18,291.28L432.54,291.29L432.9,289.46L433.98,291.25L434.34,291.24L435.06,289.4L435.42,291.13L437.21,291.39L437.57,289.62L438.65,291.25L439.01,291.38L439.73,292.06L440.09,290.36L441.17,291.56L441.53,290.5L441.89,290.55L442.25,292.14L442.97,290.03L443.33,290.11L443.69,290.1L444.4,295.78L444.76,295.73L445.12,290.57L446.2,288.61L446.56,288.74L446.92,289.06L447.64,279.23L448,285.78L448.36,285.27L448.72,290.19L449.44,295.29L449.8,295.21L450.16,288.79L451.24,294.57L451.6,294.59L451.96,294.58L452.31,296.39L453.03,294.11L453.39,295.37L454.47,295.37L454.83,296.35L455.55,293.58L455.91,294.58L456.27,294.57L456.63,295.61L457.35,295.93L457.71,294.17L458.07,296.02L458.43,294.61L458.79,295.11L459.15,295.12L459.51,296.15L459.87,296.63L460.22,294.81L461.3,297.36L461.66,296.6L464.9,296.69L465.26,294.77L466.34,297.26L466.7,297.27L468.13,297.28L468.49,297.32L469.57,297.23L469.93,293.44L471.37,293.87L471.73,293.94L472.45,293.66L472.81,296.54L473.17,296.51L473.53,295.2L474.61,294.94L474.97,290.81L476.4,295.18L476.76,294.87L477.12,294.82L477.48,290.42L478.2,295.19L478.56,292.36L479.64,294.89L480,295.01L482.52,294.44L482.88,292.6L483.24,294.47L483.6,294.18L483.96,293.85L484.67,294.16L485.03,291.63L485.39,291.91L485.75,294.77L486.11,291.7L486.47,294.28L486.83,294.77L487.19,294.79L487.55,289.87L487.91,294.86L488.63,294.76L488.99,294.73L489.71,294.7L490.07,281.35L490.43,282.23L490.79,290.64L491.15,289.82L491.51,292.44L492.22,292.46L492.58,286.01L492.94,286.11L493.3,287.04L494.02,288.05L494.38,283.61L495.46,294.9L495.82,293.29L496.18,293.26L497.26,293.31L497.62,294.09L502.29,293.94L502.65,295.93L503.01,296.49L503.37,294.22L503.73,295.79L504.09,293.91L504.45,293.95L504.81,295.83L505.17,297.75L505.53,295.89L505.89,294.26L506.61,296.09L506.97,294.22L508.4,295.33L508.76,294.59L509.84,295.35L510.2,296.75L510.92,297.45L511.28,296.86L511.64,296.89L512,296.41" style="vector-effect: non-scaling-stroke; fill: none; stroke: rgb(99, 110, 250); stroke-opacity: 1; stroke-width: 2px; opacity: 1;"/></g><g class="points"/><g class="text"/></g><g class="trace scatter tracec01436" style="stroke-miterlimit: 2; opacity: 1;"><g class="fills"/><g class="errorbars"/><g class="lines"><path class="js-line" d="M0,303.19L1.08,302.31L1.44,302.39L4.31,302.34L4.67,302.72L6.11,302.38L6.47,302.38L7.55,302.72L7.91,302.3L12.22,302.77L12.58,302.45L15.82,301.9L16.18,299.39L17.26,301.97L17.62,301.89L18.7,301.81L19.06,299.43L20.13,301.88L20.49,301.87L21.57,301.89L21.93,297.79L22.65,301.95L23.01,301.9L23.37,301.9L24.09,301.9L24.45,269.99L25.17,301.79L25.53,293.6L25.89,298.63L27.33,298.89L27.69,302.65L28.76,301.39L29.12,301.4L29.48,301.27L29.84,301.98L31.64,302.03L32,301.43L32.36,297.71L32.72,298.29L33.08,298.13L33.44,298.13L33.8,301.48L34.88,302.53L35.24,302.17L36.31,302.06L36.67,302.12L39.19,302.06L39.55,302.15L40.63,301.86L40.99,301.17L41.71,301.86L42.07,300.8L42.43,302.17L42.79,302.07L43.15,301.89L43.51,299.61L43.87,300.37L44.22,300.4L44.94,302.55L45.3,302.1L45.66,299.48L46.02,300.45L46.38,299.78L46.74,300.02L47.46,302.93L47.82,302.02L48.18,299.92L49.26,299.99L49.62,301.67L50.34,302.04L50.7,299.93L51.78,300.45L52.13,301.71L52.85,302.18L53.21,300.05L54.29,300.54L55.01,302.44L56.45,301.61L56.81,301.7L58.61,301.71L58.97,301.57L59.33,301.72L59.69,297.86L60.04,301.08L60.4,300.76L60.76,300.62L61.48,300.71L61.84,299.62L62.92,301.08L63.28,300.64L65.8,300.64L66.16,301.72L66.88,301.75L67.24,302.13L67.6,302.15L67.96,300.98L68.31,301.72L68.67,300.64L69.39,300.96L69.75,298.12L70.11,302.11L70.83,301.99L71.19,301.67L75.15,302.19L75.51,302.01L76.58,302.1L76.94,300.94L77.66,300.45L78.02,301L79.46,300.94L79.82,301.75L80.54,302.09L80.9,301.69L82.34,302.12L82.7,302.1L92.04,301.7L92.4,301.03L93.48,302.02L93.84,302.02L94.56,301.64L94.92,302.1L96.36,301.56L96.72,301.56L98.52,301.57L98.88,301.35L101.03,301.42L101.39,299.84L101.75,299.41L102.11,299.82L102.47,301.62L104.63,301.64L104.99,301.64L106.79,301.42L107.15,301.42L108.22,302.06L108.58,301.64L113.98,301.65L114.34,298.61L115.78,301.69L116.13,299.77L116.85,301.63L117.21,301.51L117.57,301.66L118.65,301.79L119.01,301.65L128.36,302.07L128.72,303.31L129.8,301.75L130.16,301.95L130.88,301.95L131.24,303.58L132.31,301.75L132.67,301.77L135.19,301.97L135.55,301.48L147.78,301.65L148.13,299.51L149.57,298.99L149.93,299.33L153.17,300.07L153.53,299.48L155.69,299.77L156.04,299.66L165.39,299.61L165.75,299.61L166.11,299.65L166.47,302.11L167.55,302.1L167.91,299.63L168.63,299.61L168.99,302.13L170.07,302.13L170.43,297.43L171.15,295.01L171.51,297.43L172.94,297.91L173.3,295.74L174.38,299.7L174.74,302.13L175.46,302.1L175.82,299.73L176.18,299.66L176.54,302.1L177.62,302.1L177.98,300.28L178.34,297.9L178.7,298.25L179.06,299.52L180.13,302.66L180.49,302.86L180.85,302.95L181.21,300.46L181.93,302.78L182.29,302.66L182.65,302.66L183.01,302.39L183.37,302.87L183.73,300.34L184.81,302.74L185.17,302.73L189.48,302.76L189.84,300.93L190.92,302.92L191.28,302.86L191.64,302.88L192,301.9L192.72,301.91L193.08,302.92L194.16,302.86L194.52,302.64L195.24,303.07L195.6,294.57L196.31,302.82L196.67,302.78L197.03,302.77L199.55,302.81L199.91,301.69L202.07,301.11L202.43,302.18L203.15,302.84L203.51,303.29L205.3,302.22L205.66,303.05L207.46,302.16L207.82,302.98L208.9,303.09L209.26,302.23L211.06,302.96L211.42,303.06L212.49,302.3L212.85,302.32L213.93,303.03L214.29,302.34L215.37,302.24L215.73,303.09L216.45,303.08L216.81,302.35L218.25,302.36L218.61,303.11L219.69,302.17L220.04,302.17L221.48,303.1L221.84,302.37L223.28,302.34L223.64,303.11L224.36,302.37L224.72,303.14L228.31,303.13L228.67,303.14L230.47,303.1L230.83,300.26L231.91,301.72L232.27,302.63L233.71,303.11L234.07,302.13L235.15,303.1L235.51,303.03L236.58,300.44L236.94,301.33L238.02,303.1L238.38,302.24L239.1,302.26L239.46,303.11L240.54,301.36L240.9,300.51L241.62,300.51L241.98,301.46L243.06,301.46L243.42,300.53L244.13,300.51L244.49,301.48L245.57,301.48L245.93,300.53L247.01,300.46L247.37,301.48L248.09,301.35L248.45,300.44L249.89,301.27L250.25,300.3L252.4,300.35L252.76,301.3L253.48,301.48L253.84,300.53L254.2,300.53L254.56,301.45L256,301.37L256.36,300.42L256.72,300.43L257.08,301.28L260.67,301.36L261.03,301.37L261.39,301.37L261.75,300.37L265.35,300.37L265.71,300.37L267.15,300.38L267.51,301.25L268.58,300.06L268.94,300.12L272.18,299.98L272.54,300.92L273.98,299.23L274.34,299.23L275.42,300.14L275.78,300.06L276.13,299.99L276.49,298.92L278.29,300.03L278.65,300L279.37,298.88L279.73,299.78L281.17,300.17L281.53,299.4L281.89,299.46L282.25,300.31L283.69,300.15L284.04,299.45L285.12,299.21L285.48,300.26L286.92,299.51L287.28,300.11L290.88,300L291.24,300.27L291.96,298.07L292.31,298.99L293.39,298.9L293.75,293.43L294.11,293.35L294.47,295.11L295.55,293.31L295.91,295.74L296.63,297.31L296.99,296.31L298.07,297.24L298.43,296.95L299.15,298.1L299.51,297.41L299.87,297.3L300.94,297.24L301.3,297.28L303.82,297.29L304.18,296.18L305.26,296.14L305.62,297.48L305.98,297.29L306.34,298.18L306.7,297.01L307.06,298.22L307.42,297.45L308.49,298.27L308.85,298.28L311.01,298.27L311.37,297.09L312.45,298.26L312.81,298.24L313.53,298.26L313.89,299.5L314.25,299.58L314.61,298.25L316.04,298.17L316.4,299.52L317.12,299.45L317.48,298.57L318.56,298.66L318.92,299.57L319.64,299.49L320,298.31L321.08,299.53L321.44,299.62L324.31,299.64L324.67,297.54L331.15,297.28L331.51,295.54L334.02,295.6L334.38,296.51L334.74,296.57L335.1,295.56L335.46,295.56L335.82,296.45L339.42,296.45L339.78,293.82L340.13,296.42L340.49,293.79L340.85,293.87L341.57,293.88L341.93,295.74L343.01,295.73L343.37,293.85L343.73,293.85L344.09,295.76L345.17,295.74L345.53,293.84L346.61,297.55L346.97,295.74L348.76,295.73L349.12,297.48L350.2,295.73L350.56,295.57L351.64,295.68L352,295.7L352.72,295.65L353.08,294.78L353.8,294.78L354.16,296.55L354.52,296.56L354.88,294.8L355.96,296.54L356.31,296.54L357.03,296.48L357.39,294.68L357.75,294.63L358.11,296.26L359.55,296.48L359.91,294.29L360.99,296.41L361.35,296.4L362.07,298.51L362.43,294.3L363.51,298.49L363.87,298.49L364.22,298.48L364.58,294.29L364.94,294.3L365.3,298.46L366.74,298.48L367.1,294.36L367.46,294.28L367.82,298.45L369.26,298.34L369.62,294.25L369.98,294.23L370.34,298.31L371.78,298.42L372.13,294.3L372.49,294.27L372.85,298.35L374.29,297.76L374.65,293.78L375.01,294.44L375.37,297.85L376.09,298.51L376.45,294.8L376.81,294.99L377.17,290.79L377.89,290.69L378.25,294.97L379.33,294.91L379.69,290.74L380.04,290.75L380.4,294.92L381.48,294.85L381.84,293.77L382.56,289.57L382.92,293.67L384.36,293.92L384.72,297.66L385.08,293.25L385.44,293.83L385.8,293.91L386.52,293.91L386.88,289.26L387.24,291.39L387.6,287.18L388.67,291.38L389.03,291.38L389.75,291.22L390.11,287.01L391.19,294.41L391.55,291.2L391.91,291.22L392.27,289.5L392.63,289.5L392.99,293.72L393.35,289.5L393.71,293.91L394.07,293.63L394.43,293.71L394.79,290.67L395.15,290.59L395.51,293.62L395.87,293.62L396.22,294.88L396.58,294.88L396.94,293.56L397.3,294.89L397.66,290.66L398.38,293.7L398.74,293.61L399.1,293.69L399.82,296.88L400.18,292.67L401.62,294.71L401.98,293.55L402.7,293.16L403.06,293.61L405.57,293.61L405.93,294.78L407.01,294.77L407.37,293.14L407.73,293.15L408.09,294.79L409.53,294.73L409.89,292.97L410.25,293.03L410.61,295.6L412.04,295.56L412.4,294.76L412.76,293.04L413.12,294.74L413.48,294.73L414.56,295.6L414.92,294.84L416,298.24L416.36,298.24L417.44,298.61L417.8,296.91L418.88,298.29L419.24,298.3L419.6,302.03L419.96,298.63L420.31,298.63L421.39,298.26L421.75,298.28L422.47,291.69L422.83,294.4L423.19,292.66L424.27,297.15L424.63,297.19L425.35,298.16L425.71,294.56L426.79,297.41L427.15,289.63L427.51,294.49L427.87,294.42L428.22,291.64L429.3,299.38L429.66,297.53L431.1,295.66L431.46,295.64L431.82,299.38L432.18,294.12L432.9,300.46L433.26,299.28L433.62,299.29L437.21,299.13L437.57,296.5L438.65,299.11L439.01,299.13L441.17,299.06L441.53,300.83L442.61,300.99L442.97,299.22L444.4,299.21L444.76,301.35L445.12,301.04L445.48,299.27L446.56,301.05L446.92,301.04L447.28,291.36L447.64,296.65L448,299.93L449.08,301.06L449.44,301.05L450.88,301.04L451.24,299.19L451.6,299.29L451.96,298.11L452.31,298.08L452.67,298.84L453.75,298.84L454.11,300.61L454.83,300.6L455.19,301.76L456.27,298.85L456.63,300.01L456.99,300L457.35,301.77L458.07,299.99L458.43,301.75L458.79,301.77L459.15,299.99L460.22,301.78L460.58,300L462.02,300.02L462.38,301.78L469.57,301.25L469.93,300.52L470.65,300.93L471.01,300.53L472.09,300.07L472.45,298.38L473.89,298.88L474.25,299.1L474.97,300.82L475.33,299.53L475.69,298.8L476.04,300.31L476.4,301.93L476.76,300.25L477.12,300.24L478.2,300.48L478.56,301.97L479.28,301.97L479.64,300.28L480.36,298.14L480.72,298.53L481.08,298.08L481.44,298.53L481.8,300.02L482.52,301.74L482.88,300.48L483.24,298.76L483.6,301.74L485.03,302.37L485.39,300.47L485.75,298.47L486.11,301.68L487.19,302.08L487.55,302.06L488.27,298.48L488.63,300.41L489.71,300.84L490.07,302.55L490.79,298.93L491.15,302.57L492.94,302.45L493.3,300.55L493.66,300.79L494.02,302.49L494.38,302.55L494.74,300.71L495.1,302.55L495.46,300.64L495.82,298.95L496.54,302.57L496.9,300.89L497.26,302.41L497.62,302.57L497.98,297.08L499.42,302.55L499.78,302.41L500.49,302.59L500.85,300.65L501.93,302.53L502.29,302.57L507.33,302.56L507.69,302.16L509.48,302.34L509.84,302.34L512,302.12" style="vector-effect: non-scaling-stroke; fill: none; stroke: rgb(239, 85, 59); stroke-opacity: 1; stroke-width: 2px; opacity: 1;"/></g><g class="points"/><g class="text"/></g><g class="trace scatter trace65d9fd" style="stroke-miterlimit: 2; opacity: 1;"><g class="fills"/><g class="errorbars"/><g class="lines"><path class="js-line" d="M0,301.75L0.36,303.85L0.72,301.96L1.08,302.01L2.16,301.71L2.52,303.86L3.6,302.08L3.96,302.24L4.31,302.16L4.67,303.82L5.03,303.79L5.39,302.2L5.75,302.3L6.11,303.85L6.47,303.84L6.83,302.31L7.91,303.86L8.27,303.83L8.63,303.87L8.99,302.23L10.07,303.85L10.43,303.88L11.15,303.85L11.51,302.4L11.87,302.39L12.22,303.91L18.7,303.92L19.06,303.92L28.04,303.89L28.4,302.88L31.28,302.82L31.64,302.95L35.6,302.71L35.96,302.78L42.43,302.79L42.79,303.84L43.51,299.6L43.87,302.89L47.46,302.86L47.82,303.96L49.26,301.27L49.62,301.33L49.98,300.9L50.34,301.81L50.7,301.09L51.06,297.85L51.78,298.16L52.13,301.47L52.85,301.7L53.21,301.11L55.37,301.86L55.73,301.29L56.45,300.48L56.81,301.5L58.25,301.42L58.61,300.8L59.69,301.6L60.04,301.23L60.76,301.4L61.12,301.42L62.92,300.91L63.28,301.5L67.6,301.46L67.96,301.27L69.75,301.59L70.11,301.54L70.83,301.1L71.19,301.51L72.63,301.67L72.99,301.18L74.07,301.84L74.43,301.82L76.58,301.68L76.94,299.77L77.3,298.85L77.66,301.64L78.38,301.34L78.74,299.81L79.46,299.92L79.82,301.81L81.62,301.7L81.98,301.82L85.21,301.87L85.57,301.26L87.01,302.07L87.37,302.21L88.81,302.17L89.17,302.22L93.12,301.57L93.48,302.33L95.28,301.96L95.64,301.59L97.44,302.19L97.8,302.11L98.52,302.05L98.88,302.17L100.31,302.07L100.67,301.64L102.11,302.16L102.47,302.18L103.19,301.26L103.55,301.84L103.91,302.06L106.43,302.05L106.79,302.09L107.87,301.97L108.22,301.44L108.58,301.97L108.94,299.98L110.02,302.08L110.38,301.88L110.74,301.39L111.1,301.91L111.46,301.96L115.42,301.86L115.78,301.27L116.13,301.9L116.49,300.07L117.57,302.19L117.93,301.96L118.29,301.47L118.65,301.86L119.01,301.98L120.45,301.96L120.81,301.45L122.25,302.15L122.61,302.19L123.33,301.34L123.69,302.15L125.48,301.99L125.84,301.39L126.92,302.02L127.28,302.09L131.6,301.51L131.96,301.85L145.62,301.95L145.98,303.85L146.34,303.86L146.7,301.72L147.78,302.23L148.13,301.99L149.57,301.93L149.93,302.51L152.09,302.96L152.45,299.17L153.17,299.08L153.53,298.18L153.89,299.03L154.25,298.85L154.61,298.78L155.69,298.4L156.04,302.64L157.12,298.36L157.48,298.3L157.84,302.79L158.56,302.68L158.92,298.37L159.64,302.77L160,298.62L161.08,303.86L161.44,302.7L162.52,302.68L162.88,303.89L163.6,303.86L163.96,302.65L168.27,302.75L168.63,303.82L169.71,302.73L170.07,297.42L170.79,289.41L171.15,295.79L171.51,290.44L171.87,290.75L172.22,291.29L172.58,291.35L172.94,296.66L174.38,295.31L174.74,291.67L175.46,293.23L175.82,302.58L177.62,302.91L177.98,299.94L178.7,303.84L179.06,302.92L179.42,303L179.78,300.41L180.49,300.8L180.85,303.82L182.65,303.84L183.01,302.26L184.09,303.92L184.45,302.99L184.81,302.97L185.17,303.88L185.53,303.84L185.89,302.79L186.61,303.85L186.97,302.87L187.33,302.96L187.69,303.85L189.12,303.87L189.48,302.64L190.92,303.8L191.28,303.74L191.64,303.83L192,302.16L192.36,302.33L192.72,303.66L194.88,303.81L195.24,303.8L195.6,302.45L195.96,303.59L196.31,303.56L197.39,302.64L197.75,302.7L198.83,303.68L199.19,302.93L199.55,303.57L199.91,301.13L200.63,301.22L200.99,301.86L201.35,303.53L201.71,302.49L202.07,300.93L202.43,301.08L202.79,302.68L203.15,302.68L203.51,303.69L204.58,303.03L204.94,302.71L205.66,302.47L206.02,303.72L206.38,303.79L206.74,302.3L208.18,302.52L208.54,303.71L209.26,303.75L209.62,302.79L210.34,302.44L210.7,300.05L211.42,303.72L211.78,302.61L212.13,302.64L213.57,302.53L213.93,303.76L215.01,302.61L215.37,302.52L216.45,303.71L216.81,302.46L217.17,302.78L217.53,299.22L218.61,298.88L218.97,297.84L219.33,292.43L219.69,294.03L220.04,299.15L220.76,299.03L221.12,302.94L224,302.68L224.36,302.93L225.44,302.88L225.8,302.63L226.52,303.74L226.88,302.77L227.6,302.87L227.96,302.24L229.03,303.73L229.39,302.86L230.47,302.37L230.83,299.76L231.55,303.59L231.91,302.68L232.27,302.76L232.99,302.82L233.35,300.58L234.07,303.79L234.43,302.82L234.79,302.33L235.15,300.58L235.51,302.98L235.87,300.58L236.22,300.84L236.58,301.46L236.94,299.08L237.3,301.11L237.66,300.61L238.74,301.07L239.1,302.88L240.18,300.72L240.54,301.29L240.9,301.72L241.26,300.9L241.62,301.57L241.98,301.28L242.34,300.82L243.78,300.6L244.13,301.73L245.21,299.95L245.57,300.13L246.65,301.26L247.01,300.76L248.81,300.71L249.17,301.63L250.25,300.8L250.61,300.8L251.69,301.61L252.04,300.75L253.84,300.86L254.2,301.68L255.28,300.73L255.64,300.73L256.36,300.81L256.72,301.67L257.8,300.76L258.16,300.82L258.88,300.55L259.24,301.69L259.96,299.86L260.31,300.71L261.39,301.19L261.75,301.75L263.55,300.64L263.91,300.53L266.07,300.69L266.43,300.67L266.79,301.58L267.15,300.64L267.51,300.59L271.46,300.53L271.82,301.83L273.62,299.63L273.98,299.65L274.34,300.65L274.7,300.12L275.06,299.54L277.21,299.64L277.57,299.57L279.01,300.95L279.37,300.95L279.73,301.01L280.09,299.72L280.45,299.68L280.81,301.05L281.17,299.68L281.53,300.23L281.89,300.92L282.61,299.74L282.97,300.5L285.12,300.93L285.48,300.34L285.84,300.34L286.2,301.1L287.28,300.2L287.64,299.69L288.72,301L289.08,300.3L290.88,299.79L291.24,299.06L291.96,299.84L292.31,298.98L293.39,298.41L293.75,297.02L295.55,296.47L295.91,298.47L296.99,298.95L297.35,298.2L297.71,297.73L298.07,298.3L298.43,298.45L299.51,299.06L299.87,298.95L301.66,299.13L302.02,297.81L302.74,297.83L303.1,299.13L304.18,299.13L304.54,297.79L305.62,299.13L305.98,298.95L308.85,299.05L309.21,299.05L316.76,299.03L317.12,298.24L321.08,298.31L321.44,299.24L323.24,295.69L323.6,295.69L324.31,296.53L324.67,295.77L325.75,297.8L326.11,295.72L326.47,297.52L326.83,296.73L327.19,296.49L327.55,296.51L327.91,298.7L328.99,295.89L329.35,295.19L330.07,296.47L330.43,297.95L331.15,298.71L331.51,296.92L332.22,296.93L332.58,295.91L333.66,296.87L334.02,296.95L336.18,296.87L336.54,296.95L340.13,296.82L340.49,293.69L340.85,279.6L341.21,283.79L341.57,119.42L341.93,16L342.29,75.27L342.65,228.27L343.37,296.91L343.73,296.82L344.09,296.87L345.89,296.96L346.25,298.77L348.04,298.65L348.4,241.94L348.76,238.35L349.12,298.71L350.56,298.7L350.92,297.23L351.28,297.22L351.64,298.68L352.36,298.7L352.72,294.12L353.08,298.71L353.44,294.12L353.8,294.08L354.16,293.91L354.52,292.51L355.6,293.89L355.96,293.89L356.31,293.89L356.67,295.68L357.75,293.91L358.11,293.88L364.22,293.91L364.58,295.72L365.66,293.89L366.02,293.89L367.46,293.96L367.82,291.22L368.54,289.44L368.9,293.75L369.26,291.1L369.62,295.65L370.7,293.5L371.06,293.54L372.49,293.66L372.85,291.82L373.21,293.66L373.93,293.51L374.29,293.62L374.65,293.62L375.01,292.48L375.37,291.56L375.73,292.77L376.09,293.61L376.45,291.85L384,292L384.36,290.38L385.44,292.15L385.8,292.04L387.96,292.04L388.31,294.68L388.67,294.68L389.03,292.04L390.11,292.04L390.47,294.68L390.83,292.04L391.19,294.82L391.55,294.68L392.63,292.18L392.99,292.18L394.07,292.14L394.43,294.81L394.79,294.81L395.15,290.41L396.22,294.77L396.58,294.82L398.38,293.9L398.74,294.65L401.26,294.05L401.62,294.81L406.29,294.78L406.65,299.38L407.73,294.79L408.09,294.82L408.45,294.79L408.81,299.4L409.89,299.26L410.25,294.67L410.97,299.27L411.33,299.21L411.69,294.62L412.76,299.21L413.12,294.62L415.64,294.65L416,299.29L421.03,299.35L421.39,294.31L421.75,295.42L422.11,294.57L422.47,289.98L422.83,294.13L423.19,289.92L423.55,290.2L424.27,290.42L424.63,295.03L424.99,290.85L425.35,295.42L426.43,290.43L426.79,290.43L427.15,290.44L427.51,295.01L427.87,290.44L428.22,295.03L428.58,293.21L428.94,295.88L429.3,293.18L429.66,295.12L430.02,297.48L430.38,295.72L430.74,295.86L431.82,295.89L432.18,297.66L433.62,293.24L433.98,293.24L434.34,293.23L434.7,295.03L435.06,293.22L435.42,295.89L435.78,293.22L436.13,301.38L436.85,293.21L437.21,296.93L437.93,296.93L438.29,299.62L438.65,299.6L439.01,293.22L439.73,293.22L440.09,299.61L441.53,301.34L441.89,301.33L442.61,294.35L442.97,299.57L443.69,299.57L444.04,301.39L444.76,301.4L445.12,299.68L446.2,301.39L446.56,299.68L447.64,301.44L448,299.67L448.36,299.67L448.72,301.39L451.6,301.38L451.96,299.7L452.31,301.45L452.67,299.68L453.03,299.69L454.11,299.68L454.47,301.46L455.55,299.67L455.91,299.69L456.27,300.38L456.63,299.68L456.99,299.68L457.35,301.45L457.71,299.68L458.07,299.68L458.43,301.45L458.79,299.69L459.15,299.69L461.66,299.56L462.02,299.56L463.46,301.38L463.82,295.03L464.54,302.07L464.9,300.34L465.26,300.35L465.62,302.12L466.7,300.34L467.06,302.12L467.42,300.35L467.78,302.13L468.13,302.12L469.57,302.12L469.93,301.33L474.61,301.36L474.97,302.1L475.33,302.1L475.69,300.38L476.76,302.08L477.12,302.14L478.56,295.1L478.92,302.15L479.64,302.15L480,298.68L480.72,303.31L481.08,301.87L481.44,301.83L481.8,303.36L490.07,303.05L490.43,303.05L507.33,303.43L507.69,302.74L512,302.78" style="vector-effect: non-scaling-stroke; fill: none; stroke: rgb(0, 204, 150); stroke-opacity: 1; stroke-width: 2px; opacity: 1;"/></g><g class="points"/><g class="text"/></g><g class="trace scatter tracee3873e" style="stroke-miterlimit: 2; opacity: 1;"><g class="fills"/><g class="errorbars"/><g class="lines"><path class="js-line" d="M0,295.66L0.72,296.78L1.08,295.66L1.44,297.42L1.8,296.91L2.16,295.86L3.24,297.48L3.6,297.48L4.31,296.91L4.67,296.39L5.75,298.36L6.11,297.49L6.83,297.1L7.19,296.66L7.55,298.29L7.91,297.78L8.27,297.78L9.35,296.86L9.71,297.77L10.43,298.26L10.79,297.74L16.54,297.89L16.9,298.42L19.06,298.4L19.42,295.72L20.49,293.86L20.85,297.19L21.93,293.44L22.29,293.81L23.37,293.8L23.73,297.62L24.81,293.82L25.17,293.79L25.53,293.8L25.89,297.62L26.61,297.62L26.97,293.82L27.33,293.81L27.69,290.84L28.76,294.83L29.12,297.03L30.92,296.9L31.28,296.91L34.16,296.9L34.52,295.33L40.27,295.29L40.63,295.36L41.71,295.35L42.07,294.16L44.22,294.5L44.58,290.87L44.94,290.91L45.3,294.34L48.9,294.47L49.26,293.67L49.62,293.65L49.98,294.45L51.42,294.37L51.78,293.62L52.49,295.99L52.85,294.42L54.29,294.02L55.01,294.78L58.61,294.57L58.97,293.79L59.33,294.54L59.69,290.97L60.04,295L60.4,294.94L60.76,293.66L61.12,294.46L61.48,293.72L61.84,293.78L62.92,295.24L63.28,294.52L64.36,293.77L64.72,294.75L65.44,295.02L65.8,293.89L66.52,293.76L66.88,294.37L67.96,295.84L68.31,295.08L69.39,295.09L69.75,290.5L70.47,295.84L70.83,295.08L71.55,295.09L71.91,296.04L72.27,294.69L72.63,295.02L72.99,295.39L74.07,295.62L74.43,294.76L74.79,294.77L75.15,295.83L76.22,295.19L76.58,294.82L77.66,295.25L78.02,295.25L79.1,294.11L79.46,295.1L80.54,295.23L80.9,295.23L81.26,295.23L81.62,296.18L82.34,295.86L82.7,295.25L83.06,295.25L83.42,296.21L85.21,296.19L85.57,295.26L86.65,296.18L87.01,295.82L92.76,296.23L93.12,296.9L94.2,296.23L94.56,296.24L95.28,296.34L95.64,294.02L96,293.94L96.36,295.56L98.88,296.18L99.24,296.17L99.6,296.82L99.96,296.15L100.31,295.91L101.03,296.15L101.39,295.27L102.11,295.92L102.47,294.57L103.55,294.59L103.91,295.47L104.99,295.5L105.35,294.58L105.71,294.6L106.07,295.51L107.87,295.5L108.22,294.55L109.3,295.5L109.66,295.49L112.9,295.47L113.26,294.58L114.34,295.47L114.7,295.51L115.78,290.51L116.13,290.55L123.33,290.52L123.69,295.47L125.12,295.5L125.48,293.94L130.52,293.94L130.88,293.14L131.24,292.11L131.6,293.86L131.96,293.91L132.31,289.04L132.67,295.41L133.03,293.76L133.39,293.87L134.47,295.41L134.83,295.41L135.19,295.41L135.55,293.87L135.91,293.3L136.27,294.87L137.35,295.44L137.71,292.63L139.15,295.51L139.51,295.59L139.87,295.59L140.22,294.28L140.94,293.94L141.3,295.51L142.74,295.47L143.1,293.87L143.46,293.87L143.82,295.58L144.9,295.44L145.26,293.86L146.7,293.86L147.06,295.48L147.78,295.65L148.13,294.89L149.21,295.66L149.57,295.66L150.65,295.95L151.01,295.89L154.97,296.2L155.33,296.2L156.76,296.7L157.12,295.62L157.48,296.7L157.84,295.62L158.2,295.57L158.56,295.47L158.92,296.19L160,296.1L160.36,301.86L161.08,296.14L161.44,301.74L162.52,300.67L162.88,296.13L163.6,296.16L163.96,301.71L165.39,301.85L165.75,292.31L166.11,293.55L166.47,297.89L167.55,297.88L167.91,299.33L168.27,293.64L168.99,299.15L170.07,299.14L170.43,294.55L170.79,293.75L171.15,294.65L171.51,294.45L171.87,294.45L172.22,299.14L172.94,299.32L173.3,294.72L177.62,294.63L177.98,295.84L178.34,291.24L178.7,293.71L179.06,298.28L180.49,298.39L180.85,293.79L181.21,293.8L181.57,298.39L184.81,298.2L185.17,293.6L186.25,298.19L186.61,298.09L187.69,298.19L188.04,297.65L188.76,298.19L189.12,297.65L190.2,298.16L190.56,298.09L191.64,298.1L192,297.06L193.08,298.08L193.44,298.29L198.47,298.31L198.83,299.22L199.55,299.23L199.91,298.06L201.71,298.07L202.07,299.24L202.79,299.21L203.15,296.57L203.51,296.68L203.87,297.76L205.66,299.07L206.02,299.07L210.34,298.32L210.7,299.14L216.45,299.16L216.81,303.07L217.89,299.12L218.25,299.14L224,299.21L224.36,300.85L224.72,300.84L225.08,296.96L225.8,296.94L226.16,299.17L226.52,299.15L226.88,296.93L227.96,296.94L228.31,295.42L229.39,299.27L229.75,299.24L230.11,299.24L230.47,295.39L231.91,299.28L232.27,299.28L232.63,299.26L232.99,295.44L234.43,301.29L234.79,300.05L236.22,294.46L236.58,294.47L237.66,298.32L238.02,298.32L238.38,298.36L238.74,294.47L239.1,294.47L239.46,296.43L240.18,296.44L240.54,294.46L241.26,294.45L241.62,292.69L242.7,296.53L243.06,296.54L243.42,297.43L243.78,292.62L245.21,296.51L245.57,292.67L247.37,298.06L247.73,296.6L248.09,298.06L248.45,297.92L248.81,294.21L249.17,294.22L249.53,298.07L250.61,298.07L250.97,294.21L251.69,294.21L252.04,298.07L253.48,298.03L253.84,294.17L254.2,294.21L254.56,298.02L255.64,298.07L256,299.8L256.72,295.94L257.08,299.79L259.6,299.79L259.96,300.66L261.03,299.79L261.39,299.79L262.11,295.93L262.47,296.65L263.55,299.8L263.91,299.79L267.51,299.93L267.87,301.68L268.94,299.84L269.3,299.88L272.9,299.94L273.26,299.02L274.34,298.97L274.7,300.8L276.13,300.46L276.49,298.69L276.85,298.72L277.21,300.5L278.29,300.5L278.65,299.03L279.01,299.06L279.37,295.52L280.45,297.3L280.81,297.3L281.17,296.37L281.53,297.51L281.89,297.17L283.69,298.94L284.04,298.83L284.76,298.06L285.12,297.15L286.2,299.02L286.56,299.91L286.92,299.07L287.28,300.26L289.8,300.27L290.16,301.19L290.88,300.26L291.24,301.76L291.6,301.76L291.96,300L293.03,302.96L293.39,301.2L293.75,298.04L294.11,298.81L294.47,298.82L294.83,299.23L295.19,292.78L296.63,301.78L296.99,300.88L297.35,299.78L297.71,301.3L299.15,301.04L299.51,300.12L300.22,301.3L300.58,298.86L301.66,300.99L302.02,300.09L302.38,301.3L302.74,297.22L303.1,297.27L303.46,301.3L304.54,300.99L304.9,301.28L305.98,301.28L306.34,300.41L306.7,298.92L307.06,299.56L307.42,300.29L308.85,300.34L309.21,301.17L310.65,299.49L311.01,299.49L311.37,299.05L311.73,301.18L312.09,301.21L312.45,300.41L313.53,300.41L313.89,297.22L314.61,298.01L314.97,297.23L315.69,296.32L316.04,297.24L317.12,300.44L317.48,300.45L318.56,299.66L318.92,299.6L321.08,299.64L321.44,300.38L324.67,300.28L325.03,300.24L326.47,300.2L326.83,300.97L327.55,300.47L327.91,300.44L331.15,300.57L331.51,298.74L334.02,298.71L334.38,298.9L335.46,298.66L335.82,298.66L337.62,298.71L337.98,298.42L338.7,298.42L339.06,299.21L342.29,299.22L342.65,298.46L343.73,298.46L344.09,299.23L345.17,299.23L345.53,298.47L347.33,301.05L347.69,299.15L348.76,299.23L349.12,295.35L349.84,300.57L350.2,296.75L351.64,301.07L352,301.09L352.36,301.08L352.72,299.2L353.8,301.07L354.16,301.07L357.75,301.06L358.11,301.69L359.91,301.72L360.27,300.93L361.71,301.72L362.07,301.74L362.43,300.98L362.79,302.12L363.15,302.12L363.51,300.96L365.3,300.95L365.66,302.09L366.02,302.1L366.38,300.95L367.1,300.96L367.46,301.73L368.54,302.12L368.9,301.98L369.98,299.48L370.34,299.65L371.42,301.77L371.78,302.49L372.49,301.36L372.85,301.75L374.29,302.49L374.65,301.37L375.01,301.37L375.37,302.52L376.09,302.53L376.45,298.78L377.53,297.78L377.89,298.8L379.33,298.79L379.69,297.79L380.04,297.78L380.4,299.07L382.2,298.94L382.56,297.79L383.64,299.25L384,299.23L386.52,299.28L386.88,297.12L387.96,299.25L388.31,299.47L389.39,299.47L389.75,299.48L390.83,299.49L391.19,302.87L391.91,294.84L392.27,299.47L392.99,299.47L393.35,296.8L393.71,300.22L394.07,299.48L394.43,296.85L399.1,296.7L399.46,293.31L400.54,296.85L400.9,296.85L414.2,296.72L414.56,295.38L415.64,296.71L416,296.71L417.44,296.78L417.8,300.49L418.88,296.78L419.24,296.78L419.6,296.77L419.96,295.75L420.31,295.75L420.67,296.78L422.11,296.18L422.47,300.52L422.83,300.44L423.19,296.72L424.27,296.7L424.63,300.46L426.79,300.48L427.15,300.38L430.74,300.19L431.1,296.48L431.46,296.48L431.82,300.2L433.98,300.36L434.34,296.49L435.42,300.35L435.78,296.63L436.85,296.64L437.21,300.36L437.57,300.34L437.93,296.52L439.01,296.61L439.37,300.33L440.45,295.59L440.81,295.59L446.92,295.59L447.28,285.51L448.36,285.5L448.72,288.07L449.08,285.5L449.44,293.08L450.52,295.5L450.88,295.51L451.96,295.63L452.31,293.52L452.67,294.26L453.03,296.73L454.11,295.97L454.47,296L454.83,295.99L455.19,294.09L455.55,296.73L456.27,293.38L456.99,293.36L457.35,296.03L458.07,296.81L458.43,296.01L459.87,296.01L460.22,296.75L460.58,296.81L460.94,295.98L463.1,296.81L463.46,295.97L465.26,296.75L465.62,296.81L466.7,296.02L467.06,296.75L468.13,296.82L468.49,296L469.93,295.26L470.29,296.03L470.65,296.04L471.01,295.2L472.09,295.3L472.45,296.05L472.81,296.08L473.17,296.89L474.25,295.23L474.61,295.24L475.69,296.81L476.04,295.17L477.12,295.27L477.48,291.47L477.84,296.86L478.56,296.75L478.92,296.75L480.72,296.95L481.08,297.53L481.44,297.52L481.8,295.39L482.16,295.44L482.52,298.9L483.6,295.46L483.96,297.25L484.31,297.54L484.67,295.44L485.03,295.46L485.39,296.95L486.11,297.55L486.47,302.3L486.83,302.3L487.19,297.55L488.27,297.03L488.63,302.29L489.71,302.32L490.07,303.74L490.79,303.81L491.15,302.25L492.22,302.25L492.58,303.74L493.3,303.83L493.66,302.16L494.02,302.14L494.38,303.73L506.97,303.65L507.33,302.89L512,302.93" style="vector-effect: non-scaling-stroke; fill: none; stroke: rgb(171, 99, 250); stroke-opacity: 1; stroke-width: 2px; opacity: 1;"/></g><g class="points"/><g class="text"/></g><g class="trace scatter tracea62767" style="stroke-miterlimit: 2; opacity: 1;"><g class="fills"/><g class="errorbars"/><g class="lines"><path class="js-line" d="M0,303.02L1.08,302.4L1.44,302.41L2.16,302.95L2.52,302.95L5.39,303.03L5.75,302.98L6.47,302.38L6.83,303.1L10.07,303L10.43,303.18L11.51,302.45L11.87,303.1L14.38,302.65L14.74,303.09L15.46,303.12L15.82,301.32L16.9,303.13L17.26,303.11L27.33,302.81L27.69,303.17L28.76,302.23L29.12,302.33L31.28,302.69L31.64,302.69L32.72,302.68L33.08,295.24L34.52,302.7L34.88,302.68L37.39,302.6L37.75,301.11L41.71,300.97L42.07,299.33L44.58,299.56L44.94,300.32L45.66,300.32L46.02,299.39L46.38,299.41L46.74,300.69L47.46,300.01L47.82,300.84L48.9,300.78L49.26,298L49.98,300.84L50.34,300.71L50.7,300.71L56.81,300.5L57.17,302.07L57.89,302.07L58.25,300.5L59.33,300.5L59.69,302.05L60.04,302.05L60.4,300.97L60.76,300.97L61.12,301.98L61.84,299.32L62.2,300.88L63.28,300.97L63.64,299.4L64.72,300.99L65.08,300.99L65.44,300.99L65.8,302.02L76.94,302.47L77.3,301.84L78.74,302.51L79.1,302.51L93.12,302.64L93.48,303.84L94.56,302.5L94.92,302.5L128.36,302.26L128.72,303.6L129.8,302.41L130.16,302.32L136.99,302.1L137.35,302.24L145.98,301.91L146.34,302.46L150.29,301.95L150.65,303.49L153.17,302.86L153.53,302.82L154.25,302.33L154.61,302.26L162.88,302.16L163.24,302.12L163.6,301.76L163.96,302.16L164.31,302.16L167.19,302.07L167.55,301.51L168.63,302.7L168.99,302.17L170.07,302.25L170.43,297.63L170.79,297.27L171.15,298.11L172.22,297.57L172.58,297.57L173.66,297.77L174.02,302.22L174.74,302.91L175.1,302.24L177.62,302.29L177.98,301.18L178.34,303.57L178.7,302.84L179.06,302.91L180.13,301.19L180.49,303.72L181.21,303.37L181.57,302.56L183.01,303.15L183.37,303.07L184.45,303.15L184.81,302.5L186.25,303.59L186.61,303.19L188.04,303.2L188.4,303.6L189.84,303.2L190.2,303.76L191.64,303.77L192,302.58L194.16,302.77L194.52,301.75L199.55,301.78L199.91,300.61L200.63,300.47L200.99,302.07L204.94,301.66L205.3,300.76L206.38,301.94L206.74,301.56L207.46,300.75L207.82,301.51L209.26,301.47L209.62,300.79L210.7,300.87L211.06,302.12L212.13,300.79L212.49,301.36L213.57,300.8L213.93,301.4L214.29,300.92L214.65,299.07L215.37,299.07L215.73,301.44L218.25,301.42L218.61,298.37L218.97,298.17L219.33,301.48L220.04,301.08L220.4,298.37L220.76,298.36L221.12,299.12L222.56,298.31L222.92,298.31L223.28,298.38L223.64,302.11L224,302.1L224.36,303.57L224.72,303.66L225.08,302.09L229.39,302.2L229.75,301.49L230.47,301.57L230.83,300.1L231.91,301.17L232.27,301.56L235.51,301.63L235.87,299.82L244.85,300.06L245.21,299.73L245.93,300.07L246.29,299.67L248.45,300.08L248.81,300.24L249.89,299.73L250.25,299.75L251.33,299.65L251.69,300.24L252.76,299.75L253.12,299.74L253.84,300.25L254.2,301.62L255.28,299.78L255.64,301.05L256,301.9L256.36,301.66L256.72,301.65L257.08,302.05L257.44,300.67L257.8,302.04L258.16,300.66L258.52,300.5L259.6,301.9L259.96,299.99L261.03,301.88L261.39,301.48L264.27,301.48L264.63,298.46L272.9,298.42L273.26,297.5L275.06,297.31L275.42,296.74L278.29,296.98L278.65,296.45L280.09,297.35L280.45,297.33L281.89,297.1L282.25,300.87L286.2,300.87L286.56,301.78L286.92,300.87L287.28,297.43L288,297.43L288.36,300.88L288.72,298.33L289.08,301.77L289.44,300.86L289.8,297.42L291.6,296.98L291.96,296.06L293.39,296.09L293.75,293.3L294.11,293.25L294.47,294.11L294.83,293.9L295.19,295.14L297.71,295.34L298.07,295.34L311.01,295.36L311.37,298.8L316.4,298.73L316.76,299.65L317.12,298.73L317.48,295.37L318.2,295.37L318.56,296.29L319.64,296.21L320,295.45L321.08,296.37L321.44,293.73L326.11,293.76L326.47,297.2L327.55,297.18L327.91,288.89L328.63,297.18L328.99,297.11L329.35,297.11L331.15,297.14L331.51,295.29L332.94,294.94L333.3,295.03L336.9,294.75L337.26,295.07L338.34,294.78L338.7,294.22L339.06,294.54L339.42,296.46L339.78,296.47L340.13,294.63L340.49,294.63L340.85,293.64L341.93,296.47L342.29,296.39L342.65,292.73L343.01,296.57L343.37,296.46L343.73,294.58L344.09,296.46L344.45,296.45L346.25,296.52L346.61,298.41L346.97,296.63L347.33,298.08L347.69,298.18L348.04,298.1L348.4,296.32L348.76,296.31L349.12,285.82L349.84,293.01L350.2,291.6L351.28,295.04L351.64,295.02L352,295.02L352.36,298.26L353.44,296.81L353.8,296.37L354.88,296.29L355.24,294.85L355.96,298.24L356.31,296.95L358.11,296.55L358.47,297.97L359.19,297.99L359.55,296.23L359.91,296.23L360.27,297.99L360.99,296.23L361.35,298L361.71,298.04L362.07,296.28L362.43,296.22L362.79,298.03L364.22,297.46L364.58,296.26L364.94,296.26L365.3,298.01L366.74,297.47L367.1,296.27L367.82,298.42L368.18,297.54L369.26,298.21L369.62,297.77L375.01,297.72L375.37,293.15L376.09,293.15L376.45,289.42L376.81,284.89L377.17,293.9L378.25,289.26L378.61,289.65L379.33,289.65L379.69,293.89L380.76,289.24L381.12,289.24L381.84,288.81L382.2,288.79L384,289.19L384.36,293.78L385.08,288.82L385.44,289.26L385.8,288.91L386.52,288.83L386.88,291.29L387.24,293.41L387.6,288.81L387.96,288.93L388.31,293.44L389.39,293.89L389.75,293.88L397.66,294.28L398.02,294.67L399.82,294.45L400.18,294.45L403.78,294.6L404.13,294.42L404.85,292.8L405.21,292.9L405.57,293.05L407.37,293.05L407.73,291.31L408.81,293.05L409.17,293.05L413.48,292.93L413.84,293.11L414.56,293.27L414.92,299.84L415.28,294.73L416,294.86L416.36,294.87L416.72,293.33L417.08,298.6L417.44,298.55L417.8,294.74L418.88,297.51L419.24,294.82L419.6,294.84L419.96,298.43L420.31,294.39L420.67,294.79L421.03,294.77L421.75,294.77L422.11,291.59L422.47,290.33L422.83,292.17L424.27,297.48L424.63,297.64L425.35,295.01L425.71,298.81L426.79,298.62L427.15,293.62L427.87,290.87L428.22,291.9L428.58,293.61L428.94,291.88L429.3,292.49L429.66,293.67L430.02,292.49L430.38,291.93L431.1,290.66L431.46,293.65L431.82,293.65L432.18,297.35L432.54,297.33L432.9,291.84L433.62,295.58L433.98,291.88L435.06,297.6L435.42,295.84L435.78,293.88L436.13,297.6L436.49,297.6L436.85,296.31L437.57,293.17L437.93,293.37L438.29,293.37L438.65,293.37L439.01,300.32L440.09,293.37L440.45,294.59L440.81,301.55L442.25,302.23L442.61,300.52L442.97,299.77L443.33,301.54L443.69,299.8L444.04,301.54L444.4,302.28L444.76,302.25L445.12,300.52L446.2,302.28L446.56,301.55L446.92,301.54L447.28,292.2L448.36,303.43L448.72,303.37L449.08,302.27L449.8,302.26L450.16,300.49L450.88,302.26L451.24,300.41L452.31,303.44L452.67,301.72L453.03,301.66L453.39,303.49L454.83,303.41L455.19,301.64L455.91,301.64L456.27,301.69L456.63,301.64L456.99,303.46L458.07,301.74L458.43,303.51L458.79,303.51L459.15,301.74L459.87,301.9L460.22,300.13L462.38,299.72L462.74,299.4L464.54,299.73L464.9,301.49L465.62,299.73L465.98,301.34L466.34,299.73L466.7,301.34L467.06,300.93L467.42,301.53L467.78,299.43L468.13,299.42L468.49,301.52L468.85,301.51L469.21,299.75L469.57,301.53L469.93,300.8L470.29,299.01L471.37,299.05L471.73,299.07L472.09,298.56L472.45,300.15L472.81,300.57L473.17,299.82L473.53,300.17L473.89,298.23L474.97,298.96L475.33,301.08L476.04,299.31L476.4,301.42L476.76,303.21L477.12,301.44L477.48,298.66L478.56,301.6L478.92,301.72L479.64,301.72L480,302.87L480.36,302.8L480.72,299.55L481.08,301.64L481.44,299.86L481.8,299.86L482.52,303.1L482.88,301.02L483.24,300.77L483.6,302.77L485.03,302.79L485.39,300.75L485.75,300.77L486.11,302.87L486.47,301.1L486.83,302.87L487.19,301.84L487.91,300.82L488.27,302.93L492.94,302.98L493.3,302.66L494.74,302.97L495.1,302.85L495.46,302.52L495.82,300.79L496.9,302.97L497.26,302.97L500.13,302.96L500.49,301.19L501.57,302.96L501.93,302.96L502.65,302.98L503.01,301.11L503.37,301.18L503.73,303.26L504.81,301.21L505.17,302.94L505.89,300.85L506.25,301.18L506.61,302.96L507.33,301.08L507.69,302.19L508.4,300.02L508.76,300.31L509.12,302.08L509.84,300.44L510.2,300.73L512,300.82" style="vector-effect: non-scaling-stroke; fill: none; stroke: rgb(255, 161, 90); stroke-opacity: 1; stroke-width: 2px; opacity: 1;"/></g><g class="points"/><g class="text"/></g><g class="trace scatter trace46286b" style="stroke-miterlimit: 2; opacity: 1;"><g class="fills"/><g class="errorbars"/><g class="lines"><path class="js-line" d="M0,299.07L0.36,302.83L0.72,302.17L1.08,302.21L4.31,302.22L4.67,303.08L8.63,302.9L8.99,302.1L10.07,302.96L10.43,302.72L20.13,303.2L20.49,297.85L21.57,302.66L21.93,299.02L23.01,303.23L23.37,302.56L24.45,303.23L24.81,303.22L28.04,302.74L28.4,300.12L28.76,299.57L29.12,300.45L29.48,298.49L29.84,302.54L31.64,302.34L32,302.6L33.44,302.23L33.8,301.67L35.6,302.61L35.96,302.24L40.63,302.2L40.99,300.63L41.71,302.2L42.07,301.22L42.79,302.59L43.15,301.03L44.22,299.68L44.58,300.98L45.3,302.6L45.66,300.13L46.74,299.68L47.1,301.71L47.46,301.34L47.82,301.71L48.18,299.75L48.54,299.77L48.9,299.02L50.34,301.71L50.7,299.77L51.78,298.95L52.13,301.71L56.09,301.36L56.45,300.99L57.89,301.36L58.25,301.36L58.97,300.92L59.33,301.48L59.69,297.49L60.04,301.47L60.4,301.47L63.64,301.01L64,300.34L64.36,300.34L64.72,301.43L68.67,301.31L69.03,300.64L69.39,301.39L69.75,297.45L70.47,302.14L70.83,300.62L72.27,302.15L72.63,302.14L73.71,301.42L74.07,301.37L74.43,301.37L74.79,302.15L83.06,302.17L83.42,297.08L84.49,302.15L84.85,302.16L96.72,302.17L97.08,299.26L98.16,302.02L98.52,302L99.96,302L100.31,300.22L100.67,300.23L101.03,302L107.15,301.98L107.51,302.46L108.22,302.47L108.58,301.91L110.74,302.51L111.1,302.57L111.46,301.13L111.82,301.9L112.18,301.92L113.26,302.52L113.62,302.57L113.98,301.15L114.34,302.5L114.7,302.48L116.13,301.95L116.49,300.61L118.29,302.51L118.65,302.51L119.73,301.94L120.09,302.59L124.04,302.5L124.4,302.65L128,302.38L128.36,301.29L128.72,299.77L129.08,302.27L130.52,302.41L130.88,301.64L131.24,299.7L131.6,301.88L134.11,302.33L134.47,301.77L134.83,301.71L135.19,302.42L136.63,302.16L136.99,301.7L140.94,302.46L141.3,301.87L141.66,302.36L142.02,301.95L142.38,301.95L143.46,302.51L143.82,302.43L144.9,301.95L145.26,302.03L145.98,302.6L146.34,302.02L147.42,301.86L147.78,302.59L149.93,302.3L150.29,302.85L152.45,302.58L152.81,299.76L153.53,303.21L153.89,302.56L154.25,302.49L156.4,302.55L156.76,302.39L158.92,303.02L159.28,302.37L160.36,302.54L160.72,300.21L162.16,299.5L162.52,302.94L163.6,302.33L163.96,302.33L168.99,302.34L169.35,302.16L170.07,302.38L170.43,296.9L170.79,297.26L171.15,296.47L171.51,296.51L171.87,297.7L175.46,297.74L175.82,297.68L176.18,297.49L176.54,302.37L177.62,302.39L177.98,301.27L178.7,303.76L179.06,303.64L179.42,303.12L180.13,302.56L180.49,303.23L182.65,303.09L183.01,298.97L183.73,299.53L184.09,298.97L184.81,298.97L185.17,302.59L188.04,303.09L188.4,303.64L191.64,303.63L192,301.86L193.8,303.68L194.16,302.96L194.52,302.4L194.88,302.96L195.24,302.96L196.31,303.5L196.67,302.79L198.83,303.42L199.19,303L199.91,302.5L200.27,301.23L200.63,301.23L200.99,302.1L201.35,302.92L201.71,301.79L202.07,302.89L202.43,302.41L202.79,302.37L203.87,303.42L204.22,302.47L204.58,301.79L204.94,302.55L205.3,302.14L206.38,303.42L206.74,302.23L207.1,301.69L207.46,302.19L207.82,302.26L208.18,302.11L208.54,302.94L209.62,301.7L209.98,302.19L211.78,302.08L212.13,301.51L213.57,302.85L213.93,302.58L214.65,301.54L215.01,302.03L215.37,302.03L216.45,302.62L216.81,302.36L217.89,302.28L218.25,302.25L218.61,301.97L218.97,302.66L220.4,300.36L220.76,302.25L221.12,302.69L221.48,302.06L221.84,302.09L222.2,301.5L222.56,302.04L222.92,302.09L223.64,303.43L224,302.69L224.72,301.56L225.08,302.13L225.44,302.09L226.52,303.49L226.88,302.15L227.24,301.66L227.6,302.15L227.96,302.15L229.03,303.49L229.39,302.16L229.75,301.63L230.11,302.13L230.47,299.92L231.55,303.35L231.91,302L232.99,299.91L233.35,302.14L234.07,303.51L234.43,302.7L235.51,299.45L235.87,299.57L236.22,300.11L237.3,298.27L237.66,298.78L238.02,298.78L239.1,301.39L239.46,298.74L240.54,301.41L240.9,301.43L242.34,301.26L242.7,300.22L243.06,299.65L243.42,300.97L244.49,300.97L244.85,299.65L245.21,299.65L245.57,300.9L246.29,300.95L246.65,301.56L247.01,301.47L247.37,300.24L248.09,300.25L248.45,301.49L249.53,301.45L249.89,300.16L250.61,301.49L250.97,301.1L254.92,301.51L255.28,298.57L256.36,301.5L256.72,301.21L258.16,301.5L258.52,301.5L259.6,300.67L259.96,292.98L260.31,301.9L261.03,301.48L261.39,301.85L262.11,301.59L262.47,297.03L263.55,301.5L263.91,301.5L266.79,301.54L267.15,300.76L267.87,301.47L268.22,300.75L269.3,301.49L269.66,301.51L272.54,301.4L272.9,301.41L273.98,300.45L274.34,300.56L274.7,300.6L275.06,299.24L275.42,299.35L275.78,298.59L276.85,300.29L277.21,299.05L278.29,299.05L278.65,300.52L279.37,300.52L279.73,299.36L280.81,299.27L281.17,300.57L281.89,300.57L282.25,299.32L282.61,299.32L282.97,300.56L283.33,299.32L283.69,300.56L284.04,300.65L284.4,300.57L284.76,299.32L285.84,299.32L286.2,300.53L286.92,300.56L287.28,299.29L288.36,299.32L288.72,300.55L289.44,300.55L289.8,299.3L291.24,299.3L291.6,301.43L293.03,299.3L293.39,299.29L294.11,295.16L294.47,297.74L294.83,293.84L295.19,295.21L295.55,296.49L296.99,299.87L297.35,298.5L298.43,298.5L298.79,299.81L301.66,299.69L302.02,299.69L302.38,298.39L302.74,299.64L303.1,299.63L313.17,299.81L313.53,299.81L317.12,299.89L317.48,299.82L318.56,299.04L318.92,299.07L320,295.87L320.36,296.63L321.08,300.66L321.44,294.11L323.6,294.1L323.96,295.03L325.03,295.02L325.39,294.11L325.75,294.11L326.11,295.03L331.15,295L331.51,293.13L335.1,293.08L335.46,291.89L336.18,291.86L336.54,293.07L337.62,293.13L337.98,291.83L338.7,291.89L339.06,293.1L339.78,293.09L340.13,291.46L341.21,291.44L341.57,293.14L342.29,294.99L342.65,291.46L343.01,293.33L343.37,291.46L343.73,290.22L344.09,290.59L344.45,294.13L344.81,295L345.17,293.32L345.53,290.54L345.89,290.62L346.25,292.93L347.33,295.56L347.69,294.98L348.4,292.06L348.76,293.31L349.84,291.82L350.2,291.83L352.72,291.8L353.08,290.57L354.16,291.75L354.52,291.76L354.88,293.24L355.24,291.75L355.6,291.97L356.31,291.98L356.67,293.24L358.11,293.11L358.47,291.89L359.91,294.97L360.27,293.28L363.51,293.29L363.87,292.04L364.94,294.98L365.3,293.29L366.02,293.74L366.38,292.05L367.46,294.84L367.82,293.15L368.18,293.16L368.54,291.91L369.98,294.85L370.34,293.02L371.78,293.16L372.13,294.86L372.49,294.94L372.85,293.16L373.93,293.16L374.29,289.58L375.01,295.4L375.37,293.13L376.09,293.02L376.45,289.3L377.53,291.64L377.89,291.08L378.61,289.39L379.33,292.85L379.69,293.57L380.04,290.12L381.12,289.4L381.48,289.4L382.56,293.6L382.92,289.54L383.64,289.54L384,291.23L385.44,291.23L385.8,291.23L386.88,291.27L387.24,293.17L387.6,293.12L387.96,291.23L389.03,291.23L389.39,293.09L389.75,293.56L390.11,292.87L390.47,291.27L391.19,294.54L391.55,291.24L392.99,291.2L393.35,292.86L394.43,291.23L394.79,293.01L395.15,292.63L395.51,290.34L395.87,291.23L396.22,290.34L396.58,290.34L396.94,291.07L397.3,290.28L397.66,290.23L399.1,291.22L399.46,290.46L399.82,289.59L400.18,291.36L401.26,290.47L401.62,290.46L402.34,293.08L402.7,291.22L403.06,292.12L403.42,290.3L405.57,293.85L405.93,289.53L407.37,293.03L407.73,291.26L408.45,293.81L408.81,292.13L409.53,292.86L409.89,291.2L410.61,293.33L410.97,291.65L412.04,295.54L412.4,292.91L412.76,292.8L413.12,295.03L414.2,291.57L414.56,291.28L414.92,294.42L415.28,294.15L415.64,293.49L416.72,293.85L417.08,295.58L417.44,296.2L417.8,293.57L418.88,298.39L419.24,295.27L419.6,295.63L419.96,293.56L420.31,293.56L420.67,295.83L421.03,295.13L421.39,298.31L421.75,291.41L422.11,294.53L422.47,294.53L422.83,294.32L423.19,292.48L424.27,293.11L424.63,294.96L424.99,294.98L425.35,293.21L426.79,293.19L427.15,294.91L427.87,294.97L428.22,293.15L430.74,293.05L431.1,291.51L431.82,291.43L432.18,293.24L432.9,295.02L433.26,293.21L434.34,293.2L434.7,295.08L435.42,295.47L435.78,294.98L436.13,295.05L436.49,293.24L436.85,293.28L437.21,295.45L437.93,299.19L438.29,293.2L438.65,293.2L439.01,291.59L439.73,293.24L440.09,299.13L440.45,299.1L440.81,295.36L442.25,298.72L442.61,299.11L442.97,299.05L443.33,294.92L444.04,293.22L444.4,296.93L445.48,298.8L445.84,298.78L446.2,298.7L446.56,297.01L446.92,297.02L447.28,288.63L447.64,289.04L448,299.06L448.72,298.67L449.08,296.93L450.16,298.79L450.52,298.81L450.88,296.93L451.24,298.62L451.6,298.62L451.96,296.85L452.31,298.64L452.67,298.81L453.03,299.21L453.39,298.71L453.75,298.69L455.91,298.75L456.27,296.89L456.63,296.89L456.99,298.66L458.79,298.53L459.15,296.76L459.51,296.76L459.87,298.64L460.58,298.64L460.94,296.77L462.02,296.78L462.38,298.62L463.1,298.49L463.46,296.77L464.54,296.77L464.9,298.62L465.62,299.23L465.98,298.5L466.7,296.2L467.06,296.77L467.42,298.61L468.13,299.26L468.49,296.77L469.57,296.77L469.93,297.81L470.65,298.49L471.01,296.06L472.09,296.06L472.45,297.84L473.17,297.9L473.53,296.06L474.61,296.03L474.97,297.87L476.04,301.21L476.4,298.53L477.12,296.02L477.48,297.56L478.2,302.1L478.56,302.03L478.92,302.11L479.64,301.27L480,302.03L480.36,299.31L480.72,302.01L481.08,301.22L481.44,301.24L481.8,299.47L482.88,301.94L483.24,302.05L484.31,301.25L484.67,301.28L485.75,302.01L486.11,301.29L487.19,301.28L487.55,302.1L488.27,302.1L488.63,301.29L489.35,302.01L489.71,301.29L490.79,301.99L491.15,302.01L491.51,301.27L491.87,302.02L492.22,302.02L493.3,301.96L493.66,301.28L494.74,302.02L495.1,302.02L496.9,301.29L497.26,302.02L498.34,301.97L498.7,301.27L500.49,301.99L500.85,302.08L503.37,302.01L503.73,302.13L505.53,302.19L505.89,301.31L506.61,302.15L506.97,300.41L508.04,301.41L508.4,301.42L508.76,301.43L509.12,300.67L509.48,300.68L509.84,298.91L510.92,301.39L511.28,301.4L511.64,299.63L512,301.4" style="vector-effect: non-scaling-stroke; fill: none; stroke: rgb(25, 211, 243); stroke-opacity: 1; stroke-width: 2px; opacity: 1;"/></g><g class="points"/><g class="text"/></g><g class="trace scatter traced7748c" style="stroke-miterlimit: 2; opacity: 1;"><g class="fills"/><g class="errorbars"/><g class="lines"><path class="js-line" d="M0,301.94L1.08,301.21L1.44,301.23L2.88,301.16L3.24,302.44L4.31,301.17L4.67,301.23L5.39,301.18L5.75,302.44L6.83,301.21L7.19,301.27L7.55,301.22L7.91,302.5L8.63,302.51L8.99,301.27L11.87,301.23L12.22,302.52L21.57,302.43L21.93,298.24L23.01,302.43L23.37,302.06L28.04,301.61L28.4,299.4L29.12,301.63L29.48,301.43L29.84,301.43L34.16,301.48L34.52,296.84L34.88,301.61L35.6,301.46L35.96,301.47L37.75,301.6L38.11,299.89L39.19,299.77L39.55,301.45L39.91,301.45L40.27,299.91L41.71,299.88L42.07,298.51L42.79,300.02L43.15,299.91L43.51,299.86L45.66,299.99L46.02,299.13L46.74,299.07L47.1,300.69L47.46,300.71L47.82,299.84L48.9,299.09L49.26,282.92L50.34,299.74L50.7,296.01L51.06,296L51.42,299.09L51.78,296.66L52.13,299.1L52.49,299.23L54.29,299.11L55.01,301.25L55.73,298.75L56.09,298.87L56.45,300.32L56.81,298.88L57.17,301.1L57.89,301.03L58.25,300.31L58.61,301.01L58.97,300.44L59.33,300.45L60.04,301.05L60.4,299.33L61.12,299.92L61.48,299.35L62.92,300.66L63.28,300.69L64.36,299.97L64.72,300.62L66.88,301L67.24,301.72L67.6,301.73L67.96,300.67L68.67,301.02L69.03,299.96L70.11,301.72L70.47,300.63L71.55,301.75L71.91,301.72L73.71,301.71L74.07,300.67L75.15,301.72L75.51,301.72L76.22,301.75L76.58,300.63L78.74,300.66L79.1,301.14L79.46,300.69L79.82,302.21L83.42,302.27L83.78,302.29L102.47,301.8L102.83,301.93L104.27,302.06L104.63,302.09L106.07,302.07L106.43,300.73L107.51,302.17L107.87,302.13L108.58,302.13L108.94,300.81L109.3,302.17L109.66,301.87L110.02,301.88L111.1,302.16L111.46,300.64L112.54,302.11L112.9,302.06L113.62,302.05L113.98,300.8L115.06,301.99L115.42,301.86L117.93,301.96L118.29,301.8L128.36,302.32L128.72,303.76L129.8,301.91L130.16,301.91L130.88,301.34L131.24,301.12L131.96,302.18L132.31,301.89L132.67,301.82L133.03,302.47L133.39,301.89L133.75,301.6L136.27,302.18L136.63,302.05L138.43,302.15L138.79,301.88L143.46,302.32L143.82,302.27L144.54,301.71L144.9,301.02L145.98,302.27L146.34,302.02L148.13,302.55L148.49,302.6L149.57,301.99L149.93,302.93L152.09,303.18L152.45,300.37L155.33,300.36L155.69,303.2L156.04,302.93L156.4,300.16L157.12,299.78L157.48,299.79L157.84,300.36L158.2,303.17L158.56,303.17L158.92,300.26L159.28,302.88L159.64,302.51L160,302.23L161.44,302.34L161.8,302.21L164.67,302.2L165.03,299.12L165.75,302.87L166.11,299.61L166.47,295.66L166.83,299.06L167.19,299.04L167.55,299.05L167.91,302.14L168.63,302.14L168.99,299.61L169.71,299.13L170.07,295.8L170.43,291.27L170.79,297.48L171.87,291.02L172.22,291.35L172.58,291.64L173.3,295.16L173.66,290.98L175.82,291.09L176.18,295.78L177.62,295.13L177.98,293.19L178.7,295.76L179.06,295.67L179.42,294.02L179.78,293.46L180.13,294.06L180.49,293.99L181.93,293.44L182.29,293.34L182.65,293.38L183.01,297.59L184.09,293.42L184.45,293.42L185.89,293.98L186.25,295.67L187.33,293.37L187.69,293.37L188.4,298.87L188.76,298.79L189.12,295.7L189.84,295.77L190.2,302.97L191.28,298.81L191.64,295.7L192.36,301.87L192.72,297.75L193.8,302.95L194.16,302.77L194.88,302.95L195.24,299.85L195.96,302.72L196.31,299.63L196.67,295.64L197.03,303.04L197.75,299.87L198.11,302.97L198.83,302.98L199.19,299.86L199.55,295.68L199.91,302.96L200.63,301.77L200.99,302.86L201.35,302.86L201.71,299.81L202.43,302.83L202.79,300.59L203.51,302.94L203.87,302.87L204.22,302.97L204.94,302.33L205.3,302.08L206.02,302.99L206.38,302.72L206.74,302.74L207.82,302.23L208.18,302.92L209.62,302.75L209.98,302.75L214.29,302.79L214.65,300.99L215.01,300.99L215.37,302.69L217.17,302.68L217.53,302.68L219.69,302.59L220.04,300.84L220.4,300.35L220.76,300.84L221.12,297.48L221.84,302.65L222.2,300.92L222.56,300.9L222.92,300.92L223.28,302.69L223.64,302.78L224,300.98L225.08,302.85L225.44,302.81L225.8,303.57L226.16,302.77L226.52,302.69L227.6,302.83L227.96,302.29L229.03,302.86L229.39,302.7L229.75,300.5L230.11,302.83L230.47,302.83L231.55,302.76L231.91,302.76L232.99,302.9L233.35,301.82L233.71,301.14L234.07,302.83L234.43,303.51L234.79,301.06L235.15,301.8L235.51,301.06L235.87,301.14L237.66,301.16L238.02,301.92L239.46,301.92L239.82,301.91L241.26,301.93L241.62,301.93L243.06,301.41L243.42,300.94L243.78,301.51L244.13,300.94L244.49,300.77L247.37,301.6L247.73,301.6L255.64,301.96L256,302.16L259.6,302.06L259.96,299.84L261.03,302.02L261.39,301.84L267.15,301.86L267.51,301.25L272.9,301.2L273.26,300.28L275.78,300.19L276.13,299.88L276.49,300.64L276.85,300.45L277.21,300.28L279.37,300.88L279.73,300.88L280.81,300.5L281.17,300.32L282.25,300.88L282.61,300.51L283.33,300.51L283.69,301.07L290.88,301.07L291.24,299.87L293.39,299.23L293.75,297.06L295.91,297.03L296.27,299.06L318.56,298.88L318.92,300.16L320.36,300.24L320.72,300.23L321.08,299.67L321.44,301.15L322.16,301.15L322.52,300.24L323.6,297.04L323.96,298.55L331.15,298.59L331.51,296.72L335.46,296.2L335.82,296.2L339.06,296.17L339.42,296.74L345.89,296.76L346.25,298.55L347.33,298.59L347.69,298.62L349.48,298.59L349.84,296.93L350.56,298.54L350.92,296.85L352,298.6L352.36,298.61L353.08,293.95L353.44,294.02L353.8,294.02L354.16,298.55L354.52,293.98L354.88,293.98L364.58,294.01L364.94,295.79L366.02,294.02L366.38,294.01L376.09,293.86L376.45,290.14L378.97,290.26L379.33,292.17L380.4,290.26L380.76,290.26L382.2,290.41L382.56,291.97L383.64,290.39L384,290.39L388.67,290.37L389.03,292.13L390.11,289.51L390.47,291.28L390.83,292.15L391.19,295.88L392.27,289.51L392.63,289.51L393.35,291.26L393.71,294.82L394.79,291.27L395.15,291.27L396.22,292.14L396.58,290.37L398.02,292.15L398.38,292.13L398.74,289.49L399.1,291.27L399.46,290.51L400.54,290.96L400.9,289.6L401.26,289.2L401.62,290.36L402.34,289.08L402.7,290.66L403.06,291.72L403.42,289.96L404.13,289.96L404.49,290.84L405.57,291.53L405.93,289.95L407.01,291.68L407.37,289.04L407.73,289.04L408.09,291.69L408.45,289.92L408.81,294.51L409.17,296.27L409.53,296.19L409.89,295.31L410.25,290.73L410.61,291.61L410.97,291.61L411.33,289.79L411.69,294.38L412.04,296.16L412.4,293.5L412.76,295.16L413.12,295.02L413.48,290.48L414.2,294.19L414.56,290.7L414.92,295.34L415.28,290.75L415.64,294.26L416,294.24L416.36,297.98L417.08,298.04L417.44,299.12L417.8,299.12L418.16,298.02L419.24,298.02L419.6,301.75L421.03,294.23L421.39,294.23L421.75,290.31L422.11,294L422.47,293.99L423.19,294.28L423.55,289.7L424.27,290.32L424.63,294.94L424.99,298.66L425.35,290.31L426.07,290.35L426.43,294.99L426.79,290.35L427.15,294.93L427.51,298.64L427.87,293.99L428.22,294.91L428.58,294.86L429.66,298.64L430.02,298.64L430.38,296.88L430.74,298.64L431.1,298.64L431.46,298.66L431.82,293.47L432.9,298.7L433.26,298.75L433.62,296.98L433.98,298.75L434.34,298.75L439.73,298.64L440.09,296.86L441.17,298.67L441.53,298.67L441.89,298.67L442.25,296.92L442.61,296.91L442.97,298.74L444.04,298.69L444.4,296.97L445.48,298.74L445.84,298.74L449.8,298.75L450.16,296.99L450.52,297L450.88,298.83L451.96,296.99L452.31,298.83L453.39,297.04L453.75,297.04L456.63,296.87L456.99,298.62L457.35,298.61L457.71,296.82L460.58,297.46L460.94,296.84L463.1,297.56L463.46,299.33L464.18,300.25L464.54,297.57L464.9,299.35L465.26,297.56L465.62,297.6L466.7,297.57L467.06,299.35L467.78,299.37L468.13,297.6L469.21,302.01L469.57,300.25L470.65,299.39L471.01,299.54L474.61,300.29L474.97,300.3L477.12,300.28L477.48,297.54L478.56,302.09L478.92,302.09L479.28,302.08L479.64,300.33L480.72,302.07L481.08,301.76L486.83,301.77L487.19,302.93L487.55,302.93L487.91,301.76L488.63,301.79L488.99,302.99L489.35,302.98L489.71,301.81L490.07,303L490.43,301.8L490.79,301.79L491.87,302.96L492.22,302.96L498.7,302.98L499.06,302.72L500.49,302.91L500.85,302.94L503.01,302.9L503.37,301.58L504.45,302.93L504.81,302.93L505.53,302.93L505.89,284.54L506.61,279.59L506.97,302.98L508.04,278.83L508.4,302.21L512,302.57" style="vector-effect: non-scaling-stroke; fill: none; stroke: rgb(255, 102, 146); stroke-opacity: 1; stroke-width: 2px; opacity: 1;"/></g><g class="points"/><g class="text"/></g><g class="trace scatter trace77e7fb" style="stroke-miterlimit: 2; opacity: 1;"><g class="fills"/><g class="errorbars"/><g class="lines"><path class="js-line" d="M0,302.29L3.96,302.27L4.31,302.35L13.66,302.4L14.02,303.05L26.25,303.1L26.61,302.38L32.36,302.58L32.72,301.92L33.8,302.66L34.16,302.52L36.31,302.66L36.67,302.59L38.11,302.64L38.47,301.07L39.55,302.62L39.91,302.65L40.27,302.58L40.63,301.07L40.99,301L41.35,302.57L41.71,301L42.07,302.65L42.43,302.57L43.15,300.35L43.51,300.99L43.87,301.01L44.58,301L44.94,302.57L45.3,302.64L45.66,301L46.38,301L46.74,303.28L47.82,303.29L48.18,301.71L48.9,301.71L49.26,300.86L50.34,302.53L50.7,300.95L51.78,300.83L52.13,302.44L52.85,302.51L53.21,300.91L54.29,300.84L55.01,302.45L58.25,302L58.61,301.81L59.69,302L60.04,300.98L62.56,301.04L62.92,301.53L64,300.9L64.36,300.98L65.8,300.98L66.16,301.99L71.55,302.48L71.91,301.83L72.99,302.5L73.35,302.48L76.94,302.53L77.3,300.82L77.66,300.8L78.02,302.53L79.1,301.45L79.46,301.45L80.54,302.53L80.9,302.55L97.08,302.28L97.44,301.78L101.03,302.27L101.39,299.83L102.47,302.27L102.83,302.27L114.34,302.2L114.7,302.29L117.57,302.22L117.93,302.23L126.92,302.28L127.28,303.47L128.36,303.52L128.72,295L129.44,303.43L129.8,302.21L130.16,303.45L130.52,302.24L130.88,301.34L131.24,302.66L131.6,302.24L131.96,302.26L132.67,302.25L133.03,303.44L134.11,302.27L134.47,302.28L134.83,302.27L135.19,303.45L135.91,303.42L136.27,302.26L137.35,303.28L137.71,303.28L151.73,303.64L152.09,303.64L163.96,303.4L164.31,302.9L168.99,302.89L169.35,302.16L170.07,302.87L170.43,298.18L171.15,297.49L171.51,297.84L173.3,298.78L173.66,298.77L175.1,298.78L175.46,303.45L175.82,298.79L176.18,303.39L176.54,303.48L177.62,303.48L177.98,301.37L179.06,303.48L179.42,302.99L182.65,303.01L183.01,302.51L188.04,302.96L188.4,303.45L191.64,303.36L192,302.33L192.72,303.34L193.08,302.92L194.16,303.43L194.52,303.41L195.24,302.92L195.6,303.3L235.51,302.99L235.87,301.3L236.22,301.26L236.94,303.07L240.18,303.07L240.54,301.16L242.7,301.3L243.06,301.3L244.85,301.14L245.21,300.65L246.65,301.86L247.01,301.92L249.53,301.78L249.89,301.78L259.24,301.76L259.6,301.82L259.96,292.98L260.31,301.82L260.67,301.82L264.27,301.76L264.63,301.76L266.79,301.71L267.15,301.79L270.38,301.55L270.74,301.7L272.9,301.62L273.26,300.79L280.45,300.74L280.81,301.16L281.89,301.66L282.25,301.75L290.88,301.69L291.24,300.49L293.39,300.43L293.75,297.59L294.47,297.54L294.83,298.74L298.07,298.81L298.43,299.73L299.15,299.8L299.51,298.89L302.74,298.44L303.1,297.94L305.62,298.54L305.98,298.06L306.7,298.96L307.06,298.54L308.13,298.94L308.49,298.89L309.21,299.46L309.57,298.55L309.93,298.55L310.29,299.47L311.01,298.6L311.37,299.52L311.73,299.47L312.09,298.55L312.45,300.75L312.81,298.9L313.17,298.81L313.53,298.81L313.89,301.24L317.48,301.16L317.84,301.2L318.92,300.72L319.28,298.96L319.64,299.39L320,301.22L321.08,300.67L321.44,300.73L321.8,301.16L322.16,299.37L322.88,291.82L323.24,300.76L323.96,300.69L324.31,298.54L325.75,298.06L326.11,298.02L326.83,298.66L327.19,296.4L327.91,299.38L328.27,298.11L328.63,298.68L329.35,298.66L329.71,294.14L330.43,298.18L330.79,298.11L331.15,298.09L332.22,297.54L332.58,297.6L336.54,297.36L336.9,300L337.98,298.02L338.34,297.54L340.85,297.6L341.21,299.47L341.57,297.6L341.93,299.98L342.29,298.19L342.65,299.9L343.01,299.9L346.25,299.87L346.61,300.16L350.2,299.87L350.56,299.38L367.1,299.95L367.46,295.22L368.18,299.94L368.54,299.67L368.9,299.61L369.62,299.6L369.98,295.02L370.34,295.02L370.7,299.53L371.42,299.81L371.78,295.03L373.93,295.68L374.29,299.52L375.37,294.94L375.73,295.2L376.09,295.67L376.45,291.29L378.25,291.39L378.61,291.2L378.97,291.38L379.33,295.84L380.4,295.19L380.76,295.17L381.12,293.45L381.48,297.48L381.84,292.75L382.56,292.88L383.28,292.79L384.36,299.58L384.72,299.39L385.08,294.87L385.8,299.58L386.16,299.5L386.52,299.48L386.88,299.57L387.24,294.99L388.67,295.28L389.03,299.86L389.39,300.05L389.75,295.53L390.83,295.48L391.19,288.46L391.91,300.11L392.27,300.08L392.63,295.5L392.99,300.08L393.71,299.88L394.07,295.42L394.79,300.07L395.15,291.76L395.51,291.76L395.87,296.35L396.22,296.28L396.58,300.02L399.1,299.85L399.46,300.11L401.62,300.24L401.98,296.38L404.49,296.51L404.85,296.51L411.69,296.36L412.04,300.14L412.76,300.19L413.12,296.48L414.2,300.19L414.56,300.19L415.64,300.21L416,301.07L416.36,298.12L416.72,301L417.08,302.85L417.8,300.21L418.16,302.85L419.6,302.77L419.96,300.21L420.31,300.19L420.67,302.85L421.39,302.87L421.75,300.23L422.47,298.32L422.83,298.95L424.63,298.96L424.99,301.63L429.3,301.67L429.66,299.69L430.38,301.67L430.74,301.27L431.1,301.27L446.92,301.66L447.28,291.73L448.36,301.66L448.72,301.59L449.08,302.59L449.44,301.66L449.8,301.99L452.31,301.86L452.67,302.4L463.46,301.87L463.82,294.79L464.9,301.87L465.26,301.87L468.13,301.84L468.49,303.04L468.85,297.22L469.21,303L469.57,301.84L470.65,302.05L471.01,302.29L477.12,302.99L477.48,298.8L477.84,298.54L478.2,303.11L478.56,296.28L478.92,303.14L479.28,303.06L485.03,303.1L485.39,302.83L486.47,302.61L486.83,302.52L507.33,302.96L507.69,302.19L509.84,302.32L510.2,302.43L512,302.41" style="vector-effect: non-scaling-stroke; fill: none; stroke: rgb(182, 232, 128); stroke-opacity: 1; stroke-width: 2px; opacity: 1;"/></g><g class="points"/><g class="text"/></g><g class="trace scatter trace391014" style="stroke-miterlimit: 2; opacity: 1;"><g class="fills"/><g class="errorbars"/><g class="lines"><path class="js-line" d="M0,302.47L2.88,302.73L3.24,302.69L6.83,302.81L7.19,303.86L8.99,303.88L9.35,302.77L10.43,303.87L10.79,303.89L15.1,303.9L15.46,302.84L16.54,303.92L16.9,303.93L26.25,303.76L26.61,303.92L27.69,303.91L28.04,303.12L32.72,303.07L33.08,301.98L33.8,302.07L34.16,303.14L37.39,302.8L37.75,302.74L40.27,302.86L40.63,302.73L43.15,303.01L43.51,300.41L44.22,300.64L44.58,301.68L45.66,302.98L46.02,301.53L48.9,301.45L49.26,299.17L49.98,301.71L50.34,301.48L50.7,301.51L51.06,299.28L51.42,301.64L51.78,299.55L52.85,302.22L53.21,301.47L55.01,302.27L55.37,302.09L56.45,301.76L56.81,301.75L57.17,300.36L57.53,301.78L57.89,301.48L59.33,302.07L59.69,300.75L60.76,299.71L61.12,299.98L61.48,300.23L62.2,300.27L62.56,300.68L64,300.04L64.36,300.14L65.08,300.6L65.44,299.97L67.6,300.98L67.96,300.43L69.03,300.96L69.39,301.04L70.11,301.04L70.47,299.88L72.63,300.89L72.99,300.51L74.43,300.89L74.79,300.39L75.15,301.06L75.51,300.59L75.87,300.57L76.94,300.5L77.3,300.17L77.66,301.08L78.02,300.6L78.38,300.71L79.46,301.19L79.82,300.73L80.54,301.79L80.9,300.69L81.62,302.17L81.98,301.01L83.78,302.14L84.13,301.02L85.93,302.16L86.29,301.03L87.01,302.13L87.37,301.21L89.89,302.47L90.25,301.32L91.33,302.22L91.69,302.17L96.72,302.22L97.08,302.17L97.8,302.35L98.16,301.88L103.19,301.84L103.55,302.06L105.35,302.23L105.71,301.89L106.07,301.95L106.43,300.6L107.51,302.21L107.87,302.32L108.94,300.54L109.3,302.16L110.38,302.06L110.74,301.92L111.46,302.3L111.82,301.46L112.54,301.78L112.9,301.11L113.62,302.16L113.98,300.95L114.7,298.49L115.06,299.96L115.42,302.32L115.78,302.11L116.13,301.63L116.49,300.93L116.85,302.37L117.21,301.08L117.57,302.43L117.93,302.18L121.53,302.08L121.89,301.43L122.97,302.09L123.33,301.82L125.48,302.09L125.84,301.86L126.92,302.06L127.28,299.19L128.36,302.13L128.72,302L130.88,301.36L131.24,300.86L132.31,302.04L132.67,302.04L144.54,302.09L144.9,302.58L145.98,302.26L146.34,302.09L148.85,302.55L149.21,302.22L150.65,302.95L151.01,302.83L154.25,303.16L154.61,303.06L156.04,302.83L156.4,302.85L158.92,302.86L159.28,301.53L159.64,297.55L160,299.2L160.36,299.93L160.72,299.96L161.08,302.65L161.8,293.39L162.16,298.44L162.52,298.57L162.88,297.66L164.31,299.24L164.67,299.39L165.03,299.53L165.39,303L170.07,302.9L170.43,297.51L171.87,297.62L172.22,297.86L174.02,298.46L174.38,297.6L176.18,297.86L176.54,303.05L177.62,303.15L177.98,300.6L179.06,303.03L179.42,303.07L191.64,303.11L192,301.75L192.72,301.98L193.08,302.89L193.8,302.84L194.16,301.9L194.52,303.17L194.88,302.9L195.24,302.89L197.39,302.98L197.75,302.98L199.55,302.92L199.91,301.74L200.99,302.01L201.35,302.91L210.34,302.65L210.7,301.29L215.01,301.3L215.37,301.56L236.94,301.62L237.3,299.89L238.38,301.61L238.74,301.6L240.18,301.67L240.54,299.9L243.42,299.7L243.78,299.46L253.12,299.55L253.48,299.51L256.36,299.28L256.72,300.67L257.8,299.45L258.16,299.57L258.88,299.19L259.24,300.58L259.96,301.39L260.31,300.9L260.67,300.9L263.55,300.94L263.91,300.89L267.15,301.06L267.51,301.07L272.9,300.96L273.26,299.95L279.73,300.13L280.09,300.13L284.04,300.05L284.4,300.96L285.48,300.09L285.84,300.1L288.72,300.05L289.08,301.04L290.16,299.83L290.52,300.09L291.24,300.68L291.6,299.74L292.31,298.48L292.67,299.47L293.39,299.34L293.75,296.54L294.11,296.57L294.47,297.57L295.19,295.45L295.55,296.76L295.91,296.8L296.27,298.07L297.71,298.03L298.07,298.91L298.79,299.05L299.15,300.81L300.22,299.04L300.58,299.12L302.38,299.48L302.74,297.63L303.46,298.87L303.82,297.68L304.18,297.67L304.54,298.44L305.26,297.63L305.62,297.95L307.06,301.86L307.42,300.22L307.78,298.94L308.13,300.21L308.49,301.13L308.85,301.14L309.21,300.23L310.65,301.99L311.01,298.95L311.37,298.94L311.73,300.95L312.09,302.23L312.45,299.71L312.81,300.85L313.17,300.55L313.53,300.26L313.89,300.23L314.25,301.29L316.04,300.57L316.4,300.51L317.12,301.45L317.48,300.85L317.84,300.85L318.2,301.72L319.28,301.49L319.64,302.21L321.08,301.56L321.44,301.68L322.16,302.41L322.52,301.65L323.96,301.97L324.31,301.65L324.67,302.41L325.03,301.97L325.39,301.96L326.47,299.05L326.83,299.8L329.35,299.15L329.71,299.92L331.15,299.17L331.51,297.43L332.58,297.8L332.94,297.82L336.54,297.83L336.9,299.4L337.26,299.96L337.62,297.82L338.7,300.08L339.06,298.21L339.78,299.94L340.13,299.32L340.49,300.08L341.21,299.32L342.29,300.08L342.65,300.11L343.01,300.12L343.37,299.36L344.09,300.08L344.45,299.23L345.17,298.51L345.53,299.24L347.33,299.03L347.69,298.51L348.04,298.51L348.4,299.27L349.48,299.26L349.84,293.52L350.56,298.56L350.92,297.8L351.28,298.55L352,298.62L352.36,294.35L353.08,298.56L353.44,297.8L354.52,298.63L354.88,294.35L355.24,298.63L355.96,298.56L356.31,297.03L356.67,297.79L357.03,293.6L357.39,293.37L357.75,296.83L359.19,298.39L359.55,298.4L359.91,294.17L360.27,298.32L360.63,298.4L361.35,297.61L361.71,298.4L362.43,298.49L362.79,293.46L363.87,293.46L364.22,294.23L364.58,293.84L364.94,289.87L366.02,293.44L366.38,293.45L367.1,294.25L367.46,289.91L368.54,293.41L368.9,293.27L369.26,293.27L369.62,294.03L369.98,289.72L370.34,293.27L370.7,293.27L372.13,294.84L372.49,289.8L373.21,293.31L373.57,293.27L373.93,293.27L374.29,293.34L374.65,290.08L375.01,290.22L375.37,293.27L376.09,293.27L376.45,289.62L376.81,289.59L377.17,290.48L377.53,287.34L377.89,289.57L378.25,289.57L378.61,289.58L378.97,290.63L380.04,290.32L380.4,289.59L381.48,290.53L381.84,286.5L382.56,286.64L382.92,289.92L384,289.96L384.36,293.64L384.72,294.44L385.08,290.39L385.8,289.96L386.16,290.71L386.52,289.88L386.88,290.69L387.24,294.38L387.96,289.93L388.31,290.01L388.67,289.9L389.39,290.71L389.75,286.68L390.11,294.98L390.83,294.94L391.19,294.91L391.55,294.44L391.91,291.28L392.63,294.94L392.99,291.28L393.35,291.22L393.71,294.63L394.07,290.73L394.43,295.31L394.79,291.28L395.15,295L395.51,295.29L395.87,290.7L396.22,297.92L396.94,297.77L397.3,295.12L397.66,295.01L398.02,293.14L399.1,297.83L399.46,297.95L401.26,297.11L401.62,297.11L401.98,297.88L402.34,293.92L403.42,297.87L403.78,297.88L404.49,297.93L404.85,293.91L405.21,293.91L405.57,297.88L407.01,297.94L407.37,293.88L407.73,293.88L408.09,297.9L409.53,297.84L409.89,293.82L410.25,293.83L410.61,297.77L411.33,297.78L411.69,293.83L413.12,293.77L413.48,297.77L413.84,297.75L414.2,293.75L414.56,293.8L414.92,299.07L415.28,299.07L415.64,301.62L416,301.6L416.36,303.09L416.72,303.09L417.08,299.07L417.8,299.07L418.16,303.09L418.88,303.09L419.24,299.07L420.31,299.07L420.67,303.1L421.75,303.09L422.11,299.18L422.83,303.03L423.19,302.97L423.55,302.97L428.58,302.98L428.94,301.21L429.3,301.22L429.66,302.97L430.02,302.98L430.38,301.21L430.74,298.95L431.1,302.98L431.82,302.98L432.18,297.8L433.26,302.98L433.62,301.22L433.98,301.21L434.34,296.14L435.06,303.69L435.42,299.72L436.49,302.95L436.85,303.7L437.93,301.97L438.29,300.73L438.65,300.74L439.01,301.77L439.37,300L439.73,300.76L440.09,302.53L440.45,300.77L440.81,302.47L441.17,302.46L441.89,302.47L442.25,300.75L443.33,302.46L443.69,302.46L444.04,302.46L444.4,300.7L445.48,300.73L445.84,302.47L446.92,302.46L447.28,292.33L448.36,302.45L448.72,302.51L449.08,302.46L449.44,300.75L449.8,300.73L450.16,302.5L450.52,300.76L450.88,302.51L451.24,302.51L452.31,302.53L452.67,300.76L453.75,302.52L454.11,302.52L455.19,302.52L455.55,300.78L456.27,302.51L456.63,300.74L458.07,300.85L458.43,302.56L460.22,302.62L460.58,300.81L462.02,300.84L462.38,302.49L462.74,302.45L463.1,300.68L463.82,300.72L464.18,302.49L469.93,301.77L470.29,302.51L472.45,301.66L472.81,302L473.89,301.62L474.25,302.79L475.33,301.61L475.69,301.41L476.04,301.63L476.4,302.8L476.76,301.63L477.12,302.8L477.48,298.29L478.2,303.25L478.56,302.81L478.92,302.81L480,302.82L480.36,303.72L480.72,303.69L481.08,302.79L488.63,303.32L488.99,303.33L507.33,303.26L507.69,302.58L510.56,303.14L510.92,303.85L512,302.77" style="vector-effect: non-scaling-stroke; fill: none; stroke: rgb(255, 151, 255); stroke-opacity: 1; stroke-width: 2px; opacity: 1;"/></g><g class="points"/><g class="text"/></g><g class="trace scatter trace0fc0b3" style="stroke-miterlimit: 2; opacity: 1;"><g class="fills"/><g class="errorbars"/><g class="lines"><path class="js-line" d="M0,302.91L3.96,303.04L4.31,302.93L10.07,303.64L10.43,302.89L13.3,303.78L13.66,302.98L14.02,303.78L14.38,302.61L15.46,303.78L15.82,303.8L19.06,303.31L19.42,302.66L20.85,303.79L21.21,303.31L21.57,303.34L21.93,299.15L23.01,303.81L23.37,303.92L24.09,303.95L24.45,302.51L25.17,303.97L25.53,299.98L26.61,303.91L26.97,303.79L27.69,303.98L28.04,303.34L41.71,303.28L42.07,301.94L43.15,303.24L43.51,303.24L45.66,303.27L46.02,302.28L47.1,302.07L47.46,302.95L47.82,303.95L48.18,302.21L48.9,302.17L49.26,299.62L49.98,302.96L50.34,302.66L50.7,302.75L51.42,302.86L51.78,299.94L53.21,302.86L54.29,302.92L55.73,302.11L56.09,300.97L58.97,301.19L59.33,300.45L59.69,297.57L60.04,301.4L60.4,300.64L60.76,300.84L61.12,300.99L62.56,301.37L62.92,300.93L64,301.19L64.36,301.28L65.08,301.38L65.44,300.88L66.52,301.27L66.88,301.25L67.6,301.07L67.96,300.69L69.03,301.29L69.39,300.85L70.11,301.4L70.47,300.63L71.55,301.18L71.91,301.2L72.63,301.45L72.99,300.8L74.43,301.56L74.79,301.54L75.87,301.15L76.22,301.24L76.58,301.47L76.94,300.89L77.3,300.9L79.46,300.85L79.82,301.47L81.26,301.39L81.62,301.52L84.13,301.58L84.49,300.74L86.29,301.24L86.65,301.48L90.97,301.56L91.33,301.57L100.67,301.31L101.03,302.56L101.39,302.55L101.75,301.48L102.83,302.56L103.19,302.56L104.99,302.55L105.35,301.22L105.71,302.57L106.07,301.3L106.43,301.2L107.15,301.28L107.51,302.64L108.58,301.38L108.94,301.28L110.02,301.2L110.38,302.4L110.74,302.66L111.1,301.3L112.9,301.38L113.26,302.58L114.7,299.52L115.06,301.21L115.42,301.29L115.78,303.91L116.13,301.16L116.85,301.28L117.21,301.22L117.93,301.25L118.29,303.92L119.37,301.33L119.73,301.32L120.81,303.92L121.17,302.71L121.89,302.74L122.25,301.23L123.33,303.77L123.69,301.23L124.4,302.56L124.76,301.23L125.84,303.72L126.2,301.24L126.56,301.21L126.92,302.58L127.28,302.6L127.64,303.73L128,302.41L128.36,303.61L128.72,303.53L129.08,303.73L129.44,302.53L130.16,302.52L130.52,303.72L132.67,302.52L133.03,303.72L133.39,303.71L133.75,302.52L135.19,302.52L135.55,303.63L135.91,303.62L136.27,302.34L137.71,302.39L138.07,303.57L138.43,303.57L138.79,302.37L140.58,302.35L140.94,303.54L142.02,302.5L142.38,302.5L142.74,302.5L143.1,303.69L143.46,303.7L143.82,302.66L145.26,302.52L145.62,303.72L145.98,303.87L146.34,302.61L146.7,303.79L147.06,302.61L147.42,302.68L147.78,302.69L148.13,303.63L148.49,303.72L148.85,302.46L150.29,302.74L150.65,300.08L153.53,300.54L153.89,300.45L155.33,300.72L155.69,300.58L156.76,300.68L157.12,300.61L158.56,300.45L158.92,300.38L159.28,303.05L160,302.87L160.36,303.08L161.44,300.56L161.8,303.04L162.16,302.96L162.52,300.6L162.88,303.69L163.24,301.06L163.6,300.97L164.67,303.1L165.03,303.12L165.75,303.01L166.11,303.72L166.47,303.04L166.83,303.68L167.19,303.68L167.55,303.03L167.91,303.67L168.27,303.73L170.07,303.67L170.43,299.07L170.79,298.27L171.15,298.55L171.51,299.02L173.3,299.18L173.66,303.84L177.62,303.81L177.98,301.31L178.7,303.87L179.06,303.76L179.42,303.81L180.13,303.81L180.49,303.19L182.65,303.23L183.01,302.33L183.37,302.32L183.73,303.19L191.64,303.84L192,302.7L193.08,303.8L193.44,303.8L199.55,303.62L199.91,302.31L200.99,302.27L201.35,303.39L201.71,301.95L202.07,303.34L202.43,303.06L204.94,303.52L205.3,303.58L206.38,303.72L206.74,302.96L207.82,303.74L208.18,303.74L208.9,303.75L209.26,303.04L210.34,303.8L210.7,303.85L211.42,303.79L211.78,303.09L212.85,303.85L213.21,303.86L213.93,303.89L214.29,303.14L215.37,303.89L215.73,300.98L216.09,301.05L216.45,303.87L217.17,302.93L217.53,303.11L217.89,303.87L219.33,303.12L219.69,303.88L222.92,303.12L223.28,303.87L224,303.88L224.36,303.11L225.44,303.86L225.8,303.88L230.47,303.85L230.83,301.18L231.91,303.84L232.27,303.85L235.15,303.81L235.51,303.26L240.54,303.98L240.9,302.14L241.26,288.75L241.62,296.27L241.98,296.28L243.06,302.21L243.42,302.21L272.9,301.94L273.26,301.02L290.88,301.01L291.24,299.82L293.39,299.79L293.75,294.26L294.11,294.17L294.47,296.92L294.83,294.17L295.19,296.77L295.55,296.9L296.27,296.89L296.63,297.68L296.99,298.97L297.35,298.07L297.71,296.88L299.15,300.19L299.51,300.18L301.3,300.09L301.66,298.87L302.02,298.87L302.38,298.07L303.46,298.96L303.82,297.68L304.18,300.66L304.54,300.59L304.9,299.45L305.62,298.83L305.98,300.7L307.42,300.7L307.78,298.98L308.85,300.85L309.21,300.82L309.93,300.86L310.29,299.09L311.37,300.86L311.73,300.85L312.81,300.84L313.17,299.07L313.89,300.87L314.25,300.75L314.61,302.1L315.69,300.32L316.04,302.04L316.4,302.01L316.76,300.73L317.84,300.65L318.2,301.94L318.92,301.96L319.28,302.85L320.36,301.94L320.72,302.02L324.67,302.01L325.03,299.9L326.11,299.92L326.47,300.98L326.83,300.05L327.19,300.97L327.55,300.98L331.15,300.96L331.51,299.02L337.98,299.15L338.34,297.35L339.42,300.93L339.78,299.06L341.57,299.04L341.93,298.25L342.29,300.89L342.65,299.05L343.01,299.05L343.73,299.05L344.09,300.92L344.45,298.26L344.81,300.02L345.17,299.16L345.89,299.14L346.25,295.63L348.04,298.28L348.4,298.28L350.92,297.88L351.28,297L352.36,297.36L352.72,297.38L353.08,296.94L353.44,297.34L353.8,299.48L359.55,299.37L359.91,295.14L360.27,299.37L360.99,299.3L361.35,299.41L362.07,299.29L362.43,295.21L363.51,299.4L363.87,299.4L364.22,299.38L364.58,295.18L364.94,295.18L365.3,299.39L367.1,299.38L367.46,295.18L368.54,299.39L368.9,299.26L369.26,299.22L369.62,295.04L369.98,295.12L370.34,299.23L372.13,299.25L372.49,295.03L373.57,299.23L373.93,299.23L376.09,299.27L376.45,295.4L377.17,295.52L377.53,291.3L378.61,295.36L378.97,295.52L379.33,295.52L379.69,291.31L380.04,291.31L380.4,295.37L381.84,295.51L382.2,291.31L382.56,291.3L382.92,295.5L386.52,295.47L386.88,293.41L387.24,295.46L387.6,290.08L388.67,295.49L389.03,295.49L389.39,295.49L389.75,291.29L390.11,291.29L390.47,295.58L391.19,295.25L391.55,295.49L391.91,295.65L392.27,291.39L392.63,291.38L392.99,295.64L394.07,291.37L394.43,291.37L395.87,291.37L396.22,295.58L396.94,295.48L397.3,291.22L397.66,291.37L398.02,295.56L399.46,295.57L399.82,299.3L400.18,299.3L400.54,296.45L400.9,300.17L401.26,296.46L401.62,296.45L401.98,296.46L402.34,295.55L402.7,295.57L403.06,296.44L404.49,296.44L404.85,295.56L405.21,295.58L405.57,296.44L407.01,296.44L407.37,295.59L407.73,295.57L408.09,296.49L409.89,296.37L410.25,295.47L412.04,298.98L412.4,296.46L413.48,296.38L413.84,299.08L414.56,299.13L414.92,302.94L416,299.17L416.36,299.28L416.72,299.22L417.08,302.96L419.96,302.96L420.31,299.16L421.75,299.28L422.11,295.33L422.47,296.25L422.83,295.2L423.19,295.33L423.55,298.03L424.27,293.4L425.35,302.76L425.71,301.78L426.79,298.05L427.15,301.8L434.7,301.72L435.06,301.79L436.49,301.79L436.85,301.79L444.76,301.75L445.12,301.85L446.92,301.77L447.28,292.4L448,302.4L448.36,301.77L448.72,302.42L451.6,302.46L451.96,300.55L452.31,300.55L452.67,301.36L453.75,302.53L454.11,302.51L458.43,302.52L458.79,301.8L459.87,302.49L460.22,302.44L469.57,302.42L469.93,301.63L472.45,301.17L472.81,301.9L478.2,301.86L478.56,299.59L480,303.13L480.36,302.99L483.24,303.04L483.6,303.1L502.29,303.51L502.65,303.83L507.33,303.65L507.69,302.92L510.2,303.06L510.56,303.02L512,302.68" style="vector-effect: non-scaling-stroke; fill: none; stroke: rgb(254, 203, 82); stroke-opacity: 1; stroke-width: 2px; opacity: 1;"/></g><g class="points"/><g class="text"/></g></g></g><g class="overplot"/><path class="xlines-above crisp" d="M0,0" style="fill: none;"/><path class="ylines-above crisp" d="M0,0" style="fill: none;"/><g class="overlines-above"/><g class="xaxislayer-above"><g class="xtick"><text text-anchor="middle" x="0" y="433" transform="translate(80,0)" style="font-family: 'Open Sans', verdana, arial, sans-serif; font-size: 12px; fill: rgb(42, 63, 95); fill-opacity: 1; white-space: pre;">2017</text></g><g class="xtick"><text text-anchor="middle" x="0" y="433" transform="translate(211.24,0)" style="font-family: 'Open Sans', verdana, arial, sans-serif; font-size: 12px; fill: rgb(42, 63, 95); fill-opacity: 1; white-space: pre;">2018</text></g><g class="xtick"><text text-anchor="middle" x="0" y="433" transform="translate(342.47,0)" style="font-family: 'Open Sans', verdana, arial, sans-serif; font-size: 12px; fill: rgb(42, 63, 95); fill-opacity: 1; white-space: pre;">2019</text></g><g class="xtick"><text text-anchor="middle" x="0" y="433" transform="translate(473.71,0)" style="font-family: 'Open Sans', verdana, arial, sans-serif; font-size: 12px; fill: rgb(42, 63, 95); fill-opacity: 1; white-space: pre;">2020</text></g></g><g class="yaxislayer-above"><g class="ytick"><text text-anchor="end" x="79" y="4.199999999999999" transform="translate(0,404.08)" style="font-family: 'Open Sans', verdana, arial, sans-serif; font-size: 12px; fill: rgb(42, 63, 95); fill-opacity: 1; white-space: pre;">0</text></g><g class="ytick"><text text-anchor="end" x="79" y="4.199999999999999" transform="translate(0,347.45)" style="font-family: 'Open Sans', verdana, arial, sans-serif; font-size: 12px; fill: rgb(42, 63, 95); fill-opacity: 1; white-space: pre;">0.05</text></g><g class="ytick"><text text-anchor="end" x="79" y="4.199999999999999" transform="translate(0,290.81)" style="font-family: 'Open Sans', verdana, arial, sans-serif; font-size: 12px; fill: rgb(42, 63, 95); fill-opacity: 1; white-space: pre;">0.1</text></g><g class="ytick"><text text-anchor="end" x="79" y="4.199999999999999" transform="translate(0,234.17)" style="font-family: 'Open Sans', verdana, arial, sans-serif; font-size: 12px; fill: rgb(42, 63, 95); fill-opacity: 1; white-space: pre;">0.15</text></g><g class="ytick"><text text-anchor="end" x="79" y="4.199999999999999" transform="translate(0,177.53)" style="font-family: 'Open Sans', verdana, arial, sans-serif; font-size: 12px; fill: rgb(42, 63, 95); fill-opacity: 1; white-space: pre;">0.2</text></g><g class="ytick"><text text-anchor="end" x="79" y="4.199999999999999" transform="translate(0,120.9)" style="font-family: 'Open Sans', verdana, arial, sans-serif; font-size: 12px; fill: rgb(42, 63, 95); fill-opacity: 1; white-space: pre;">0.25</text></g></g><g class="overaxes-above"/></g></g><g class="polarlayer"/><g class="ternarylayer"/><g class="geolayer"/><g class="funnelarealayer"/><g class="pielayer"/><g class="treemaplayer"/><g class="sunburstlayer"/><g class="glimages"/><defs id="topdefs-530483"><g class="clips"/><clipPath id="legend530483"><rect width="86" height="216" x="0" y="0"/></clipPath></defs><g class="layer-above"><g class="imagelayer"/><g class="shapelayer"/></g><g class="infolayer"><g class="legend" pointer-events="all" transform="translate(602.24, 100)"><rect class="bg" shape-rendering="crispEdges" width="86" height="216" x="0" y="0" style="stroke: rgb(68, 68, 68); stroke-opacity: 1; fill: rgb(255, 255, 255); fill-opacity: 1; stroke-width: 0px;"/><g class="scrollbox" transform="translate(0, 0)" clip-path="url('#legend530483')"><text class="legendtitletext" text-anchor="start" x="2" y="15.600000000000001" style="font-family: 'Open Sans', verdana, arial, sans-serif; font-size: 12px; fill: rgb(42, 63, 95); fill-opacity: 1; white-space: pre;">South America</text><g class="groups"><g class="traces" transform="translate(0, 30.1)" style="opacity: 1;"><text class="legendtext" text-anchor="start" x="40" y="4.680000000000001" style="font-family: 'Open Sans', verdana, arial, sans-serif; font-size: 12px; fill: rgb(42, 63, 95); fill-opacity: 1; white-space: pre;">Global</text><g class="layers" style="opacity: 1;"><g class="legendfill"/><g class="legendlines"><path class="js-line" d="M5,0h30" style="fill: none; stroke: rgb(99, 110, 250); stroke-opacity: 1; stroke-width: 2px;"/></g><g class="legendsymbols"><g class="legendpoints"/></g></g><rect class="legendtoggle" x="0" y="-9.5" width="76.09375" height="19" style="fill: rgb(0, 0, 0); fill-opacity: 0;"/></g><g class="traces" transform="translate(0, 49.1)" style="opacity: 1;"><text class="legendtext" text-anchor="start" x="40" y="4.680000000000001" style="font-family: 'Open Sans', verdana, arial, sans-serif; font-size: 12px; fill: rgb(42, 63, 95); fill-opacity: 1; white-space: pre;">ar</text><g class="layers" style="opacity: 1;"><g class="legendfill"/><g class="legendlines"><path class="js-line" d="M5,0h30" style="fill: none; stroke: rgb(239, 85, 59); stroke-opacity: 1; stroke-width: 2px;"/></g><g class="legendsymbols"><g class="legendpoints"/></g></g><rect class="legendtoggle" x="0" y="-9.5" width="76.09375" height="19" style="fill: rgb(0, 0, 0); fill-opacity: 0;"/></g><g class="traces" transform="translate(0, 68.1)" style="opacity: 1;"><text class="legendtext" text-anchor="start" x="40" y="4.680000000000001" style="font-family: 'Open Sans', verdana, arial, sans-serif; font-size: 12px; fill: rgb(42, 63, 95); fill-opacity: 1; white-space: pre;">bo</text><g class="layers" style="opacity: 1;"><g class="legendfill"/><g class="legendlines"><path class="js-line" d="M5,0h30" style="fill: none; stroke: rgb(0, 204, 150); stroke-opacity: 1; stroke-width: 2px;"/></g><g class="legendsymbols"><g class="legendpoints"/></g></g><rect class="legendtoggle" x="0" y="-9.5" width="76.09375" height="19" style="fill: rgb(0, 0, 0); fill-opacity: 0;"/></g><g class="traces" transform="translate(0, 87.1)" style="opacity: 1;"><text class="legendtext" text-anchor="start" x="40" y="4.680000000000001" style="font-family: 'Open Sans', verdana, arial, sans-serif; font-size: 12px; fill: rgb(42, 63, 95); fill-opacity: 1; white-space: pre;">br</text><g class="layers" style="opacity: 1;"><g class="legendfill"/><g class="legendlines"><path class="js-line" d="M5,0h30" style="fill: none; stroke: rgb(171, 99, 250); stroke-opacity: 1; stroke-width: 2px;"/></g><g class="legendsymbols"><g class="legendpoints"/></g></g><rect class="legendtoggle" x="0" y="-9.5" width="76.09375" height="19" style="fill: rgb(0, 0, 0); fill-opacity: 0;"/></g><g class="traces" transform="translate(0, 106.1)" style="opacity: 1;"><text class="legendtext" text-anchor="start" x="40" y="4.680000000000001" style="font-family: 'Open Sans', verdana, arial, sans-serif; font-size: 12px; fill: rgb(42, 63, 95); fill-opacity: 1; white-space: pre;">cl</text><g class="layers" style="opacity: 1;"><g class="legendfill"/><g class="legendlines"><path class="js-line" d="M5,0h30" style="fill: none; stroke: rgb(255, 161, 90); stroke-opacity: 1; stroke-width: 2px;"/></g><g class="legendsymbols"><g class="legendpoints"/></g></g><rect class="legendtoggle" x="0" y="-9.5" width="76.09375" height="19" style="fill: rgb(0, 0, 0); fill-opacity: 0;"/></g><g class="traces" transform="translate(0, 125.1)" style="opacity: 1;"><text class="legendtext" text-anchor="start" x="40" y="4.680000000000001" style="font-family: 'Open Sans', verdana, arial, sans-serif; font-size: 12px; fill: rgb(42, 63, 95); fill-opacity: 1; white-space: pre;">co</text><g class="layers" style="opacity: 1;"><g class="legendfill"/><g class="legendlines"><path class="js-line" d="M5,0h30" style="fill: none; stroke: rgb(25, 211, 243); stroke-opacity: 1; stroke-width: 2px;"/></g><g class="legendsymbols"><g class="legendpoints"/></g></g><rect class="legendtoggle" x="0" y="-9.5" width="76.09375" height="19" style="fill: rgb(0, 0, 0); fill-opacity: 0;"/></g><g class="traces" transform="translate(0, 144.1)" style="opacity: 1;"><text class="legendtext" text-anchor="start" x="40" y="4.680000000000001" style="font-family: 'Open Sans', verdana, arial, sans-serif; font-size: 12px; fill: rgb(42, 63, 95); fill-opacity: 1; white-space: pre;">ec</text><g class="layers" style="opacity: 1;"><g class="legendfill"/><g class="legendlines"><path class="js-line" d="M5,0h30" style="fill: none; stroke: rgb(255, 102, 146); stroke-opacity: 1; stroke-width: 2px;"/></g><g class="legendsymbols"><g class="legendpoints"/></g></g><rect class="legendtoggle" x="0" y="-9.5" width="76.09375" height="19" style="fill: rgb(0, 0, 0); fill-opacity: 0;"/></g><g class="traces" transform="translate(0, 163.1)" style="opacity: 1;"><text class="legendtext" text-anchor="start" x="40" y="4.680000000000001" style="font-family: 'Open Sans', verdana, arial, sans-serif; font-size: 12px; fill: rgb(42, 63, 95); fill-opacity: 1; white-space: pre;">pe</text><g class="layers" style="opacity: 1;"><g class="legendfill"/><g class="legendlines"><path class="js-line" d="M5,0h30" style="fill: none; stroke: rgb(182, 232, 128); stroke-opacity: 1; stroke-width: 2px;"/></g><g class="legendsymbols"><g class="legendpoints"/></g></g><rect class="legendtoggle" x="0" y="-9.5" width="76.09375" height="19" style="fill: rgb(0, 0, 0); fill-opacity: 0;"/></g><g class="traces" transform="translate(0, 182.1)" style="opacity: 1;"><text class="legendtext" text-anchor="start" x="40" y="4.680000000000001" style="font-family: 'Open Sans', verdana, arial, sans-serif; font-size: 12px; fill: rgb(42, 63, 95); fill-opacity: 1; white-space: pre;">py</text><g class="layers" style="opacity: 1;"><g class="legendfill"/><g class="legendlines"><path class="js-line" d="M5,0h30" style="fill: none; stroke: rgb(255, 151, 255); stroke-opacity: 1; stroke-width: 2px;"/></g><g class="legendsymbols"><g class="legendpoints"/></g></g><rect class="legendtoggle" x="0" y="-9.5" width="76.09375" height="19" style="fill: rgb(0, 0, 0); fill-opacity: 0;"/></g><g class="traces" transform="translate(0, 201.1)" style="opacity: 1;"><text class="legendtext" text-anchor="start" x="40" y="4.680000000000001" style="font-family: 'Open Sans', verdana, arial, sans-serif; font-size: 12px; fill: rgb(42, 63, 95); fill-opacity: 1; white-space: pre;">uy</text><g class="layers" style="opacity: 1;"><g class="legendfill"/><g class="legendlines"><path class="js-line" d="M5,0h30" style="fill: none; stroke: rgb(254, 203, 82); stroke-opacity: 1; stroke-width: 2px;"/></g><g class="legendsymbols"><g class="legendpoints"/></g></g><rect class="legendtoggle" x="0" y="-9.5" width="76.09375" height="19" style="fill: rgb(0, 0, 0); fill-opacity: 0;"/></g></g></g><rect class="scrollbar" rx="20" ry="3" width="0" height="0" x="0" y="0" style="fill: rgb(128, 139, 164); fill-opacity: 1;"/></g><g class="g-gtitle"/><g class="g-xtitle"><text class="xtitle" x="336" y="461.8" text-anchor="middle" style="font-family: 'Open Sans', verdana, arial, sans-serif; font-size: 14px; fill: rgb(42, 63, 95); opacity: 1; font-weight: normal; white-space: pre;">Date</text></g><g class="g-ytitle"><text class="ytitle" transform="rotate(-90,30.418750000000003,260)" x="30.418750000000003" y="260" text-anchor="middle" style="font-family: 'Open Sans', verdana, arial, sans-serif; font-size: 14px; fill: rgb(42, 63, 95); opacity: 1; font-weight: normal; white-space: pre;">instrumentalness</text></g></g></svg>