<svg class="main-svg" xmlns="http://www.w3.org/2000/svg" xmlns:xlink="http://www.w3.org/1999/xlink" width="700" height="500" style="" viewBox="0 0 700 500"><rect x="0" y="0" width="700" height="500" style="fill: rgb(255, 255, 255); fill-opacity: 1;"/><defs id="defs-a87208"><g class="clips"><clipPath id="clipa87208xyplot" class="plotclip"><rect width="516" height="320"/></clipPath><clipPath class="axesclip" id="clipa87208x"><rect x="80" y="0" width="516" height="500"/></clipPath><clipPath class="axesclip" id="clipa87208y"><rect x="0" y="100" width="700" height="320"/></clipPath><clipPath class="axesclip" id="clipa87208xy"><rect x="80" y="100" width="516" height="320"/></clipPath></g><g class="gradients"/></defs><g class="bglayer"><rect class="bg" x="80" y="100" width="516" height="320" style="fill: rgb(229, 236, 246); fill-opacity: 1; stroke-width: 0;"/></g><g class="layer-below"><g class="imagelayer"/><g class="shapelayer"/></g><g class="cartesianlayer"><g class="subplot xy"><g class="layer-subplot"><g class="shapelayer"/><g class="imagelayer"/></g><g class="gridlayer"><g class="x"><path class="xgrid crisp" transform="translate(212.26,0)" d="M0,100v320" style="stroke: rgb(255, 255, 255); stroke-opacity: 1; stroke-width: 1px;"/><path class="xgrid crisp" transform="translate(344.52,0)" d="M0,100v320" style="stroke: rgb(255, 255, 255); stroke-opacity: 1; stroke-width: 1px;"/><path class="xgrid crisp" transform="translate(476.78,0)" d="M0,100v320" style="stroke: rgb(255, 255, 255); stroke-opacity: 1; stroke-width: 1px;"/></g><g class="y"><path class="ygrid crisp" transform="translate(0,403.06)" d="M80,0h516" style="stroke: rgb(255, 255, 255); stroke-opacity: 1; stroke-width: 1px;"/><path class="ygrid crisp" transform="translate(0,365.66)" d="M80,0h516" style="stroke: rgb(255, 255, 255); stroke-opacity: 1; stroke-width: 1px;"/><path class="ygrid crisp" transform="translate(0,328.26)" d="M80,0h516" style="stroke: rgb(255, 255, 255); stroke-opacity: 1; stroke-width: 1px;"/><path class="ygrid crisp" transform="translate(0,290.86)" d="M80,0h516" style="stroke: rgb(255, 255, 255); stroke-opacity: 1; stroke-width: 1px;"/><path class="ygrid crisp" transform="translate(0,253.45)" d="M80,0h516" style="stroke: rgb(255, 255, 255); stroke-opacity: 1; stroke-width: 1px;"/><path class="ygrid crisp" transform="translate(0,216.05)" d="M80,0h516" style="stroke: rgb(255, 255, 255); stroke-opacity: 1; stroke-width: 1px;"/><path class="ygrid crisp" transform="translate(0,178.65)" d="M80,0h516" style="stroke: rgb(255, 255, 255); stroke-opacity: 1; stroke-width: 1px;"/><path class="ygrid crisp" transform="translate(0,141.25)" d="M80,0h516" style="stroke: rgb(255, 255, 255); stroke-opacity: 1; stroke-width: 1px;"/><path class="ygrid crisp" transform="translate(0,103.84)" d="M80,0h516" style="stroke: rgb(255, 255, 255); stroke-opacity: 1; stroke-width: 1px;"/></g></g><g class="zerolinelayer"/><path class="xlines-below"/><path class="ylines-below"/><g class="overlines-below"/><g class="xaxislayer-below"/><g class="yaxislayer-below"/><g class="overaxes-below"/><g class="plot" transform="translate(80, 100)" clip-path="url('#clipa87208xyplot')"><g class="scatterlayer mlayer"><g class="trace scatter traceb7046d" style="stroke-miterlimit: 2; opacity: 1;"><g class="fills"/><g class="errorbars"/><g class="lines"><path class="js-line" d="M0,188.99L1.09,225.45L1.45,217.97L1.81,239.48L2.17,232.94L2.54,231.06L2.9,219.84L3.26,232L3.62,225.45L4.35,214.23L4.71,226.39L5.07,227.32L5.44,222.65L6.52,232L6.88,217.04L7.61,233.87L7.97,211.43L8.7,223.58L9.06,217.04L9.78,224.52L10.15,218.91L10.51,213.3L10.87,220.78L11.6,225.45L11.96,197.4L12.32,198.34L12.68,211.43L13.04,217.04L13.41,207.69L13.77,212.36L14.13,230.13L15.94,210.49L16.31,212.36L16.67,228.26L17.03,224.52L17.39,213.3L17.76,199.27L18.12,205.82L18.48,204.88L19.93,188.99L20.29,201.14L21.38,185.25L21.74,185.25L22.1,185.25L22.47,157.19L22.83,148.78L23.19,162.81L24.28,172.16L24.64,171.22L25,172.16L25.37,176.83L25.73,181.51L26.09,178.7L26.45,179.64L26.81,184.31L27.18,169.35L27.54,167.48L27.9,157.19L28.63,182.44L28.99,169.35L29.35,168.42L29.71,187.12L30.08,164.68L30.44,169.35L30.8,168.42L31.89,169.35L32.25,179.64L32.61,156.26L32.97,171.22L33.34,177.77L33.7,164.68L34.06,179.64L34.42,172.16L34.79,186.18L35.87,166.55L36.24,181.51L37.32,202.08L37.69,223.58L38.05,222.65L38.41,232L39.5,223.58L39.86,241.35L40.22,215.17L40.58,221.71L40.95,217.04L41.31,218.91L41.67,215.17L42.76,255.38L43.12,227.32L43.48,251.64L43.85,235.74L44.21,232.94L44.93,239.48L45.29,246.96L45.66,246.96L46.02,217.04L46.38,244.16L46.74,225.45L47.11,223.58L47.47,237.61L47.83,230.13L48.19,222.65L48.56,226.39L48.92,211.43L49.28,229.19L49.64,217.04L50.01,219.84L50.73,197.4L51.09,203.95L51.46,191.79L51.82,214.23L52.18,210.49L52.54,198.34L52.9,200.21L53.27,183.38L55.44,211.43L55.8,184.31L56.17,196.47L56.53,188.05L56.89,174.03L57.25,186.18L57.62,147.84L58.7,174.03L59.06,186.18L59.79,180.57L60.15,199.27L60.51,175.9L60.88,187.12L61.24,177.77L62.33,186.18L62.69,175.9L63.05,176.83L63.41,180.57L63.78,184.31L64.14,174.96L64.5,166.55L64.86,167.48L65.22,169.35L65.95,160.94L66.31,170.29L67.4,152.52L67.76,148.78L68.12,170.29L68.49,145.04L69.94,163.74L70.3,153.45L71.75,178.7L72.11,165.61L72.47,140.36L72.83,171.22L74.28,140.36L74.65,147.84L75.01,148.78L75.37,139.43L75.73,131.01L76.1,140.36L77.54,120.73L77.91,126.34L78.27,104.83L78.63,111.38L78.99,130.08L80.08,112.31L80.44,126.34L80.81,93.61L81.17,113.25L81.53,135.69L82.62,127.27L82.98,128.21L83.34,109.51L84.43,124.47L84.79,115.12L85.52,120.73L85.88,113.25L86.24,115.12L86.6,121.66L86.97,117.92L87.33,124.47L87.69,125.4L88.05,116.99L88.78,109.51L89.14,123.53L89.5,126.34L89.87,135.69L90.23,116.99L90.59,129.14L90.95,128.21L91.68,150.65L92.04,148.78L92.4,146.91L92.76,148.78L93.13,175.9L93.49,146.91L93.85,162.81L94.21,170.29L94.58,160.94L94.94,168.42L95.3,163.74L95.66,173.09L96.03,172.16L96.39,146.91L97.47,185.25L97.84,186.18L98.2,160.94L98.56,183.38L98.92,171.22L99.29,168.42L99.65,183.38L100.37,188.99L100.74,209.56L101.46,188.05L101.82,194.6L102.55,205.82L102.91,203.01L103.27,202.08L103.63,203.01L104,183.38L104.36,188.05L104.72,204.88L105.45,210.49L105.81,206.75L106.53,217.04L106.9,206.75L107.26,213.3L107.62,203.01L107.98,197.4L108.35,200.21L108.71,203.95L109.79,213.3L110.16,227.32L110.88,266.6L111.24,248.83L111.61,236.68L111.97,249.77L112.69,251.64L113.06,261.92L114.14,231.06L114.51,242.29L114.87,230.13L115.23,241.35L115.59,246.96L115.96,254.44L116.32,245.09L117.04,256.31L117.4,250.7L117.77,251.64L118.13,243.22L119.58,271.27L119.94,270.34L120.67,285.3L121.03,258.18L121.75,238.55L122.12,279.69L122.84,273.14L123.2,275.01L123.93,223.58L124.29,238.55L124.65,256.31L125.01,257.25L125.38,251.64L126.46,227.32L126.83,229.19L127.19,246.96L128.28,241.35L128.64,238.55L129,242.29L129.36,161.87L129.72,157.19L130.09,269.4L131.9,209.56L132.26,227.32L133.71,246.96L134.07,250.7L134.8,234.81L135.16,239.48L135.88,260.05L136.25,253.51L136.61,249.77L137.33,244.16L137.7,245.09L138.78,261.92L139.15,236.68L139.51,219.84L139.87,240.42L140.23,224.52L140.6,232L140.96,233.87L141.32,203.01L141.68,209.56L142.04,235.74L142.41,231.06L142.77,256.31L143.49,266.6L143.86,224.52L144.58,252.57L144.94,242.29L145.31,244.16L145.67,244.16L146.03,232.94L146.39,220.78L146.76,223.58L147.12,224.52L148.21,207.69L148.57,218.91L148.93,222.65L149.29,214.23L149.65,215.17L150.02,210.49L151.83,249.77L152.19,251.64L153.28,230.13L153.64,222.65L154,216.1L154.37,217.04L154.73,220.78L155.45,218.91L155.81,220.78L156.18,213.3L156.54,187.12L157.26,165.61L157.63,172.16L157.99,174.96L159.08,154.39L159.44,179.64L159.8,151.58L160.16,160.94L160.53,187.12L161.97,136.62L162.34,134.75L162.7,147.84L163.06,136.62L163.42,125.4L163.79,125.4L164.15,159.06L164.87,152.52L165.24,134.75L165.6,144.1L165.96,131.01L166.32,127.27L166.69,133.82L169.22,97.35L169.58,116.05L170.31,91.74L170.67,102.96L171.03,105.77L171.4,90.81L172.12,140.36L172.48,132.88L172.85,132.88L173.57,116.99L173.93,122.6L175.38,179.64L175.74,176.83L176.11,177.77L176.47,190.86L177.19,169.35L177.56,176.83L177.92,180.57L178.28,192.73L179.37,164.68L179.73,178.7L180.46,145.97L180.82,169.35L181.18,169.35L181.54,193.66L181.9,177.77L182.27,198.34L183.35,192.73L183.72,212.36L184.08,210.49L184.44,244.16L185.89,203.95L186.25,207.69L186.62,202.08L186.98,216.1L187.34,216.1L187.7,201.14L188.06,195.53L188.43,198.34L188.79,211.43L189.15,206.75L189.51,234.81L189.88,243.22L190.24,236.68L190.6,216.1L191.69,206.75L192.05,230.13L193.14,205.82L193.5,190.86L193.86,190.86L194.22,202.08L194.59,178.7L194.95,192.73L195.31,199.27L196.04,189.92L196.4,198.34L196.76,203.95L197.12,150.65L197.49,188.99L197.85,176.83L198.21,180.57L199.3,196.47L199.66,201.14L200.38,223.58L200.75,203.95L201.11,208.62L201.47,198.34L201.83,202.08L202.2,188.99L202.56,205.82L202.92,203.95L203.28,199.27L203.65,188.99L204.01,193.66L204.37,213.3L204.73,213.3L205.1,224.52L205.46,205.82L205.82,207.69L206.18,213.3L207.27,198.34L207.63,220.78L208.36,188.99L208.72,202.08L209.08,206.75L209.44,191.79L210.17,203.01L210.53,194.6L210.89,184.31L211.26,198.34L211.98,187.12L212.34,168.42L213.07,176.83L213.43,163.74L213.79,157.19L214.15,171.22L216.33,150.65L216.69,162.81L217.42,140.36L217.78,147.84L218.14,151.58L219.23,135.69L219.59,140.36L219.95,145.97L220.31,135.69L220.68,129.14L221.04,140.36L221.4,136.62L221.76,140.36L222.13,159.06L223.21,184.31L223.58,178.7L223.94,188.99L224.3,187.12L224.66,187.12L225.03,188.99L225.39,161.87L225.75,170.29L226.11,164.68L226.47,165.61L226.84,166.55L227.2,184.31L227.56,160L227.92,190.86L228.65,188.05L229.01,188.99L229.37,188.99L229.74,194.6L230.1,192.73L230.46,185.25L230.82,187.12L231.19,193.66L231.91,186.18L232.27,181.51L232.63,164.68L233,181.51L233.36,181.51L234.45,195.53L234.81,187.12L235.17,215.17L235.53,187.12L235.9,185.25L236.26,206.75L236.62,204.88L236.98,203.01L237.35,203.01L237.71,223.58L238.07,186.18L238.43,188.99L238.79,208.62L240.61,153.45L240.97,159.06L241.33,182.44L241.69,177.77L242.06,149.71L242.42,172.16L242.78,167.48L243.14,154.39L243.51,155.32L243.87,176.83L244.96,160.94L245.32,183.38L246.04,159.06L246.4,182.44L247.49,151.58L247.85,157.19L248.22,182.44L248.58,178.7L248.94,191.79L249.3,191.79L249.67,193.66L250.03,189.92L250.39,163.74L251.48,143.17L251.84,157.19L252.2,161.87L252.56,153.45L252.93,127.27L253.29,152.52L253.65,169.35L254.01,164.68L254.38,174.96L254.74,167.48L255.1,168.42L255.46,128.21L256.19,170.29L256.55,160.94L257.28,157.19L257.64,177.77L258,188.99L258.36,145.04L259.45,159.06L259.81,150.65L260.17,143.17L260.54,171.22L261.26,141.3L261.62,170.29L262.35,137.56L262.71,102.03L263.44,73.97L263.8,78.65L264.16,127.27L264.52,92.68L264.88,109.51L265.25,116.05L265.61,108.57L265.97,79.58L266.33,100.16L266.7,105.77L268.51,65.56L268.87,84.26L269.6,73.97L269.96,74.91L270.32,81.45L271.41,113.25L271.77,96.42L272.86,112.31L273.22,86.13L273.94,107.64L274.31,106.7L274.67,110.44L275.39,92.68L275.76,101.09L276.12,102.03L276.48,124.47L276.84,130.08L277.21,107.64L277.57,117.92L277.93,97.35L278.65,128.21L279.02,127.27L279.38,132.88L279.74,131.95L280.1,123.53L280.83,143.17L281.19,137.56L281.55,141.3L282.64,100.16L283,103.9L283.37,153.45L283.73,116.05L284.09,116.05L284.45,113.25L284.81,89.87L285.54,115.12L285.9,97.35L286.63,63.69L286.99,82.39L287.35,66.49L287.71,68.36L288.08,82.39L288.8,104.83L289.16,102.03L289.53,89.87L289.89,94.55L290.25,83.32L292.06,56.21L292.42,58.08L292.79,61.82L293.15,63.69L293.51,75.84L293.87,78.65L294.24,71.17L295.32,54.34L295.69,66.49L297.13,84.26L297.5,57.14L298.58,150.65L298.95,116.99L299.31,114.18L299.67,141.3L300.03,107.64L300.4,110.44L300.76,116.99L302.21,69.3L302.57,71.17L303.66,115.12L304.02,103.9L304.38,113.25L305.11,123.53L305.47,134.75L306.19,175.9L306.56,152.52L306.92,146.91L307.28,161.87L308.73,132.88L309.09,135.69L309.46,133.82L309.82,142.23L310.18,129.14L310.54,131.01L310.9,133.82L311.27,173.09L311.63,141.3L311.99,134.75L312.35,145.97L312.72,138.49L313.08,145.04L313.44,128.21L313.8,129.14L314.17,131.95L314.89,94.55L315.25,100.16L315.62,106.7L316.34,161.87L316.7,152.52L317.06,134.75L317.43,158.13L317.79,138.49L318.15,136.62L318.51,120.73L318.88,173.09L319.6,149.71L319.96,160L320.69,148.78L321.05,152.52L321.41,195.53L321.78,202.08L322.14,200.21L322.5,171.22L322.86,167.48L323.22,169.35L323.59,169.35L324.31,180.57L324.67,162.81L325.4,184.31L325.76,172.16L326.85,193.66L327.21,174.96L327.94,145.04L328.3,146.91L328.66,146.91L329.38,177.77L329.75,176.83L330.11,157.19L330.83,162.81L331.2,160L331.56,213.3L331.92,189.92L332.28,204.88L332.65,204.88L333.01,188.05L334.1,173.09L334.46,186.18L335.18,166.55L335.54,170.29L335.91,178.7L337.36,153.45L337.72,155.32L338.08,160L338.44,151.58L338.81,160L339.17,153.45L339.53,173.09L339.89,148.78L340.62,138.49L340.98,149.71L341.34,147.84L341.71,115.12L342.79,135.69L343.15,125.4L343.52,126.34L343.88,133.82L344.24,113.25L344.6,153.45L344.97,143.17L345.33,160L346.42,175.9L346.78,154.39L347.5,188.05L347.87,183.38L348.23,189.92L348.59,188.99L348.95,174.96L350.4,145.04L350.76,146.91L351.13,146.91L352.21,114.18L352.58,136.62L353.3,108.57L353.66,125.4L354.03,123.53L354.39,174.96L355.47,176.83L355.84,166.55L356.56,171.22L356.92,169.35L357.29,161.87L358.37,173.09L358.74,173.09L359.1,169.35L359.46,146.91L359.82,154.39L360.19,132.88L360.55,135.69L360.91,145.04L361.63,158.13L362,157.19L362.36,141.3L363.08,158.13L363.45,157.19L363.81,158.13L364.17,155.32L364.53,132.88L365.26,145.04L365.62,140.36L366.35,131.01L366.71,119.79L367.07,112.31L367.43,116.05L367.79,128.21L368.52,123.53L368.88,117.92L369.24,119.79L369.61,98.29L370.33,126.34L370.69,125.4L371.06,120.73L371.42,123.53L371.78,120.73L372.14,114.18L372.51,95.48L372.87,118.86L373.59,102.96L373.96,103.9L374.32,69.3L374.68,104.83L375.04,89.87L375.4,82.39L375.77,73.97L376.13,82.39L376.49,75.84L377.94,131.95L378.3,116.05L378.67,119.79L379.03,113.25L379.39,123.53L379.75,119.79L380.12,101.09L380.48,125.4L380.84,120.73L381.2,120.73L382.29,101.09L382.65,134.75L383.38,127.27L383.74,139.43L384.46,126.34L384.83,130.08L385.19,149.71L385.55,181.51L385.91,160.94L386.28,144.1L386.64,151.58L387,131.95L387.36,102.96L387.72,137.56L388.09,145.97L388.45,124.47L388.81,135.69L389.17,133.82L389.54,133.82L390.62,175.9L390.99,160.94L392.44,131.01L392.8,124.47L393.88,151.58L394.25,142.23L395.33,93.61L395.7,96.42L396.06,90.81L396.42,92.68L396.78,111.38L397.87,79.58L398.23,77.71L399.68,101.09L400.04,83.32L400.41,91.74L400.77,125.4L401.13,129.14L401.49,111.38L402.58,142.23L402.94,131.95L403.67,149.71L404.03,138.49L404.39,133.82L404.76,140.36L405.48,82.39L405.84,95.48L406.21,99.22L406.93,86.13L407.29,98.29L408.38,137.56L408.74,117.92L409.1,112.31L409.47,115.12L409.83,126.34L410.55,121.66L410.92,134.75L411.28,157.19L411.64,155.32L412,151.58L412.37,146.91L412.73,129.14L413.09,93.61L413.45,133.82L414.18,146.91L414.54,137.56L414.9,149.71L415.26,117.92L415.63,113.25L415.99,115.12L416.35,135.69L418.16,95.48L418.53,104.83L419.61,84.26L419.97,89.87L420.34,62.75L420.7,88.94L421.06,76.78L421.42,69.3L421.79,83.32L422.15,83.32L422.51,77.71L422.87,78.65L423.24,90.81L423.6,84.26L423.96,86.13L424.32,63.69L424.69,80.52L425.05,72.1L425.41,125.4L426.5,101.09L426.86,110.44L427.58,115.12L427.95,89.87L428.31,118.86L428.67,110.44L429.03,98.29L429.4,110.44L429.76,108.57L430.12,102.03L430.48,97.35L430.85,98.29L431.21,79.58L431.57,92.68L431.93,76.78L432.29,77.71L432.66,88.94L433.02,96.42L433.38,123.53L434.11,110.44L434.47,116.05L435.56,84.26L435.92,93.61L437.01,78.65L437.37,81.45L437.73,70.23L438.09,91.74L438.46,93.61L438.82,89.87L439.9,76.78L440.27,81.45L440.99,60.88L441.35,63.69L441.72,63.69L442.44,65.56L442.8,83.32L443.17,59.95L443.53,103.9L444.25,72.1L444.62,83.32L444.98,81.45L445.34,65.56L445.7,102.96L446.79,71.17L447.15,76.78L447.51,77.71L447.88,59.95L448.24,94.55L448.6,78.65L448.96,48.73L450.41,81.45L450.78,87.06L451.14,88.94L451.5,78.65L451.86,74.91L452.22,94.55L452.95,59.95L453.31,71.17L453.67,70.23L455.12,72.1L455.49,86.13L455.85,65.56L456.21,91.74L456.57,88L456.94,69.3L457.66,54.34L458.02,76.78L458.75,105.77L459.11,96.42L460.2,67.43L460.56,83.32L460.92,63.69L461.28,88L461.65,76.78L462.01,42.18L463.1,74.91L463.46,40.31L463.82,54.34L464.18,49.66L464.54,27.22L464.91,27.22L465.27,46.86L465.63,44.99L465.99,67.43L466.72,74.91L467.08,51.53L467.81,53.4L468.17,59.01L468.89,91.74L469.26,89.87L469.62,68.36L469.98,67.43L470.34,82.39L470.71,92.68L471.07,144.1L472.15,106.7L472.52,112.31L473.24,81.45L473.6,109.51L473.97,88L474.33,99.22L474.69,93.61L475.05,87.06L475.42,60.88L475.78,66.49L476.14,59.01L476.87,72.1L477.23,51.53L477.59,40.31L477.95,61.82L478.31,68.36L478.68,106.7L479.04,104.83L479.4,80.52L480.49,105.77L480.85,92.68L481.21,117.92L481.58,114.18L481.94,115.12L482.3,128.21L482.66,108.57L483.03,88L483.39,96.42L483.75,100.16L484.11,118.86L484.47,111.38L484.84,113.25L485.2,111.38L485.56,102.03L485.92,110.44L486.29,172.16L487.01,115.12L487.37,118.86L487.74,127.27L488.1,144.1L488.46,133.82L488.82,142.23L489.19,133.82L489.55,137.56L489.91,153.45L490.27,158.13L490.63,146.91L491,145.97L491.36,118.86L492.08,92.68L492.45,121.66L492.81,132.88L493.17,118.86L494.26,149.71L494.62,138.49L494.98,155.32L495.35,144.1L495.71,144.1L496.07,144.1L496.43,162.81L497.16,140.36L497.52,155.32L497.88,167.48L498.24,160L498.61,161.87L498.97,152.52L499.33,153.45L499.69,119.79L500.78,151.58L501.14,151.58L501.51,149.71L501.87,140.36L502.23,128.21L502.59,133.82L502.96,139.43L503.68,122.6L504.04,176.83L505.49,145.04L505.85,158.13L506.58,167.48L506.94,144.1L507.3,143.17L507.67,147.84L508.03,171.22L508.39,160.94L508.75,166.55L509.48,139.43L509.84,164.68L510.2,179.64L510.56,154.39L510.93,163.74L511.29,151.58L512.38,124.47L512.74,138.49L513.1,131.01L513.46,135.69L513.83,146.91L514.19,116.99L514.55,123.53L514.91,131.95L515.28,125.4L515.64,133.82L516,126.34" style="vector-effect: non-scaling-stroke; fill: none; stroke: rgb(99, 110, 250); stroke-opacity: 1; stroke-width: 2px; opacity: 1;"/></g><g class="points"/><g class="text"/></g><g class="trace scatter trace364e55" style="stroke-miterlimit: 2; opacity: 1;"><g class="fills"/><g class="errorbars"/><g class="lines"><path class="js-line" d="M0,260.99L0.36,261.92L0.72,260.05L1.45,225.45L1.81,231.06L2.17,247.9L2.54,269.4L2.9,255.38L3.26,260.05L3.62,251.64L3.99,221.71L4.35,223.58L4.71,247.9L5.07,268.47L5.44,257.25L5.8,246.03L6.16,242.29L6.52,245.09L6.88,226.39L7.61,248.83L7.97,246.03L8.33,242.29L9.06,234.81L9.42,254.44L9.78,228.26L10.15,249.77L10.51,238.55L11.23,256.31L11.6,233.87L12.68,263.79L13.04,234.81L13.41,239.48L13.77,237.61L14.13,237.61L14.49,237.61L14.86,239.48L15.22,264.73L15.58,249.77L15.94,231.06L16.31,249.77L16.67,235.74L17.03,238.55L17.39,230.13L17.76,247.9L18.12,246.96L18.48,240.42L18.84,251.64L19.21,227.32L20.29,260.99L20.65,234.81L21.38,248.83L21.74,216.1L22.83,257.25L23.19,256.31L23.92,229.19L24.28,232L24.64,241.35L25.73,270.34L26.09,256.31L26.45,258.18L26.81,256.31L27.18,253.51L28.26,206.75L28.63,218.91L28.99,221.71L29.35,211.43L29.71,227.32L30.08,219.84L30.44,228.26L30.8,243.22L31.16,235.74L31.53,228.26L31.89,228.26L32.25,227.32L32.61,234.81L32.97,231.06L33.34,230.13L33.7,223.58L34.06,236.68L35.15,207.69L35.51,214.23L35.87,215.17L37.32,246.03L37.69,234.81L38.05,234.81L38.41,228.26L38.77,242.29L39.13,227.32L39.5,232L40.95,254.44L41.31,238.55L41.67,233.87L42.03,248.83L42.76,289.97L43.12,260.05L43.85,234.81L44.21,252.57L44.93,285.3L45.29,267.53L45.66,254.44L46.02,270.34L47.11,218.91L47.47,232L47.83,245.09L48.19,232L48.56,232.94L48.92,238.55L49.28,234.81L49.64,230.13L50.37,225.45L50.73,229.19L51.09,240.42L51.46,225.45L52.18,259.12L52.54,236.68L52.9,222.65L53.27,241.35L53.63,255.38L54.72,226.39L55.8,260.05L56.17,255.38L56.53,215.17L56.89,234.81L57.25,224.52L57.62,200.21L57.98,229.19L58.34,223.58L58.7,219.84L59.43,234.81L59.79,230.13L61.24,260.99L61.6,253.51L61.96,258.18L62.33,247.9L62.69,245.09L63.05,272.21L63.41,253.51L63.78,276.88L64.14,268.47L64.5,285.3L65.22,238.55L65.59,260.05L65.95,252.57L66.31,269.4L68.49,236.68L68.85,247.9L69.57,242.29L69.94,205.82L70.3,219.84L70.66,200.21L71.75,226.39L72.11,217.04L72.47,182.44L72.83,216.1L73.2,198.34L73.56,204.88L73.92,193.66L74.65,213.3L75.01,204.88L75.37,209.56L75.73,201.14L76.1,183.38L76.46,197.4L76.82,188.99L77.18,188.05L77.54,196.47L77.91,221.71L78.27,196.47L78.63,188.99L78.99,228.26L79.36,201.14L79.72,211.43L80.08,215.17L80.44,210.49L80.81,208.62L81.17,194.6L81.53,220.78L81.89,197.4L82.26,201.14L83.71,169.35L84.07,199.27L84.79,200.21L85.15,167.48L85.52,183.38L85.88,184.31L86.24,171.22L86.6,170.29L86.97,173.09L87.33,174.03L87.69,185.25L88.05,192.73L88.42,188.99L88.78,169.35L89.87,183.38L90.23,182.44L90.59,177.77L90.95,178.7L91.31,158.13L92.4,196.47L92.76,191.79L93.49,221.71L93.85,201.14L94.21,246.03L94.58,232.94L94.94,225.45L95.3,206.75L95.66,217.04L96.03,220.78L96.75,228.26L97.11,251.64L98.2,201.14L98.56,217.04L99.65,191.79L100.01,201.14L100.37,194.6L100.74,211.43L101.1,210.49L101.46,199.27L101.82,211.43L102.19,203.95L102.55,208.62L102.91,190.86L103.27,223.58L103.63,230.13L104,188.05L104.36,188.05L104.72,197.4L105.45,179.64L105.81,188.99L106.53,201.14L106.9,169.35L107.62,188.99L107.98,178.7L109.07,210.49L109.43,201.14L109.79,200.21L110.16,194.6L110.88,244.16L111.24,232L111.61,228.26L112.33,214.23L112.69,239.48L113.42,247.9L113.78,212.36L114.14,213.3L114.51,206.75L115.59,201.14L115.96,219.84L116.68,193.66L117.04,201.14L117.4,214.23L118.13,184.31L118.49,192.73L118.85,181.51L119.22,203.95L119.58,175.9L120.3,200.21L120.67,189.92L121.03,202.08L121.39,188.05L122.12,218.91L122.48,197.4L122.84,198.34L123.2,222.65L124.29,199.27L124.65,220.78L125.01,220.78L125.38,212.36L125.74,217.04L126.1,200.21L126.46,205.82L126.83,199.27L127.19,185.25L127.55,203.95L127.91,208.62L128.28,228.26L128.64,232L129,165.61L129.36,177.77L129.72,153.45L130.09,203.95L130.45,185.25L130.81,174.03L131.17,174.96L131.54,180.57L131.9,174.03L132.26,174.96L132.62,185.25L132.99,183.38L133.35,185.25L133.71,188.99L134.8,205.82L135.16,197.4L136.97,229.19L137.33,223.58L138.78,205.82L139.15,214.23L139.51,198.34L139.87,218.91L140.23,214.23L140.6,227.32L140.96,209.56L141.32,210.49L141.68,238.55L142.04,194.6L142.41,207.69L142.77,200.21L143.13,185.25L143.49,223.58L144.58,183.38L144.94,196.47L145.67,176.83L146.03,182.44L146.39,190.86L147.12,168.42L147.48,170.29L147.84,175.9L148.21,164.68L148.57,174.96L148.93,165.61L150.38,203.01L150.74,202.08L151.1,202.08L151.47,209.56L151.83,211.43L152.19,237.61L152.55,235.74L152.92,218.91L154,204.88L154.37,208.62L155.45,224.52L155.81,203.95L156.18,205.82L156.54,177.77L156.9,177.77L157.26,186.18L157.99,160.94L158.35,176.83L159.08,144.1L159.44,159.06L159.8,149.71L160.16,160L161.25,193.66L161.61,187.12L161.97,196.47L162.7,180.57L163.06,184.31L163.42,183.38L163.79,185.25L164.15,151.58L165.24,181.51L165.6,174.03L166.32,203.95L166.69,188.05L167.41,199.27L167.77,164.68L168.13,180.57L168.5,179.64L168.86,171.22L169.58,156.26L169.95,148.78L170.31,152.52L170.67,144.1L171.03,146.91L171.4,135.69L172.48,185.25L172.85,161.87L173.21,167.48L173.57,165.61L173.93,152.52L174.29,145.97L174.66,191.79L175.38,160.94L175.74,166.55L176.11,172.16L176.47,161.87L176.83,187.12L177.19,198.34L177.56,188.99L177.92,160.94L178.64,163.74L179.01,145.97L179.37,153.45L179.73,177.77L180.82,138.49L181.18,147.84L181.54,140.36L181.9,158.13L182.27,188.05L182.63,169.35L182.99,168.42L183.35,162.81L183.72,167.48L184.08,175.9L184.44,229.19L184.8,197.4L185.17,197.4L186.25,151.58L186.62,166.55L186.98,171.22L187.34,142.23L187.7,166.55L188.06,144.1L188.43,151.58L188.79,145.97L189.15,158.13L189.51,151.58L189.88,178.7L190.6,156.26L190.96,163.74L191.33,161.87L191.69,173.09L192.41,212.36L192.78,190.86L193.5,217.97L193.86,213.3L194.22,209.56L194.95,193.66L195.31,214.23L195.67,176.83L196.04,184.31L196.4,183.38L196.76,200.21L197.12,192.73L197.49,188.99L197.85,195.53L198.21,186.18L198.57,175.9L198.94,181.51L199.3,176.83L199.66,189.92L200.02,177.77L200.38,174.03L201.47,190.86L201.83,181.51L202.92,165.61L203.28,186.18L204.37,177.77L204.73,185.25L205.1,175.9L205.46,188.05L206.91,205.82L207.27,184.31L208.36,202.08L208.72,197.4L209.08,198.34L209.44,191.79L210.17,202.08L210.53,195.53L211.26,221.71L211.62,210.49L211.98,195.53L212.34,200.21L212.71,201.14L213.07,203.95L213.43,195.53L213.79,206.75L214.15,196.47L214.52,179.64L215.97,167.48L216.33,173.09L216.69,187.12L217.05,178.7L217.42,156.26L217.78,160L218.14,145.04L219.23,168.42L219.59,173.09L220.31,203.95L220.68,185.25L221.76,164.68L222.13,204.88L222.85,223.58L223.21,205.82L223.58,199.27L223.94,177.77L224.3,170.29L224.66,195.53L225.03,197.4L225.39,217.97L226.11,177.77L226.47,183.38L226.84,174.96L227.92,224.52L228.29,202.08L228.65,190.86L229.01,199.27L229.37,217.97L229.74,215.17L230.1,226.39L230.82,232L231.19,219.84L231.55,234.81L231.91,220.78L232.27,220.78L232.63,232L233,227.32L233.36,206.75L234.45,220.78L234.81,222.65L235.17,219.84L235.53,228.26L236.26,203.01L236.62,215.17L236.98,215.17L237.35,217.97L237.71,246.96L238.07,236.68L238.43,221.71L239.16,238.55L239.52,222.65L239.88,216.1L240.24,237.61L240.97,210.49L241.33,213.3L241.69,217.97L242.06,214.23L242.42,219.84L242.78,217.04L243.14,222.65L243.51,182.44L243.87,217.97L244.23,213.3L244.59,233.87L244.96,208.62L245.32,237.61L245.68,227.32L246.04,214.23L246.4,234.81L246.77,232L247.13,228.26L247.49,228.26L247.85,227.32L248.58,238.55L248.94,232.94L250.03,227.32L250.39,232L250.75,245.09L251.12,215.17L251.84,231.06L252.2,215.17L253.65,247.9L254.01,231.06L254.38,237.61L254.74,226.39L255.1,238.55L255.46,237.61L255.83,230.13L256.91,219.84L257.28,243.22L257.64,232L258,258.18L258.72,214.23L259.09,220.78L259.45,192.73L260.54,211.43L260.9,225.45L261.26,212.36L261.62,167.48L261.99,170.29L262.35,208.62L263.44,187.12L263.8,181.51L264.16,182.44L264.52,164.68L265.61,194.6L265.97,187.12L266.33,198.34L266.7,185.25L267.78,176.83L268.15,201.14L268.51,194.6L268.87,200.21L269.23,160L269.6,155.32L269.96,162.81L271.04,199.27L271.41,193.66L272.13,165.61L272.49,184.31L272.86,164.68L273.22,190.86L273.58,236.68L273.94,158.13L274.31,158.13L274.67,176.83L275.39,159.06L275.76,162.81L276.12,188.05L276.84,156.26L277.21,162.81L277.57,178.7L277.93,174.03L278.29,152.52L278.65,177.77L279.02,157.19L279.38,147.84L279.74,159.06L280.1,152.52L280.47,141.3L281.55,181.51L281.92,177.77L282.64,158.13L283,179.64L283.73,169.35L284.09,183.38L284.81,143.17L285.18,155.32L285.54,141.3L286.26,183.38L286.63,158.13L287.35,133.82L287.71,145.04L289.16,203.95L289.53,176.83L290.61,145.04L290.97,180.57L291.34,188.99L291.7,147.84L292.06,152.52L292.42,140.36L293.87,191.79L294.24,164.68L294.6,139.43L294.96,140.36L295.32,143.17L296.77,183.38L297.13,181.51L297.5,174.96L298.58,223.58L298.95,204.88L299.31,217.97L299.67,205.82L300.03,202.08L300.4,200.21L300.76,226.39L301.85,193.66L302.21,192.73L302.57,186.18L302.93,200.21L303.29,206.75L303.66,191.79L304.02,204.88L304.38,191.79L304.74,190.86L305.83,212.36L306.19,209.56L306.56,228.26L306.92,194.6L307.64,167.48L308.01,177.77L308.37,167.48L308.73,188.99L309.09,219.84L309.46,210.49L309.82,186.18L311.63,223.58L311.99,204.88L313.08,224.52L313.44,224.52L314.53,152.52L314.89,149.71L315.25,157.19L315.62,154.39L315.98,145.97L317.06,209.56L317.43,188.99L317.79,189.92L318.15,184.31L318.88,225.45L319.24,221.71L319.6,206.75L319.96,208.62L320.33,220.78L320.69,215.17L321.05,216.1L321.41,239.48L321.78,227.32L322.14,235.74L322.5,254.44L324.31,201.14L324.67,203.95L325.04,217.04L325.4,210.49L325.76,199.27L326.49,192.73L326.85,209.56L327.21,204.88L327.57,207.69L327.94,187.12L328.3,176.83L328.66,203.95L329.75,225.45L330.11,217.04L330.83,209.56L331.2,220.78L332.28,238.55L332.65,235.74L333.01,228.26L333.37,236.68L334.46,205.82L334.82,221.71L335.91,234.81L336.27,229.19L336.63,226.39L336.99,203.95L337.36,225.45L337.72,217.04L338.08,214.23L338.44,214.23L338.81,209.56L339.89,234.81L340.26,214.23L340.98,208.62L341.34,214.23L341.71,195.53L342.07,204.88L342.43,225.45L343.52,213.3L343.88,210.49L344.24,203.95L344.6,222.65L345.33,232L345.69,217.97L346.42,211.43L346.78,216.1L347.14,212.36L347.5,219.84L348.59,194.6L348.95,195.53L349.31,189.92L349.68,201.14L350.04,220.78L350.4,210.49L350.76,202.08L351.13,197.4L351.49,198.34L351.85,177.77L352.21,164.68L352.58,174.96L352.94,168.42L354.39,225.45L354.75,224.52L355.11,228.26L355.84,231.06L356.2,225.45L356.92,199.27L357.29,205.82L357.65,205.82L358.01,212.36L358.37,207.69L358.74,211.43L359.1,214.23L359.46,195.53L359.82,205.82L360.19,182.44L360.91,197.4L361.27,189.92L361.63,224.52L362,202.08L362.36,199.27L362.72,203.95L363.08,193.66L363.45,207.69L363.81,202.08L364.17,191.79L364.53,188.05L364.9,218.91L365.26,193.66L365.62,194.6L365.98,214.23L366.71,195.53L367.07,216.1L367.79,203.01L368.16,215.17L368.52,198.34L368.88,210.49L369.24,207.69L369.61,229.19L369.97,223.58L370.33,207.69L370.69,207.69L371.06,203.01L371.78,193.66L372.14,201.14L372.87,179.64L373.23,191.79L373.96,189.92L374.32,171.22L374.68,182.44L375.04,161.87L375.4,145.97L375.77,165.61L376.13,167.48L376.49,150.65L377.58,203.95L377.94,191.79L379.03,182.44L379.39,193.66L379.75,196.47L380.12,186.18L380.84,199.27L381.2,198.34L381.56,190.86L381.93,169.35L382.29,187.12L382.65,180.57L383.01,149.71L383.38,164.68L383.74,163.74L384.1,154.39L384.46,157.19L384.83,166.55L385.19,170.29L385.55,166.55L385.91,156.26L386.28,151.58L386.64,133.82L387,172.16L387.36,137.56L387.72,148.78L388.09,140.36L388.45,146.91L388.81,150.65L389.17,145.97L389.54,150.65L389.9,168.42L390.26,164.68L390.62,176.83L390.99,149.71L391.35,153.45L391.71,157.19L392.07,160L392.44,157.19L392.8,129.14L393.16,131.95L393.52,128.21L393.88,101.09L394.25,141.3L395.33,117.92L395.7,126.34L396.06,136.62L396.42,185.25L397.51,108.57L397.87,107.64L398.23,109.51L398.6,107.64L398.96,106.7L400.77,140.36L401.13,125.4L401.86,139.43L402.22,113.25L402.94,159.06L403.31,142.23L403.67,135.69L404.03,154.39L404.39,130.08L404.76,145.97L405.12,140.36L406.21,88L406.57,95.48L407.65,109.51L408.02,120.73L408.38,88L408.74,104.83L409.1,105.77L410.55,86.13L410.92,69.3L411.28,90.81L411.64,87.06L412,85.19L412.37,90.81L412.73,112.31L413.81,61.82L414.18,83.32L414.54,88L414.9,106.7L415.63,122.6L415.99,71.17L417.08,51.53L417.44,73.97L418.16,97.35L418.53,68.36L418.89,71.17L419.25,70.23L419.61,70.23L420.34,52.47L420.7,68.36L421.42,31.9L421.79,48.73L422.15,56.21L422.51,48.73L422.87,48.73L423.24,65.56L423.6,58.08L423.96,47.79L425.05,62.75L425.41,118.86L426.5,79.58L426.86,104.83L427.95,68.36L428.31,88L429.03,69.3L429.4,61.82L429.76,56.21L430.12,59.95L430.48,57.14L431.57,78.65L431.93,55.27L432.66,41.25L433.02,71.17L433.38,56.21L433.74,57.14L434.11,64.62L434.47,81.45L434.83,62.75L435.19,53.4L435.56,16L435.92,48.73L436.28,41.25L436.64,37.51L437.01,24.42L437.37,38.44L437.73,36.57L438.09,27.22L438.46,47.79L438.82,29.09L439.18,36.57L439.54,35.64L439.9,30.96L440.27,36.57L440.63,30.96L440.99,54.34L441.35,49.66L441.72,24.42L442.8,16.94L443.17,75.84L443.53,77.71L443.89,64.62L444.98,32.83L445.34,54.34L446.06,89.87L446.43,80.52L447.51,44.05L447.88,47.79L448.96,88.94L449.33,67.43L450.05,88L450.41,81.45L450.78,104.83L451.14,95.48L451.5,121.66L451.86,71.17L452.22,102.96L452.59,99.22L452.95,81.45L453.31,103.9L453.67,90.81L454.04,112.31L454.76,65.56L455.12,89.87L455.49,81.45L455.85,107.64L456.21,106.7L456.57,112.31L456.94,91.74L457.66,92.68L458.02,90.81L458.38,100.16L458.75,93.61L459.11,88.94L460.2,73.04L460.56,82.39L460.92,69.3L461.28,89.87L461.65,89.87L462.01,68.36L462.37,60.88L462.73,73.97L463.82,102.96L464.18,78.65L464.54,72.1L464.91,81.45L466.36,119.79L466.72,102.03L467.08,114.18L467.44,95.48L468.53,109.51L468.89,115.12L469.26,107.64L469.62,112.31L469.98,119.79L470.34,103.9L470.71,116.05L471.07,142.23L471.43,108.57L471.79,136.62L472.15,134.75L472.52,129.14L472.88,131.01L473.24,131.95L473.6,130.08L473.97,123.53L475.42,132.88L475.78,125.4L476.14,115.12L476.5,133.82L477.59,118.86L477.95,116.05L478.31,108.57L478.68,116.99L479.04,109.51L479.4,138.49L479.76,139.43L480.13,121.66L480.49,120.73L480.85,105.77L482.3,132.88L482.66,123.53L483.03,113.25L483.39,115.12L483.75,124.47L484.11,118.86L484.47,131.01L484.84,102.96L485.2,114.18L485.56,109.51L485.92,110.44L486.29,133.82L486.65,149.71L487.01,139.43L487.37,137.56L487.74,136.62L488.1,127.27L488.82,133.82L489.19,124.47L489.91,139.43L490.27,129.14L491,139.43L491.36,126.34L491.72,153.45L492.08,150.65L492.45,132.88L492.81,126.34L493.17,132.88L493.53,127.27L493.9,169.35L494.26,153.45L494.62,146.91L496.43,176.83L496.79,163.74L497.16,165.61L497.52,145.97L499.33,172.16L499.69,157.19L500.06,142.23L500.78,143.17L501.14,146.91L501.87,159.06L502.23,154.39L502.59,155.32L502.96,137.56L503.32,160L503.68,157.19L504.04,162.81L504.4,182.44L504.77,172.16L505.13,175.9L505.49,151.58L505.85,160.94L506.22,177.77L506.58,217.04L506.94,212.36L507.3,184.31L507.67,180.57L508.03,181.51L508.39,189.92L509.12,202.08L509.48,200.21L509.84,189.92L510.2,175.9L510.56,184.31L510.93,188.99L511.29,187.12L511.65,196.47L512.01,200.21L512.38,171.22L513.1,160.94L513.46,161.87L513.83,171.22L514.19,178.7L514.55,209.56L514.91,158.13L515.28,176.83L515.64,193.66L516,194.6" style="vector-effect: non-scaling-stroke; fill: none; stroke: rgb(239, 85, 59); stroke-opacity: 1; stroke-width: 2px; opacity: 1;"/></g><g class="points"/><g class="text"/></g><g class="trace scatter tracee4853c" style="stroke-miterlimit: 2; opacity: 1;"><g class="fills"/><g class="errorbars"/><g class="lines"><path class="js-line" d="M0,283.43L0.36,289.04L0.72,263.79L1.45,248.83L1.81,266.6L2.54,240.42L2.9,245.09L3.26,238.55L3.62,233.87L3.99,247.9L4.35,260.99L4.71,242.29L5.44,225.45L5.8,232.94L6.52,252.57L6.88,239.48L7.61,249.77L7.97,238.55L8.33,229.19L8.7,239.48L9.06,244.16L9.42,276.88L9.78,243.22L10.51,245.09L10.87,227.32L11.23,245.09L11.6,231.06L11.96,232.94L12.68,219.84L13.04,232L13.41,216.1L13.77,231.06L14.13,232.94L14.49,256.31L14.86,246.96L15.22,228.26L15.94,211.43L16.31,225.45L17.03,256.31L17.39,249.77L17.76,240.42L18.48,217.97L18.84,235.74L19.57,266.6L19.93,261.92L20.29,243.22L20.65,258.18L21.02,250.7L21.38,232.94L21.74,240.42L22.1,230.13L22.47,229.19L22.83,237.61L23.92,210.49L24.28,201.14L25.73,237.61L26.09,224.52L26.45,227.32L26.81,244.16L28.26,189.92L28.63,188.99L28.99,190.86L29.35,201.14L30.44,212.36L30.8,192.73L31.53,219.84L31.89,209.56L32.61,237.61L32.97,235.74L33.34,235.74L33.7,245.09L34.06,241.35L34.42,234.81L34.79,220.78L35.15,242.29L35.51,273.14L35.87,247.9L36.24,263.79L36.6,254.44L36.96,259.12L37.32,284.36L38.05,290.91L38.41,294.65L39.13,274.08L39.5,294.65L39.86,284.36L40.22,289.04L40.58,304L41.67,262.86L42.03,272.21L42.4,275.01L42.76,291.84L43.12,251.64L43.48,281.56L43.85,284.36L44.21,264.73L44.57,272.21L44.93,276.88L45.29,264.73L45.66,272.21L46.02,278.75L47.47,256.31L47.83,245.09L48.19,236.68L48.56,253.51L48.92,259.12L49.28,245.09L49.64,239.48L50.01,211.43L50.37,237.61L50.73,226.39L51.09,230.13L51.46,244.16L51.82,241.35L52.18,241.35L52.54,241.35L52.9,244.16L53.27,244.16L53.63,247.9L54.72,255.38L55.44,253.51L55.8,252.57L56.17,238.55L56.53,248.83L56.89,229.19L57.25,241.35L57.62,213.3L59.06,252.57L59.43,246.03L60.15,229.19L60.51,230.13L60.88,238.55L61.24,260.99L61.6,259.12L61.96,236.68L63.05,259.12L63.41,251.64L64.14,254.44L64.5,245.09L64.86,246.96L65.22,237.61L65.59,237.61L65.95,245.09L66.31,240.42L66.67,245.09L67.04,247.9L67.4,238.55L67.76,250.7L69.21,219.84L69.57,219.84L69.94,223.58L70.3,221.71L70.66,234.81L72.83,182.44L73.2,217.04L73.92,218.91L74.28,217.97L74.65,212.36L75.01,199.27L75.37,220.78L75.73,227.32L76.1,224.52L76.46,215.17L76.82,211.43L77.18,218.91L77.54,208.62L77.91,220.78L78.27,226.39L78.63,203.01L79.36,185.25L79.72,209.56L80.08,180.57L80.44,210.49L80.81,203.95L81.17,217.04L81.53,199.27L81.89,203.95L82.26,203.01L82.62,195.53L83.34,210.49L83.71,204.88L84.07,200.21L84.43,209.56L85.15,199.27L85.52,204.88L86.6,225.45L86.97,224.52L87.33,215.17L87.69,229.19L88.05,217.97L88.42,192.73L88.78,198.34L89.14,229.19L89.5,210.49L89.87,223.58L90.23,218.91L91.31,174.96L91.68,219.84L92.4,223.58L92.76,219.84L93.13,232.94L93.49,213.3L93.85,187.12L94.21,208.62L94.58,203.95L94.94,200.21L95.3,204.88L95.66,197.4L96.03,217.04L96.75,197.4L97.11,200.21L97.47,203.95L97.84,203.95L98.2,212.36L98.92,188.99L99.29,204.88L100.37,184.31L100.74,216.1L102.19,189.92L102.55,180.57L102.91,177.77L103.27,191.79L103.63,206.75L104,182.44L104.72,208.62L105.08,178.7L106.17,231.06L106.53,211.43L106.9,213.3L107.26,198.34L107.62,196.47L107.98,226.39L108.35,228.26L108.71,223.58L109.07,194.6L109.43,202.08L109.79,217.04L110.16,204.88L110.52,212.36L110.88,237.61L111.24,262.86L111.61,246.03L111.97,254.44L112.33,255.38L112.69,242.29L113.78,268.47L114.14,254.44L114.51,254.44L114.87,272.21L115.96,241.35L116.32,257.25L116.68,240.42L117.04,256.31L117.4,260.05L119.22,209.56L119.58,217.97L120.3,233.87L120.67,251.64L121.75,217.04L122.12,225.45L122.48,232L122.84,222.65L123.56,238.55L123.93,226.39L125.01,265.66L125.38,259.12L125.74,257.25L126.1,241.35L126.83,204.88L127.19,208.62L127.55,204.88L128.64,251.64L129,241.35L129.36,206.75L130.09,244.16L130.45,236.68L130.81,239.48L131.17,233.87L131.54,253.51L132.62,213.3L132.99,217.04L133.35,233.87L133.71,245.09L134.07,229.19L134.44,217.97L134.8,233.87L135.16,236.68L135.52,217.97L136.61,236.68L136.97,221.71L137.33,249.77L137.7,244.16L138.06,237.61L138.42,237.61L138.78,253.51L139.51,206.75L139.87,235.74L140.23,232L140.6,217.97L140.96,220.78L141.32,239.48L141.68,254.44L142.04,232L142.41,210.49L142.77,229.19L143.13,232.94L143.86,246.03L144.22,236.68L144.58,231.06L144.94,250.7L145.31,232.94L145.67,261.92L147.12,254.44L147.48,254.44L148.21,232.94L148.57,235.74L148.93,246.03L149.29,265.66L149.65,253.51L150.02,253.51L150.38,253.51L150.74,265.66L151.1,256.31L151.47,277.82L152.55,265.66L152.92,278.75L153.28,279.69L153.64,268.47L154,281.56L154.37,280.62L154.73,273.14L155.09,276.88L155.45,256.31L156.18,247.9L156.54,249.77L156.9,252.57L157.63,217.04L157.99,226.39L158.35,231.06L158.71,220.78L159.08,217.97L159.44,223.58L159.8,231.06L160.16,221.71L160.53,221.71L160.89,217.04L161.25,214.23L161.61,201.14L162.34,192.73L162.7,168.42L163.79,204.88L164.15,194.6L164.51,206.75L164.87,197.4L165.24,194.6L165.6,189.92L165.96,200.21L166.32,203.01L166.69,189.92L167.05,211.43L167.41,193.66L167.77,195.53L168.13,196.47L168.5,194.6L168.86,199.27L169.22,161.87L169.58,184.31L169.95,174.96L170.31,176.83L170.67,174.96L171.03,168.42L171.4,176.83L171.76,207.69L172.12,210.49L172.48,203.01L172.85,179.64L173.21,199.27L173.57,193.66L173.93,198.34L174.29,218.91L175.02,203.95L175.38,178.7L175.74,165.61L176.11,179.64L176.83,222.65L177.19,199.27L178.64,160L179.01,190.86L180.09,164.68L180.46,167.48L180.82,163.74L181.18,179.64L181.9,211.43L182.27,224.52L183.35,174.96L183.72,184.31L184.8,232.94L185.17,194.6L186.25,158.13L186.62,176.83L186.98,182.44L187.34,205.82L188.79,144.1L189.15,175.9L189.51,189.92L189.88,233.87L190.6,173.09L190.96,182.44L191.33,195.53L191.69,201.14L192.05,219.84L192.41,282.49L192.78,247.9L193.14,226.39L193.86,210.49L194.22,238.55L195.31,207.69L195.67,216.1L196.4,215.17L196.76,227.32L197.12,205.82L197.49,224.52L197.85,225.45L198.57,184.31L198.94,198.34L199.3,204.88L199.66,174.96L200.02,198.34L200.38,191.79L200.75,169.35L201.11,171.22L201.47,163.74L201.83,153.45L202.2,191.79L202.56,210.49L202.92,202.08L203.28,203.95L204.01,188.05L204.37,205.82L205.1,251.64L205.46,224.52L205.82,206.75L206.18,229.19L207.27,243.22L207.63,241.35L207.99,179.64L208.36,204.88L208.72,207.69L209.08,205.82L209.44,218.91L209.81,221.71L210.17,242.29L210.89,191.79L211.26,219.84L211.98,203.01L212.34,212.36L212.71,222.65L213.07,203.95L214.15,179.64L214.52,188.99L214.88,151.58L215.24,190.86L215.6,174.96L215.97,158.13L216.33,159.06L216.69,160.94L217.05,167.48L217.42,162.81L218.14,209.56L218.5,161.87L218.87,170.29L219.23,185.25L219.59,183.38L219.95,189.92L220.31,179.64L220.68,198.34L221.04,165.61L221.4,177.77L221.76,173.09L222.85,237.61L223.21,224.52L223.94,198.34L224.66,199.27L225.03,218.91L225.39,221.71L225.75,210.49L226.84,195.53L227.2,208.62L228.29,222.65L228.65,221.71L229.01,210.49L229.37,231.06L229.74,234.81L230.1,227.32L230.46,242.29L230.82,226.39L231.19,234.81L231.55,238.55L231.91,250.7L232.27,255.38L232.63,216.1L233,202.08L233.36,209.56L233.72,233.87L234.45,211.43L234.81,221.71L235.17,222.65L235.53,212.36L236.26,230.13L236.62,223.58L237.71,251.64L238.07,222.65L238.43,220.78L238.79,223.58L239.16,225.45L239.52,212.36L240.24,232L240.61,216.1L240.97,219.84L241.33,206.75L241.69,211.43L242.06,182.44L242.78,232L243.14,225.45L243.51,214.23L243.87,216.1L244.23,232L244.96,218.91L245.32,224.52L245.68,220.78L246.04,219.84L246.4,223.58L246.77,213.3L247.13,222.65L247.49,241.35L248.22,232L248.58,242.29L248.94,252.57L249.3,237.61L249.67,240.42L250.03,239.48L250.39,251.64L251.48,211.43L251.84,214.23L252.2,225.45L252.56,221.71L252.93,228.26L253.29,259.12L253.65,255.38L254.01,239.48L254.74,232L255.1,218.91L256.19,274.08L256.55,209.56L256.91,233.87L257.64,232.94L258,246.03L258.36,248.83L258.72,258.18L259.81,220.78L260.17,231.06L260.9,262.86L261.26,215.17L261.62,182.44L261.99,237.61L263.07,178.7L263.44,179.64L263.8,211.43L264.16,210.49L264.52,203.95L264.88,195.53L265.25,202.08L265.61,203.95L265.97,204.88L266.33,209.56L266.7,195.53L267.06,200.21L267.42,200.21L267.78,201.14L268.15,210.49L268.51,211.43L268.87,203.95L269.96,185.25L270.32,180.57L271.04,236.68L271.41,200.21L271.77,213.3L272.13,186.18L272.49,207.69L272.86,179.64L273.58,211.43L273.94,204.88L274.31,194.6L274.67,197.4L275.03,188.99L275.76,200.21L276.12,222.65L277.21,186.18L277.57,201.14L277.93,167.48L278.29,184.31L278.65,186.18L279.02,198.34L279.38,167.48L279.74,174.03L280.1,172.16L280.47,197.4L280.83,197.4L281.19,198.34L281.55,200.21L281.92,197.4L282.64,206.75L283,186.18L284.09,240.42L284.45,223.58L284.81,217.04L285.18,221.71L285.54,224.52L286.63,200.21L286.99,208.62L288.08,196.47L288.44,234.81L288.8,201.14L289.16,203.95L289.53,221.71L289.89,205.82L290.25,214.23L290.61,212.36L290.97,232L291.34,217.04L291.7,202.08L292.06,202.08L292.42,200.21L292.79,201.14L293.15,200.21L293.51,204.88L293.87,207.69L294.24,175.9L294.6,166.55L294.96,169.35L295.32,171.22L295.69,171.22L296.05,218.91L296.41,214.23L296.77,190.86L297.13,186.18L297.5,188.05L297.86,164.68L298.95,197.4L299.31,190.86L299.67,183.38L300.4,202.08L300.76,185.25L301.85,208.62L302.21,188.99L302.93,212.36L303.29,230.13L303.66,218.91L304.02,238.55L304.38,250.7L304.74,219.84L305.11,184.31L305.47,213.3L305.83,245.09L306.19,201.14L306.56,223.58L306.92,217.97L307.28,197.4L307.64,208.62L308.01,215.17L309.09,249.77L309.46,232L310.54,209.56L310.9,231.06L311.27,212.36L311.63,223.58L311.99,242.29L313.08,214.23L313.44,227.32L313.8,176.83L314.17,178.7L314.53,182.44L314.89,182.44L315.25,185.25L315.62,172.16L315.98,174.96L316.34,195.53L317.06,199.27L317.43,202.08L317.79,201.14L318.15,216.1L319.24,260.99L319.6,246.03L319.96,240.42L320.33,248.83L320.69,258.18L321.05,241.35L321.41,259.12L321.78,254.44L322.14,243.22L322.5,221.71L322.86,235.74L323.22,241.35L323.59,232L323.95,237.61L324.31,233.87L325.04,205.82L325.4,208.62L325.76,230.13L326.12,228.26L326.49,244.16L326.85,246.03L327.21,217.04L327.57,215.17L327.94,239.48L328.3,245.09L328.66,232L329.38,270.34L329.75,236.68L330.11,234.81L330.47,222.65L330.83,226.39L331.2,238.55L331.92,272.21L332.28,257.25L332.65,251.64L333.01,254.44L333.37,269.4L334.46,232L334.82,217.97L335.18,232L335.54,218.91L335.91,227.32L336.27,217.97L336.63,220.78L336.99,224.52L337.72,207.69L338.08,220.78L338.44,205.82L338.81,210.49L339.17,239.48L339.53,246.96L339.89,241.35L340.26,228.26L341.71,238.55L342.07,243.22L343.15,197.4L343.52,224.52L343.88,207.69L344.24,236.68L345.69,211.43L346.05,214.23L346.42,217.04L346.78,215.17L347.14,232.94L347.5,246.03L347.87,232.94L348.23,233.87L348.59,237.61L348.95,226.39L349.68,234.81L350.04,227.32L350.76,208.62L351.13,218.91L351.49,201.14L351.85,214.23L352.21,211.43L352.58,205.82L352.94,178.7L353.66,189.92L354.03,204.88L354.75,237.61L355.11,232.94L355.47,228.26L356.2,252.57L356.56,246.03L356.92,229.19L357.29,254.44L357.65,233.87L358.01,237.61L358.37,233.87L358.74,237.61L359.1,240.42L359.46,222.65L359.82,225.45L360.19,228.26L360.55,229.19L360.91,227.32L361.63,243.22L362,239.48L362.36,234.81L363.08,212.36L363.45,227.32L363.81,231.06L364.17,214.23L364.53,201.14L364.9,224.52L365.26,232L365.62,208.62L365.98,206.75L366.35,211.43L366.71,209.56L367.07,228.26L367.43,235.74L367.79,227.32L368.16,216.1L368.52,227.32L368.88,232L369.24,243.22L369.61,229.19L371.06,200.21L371.42,211.43L371.78,212.36L372.14,188.99L372.51,187.12L372.87,216.1L373.23,224.52L373.59,207.69L373.96,207.69L374.32,184.31L374.68,179.64L375.04,190.86L375.77,160L376.13,170.29L376.49,177.77L376.85,174.96L377.22,194.6L377.94,213.3L378.3,186.18L378.67,180.57L379.03,183.38L379.39,188.99L379.75,184.31L380.12,219.84L381.2,160L381.56,182.44L381.93,177.77L382.29,192.73L382.65,190.86L383.01,197.4L384.1,161.87L384.46,176.83L384.83,188.99L385.19,179.64L385.55,169.35L386.28,154.39L386.64,166.55L387,147.84L387.36,160L387.72,180.57L388.09,199.27L388.45,168.42L388.81,160L389.17,172.16L390.26,226.39L390.62,220.78L390.99,186.18L391.35,184.31L391.71,190.86L392.44,155.32L392.8,185.25L393.88,137.56L394.25,182.44L395.7,145.04L396.06,165.61L396.42,239.48L396.78,181.51L397.15,175.9L397.51,136.62L397.87,154.39L398.23,154.39L398.6,155.32L398.96,139.43L399.68,160L400.04,168.42L401.13,139.43L401.49,145.97L401.86,141.3L402.22,145.97L402.58,202.08L404.03,179.64L404.39,177.77L404.76,175.9L405.12,169.35L405.48,147.84L405.84,159.06L406.21,172.16L406.57,134.75L406.93,153.45L407.29,148.78L407.65,142.23L408.02,149.71L408.74,132.88L409.1,140.36L409.47,145.04L409.83,138.49L410.19,147.84L410.55,142.23L411.28,128.21L411.64,114.18L412,137.56L412.37,124.47L412.73,157.19L413.81,120.73L414.18,130.08L414.54,132.88L414.9,131.95L415.26,151.58L415.63,148.78L415.99,130.08L417.08,146.91L417.44,141.3L417.8,159.06L418.16,145.04L418.53,123.53L418.89,140.36L419.61,139.43L419.97,126.34L421.42,79.58L421.79,96.42L422.87,116.05L423.24,93.61L423.6,116.99L423.96,84.26L424.32,94.55L424.69,93.61L425.05,82.39L426.13,121.66L426.5,98.29L426.86,103.9L427.22,94.55L427.58,139.43L427.95,107.64L428.31,100.16L428.67,98.29L429.03,80.52L429.4,91.74L429.76,88.94L430.12,71.17L430.85,104.83L431.21,99.22L431.57,101.09L432.29,88L432.66,88.94L433.02,112.31L433.38,112.31L433.74,106.7L434.11,109.51L434.47,88.94L434.83,102.03L435.19,84.26L435.56,68.36L435.92,81.45L436.28,99.22L437.73,52.47L438.09,91.74L438.46,116.05L438.82,102.03L439.18,72.1L439.9,43.12L440.27,48.73L440.63,60.88L441.35,78.65L441.72,64.62L442.08,85.19L442.44,83.32L442.8,64.62L443.17,78.65L443.53,123.53L444.25,92.68L444.62,113.25L445.34,105.77L445.7,145.04L446.06,155.32L446.43,129.14L447.88,113.25L448.24,132.88L448.96,116.05L449.33,125.4L449.69,119.79L450.05,100.16L451.14,151.58L451.5,131.95L452.59,145.97L452.95,143.17L453.31,134.75L453.67,140.36L454.04,147.84L454.76,132.88L455.12,126.34L455.49,144.1L455.85,122.6L456.21,112.31L456.57,143.17L456.94,147.84L457.3,135.69L458.02,154.39L458.38,131.01L458.75,122.6L459.11,150.65L459.47,149.71L459.83,152.52L460.92,135.69L461.28,137.56L461.65,137.56L462.01,147.84L462.37,141.3L462.73,129.14L463.1,114.18L463.46,131.01L463.82,135.69L464.18,123.53L464.54,108.57L464.91,117.92L465.27,123.53L465.99,145.04L466.36,130.08L466.72,131.95L467.08,107.64L468.17,137.56L468.53,134.75L468.89,138.49L469.26,124.47L470.34,109.51L470.71,99.22L471.07,128.21L471.43,126.34L471.79,102.96L472.15,130.08L472.52,119.79L472.88,108.57L473.24,108.57L473.6,98.29L473.97,102.03L474.33,119.79L474.69,97.35L475.05,108.57L475.42,113.25L475.78,117.92L476.14,115.12L476.5,102.03L476.87,130.08L477.23,119.79L477.59,106.7L478.31,120.73L478.68,96.42L479.4,142.23L479.76,130.08L480.13,125.4L480.49,138.49L480.85,116.05L481.21,123.53L481.58,170.29L482.66,127.27L483.03,139.43L483.39,137.56L483.75,119.79L484.11,120.73L484.47,132.88L484.84,131.01L485.2,136.62L485.56,126.34L485.92,141.3L487.01,163.74L487.37,153.45L487.74,145.04L488.1,164.68L488.46,176.83L488.82,139.43L489.55,155.32L489.91,177.77L490.63,156.26L491,164.68L491.36,124.47L491.72,145.04L492.08,139.43L492.45,165.61L492.81,157.19L493.17,160L493.9,131.95L494.26,136.62L494.62,155.32L495.35,136.62L495.71,142.23L496.07,138.49L496.43,141.3L496.79,127.27L497.16,132.88L497.52,127.27L497.88,145.97L498.24,154.39L498.61,139.43L498.97,131.95L499.33,140.36L500.06,158.13L500.42,145.04L500.78,125.4L501.14,128.21L501.51,143.17L502.59,126.34L502.96,126.34L503.32,119.79L503.68,131.01L504.04,147.84L504.4,115.12L505.13,166.55L505.49,132.88L506.22,148.78L506.58,195.53L507.67,153.45L508.03,160.94L508.39,165.61L509.12,160.94L509.48,147.84L509.84,151.58L510.2,145.04L510.56,160L510.93,148.78L511.29,145.97L511.65,130.08L512.01,137.56L512.38,144.1L512.74,116.05L513.1,125.4L513.46,118.86L514.55,162.81L514.91,143.17L515.64,123.53L516,128.21" style="vector-effect: non-scaling-stroke; fill: none; stroke: rgb(0, 204, 150); stroke-opacity: 1; stroke-width: 2px; opacity: 1;"/></g><g class="points"/><g class="text"/></g></g></g><g class="overplot"/><path class="xlines-above crisp" d="M0,0" style="fill: none;"/><path class="ylines-above crisp" d="M0,0" style="fill: none;"/><g class="overlines-above"/><g class="xaxislayer-above"><g class="xtick"><text text-anchor="middle" x="0" y="433" transform="translate(80,0)" style="font-family: 'Open Sans', verdana, arial, sans-serif; font-size: 12px; fill: rgb(42, 63, 95); fill-opacity: 1; white-space: pre;">2017</text></g><g class="xtick"><text text-anchor="middle" x="0" y="433" transform="translate(212.26,0)" style="font-family: 'Open Sans', verdana, arial, sans-serif; font-size: 12px; fill: rgb(42, 63, 95); fill-opacity: 1; white-space: pre;">2018</text></g><g class="xtick"><text text-anchor="middle" x="0" y="433" transform="translate(344.52,0)" style="font-family: 'Open Sans', verdana, arial, sans-serif; font-size: 12px; fill: rgb(42, 63, 95); fill-opacity: 1; white-space: pre;">2019</text></g><g class="xtick"><text text-anchor="middle" x="0" y="433" transform="translate(476.78,0)" style="font-family: 'Open Sans', verdana, arial, sans-serif; font-size: 12px; fill: rgb(42, 63, 95); fill-opacity: 1; white-space: pre;">2020</text></g></g><g class="yaxislayer-above"><g class="ytick"><text text-anchor="end" x="79" y="4.199999999999999" transform="translate(0,403.06)" style="font-family: 'Open Sans', verdana, arial, sans-serif; font-size: 12px; fill: rgb(42, 63, 95); fill-opacity: 1; white-space: pre;">4.6</text></g><g class="ytick"><text text-anchor="end" x="79" y="4.199999999999999" transform="translate(0,365.66)" style="font-family: 'Open Sans', verdana, arial, sans-serif; font-size: 12px; fill: rgb(42, 63, 95); fill-opacity: 1; white-space: pre;">4.8</text></g><g class="ytick"><text text-anchor="end" x="79" y="4.199999999999999" transform="translate(0,328.26)" style="font-family: 'Open Sans', verdana, arial, sans-serif; font-size: 12px; fill: rgb(42, 63, 95); fill-opacity: 1; white-space: pre;">5</text></g><g class="ytick"><text text-anchor="end" x="79" y="4.199999999999999" transform="translate(0,290.86)" style="font-family: 'Open Sans', verdana, arial, sans-serif; font-size: 12px; fill: rgb(42, 63, 95); fill-opacity: 1; white-space: pre;">5.2</text></g><g class="ytick"><text text-anchor="end" x="79" y="4.199999999999999" transform="translate(0,253.45)" style="font-family: 'Open Sans', verdana, arial, sans-serif; font-size: 12px; fill: rgb(42, 63, 95); fill-opacity: 1; white-space: pre;">5.4</text></g><g class="ytick"><text text-anchor="end" x="79" y="4.199999999999999" transform="translate(0,216.05)" style="font-family: 'Open Sans', verdana, arial, sans-serif; font-size: 12px; fill: rgb(42, 63, 95); fill-opacity: 1; white-space: pre;">5.6</text></g><g class="ytick"><text text-anchor="end" x="79" y="4.199999999999999" transform="translate(0,178.65)" style="font-family: 'Open Sans', verdana, arial, sans-serif; font-size: 12px; fill: rgb(42, 63, 95); fill-opacity: 1; white-space: pre;">5.8</text></g><g class="ytick"><text text-anchor="end" x="79" y="4.199999999999999" transform="translate(0,141.25)" style="font-family: 'Open Sans', verdana, arial, sans-serif; font-size: 12px; fill: rgb(42, 63, 95); fill-opacity: 1; white-space: pre;">6</text></g><g class="ytick"><text text-anchor="end" x="79" y="4.199999999999999" transform="translate(0,103.84)" style="font-family: 'Open Sans', verdana, arial, sans-serif; font-size: 12px; fill: rgb(42, 63, 95); fill-opacity: 1; white-space: pre;">6.2</text></g></g><g class="overaxes-above"/></g></g><g class="polarlayer"/><g class="ternarylayer"/><g class="geolayer"/><g class="funnelarealayer"/><g class="pielayer"/><g class="treemaplayer"/><g class="sunburstlayer"/><g class="glimages"/><defs id="topdefs-a87208"><g class="clips"/><clipPath id="legenda87208"><rect width="82" height="83" x="0" y="0"/></clipPath></defs><g class="layer-above"><g class="imagelayer"/><g class="shapelayer"/></g><g class="infolayer"><g class="legend" pointer-events="all" transform="translate(606.32, 100)"><rect class="bg" shape-rendering="crispEdges" width="82" height="83" x="0" y="0" style="stroke: rgb(68, 68, 68); stroke-opacity: 1; fill: rgb(255, 255, 255); fill-opacity: 1; stroke-width: 0px;"/><g class="scrollbox" transform="translate(0, 0)" clip-path="url('#legenda87208')"><text class="legendtitletext" text-anchor="start" x="2" y="15.600000000000001" style="font-family: 'Open Sans', verdana, arial, sans-serif; font-size: 12px; fill: rgb(42, 63, 95); fill-opacity: 1; white-space: pre;">Oceania</text><g class="groups"><g class="traces" transform="translate(0, 30.1)" style="opacity: 1;"><text class="legendtext" text-anchor="start" x="40" y="4.680000000000001" style="font-family: 'Open Sans', verdana, arial, sans-serif; font-size: 12px; fill: rgb(42, 63, 95); fill-opacity: 1; white-space: pre;">Global</text><g class="layers" style="opacity: 1;"><g class="legendfill"/><g class="legendlines"><path class="js-line" d="M5,0h30" style="fill: none; stroke: rgb(99, 110, 250); stroke-opacity: 1; stroke-width: 2px;"/></g><g class="legendsymbols"><g class="legendpoints"/></g></g><rect class="legendtoggle" x="0" y="-9.5" width="76.09375" height="19" style="fill: rgb(0, 0, 0); fill-opacity: 0;"/></g><g class="traces" transform="translate(0, 49.1)" style="opacity: 1;"><text class="legendtext" text-anchor="start" x="40" y="4.680000000000001" style="font-family: 'Open Sans', verdana, arial, sans-serif; font-size: 12px; fill: rgb(42, 63, 95); fill-opacity: 1; white-space: pre;">au</text><g class="layers" style="opacity: 1;"><g class="legendfill"/><g class="legendlines"><path class="js-line" d="M5,0h30" style="fill: none; stroke: rgb(239, 85, 59); stroke-opacity: 1; stroke-width: 2px;"/></g><g class="legendsymbols"><g class="legendpoints"/></g></g><rect class="legendtoggle" x="0" y="-9.5" width="76.09375" height="19" style="fill: rgb(0, 0, 0); fill-opacity: 0;"/></g><g class="traces" transform="translate(0, 68.1)" style="opacity: 1;"><text class="legendtext" text-anchor="start" x="40" y="4.680000000000001" style="font-family: 'Open Sans', verdana, arial, sans-serif; font-size: 12px; fill: rgb(42, 63, 95); fill-opacity: 1; white-space: pre;">nz</text><g class="layers" style="opacity: 1;"><g class="legendfill"/><g class="legendlines"><path class="js-line" d="M5,0h30" style="fill: none; stroke: rgb(0, 204, 150); stroke-opacity: 1; stroke-width: 2px;"/></g><g class="legendsymbols"><g class="legendpoints"/></g></g><rect class="legendtoggle" x="0" y="-9.5" width="76.09375" height="19" style="fill: rgb(0, 0, 0); fill-opacity: 0;"/></g></g></g><rect class="scrollbar" rx="20" ry="3" width="0" height="0" x="0" y="0" style="fill: rgb(128, 139, 164); fill-opacity: 1;"/></g><g class="g-gtitle"/><g class="g-xtitle"><text class="xtitle" x="338" y="461.8" text-anchor="middle" style="font-family: 'Open Sans', verdana, arial, sans-serif; font-size: 14px; fill: rgb(42, 63, 95); opacity: 1; font-weight: normal; white-space: pre;">Date</text></g><g class="g-ytitle"><text class="ytitle" transform="rotate(-90,37.278125,260)" x="37.278125" y="260" text-anchor="middle" style="font-family: 'Open Sans', verdana, arial, sans-serif; font-size: 14px; fill: rgb(42, 63, 95); opacity: 1; font-weight: normal; white-space: pre;">key</text></g></g></svg>