<svg class="main-svg" xmlns="http://www.w3.org/2000/svg" xmlns:xlink="http://www.w3.org/1999/xlink" width="700" height="500" style="" viewBox="0 0 700 500"><rect x="0" y="0" width="700" height="500" style="fill: rgb(255, 255, 255); fill-opacity: 1;"/><defs id="defs-e5850e"><g class="clips"><clipPath id="clipe5850exyplot" class="plotclip"><rect width="472" height="320"/></clipPath><clipPath class="axesclip" id="clipe5850ex"><rect x="80" y="0" width="472" height="500"/></clipPath><clipPath class="axesclip" id="clipe5850ey"><rect x="0" y="100" width="700" height="320"/></clipPath><clipPath class="axesclip" id="clipe5850exy"><rect x="80" y="100" width="472" height="320"/></clipPath></g><g class="gradients"/></defs><g class="bglayer"><rect class="bg" x="80" y="100" width="472" height="320" style="fill: rgb(229, 236, 246); fill-opacity: 1; stroke-width: 0;"/></g><g class="layer-below"><g class="imagelayer"/><g class="shapelayer"/></g><g class="cartesianlayer"><g class="subplot xy"><g class="layer-subplot"><g class="shapelayer"/><g class="imagelayer"/></g><g class="gridlayer"><g class="x"><path class="xgrid crisp" transform="translate(200.98000000000002,0)" d="M0,100v320" style="stroke: rgb(255, 255, 255); stroke-opacity: 1; stroke-width: 1px;"/><path class="xgrid crisp" transform="translate(321.97,0)" d="M0,100v320" style="stroke: rgb(255, 255, 255); stroke-opacity: 1; stroke-width: 1px;"/><path class="xgrid crisp" transform="translate(442.95,0)" d="M0,100v320" style="stroke: rgb(255, 255, 255); stroke-opacity: 1; stroke-width: 1px;"/></g><g class="y"><path class="ygrid crisp" transform="translate(0,400.85)" d="M80,0h472" style="stroke: rgb(255, 255, 255); stroke-opacity: 1; stroke-width: 1px;"/><path class="ygrid crisp" transform="translate(0,351.27)" d="M80,0h472" style="stroke: rgb(255, 255, 255); stroke-opacity: 1; stroke-width: 1px;"/><path class="ygrid crisp" transform="translate(0,301.69)" d="M80,0h472" style="stroke: rgb(255, 255, 255); stroke-opacity: 1; stroke-width: 1px;"/><path class="ygrid crisp" transform="translate(0,252.11)" d="M80,0h472" style="stroke: rgb(255, 255, 255); stroke-opacity: 1; stroke-width: 1px;"/><path class="ygrid crisp" transform="translate(0,202.53)" d="M80,0h472" style="stroke: rgb(255, 255, 255); stroke-opacity: 1; stroke-width: 1px;"/><path class="ygrid crisp" transform="translate(0,152.96)" d="M80,0h472" style="stroke: rgb(255, 255, 255); stroke-opacity: 1; stroke-width: 1px;"/><path class="ygrid crisp" transform="translate(0,103.38)" d="M80,0h472" style="stroke: rgb(255, 255, 255); stroke-opacity: 1; stroke-width: 1px;"/></g></g><g class="zerolinelayer"/><path class="xlines-below"/><path class="ylines-below"/><g class="overlines-below"/><g class="xaxislayer-below"/><g class="yaxislayer-below"/><g class="overaxes-below"/><g class="plot" transform="translate(80, 100)" clip-path="url('#clipe5850exyplot')"><g class="scatterlayer mlayer"><g class="trace scatter tracef8620a" style="stroke-miterlimit: 2; opacity: 1;"><g class="fills"/><g class="errorbars"/><g class="lines"><path class="js-line" d="M0,140.68L0.33,194.65L0.99,185.79L1.33,182.91L1.66,154L1.99,179.61L2.32,194.97L3.31,174.79L3.65,189.81L4.31,187.9L4.64,200.05L4.97,182.61L6.3,207.48L6.63,202.68L7.29,180.06L7.62,197.33L8.62,188.92L8.95,185.4L9.94,199.79L10.28,203.93L10.61,206.31L10.94,172.95L11.27,172.32L11.6,174.05L11.93,167.1L12.26,189.71L12.6,201.96L12.93,199.07L13.26,197.87L13.59,199.37L13.92,184.43L14.58,219.49L14.92,213.63L15.25,205.05L15.58,175.82L15.91,201.17L16.24,212.54L16.57,197.76L16.9,210.04L17.24,210.99L17.9,210.4L18.23,191.79L18.56,199L18.89,181.71L19.89,222.72L20.22,200.01L20.55,191.67L20.88,206.01L21.54,220.9L21.88,211.89L22.87,185.02L23.2,210.63L24.2,209.06L24.53,193.03L24.86,201.45L25.19,189.43L25.52,149.12L26.19,155.52L26.52,154.45L26.85,151.91L27.18,131.84L27.51,113.92L27.84,131.01L28.17,123.29L28.51,123.57L28.84,124.94L29.83,140.41L30.16,143.79L30.49,142.75L30.83,154.17L31.16,158.29L31.49,144.53L31.82,138.71L32.15,152.32L32.48,168.38L32.81,156.33L33.15,149.12L33.48,156.76L33.81,137.21L34.14,118.65L34.47,134.19L34.8,148.45L35.47,148.23L35.8,153.35L36.13,132.98L36.79,132.45L37.12,148.27L37.46,122.8L38.12,132.86L38.45,131.35L38.78,70.42L40.77,156.85L41.1,151.67L41.43,150.65L41.76,164.78L42.1,146.2L42.43,161.57L42.76,164.49L43.75,191.22L44.08,184.67L44.42,195.85L44.75,188.47L45.08,178.34L45.41,181.84L45.74,178.97L46.07,178.49L46.4,190.28L46.74,169.72L47.07,189.64L47.4,177.47L47.73,176.84L48.06,210.6L48.39,206.14L48.72,187.34L49.06,195.24L50.05,188.46L50.71,192.17L51.04,181.94L52.04,216.83L52.37,188.58L52.7,228.78L53.03,187.21L53.37,174.4L54.03,195.18L54.36,193.95L54.69,179.28L55.02,232.62L55.35,207.74L55.69,215.08L56.35,237.06L56.68,217.75L57.34,190.96L57.67,197.53L58.01,200.09L58.34,217.81L58.67,198.16L59,197.88L59.33,202.03L59.66,243.29L59.99,209.63L60.33,214.55L60.66,224.57L61.32,205.44L61.65,208.81L61.98,220.12L62.98,235.61L63.31,230.25L64.3,186.62L64.63,204.88L65.63,235.65L65.96,225.35L66.62,112.75L66.96,168.59L67.62,159.04L67.95,161.49L68.28,187.69L68.94,205.77L69.28,218.88L69.61,209.73L69.94,216.78L70.27,219.98L70.93,234.05L71.26,214.23L71.6,232.12L72.26,228.28L72.59,229.28L73.25,235.4L73.58,225.42L74.58,240.72L74.91,240.84L75.24,239.31L75.57,232.53L76.24,248.31L76.57,239.14L76.9,224L77.23,232.41L77.56,247.61L78.22,209.38L78.56,224.61L78.89,242.57L79.88,231.24L80.21,232.55L80.88,247.06L81.21,212.68L81.87,228.37L82.2,226.13L82.53,229.73L83.2,259.32L83.53,225.66L83.86,232.76L84.19,228.74L84.52,229.49L84.85,238.48L85.19,228.52L85.52,235.87L85.85,238.34L86.18,231.72L87.17,246.35L87.51,256.1L88.5,244.71L88.83,256.09L89.49,262.19L89.83,235.26L90.16,257.31L90.49,253.18L90.82,239.15L91.48,239.06L92.15,250.64L92.48,247.76L92.81,262.87L93.14,245.92L93.47,246.74L93.8,248.32L94.13,266.56L94.47,253.16L94.8,261.62L95.13,260.1L95.46,251.25L95.79,265.41L96.12,251.61L96.46,259.71L96.79,258.05L97.12,247.79L97.45,253.35L97.78,266.87L99.11,242.38L99.44,217.41L100.1,238.47L100.43,217.55L101.43,258.49L101.76,243.63L102.09,239.56L102.42,260.21L102.75,256.27L103.08,257.23L103.42,260.97L103.75,251L104.08,211.74L104.74,251.71L105.07,245.65L105.4,231.71L105.74,239.26L106.07,203.49L106.73,238.99L107.06,232.21L107.39,237.36L107.72,234.24L108.06,220.64L108.39,210.72L108.72,219.19L109.05,175.46L110.04,201.53L110.38,182.93L110.71,155.41L111.04,185.13L111.37,199.96L111.7,190.47L112.03,192.42L112.37,197.4L112.7,188.67L113.03,203.56L113.69,215.89L114.02,204.31L114.35,208.75L114.69,197.69L115.02,194.95L115.35,126L116.01,132.94L116.34,132.1L116.67,127.57L117.67,171.82L118,148.1L118.33,149L118.66,137.17L119.33,241.23L119.66,239.13L119.99,236.57L120.32,234.87L120.65,238.19L120.98,226.03L121.31,248.62L122.31,217.55L122.64,221.52L122.97,228.04L123.3,222.19L123.63,231.7L124.3,236.37L124.63,233.25L124.96,239.15L125.29,237.36L125.62,226.27L125.96,211.75L126.29,228.66L126.62,233.34L127.94,207.44L128.28,210.99L128.61,211.7L128.94,209.03L129.27,208.45L129.6,234.03L130.26,203.14L130.6,211.07L130.93,215.16L131.26,220.21L131.59,201.37L132.58,210.78L132.92,210.25L133.25,209.93L133.58,211.3L134.24,231.46L134.57,215.99L134.9,221.68L135.24,214.92L135.57,245.46L135.9,220.57L136.23,248.93L136.56,230.81L136.89,218.27L137.56,219.66L137.89,225.85L138.22,226.58L138.55,202.18L139.54,220.01L139.88,207.17L140.54,212.05L140.87,211.38L141.2,221.94L142.86,235.39L143.19,237.1L143.85,244.28L144.19,233.88L144.52,228.9L144.85,233.06L145.18,230.37L145.84,211.99L146.17,214.02L146.51,216.23L147.17,227.61L147.5,214.95L147.83,199.02L148.16,223.82L148.49,228.11L148.83,220L149.49,231.63L149.82,215.07L150.15,214.99L150.48,200.47L151.48,218.54L151.81,210.96L152.14,210.7L152.47,207.03L152.8,205.66L153.13,217.49L153.8,214.56L154.13,215.1L154.46,203.21L155.12,202.73L155.79,218.79L156.12,211.39L157.11,225.51L157.44,199.59L158.77,217.54L159.1,221.05L159.43,219.31L159.76,221.32L160.1,207.6L161.09,218.64L161.42,211.32L162.08,211.43L162.75,205.29L163.08,206.5L163.41,199.93L163.74,203.69L164.07,221.13L165.07,194.96L165.4,198.06L165.73,199.58L166.06,205.61L167.06,231.1L167.39,203.01L167.72,222.47L168.05,215.04L168.38,210.95L168.71,161.61L169.04,186.62L169.38,208.12L169.71,216.5L170.04,213.39L170.37,206.66L170.7,202.6L171.03,203.5L171.37,182.31L172.03,213.54L172.36,201.28L173.35,183.39L173.69,191.44L174.02,181.57L174.35,186.35L174.68,194.25L175.67,174.33L176.01,153.53L176.67,179.07L177,162.2L178.33,198.01L178.66,209.64L178.99,195.96L179.32,200.88L179.65,201.73L179.98,197.42L180.31,200.64L180.65,201.1L181.64,189.93L181.97,195L182.3,194.84L182.63,198.71L182.97,172L183.3,183.86L183.63,189.05L183.96,191.48L184.29,184.84L184.62,186.67L184.96,166.84L185.95,188.84L186.28,180.04L186.94,185.95L187.28,195.56L187.61,188.57L187.94,210.98L188.27,214.76L188.6,194.21L188.93,194.13L189.26,195.42L189.93,168.4L190.26,202.21L191.58,186.31L191.92,174.59L192.25,170.95L192.58,193.11L192.91,213.25L193.24,193.96L193.57,187.8L194.24,197.69L194.57,180.5L194.9,173.64L195.23,201.48L195.56,188.75L195.89,205.1L196.56,205.81L196.89,194.67L197.22,183.51L197.55,207.43L197.88,204.07L198.21,192.44L198.88,201.19L199.21,189.39L199.54,187.74L199.87,201.6L200.2,197.3L200.53,208.78L201.53,162.6L201.86,181.42L202.52,190.14L202.85,183.32L203.19,178.61L203.52,159.24L203.85,168.92L204.51,168.8L204.84,166.4L205.17,170.52L205.51,164.93L205.84,157.4L206.17,122.51L207.16,156.8L207.49,137.16L207.83,135.06L208.16,114.58L208.82,133.55L209.15,132.51L209.48,130.94L209.81,130.45L210.15,137.79L210.48,90.43L210.81,109.76L211.14,131.15L212.13,145.67L212.47,156.17L213.13,123.87L213.46,144.51L213.79,122.41L214.12,127.57L214.46,140.42L215.12,135.83L215.45,129.09L215.78,132.44L216.11,148.24L216.78,171.62L217.11,167.47L217.44,143.84L217.77,124.47L218.1,146.39L218.43,149.83L218.76,142.2L219.1,164.59L219.76,130.37L220.09,73.17L220.42,79L220.75,147.18L221.42,76.82L222.08,79.53L222.41,90.68L223.4,110.49L223.74,106.36L224.4,132.81L224.73,127.52L225.06,98.62L225.39,115.96L225.72,94.8L226.06,96.91L226.39,92.39L226.72,95.87L227.05,96.08L227.71,92.24L228.04,115.38L228.71,132.54L229.04,106.87L229.37,95.84L229.7,97.83L230.03,127.2L231.03,123.91L231.36,90.8L232.02,62.5L232.35,82.64L232.69,90.3L233.02,88.27L233.35,84.21L233.68,95.84L234.34,95.31L234.67,101.05L235.34,96.71L235.67,113.89L236.33,59.08L236.66,83.02L237.33,97.53L237.66,88.43L238.65,68.7L238.98,53.85L239.65,49.51L240.31,134.64L240.64,126.92L240.97,111.57L241.63,96.66L241.97,102.18L242.63,149.43L242.96,142.87L243.29,140.24L243.62,139.63L243.96,141.81L244.29,144.14L244.62,143.16L244.95,142.79L245.28,142.7L245.61,131.65L245.94,132.16L246.28,141.57L246.94,143.3L247.27,139.2L248.26,120.66L248.6,156.02L248.93,160.69L249.26,151.89L250.25,139.03L250.58,150.11L251.25,165.4L251.58,159.58L251.91,157.88L252.57,136.74L252.9,146.23L253.24,162.47L253.57,150L253.9,149.98L254.23,151.15L254.56,160.78L254.89,130.63L255.22,136.04L255.56,149.49L256.88,171.37L257.21,169.56L257.54,167.52L257.88,167.23L258.21,172.74L259.2,167.69L259.53,156.56L259.87,171.78L260.2,162.72L260.53,156.14L261.19,168.85L261.52,155.23L261.85,133.39L262.19,165.44L263.18,149.5L263.51,149.1L263.84,111.51L264.17,146.96L264.51,160.14L265.17,143.73L265.5,145.48L265.83,155.9L266.83,170.67L267.16,162.12L267.49,155.78L267.82,161.71L268.15,165.4L268.48,151.44L268.81,158.5L269.15,158.01L270.14,144.14L270.47,144.16L270.8,142.19L271.13,145.48L271.47,145.44L271.8,136.36L272.13,144.89L272.46,133.1L273.12,154.08L273.46,138.16L274.12,125.75L274.45,127.11L274.78,124.18L275.11,125.85L275.44,144.16L276.11,129.76L276.44,139.04L277.43,145.85L277.76,128.69L278.76,136.83L279.09,119.49L279.42,108.48L279.75,123.74L280.08,130.35L280.42,111.48L280.75,139.08L281.08,131.57L281.41,127.74L281.74,121.68L282.07,123.49L282.4,149.2L283.4,137.52L283.73,140.85L284.06,141.59L284.39,144.4L284.72,170.94L286.05,134.82L286.38,134.52L286.71,139.91L287.04,102.65L287.71,69.92L288.04,89.46L289.37,66.56L289.7,101.21L290.03,99.42L290.36,119.58L290.69,106.43L291.02,121.61L291.35,123.85L291.69,102.59L292.02,118.35L292.35,117.83L292.68,128.06L293.01,127.34L293.34,121.6L293.67,120.14L294.01,132.97L294.34,136.13L294.67,133.29L295,130.17L295.33,124.22L295.66,137.75L296.33,151.89L296.66,134.02L296.99,137.94L297.32,130.09L297.98,144.65L298.31,144.59L298.65,115.84L298.98,106.15L299.31,119.79L300.3,131.31L300.63,131.65L300.97,133.75L301.3,118.06L301.63,124.47L301.96,150.49L302.29,149.37L302.62,144.44L303.29,93.68L303.62,117.56L303.95,84.14L304.61,91.13L304.94,109.23L305.61,130.81L305.94,88.85L306.27,84.56L306.6,100.42L306.93,128.37L307.26,112.09L307.6,116.98L307.93,115.36L308.26,103.47L310.25,123.93L310.58,100.36L311.9,122.34L312.24,119.12L312.57,137.23L312.9,130.6L313.23,127.19L313.56,121.77L313.89,130.86L314.22,123.61L314.56,126.66L314.89,102.6L315.55,96.76L315.88,79.91L317.21,115.75L317.54,109.44L319.2,125.98L319.53,155.8L319.86,118.69L320.19,138.46L320.52,148.03L321.52,139.52L321.85,189.88L322.51,136L322.84,153.81L323.17,157.24L323.84,130.84L324.17,177.38L324.5,141.42L324.83,147.58L325.16,167.16L325.49,165.48L325.83,159.46L326.16,161.12L326.49,175.06L327.15,124.05L327.48,158.73L328.48,152.28L328.81,185.78L329.14,158.17L329.47,160.48L329.8,172.93L330.47,164.46L330.8,170.18L331.46,206.33L331.79,177.35L332.12,163.2L332.46,178.35L332.79,180.9L333.12,175.39L333.45,184.67L333.78,152.39L334.11,161.24L334.44,172.82L335.11,162.78L335.44,178.7L335.77,196.92L336.1,166.54L336.43,164.53L336.76,191.24L337.1,192.42L337.43,205.04L337.76,210.42L338.09,208.5L338.42,178.56L339.75,210.05L340.08,200.62L340.74,124.93L341.07,129.29L341.4,128.85L341.74,130.33L342.07,143.74L342.4,113.02L342.73,132.06L343.06,157.99L343.39,157.14L343.72,172.56L344.06,177.79L344.39,171.63L344.72,189.44L345.05,203.72L345.38,182.09L345.71,186.91L346.04,184.83L346.38,183.61L347.04,187.48L347.37,152.74L348.7,180.81L349.03,179.93L349.36,165.42L349.69,195.07L350.35,198.55L350.69,157.27L351.02,165.98L351.35,159.36L351.68,140.4L352.01,171.54L352.34,145.95L352.67,170.29L353.01,172.43L353.34,190.87L353.67,178.34L354,148.62L355.66,218.54L355.99,209.03L356.65,187.89L356.98,143.43L357.31,152.09L357.65,189.14L358.31,183.98L358.64,138.14L358.97,116.39L359.3,130.32L359.63,125.79L360.3,77.63L360.63,61.33L361.29,172.44L361.62,146.4L361.96,154.62L362.62,203.13L362.95,125.12L363.61,182.81L363.94,178.28L364.28,163.99L364.94,173.07L365.27,197.92L365.6,173.16L365.93,187.13L366.26,192.23L366.6,191.39L366.93,198.43L367.26,196.7L367.59,187.24L367.92,190.28L368.25,131.75L368.58,125.12L368.92,131.68L369.25,153.26L369.91,166.3L370.24,165.25L370.57,150.27L370.9,137L371.24,166.53L372.23,144.3L372.56,150.66L373.22,141.15L373.56,165.59L374.22,190.11L374.55,170.44L375.88,135.92L376.21,160.73L376.54,162.17L376.87,160.88L377.2,157.95L377.53,161.77L377.87,138.63L378.2,146.84L378.53,185.02L378.86,188.17L379.19,160.97L379.85,160.86L380.19,174.73L380.52,160.43L381.84,221.11L382.17,181.13L382.51,176.79L382.84,195.31L383.83,221.44L384.16,215.67L385.16,150.19L385.49,166.22L385.82,162.3L386.15,177.16L386.48,171.24L386.81,110.05L387.48,144.65L387.81,211.3L388.8,235.81L389.13,195.42L389.47,195.68L389.8,165.53L390.79,207.33L391.12,199.24L391.46,181.13L391.79,120.41L392.45,193.93L392.78,183.66L393.11,164.56L393.44,164.44L393.78,193.74L394.44,138.56L394.77,194.75L396.43,139.92L396.76,161.41L397.42,185.41L397.75,163.24L398.08,155.61L398.42,160.08L398.75,119.05L400.07,196.83L400.4,200.56L400.74,205.12L401.07,151.33L401.4,143.77L401.73,204.28L402.06,199.5L402.39,201.06L402.72,171.11L403.06,124.97L403.39,126.67L403.72,139.87L404.71,197.38L405.04,180.59L405.38,173.14L405.71,131.03L406.04,143.25L406.37,195.66L406.7,199.41L407.03,194.35L407.37,191.52L407.7,202.58L408.03,137L408.36,156.28L408.69,194.47L409.02,183.36L409.35,189.17L409.69,149.05L410.02,195.33L410.35,155.97L410.68,148.79L411.34,199.53L411.67,189.93L412.01,189L412.67,64.84L413,69.8L413.33,109.84L413.66,81.65L413.99,86.53L414.33,157.77L414.66,152.83L414.99,126.95L416.31,175.54L416.65,180.97L417.31,146.55L417.64,152.16L417.97,170.16L418.63,175.42L418.97,169.64L419.3,140.16L419.63,168.16L419.96,166.02L420.29,167.34L420.62,182.16L421.95,152.23L422.28,172.15L423.28,198.88L423.61,163.94L424.27,143.75L424.6,148.62L424.93,169.73L425.26,180.87L425.6,176.78L425.93,172.86L426.59,116.93L426.92,126.6L427.25,138.6L428.25,182.51L428.58,177.82L428.91,153.17L429.24,155.42L429.57,185.75L430.57,171.19L430.9,111.85L431.56,165.73L431.89,144.49L432.22,141.31L432.89,181.41L433.22,178.95L433.55,154.01L434.21,181.18L434.54,178.84L434.88,184.71L435.54,170.83L435.87,180.9L436.2,175.91L436.53,194.75L436.87,194.7L437.2,199.34L437.86,162.82L438.52,166.09L438.85,181.68L439.52,188.65L439.85,184.81L440.84,152.01L441.17,171.95L442.17,171.17L442.5,138.37L443.49,154.58L443.83,153.53L444.16,148.05L444.49,153.22L444.82,112.94L445.48,94.61L445.81,146.78L446.15,143.63L446.48,161.13L446.81,161.41L447.14,160.06L447.47,118.16L447.8,149.85L448.13,170.52L449.13,159.03L449.46,161.64L449.79,116.87L450.12,143.46L450.46,159.18L450.79,161.77L451.12,149.61L451.45,156.51L451.78,136.42L452.11,89.25L452.44,138.09L452.78,153.22L453.11,151.54L453.44,169.28L453.77,169.28L454.1,114.42L456.09,188.27L456.42,167.77L456.75,117.63L457.08,161.96L457.42,156.79L458.41,172.42L458.74,162.39L459.07,143.34L459.4,160.51L459.74,171.44L460.07,174.03L460.4,156.77L462.39,188.93L462.72,170.62L463.05,175.32L463.38,115.66L463.71,116.99L464.04,97.31L464.71,171.98L465.04,165.31L465.37,179.09L466.37,88.29L466.7,150.7L467.03,154.78L467.36,140.72L467.69,135.09L468.02,137.05L468.35,100.36L469.35,147.51L469.68,155.88L471.01,98.56L471.34,121.43L471.67,136.2L472,132.58" style="vector-effect: non-scaling-stroke; fill: none; stroke: rgb(99, 110, 250); stroke-opacity: 1; stroke-width: 2px; opacity: 1;"/></g><g class="points"/><g class="text"/></g><g class="trace scatter trace58c98f" style="stroke-miterlimit: 2; opacity: 1;"><g class="fills"/><g class="errorbars"/><g class="lines"><path class="js-line" d="M0,133.25L0.33,154.1L0.99,153L1.33,151.95L1.66,142.59L1.99,150.48L2.32,163.48L2.65,152.1L2.98,156.98L3.31,155.7L3.98,164.57L4.31,164.15L4.64,175.77L4.97,158.48L5.63,163.1L5.97,160.08L6.3,152.32L6.63,160.08L6.96,168.86L7.29,154.07L7.96,156.32L8.29,155.79L8.62,152.91L8.95,156.53L9.28,165.66L9.61,153.01L9.94,158.81L10.28,160.97L10.61,164.52L10.94,151.18L11.6,161.01L11.93,152.87L12.93,165.89L13.26,156.53L13.92,167.97L14.25,159.81L14.58,187.24L14.92,176.42L15.25,173.16L15.58,172.14L15.91,177.67L16.24,187.41L16.9,187.2L17.24,185.58L17.57,190.65L17.9,173.85L18.23,171.57L18.56,181.67L18.89,160.74L19.22,178.83L19.56,183.02L20.22,187.8L20.55,184.74L21.54,197.74L21.88,197.07L22.21,195.48L22.54,184.64L22.87,179.38L23.2,192.6L23.53,186.01L23.87,192.45L24.2,188.73L24.86,184.82L25.19,188.88L25.52,142.46L26.19,150.65L26.52,148.22L26.85,152.39L27.18,141.21L27.84,172.04L28.17,156L28.51,170.41L28.84,167.85L29.17,172.21L29.5,171.9L29.83,180.93L30.16,191.53L30.49,180.73L30.83,190.05L31.16,187.12L31.49,189.36L31.82,179.87L32.48,192.39L32.81,181.4L33.15,191.3L33.48,188.15L33.81,188.58L34.14,160.59L34.47,165.45L34.8,177.68L35.13,177.11L35.47,179.42L35.8,179.58L36.13,175.57L37.12,194.51L37.46,185.4L38.12,192.79L38.45,190.88L38.78,163.12L40.11,195.19L40.44,197.49L40.77,203.03L41.1,196.56L41.43,199.55L41.76,207.7L42.43,206.8L42.76,207L43.09,209.14L43.42,205.96L43.75,208.26L44.08,222.39L44.42,209.67L45.08,212.19L45.41,216.41L45.74,217.69L46.07,210.4L46.4,221.73L46.74,206.44L47.07,208.69L47.4,203.04L48.39,213.19L48.72,210.96L49.06,216.15L50.05,210.9L51.04,222.33L51.38,214.07L51.71,228.24L52.04,222.89L52.37,222.18L52.7,224.38L53.03,220.99L53.37,228.41L53.7,215.45L54.69,219.75L55.02,237.75L56.02,223.12L56.35,232.3L57.01,235.61L57.34,211.26L58.01,228.08L58.34,214.89L59.33,232.64L59.66,227.93L59.99,225.59L60.33,230.61L60.66,222.05L60.99,231.76L61.32,232.66L61.98,230.49L62.31,235.98L62.65,240.66L62.98,228.35L63.97,236.05L64.3,201.77L64.97,228.74L65.3,223.92L65.63,229.2L65.96,227.61L66.29,206.22L66.62,137.13L66.96,175.81L67.29,188.85L67.62,179.46L67.95,190.85L68.28,196.87L68.61,203.37L68.94,184.7L69.61,210.15L69.94,200.04L70.27,211.42L70.6,212.23L70.93,208.24L71.93,222.23L72.26,209.52L73.92,226.69L74.25,226.58L74.58,221.08L75.24,230.14L75.57,223.69L75.9,217.61L76.24,225.64L76.57,235.16L76.9,220.02L77.23,233.07L77.56,228.21L77.89,221.86L78.89,231.17L79.22,219.99L79.55,230.68L79.88,225L80.21,221.82L80.54,211.09L80.88,225.1L81.21,227.21L81.54,217.43L81.87,226.31L82.2,221.09L82.53,222.82L82.87,219.95L83.2,222.36L83.53,230.49L83.86,221.56L84.19,228.06L84.52,227.72L84.85,228.54L85.19,214.99L85.52,219.6L85.85,238.83L86.18,211.25L86.51,231.85L86.84,237.11L87.17,236.16L87.51,231.22L88.17,248.45L88.5,233.65L88.83,250.56L89.49,246.17L89.83,214.54L91.15,230.49L91.48,232.9L91.81,231.57L92.15,232.87L92.48,237.46L92.81,248.46L93.14,230.44L93.8,242.26L94.13,238.56L94.47,231.91L95.79,249.67L96.12,248.07L97.12,232.03L97.45,240.43L97.78,236.3L98.11,237.34L98.44,241.28L99.11,229.78L99.44,232.31L99.77,241.42L100.43,220.23L100.76,233.77L101.1,240.79L101.43,233.79L101.76,231.61L102.75,243.22L103.08,242.19L103.42,245.05L103.75,230.65L104.08,222.34L104.41,234.54L104.74,222.61L105.07,229.4L105.4,225.9L106.07,207.65L106.4,215.76L106.73,227.37L107.06,212.5L107.39,220.3L107.72,223.83L108.39,208.83L108.72,215.57L109.05,220.21L109.38,217.34L109.71,220.12L110.04,220.38L111.04,189.65L111.37,191.35L111.7,198.84L112.37,197.58L112.7,212.17L113.03,204.13L113.69,180.94L114.02,200.9L114.69,207.09L115.02,205.62L115.35,126.64L115.68,122.64L116.01,128.45L117.01,151.76L117.34,150.95L117.67,149.02L118,142.98L118.33,119.98L119.66,227.49L119.99,222.93L120.32,228.45L120.65,189.59L120.98,218.53L121.31,234.18L121.65,233.31L121.98,229.68L122.31,229.11L122.64,238.3L122.97,240.61L123.3,238.41L123.63,239.4L123.97,239.18L124.3,242.4L124.96,227.98L125.29,237.07L125.96,217.39L126.29,225.33L126.62,233.78L127.28,215.58L127.61,225.28L127.94,218.77L128.61,223.23L128.94,223.05L129.27,230.43L129.6,226.17L129.93,235.45L130.6,226.69L130.93,229.44L131.26,227.89L131.59,209.2L131.92,211.68L132.25,226.22L132.92,220.71L133.25,222.43L133.58,228.11L134.24,209.99L134.57,220.22L134.9,221.23L135.24,225.43L135.57,240.44L135.9,233.88L136.23,234.84L136.56,223.87L137.22,226.21L137.56,229.39L138.22,228.5L138.55,210.5L139.21,228.64L139.54,224.75L139.88,224.23L140.87,234.21L141.2,227.92L141.53,232.25L142.2,231.23L142.53,230.02L142.86,224.25L143.19,229.49L143.52,229.75L143.85,235.79L144.52,234.46L144.85,231.82L145.18,232.1L145.51,227.45L145.84,220.48L146.17,236.21L146.51,232.86L146.84,238.72L147.17,240.26L147.5,231.56L147.83,201.53L148.16,210.36L148.49,221.86L149.16,225.44L149.49,216.42L150.15,205.7L150.48,206.89L150.81,218.22L151.48,219.1L151.81,214.15L152.8,210.4L153.13,222.64L154.79,196.65L155.12,187.11L155.79,200.29L156.12,198.59L156.45,202.41L157.44,190.41L157.78,202.67L158.11,201.19L158.44,205.47L159.43,189.25L159.76,195.7L160.1,200.79L160.43,200.73L160.76,201.99L162.42,188.98L162.75,192.75L163.08,193.72L163.41,179.58L163.74,180.53L164.07,184.09L164.4,183.54L164.74,169.77L165.73,183.07L166.06,182.22L166.39,178.92L166.72,174.01L167.06,175L167.39,178.27L168.38,173.64L168.71,161.2L169.71,188.69L170.04,180.61L170.37,177.19L170.7,176.58L171.03,172.94L171.37,158.73L171.7,169.9L172.03,170.79L172.36,169.96L172.69,172.52L173.35,162.36L173.69,146.98L174.68,161.33L175.01,156.24L175.34,156.53L175.67,170.91L176.01,163.87L176.34,167.73L176.67,169.98L177,171.63L177.33,187.19L178.33,177.88L178.66,185.05L179.98,194.4L180.31,186.31L180.65,173.5L180.98,174.63L181.31,179.15L181.64,174.34L181.97,176.9L182.3,179.78L182.63,181.79L182.97,170.5L183.96,188.78L184.29,183.39L184.62,185.57L184.96,168.18L185.62,179.99L185.95,174.42L186.28,178.43L186.61,177.44L186.94,172.91L187.61,171.89L187.94,181.67L188.6,178.78L189.26,179.11L189.6,165.6L190.59,180.39L190.92,178.21L191.25,178.14L191.58,176.12L192.25,155.6L192.58,164.87L192.91,163.91L193.9,167.55L194.24,166.51L194.57,162.57L194.9,176.62L195.89,173.12L196.22,178.1L196.56,184.8L196.89,171.15L197.55,178.31L197.88,177.52L198.21,171.47L198.54,171.55L198.88,174.63L199.21,166.06L199.54,174.31L199.87,176.53L200.2,181.5L200.53,180.47L200.87,172.64L201.2,136.72L201.86,141.7L202.19,150.53L202.52,149.08L202.85,149.89L203.19,142.52L203.52,133.35L203.85,136.93L204.18,140.83L205.17,145.95L205.51,138.92L205.84,125.86L206.17,135.1L206.5,148.17L206.83,143.93L207.16,145.24L207.49,147.78L207.83,142.52L208.16,152.73L208.49,152.24L208.82,163.66L209.48,157.14L209.81,160.35L210.15,157.98L210.48,142.11L211.14,155.62L211.47,151.02L211.8,151.96L212.13,161.86L213.13,143.13L213.46,147.42L213.79,141.33L214.12,146.12L214.46,145.42L214.79,146.79L215.12,144.75L215.45,147.04L215.78,155.41L216.11,152.08L216.44,154.42L216.78,163.5L217.11,149.73L217.44,150.86L217.77,158.62L218.1,166.3L218.43,156.55L218.76,163.67L219.1,162.31L219.43,155.97L219.76,135.43L220.09,142.9L220.42,155.79L220.75,149.84L221.08,152.59L221.42,130.2L221.75,144.55L222.08,132.93L222.41,128.4L222.74,137.33L223.07,128.23L223.4,134.85L224.07,130.09L224.4,130.21L224.73,128.37L225.39,119.85L225.72,133.21L226.39,133.23L226.72,116.62L227.05,120.61L227.38,118.17L227.71,118.54L228.38,123.19L228.71,119.61L229.7,108.37L230.03,120.51L230.37,120.76L230.7,125.04L231.03,120.56L231.36,92.02L232.02,87.29L232.35,94.08L232.69,87.56L233.02,87.95L233.35,91.36L234.01,77.82L234.34,77.95L234.67,88.33L235.01,88.28L235.34,82.9L235.67,79.21L236,84.71L236.33,82.06L236.66,86.61L236.99,91.54L237.33,87.03L237.66,87.96L238.32,76.43L238.65,81.8L238.98,81.18L239.65,70.22L239.98,86.58L240.97,127L241.3,126.19L241.63,105.28L241.97,120.58L242.3,131.24L242.96,128.98L243.29,131.94L243.96,132.33L244.29,134.79L245.28,136.97L245.61,137.92L246.61,148.64L246.94,145.76L247.93,138.24L248.26,141.81L248.6,145.07L248.93,140.94L249.26,144.97L249.59,140.45L249.92,118.63L250.58,121.73L250.92,120.3L251.25,126.39L251.58,130.59L251.91,130.42L252.24,117.96L252.57,121.17L252.9,132.17L253.57,129.39L253.9,133.38L254.56,130.11L254.89,130.46L255.22,141.23L255.56,129.21L255.89,133.16L256.22,135.24L256.55,140.34L256.88,137.98L257.21,131.73L257.54,140.33L258.21,138.74L258.54,144.33L259.53,139.63L259.87,146.51L260.2,133.54L260.53,138.33L260.86,140.4L261.19,135.25L261.52,142.04L262.52,131.91L262.85,129.89L263.18,129.77L263.51,126.16L263.84,121.19L264.17,122.36L264.51,132.8L265.5,131.73L265.83,130.52L266.49,128.07L266.83,134.19L267.16,135.52L267.49,133.28L268.48,138.69L268.81,135.64L269.48,139.75L269.81,135.09L270.14,134.49L270.47,135.87L271.13,129.05L271.47,137.95L272.79,129.85L273.12,134.67L273.46,131.62L273.79,134.78L274.12,133.9L274.45,131.77L274.78,132.42L275.11,135.15L275.78,131.21L276.11,141.73L276.44,141.48L276.77,139.35L277.76,129.63L278.1,138.72L278.76,153.51L279.09,134.05L281.08,161.63L281.41,157.23L281.74,163.66L282.07,160.92L282.4,159.23L282.74,160.76L283.07,168.18L283.73,163.02L284.06,165.38L284.39,166.11L284.72,173.76L286.05,167.29L286.38,168.68L286.71,168.75L287.04,101.22L288.7,134.68L289.03,129.79L289.7,138.12L290.03,143.1L290.69,143.45L291.02,140.71L291.35,143.33L292.02,114.86L292.35,120.96L292.68,123.84L293.01,123.58L293.34,121.87L293.67,120.25L294.01,124.01L294.34,125.69L294.67,131.75L295.33,135.18L295.66,140.49L295.99,139.83L296.33,141.73L296.66,138.63L296.99,143.81L297.32,145.47L297.65,140.28L298.31,137.17L298.65,122.48L299.97,137.27L300.3,138.83L300.63,131.31L300.97,142.97L301.3,143.19L301.63,146.2L301.96,144.2L302.29,147.75L302.62,153.86L302.96,147.01L303.29,137.7L303.62,136.21L303.95,139.39L304.28,139.92L304.61,136.84L305.28,143.89L305.61,122.22L306.6,128.62L306.93,127.89L307.6,137.45L307.93,128.61L308.26,129.55L308.59,135.73L308.92,136L309.25,133.65L310.25,147.44L310.58,142.21L311.9,151.71L312.24,149.29L312.57,157.63L313.23,155.87L313.56,159.96L313.89,159.75L314.22,163.91L314.56,160.91L314.89,145.15L315.22,144.13L315.55,156.29L315.88,153.87L316.21,159.04L316.54,156.29L316.88,160.91L317.54,159.68L317.87,171.85L318.2,170.13L318.53,169.86L319.2,166.04L319.53,185.18L320.19,173.89L320.52,177.25L320.85,177.44L321.19,176.14L321.52,179.28L321.85,196.54L322.51,195.62L322.84,199.36L323.51,187.85L323.84,189.65L324.17,188.48L324.5,178.51L324.83,184.25L325.16,191.01L325.49,191.19L325.83,196.5L326.16,199.1L326.49,193.84L326.82,192.51L327.15,201.33L327.81,191.69L328.15,196.25L329.14,192.28L329.47,194.82L330.13,191.72L330.47,195.31L331.13,188L331.46,188.09L331.79,194.06L332.12,191.24L332.46,193.7L332.79,193.68L334.44,203.52L335.11,203.36L335.44,202.31L335.77,193.67L336.1,195.57L336.43,202.65L336.76,202.34L337.1,202.83L337.43,200.98L337.76,203.35L338.09,197.49L338.42,192.68L338.75,203.32L339.08,204.77L339.42,201.14L339.75,203.09L340.08,196.46L340.74,131.79L341.07,144.55L341.4,145.81L343.39,182.11L343.72,179.62L344.06,176.05L344.39,181.94L345.05,180.16L345.38,180.52L345.71,191.6L347.04,185.23L347.37,167.16L347.7,168.94L348.03,175.19L348.37,175.71L348.7,174.76L350.02,158.84L350.35,162.91L350.69,173.97L351.02,168.94L351.35,165.64L351.68,165.43L352.01,159.85L352.67,140.2L353.01,155.85L353.34,156.96L353.67,152.47L354.33,168.82L354.66,158.64L355.33,175.47L355.66,174.16L355.99,167.66L356.65,163.53L356.98,145.93L357.31,147.84L357.65,159.44L358.31,149.82L358.64,141L360.3,81.74L360.63,108.93L361.96,188.91L362.29,185.85L362.62,143.88L362.95,175.08L363.28,186.81L363.61,182.47L363.94,188.03L364.28,194.09L364.61,188.24L364.94,188.77L365.27,187.89L365.6,188.04L365.93,193.84L366.26,189.72L366.6,198.68L366.93,189.51L367.59,190.62L367.92,186.58L368.25,134.51L368.92,140.47L369.25,141.45L369.58,140.97L369.91,146.41L370.24,146.65L370.57,153.21L371.24,168.94L371.57,151.36L372.56,162.33L372.89,163.88L373.89,180.93L374.22,178.79L374.55,180.77L375.21,160.19L375.54,169.79L375.88,180.54L376.21,168.95L376.54,171.6L376.87,167.43L377.2,168.75L377.53,174.4L377.87,167.91L378.2,176.17L379.52,158.62L379.85,157.57L380.52,166.86L380.85,165.5L381.18,164.21L381.51,166.01L381.84,164.05L382.17,159.95L382.84,172.75L383.17,170.45L383.5,168.61L384.16,172.92L384.49,150.53L384.83,136.96L385.16,165.05L386.48,175.32L386.81,164.57L387.15,168.17L387.48,183.25L387.81,181.77L388.14,176.01L388.47,180.4L388.8,178.03L389.13,165.85L389.47,164.37L389.8,168.39L391.12,158L391.46,137.88L392.12,152.72L392.45,146.96L392.78,149.97L393.11,152.87L393.44,151.65L393.78,151.26L394.11,149.64L394.44,154.46L394.77,155.5L395.1,152.6L395.43,152.21L395.76,146.89L396.1,146.77L396.43,145.06L397.09,158.29L397.42,154.89L397.75,158L398.08,156.5L398.42,148.71L399.08,164.21L399.41,160.72L399.74,161.19L400.07,155.5L400.74,155.8L401.07,157.57L401.4,158.17L401.73,153.41L402.06,158.83L402.39,157.59L402.72,146.39L403.06,123.01L403.39,131.18L403.72,146.6L404.71,157.12L405.04,155.76L405.38,132.87L406.04,138.16L406.37,141.15L407.37,135.74L407.7,139.99L408.36,135.45L408.69,143.15L409.35,136.28L409.69,142.39L410.02,143.29L410.35,138.51L411.01,148.99L411.67,148.33L412.01,137.83L412.34,65.01L412.67,84.21L413,95.44L413.99,114.6L414.33,122L414.66,124.14L414.99,120.87L416.31,136.45L416.65,136.55L417.31,129.04L417.64,134.1L417.97,140.32L418.3,138.91L418.63,138.07L418.97,136.33L419.3,128.95L419.63,122.13L419.96,133.03L420.29,136.33L420.62,132.79L420.96,135.44L421.62,136.2L421.95,130.23L422.28,134.42L423.28,137.94L423.61,134.28L424.27,118.14L424.6,124.69L425.93,130.67L426.26,124.15L427.25,131.99L427.58,131.7L427.92,125.32L428.25,123.31L428.58,129.08L428.91,122L429.24,127.19L429.57,130.3L429.9,129.32L430.24,132.92L430.57,136.26L430.9,133.04L431.23,128.69L431.56,127.39L431.89,128.11L432.22,129.73L432.56,134.08L433.22,133.03L433.55,116.3L434.88,137.53L435.21,135.08L435.54,134.09L435.87,132.78L436.2,134.56L436.87,139.03L437.2,138L437.53,134.13L438.19,130L438.52,135.87L439.52,140.33L439.85,138.5L440.18,144.2L440.51,135.07L441.17,143.12L441.51,142.57L441.84,140.44L442.5,135.71L442.83,138.94L443.16,139.72L443.49,143.49L443.83,144.18L444.16,143.72L444.49,138.21L445.15,128.19L445.48,129.79L445.81,135.35L446.15,136.71L446.48,132.98L446.81,136.54L447.14,127.51L447.47,126.66L447.8,132.39L448.47,133.87L448.8,140.2L449.79,128.03L450.12,136.95L450.46,134.57L450.79,139.34L451.12,139.29L451.45,138.34L451.78,131.61L452.11,132.1L452.44,139.67L453.11,146.3L453.44,142.08L453.77,141.15L454.1,143.2L455.1,155.81L455.43,152.34L455.76,152.36L456.42,154.25L456.75,145.99L458.08,159.53L458.41,162.58L458.74,168.33L459.07,162.82L459.4,160.87L459.74,169.65L460.07,166.25L460.4,160.18L460.73,158.64L461.06,160.68L461.39,155.67L461.72,161.8L462.06,168.23L462.72,166.33L463.05,162.15L463.71,130.04L464.04,151.31L464.38,157.05L464.71,150.58L465.04,152.31L465.37,153.5L465.7,139.85L466.37,157.39L466.7,156.81L467.03,155.84L467.36,156.67L467.69,160.85L468.02,174.69L468.35,167.77L468.69,162.87L469.02,174.23L469.35,170.04L469.68,167.73L470.01,165.55L470.34,156.67L470.67,148.68L471.01,150.14L471.34,154.72L471.67,158.24L472,153.08" style="vector-effect: non-scaling-stroke; fill: none; stroke: rgb(239, 85, 59); stroke-opacity: 1; stroke-width: 2px; opacity: 1;"/></g><g class="points"/><g class="text"/></g><g class="trace scatter trace0d3790" style="stroke-miterlimit: 2; opacity: 1;"><g class="fills"/><g class="errorbars"/><g class="lines"><path class="js-line" d="M0,183.74L1.33,202.47L1.66,195.41L2.32,204.95L2.65,203.83L2.98,199.2L3.31,201.23L3.65,200.84L3.98,198.31L4.64,194.47L4.97,195.19L5.3,196.7L5.63,193.18L5.97,203.8L6.63,198.6L6.96,206.56L7.62,202.26L7.96,192.94L8.29,206.81L8.62,198.8L8.95,196.39L9.28,194.33L9.61,195.81L9.94,202.68L10.61,214.36L10.94,205.5L11.6,218.1L11.93,209.17L13.26,220.42L13.59,210.23L13.92,210.67L14.25,208.56L14.58,220.83L14.92,213.73L15.25,215.49L15.91,215.95L16.24,223.08L17.24,213.41L17.57,213.02L17.9,196.33L18.56,197.83L18.89,192.68L19.56,211.98L19.89,206.04L20.22,204.65L21.21,213.68L21.54,213.07L22.21,214.73L22.54,201.86L23.87,221.95L24.2,218.83L24.53,220.37L24.86,217L25.19,218.5L25.52,190.63L26.52,199.12L26.85,195.13L27.18,190.81L27.51,210.68L27.84,210.93L28.17,209.2L28.51,206.36L28.84,182.93L29.17,200.92L29.5,186.56L29.83,187.62L31.49,213.41L31.82,207.28L32.15,207.47L32.48,204.76L32.81,213.5L33.15,203.99L33.48,201.48L33.81,203.98L34.14,178.25L36.13,216.54L36.46,212.78L37.12,200.74L37.46,205.23L37.79,207.29L38.12,215.1L38.78,214.47L39.11,211.04L39.44,199.58L39.78,207.57L40.11,214.61L40.44,213.23L40.77,223.31L41.76,203.01L42.1,219.25L42.76,210.19L43.09,217.39L43.42,218.13L43.75,214.51L44.08,218.44L44.42,210.46L45.41,230.09L45.74,213.34L46.07,218.3L46.4,211.14L47.73,229.18L48.06,217.4L49.06,222.2L50.05,225.57L50.71,229.05L51.04,210.19L51.38,212.84L51.71,230.11L52.04,228.24L52.37,237.03L52.7,203.91L53.03,214.96L53.37,213.87L55.35,251.71L55.69,236.74L57.01,248.73L57.34,229.33L57.67,220.54L58.01,240.13L58.34,240.05L58.67,242.01L59,243.17L59.33,252.35L59.66,255.29L59.99,245.3L60.66,253.32L60.99,250.4L61.32,252.56L61.65,263.34L61.98,256.63L62.31,254.56L62.65,248.34L62.98,258.21L63.31,261.03L63.64,257.07L63.97,265.2L64.3,231.31L64.97,254.42L65.3,252.98L65.63,245.42L65.96,243.05L66.29,244.87L66.62,133.97L67.95,199.91L68.28,197.57L68.94,217.75L69.28,217.3L69.61,218.57L70.27,233.77L70.6,231.76L70.93,237.39L71.6,224.68L71.93,224.88L72.26,230.94L72.59,230.36L72.92,230.64L73.25,242.02L73.58,237.23L73.92,240.11L74.25,239.49L74.91,251.54L75.24,248.15L75.57,249.11L76.57,236.55L76.9,246.57L77.56,240.19L77.89,243.53L78.22,251.84L78.56,249.27L78.89,249.64L79.22,250.4L79.88,248.5L80.21,255.19L80.54,254.44L80.88,257.3L81.21,253.15L81.54,254.56L81.87,261.96L82.53,264.33L82.87,262.13L83.2,262.96L83.53,260.21L84.52,261.71L84.85,256.93L85.19,259.4L85.52,254.04L85.85,251.18L86.18,239.02L87.51,246.64L87.84,243.23L88.17,240.53L88.5,249.9L88.83,250.28L89.16,246.92L89.49,255.98L89.83,249.14L90.16,243.28L90.49,242.89L90.82,248.27L91.48,242.01L91.81,249.52L92.81,261.01L93.14,259.36L93.47,260.18L93.8,263.35L94.13,266.03L94.47,255.15L95.13,261.51L95.46,256.94L95.79,258.07L96.12,253.18L96.46,256.88L96.79,248.38L97.12,246.65L97.45,249.77L98.11,260.78L98.44,256.87L98.78,259.58L99.77,249.71L100.1,255.84L100.43,256.56L100.76,255.59L101.1,252.51L101.43,247.78L101.76,249.69L102.09,250.53L102.42,257.52L102.75,254.55L103.08,248.11L103.42,252.14L103.75,247.23L104.08,243.93L104.41,249.16L104.74,246.27L105.07,245.73L105.4,245.15L105.74,249.53L106.07,237.95L106.4,243.53L106.73,249.57L108.39,229.72L108.72,229.47L110.38,248.31L110.71,234.34L111.04,237.07L111.37,229.62L112.37,244.26L112.7,242.84L113.03,243.56L113.36,246.72L114.02,238.34L114.35,248.26L115.02,244.16L115.35,233.4L116.01,219.29L116.34,230.06L117.34,239.6L117.67,234.27L118.33,196.92L118.66,210.83L118.99,237.23L119.66,254.12L119.99,253.75L120.32,251.67L120.98,237.68L121.31,246.39L121.98,254.11L122.31,244.33L123.63,249.6L123.97,255.02L124.63,262.78L124.96,253.58L125.29,252.25L125.62,253.38L125.96,232.33L126.62,250.36L126.95,249.39L127.28,244.5L128.28,238.72L128.61,243.07L128.94,244.98L129.27,238.65L130.26,258.39L130.6,256.7L130.93,253.6L131.26,260.99L131.59,253.87L132.25,255.57L132.58,259.2L132.92,259.35L133.25,260.93L133.58,265.98L133.91,255.91L134.24,255.84L134.57,258.06L135.24,261.12L135.57,277.23L136.56,253.09L136.89,255.66L137.22,253.88L137.56,256.87L138.22,260.98L138.55,251.78L138.88,250.97L139.21,252.21L139.88,260.66L140.21,255.73L140.54,257.55L140.87,238.22L141.2,247.87L141.53,250.23L142.2,254.37L142.53,249.79L142.86,255.72L143.19,241.77L144.19,257.74L144.52,250.91L145.18,257.14L145.51,246.03L146.17,254.02L146.51,249.34L147.17,258.91L147.5,256.46L147.83,243.38L148.49,254.93L148.83,253.73L149.16,251.69L149.82,255.73L150.15,245.53L150.48,246.85L150.81,242.36L151.15,248.61L151.48,241.4L151.81,235.37L152.14,239.32L152.8,239.13L153.13,242.12L153.47,240.77L153.8,247.85L154.79,221.77L155.12,226.63L155.46,231.78L155.79,234.04L156.12,230.55L156.78,234.89L157.11,232.48L157.44,221.83L158.44,238.11L158.77,236.61L159.1,239.43L159.43,236.65L159.76,237.79L160.1,240.65L160.43,239.91L160.76,242.74L161.42,247.95L161.75,232.28L162.08,232.91L162.42,236.66L163.41,227.37L163.74,230.8L164.4,224.43L164.74,225.08L165.07,224.77L166.06,239.51L166.39,234.85L167.06,233.86L167.39,230.77L168.38,223.51L168.71,224.65L169.04,229.34L169.38,237.36L169.71,230.05L170.04,223.68L171.37,207.48L171.7,213.88L172.03,208.96L172.36,212.65L172.69,211.67L173.02,214.53L173.35,211.07L173.69,211.51L174.35,220.6L174.68,218.99L175.01,218.98L175.67,204.71L176.01,205.68L176.34,214.62L176.67,213.68L177,215.37L177.66,213.28L177.99,219.08L178.33,216.14L178.66,222.39L178.99,225.81L179.32,221.58L179.65,224.16L179.98,222.36L180.31,203.74L180.98,211.28L181.31,207.74L181.64,204.22L182.97,217.98L183.3,223.03L183.63,220.59L183.96,221.39L184.29,223.65L184.96,228.47L185.29,224.52L185.62,225.42L185.95,221.49L186.61,226.59L186.94,224.84L187.28,235.49L187.94,232.42L188.27,234.55L188.6,228.76L188.93,232.18L189.26,232.3L189.6,224.38L189.93,231.02L190.26,236.7L190.59,238.88L190.92,235.41L191.25,235.01L191.58,229.04L191.92,217.89L192.25,219.82L192.58,223.3L192.91,220.28L193.24,223.56L193.57,225.5L193.9,227.37L194.24,217.71L194.57,215.07L194.9,220.41L195.89,217.73L196.22,217.82L196.89,214.34L197.22,215.23L197.55,217.66L198.88,195.68L199.21,198.41L200.2,208.06L200.53,207.16L200.87,211.29L201.53,185.59L201.86,188.41L202.19,187.07L202.52,192.75L202.85,189.62L203.19,190.99L203.85,186.89L204.18,191.26L205.17,205.83L205.51,203.79L205.84,202.73L206.83,193.2L207.16,200.31L207.49,198.98L207.83,201.35L208.49,192.64L208.82,198.33L209.15,198.99L209.48,202.87L210.15,205.49L210.48,192.25L211.14,201.08L211.47,197.05L212.13,202.5L212.47,197.75L212.8,188.72L213.13,191.68L213.46,193.7L213.79,194.72L214.12,188.47L214.46,187.12L214.79,182.16L215.78,186.2L216.11,183.19L216.78,192.27L217.11,189.11L217.44,183.31L217.77,190.27L218.1,189.16L218.43,186.8L219.1,187.63L219.76,171.93L220.09,177.95L220.42,179.38L220.75,178.24L221.08,176.26L221.42,178.18L222.08,177.61L222.41,173.92L223.07,173L223.4,182.25L223.74,180.44L225.39,165.99L225.72,167.33L226.06,177.17L226.39,169.48L226.72,162.18L227.05,170.6L227.38,163.78L227.71,165.71L229.37,148.24L229.7,149.2L230.03,148.41L230.37,156.37L230.7,161.85L231.03,159.78L231.36,138.12L233.02,144.86L233.35,151.26L233.68,147.53L234.01,134.84L235.67,151.73L236,151.21L236.33,145.75L236.66,154.17L237.33,158.15L237.66,160.95L237.99,162.54L238.32,159.41L239.31,123.81L239.65,132.95L239.98,167.62L240.97,180.55L241.3,175.25L241.63,167.82L241.97,177.66L242.3,176.46L242.63,180.7L242.96,179.02L243.29,183.73L243.62,182.74L243.96,185.92L244.62,190.8L244.95,186.72L245.28,186.42L245.61,188L246.61,196.82L246.94,197.28L247.6,195.43L247.93,191.47L248.93,207.59L249.26,203.13L249.59,205.5L250.25,189.08L250.58,194.37L250.92,200.23L252.24,187.72L252.57,193.39L252.9,192.1L253.24,195.85L253.57,182.36L253.9,188.3L254.23,195.51L255.56,181.6L255.89,192.97L256.55,207.39L256.88,204.42L257.21,201.25L258.21,212.85L258.54,209.48L259.2,214.02L259.53,210.19L260.53,213L260.86,207.27L261.19,206.58L261.52,203.58L261.85,201.43L262.19,206.46L262.52,211.59L262.85,198.87L264.17,188.61L264.51,189.44L264.84,198.85L265.17,201.61L265.5,201.46L265.83,199.85L266.16,200.79L266.49,189.91L267.49,205.18L267.82,202.36L268.15,193.6L268.48,196.83L268.81,185.88L269.81,190.71L270.14,186.35L270.47,187.98L270.8,183.34L271.13,178.11L271.47,183.84L271.8,179.82L272.46,184.9L272.79,181.22L273.12,170.86L273.46,173.88L273.79,176.3L274.45,181.63L274.78,178.95L275.11,179.98L276.11,169.92L276.44,173.26L277.43,175.8L277.76,170.56L278.1,170.39L278.43,173.48L278.76,161.7L279.09,164.26L279.42,167.74L280.08,177L280.42,169L281.08,174.01L281.41,179.4L281.74,178.68L282.07,184.21L282.4,176.29L282.74,180.15L283.07,179.53L283.73,181.26L284.06,184.04L284.39,183.64L284.72,185.69L285.06,185.77L285.39,188.82L285.72,181.28L286.38,182.02L286.71,185.41L287.71,151.64L288.04,148.35L288.37,148.11L288.7,146.13L289.03,153.97L289.7,153.15L290.03,156.74L291.35,168.25L291.69,152.09L292.02,153.39L292.35,149.74L292.68,153.67L293.01,150.1L293.34,149.18L294.67,166.21L295,165.85L295.33,167.78L295.66,166.56L295.99,170.17L296.66,164.85L296.99,167.56L297.32,174.92L297.65,171.23L297.98,169.6L298.98,164.03L299.31,171.64L299.97,168.09L300.3,170.59L300.63,166.94L300.97,172.42L301.63,159.25L301.96,160.63L302.29,165.09L302.96,167.98L303.29,158.77L303.62,158.19L303.95,154.94L304.28,154.99L304.61,157.06L304.94,161.41L305.28,156.88L305.61,140.01L305.94,139.43L306.27,149L306.6,147.61L306.93,155.38L307.26,154.11L307.6,159.65L307.93,159.41L308.26,153.29L309.58,169.95L309.92,167.23L310.25,161.2L311.9,177.23L312.24,173.68L313.23,167.84L313.56,176.11L314.22,188.14L314.56,181.77L315.22,169.12L315.55,170.32L315.88,174.19L316.54,181.73L316.88,177.14L317.21,172.9L317.54,174.58L317.87,176.06L318.2,183.07L318.53,177.08L318.87,178.04L319.2,177.67L319.53,191.69L319.86,192.07L320.19,189.51L320.52,194.34L320.85,191.03L321.19,192.44L321.52,191.25L321.85,196.04L322.84,187.33L323.17,188.6L323.51,192.33L323.84,189.81L324.17,194.01L324.5,193L324.83,188.9L326.49,204.4L326.82,203.38L327.15,202.53L327.48,201.66L327.81,198.39L328.81,206.37L329.14,202.49L329.47,197.48L329.8,202.2L330.13,199.02L330.47,204.43L330.8,196.97L331.46,195.22L331.79,201.26L332.12,201.2L332.46,199.2L333.45,186.19L333.78,188.08L334.11,184.22L334.44,182.95L334.78,188.6L335.44,173.26L335.77,179.88L336.1,176.95L336.43,179.04L336.76,188.51L337.1,185.86L337.43,187.55L337.76,190.7L338.09,191.11L338.42,189.9L338.75,190.12L339.08,191.92L339.42,191.41L339.75,193.75L340.08,197.54L340.41,179.04L340.74,159.08L341.07,162.8L341.4,174.99L342.4,170.43L342.73,177.57L343.72,164.6L344.06,164.92L344.39,165.84L344.72,166.38L345.05,164.96L345.38,168.21L345.71,167.16L346.04,165.85L347.04,175.03L347.37,169.75L347.7,174.69L348.03,171.45L348.37,168.54L348.7,172.95L349.03,170.18L349.36,167.47L349.69,175.18L350.02,173.07L350.35,166.76L350.69,176.76L351.02,173.26L351.35,169.78L351.68,170.58L352.01,174.07L352.34,175.25L352.67,174.52L353.01,173.43L354.66,189.07L354.99,185.23L356.65,191.97L356.98,181.14L358.31,188.34L358.64,185.49L359.97,172.04L360.3,150.24L360.63,151.33L360.96,184.88L361.29,194.55L361.96,194.24L362.29,189.69L362.62,187.89L362.95,192.81L363.28,189.68L363.61,190.62L363.94,194.41L364.28,193.86L364.61,189.31L364.94,188.16L365.27,189.97L365.6,189.65L365.93,192.72L366.26,193.96L366.6,191.92L367.26,192.17L367.59,189.18L367.92,190.98L368.25,180.46L370.24,192.58L370.57,192.32L370.9,191.35L371.24,194.33L372.56,203.82L372.89,207.1L373.22,210.51L373.56,205.81L374.22,211.27L374.55,206.75L375.21,199.98L375.54,203.33L375.88,197.4L376.21,199.06L376.54,203.14L377.2,205.36L377.53,216.19L378.53,205.19L378.86,203.94L379.19,206.95L379.52,203.84L379.85,200.33L380.52,196.92L380.85,197.91L381.18,199.89L381.51,199.62L381.84,198.23L382.17,199.67L382.51,196.02L382.84,197.85L383.17,193.27L383.83,193.01L384.49,200.71L384.83,193.92L385.49,199.58L385.82,195.68L386.15,199.41L386.48,198.15L386.81,196.09L387.48,191.15L387.81,192.81L388.14,192.01L388.47,189.69L388.8,190.46L389.13,177.63L390.46,184.09L390.79,183.36L391.12,183.71L392.12,169.68L392.45,171.17L392.78,175.29L393.11,172.34L393.44,173.73L394.11,174.67L394.44,175.32L394.77,173.48L395.1,175.55L395.43,176.54L396.43,174.27L396.76,179.48L397.09,176.27L397.42,181.92L398.42,173L398.75,174.94L399.08,178.3L399.41,177.12L399.74,176.77L400.74,173.39L401.07,173.69L401.73,176.18L402.06,175.34L402.39,175.4L402.72,173.68L403.06,165L404.05,169.84L404.38,168.85L404.71,173.67L405.04,169.11L405.38,160.41L405.71,152.33L406.04,157.16L406.37,156.6L406.7,153.33L407.03,156.28L407.37,156.29L408.69,165.93L409.02,157.78L409.69,166.22L410.02,163.61L410.35,156.86L410.68,159.92L411.01,170.59L411.34,169.52L411.67,171.94L412.34,108.59L412.67,112.88L413,121.3L414.66,157.12L414.99,156.39L415.32,152.89L415.65,159.56L416.98,166.66L417.31,163.32L417.64,162.27L417.97,157.33L418.63,151.71L418.97,154.62L419.3,155.45L419.63,150.48L419.96,149.32L420.29,150.46L420.62,157.02L421.29,155.97L421.62,160.18L422.28,153.55L422.61,160.03L422.94,155.89L423.28,157.37L423.61,161.74L424.6,155.64L424.93,153.38L425.26,153.3L425.6,157.88L425.93,158.21L426.26,160.95L426.92,158L427.25,159.93L428.58,171.11L428.91,171.2L429.24,165.26L429.57,172.44L429.9,171.03L430.24,170.18L430.57,176.04L430.9,191.75L431.23,184.66L431.56,181.87L431.89,180.69L432.22,182.39L432.89,177.67L433.22,165L433.55,161.77L433.88,162.86L434.21,170.02L435.21,166.44L435.54,162L436.2,153.51L436.53,159.77L436.87,162.37L437.2,160.53L437.53,159.23L438.52,153.26L438.85,156.1L439.19,158.57L439.52,156.06L439.85,152.4L440.18,156.09L440.51,152.66L440.84,154.88L441.17,152.47L441.51,154.07L441.84,153.33L442.17,154.04L442.5,149.38L443.16,156.71L443.49,154.44L443.83,155.2L444.49,157.62L444.82,155.58L445.15,156.7L445.48,151.58L446.48,159.05L446.81,159.35L447.14,159.82L447.47,161.92L447.8,160.08L448.13,163.51L448.47,161.59L448.8,163.29L449.13,164.45L449.46,168.61L449.79,164.55L450.12,167.36L450.46,172.24L451.12,171.97L451.45,174.52L452.11,170.12L452.44,172.31L452.78,177.77L453.44,169.54L453.77,170.92L454.1,172.55L455.1,168.28L455.43,172.1L456.42,182.3L456.75,179.96L457.08,181.24L457.42,176.78L457.75,177.02L458.08,182.47L459.07,175.17L459.74,175.39L460.07,181.22L460.4,185.05L460.73,181.24L461.06,183.25L462.06,174.1L462.39,178.56L463.71,164.79L464.04,169.12L465.37,175.79L465.7,170.26L466.03,172.73L466.37,168.98L467.36,174.25L467.69,174.75L468.35,186.06L469.02,185.51L469.35,187.11L470.01,191.22L470.34,181.39L471.01,175.81L471.34,176.53L471.67,179.21L472,181.45" style="vector-effect: non-scaling-stroke; fill: none; stroke: rgb(0, 204, 150); stroke-opacity: 1; stroke-width: 2px; opacity: 1;"/></g><g class="points"/><g class="text"/></g><g class="trace scatter tracef2e454" style="stroke-miterlimit: 2; opacity: 1;"><g class="fills"/><g class="errorbars"/><g class="lines"><path class="js-line" d="M0,123.42L0.66,150.74L0.99,148.7L1.33,154.51L1.66,157.2L1.99,139.25L2.65,154.91L2.98,149.34L3.31,151.49L3.65,149.15L3.98,161.44L4.31,154.1L4.64,157.11L4.97,159.83L5.3,156.59L5.63,163.06L6.3,160.91L6.63,166.61L7.29,161.74L7.62,156.39L7.96,168.91L8.29,152.89L8.62,156.71L8.95,151.27L9.28,152.58L9.61,156.99L10.28,158.52L10.61,155.89L11.27,140.28L11.6,151.62L11.93,160.72L12.26,153.79L12.6,154.43L12.93,157.03L13.26,152.7L13.59,139.67L13.92,146.17L14.25,168.47L14.58,168.87L14.92,176.73L15.91,155.22L16.24,162.34L16.57,175.72L16.9,173.64L17.24,168.17L18.56,156.97L18.89,163.97L19.22,165.61L19.56,164.11L19.89,154.1L20.88,175.51L21.21,182.02L22.87,155.72L23.2,162.44L23.53,171.23L23.87,164.94L24.2,163.75L24.53,164.57L24.86,156.01L25.19,153.51L25.52,131.02L25.85,134.56L26.19,127.81L26.85,138.27L27.18,133.66L27.84,146.99L28.17,146.64L28.51,145.37L29.5,151.87L29.83,146.55L30.16,145.1L30.49,158.01L31.82,125.39L32.15,145.73L32.48,146.57L32.81,138.1L33.15,137.21L33.48,127.68L33.81,127.66L34.14,126.47L35.13,157.98L35.47,157.78L35.8,154.87L36.46,146.18L36.79,152.98L37.79,159.73L38.12,159.67L38.45,156.54L38.78,141.7L39.78,161.31L40.11,164.03L41.1,175.86L41.43,169.21L41.76,173.52L42.1,170.67L42.43,168.97L43.09,179.08L43.42,187.53L43.75,175.13L44.08,176.48L44.42,181.87L45.08,179.99L45.41,187.41L45.74,186.02L46.07,178.29L46.4,177.46L46.74,179.31L47.07,178.76L47.4,179.94L47.73,178.94L48.06,180.59L48.39,175.17L48.72,184.07L49.06,187.92L50.05,188.94L51.04,179.92L51.38,182.76L51.71,184L52.04,190.76L53.03,182.12L53.37,181.47L53.7,191.85L54.03,185.68L54.36,185.46L54.69,183.06L55.02,189.05L55.35,179.59L55.69,189.86L56.02,199.57L57.01,186.93L57.34,171.84L58.34,198.02L58.67,195.83L59,199.76L59.66,194.3L59.99,196.62L60.33,195.51L60.99,206.21L61.32,196.69L61.98,195.86L62.31,190.74L62.98,199.62L63.31,194.64L63.64,189.57L63.97,190.6L64.3,185.47L64.63,184.99L64.97,183.16L65.96,190.08L66.29,160.34L66.62,107.97L66.96,136.76L67.29,153.1L67.62,153.17L67.95,161.46L68.94,153.17L69.28,162.62L69.94,160.68L70.27,166.09L70.6,162.17L70.93,165.4L71.26,169.08L72.59,184.66L72.92,178.86L73.25,176.79L73.58,169.18L74.91,178.12L75.24,174.33L75.57,175.3L75.9,170.58L76.57,173.48L76.9,172.67L77.23,172.18L77.56,173.14L77.89,169.21L79.22,188.41L79.55,183.21L80.88,191.82L81.21,191.69L81.54,192.99L82.2,190.76L82.53,194.68L82.87,184.54L83.2,192.18L83.53,187.57L84.19,195L84.52,187.52L85.52,181.87L85.85,188.58L86.84,181.39L87.17,185.26L87.51,182.79L87.84,184.48L88.17,188.12L89.83,180L90.16,185.57L90.49,187.73L90.82,184.83L91.15,184.58L91.48,185.53L91.81,182.16L92.15,188.96L92.48,189.61L92.81,192.33L94.47,179.65L94.8,191.35L95.13,189.56L95.46,189.95L95.79,191.68L96.79,182.97L97.12,185.96L97.78,185.15L98.11,188.27L98.44,190.56L98.78,188.78L99.11,178.77L99.77,185.4L100.1,183.34L100.43,170.43L100.76,173.35L101.1,189.9L101.43,189.31L101.76,190.71L102.75,194.94L103.08,193.19L103.42,203.23L103.75,193.92L104.08,185.77L105.07,195.63L105.4,187.35L105.74,186.08L106.07,175.67L107.06,193.64L107.39,182.9L107.72,181.84L108.06,191.24L108.39,180.73L108.72,187.55L109.05,185.69L109.38,190.92L109.71,186.7L110.04,184.59L110.71,186.86L111.04,177.96L112.03,188.88L112.37,180.8L112.7,181.34L113.03,176.98L114.02,193.32L114.35,187.33L114.69,183.82L115.02,186.96L115.35,154.86L116.34,166.51L116.67,162.95L117.34,161.7L117.67,167.1L118,160.19L118.33,164.9L118.66,142.07L119.66,189.54L119.99,191.76L120.98,179.19L121.31,192.49L121.98,189.88L122.31,184.07L122.64,173.82L122.97,187.53L123.97,197.58L124.3,195.14L124.63,198.11L125.62,189.14L125.96,192.8L126.29,193.86L126.62,191.85L127.61,174.43L127.94,179.89L128.28,181.21L128.61,180.21L128.94,178.9L129.6,173.46L129.93,175.2L130.26,183.22L130.6,187.68L130.93,186.31L131.26,181.99L131.59,173.56L132.25,174.99L132.58,176.12L132.92,176.5L133.25,172.67L133.58,176.36L133.91,171.56L134.24,171.34L134.57,174.34L135.57,191.41L135.9,183.38L136.89,165.69L137.22,170.81L137.56,175.44L138.22,172.81L138.55,160.48L139.21,160.04L140.21,178.11L140.54,173.71L141.53,151.31L141.87,158.89L142.53,167.39L142.86,165.25L143.19,167.04L143.52,168.07L143.85,164.28L144.52,169.86L144.85,164.27L145.18,162.64L145.51,151.93L147.5,165.35L147.83,150.9L148.16,150.77L148.49,151.64L149.16,148.25L149.49,157.24L149.82,160.02L150.15,157.72L150.48,151.47L150.81,143.73L151.15,148.68L151.48,148.24L152.47,160.86L152.8,152.38L153.13,145.26L153.47,151.9L153.8,149.6L154.79,135.68L155.12,142.92L155.79,140.33L156.12,135.31L156.78,144.45L157.11,140.99L157.44,138.73L157.78,138.86L158.11,140.49L159.1,144.96L159.43,140.27L159.76,139.76L160.1,142.05L160.76,138.91L161.09,145.78L161.42,147L161.75,135.51L162.08,137.36L162.42,135.13L162.75,141.45L163.41,135.14L163.74,140.68L164.07,131.69L164.4,139.13L164.74,137.81L165.07,145.82L165.4,143.74L165.73,139.88L166.06,138.27L166.39,145.52L167.06,125.69L167.39,133.7L167.72,130.62L168.05,130.23L168.38,122.66L169.38,111.89L169.71,131.73L170.04,133.79L170.37,131.82L170.7,126.55L171.03,128.67L171.37,125.81L172.03,130.14L172.36,143.22L173.69,110.18L174.02,115.71L174.35,127.68L174.68,129.67L175.01,126.6L175.34,128.44L175.67,122.39L176.01,106.22L176.34,118.18L176.67,113.16L177.33,138.3L177.99,137.5L178.33,141.27L178.99,145.21L179.32,138.36L179.65,137.6L179.98,143.77L180.31,146.02L180.65,138.21L181.31,154.72L181.64,151.54L181.97,148.1L182.3,144.47L182.63,153.55L183.3,147.85L183.63,156.54L183.96,153.34L184.29,164.47L185.29,143.81L185.62,150.62L185.95,151.7L186.28,161.49L186.61,164.27L186.94,159.66L187.61,149.41L187.94,150.59L188.27,162.43L188.6,170.7L188.93,168.82L189.26,167.2L190.26,158.61L190.59,169.11L190.92,168.79L191.25,169.96L191.58,170.48L191.92,164.76L192.25,160.75L192.58,161.73L192.91,166.38L193.57,165.27L193.9,166.18L194.24,173L194.57,166.08L194.9,169.44L195.23,170.37L195.56,168.76L196.22,162.07L196.56,173.31L196.89,172.6L197.22,164.45L197.55,164.19L197.88,162.66L198.21,168.23L198.54,165.24L198.88,154.16L199.87,161.17L200.2,161L200.53,163.5L200.87,162.72L201.2,149.56L201.86,142.55L202.19,149.69L203.85,140.12L204.18,142.49L204.84,149.7L205.17,147.88L205.51,147.9L205.84,153.47L206.17,139.01L206.5,136.08L206.83,149.99L207.49,153.41L207.83,143.07L208.16,142.77L208.49,147.95L209.15,143.78L209.48,145.62L210.15,153.93L210.48,127.3L211.47,144.02L211.8,148.02L212.47,150.46L212.8,147.26L213.13,148.9L213.46,145.72L213.79,146.8L214.12,152.28L214.46,152.26L214.79,150.18L215.12,149.71L215.45,139.5L216.11,157.55L216.44,156.56L216.78,157.61L217.11,157.97L217.44,150.59L217.77,151.21L218.1,150.84L218.43,154.43L218.76,158.73L219.1,157.5L219.43,140.71L219.76,134.46L220.09,135.31L220.42,138.83L220.75,146.36L221.08,145.04L221.42,132.53L221.75,132.19L222.08,127.48L222.41,128.67L222.74,128.3L223.07,117.81L223.74,134.25L224.07,125.88L224.4,128.01L224.73,122.11L225.06,122.68L225.39,101.97L226.39,116.28L226.72,122.07L227.05,121.64L227.38,125.58L227.71,126.04L228.04,136.17L228.38,135.08L228.71,136.03L229.04,126.66L229.37,123.26L229.7,125.16L230.03,129.31L230.37,129.87L230.7,134.08L231.03,135.04L231.36,128.06L232.02,113.81L232.35,120.4L232.69,120.89L233.35,128.23L233.68,144.85L234.34,137.03L234.67,145.51L235.01,148.24L235.34,143.18L235.67,141.91L236,150.78L236.33,149.18L236.66,143.41L237.33,152.46L237.66,146.87L237.99,147.49L238.32,145.98L239.31,129.2L239.65,136.3L240.31,169.46L240.64,162.7L240.97,166.18L241.3,163.39L241.63,166.67L241.97,171.2L242.3,155.42L242.96,156.28L243.29,161.35L244.29,153.95L244.62,160.54L244.95,157.02L245.28,164.62L245.61,164.83L245.94,174.01L246.28,161.65L246.61,163.4L246.94,168.51L247.27,167.77L247.6,171.71L247.93,168.78L248.26,175.73L248.6,170.75L248.93,173.01L249.26,173.18L249.59,169.19L250.25,169.93L250.58,174.22L250.92,165.72L251.25,166.85L251.58,170.6L251.91,171.43L252.24,169.39L252.57,171.92L252.9,182.39L253.9,169.37L254.23,174.09L254.56,174.2L254.89,177.87L255.22,182.65L255.56,173.63L255.89,170.1L256.22,174.58L256.55,179.5L257.54,186.5L257.88,183.65L259.2,175.13L259.53,176.64L259.87,178.32L260.2,171.14L260.53,169.62L260.86,172.16L261.52,165.67L261.85,170.09L262.19,177.75L262.52,170.95L262.85,159.31L263.51,167.79L263.84,151.14L264.51,168.35L264.84,158.79L265.83,165.02L266.16,178.03L267.16,186.98L267.49,186.03L267.82,179.91L268.15,181.06L268.48,184.45L269.15,193.2L269.48,192L269.81,181.23L270.14,182.36L270.47,176.85L270.8,179.86L271.13,179.24L271.47,178.46L272.46,171.77L272.79,177.85L273.12,174.77L273.46,178.84L273.79,175.47L274.12,180.88L274.78,181.13L275.78,170.93L276.11,171.97L276.44,172.17L276.77,177.59L277.43,165.45L277.76,170.3L278.1,173.8L278.76,185.02L279.09,176.45L279.42,172.81L279.75,177.52L280.08,172.61L280.42,174.15L280.75,179.51L281.41,185.75L281.74,185.15L282.07,184.07L283.07,168.68L283.4,179.46L283.73,175.1L284.06,182.02L285.06,174.24L285.39,176.9L285.72,174.74L286.05,177.03L286.38,177.49L286.71,173.03L287.04,139.07L288.7,158.37L289.03,153.29L290.69,170.07L291.02,165.5L291.69,156.66L292.02,170.23L292.35,165.74L293.01,166.48L293.34,169.15L294.01,186.74L294.34,177.51L294.67,175.77L295,181.56L295.66,173.92L295.99,175.14L296.33,179.98L296.66,168.67L296.99,169.27L297.32,176.92L297.65,178.37L297.98,171.59L298.31,161.9L298.65,173.51L298.98,163.95L299.31,163.29L299.97,170.57L300.3,162.9L300.63,165.58L300.97,164.28L301.3,162.4L302.29,176.29L302.62,172.17L302.96,171.96L303.29,159.65L303.62,157.68L303.95,160.01L304.28,170.14L305.28,176.12L305.61,149.77L305.94,145.62L306.27,147.52L306.6,154.1L306.93,156.85L307.26,153.21L307.93,143.42L308.26,146.7L308.59,148.42L309.58,163.61L309.92,155.11L310.25,168.35L310.58,160.09L310.91,156.24L311.9,167.44L312.24,165.94L312.57,178.8L312.9,170.42L313.23,171.85L313.56,175.23L313.89,168.12L314.56,173.21L314.89,164.27L315.22,165.55L315.55,159.66L316.21,171.18L316.54,165.48L316.88,165.89L317.21,175.52L317.54,168.6L317.87,172.01L318.53,179.25L318.87,173.04L319.2,154.05L319.53,164.17L319.86,164.07L320.19,166.56L320.52,185.2L320.85,179.49L321.19,185.55L321.52,147.4L322.51,180.33L322.84,177.95L323.17,156.67L324.17,191.22L324.5,185.29L324.83,185.23L325.16,198.1L325.83,204.24L326.16,197.27L327.15,187.68L327.48,199.27L328.15,205.27L328.48,200.75L328.81,205.54L329.14,195.18L329.47,191.18L329.8,203.72L331.13,198.22L331.46,186L331.79,180.41L332.12,188L333.12,200.38L333.45,193.03L333.78,180.01L334.11,188.29L334.44,204.91L334.78,205.34L335.11,200L335.44,202.06L335.77,193.83L336.1,187L336.43,189.33L336.76,201.3L337.1,208.83L337.43,207.56L337.76,205.88L338.42,195.26L338.75,196.8L339.08,208.05L339.42,211.33L339.75,210.69L340.08,200.41L341.07,175.52L341.4,185.74L342.07,190.88L342.4,178.41L342.73,179.24L343.06,185.63L343.39,186.55L343.72,196.8L344.06,194.39L344.39,203.24L345.05,197.24L345.38,186.42L347.04,204.57L347.37,189.55L347.7,181.63L348.03,182.31L348.37,192.44L349.03,193.36L349.36,192.42L350.35,179.98L350.69,189.44L351.35,187.94L351.68,191.23L352.67,176.69L353.01,184.49L354.33,203.52L354.66,186.39L354.99,179.53L355.33,199.75L355.99,195.43L356.32,196.93L357.31,175.85L357.65,185.14L358.64,177.73L358.97,173.17L359.63,170.62L359.97,178.28L360.63,147.22L360.96,181.15L361.96,195.64L362.29,193.13L362.95,185.54L363.28,195.12L363.61,188.26L363.94,192.27L364.28,199.23L364.61,194.16L364.94,194.85L365.27,197.36L365.6,194.67L365.93,198.23L366.6,187.23L366.93,193.86L367.59,189.95L367.92,190.09L368.25,172.13L368.58,176.52L368.92,169.24L369.25,187.44L369.58,181.29L369.91,178.52L370.24,176.17L370.57,179.81L371.24,172.95L371.57,183.57L371.9,186.58L372.23,186.06L372.56,185.69L373.22,178.54L373.56,179.23L373.89,183.08L375.21,191.37L375.54,190.53L375.88,184.09L376.21,185.8L376.54,190.68L376.87,192.24L377.2,186.94L377.53,206.2L377.87,195.99L378.2,192.77L378.86,210.13L379.19,206.25L379.52,206.96L379.85,207.62L380.19,201.03L380.52,196.23L380.85,202.51L381.18,198.71L381.51,202.92L381.84,202.11L382.17,207.34L382.51,200L382.84,199.67L383.17,205.44L384.16,215.59L384.49,191.92L384.83,192.88L385.16,196.47L385.49,198.26L385.82,196.28L386.15,197.38L386.48,196.6L386.81,183.45L387.15,187.42L387.48,181.12L388.8,195.09L389.13,179.96L389.8,169.05L390.13,174.51L390.46,174.37L391.46,180.31L391.79,176.95L392.45,175.19L392.78,176.61L393.44,185.5L393.78,183.84L394.11,187.7L394.77,185.69L395.1,186.64L395.76,191.46L396.1,191.11L396.43,192.96L396.76,188.66L397.09,192L397.42,197.6L397.75,194.82L398.08,196.37L398.42,202.89L398.75,206.15L399.08,202.94L399.41,198.26L399.74,196.6L400.07,197.78L400.4,202.06L400.74,211.69L401.4,209.62L401.73,205.9L402.39,207.29L402.72,207.01L403.06,187.15L404.05,203.81L404.38,200.46L404.71,200.29L405.04,206.3L405.38,202.33L405.71,201.25L406.04,187.72L406.37,202.66L406.7,199.98L407.37,196.08L407.7,196.54L408.03,199.4L408.36,201.61L408.69,199.8L409.02,195.39L409.35,195.42L409.69,199.09L410.35,198.92L410.68,194.9L412.01,189.01L412.34,113.92L413.99,169.69L414.33,175.99L414.66,177.32L414.99,186.47L415.32,187.92L415.65,186.93L415.98,191.77L417.31,180.7L417.64,187.69L418.3,185.74L418.63,189.79L418.97,190.16L419.3,171.56L419.63,183.83L419.96,175.43L420.29,166.93L420.62,175.7L421.29,174.63L421.62,180.55L421.95,190.97L422.28,189.45L422.61,185.27L422.94,186.77L423.28,182.8L423.61,183.33L423.94,190.25L424.27,195.17L424.6,192.13L424.93,189.94L425.6,194.67L425.93,193.33L426.26,192.33L427.58,200.29L427.92,197.41L428.25,200.52L428.58,196.2L428.91,190.58L429.24,192.74L429.57,197.13L430.57,215.11L430.9,185.95L431.23,176.69L431.56,182.53L431.89,187.17L432.89,200.41L433.22,194.02L433.55,193.91L433.88,196.62L434.88,204.88L435.21,203.41L435.87,204.84L436.2,202.62L436.53,209.18L437.2,208.21L437.53,206.72L437.86,205.25L438.19,205.49L438.52,209.54L439.52,219.18L439.85,220.49L440.18,233.08L440.51,229.51L440.84,222.74L441.51,232.34L441.84,231.61L442.17,232.8L442.5,226.95L442.83,233.5L443.16,233.97L443.49,239.67L443.83,230.32L444.49,233.48L444.82,198.88L445.48,216.86L445.81,214.7L446.15,216.08L446.48,216.28L446.81,217.74L447.14,199.17L447.47,206.55L447.8,210.5L448.13,210.84L448.47,209.02L448.8,206.76L449.13,218.2L450.46,213.55L450.79,219.18L451.12,223.1L451.45,222.59L451.78,213.99L452.11,214.43L452.44,222.66L452.78,218.36L453.11,218.59L453.44,221.84L453.77,221.42L454.1,215.57L454.76,222.91L455.1,219.44L455.76,234.62L456.09,233.71L456.42,218.73L457.08,231.01L457.75,230.8L458.08,230.87L458.74,223.65L459.07,223.78L459.4,226.98L459.74,223.61L460.07,234.07L461.06,220.39L461.39,235.42L461.72,234.51L462.06,237.14L463.05,226.76L463.38,208.01L464.04,193.27L464.38,210.54L465.37,225.71L465.7,210.48L466.03,215.8L466.37,209.55L466.7,208.44L467.69,214.82L468.02,210L468.35,209.23L468.69,215.6L469.35,217.96L469.68,223.41L470.01,218.05L470.34,197.43L471.34,218.71L471.67,220.7L472,221.34" style="vector-effect: non-scaling-stroke; fill: none; stroke: rgb(171, 99, 250); stroke-opacity: 1; stroke-width: 2px; opacity: 1;"/></g><g class="points"/><g class="text"/></g><g class="trace scatter trace93bb21" style="stroke-miterlimit: 2; opacity: 1;"><g class="fills"/><g class="errorbars"/><g class="lines"><path class="js-line" d="M0,38.95L0.99,69.76L1.33,66.89L1.66,66.08L1.99,69.1L2.32,59.93L2.65,69.82L3.31,68.47L3.65,77.12L4.64,56.44L4.97,62.03L5.63,55.64L5.97,62.56L6.3,63.47L6.63,62.1L6.96,62.79L7.29,42.18L7.62,51.06L8.29,50.6L8.62,49.12L9.28,46.58L9.61,48.62L10.61,58.92L10.94,50.05L11.27,40.16L11.6,42.13L11.93,56.04L12.26,53.65L12.6,54.94L12.93,56.08L13.59,29.69L13.92,34.02L14.25,54.14L15.58,68.18L15.91,55.12L17.24,71.2L17.57,69.03L18.23,54.06L18.56,54.3L18.89,57.71L20.22,91.33L20.55,80.5L21.21,89.53L21.54,88.24L21.88,89L22.21,95.65L22.54,79.45L22.87,57.61L23.2,80.17L23.53,85.75L23.87,83.53L24.2,74.67L24.53,83.88L24.86,78.85L25.19,60.41L25.52,78L25.85,75.8L26.19,69.64L26.52,72.52L26.85,72.41L27.18,63.17L27.51,59.79L27.84,65.84L28.51,79.11L28.84,76.77L29.17,81.51L29.83,71.62L30.16,79.75L30.83,89.19L31.16,82.82L31.49,82.95L31.82,81.34L32.48,70.85L32.81,87.44L34.14,74.57L34.47,72.51L34.8,76.84L35.13,95.06L35.47,94.94L35.8,96.37L36.13,95.54L36.46,77.75L36.79,70.28L37.12,77.5L37.46,96.68L38.45,90.62L38.78,78.64L39.11,72.68L39.44,73.47L39.78,83.42L40.77,98.94L41.1,93.13L41.43,80.13L41.76,80.23L42.1,94.09L42.43,93.94L42.76,89.3L43.42,95.35L43.75,83.4L44.08,72.35L44.42,98.12L44.75,95.09L45.08,98.11L45.41,101.85L45.74,99.82L46.07,84.76L46.4,81.34L46.74,112.9L47.4,102.54L47.73,104.34L48.06,104.16L48.39,77.78L48.72,82.07L49.06,116.51L50.05,118.26L50.71,80.96L51.04,83.11L51.38,117.04L51.71,109.74L52.04,115.74L52.37,114.65L52.7,112.87L53.03,89.59L53.37,87.52L53.7,113.89L54.03,116.13L54.36,115.74L54.69,87.6L55.02,110.72L55.35,97.54L55.69,91.97L56.68,121.86L57.01,119.51L58.01,91.73L58.34,115.06L58.67,114.34L59,116.25L59.33,118.23L59.66,114.97L60.33,96.1L60.66,118.81L62.65,75.44L62.98,95.35L63.31,91.2L63.64,94.34L63.97,97.3L64.97,68.13L65.3,92.92L65.63,99.86L65.96,99.27L66.29,88.58L66.62,50.76L66.96,76.51L67.29,66.29L67.62,94.08L67.95,87.68L68.28,82.93L68.61,79.28L68.94,80.94L69.28,68.23L69.61,63.91L69.94,81.81L70.27,80.21L70.6,83.3L70.93,89.32L71.26,81.98L71.6,87.35L71.93,75.59L72.26,104.83L73.58,92.15L73.92,79.34L74.25,67.37L74.58,98.3L75.24,100.98L75.57,97.02L76.57,72.24L76.9,103.1L78.56,67.01L78.89,70.28L79.22,103.4L79.88,99.04L80.21,102.01L80.54,97.72L80.88,77.04L81.21,80.78L81.54,106.93L81.87,107.66L82.2,106.53L83.53,69.06L83.86,100.68L84.52,98.68L84.85,93.65L85.85,64.31L86.18,89.43L86.51,89.97L86.84,89.14L87.17,92.55L87.51,96.14L87.84,81.58L88.17,77.46L88.5,106.23L88.83,96.16L89.16,103.66L89.49,100.97L90.49,77.93L90.82,88.69L91.48,92.75L91.81,89.31L92.81,76.31L93.14,96.75L93.47,102.79L93.8,86.95L94.13,80.78L94.47,88.9L95.13,76.19L95.46,100.05L96.12,94.78L96.46,96.46L96.79,85.99L97.45,89.3L97.78,100.97L98.78,114.69L99.11,101.52L99.77,96.46L100.1,116.19L101.76,103.01L102.09,104.3L102.75,129.23L103.08,121.39L103.42,131.18L104.41,104.31L104.74,120.29L105.07,123.65L105.4,104.05L105.74,115.01L106.07,107.84L106.4,109.4L106.73,109.1L107.06,127.37L107.39,142.72L108.06,139.5L108.39,127.28L109.05,116.15L109.38,139.91L109.71,147.38L110.04,138.55L110.38,127.77L110.71,131.39L111.04,129.63L111.37,121.58L112.03,136.82L112.37,127.27L112.7,127.56L113.03,133.56L113.69,120.68L114.02,135.25L114.35,136.7L114.69,130.2L115.02,131.91L115.35,128.34L116.01,112.98L116.34,130.35L118,111.96L118.33,114.15L118.66,75.29L119.66,126.7L119.99,121.43L120.32,118.26L120.65,131.79L120.98,122.28L121.31,126.13L121.65,128.46L121.98,134.81L122.31,131.15L122.64,125.02L122.97,119.46L123.3,137.46L123.63,136.47L123.97,138.3L124.3,136.45L124.63,151.88L125.29,135.24L125.62,149.11L125.96,140.62L126.29,148.81L126.62,144.89L127.61,108.46L127.94,120.66L128.28,126.59L129.27,114.75L129.6,106.16L129.93,99.95L130.26,124.1L130.6,133.1L130.93,126.07L131.26,119.66L131.59,120.44L131.92,110.28L132.25,110.6L132.58,125.36L133.58,129.91L133.91,126.28L134.57,91.29L134.9,111.54L135.57,126.14L135.9,125.96L136.23,121.94L136.89,101.27L137.22,124.07L137.56,128.48L137.89,126.5L138.22,122.61L139.21,85.58L139.54,108.71L139.88,115.95L140.21,115.41L140.54,113.24L141.2,82.95L141.53,89.71L141.87,98.69L142.2,96.45L142.53,100.37L143.85,87.57L144.19,99.81L144.52,98.04L144.85,99.93L145.18,99.01L146.17,77.72L146.51,84L146.84,79.15L147.17,85.89L147.5,84.67L147.83,75.04L148.49,64.81L148.83,70.49L149.16,76.48L149.49,71.31L149.82,59.54L150.15,59.86L150.48,65.65L150.81,66.05L151.15,76.98L151.48,79.51L151.81,72.33L152.47,81.95L152.8,62.15L153.13,64.58L153.47,76.2L154.13,72.57L154.46,64.72L155.12,50.73L155.46,103L156.45,62.18L156.78,61.77L157.11,69.32L157.44,62.36L157.78,52.17L158.77,73.52L159.1,65.59L159.43,59.82L159.76,61.52L160.1,61.73L160.43,64.42L160.76,61.64L161.09,72.54L162.42,64.29L162.75,74.65L163.08,72.97L163.41,66.48L164.07,66.49L164.4,77.99L164.74,69.58L165.07,88.31L167.06,47.63L167.39,64.03L168.38,69.8L168.71,90.43L169.04,70.24L169.38,72.37L169.71,87.12L170.04,87.8L170.37,86.67L171.37,70.25L171.7,75.26L172.03,89.85L172.69,88.5L173.02,91.35L173.69,51.2L174.02,59.22L174.35,70.02L174.68,78.25L175.01,77.92L175.34,74.21L175.67,74.54L176.01,56.35L176.34,45.25L176.67,74.81L177.66,89.59L177.99,84.07L178.66,64.07L178.99,92.1L179.65,73.55L179.98,81.81L180.31,93.83L180.65,71.49L180.98,76.56L181.31,88.62L182.3,86.75L182.63,79.86L182.97,81.39L183.3,77.81L183.63,94.25L183.96,90.96L184.29,87.81L184.62,90.17L184.96,77.11L185.29,70.03L185.62,73.36L185.95,83.5L186.28,83.28L186.61,84.76L187.94,62.28L188.27,81.62L188.93,80.77L189.26,88.36L189.93,69.86L190.26,74.26L190.59,89.29L191.92,73.81L192.25,60.86L192.91,90.4L193.24,85.84L193.57,82.52L193.9,82.73L194.24,75.56L194.9,69.04L195.23,91.6L195.89,87.31L196.22,87.49L196.56,89.51L197.22,63.05L197.55,75.99L197.88,80.71L198.21,74.17L198.54,79.59L198.88,75.42L199.21,71.11L199.54,60.27L199.87,73.67L200.2,74.04L200.53,65.39L200.87,74.36L201.2,71.9L201.53,67.05L201.86,69.38L202.19,75.74L202.85,75.93L203.19,71.78L203.52,56.33L203.85,56.7L204.18,55.24L204.51,63.9L205.17,62.82L205.51,67.77L206.5,58.97L206.83,70.37L207.16,70.24L207.49,67.67L207.83,70.91L208.16,62.93L208.82,51.92L209.15,69.22L209.81,76.02L210.15,66.4L210.48,70.05L210.81,64.17L211.14,57.67L211.47,74.91L211.8,82.54L212.13,78.89L212.47,77.83L213.46,57.99L213.79,77.38L214.12,75.5L214.46,76.63L214.79,61.88L215.12,63.92L215.45,58.42L215.78,53.68L216.11,81.81L217.77,64.57L218.1,55.64L218.76,82.65L219.1,80.78L219.43,68.9L220.09,46.02L220.42,54.86L220.75,74.46L221.08,77.89L221.42,73.39L222.08,40.44L222.41,47.18L222.74,44.38L223.07,65.77L223.74,62.49L224.07,58.04L224.4,57.38L224.73,55.02L225.06,43.32L225.39,63.35L225.72,67.94L226.06,65.95L226.39,49.19L226.72,55.75L227.05,43.66L228.71,75.52L229.04,79.04L229.7,52.73L230.03,79.3L230.37,89.29L230.7,88.1L231.03,81.66L232.02,59.08L232.35,76.14L233.02,84.98L233.35,83.13L233.68,82.22L234.01,79.71L234.34,71.19L235.01,95.97L235.34,87.26L235.67,86.84L236,94.56L236.33,57.94L236.99,98.15L237.33,95.09L237.66,90.57L237.99,89.46L238.32,83.18L238.98,63.18L239.31,67.23L239.65,16L240.31,88.25L240.64,83.38L240.97,73.33L241.63,72.97L241.97,40.23L242.63,88.32L242.96,85.15L243.29,75.66L243.62,74.33L243.96,90.67L244.29,86.91L244.62,93.32L245.28,87L245.61,75.61L245.94,70.89L246.28,94.35L246.61,91.25L246.94,93.19L247.27,93.06L247.6,100.66L247.93,90.73L248.26,79.24L248.6,96.43L249.59,100.47L249.92,94.37L250.25,88.12L250.58,89.21L250.92,96.95L251.91,105.8L252.24,103.78L252.57,103.39L252.9,95.49L253.24,95.77L253.57,104.14L253.9,101.94L254.23,102.59L254.56,113.84L255.22,99.45L255.56,109.85L256.22,108.99L256.55,116.34L256.88,116.22L257.54,109.38L257.88,116.55L258.54,114.2L258.87,117.72L260.2,93.65L260.53,97.57L260.86,92.13L261.19,96.8L261.52,93.89L262.19,77.66L262.52,89.69L262.85,84L263.18,93.13L264.17,75.93L264.51,77.56L264.84,91.57L265.17,94.33L265.5,83.86L265.83,95.54L266.16,95.33L266.49,85.6L266.83,84.71L267.16,102.16L267.82,102.32L268.15,96.01L268.81,75.92L269.15,80.27L269.48,91.24L270.47,82.98L270.8,70.83L271.13,66.51L271.47,70.74L271.8,84.52L272.13,89.7L272.46,85.88L272.79,80.88L273.12,86.09L273.46,71.29L273.79,75.33L274.12,93.98L275.11,82.35L275.44,68.98L276.11,74.03L276.44,82.54L276.77,84.18L277.1,78.53L277.76,62.4L278.1,75.9L278.43,69.31L278.76,91.53L279.09,89.53L279.42,91.92L279.75,83.85L280.08,90.71L280.42,81.04L280.75,76.61L281.08,87.64L281.41,90.68L281.74,79.54L282.07,96.39L282.4,84.13L282.74,70.12L283.07,69.61L283.4,89.28L283.73,87.69L284.06,88.14L284.39,89.77L285.06,70.66L285.39,175.44L286.38,63.9L286.71,76.45L287.71,56.47L288.04,68.19L289.03,72.28L289.37,66.86L289.7,62.7L290.03,64.98L290.36,87.25L291.02,91.78L291.35,84.55L292.02,60.19L292.35,62.2L292.68,84.22L293.01,84.28L293.34,86.82L293.67,82.31L294.01,90.22L294.67,73.39L295,89.59L295.33,82.29L295.66,83.03L295.99,84.64L296.99,59.84L297.32,89.41L298.65,64.98L298.98,56.29L299.97,79.13L300.3,75.32L300.63,78.32L300.97,78.97L301.3,66.93L301.63,62.4L301.96,77.48L302.29,82.45L302.62,75.52L302.96,81.3L303.29,68.78L304.28,95.65L304.61,92.52L304.94,91.75L305.28,87.77L305.61,63.38L306.27,55.98L306.6,83.26L307.93,68.35L308.26,53.68L308.59,56.26L308.92,70.89L309.25,76.35L309.58,74.1L309.92,68.15L310.25,66.07L310.58,58.1L310.91,57.75L311.24,77.85L311.57,79.35L311.9,77.06L312.24,77.26L312.57,73.01L312.9,56.04L313.23,61.51L313.56,80.7L314.22,60.81L314.56,67.05L314.89,68.75L315.55,37.58L315.88,64.52L316.54,72.21L316.88,59.92L317.21,63.38L317.54,49.33L317.87,47.68L318.2,65.09L318.53,66.81L318.87,64.54L319.2,59.73L319.53,83.27L320.19,44.41L320.52,77.27L321.52,62.84L321.85,65.53L322.18,47.3L322.51,48.21L322.84,78.08L323.84,64.88L324.17,61.32L324.83,38.48L325.16,79.77L325.49,72L325.83,83.26L326.16,80.92L326.49,72.87L326.82,56.03L327.15,58.46L327.48,81.84L327.81,90.79L328.15,83.49L328.48,76.97L329.47,48.64L329.8,90.22L331.13,69.51L331.46,43.11L331.79,41.89L332.12,78.91L332.46,85.32L332.79,77.78L333.12,80.47L334.11,42.96L334.44,78.25L334.78,77.61L335.11,81.36L335.44,91.62L335.77,75.99L336.1,56.09L336.43,57.62L336.76,85.75L337.1,79.89L337.43,82.69L337.76,83.11L338.75,49.63L339.08,81.64L339.75,75.31L340.08,76.4L340.41,63.97L340.74,50.49L341.07,50.6L341.4,71.33L341.74,73.96L342.07,67.21L342.4,67.35L342.73,64.15L343.06,49.74L343.39,50.34L343.72,78.3L345.05,87.81L345.38,74.37L345.71,72.96L346.04,99.01L346.38,100.4L346.71,97.51L347.04,96.05L347.37,81.28L348.03,71.76L348.37,97.64L350.35,69.56L350.69,93.56L351.02,90.89L351.35,98.26L352.34,61.7L352.67,62.78L353.01,75.68L354,104.3L354.33,97.07L354.66,76.44L354.99,74.46L355.33,95.3L355.66,93.05L355.99,200.3L356.98,69.77L357.31,61.83L357.65,87.53L357.98,85.13L358.31,79.7L358.64,81.56L358.97,88.12L359.63,54.65L359.97,78.1L360.63,19.82L360.96,74.31L361.29,72.07L361.62,59.82L361.96,51.65L362.29,73.68L362.62,68.12L362.95,44.84L363.61,89.23L363.94,75.81L364.28,68.37L364.94,103.95L365.27,92.99L365.6,80.3L365.93,81.97L366.26,59.11L366.6,54.56L366.93,75.48L367.59,81.53L367.92,76.51L368.25,75.87L368.58,62.47L368.92,45.24L369.25,76.86L369.58,74.53L369.91,84.23L371.24,48.64L371.57,75.69L371.9,89.45L372.23,80.46L372.56,80.96L373.56,51.01L373.89,80.04L374.88,77.95L375.21,83.06L375.88,57.31L376.21,86.26L376.54,84.35L376.87,86.82L377.2,80.44L377.53,87.48L377.87,69.14L378.2,61.51L378.53,93.6L379.19,96.24L379.52,92.24L380.19,67.65L380.52,55.79L381.84,89.55L382.17,78.82L382.84,67.25L383.17,91.71L383.5,95.05L383.83,87.1L385.16,62.91L385.49,86.99L385.82,89.49L386.15,85.54L387.48,59.96L387.81,78.3L388.14,75.84L388.47,77.39L388.8,80.33L389.47,51.69L389.8,52.04L390.13,76.86L390.46,76.83L390.79,70.4L391.12,76.71L391.46,69.94L391.79,61.91L392.12,58.96L392.45,82.6L392.78,81.19L393.11,83.68L393.44,88.06L393.78,87.02L394.11,70.74L394.44,65.26L394.77,99.88L395.1,103.17L395.43,82.93L395.76,76.26L396.1,81.11L396.43,84.9L396.76,74.94L397.09,104.05L397.42,104.24L397.75,106.82L398.08,102.56L398.42,104.95L398.75,87.94L399.08,78.01L399.41,99.29L399.74,93.31L400.07,107.76L400.74,104.01L401.07,88.92L401.4,79.53L401.73,117.62L403.72,83.52L404.05,117.24L405.38,98.75L405.71,75.55L406.04,63.5L406.37,103.84L406.7,103.18L407.03,99.75L407.37,95.25L407.7,79.23L408.03,79.29L408.36,76.35L409.02,104.32L409.35,98.77L409.69,98.64L410.02,100.04L410.35,87.62L410.68,79.19L411.01,96.37L411.34,99.54L411.67,93.88L412.01,87.71L412.34,45.63L413.33,97.9L413.66,80.1L414.33,97.04L414.66,91.86L414.99,91.85L415.32,83.85L415.65,107.5L416.31,101.37L416.65,89.63L416.98,104.14L417.31,83.36L417.64,87.52L417.97,104.76L418.3,105.61L418.63,114.07L418.97,110.98L419.3,89.41L419.96,68.14L420.29,184.44L420.96,100.17L421.29,100.92L421.62,95.15L421.95,93.38L422.28,83.11L423.28,114.33L423.61,110.49L424.27,93.34L424.6,81.93L425.6,114.44L425.93,115.17L426.26,118.86L426.59,101.96L426.92,98.24L427.25,126.78L427.58,133.46L427.92,124.43L428.25,122.42L428.58,103.9L429.24,92.81L429.57,126.94L429.9,119.6L430.24,120.79L430.57,134.99L431.56,93.29L431.89,126.16L432.56,120.96L432.89,122.97L433.88,88.56L434.21,122.62L435.21,119.76L435.54,112.9L436.2,86.55L436.53,128.82L436.87,126.16L437.2,134.55L438.52,111.22L438.85,140.33L439.19,140.99L439.52,143.41L439.85,143.97L440.18,146.58L440.84,126.63L441.17,149.7L441.51,156.51L441.84,152.56L442.17,142.79L442.5,146.9L442.83,128.27L443.16,124.06L443.49,150.37L443.83,150.73L444.16,152.63L444.49,154.13L444.82,133.53L445.48,111.55L445.81,125.32L446.81,147.21L447.14,144.79L447.8,117.91L448.13,158.44L449.79,122.31L450.12,128.15L450.46,153.18L450.79,155.68L451.12,152.94L451.45,147.96L451.78,156.33L452.11,134.62L452.44,132.35L452.78,160.9L454.1,152.08L454.43,137.88L454.76,139.67L455.1,163.21L455.43,166.22L455.76,158.67L456.09,159.23L456.42,154.81L457.08,125.34L457.42,128.53L457.75,156.59L458.41,161.5L458.74,147.25L459.4,130.22L459.74,155.88L460.07,150.58L460.4,155.92L460.73,152.41L461.06,155.31L461.39,146.58L461.72,139.69L462.06,161.61L462.39,163.72L462.72,159.08L463.05,157.85L463.38,148.55L464.04,112.12L464.38,131.02L464.71,154.07L465.7,141.62L466.03,124.73L466.37,120.07L466.7,153.05L467.03,155.05L467.36,151.62L467.69,155.76L468.02,155.42L468.35,136.18L468.69,128.58L469.02,167.25L470.01,159.38L470.34,138L471.01,129.91L471.34,160.03L471.67,165.16L472,148.11" style="vector-effect: non-scaling-stroke; fill: none; stroke: rgb(255, 161, 90); stroke-opacity: 1; stroke-width: 2px; opacity: 1;"/></g><g class="points"/><g class="text"/></g><g class="trace scatter tracef2c8cc" style="stroke-miterlimit: 2; opacity: 1;"><g class="fills"/><g class="errorbars"/><g class="lines"><path class="js-line" d="M0,198.68L0.33,195.52L0.66,200.26L1.33,207.95L1.66,181.7L2.32,201.68L2.65,201.26L2.98,195.87L3.31,181.63L3.65,187.11L3.98,186.55L4.31,181.09L4.64,197.25L5.63,184.53L5.97,168.33L6.96,207.65L7.29,196.38L8.29,186.59L8.62,185.44L8.95,185.31L9.28,196.26L9.61,196.71L9.94,203.35L10.28,203.37L10.61,186.58L11.27,182.12L11.6,188.93L11.93,200.44L12.26,200.36L12.6,189.72L12.93,205.19L13.59,204.49L13.92,207.78L14.92,223.16L15.25,220.55L15.58,218.59L15.91,210.37L16.24,228.34L16.57,217.6L16.9,211.25L17.24,213.76L17.57,222.63L17.9,212.66L18.23,212.99L18.56,219.68L18.89,214.36L19.22,222.13L19.56,225.33L19.89,237.09L20.55,213.19L20.88,236.17L21.21,229.28L21.54,229.36L21.88,233.07L22.21,235.49L22.54,228L23.2,236.95L23.53,227.01L23.87,232.49L24.2,230.21L24.53,226.93L24.86,220.8L25.19,231.43L25.85,162.09L26.19,165.32L26.52,159.35L27.18,138.35L27.51,144.3L27.84,146.56L28.17,137.71L28.51,162.95L30.16,209.67L30.49,191.41L31.16,179.13L31.49,183.93L31.82,191.57L32.15,183.67L32.48,203.64L33.15,182.6L33.48,185.21L33.81,189.02L34.14,169.91L34.8,170.74L35.13,178.87L35.8,171.91L36.13,177.85L36.46,169.83L36.79,182.45L37.12,189.84L37.46,181.65L37.79,183.84L38.12,171.1L38.45,183.06L38.78,140.37L39.44,178.04L39.78,171.53L40.11,171.29L41.1,177.09L41.43,201.12L41.76,203.43L42.1,196.73L43.09,216.27L43.42,208.15L44.42,229.15L44.75,226.23L45.08,222.69L45.74,212.35L46.07,226.46L46.4,226.83L46.74,223.3L48.06,208.62L48.39,216.02L48.72,215.96L49.06,217.74L50.71,187.94L51.04,206.85L51.38,213.59L51.71,201.7L52.37,200.05L52.7,193.2L53.03,195.2L53.37,192.23L53.7,191.89L54.03,198.58L54.36,204.69L54.69,198.43L55.02,194.6L56.02,220.34L56.35,222.32L56.68,218.5L57.01,201.01L57.34,184.77L57.67,195.97L58.01,212.98L58.34,205.52L58.67,217.91L59.66,193.22L59.99,203.51L60.33,204.79L60.66,200.77L60.99,215.15L61.32,212.9L61.65,204.29L61.98,206.24L62.31,205.14L62.65,219.96L63.64,207.99L63.97,220.4L64.63,205.72L64.97,221.31L65.3,211.82L65.63,218.27L65.96,223.37L66.62,115.75L66.96,139.88L67.29,141.52L67.95,191.28L68.28,177.95L68.61,184.96L68.94,203.7L69.28,195.14L69.61,191.61L70.27,204.25L70.6,203.5L70.93,195.16L72.26,217.44L72.59,227.92L73.58,222.18L73.92,216.27L74.91,238.39L75.24,234.6L75.57,198.28L75.9,224.01L76.24,216.37L77.23,238.65L77.56,236.49L77.89,224.7L78.22,219.04L78.56,221.38L78.89,227.59L79.22,225.94L79.55,229.63L80.54,220.3L80.88,219.78L81.21,232.5L81.54,226.76L81.87,228.62L82.2,227.31L82.53,214.74L83.53,232.18L83.86,231.31L84.19,248.04L84.52,247.16L84.85,253.95L85.19,221.79L85.52,223.13L85.85,244.92L86.18,236.56L86.51,238.08L86.84,242.47L87.17,244.74L87.51,232.56L88.5,255.92L88.83,256.06L89.16,257.16L89.49,253.61L90.16,237.37L90.49,260.36L90.82,260.99L91.15,235.91L92.15,252.37L92.48,253.11L93.47,270.06L93.8,269.88L94.13,246.64L94.47,259.14L94.8,253.78L95.46,279.35L96.12,276.07L96.46,274.17L97.12,245.32L97.45,276.06L97.78,271.56L98.11,275.02L98.44,282.3L99.11,239.45L99.44,250.58L99.77,273.16L100.43,257.85L100.76,264.93L101.1,264.4L101.76,254.1L102.09,264.89L102.42,273.68L102.75,267.91L103.08,270.49L104.08,247.05L104.41,260.56L105.07,256.83L105.4,263.36L106.07,241.92L106.4,243.6L106.73,245.15L107.39,275.61L107.72,259.59L108.06,273.21L108.39,253.17L108.72,240.95L109.05,256.78L109.38,256.4L109.71,265.24L110.04,262.97L110.38,247.01L111.04,225.74L111.37,227.26L111.7,230.93L112.37,242.56L112.7,233.93L113.03,231.42L113.36,212.41L114.02,223.12L114.35,218.01L114.69,217.4L115.02,212.84L115.35,148.44L116.34,127.43L116.67,133.38L117.01,148.34L117.67,209.91L118,189.49L118.33,128.68L119.33,259.33L119.66,257.69L119.99,259.63L120.32,259.53L120.65,216.84L121.31,251.44L121.65,251.26L121.98,257.36L122.31,252.57L122.64,255.75L122.97,258.5L123.63,243.48L123.97,260.79L124.3,248.47L124.63,261.38L124.96,249.6L125.29,245.96L125.62,248.51L125.96,236.11L126.95,256.24L127.28,243.39L127.61,256.67L128.28,255.07L128.61,250.2L128.94,252.42L129.27,238.61L130.26,261.25L130.6,265.45L130.93,270.3L131.26,268.8L131.59,253.81L131.92,251.07L132.25,266.93L132.58,253.68L132.92,263.4L133.25,259.3L133.91,243.12L134.24,252.06L134.57,244.4L134.9,246.71L135.24,253.47L135.57,257.09L135.9,248.89L136.89,234.89L137.22,251.38L137.56,247.75L137.89,254.6L138.22,254.33L138.55,259.96L138.88,249.16L139.21,253.54L139.54,252.17L140.87,268.09L141.2,263.35L141.53,280.42L141.87,272.52L142.2,267.27L143.19,286.63L143.52,280.33L144.52,287.78L144.85,303.21L145.84,276.7L146.17,283.9L146.51,292.78L146.84,294.56L147.17,304L147.83,277.29L148.16,281.66L148.49,289.89L149.82,273.64L150.15,254.55L150.81,266.41L151.15,254.2L151.48,267.84L151.81,258.45L152.14,249.14L152.8,267.86L153.13,267.61L153.47,259.5L153.8,265.82L154.13,258.95L154.46,254.74L155.12,238.07L155.46,257.11L156.12,246.55L156.45,254.84L156.78,252.7L157.11,253.56L157.44,236.64L158.44,257.89L158.77,270.25L159.1,272.15L159.43,257.45L160.1,262.77L160.43,252.95L161.09,253.71L161.42,238.11L161.75,239.19L162.08,233.66L162.42,232.27L162.75,236.23L163.41,232.71L163.74,214.27L164.74,237.36L165.07,237.03L165.4,239.21L166.06,243.66L166.39,235.14L166.72,226.92L167.06,240.59L167.39,237.53L167.72,221.04L168.71,196.95L169.04,229.65L169.38,235.57L169.71,217.95L170.04,241.87L170.7,238.47L171.03,229.63L171.37,224.11L171.7,235.14L172.03,229.08L172.36,233.33L172.69,236.09L173.02,240.07L173.35,231.08L174.02,221.19L174.35,233.46L174.68,225.79L175.01,232.22L175.34,232.59L175.67,243.03L176.01,221.1L176.34,205.87L176.67,209.7L177,219.73L177.66,245.01L177.99,219.47L178.66,256.33L178.99,225.69L180.31,248.24L180.65,241.79L181.64,252.84L181.97,251.67L182.3,244.08L182.63,254.79L183.3,252.77L183.63,249.84L183.96,258.7L184.62,257.44L184.96,263.86L185.62,271.66L185.95,264.62L186.28,267.27L186.61,259.88L186.94,242.46L187.28,268.11L187.61,258.33L187.94,260.7L188.27,262.01L188.93,262.1L189.26,271.67L189.6,254.79L189.93,278.15L190.59,258.85L190.92,263.64L191.25,261.87L191.58,266.9L191.92,245.78L192.25,262.14L192.58,251.91L192.91,247.26L193.24,252.95L193.57,244.82L193.9,236.57L194.24,251.03L194.57,267.78L194.9,264.45L195.23,253.25L196.22,265.54L196.56,285.95L196.89,286.68L197.22,277.56L197.88,274.61L198.21,276.31L198.54,273.51L198.88,287.41L200.2,265.27L200.53,265.79L200.87,264.01L201.2,218.04L202.52,228.29L202.85,225.9L203.85,207.58L204.18,222.23L204.84,219.76L205.17,209.43L205.51,207.99L205.84,213.06L206.17,216.59L206.5,233.29L207.49,223.32L207.83,225.85L208.16,203.06L208.49,207.47L208.82,222.23L209.15,207.59L209.48,216.19L209.81,220.87L210.15,204.98L210.48,212.98L210.81,214.35L211.14,217.48L211.47,211.21L212.13,202.11L212.47,221.37L212.8,202.74L213.13,221.02L213.46,221.92L213.79,222.71L214.12,221.91L214.46,210.37L214.79,210.89L215.12,213.34L215.45,224.2L215.78,219.49L216.11,215.83L216.44,221.16L216.78,214.75L217.11,196.6L217.44,192.79L217.77,214.9L218.1,212.99L218.43,200.59L219.43,209.98L219.76,203.34L220.09,211.92L220.42,185.25L220.75,179.76L221.08,189.41L221.42,158.46L221.75,176.43L222.08,177.69L223.07,186.24L223.4,179.75L224.4,170.54L224.73,159.33L225.06,172.78L225.72,169.66L226.06,170.21L226.39,176.75L226.72,167.64L227.71,181.86L228.04,178.93L228.38,177.2L229.7,150.87L230.03,163.62L231.03,145.24L231.36,99.19L231.69,70.41L232.35,74.57L232.69,77.86L233.35,83.31L233.68,99.93L234.34,94.67L234.67,102.52L235.01,98.96L235.34,102.77L235.67,100.87L236.33,116.17L236.66,114.39L236.99,112.16L237.33,120.13L237.66,110.75L237.99,100.35L238.98,73.42L239.31,18.15L239.65,41.56L239.98,143.64L240.97,165.55L241.3,165.66L241.63,121.51L241.97,176.95L242.63,163.57L242.96,168.71L243.29,167.35L243.62,163.08L243.96,163.26L244.29,173.37L244.62,173.68L244.95,167L245.28,174.32L245.61,172.71L245.94,168.82L246.28,171.17L246.61,168.16L247.27,166.78L247.6,179.69L247.93,176.23L248.26,176.44L248.6,182L250.25,149.85L250.58,169.29L251.25,166.57L251.58,170.2L251.91,173.45L252.24,155.21L253.57,180.72L253.9,172.62L254.23,170.33L254.56,173.96L254.89,167.89L255.22,179.16L256.22,174.71L256.55,172.65L256.88,174.36L257.21,173.98L257.54,181.01L257.88,182.96L258.21,176.71L258.87,162.81L259.2,149.97L259.53,170.38L259.87,168.45L260.2,159.74L260.86,180.35L261.19,161.8L261.85,149.34L262.19,155.1L262.85,168.09L263.18,165.97L263.51,159.15L264.84,179.59L265.17,174.76L265.83,160.57L266.16,166.81L266.49,163.2L267.82,180.05L268.15,99.88L269.48,184.59L269.81,182.38L270.14,178.58L270.47,146.08L271.47,164.42L271.8,151.05L272.46,157.75L272.79,142.4L274.12,154.32L274.45,150.65L275.11,156.86L275.44,140.41L275.78,137.11L276.11,145.31L276.44,150.67L276.77,150.54L277.1,143.91L277.43,140.47L277.76,143.55L278.1,141.49L278.76,158.49L279.09,104.73L281.41,167.04L281.74,171.31L282.07,171.44L282.4,166.62L283.4,178.46L283.73,169.99L284.06,164.35L284.39,170.68L284.72,170.64L285.39,167.83L285.72,182.03L286.71,183.92L287.04,106.41L287.38,101.7L287.71,117.29L288.37,101.39L288.7,104.83L289.03,107.93L289.37,103.45L289.7,117.31L290.03,111.47L290.36,122.84L290.69,126.81L291.02,144.41L291.35,149.95L291.69,127.66L292.68,135.04L293.01,141.15L293.34,144.05L293.67,141.9L294.01,140.07L294.34,143.83L294.67,157.5L295.66,130.42L295.99,141.4L297.98,156.46L298.31,142.27L298.65,119.19L298.98,129.35L299.31,143.61L299.64,137.58L299.97,146.38L300.3,146.66L300.63,147.93L300.97,139.2L301.3,139.44L301.63,159.51L301.96,152.14L302.62,153.46L302.96,151.7L303.62,121.54L303.95,137.97L304.28,133.06L305.28,126.04L305.61,129.57L305.94,123.09L306.27,132.41L306.6,132.68L306.93,136.54L307.26,136.88L307.6,134.14L307.93,146.37L308.26,134.47L308.59,126.49L308.92,118.76L309.25,127.11L309.58,128.26L310.25,127.51L310.58,141.37L310.91,120.84L311.9,131.44L312.24,128.68L312.9,153.91L313.23,148.05L313.56,148.58L314.22,152.98L314.56,162.34L314.89,165.31L315.22,156.8L315.88,140.91L316.21,142.57L316.54,153.95L317.21,170.42L317.54,163.78L317.87,156.11L318.2,150.1L318.53,161.1L319.2,173.67L319.53,205.33L319.86,206.22L320.19,180.67L320.52,179.32L320.85,197.19L321.19,182.54L321.52,196.06L321.85,208.68L322.18,217.08L322.51,208.53L322.84,200.63L324.17,179.84L324.5,180.01L324.83,170.97L325.49,171.31L325.83,165.52L326.49,186.83L326.82,182.78L327.15,180L328.15,158.99L328.48,187.72L329.14,196.65L329.47,186.57L330.47,176.55L330.8,191.25L331.13,170.77L331.79,172.37L332.12,178.56L332.46,177.18L332.79,195.67L333.78,176.67L334.11,184.09L334.44,194.26L334.78,194.31L335.11,198.4L335.77,184.91L336.1,192.49L336.43,190.22L336.76,195.58L337.43,199.92L337.76,197.58L338.09,202.43L338.42,194.92L338.75,194.87L339.08,199.2L339.75,192.14L340.08,197.72L340.41,130.4L341.07,143.57L341.4,124.05L342.4,110.57L342.73,143.57L343.39,171.43L343.72,157.99L344.06,169.08L344.39,155.12L344.72,171.22L345.05,193.33L345.71,184.36L346.04,159.4L346.38,156.07L346.71,161.15L347.04,185.43L347.7,181.5L348.03,169.31L348.37,151.14L348.7,153.57L349.03,156.97L350.02,181.97L350.35,170.14L350.69,177.96L351.02,161.11L351.68,185.17L352.01,183.85L352.34,166.53L352.67,147.52L353.01,154.89L353.34,161.59L353.67,157.95L354,165.89L355.33,194.73L355.66,180.45L355.99,181.99L356.32,173.94L356.65,154.55L356.98,169.01L357.31,162.96L358.31,134.52L358.64,153.07L358.97,149.03L359.3,151.87L359.63,151.71L359.97,132.49L360.3,48.49L360.63,65.49L360.96,187.81L361.29,203.62L361.62,188.11L361.96,187.73L362.29,190.86L362.62,164.92L363.61,187.9L363.94,178.83L365.6,198.2L365.93,203.96L366.26,187.82L366.93,189.93L367.26,191.75L367.59,194.62L367.92,194.07L368.25,160.27L368.92,172.53L369.25,163.84L369.91,149.76L370.24,152.77L370.57,166.24L370.9,196.12L371.24,188.59L371.57,164.38L371.9,177.63L372.56,176.34L372.89,183.88L373.22,214.19L373.56,210.43L373.89,201.93L374.22,200.38L374.55,218.42L375.21,191.37L375.54,196.39L375.88,204.8L376.87,184.73L377.2,190.9L377.53,194.2L377.87,193.23L378.2,184.87L379.19,205.25L379.52,194.31L379.85,193.36L380.19,185.79L380.52,183.16L380.85,198.41L381.51,189.78L381.84,196.89L382.17,208.81L382.51,207.48L382.84,203.37L383.17,202.6L383.5,208.9L383.83,205.37L384.16,209.62L384.49,188.23L384.83,154.46L385.16,177.55L385.49,178.27L386.15,201.08L386.48,196.85L386.81,189.61L387.15,199.21L387.48,199L387.81,195.26L388.14,198.39L388.47,196.91L388.8,191.63L389.47,190.93L389.8,202.27L390.13,190.09L390.46,214.72L390.79,210.06L391.12,195.07L391.46,167.65L391.79,169.7L392.12,179.02L392.45,160.47L392.78,166.42L393.11,165.93L394.11,191.49L394.44,191.92L395.1,192.45L395.43,187.61L395.76,174.59L396.1,181.41L396.76,180.74L397.09,178.22L397.42,179.86L397.75,171.4L398.42,145.51L398.75,169.64L399.08,171.22L399.41,171.12L399.74,176.83L400.07,178.41L400.4,183.79L400.74,183.08L401.07,175.23L401.4,204.04L401.73,193.19L402.06,190.49L402.39,185.8L402.72,193.65L403.72,146.54L404.05,175.74L405.04,184.71L405.38,163.71L405.71,159.26L406.04,159.94L406.37,167.31L406.7,174.48L407.03,165.08L407.37,165.27L407.7,167.14L408.03,160.26L408.36,171.43L409.02,167.44L409.35,161.68L409.69,162.1L410.02,164.22L410.35,186.44L410.68,177.35L411.01,163.8L411.67,180.5L412.01,125.75L412.34,81.75L412.67,91.76L413,129.97L413.33,157.72L413.66,127.59L413.99,121.29L415.32,168.64L415.65,157.18L415.98,167.38L416.31,163.98L416.65,162.88L417.64,153.39L417.97,155.25L418.3,159.72L418.63,152.6L418.97,159.44L419.3,148.22L420.29,169.73L420.62,172.39L420.96,168.29L421.29,169.17L421.62,171.41L421.95,157.14L422.28,172.96L422.61,175.08L423.28,173.64L423.61,159L423.94,151.94L424.27,153.58L424.6,154.26L425.6,146.61L425.93,151.36L426.92,109.79L427.25,148.09L427.92,142.18L428.25,152.18L428.58,160.94L428.91,160L429.24,150.46L429.57,158.75L429.9,153.78L430.24,155.75L430.57,161.79L430.9,151.48L431.23,149.37L431.56,155.17L431.89,144.57L432.22,151.86L432.56,152.01L433.55,160.98L433.88,159.6L434.21,162.35L434.54,158.77L434.88,153.23L435.21,168.87L435.87,156.04L436.2,165.18L436.87,168.26L437.2,159.76L437.53,160.93L437.86,155.51L438.19,153.53L438.52,169.73L438.85,160.47L439.19,164.17L439.52,162.9L439.85,164.4L440.18,154.7L440.51,150.28L440.84,161.27L441.84,153.36L442.17,142.94L442.5,139.12L442.83,150.26L443.49,162.77L443.83,152.41L444.16,153.21L444.49,150.79L445.15,121.4L445.48,140.96L446.15,133.08L446.48,138.8L447.14,124.59L447.47,133.79L447.8,129.94L448.13,135.62L449.46,106.79L449.79,118.23L450.79,122.71L451.12,119.58L451.45,122.43L451.78,119.88L452.11,129.52L452.44,123.47L452.78,130.79L453.11,131.75L453.44,139.37L453.77,129.78L454.1,119.31L455.43,152.27L455.76,145.81L456.75,125.95L457.08,132.51L457.42,139.82L458.08,138.87L458.41,138.42L458.74,138.78L459.07,144.41L459.74,143.74L460.4,150.72L460.73,136.49L461.72,162.08L462.06,157.42L463.71,114.96L464.04,156.18L465.04,143.96L465.37,152.93L466.03,125.62L466.37,133.36L466.7,142.7L467.36,131.83L467.69,137.59L468.02,135.62L468.35,159.26L468.69,158.02L469.02,142.96L469.35,144.54L469.68,143.33L470.01,139.79L470.34,148.29L470.67,144.6L471.01,136.63L471.34,138.15L471.67,135.57L472,137.75" style="vector-effect: non-scaling-stroke; fill: none; stroke: rgb(25, 211, 243); stroke-opacity: 1; stroke-width: 2px; opacity: 1;"/></g><g class="points"/><g class="text"/></g></g></g><g class="overplot"/><path class="xlines-above crisp" d="M0,0" style="fill: none;"/><path class="ylines-above crisp" d="M0,0" style="fill: none;"/><g class="overlines-above"/><g class="xaxislayer-above"><g class="xtick"><text text-anchor="middle" x="0" y="433" transform="translate(80,0)" style="font-family: 'Open Sans', verdana, arial, sans-serif; font-size: 12px; fill: rgb(42, 63, 95); fill-opacity: 1; white-space: pre;">2017</text></g><g class="xtick"><text text-anchor="middle" x="0" y="433" transform="translate(200.98000000000002,0)" style="font-family: 'Open Sans', verdana, arial, sans-serif; font-size: 12px; fill: rgb(42, 63, 95); fill-opacity: 1; white-space: pre;">2018</text></g><g class="xtick"><text text-anchor="middle" x="0" y="433" transform="translate(321.97,0)" style="font-family: 'Open Sans', verdana, arial, sans-serif; font-size: 12px; fill: rgb(42, 63, 95); fill-opacity: 1; white-space: pre;">2019</text></g><g class="xtick"><text text-anchor="middle" x="0" y="433" transform="translate(442.95,0)" style="font-family: 'Open Sans', verdana, arial, sans-serif; font-size: 12px; fill: rgb(42, 63, 95); fill-opacity: 1; white-space: pre;">2020</text></g></g><g class="yaxislayer-above"><g class="ytick"><text text-anchor="end" x="79" y="4.199999999999999" transform="translate(0,400.85)" style="font-family: 'Open Sans', verdana, arial, sans-serif; font-size: 12px; fill: rgb(42, 63, 95); fill-opacity: 1; white-space: pre;">0.14</text></g><g class="ytick"><text text-anchor="end" x="79" y="4.199999999999999" transform="translate(0,351.27)" style="font-family: 'Open Sans', verdana, arial, sans-serif; font-size: 12px; fill: rgb(42, 63, 95); fill-opacity: 1; white-space: pre;">0.15</text></g><g class="ytick"><text text-anchor="end" x="79" y="4.199999999999999" transform="translate(0,301.69)" style="font-family: 'Open Sans', verdana, arial, sans-serif; font-size: 12px; fill: rgb(42, 63, 95); fill-opacity: 1; white-space: pre;">0.16</text></g><g class="ytick"><text text-anchor="end" x="79" y="4.199999999999999" transform="translate(0,252.11)" style="font-family: 'Open Sans', verdana, arial, sans-serif; font-size: 12px; fill: rgb(42, 63, 95); fill-opacity: 1; white-space: pre;">0.17</text></g><g class="ytick"><text text-anchor="end" x="79" y="4.199999999999999" transform="translate(0,202.53)" style="font-family: 'Open Sans', verdana, arial, sans-serif; font-size: 12px; fill: rgb(42, 63, 95); fill-opacity: 1; white-space: pre;">0.18</text></g><g class="ytick"><text text-anchor="end" x="79" y="4.199999999999999" transform="translate(0,152.96)" style="font-family: 'Open Sans', verdana, arial, sans-serif; font-size: 12px; fill: rgb(42, 63, 95); fill-opacity: 1; white-space: pre;">0.19</text></g><g class="ytick"><text text-anchor="end" x="79" y="4.199999999999999" transform="translate(0,103.38)" style="font-family: 'Open Sans', verdana, arial, sans-serif; font-size: 12px; fill: rgb(42, 63, 95); fill-opacity: 1; white-space: pre;">0.2</text></g></g><g class="overaxes-above"/></g></g><g class="polarlayer"/><g class="ternarylayer"/><g class="geolayer"/><g class="funnelarealayer"/><g class="pielayer"/><g class="treemaplayer"/><g class="sunburstlayer"/><g class="glimages"/><defs id="topdefs-e5850e"><g class="clips"/><clipPath id="legende5850e"><rect width="127" height="140" x="0" y="0"/></clipPath></defs><g class="layer-above"><g class="imagelayer"/><g class="shapelayer"/></g><g class="infolayer"><g class="legend" pointer-events="all" transform="translate(561.44, 100)"><rect class="bg" shape-rendering="crispEdges" width="127" height="140" x="0" y="0" style="stroke: rgb(68, 68, 68); stroke-opacity: 1; fill: rgb(255, 255, 255); fill-opacity: 1; stroke-width: 0px;"/><g class="scrollbox" transform="translate(0, 0)" clip-path="url('#legende5850e')"><text class="legendtitletext" text-anchor="start" x="2" y="15.600000000000001" style="font-family: 'Open Sans', verdana, arial, sans-serif; font-size: 12px; fill: rgb(42, 63, 95); fill-opacity: 1; white-space: pre;">Continents</text><g class="groups"><g class="traces" transform="translate(0, 30.1)" style="opacity: 1;"><text class="legendtext" text-anchor="start" x="40" y="4.680000000000001" style="font-family: 'Open Sans', verdana, arial, sans-serif; font-size: 12px; fill: rgb(42, 63, 95); fill-opacity: 1; white-space: pre;">Global</text><g class="layers" style="opacity: 1;"><g class="legendfill"/><g class="legendlines"><path class="js-line" d="M5,0h30" style="fill: none; stroke: rgb(99, 110, 250); stroke-opacity: 1; stroke-width: 2px;"/></g><g class="legendsymbols"><g class="legendpoints"/></g></g><rect class="legendtoggle" x="0" y="-9.5" width="121.734375" height="19" style="fill: rgb(0, 0, 0); fill-opacity: 0;"/></g><g class="traces" transform="translate(0, 49.1)" style="opacity: 1;"><text class="legendtext" text-anchor="start" x="40" y="4.680000000000001" style="font-family: 'Open Sans', verdana, arial, sans-serif; font-size: 12px; fill: rgb(42, 63, 95); fill-opacity: 1; white-space: pre;">Europe</text><g class="layers" style="opacity: 1;"><g class="legendfill"/><g class="legendlines"><path class="js-line" d="M5,0h30" style="fill: none; stroke: rgb(239, 85, 59); stroke-opacity: 1; stroke-width: 2px;"/></g><g class="legendsymbols"><g class="legendpoints"/></g></g><rect class="legendtoggle" x="0" y="-9.5" width="121.734375" height="19" style="fill: rgb(0, 0, 0); fill-opacity: 0;"/></g><g class="traces" transform="translate(0, 68.1)" style="opacity: 1;"><text class="legendtext" text-anchor="start" x="40" y="4.680000000000001" style="font-family: 'Open Sans', verdana, arial, sans-serif; font-size: 12px; fill: rgb(42, 63, 95); fill-opacity: 1; white-space: pre;">Asia</text><g class="layers" style="opacity: 1;"><g class="legendfill"/><g class="legendlines"><path class="js-line" d="M5,0h30" style="fill: none; stroke: rgb(0, 204, 150); stroke-opacity: 1; stroke-width: 2px;"/></g><g class="legendsymbols"><g class="legendpoints"/></g></g><rect class="legendtoggle" x="0" y="-9.5" width="121.734375" height="19" style="fill: rgb(0, 0, 0); fill-opacity: 0;"/></g><g class="traces" transform="translate(0, 87.1)" style="opacity: 1;"><text class="legendtext" text-anchor="start" x="40" y="4.680000000000001" style="font-family: 'Open Sans', verdana, arial, sans-serif; font-size: 12px; fill: rgb(42, 63, 95); fill-opacity: 1; white-space: pre;">North America</text><g class="layers" style="opacity: 1;"><g class="legendfill"/><g class="legendlines"><path class="js-line" d="M5,0h30" style="fill: none; stroke: rgb(171, 99, 250); stroke-opacity: 1; stroke-width: 2px;"/></g><g class="legendsymbols"><g class="legendpoints"/></g></g><rect class="legendtoggle" x="0" y="-9.5" width="121.734375" height="19" style="fill: rgb(0, 0, 0); fill-opacity: 0;"/></g><g class="traces" transform="translate(0, 106.1)" style="opacity: 1;"><text class="legendtext" text-anchor="start" x="40" y="4.680000000000001" style="font-family: 'Open Sans', verdana, arial, sans-serif; font-size: 12px; fill: rgb(42, 63, 95); fill-opacity: 1; white-space: pre;">South America</text><g class="layers" style="opacity: 1;"><g class="legendfill"/><g class="legendlines"><path class="js-line" d="M5,0h30" style="fill: none; stroke: rgb(255, 161, 90); stroke-opacity: 1; stroke-width: 2px;"/></g><g class="legendsymbols"><g class="legendpoints"/></g></g><rect class="legendtoggle" x="0" y="-9.5" width="121.734375" height="19" style="fill: rgb(0, 0, 0); fill-opacity: 0;"/></g><g class="traces" transform="translate(0, 125.1)" style="opacity: 1;"><text class="legendtext" text-anchor="start" x="40" y="4.680000000000001" style="font-family: 'Open Sans', verdana, arial, sans-serif; font-size: 12px; fill: rgb(42, 63, 95); fill-opacity: 1; white-space: pre;">Oceania</text><g class="layers" style="opacity: 1;"><g class="legendfill"/><g class="legendlines"><path class="js-line" d="M5,0h30" style="fill: none; stroke: rgb(25, 211, 243); stroke-opacity: 1; stroke-width: 2px;"/></g><g class="legendsymbols"><g class="legendpoints"/></g></g><rect class="legendtoggle" x="0" y="-9.5" width="121.734375" height="19" style="fill: rgb(0, 0, 0); fill-opacity: 0;"/></g></g></g><rect class="scrollbar" rx="20" ry="3" width="0" height="0" x="0" y="0" style="fill: rgb(128, 139, 164); fill-opacity: 1;"/></g><g class="g-gtitle"/><g class="g-xtitle"><text class="xtitle" x="316" y="461.8" text-anchor="middle" style="font-family: 'Open Sans', verdana, arial, sans-serif; font-size: 14px; fill: rgb(42, 63, 95); opacity: 1; font-weight: normal; white-space: pre;">Date</text></g><g class="g-ytitle"><text class="ytitle" transform="rotate(-90,30.418750000000003,260)" x="30.418750000000003" y="260" text-anchor="middle" style="font-family: 'Open Sans', verdana, arial, sans-serif; font-size: 14px; fill: rgb(42, 63, 95); opacity: 1; font-weight: normal; white-space: pre;">liveness</text></g></g></svg>