<svg class="main-svg" xmlns="http://www.w3.org/2000/svg" xmlns:xlink="http://www.w3.org/1999/xlink" width="700" height="500" style="" viewBox="0 0 700 500"><rect x="0" y="0" width="700" height="500" style="fill: rgb(255, 255, 255); fill-opacity: 1;"/><defs id="defs-cec1c1"><g class="clips"><clipPath id="clipcec1c1xyplot" class="plotclip"><rect width="516" height="320"/></clipPath><clipPath class="axesclip" id="clipcec1c1x"><rect x="80" y="0" width="516" height="500"/></clipPath><clipPath class="axesclip" id="clipcec1c1y"><rect x="0" y="100" width="700" height="320"/></clipPath><clipPath class="axesclip" id="clipcec1c1xy"><rect x="80" y="100" width="516" height="320"/></clipPath></g><g class="gradients"/></defs><g class="bglayer"><rect class="bg" x="80" y="100" width="516" height="320" style="fill: rgb(229, 236, 246); fill-opacity: 1; stroke-width: 0;"/></g><g class="layer-below"><g class="imagelayer"/><g class="shapelayer"/></g><g class="cartesianlayer"><g class="subplot xy"><g class="layer-subplot"><g class="shapelayer"/><g class="imagelayer"/></g><g class="gridlayer"><g class="x"><path class="xgrid crisp" transform="translate(212.26,0)" d="M0,100v320" style="stroke: rgb(255, 255, 255); stroke-opacity: 1; stroke-width: 1px;"/><path class="xgrid crisp" transform="translate(344.52,0)" d="M0,100v320" style="stroke: rgb(255, 255, 255); stroke-opacity: 1; stroke-width: 1px;"/><path class="xgrid crisp" transform="translate(476.78,0)" d="M0,100v320" style="stroke: rgb(255, 255, 255); stroke-opacity: 1; stroke-width: 1px;"/></g><g class="y"><path class="ygrid crisp" transform="translate(0,393.57)" d="M80,0h516" style="stroke: rgb(255, 255, 255); stroke-opacity: 1; stroke-width: 1px;"/><path class="ygrid crisp" transform="translate(0,346.46000000000004)" d="M80,0h516" style="stroke: rgb(255, 255, 255); stroke-opacity: 1; stroke-width: 1px;"/><path class="ygrid crisp" transform="translate(0,299.34000000000003)" d="M80,0h516" style="stroke: rgb(255, 255, 255); stroke-opacity: 1; stroke-width: 1px;"/><path class="ygrid crisp" transform="translate(0,252.23)" d="M80,0h516" style="stroke: rgb(255, 255, 255); stroke-opacity: 1; stroke-width: 1px;"/><path class="ygrid crisp" transform="translate(0,205.12)" d="M80,0h516" style="stroke: rgb(255, 255, 255); stroke-opacity: 1; stroke-width: 1px;"/><path class="ygrid crisp" transform="translate(0,158.01)" d="M80,0h516" style="stroke: rgb(255, 255, 255); stroke-opacity: 1; stroke-width: 1px;"/><path class="ygrid crisp" transform="translate(0,110.9)" d="M80,0h516" style="stroke: rgb(255, 255, 255); stroke-opacity: 1; stroke-width: 1px;"/></g></g><g class="zerolinelayer"/><path class="xlines-below"/><path class="ylines-below"/><g class="overlines-below"/><g class="xaxislayer-below"/><g class="yaxislayer-below"/><g class="overaxes-below"/><g class="plot" transform="translate(80, 100)" clip-path="url('#clipcec1c1xyplot')"><g class="scatterlayer mlayer"><g class="trace scatter trace173335" style="stroke-miterlimit: 2; opacity: 1;"><g class="fills"/><g class="errorbars"/><g class="lines"><path class="js-line" d="M0,141.37L0.36,192.66L0.72,185.8L1.09,184.24L1.45,181.5L1.81,154.03L2.54,192.96L2.9,180.03L3.26,180.99L3.62,173.79L3.99,188.05L4.35,196.62L4.71,186.24L5.07,197.78L5.44,181.21L6.88,204.84L7.25,200.28L7.97,178.79L8.33,195.21L9.42,187.21L9.78,183.86L10.87,197.54L11.23,201.47L11.6,203.73L11.96,172.03L12.32,171.44L12.68,173.08L13.04,166.47L13.41,187.96L13.77,199.6L14.13,196.86L14.49,195.72L14.86,197.14L15.22,182.95L15.94,216.25L16.31,210.69L16.67,202.53L17.03,174.77L17.39,198.85L17.76,209.65L18.12,195.61L18.48,207.28L18.84,208.18L19.57,207.62L19.93,189.93L20.29,196.79L20.65,180.36L21.74,219.33L22.1,197.75L22.47,189.83L22.83,203.45L23.55,217.6L23.92,209.04L25,183.51L25.37,207.84L26.45,206.35L26.81,191.12L27.18,199.12L27.54,187.69L27.9,149.39L28.26,161.86L28.63,155.47L29.35,152.04L29.71,132.97L30.08,115.94L30.44,132.18L30.8,124.85L31.16,125.12L31.53,126.42L32.61,141.11L32.97,144.32L33.34,143.34L33.7,154.19L34.06,158.1L34.42,145.03L34.79,139.5L35.15,152.43L35.51,167.69L35.87,156.24L36.24,149.39L36.6,156.65L36.96,138.07L37.32,120.43L37.69,135.2L38.05,148.75L38.77,148.55L39.13,153.41L39.5,134.06L40.22,133.55L40.58,148.58L40.95,124.38L41.67,133.94L42.03,132.51L42.4,74.6L44.57,156.74L44.93,151.82L45.29,150.84L45.66,164.27L46.02,146.61L46.38,161.22L46.74,163.99L47.83,189.4L48.19,183.17L48.56,193.79L48.92,186.79L49.28,177.16L49.64,180.48L50.01,177.76L50.37,177.3L50.73,188.5L51.09,168.96L51.46,187.89L51.82,176.33L52.18,175.73L52.54,207.81L52.9,203.57L53.27,185.71L53.63,193.22L54.72,186.77L55.44,190.3L55.8,180.57L56.89,213.73L57.25,186.89L57.62,225.09L57.98,185.58L58.34,173.41L59.06,193.16L59.43,191.99L59.79,178.04L60.15,228.73L60.51,205.1L60.88,212.07L61.6,232.96L61.96,214.6L62.69,189.14L63.05,195.39L63.41,197.82L63.78,214.66L64.14,195.99L64.5,195.73L64.86,199.66L65.22,238.88L65.59,206.89L65.95,211.56L66.31,221.09L66.67,206.44L67.04,202.91L67.4,206.11L67.76,216.86L68.85,231.58L69.21,226.48L70.3,185.02L70.66,202.38L71.75,231.62L72.11,221.83L72.83,114.83L73.2,167.89L73.92,158.82L74.28,161.15L74.65,186.04L75.37,203.22L75.73,215.68L76.1,206.98L76.46,213.68L76.82,216.73L77.54,230.09L77.91,211.26L78.27,228.26L78.63,215.01L78.99,224.61L79.72,227.26L80.08,231.38L80.44,221.9L80.81,236.32L81.17,233.59L81.53,236.43L81.89,236.55L82.26,235.09L82.62,228.65L83.34,243.64L83.71,234.93L84.07,220.55L84.43,228.54L84.79,242.98L85.52,206.66L85.88,221.13L86.24,238.19L87.33,227.43L87.69,228.67L88.42,242.46L88.78,209.79L89.5,224.7L89.87,222.57L90.23,225.99L90.95,254.1L91.31,222.12L91.68,228.87L92.04,225.05L92.4,225.76L92.76,234.31L93.13,224.84L93.85,234.17L94.21,227.88L95.3,241.78L95.66,251.05L96.75,240.23L97.11,251.03L97.84,256.83L98.2,231.25L98.56,252.2L98.92,248.28L99.29,234.94L100.01,234.86L100.37,242.55L100.74,245.86L101.1,243.12L101.46,257.48L101.82,241.37L102.19,242.16L102.55,243.65L102.91,260.99L103.27,248.25L103.63,256.29L104,254.85L104.36,246.44L104.72,259.9L105.08,246.78L105.45,254.48L105.81,252.9L106.17,243.15L106.9,261.29L107.26,255.12L107.62,255.6L107.98,251.09L108.71,214.28L109.07,219.83L109.43,234.29L109.79,214.42L110.16,226.19L110.52,248.01L110.88,253.32L111.24,239.2L111.61,235.33L111.97,254.95L112.33,251.21L112.69,252.12L113.06,255.68L113.42,246.21L113.78,208.9L114.51,246.88L114.87,241.12L115.23,227.87L115.59,235.05L115.96,201.06L116.68,234.79L117.04,228.35L117.4,233.24L117.77,230.28L118.13,217.35L118.49,207.92L118.85,215.98L119.22,174.42L120.3,199.19L120.67,181.52L121.03,155.37L121.39,183.6L121.75,197.7L122.12,188.68L122.48,190.54L122.84,195.27L123.2,186.97L123.56,201.12L124.29,212.84L124.65,201.83L125.01,206.06L125.38,195.54L125.74,192.94L126.1,127.42L126.83,134.02L127.19,133.21L127.55,128.91L128.64,170.96L129,148.42L129.36,149.27L129.72,138.03L130.45,236.92L130.81,234.92L131.17,232.49L131.54,230.87L131.9,234.03L132.26,222.47L132.62,243.94L133.71,214.42L134.07,218.19L134.44,224.38L134.8,218.82L135.16,227.87L135.88,232.3L136.25,229.33L136.61,234.94L136.97,233.24L137.33,222.7L137.7,208.9L138.06,224.97L138.42,229.42L138.78,215.51L139.87,204.81L140.23,208.18L140.6,208.86L140.96,206.32L141.32,205.77L141.68,230.07L142.41,200.72L142.77,208.26L143.13,212.14L143.49,216.94L143.86,199.04L144.94,207.98L145.31,207.48L145.67,207.17L146.03,208.47L146.76,227.63L147.12,212.93L147.48,218.34L147.84,211.92L148.93,244.23L149.29,227.01L149.65,215.1L150.02,216.12L150.38,216.42L151.1,223L151.47,199.81L152.55,216.75L152.92,204.55L153.64,209.19L154,208.56L154.37,218.59L156.18,231.37L156.54,233L157.26,239.82L157.63,229.93L157.99,225.2L158.35,229.15L158.71,226.6L159.44,209.13L159.8,211.06L160.16,213.16L160.89,223.98L161.25,211.94L161.61,196.8L161.97,220.38L162.34,224.45L162.7,216.74L163.42,227.8L163.79,212.06L164.15,211.99L164.51,198.19L165.6,215.36L165.96,208.16L166.32,207.91L166.69,204.42L167.05,203.12L167.41,214.35L168.13,211.57L168.5,212.09L169.58,200.34L169.95,206.72L170.31,215.59L171.03,215.45L171.4,215.32L171.76,221.98L172.12,197.35L173.57,214.41L173.93,217.74L174.29,216.09L174.66,218L175.02,204.96L175.38,209.16L175.74,207.43L176.11,215.45L176.47,208.49L176.83,206L177.19,208.6L177.56,204.18L177.92,202.76L178.28,203.92L178.64,197.67L179.01,201.24L179.37,217.82L180.46,192.95L180.82,195.9L181.18,197.34L181.54,203.07L182.63,227.29L182.99,200.6L183.35,219.09L183.72,212.03L184.08,208.15L184.44,161.26L184.8,185.02L185.17,205.45L185.53,213.41L185.89,210.46L186.25,204.07L186.62,200.21L186.98,201.07L187.34,180.93L188.06,210.61L188.43,198.96L189.51,181.96L189.88,189.61L190.24,180.23L190.6,184.77L190.96,192.28L192.05,173.35L192.41,153.58L193.14,177.85L193.5,161.82L194.95,195.85L195.31,206.9L195.67,193.9L196.04,198.58L196.4,199.39L196.76,195.29L197.12,198.34L197.49,198.78L198.57,188.17L198.94,192.99L199.3,192.84L199.66,196.52L200.02,171.13L200.38,182.4L200.75,187.33L201.11,189.64L201.47,183.34L201.83,185.07L202.2,166.23L203.28,187.13L203.65,178.77L204.37,184.39L204.73,193.52L205.1,186.87L205.46,208.18L205.82,211.77L206.18,192.24L206.54,192.16L206.91,193.38L207.63,167.71L207.99,199.84L209.44,184.73L209.81,173.59L210.17,170.14L210.53,191.19L210.89,210.33L211.26,192L211.62,186.14L212.34,195.54L212.71,179.21L213.07,172.69L213.43,199.15L213.79,187.05L214.15,202.58L214.52,199.3L214.88,203.26L215.6,182.07L215.97,204.8L216.33,201.61L216.69,190.56L217.05,192.53L217.42,198.87L218.14,186.09L218.5,199.26L218.87,195.17L219.23,206.08L219.95,178.26L220.31,162.2L221.4,188.37L221.76,181.89L222.13,177.42L222.49,159.01L222.85,168.2L223.58,168.09L223.94,165.81L224.3,169.73L224.66,164.41L225.03,157.26L225.39,124.1L226.47,156.69L226.84,138.03L227.2,136.03L227.56,116.56L228.29,134.59L228.65,133.6L229.01,132.11L229.37,131.65L229.74,138.62L230.1,93.62L230.46,111.99L230.82,132.31L231.91,146.11L232.27,156.09L233,125.4L233.36,145.01L233.72,124.01L234.08,128.91L234.45,141.12L235.17,136.76L235.53,130.35L235.9,133.54L236.26,148.55L236.98,170.77L237.35,166.83L237.71,144.37L238.07,125.97L238.43,146.79L238.79,150.07L239.16,142.82L239.52,164.09L239.88,153.13L240.24,131.57L240.61,77.22L240.97,82.76L241.33,147.54L242.06,80.69L242.42,90.27L242.78,83.26L244.23,112.68L244.59,108.76L245.32,133.89L245.68,128.87L246.04,101.4L246.4,117.88L246.77,97.77L247.13,99.78L247.49,95.49L248.22,98.99L248.58,96.41L248.94,95.34L249.3,117.33L250.03,133.63L250.39,109.25L250.75,98.76L251.12,100.65L251.48,128.56L252.56,125.44L252.93,93.97L253.65,67.08L254.01,86.22L254.38,93.49L254.74,91.57L255.1,87.71L255.46,98.76L256.19,98.26L256.55,103.71L257.28,99.59L257.64,115.91L258.36,63.83L258.72,86.58L259.45,100.37L259.81,91.72L260.9,72.97L261.26,58.86L261.62,82.09L261.99,54.73L262.71,135.63L263.07,128.29L263.44,113.71L263.8,110.38L264.16,99.54L264.52,104.78L264.88,149.24L265.25,149.68L265.61,143.45L266.33,140.37L266.7,142.44L267.06,144.66L267.42,143.73L267.78,143.38L268.15,143.29L268.51,132.78L268.87,133.28L269.23,142.22L269.96,143.86L270.32,139.96L271.41,122.35L271.77,155.94L272.13,160.38L272.49,152.03L273.58,139.8L273.94,150.33L274.67,164.86L275.03,159.33L275.39,157.71L275.76,137.81L276.12,137.62L276.48,146.64L276.84,162.07L277.21,150.23L277.57,150.2L277.93,151.32L278.29,160.47L278.65,131.82L279.02,136.96L279.38,149.74L280.83,170.54L281.19,168.81L281.55,166.88L281.92,166.59L282.28,171.83L283.37,167.03L283.73,156.46L284.09,170.92L284.45,162.31L284.81,156.06L285.54,168.14L285.9,155.2L286.26,134.44L286.63,164.9L287.71,149.75L288.08,149.37L288.44,113.65L288.8,147.34L289.16,159.86L289.89,144.26L290.25,145.93L291.7,169.87L292.06,161.75L292.42,155.72L292.79,161.35L293.15,164.86L293.51,151.6L293.87,158.31L294.24,157.83L295.69,144.68L296.05,142.8L296.77,145.89L297.13,137.26L297.5,145.37L297.86,134.17L298.58,154.1L298.95,138.97L299.67,127.18L300.03,128.47L300.4,125.69L300.76,127.27L301.12,144.67L301.85,130.99L302.21,139.81L303.29,146.28L303.66,129.97L304.74,137.71L305.11,121.23L305.47,110.77L305.83,125.27L306.19,131.56L306.56,113.62L306.92,139.84L307.28,132.71L307.64,129.07L308.01,123.31L308.37,125.03L308.73,149.47L309.82,138.37L310.18,141.53L310.54,142.23L310.9,144.91L311.27,170.12L312.35,138.64L312.72,135.8L313.08,135.52L313.44,140.64L314.53,74.13L314.89,92.69L316.34,70.93L316.7,103.86L317.06,102.16L317.43,121.32L317.79,108.82L318.15,123.25L318.51,125.38L318.88,105.17L319.96,129.38L320.33,128.69L321.05,121.85L321.41,134.04L321.78,137.05L322.14,134.34L322.5,131.38L322.86,125.73L323.22,138.59L323.95,152.02L324.31,135.04L324.67,138.76L325.04,131.31L325.76,145.14L326.12,145.09L326.49,117.77L326.85,108.56L327.21,121.52L328.3,132.46L328.66,132.79L329.02,134.79L329.38,119.87L329.75,125.96L330.11,150.69L330.47,149.62L330.83,144.94L331.56,96.71L331.92,119.4L332.28,87.64L332.65,96.15L333.01,94.29L334.1,131.99L334.46,92.12L334.82,88.04L335.18,103.11L335.54,129.67L335.91,114.2L336.27,118.85L336.63,117.31L336.99,106.01L339.17,125.46L339.53,103.06L340.98,123.94L341.34,120.88L341.71,138.09L342.07,131.8L342.43,128.55L342.79,123.4L343.15,132.03L343.52,125.15L343.88,128.05L344.24,105.18L344.97,99.63L345.33,83.62L346.78,117.68L347.14,111.68L348.95,127.4L349.31,155.73L349.68,120.47L350.04,139.26L350.4,148.36L351.49,140.26L351.85,188.12L352.58,136.92L352.94,153.84L353.3,157.1L354.03,132.02L354.39,176.25L354.75,142.08L355.11,147.93L355.47,166.53L355.84,164.94L356.2,159.22L356.56,160.8L356.92,174.04L357.65,125.57L358.01,158.52L359.1,152.39L359.46,184.22L359.82,157.99L360.19,160.18L360.55,172.01L361.27,163.97L361.63,169.4L362.36,203.76L362.72,176.21L363.08,162.77L363.45,177.17L363.81,179.59L364.17,174.35L364.53,183.17L364.9,152.49L365.62,171.91L365.98,162.58L366.35,162.37L366.71,177.49L367.07,194.81L367.43,165.94L367.79,164.03L368.16,189.42L368.52,190.54L368.88,202.53L369.24,207.64L369.61,205.81L369.97,177.37L370.33,183.06L370.69,201.49L371.06,200.31L371.42,207.29L371.78,198.33L372.14,150.09L372.51,126.4L372.87,130.54L373.23,130.13L373.59,131.53L373.96,144.28L374.32,115.09L374.68,133.18L375.04,157.82L375.4,157.01L375.77,171.66L376.13,176.63L376.49,170.78L377.22,201.27L377.58,180.72L377.94,185.3L378.3,183.32L378.67,182.16L379.39,185.84L379.75,152.83L380.12,164.49L380.48,159.2L380.84,162.74L381.2,179.5L381.56,178.67L381.93,164.88L383.01,196.36L383.38,157.14L383.74,165.41L384.1,159.12L384.46,141.1L384.83,170.7L385.55,169.51L385.91,171.54L386.28,189.06L386.64,177.16L387,148.91L388.81,215.35L389.17,206.32L389.9,186.23L390.26,143.99L390.62,152.21L390.99,187.42L391.71,182.51L392.07,138.95L392.44,118.29L392.8,131.52L393.16,127.22L393.88,81.45L394.25,65.97L394.97,171.55L395.33,146.8L395.7,154.61L396.42,200.71L396.78,126.58L397.51,181.4L397.87,177.1L398.23,163.52L398.96,172.15L399.32,195.76L399.68,172.23L400.04,185.51L400.41,190.36L400.77,189.56L401.13,196.24L401.49,194.6L401.86,185.62L402.22,188.5L402.58,132.88L402.94,126.58L403.31,132.82L403.67,153.33L404.39,165.71L404.76,164.72L405.12,150.49L405.48,137.87L405.84,165.93L406.57,158.69L406.93,144.81L407.29,150.86L407.65,143.34L408.02,141.82L408.38,165.04L409.1,188.34L409.47,169.64L410.92,136.85L411.28,160.42L411.64,161.79L412,160.56L412.37,157.78L412.73,161.41L413.09,139.42L413.45,147.22L413.81,183.5L414.18,186.5L414.54,160.65L415.26,160.55L415.63,173.72L415.99,160.14L417.44,217.8L417.8,179.8L418.16,175.68L418.53,193.28L419.61,218.11L419.97,212.62L421.06,150.4L421.42,165.64L421.79,161.92L422.15,176.03L422.51,170.41L422.87,112.26L423.6,145.14L423.96,208.47L425.05,231.77L425.41,193.38L425.77,193.64L426.13,164.99L427.22,204.7L427.58,197.01L427.95,179.81L428.31,122.1L429.03,191.97L429.4,182.21L429.76,164.06L430.12,163.94L430.48,191.79L431.21,139.36L431.57,192.75L433.38,140.65L433.74,161.07L434.47,183.87L434.83,162.8L435.19,155.55L435.56,159.8L435.92,120.82L436.28,138.01L436.64,192.45L437.01,173.61L437.37,194.73L438.09,202.6L438.46,151.49L438.82,144.31L439.18,201.81L439.54,197.26L439.9,198.74L440.27,170.29L440.63,126.44L440.99,128.06L441.35,140.6L442.44,195.25L442.8,179.3L443.17,172.21L443.53,132.2L443.89,143.81L444.25,193.62L444.62,197.17L444.98,192.37L445.34,189.68L445.7,200.19L446.06,137.87L446.43,156.19L446.79,192.48L447.15,181.92L447.51,187.45L447.88,149.32L448.24,193.3L448.6,155.9L448.96,149.08L449.69,197.29L450.05,188.17L450.41,187.28L450.78,108.8L451.14,69.3L451.5,74.02L451.86,112.06L452.22,85.28L452.59,89.92L452.95,157.61L453.31,152.91L453.67,128.32L455.12,174.5L455.49,179.65L456.21,146.95L456.57,152.28L457.66,174.38L458.02,168.89L458.38,140.87L458.75,167.48L459.11,165.44L459.47,166.71L459.83,180.78L461.28,152.34L461.65,171.27L462.73,196.67L463.1,163.47L463.82,144.29L464.18,148.91L464.54,168.97L464.91,179.56L465.27,175.68L465.63,171.95L466.36,118.8L466.72,127.99L467.08,139.39L468.17,181.12L468.53,176.66L468.89,153.24L469.26,155.37L469.62,184.2L470.71,170.36L471.07,113.98L471.79,165.17L472.15,144.99L472.52,141.97L472.88,162.47L473.24,180.08L473.6,177.73L473.97,154.04L474.69,179.86L475.05,177.63L475.42,183.21L476.14,170.02L476.5,179.59L476.87,174.85L477.23,192.75L477.59,192.7L477.95,197.11L478.68,162.4L479.04,165.85L479.4,165.51L480.49,186.96L480.85,183.3L481.94,152.13L482.3,171.08L483.39,170.34L483.75,139.17L484.84,154.57L485.2,153.58L485.56,148.38L485.92,153.28L486.29,115L487.01,97.59L487.37,147.16L487.74,144.17L488.1,160.81L488.46,161.07L488.82,159.78L489.19,119.97L489.55,150.09L489.91,169.72L491,158.8L491.36,161.29L491.72,118.75L492.08,144.01L492.45,158.95L492.81,161.41L493.17,149.85L493.53,156.41L493.9,137.32L494.26,92.5L494.62,138.9L494.98,153.29L495.35,151.69L495.71,168.54L496.07,168.54L496.43,116.41L498.61,186.6L498.97,167.11L499.33,119.46L499.69,161.59L500.06,156.68L501.14,171.53L501.51,162L501.87,143.9L502.23,160.21L502.59,170.6L502.96,173.06L503.32,156.66L505.49,187.22L505.85,169.82L506.22,174.29L506.58,117.59L506.94,118.86L507.3,100.16L508.03,171.11L508.39,164.77L508.75,177.87L509.84,91.58L510.2,150.89L510.56,154.77L510.93,141.41L511.29,136.06L511.65,137.92L512.01,103.06L513.1,147.86L513.46,155.82L514.91,101.34L515.28,123.07L515.64,137.11L516,133.67" style="vector-effect: non-scaling-stroke; fill: none; stroke: rgb(99, 110, 250); stroke-opacity: 1; stroke-width: 2px; opacity: 1;"/></g><g class="points"/><g class="text"/></g><g class="trace scatter trace177497" style="stroke-miterlimit: 2; opacity: 1;"><g class="fills"/><g class="errorbars"/><g class="lines"><path class="js-line" d="M0,185.98L0.36,179.16L0.72,191.58L1.09,188.68L1.45,198.55L1.81,157.65L2.17,182.03L2.54,202.19L3.26,187.11L3.62,178.9L3.99,178.45L4.35,176.08L4.71,176.68L5.07,193.41L6.52,137.31L6.88,191.81L7.61,202.13L7.97,189.5L9.06,157.31L9.42,165.28L9.78,170.46L10.87,189.34L11.23,188.35L11.6,166.28L12.32,180.82L12.68,172.97L13.41,193.63L13.77,178.34L14.13,210.9L14.49,199.56L14.86,204.16L15.58,215.93L15.94,231.24L16.31,217.47L17.03,217.52L17.39,225.1L17.76,230.97L18.12,216.58L18.48,206.95L18.84,214.87L19.21,218.64L19.57,212.5L19.93,222.97L20.65,214.83L21.02,225.06L21.38,227.42L21.74,236.76L22.47,216.14L22.83,227.16L23.55,231.57L23.92,230.5L24.64,239.94L25,230.18L25.37,231.85L25.73,221.09L26.09,228.38L26.81,228.23L27.18,220.33L27.54,231.57L27.9,175.21L28.99,151.77L29.35,152.43L30.08,143.11L30.44,143.68L30.8,138.47L32.97,198.97L33.34,175.18L34.42,162.83L34.79,184.83L35.15,177.53L35.51,190.97L35.87,168.54L36.24,169.36L36.6,174.78L36.96,186.97L37.32,165.28L37.69,163.88L38.05,174.9L39.13,164.58L39.5,175.23L39.86,169.49L40.22,189.95L40.58,194.65L40.95,179.04L41.31,183.96L41.67,161.74L42.03,182.84L42.4,129.66L43.12,181.32L43.48,163.77L43.85,157.21L45.29,200.23L45.66,206.25L46.02,182.12L46.38,218.48L47.47,199.42L47.83,210.95L48.19,209.11L48.56,224.53L49.28,221.57L49.64,209.03L50.01,201.6L50.37,219.31L51.09,220.8L51.46,215.81L51.82,207.01L52.18,209.15L52.54,208.22L52.9,217L53.27,208.14L53.63,213.59L55.44,186.73L55.8,201L56.17,214.66L56.53,198.65L56.89,197.45L57.25,188.23L57.62,196.44L57.98,184.26L58.34,185.2L58.7,191.78L59.06,192.8L59.43,209.67L60.15,196.7L60.51,212.57L61.6,222.97L61.96,226.25L62.69,179.85L63.05,186.17L63.41,205.31L63.78,205.15L64.14,207.72L65.22,185.37L65.59,192.22L66.31,203.94L66.67,196.25L67.04,200.05L67.4,186.11L68.49,213.33L68.85,211.2L69.21,203.63L69.57,198.49L69.94,209.83L70.3,187.97L70.66,194.92L71.02,207.76L71.38,203.43L71.75,204.34L72.11,212.54L72.83,96.06L73.2,146.79L73.56,137.28L73.92,148.5L74.28,184.02L74.65,177.18L75.01,171.01L75.37,188.58L75.73,176.98L76.1,177.84L76.46,194.8L76.82,183.15L77.18,192.2L77.54,182.21L77.91,187.47L78.27,190.32L80.08,230.79L80.44,207.26L80.81,207.77L81.17,220.29L81.89,230.38L82.26,220.47L82.62,170.23L82.98,204.49L83.34,223.95L84.07,229.9L84.43,225.8L84.79,226.69L85.15,203.79L86.24,219.38L86.6,210.61L87.33,214.77L87.69,205.86L88.05,208.47L88.42,205.91L88.78,218.81L90.23,198.46L90.59,202.85L90.95,197.68L91.31,199.88L91.68,217.11L92.76,250.22L93.13,211.07L93.49,210.58L93.85,236.77L94.21,223.75L94.58,224.71L94.94,229.35L95.3,234.29L95.66,211.03L97.11,233.52L97.47,235.71L98.2,210.47L98.56,214.98L98.92,230.18L99.29,240.91L99.65,219.98L100.01,231.26L100.37,198.15L101.82,248.4L102.19,258.57L102.55,256.8L102.91,224.64L104.36,270.99L104.72,266.38L105.08,258.58L105.45,265.83L105.81,241.28L106.17,228.48L106.53,265.93L106.9,256.9L107.26,257.33L107.62,271.53L108.35,218.77L108.71,237.73L109.07,251.84L109.79,238.06L110.16,255.11L110.88,238.93L111.24,246.6L111.97,267.41L112.33,254.92L112.69,255.79L113.06,253.93L113.42,236.38L113.78,243.02L114.14,252.17L114.87,238.11L115.23,251.28L115.96,224.76L116.32,240.52L116.68,233.69L117.04,243.11L118.13,264.43L118.49,233.94L118.85,232.01L119.22,241.96L119.58,246.09L119.94,261.51L120.3,268.87L120.67,245.17L121.39,198.64L121.75,207.46L122.12,217.82L122.84,232.87L123.2,219.51L124.29,200.67L124.65,215.67L125.01,200.51L125.38,204.14L125.74,205.53L126.46,128.65L126.83,130.58L127.19,125.28L127.91,151.18L128.28,185.02L128.64,208.65L129,186.05L129.36,134.65L130.45,259.63L130.81,257.83L131.17,252.44L131.54,259.54L131.9,213.74L133.35,243.33L133.71,239.52L134.07,246.57L134.44,245.36L134.8,226.73L135.16,217.7L135.52,245.87L135.88,232.36L136.25,248.38L137.7,235.83L138.06,252.52L138.42,230.46L138.78,244.58L139.15,235.08L139.51,248.61L139.87,229.95L140.23,244.84L140.6,233.08L140.96,238.55L141.32,209.71L141.68,252.04L142.04,249.37L142.41,236.69L143.13,256.16L143.49,251.31L143.86,242.75L144.22,260.09L144.58,253.43L144.94,247L145.31,239.94L145.67,245.16L146.03,248.92L146.76,249.34L147.12,227.22L147.48,234.71L148.21,247.77L148.57,236.57L148.93,233.24L149.29,235.66L149.65,223.69L150.74,236.46L151.1,229.27L151.47,253.87L151.83,249.72L152.19,240.84L153.28,232.94L153.64,234.27L154.73,255.22L155.09,257.21L155.45,255.34L155.81,270.33L156.18,279.56L156.54,275.53L156.9,261.76L158.35,304L158.71,287.96L159.44,264.37L159.8,272.52L160.89,291.16L161.25,268.29L161.61,270.42L161.97,268.97L162.34,284.34L164.15,246.89L164.51,256.76L164.87,258.35L165.24,254.18L165.6,255.8L165.96,251.24L166.32,228.4L166.69,235.47L167.05,259.84L167.41,265.54L167.77,253.54L168.13,259.29L168.5,257.3L168.86,254.29L169.58,236.15L169.95,245.82L170.31,238.07L170.67,246.47L171.03,255.08L171.76,250.3L172.12,236.31L172.48,242.89L172.85,229.4L173.93,262.58L174.29,247.83L175.02,255.78L175.38,244.67L176.47,219.87L176.83,227.55L177.19,231.83L177.56,217.91L177.92,224.72L178.28,219.98L178.64,221.4L179.01,196.65L180.09,232.93L180.46,221.24L180.82,213.81L181.18,222.24L181.54,223.58L181.9,228.77L182.27,222.38L182.63,233.25L184.44,188.83L184.8,216.32L185.17,226.81L185.53,214.26L185.89,226.74L186.25,225.2L186.62,216.85L187.34,197.14L187.7,221.68L188.06,212.34L188.43,221.57L188.79,228.48L189.15,227.1L189.51,204.22L189.88,211.55L190.24,202.65L191.33,219.6L191.69,213.39L192.05,222.15L192.41,204.63L192.78,207.91L193.14,199.6L194.22,238.52L194.59,199.78L195.31,242.73L195.67,218.1L196.04,221.03L196.4,216.94L196.76,220.09L197.12,238.91L197.49,230.5L198.21,230.99L198.57,236.11L199.66,246.55L200.02,236.28L200.38,239.29L200.75,231.16L201.83,247.04L202.2,258.18L202.56,259.82L202.92,252.03L203.28,249.28L203.65,262.76L204.01,259.74L204.37,243.73L204.73,261.97L205.1,257.56L205.46,258.53L205.82,251.59L206.18,253.45L206.54,252.57L206.91,254.81L207.27,237.93L207.63,270.86L207.99,255.58L208.36,246.69L209.44,259.4L209.81,228.69L210.53,246.52L210.89,240.01L211.26,246.64L211.62,241.86L211.98,239.63L212.34,239.97L212.71,252.11L213.07,266.97L213.43,256.23L213.79,254.37L215.24,278.53L215.6,271.11L215.97,271.17L216.33,268.32L216.69,269.37L217.05,262.62L217.42,275.7L217.78,272.14L218.14,263.95L218.5,263.87L218.87,261.18L219.23,264.91L219.59,257.13L219.95,213.15L220.31,224.34L220.68,220.8L221.04,217.05L221.4,228.81L222.85,205.86L223.21,223.19L223.94,220.5L224.3,212.99L225.03,202.1L225.39,222.64L225.75,223.47L226.11,218.94L226.84,218.78L227.2,224.57L227.56,191.66L228.29,220.75L228.65,219.18L229.01,218.94L229.37,217.05L229.74,182.28L230.1,212.2L230.46,208.4L230.82,206.27L231.55,203.69L231.91,198.71L233,226.97L233.36,219.04L234.08,222.48L234.45,203.65L234.81,196.59L235.17,208.5L235.53,224.88L235.9,214.88L236.26,216.72L236.62,219.02L236.98,216.79L237.35,201.42L237.71,194.43L238.07,213.64L238.43,213.25L238.79,191.66L239.88,225.66L240.24,227.86L241.33,206.29L241.69,209.47L242.06,170.26L242.42,195.86L242.78,188.47L243.14,189.37L243.51,193.34L243.87,194.5L244.23,192.47L244.59,189.88L244.96,178.61L245.68,168.86L246.04,184.45L246.4,180.78L246.77,185.39L247.13,181.96L247.49,184.87L247.85,169.29L248.94,183.81L249.3,185.48L249.67,184.32L250.03,175.22L251.12,151.46L251.48,168.07L252.56,149.22L252.93,112.26L253.29,76.76L253.65,94.68L254.01,90.61L254.74,81.08L255.1,92.19L255.46,86.88L255.83,101.22L256.19,87.03L256.55,107.34L256.91,113.23L257.28,105.86L257.64,113.95L258,104.44L259.45,126.2L259.81,120.68L260.17,104.69L260.54,109.91L260.9,108.51L261.26,100.16L261.62,33.86L261.99,52.39L262.35,127.42L263.44,152.76L263.8,160.24L264.16,121.14L264.52,169.4L265.25,157.67L265.61,161.47L265.97,154.95L266.33,156.25L266.7,155.22L267.06,165.42L267.42,168.18L267.78,162.58L268.51,156.31L268.87,157.84L269.23,172.51L269.6,170.67L269.96,172.19L270.32,154.7L270.68,173.95L271.04,164.18L271.41,161.7L272.13,176.4L272.49,168.95L273.58,123.77L273.94,156.87L274.31,154.42L274.67,157.68L275.39,166.09L275.76,142.32L276.48,176.06L276.84,166.98L277.21,169.22L277.57,160.2L277.93,164.29L278.29,162.72L278.65,151.54L279.02,164.16L279.74,169.55L280.1,168.66L280.47,162.85L280.83,158.02L281.19,166.34L281.92,179.64L282.28,161.53L283.37,148.71L283.73,176.22L284.45,162.47L284.81,170.87L285.18,174.67L285.54,165.4L285.9,166.86L286.26,164.99L286.63,166.5L286.99,166.18L287.35,165.7L287.71,167.48L288.08,158.86L289.16,172.95L289.53,175.58L289.89,178.6L290.25,171.99L290.61,158.77L290.97,163.66L291.34,163.39L292.42,176.26L292.79,179.13L293.15,78.71L293.51,122.75L293.87,158.26L294.6,183.31L294.96,179.66L295.32,173.52L295.69,142.85L296.05,150.65L296.41,148.52L296.77,147.64L297.13,153.04L297.5,149.41L297.86,157.82L298.22,130.75L298.58,139.42L298.95,138.59L299.31,135.92L299.67,147.62L300.76,156.85L301.12,130.29L301.48,131.72L301.85,141.38L302.21,157.17L302.57,153.39L302.93,143.71L303.29,129.14L303.66,147.02L304.02,143.68L304.38,146.81L304.74,162.93L305.11,102.85L305.47,116.51L305.83,121.23L306.92,157.73L307.28,161.21L308.37,177.42L308.73,165.19L309.82,179.8L310.18,165.64L310.54,159.11L310.9,167.4L311.27,167.86L311.63,165.96L311.99,160.18L312.35,177.49L312.72,175.61L313.08,179.78L313.44,174.87L313.8,119.44L314.17,112.63L314.53,122L315.25,100.23L315.62,113.33L315.98,116.49L316.34,102.4L316.7,129.31L317.06,103.91L317.43,121.54L317.79,123.73L318.15,139.28L318.51,143.26L318.88,138.27L319.6,146.41L319.96,135.38L320.69,145.47L321.05,142.82L321.41,142.74L321.78,146.76L322.14,156.69L322.5,152.86L322.86,136.58L323.22,123.23L323.59,139.23L324.31,160.84L324.67,151.68L325.04,158.53L325.4,156.03L325.76,159.97L326.49,136.93L326.85,149.76L327.21,150.86L327.57,144.25L327.94,155.12L328.3,150.82L328.66,149.21L329.38,152.91L329.75,165.39L331.92,124.87L332.28,139.29L332.65,130.15L333.01,134.16L333.37,137.7L333.73,145.92L334.1,139.15L334.46,123.96L335.54,134.31L335.91,128.54L336.63,132.53L336.99,117.68L338.08,124.6L338.44,123.81L338.81,118.81L339.53,138.33L339.89,119.34L340.98,129.76L341.34,120.32L341.71,140.97L342.43,140.08L342.79,133.84L344.24,156.69L344.6,132.95L344.97,121.91L345.33,122.57L345.69,126.42L346.78,156.69L347.14,146.46L347.87,136.08L348.23,156.24L348.95,168.05L349.31,207.86L349.68,205.22L350.04,165.09L350.76,207.66L351.13,191.66L351.49,188.21L351.85,217.18L353.66,181.54L354.03,192.68L356.2,160.93L356.56,174.54L356.92,190.62L357.29,180.73L357.65,176.96L358.01,176.17L358.37,173.35L358.74,158.84L359.1,192.16L360.19,195.19L360.55,189.65L360.91,189.83L361.27,191.83L361.63,189.91L362,177.59L362.36,186.33L362.72,165.65L363.81,191.15L364.17,195.26L364.53,194.47L364.9,178.29L365.98,198.96L366.35,193.44L367.07,191.43L367.43,191.68L367.79,188.12L368.52,194.05L368.88,191.66L369.24,191.25L369.61,203.74L369.97,206.23L370.33,197.89L371.42,182.44L371.78,202.12L372.14,139.85L372.51,142.4L372.87,149.86L373.23,109.07L373.59,124.86L373.96,125.23L374.32,105.67L374.68,118.04L375.04,139.34L375.4,153.27L375.77,148.63L376.13,147.97L376.49,146.97L376.85,148.46L377.58,168.85L377.94,165.04L378.3,163.69L378.67,163.69L379.03,159.87L379.39,176.93L379.75,149.05L380.12,171.38L380.48,152.57L380.84,156.79L381.2,157.8L381.56,154.99L381.93,155.78L382.29,160.53L382.65,161.37L383.01,146.56L383.74,160.79L384.1,147.92L384.46,172.68L384.83,152.96L385.19,131.11L385.55,148.29L385.91,136.14L386.28,144.32L387,134.88L387.36,158.83L388.45,192.65L388.81,165.15L389.9,149.96L390.26,152.29L390.62,163.58L390.99,140.39L391.71,124.92L392.07,136.28L392.8,142.55L393.16,156.31L393.52,133.04L393.88,51.51L394.25,37.37L394.61,177.31L395.7,166.15L396.06,169.27L397.15,151.71L397.51,164.15L397.87,154.27L398.23,178.98L399.68,190.47L400.04,183.71L400.41,163.42L400.77,186.05L401.13,187.12L401.49,179.71L401.86,180.06L402.22,185.59L402.58,144.64L402.94,150.8L403.31,159.05L404.39,131.52L404.76,137.58L405.12,144.51L406.21,164.71L406.57,162.3L406.93,159.3L407.29,161.33L407.65,167.59L408.38,204.42L408.74,196.2L409.1,196.14L409.47,205.99L409.83,175.74L410.92,202.3L411.28,182.27L412,167.16L412.37,175.64L413.09,147.94L413.45,148.8L413.81,157.35L414.18,160.88L414.54,182.41L415.26,156.63L415.63,164.96L415.99,165.51L416.71,174.39L417.08,164.29L417.44,172.13L417.8,166.24L418.16,163.42L419.25,183.95L419.61,183.83L419.97,186.18L420.34,178.15L420.7,133.23L421.06,155.62L421.42,170.84L421.79,173.07L422.15,188.16L422.87,163.2L423.24,179.31L423.6,189.54L423.96,181.42L424.32,187.06L425.77,169.49L426.13,184.95L426.5,172.93L426.86,197.9L427.22,205.68L427.58,186.8L428.31,148.58L428.67,169.46L429.4,154.21L429.76,154.75L430.12,173.56L430.48,165.04L430.85,174.19L431.93,183.71L432.29,172.38L432.66,164.08L433.02,172.2L433.38,174.3L433.74,167.15L434.11,174.31L434.47,183.98L434.83,182.21L435.19,162.07L435.56,150.5L435.92,161.41L436.28,170.57L437.73,194.07L438.09,185.79L438.46,180.03L438.82,206.45L439.18,207.24L439.54,204.18L439.9,202.12L440.27,204.29L440.63,141.42L440.99,144.2L441.35,157.39L442.44,197.33L442.8,178.36L443.89,137.07L444.25,178.51L444.62,188.18L444.98,176.95L445.34,175.71L445.7,169.01L446.06,148.14L446.43,168.74L446.79,183.39L447.15,182.52L447.51,173.75L447.88,173.79L448.24,164.79L448.6,196.89L448.96,185.34L449.33,170.17L449.69,186.47L450.05,183.17L450.41,169.38L451.14,84.59L451.5,112.7L451.86,166.5L452.22,138.79L452.59,130.07L454.04,174.17L454.4,162.31L454.76,178.36L455.12,173.19L455.49,172.38L456.57,158.06L456.94,173.96L457.3,175.93L457.66,168.71L458.02,170.92L458.38,143.86L459.47,184.28L459.83,175.52L460.92,183.6L461.28,154.52L462.01,181.15L462.37,180.03L462.73,178.48L463.46,155.28L463.82,160.56L464.18,149.25L464.54,146.59L464.91,153.06L465.63,156.42L465.99,112.96L466.36,111.91L466.72,107.68L467.44,148.5L467.81,147.2L468.17,149.57L468.89,152.89L469.26,146.5L470.71,159.94L471.07,137.3L471.79,144.68L472.15,136.9L472.52,134.24L472.88,148.42L473.24,156.03L473.6,153.83L473.97,150.21L474.33,151.71L474.69,157.09L475.05,155.36L475.42,158.75L475.78,165.34L476.14,161.06L476.5,164.77L477.59,175.9L477.95,170.57L478.31,170.57L478.68,158.99L479.04,156.42L479.4,167.77L479.76,167.65L480.13,164.3L480.49,170.99L480.85,166.59L481.21,155.2L481.58,146.52L481.94,160.69L483.75,132.57L484.11,150.53L484.47,151.77L484.84,160.91L485.56,145.01L485.92,149.46L486.65,124.94L487.01,138.5L487.74,135.49L488.1,143.98L489.19,127.14L489.55,129.58L489.91,145.63L490.27,132.84L490.63,132.95L491.36,113.16L491.72,121.31L492.08,117.66L492.45,120.06L492.81,120.23L493.17,123.59L493.53,120.02L493.9,112.61L494.98,127.65L495.35,135.95L495.71,138.11L496.07,120.89L496.43,109.69L496.79,136.19L497.16,133.46L497.52,140.03L497.88,152.71L498.24,152.52L498.61,133.84L498.97,131.85L499.33,124.79L499.69,129.28L500.06,145.57L501.51,140.52L501.87,130.89L502.23,150.33L502.59,147.35L502.96,147.71L503.32,151.84L503.68,134.43L504.4,146.69L504.77,165.76L506.22,138.23L506.58,110.2L506.94,107.96L507.3,145.46L507.67,142.15L508.03,159.62L509.48,128.01L509.84,138.41L510.56,146.86L510.93,139.82L512.01,159.04L512.38,157.37L512.74,145.97L513.1,153.74L513.46,150.59L513.83,141.9L514.55,154.8L514.91,136.82L515.28,146.79L515.64,130.79L516,134.91" style="vector-effect: non-scaling-stroke; fill: none; stroke: rgb(239, 85, 59); stroke-opacity: 1; stroke-width: 2px; opacity: 1;"/></g><g class="points"/><g class="text"/></g><g class="trace scatter trace304ca7" style="stroke-miterlimit: 2; opacity: 1;"><g class="fills"/><g class="errorbars"/><g class="lines"><path class="js-line" d="M0,206.99L0.36,207.8L0.72,204.38L1.09,213.29L1.45,212.03L1.81,203.05L2.17,203.72L2.54,196.49L3.26,200.52L3.62,181.66L4.35,193.83L4.71,182.86L5.44,202.85L5.8,197.98L6.16,196.13L6.52,197.98L6.88,206.6L7.25,200.68L7.61,207.89L8.33,196.82L8.7,201.54L9.06,212.68L9.42,202.54L9.78,197.09L10.87,212.51L11.23,213.54L12.32,180.67L12.68,201.46L13.04,205.91L13.41,202.53L13.77,197.6L14.49,193.43L14.86,199.86L15.22,202.61L15.58,220.62L15.94,208.12L16.31,222.02L17.39,190.08L17.76,218.36L18.84,206.76L19.21,219.84L19.93,197.2L20.29,217.64L20.65,207.95L21.02,212.47L21.38,216.2L21.74,229.21L22.1,209.33L22.47,204.41L22.83,237.06L23.55,219.7L23.92,227.83L24.28,227.65L24.64,208.75L25.37,233.85L25.73,225.71L26.09,228.85L26.45,228.44L26.81,218.42L27.18,214.67L27.54,223.65L28.26,168.78L28.63,170.01L28.99,166.46L29.71,133.31L30.08,146.51L30.44,150.24L30.8,138.62L31.89,200.2L32.25,194.03L32.61,197.19L32.97,214.89L34.06,187.65L34.42,202.1L35.15,186.91L35.51,211.43L36.6,192.58L36.96,187.64L38.05,164.97L38.41,183.51L38.77,175.25L39.13,177.51L39.5,178.15L39.86,168.66L40.22,172.18L40.58,181.51L40.95,181.55L41.31,180.82L41.67,178.82L42.03,180.45L42.4,152.48L43.48,177.6L43.85,183.71L44.57,172.7L44.93,175.03L46.02,207.14L46.38,206.03L46.74,203.57L47.11,217.19L47.83,208.97L48.19,216.29L48.56,226.35L48.92,223.28L49.28,217.03L50.73,226.64L51.09,218.96L51.46,218.21L51.82,212.39L52.54,203.64L52.9,208.92L53.27,217.67L53.63,215.61L54.72,203.96L55.44,185.82L55.8,207.49L56.17,206.65L56.53,200.06L56.89,199.5L57.25,207.34L57.62,186.11L57.98,202.09L58.34,195.51L58.7,188.27L59.06,199.99L59.79,187.7L60.15,188.5L60.51,202.86L60.88,197.21L61.24,214.39L61.6,214.93L61.96,204.38L62.69,186.67L63.05,201.66L63.41,214.83L63.78,200.82L64.14,221.79L64.5,198.5L64.86,217.99L65.22,197.22L65.59,209.94L66.31,192.99L66.67,228.01L68.12,203.86L68.49,220.09L69.21,211.57L69.57,212.18L69.94,224.42L70.3,228.78L70.66,211.43L71.02,228.21L71.38,214.5L71.75,225.87L72.11,227.35L72.47,194.28L73.2,134.42L73.56,147.05L74.28,194.9L74.65,176.39L75.01,195.89L75.37,213.93L75.73,209.27L76.1,201.69L76.46,205.65L76.82,220.4L77.54,204.06L77.91,221.69L78.27,216.84L78.63,223.54L78.99,219.62L79.36,235.98L80.08,217.43L80.44,230.37L80.81,218.63L81.17,233.26L81.53,242.28L81.89,238.05L82.26,240.76L83.34,202.65L83.71,223.18L84.43,243.13L84.79,238.14L85.15,238.63L85.88,218.63L86.24,228.52L86.97,237.29L87.33,224.2L87.69,238.78L88.05,225.58L88.42,227.16L89.5,243.49L89.87,239.69L90.23,225.03L90.59,232.28L90.95,227.74L91.31,256.75L91.68,237.87L92.04,250.35L92.76,247.8L93.13,225.83L93.49,228.85L93.85,244.08L94.21,241.2L94.58,243.13L94.94,246.84L95.66,246.32L96.03,269.2L96.39,271.59L96.75,269.24L97.11,268.5L97.47,268.39L97.84,277.66L98.56,251.52L98.92,280.02L99.65,243.74L100.01,263.71L100.74,274.72L101.1,268.64L101.46,278.35L101.82,272.61L102.19,270.05L102.55,271.48L102.91,259.47L103.27,268.2L103.63,253.89L105.08,281.47L105.45,270.61L106.17,253.12L106.53,274.1L106.9,274.58L107.26,280.73L107.62,280.36L107.98,262.71L108.35,251.69L108.71,253.88L109.07,282.67L110.16,263.76L110.52,266.92L110.88,265.65L111.24,251.69L112.33,269.63L112.69,273.66L113.78,241.88L114.14,258.4L114.87,265.37L115.23,264.61L115.59,247.15L115.96,250.39L116.32,237.81L117.4,283.78L118.13,270.18L118.85,241.29L119.22,261.43L120.67,239.64L121.03,239.97L121.39,245.74L122.12,236.43L122.48,242.8L122.84,243.48L123.2,240.45L123.56,241.24L123.93,210.5L125.01,229.18L125.38,224.4L125.74,214.36L126.1,157.45L126.46,156.2L126.83,151.42L127.19,132.28L127.55,135.97L127.91,146.12L128.64,205.66L129,189.45L129.36,125.29L130.45,248.6L130.81,247.28L131.17,256.37L131.54,249.08L132.26,250.58L133.35,261.17L133.71,255.87L134.07,254.87L134.44,261.3L134.8,263.81L135.16,260.4L135.52,265.14L135.88,255.24L136.25,263.75L136.61,247.29L136.97,239.77L137.33,250.52L137.7,228.27L138.06,239.71L138.42,257.91L138.78,257.79L139.15,242.85L140.23,255.3L140.6,257.79L140.96,256.55L141.32,259.14L141.68,247.54L142.04,255.01L142.41,275.19L142.77,275.33L143.13,272.92L143.49,274.92L143.86,254.98L144.22,232.45L144.58,269.25L144.94,250.5L145.31,276.03L146.39,236.12L146.76,245.08L147.12,252.64L147.48,249.54L147.84,257.14L148.21,256.21L148.57,251.82L149.29,226.71L149.65,238.09L150.02,263.59L150.74,262.78L151.1,269.46L151.83,239.19L152.19,256.39L152.55,257.95L152.92,263.34L153.64,282.45L154,274.25L154.37,279.45L154.73,293.1L155.09,276.08L155.45,267.98L155.81,280.01L156.18,279.41L156.54,284.59L156.9,286.39L157.26,285.13L157.63,281.62L158.71,290.24L159.08,286.93L159.44,276.88L159.8,282.42L160.16,293.58L160.53,285.25L160.89,301.97L161.25,299.63L161.61,271.96L162.7,282.05L163.06,280.59L163.42,282.92L163.79,268.47L164.51,249.65L164.87,263.35L165.24,244.31L165.6,268.62L165.96,255.33L166.32,260.46L166.69,266.06L167.05,264.6L167.41,258.43L167.77,255.02L168.13,261.28L169.58,231.67L169.95,258.19L170.67,237.48L171.03,244.61L171.4,243.84L171.76,246.96L172.12,228.81L172.85,247.27L173.21,259.93L173.57,270.61L173.93,270.02L174.29,256.84L175.02,258.99L175.38,251.43L175.74,259.44L176.11,256.44L176.47,248.04L177.19,227.62L177.56,238.9L177.92,239.62L178.28,239.19L178.64,236.23L179.37,224.69L179.73,238.94L180.09,233.56L180.46,244.61L180.82,256.19L181.18,251.2L181.54,254.88L182.27,224.27L182.63,239.38L182.99,247.6L183.35,231.81L184.44,200.85L184.8,235.5L185.17,236.26L185.53,215.33L186.62,251.74L186.98,248.2L188.79,235.59L189.15,244.53L189.51,250.32L189.88,231.58L190.24,233.09L190.6,243.07L190.96,232.13L191.33,237.11L191.69,244.02L192.05,255.1L192.41,230.96L192.78,198.72L193.14,214.32L193.5,222.37L194.22,242.5L194.59,232.7L194.95,263.67L195.31,259.81L195.67,226.2L196.76,250.73L197.12,248.25L197.49,244.4L197.85,250.72L198.57,259.78L198.94,250.08L199.3,241.67L199.66,253.07L200.02,246.04L200.38,256.47L201.11,260.36L201.47,255.24L202.2,258.67L202.56,271.56L202.92,279.63L203.28,269L204.37,232.44L204.73,262.94L205.1,248.78L205.46,252.3L205.82,261.74L206.18,260.43L206.54,260.92L206.91,276.87L207.99,258.9L208.36,260.64L209.08,263.58L209.44,263.22L209.81,253.79L210.17,267.88L210.53,247.62L210.89,245.29L211.26,249.47L211.98,225.36L212.34,252.49L212.71,272.18L213.07,251L213.43,240.45L213.79,253.87L214.15,250.73L214.52,256.35L214.88,284.99L215.24,281.67L215.6,271.77L215.97,267.42L216.33,268.94L216.69,271.14L217.05,272.56L217.42,285.9L218.87,258.35L219.23,255.6L219.59,259.99L219.95,216.62L220.31,211.51L220.68,216.46L221.04,219.88L221.76,221.94L222.13,211.47L222.49,199.46L222.85,204.02L223.21,214.53L223.94,212.54L224.3,200.41L224.66,203.35L225.03,218.2L225.39,204.36L225.75,235.27L226.47,220.92L226.84,221.01L227.2,220.04L227.92,206.83L228.29,216.98L228.65,190.72L229.01,207.31L229.37,218.09L229.74,222.65L230.1,207.95L230.82,222.42L231.19,212.05L231.91,200.78L232.27,212.54L232.63,179.9L233,208.46L233.36,218.1L234.45,211.54L234.81,219.57L235.17,212.34L235.53,216.59L235.9,217.63L237.71,187.34L238.07,210.16L239.88,188.78L240.24,173.96L240.61,201.83L240.97,159.45L241.33,150.72L241.69,165.88L242.06,146.28L242.42,154.83L242.78,164.61L243.14,167.65L243.51,163.2L243.87,174.83L244.23,164.52L244.59,161.4L244.96,167.01L245.32,165.04L245.68,149.32L246.04,159.31L246.4,157.14L246.77,152.42L247.49,166.43L247.85,164.69L248.22,159.93L248.94,177.19L249.3,169.95L249.67,167.83L250.03,160.23L251.12,150.65L251.48,158.26L251.84,138.37L252.2,153.45L252.56,142.19L253.65,66.11L254.01,66.49L255.46,118.41L255.83,98.25L256.19,108.27L256.55,102.86L256.91,90.21L258.36,121.02L258.72,113.18L259.09,107.75L259.45,117.48L261.26,54.75L261.62,16L261.99,41.97L262.35,160.94L263.07,163.93L263.44,177.24L263.8,169.98L264.16,125.16L264.52,182.27L264.88,169.19L265.25,168.58L265.97,178.47L266.33,169.06L266.7,170.43L267.06,179.44L267.42,177.28L267.78,170.19L268.51,187.3L268.87,178.37L269.6,164.29L269.96,178.49L270.32,177.65L270.68,182.93L271.41,188.99L271.77,186.27L272.13,173.25L272.49,183.44L272.86,175.89L273.22,170.89L274.31,180.43L274.67,174.27L275.39,178.93L275.76,168.04L276.12,172.92L276.48,171.31L276.84,170.18L277.21,189.62L277.57,183.24L277.93,174.79L279.02,191.72L279.38,181.1L280.1,178.75L280.47,180.64L280.83,188.73L281.19,179.69L282.28,189.69L282.64,189.05L283.37,151.69L283.73,162.96L284.09,170.7L284.45,156.49L284.81,161.55L285.18,183.46L286.26,134.2L286.63,143.64L287.35,169.12L287.71,163.33L288.08,158.99L288.44,165.84L288.8,153.07L289.53,181.11L289.89,168.91L290.61,161.77L290.97,168.73L291.34,162.15L291.7,167L292.06,180.28L292.42,180.26L292.79,178.44L293.15,126.49L293.51,155.13L293.87,152.84L294.6,182.89L294.96,182.34L295.32,181.24L295.69,150.16L296.05,164.69L296.41,154.71L296.77,180.22L297.13,149.41L297.5,160.55L297.86,157.35L298.22,155.25L298.58,154.65L298.95,150.12L299.31,166.86L299.67,161.04L300.03,150.92L300.4,156.83L300.76,156.63L301.12,151.92L301.48,144.24L302.21,144.55L302.57,148.09L302.93,145.17L303.29,153.2L304.02,140.6L304.38,152.74L304.74,153.66L305.11,111.57L305.47,115.43L305.83,141.67L306.19,142.8L306.56,133.7L307.64,158.35L308.01,167.46L308.37,163.77L308.73,166.85L309.09,165.19L309.46,178.66L309.82,174.74L310.18,172.8L310.54,168.62L310.9,172.35L311.27,171.82L311.63,169.83L311.99,174.16L312.72,188.46L313.08,183.58L313.44,190.04L314.17,96.03L314.53,116.28L315.62,101.28L315.98,104.02L316.34,109.59L316.7,109.02L317.06,123.31L317.79,132.64L318.15,150.55L318.51,157.09L318.88,119.73L319.6,118.57L319.96,136.64L320.69,143.68L321.05,142.24L321.41,138.83L321.78,141.97L322.14,158.01L322.86,132.17L323.22,140L323.59,144.88L323.95,141.85L324.31,135.52L324.67,153.43L325.04,148.73L325.4,150.44L325.76,152.76L326.12,139.17L326.49,104.97L326.85,111.45L327.21,137.45L327.57,132.59L327.94,138.45L328.66,147.31L329.02,128.21L329.38,127.48L329.75,153.15L330.11,147.15L330.47,155.02L330.83,149.37L331.2,161.26L331.92,121.5L332.28,138.31L332.65,138.1L333.01,130.05L333.37,130.29L333.73,108.99L334.82,137.16L335.18,133.23L335.91,146.97L336.27,139.71L336.63,161.03L336.99,153.26L337.36,136.39L337.72,121.23L338.08,132.36L338.44,135.33L338.81,148.6L339.17,129.54L339.53,145.72L339.89,125.68L340.26,136.7L340.62,120.59L342.07,182.83L342.43,156.67L343.88,173.38L344.24,172.85L344.6,180.43L344.97,172.09L345.69,159.91L346.05,173.96L346.78,182.57L347.14,180.18L347.5,174.87L347.87,164.57L348.23,165.3L348.59,166.98L349.68,202.08L350.04,193.66L351.13,170.63L351.49,199.78L351.85,194.78L352.21,220.93L352.94,206.27L353.3,191.7L355.11,165.78L355.47,175.19L355.84,177.49L356.2,169.01L356.56,168.41L356.92,179.83L357.29,182.03L357.65,180.5L358.01,157.89L358.37,159.59L358.74,158.7L359.1,179.98L359.82,196.46L360.19,174.76L361.27,159.08L361.63,188.94L362,162.34L362.36,173L362.72,177.31L363.45,164.17L363.81,196.09L364.9,172.85L365.26,181.29L366.35,198.99L366.71,183.01L367.07,175.37L367.43,189.51L367.79,188.77L368.16,196.84L368.52,196.37L368.88,203.67L369.61,196.36L369.97,179.58L370.69,202.33L371.06,200.21L371.42,198.11L371.78,189.02L372.14,123.36L373.23,142.06L373.59,104.17L375.4,187.91L375.77,167.01L376.13,188.74L376.49,163.21L377.22,219.83L377.58,200.71L377.94,200.71L378.67,148.3L379.03,161.77L379.75,211.92L380.12,188.93L380.48,184.59L380.84,145.83L381.56,158.7L381.93,179.86L382.65,199.83L383.01,192.16L383.38,193.79L384.1,191.03L384.46,194.62L384.83,211.82L385.19,200.75L385.55,147.46L386.28,178.15L386.64,176.51L387,195.78L387.72,181.08L388.09,182.87L388.45,192.81L388.81,193.17L389.17,204.3L389.9,159.14L390.26,184.29L391.35,144.71L391.71,146.12L392.07,170.01L392.44,158.61L392.8,161.46L393.52,134.13L393.88,56.02L394.97,227.38L395.33,203.79L395.7,206L396.06,208.85L396.42,169.09L397.51,208.33L397.87,200.97L398.6,177.56L398.96,181.7L399.32,195.61L400.04,219.29L400.41,208.9L400.77,214.85L401.13,189.22L401.86,205.19L402.22,198.61L402.58,175.33L402.94,187.46L403.31,184.21L404.76,168.13L405.12,186.8L405.48,224.05L405.84,214.68L406.21,163.07L406.57,190.66L407.29,189.19L407.65,197.26L408.02,239.07L408.38,210.87L408.74,202.95L409.1,200.06L409.47,224.49L410.19,186.98L410.55,194.53L411.28,186.72L411.64,210.98L412,199.29L412.37,202.54L413.09,234.67L413.45,217.92L413.81,218.24L414.18,220.29L414.54,223.04L414.9,212.84L415.26,226.23L415.63,203.5L415.99,197.97L416.35,220.35L416.71,211.43L417.08,211.76L417.44,217.44L418.16,246.27L418.53,221.68L419.25,228.45L419.61,221.85L419.97,227.59L420.34,194.96L420.7,175.7L421.06,197.19L421.42,183.34L421.79,203.32L422.87,212.52L423.24,214.66L423.6,204.04L423.96,205.05L424.32,205.36L424.69,210.05L425.05,206.55L425.41,208.73L425.77,208.75L426.13,214.85L426.5,203.72L426.86,225.54L427.95,172.75L428.31,189.31L428.67,186.15L429.03,164.46L429.4,177.44L429.76,175.98L430.85,205.11L431.21,201.16L431.57,195.5L431.93,197.42L432.29,199.54L433.38,182.69L433.74,191.73L435.56,141.42L435.92,176.36L436.64,165.66L437.01,168.47L437.37,165.34L438.09,177.53L438.46,168.37L438.82,196.7L439.18,175.29L439.54,173.23L439.9,166.37L440.27,179.11L441.35,136.48L441.72,172.14L442.08,158.55L442.44,160.84L442.8,188.07L443.53,171.53L443.89,182.27L444.98,152.15L445.34,153.77L446.43,172.44L446.79,155.57L447.51,148.9L447.88,149.66L448.24,162.69L448.6,172.82L448.96,167.1L449.33,156.51L449.69,160.85L450.05,175.25L450.78,83.15L451.14,105.18L451.5,149.69L451.86,148.63L452.22,119.06L452.59,115.82L452.95,138.64L454.04,161.7L454.4,151.79L454.76,155.12L455.12,153.84L455.49,152.56L456.21,144.03L456.57,148.84L456.94,136.47L457.66,136.69L458.02,147.47L458.75,162.36L459.11,158.16L459.47,153.68L459.83,167.48L460.2,154.3L460.56,157.69L460.92,157.55L461.28,159.5L461.65,169.14L462.01,166.97L462.37,166.71L462.73,166.9L463.1,155.7L463.82,146.69L464.18,159.3L465.27,139.32L465.63,146.63L465.99,114.32L466.36,127.07L466.72,116.35L467.08,150.1L467.44,139.24L467.81,138.4L468.53,169.75L468.89,166.56L469.26,154.81L469.62,167.48L469.98,150.1L470.34,151.65L470.71,162.92L471.07,165.97L471.43,155.88L471.79,165.6L472.15,153.23L472.52,169.75L472.88,155.86L473.24,163.02L473.6,160.42L473.97,171.11L475.05,161.75L475.42,147.85L475.78,170.97L476.14,162.76L476.5,147.16L476.87,159.78L477.59,159.25L477.95,148.43L478.68,151.93L479.04,150.74L479.4,170.18L479.76,152.7L480.13,163.07L480.49,153.99L480.85,161.22L481.21,154.19L481.58,154.47L482.3,165.47L482.66,155.57L483.03,160.24L483.39,146.65L483.75,147.21L484.11,150.41L484.84,163.81L485.2,159.64L485.56,161.54L486.65,121.16L487.01,144.78L487.74,132.8L488.1,135.19L488.46,135.6L488.82,123.97L489.19,142.51L490.27,118.94L490.63,127.58L491,123.44L491.36,105.18L492.08,126.66L492.45,121.02L492.81,128.37L493.17,119.06L493.53,128.05L493.9,130.6L494.26,134.78L494.62,127.75L495.71,142.14L496.07,141.13L496.43,132.45L496.79,141.22L497.16,143.26L497.52,138.52L497.88,152.06L498.97,134.24L499.33,129.96L499.69,137.93L500.06,135.52L500.42,136.4L500.78,134.41L501.14,137.24L501.51,138.61L501.87,158.93L502.59,141.2L502.96,153.46L503.68,140.36L504.04,164.94L504.4,174.55L504.77,157.66L505.49,142.24L505.85,160.55L506.94,125.9L507.3,166.75L508.39,140.68L508.75,148.59L509.48,126.11L509.84,130.41L510.2,143.31L510.56,134.21L510.93,126.1L511.65,130.32L512.01,159L512.38,158.32L512.74,141.11L513.1,136.33L513.46,137.18L513.83,139.14L514.19,151.18L514.55,135.39L514.91,138.22L515.28,131.13L516,142.27" style="vector-effect: non-scaling-stroke; fill: none; stroke: rgb(0, 204, 150); stroke-opacity: 1; stroke-width: 2px; opacity: 1;"/></g><g class="points"/><g class="text"/></g></g></g><g class="overplot"/><path class="xlines-above crisp" d="M0,0" style="fill: none;"/><path class="ylines-above crisp" d="M0,0" style="fill: none;"/><g class="overlines-above"/><g class="xaxislayer-above"><g class="xtick"><text text-anchor="middle" x="0" y="433" transform="translate(80,0)" style="font-family: 'Open Sans', verdana, arial, sans-serif; font-size: 12px; fill: rgb(42, 63, 95); fill-opacity: 1; white-space: pre;">2017</text></g><g class="xtick"><text text-anchor="middle" x="0" y="433" transform="translate(212.26,0)" style="font-family: 'Open Sans', verdana, arial, sans-serif; font-size: 12px; fill: rgb(42, 63, 95); fill-opacity: 1; white-space: pre;">2018</text></g><g class="xtick"><text text-anchor="middle" x="0" y="433" transform="translate(344.52,0)" style="font-family: 'Open Sans', verdana, arial, sans-serif; font-size: 12px; fill: rgb(42, 63, 95); fill-opacity: 1; white-space: pre;">2019</text></g><g class="xtick"><text text-anchor="middle" x="0" y="433" transform="translate(476.78,0)" style="font-family: 'Open Sans', verdana, arial, sans-serif; font-size: 12px; fill: rgb(42, 63, 95); fill-opacity: 1; white-space: pre;">2020</text></g></g><g class="yaxislayer-above"><g class="ytick"><text text-anchor="end" x="79" y="4.199999999999999" transform="translate(0,393.57)" style="font-family: 'Open Sans', verdana, arial, sans-serif; font-size: 12px; fill: rgb(42, 63, 95); fill-opacity: 1; white-space: pre;">0.14</text></g><g class="ytick"><text text-anchor="end" x="79" y="4.199999999999999" transform="translate(0,346.46000000000004)" style="font-family: 'Open Sans', verdana, arial, sans-serif; font-size: 12px; fill: rgb(42, 63, 95); fill-opacity: 1; white-space: pre;">0.15</text></g><g class="ytick"><text text-anchor="end" x="79" y="4.199999999999999" transform="translate(0,299.34000000000003)" style="font-family: 'Open Sans', verdana, arial, sans-serif; font-size: 12px; fill: rgb(42, 63, 95); fill-opacity: 1; white-space: pre;">0.16</text></g><g class="ytick"><text text-anchor="end" x="79" y="4.199999999999999" transform="translate(0,252.23)" style="font-family: 'Open Sans', verdana, arial, sans-serif; font-size: 12px; fill: rgb(42, 63, 95); fill-opacity: 1; white-space: pre;">0.17</text></g><g class="ytick"><text text-anchor="end" x="79" y="4.199999999999999" transform="translate(0,205.12)" style="font-family: 'Open Sans', verdana, arial, sans-serif; font-size: 12px; fill: rgb(42, 63, 95); fill-opacity: 1; white-space: pre;">0.18</text></g><g class="ytick"><text text-anchor="end" x="79" y="4.199999999999999" transform="translate(0,158.01)" style="font-family: 'Open Sans', verdana, arial, sans-serif; font-size: 12px; fill: rgb(42, 63, 95); fill-opacity: 1; white-space: pre;">0.19</text></g><g class="ytick"><text text-anchor="end" x="79" y="4.199999999999999" transform="translate(0,110.9)" style="font-family: 'Open Sans', verdana, arial, sans-serif; font-size: 12px; fill: rgb(42, 63, 95); fill-opacity: 1; white-space: pre;">0.2</text></g></g><g class="overaxes-above"/></g></g><g class="polarlayer"/><g class="ternarylayer"/><g class="geolayer"/><g class="funnelarealayer"/><g class="pielayer"/><g class="treemaplayer"/><g class="sunburstlayer"/><g class="glimages"/><defs id="topdefs-cec1c1"><g class="clips"/><clipPath id="legendcec1c1"><rect width="82" height="83" x="0" y="0"/></clipPath></defs><g class="layer-above"><g class="imagelayer"/><g class="shapelayer"/></g><g class="infolayer"><g class="legend" pointer-events="all" transform="translate(606.32, 100)"><rect class="bg" shape-rendering="crispEdges" width="82" height="83" x="0" y="0" style="stroke: rgb(68, 68, 68); stroke-opacity: 1; fill: rgb(255, 255, 255); fill-opacity: 1; stroke-width: 0px;"/><g class="scrollbox" transform="translate(0, 0)" clip-path="url('#legendcec1c1')"><text class="legendtitletext" text-anchor="start" x="2" y="15.600000000000001" style="font-family: 'Open Sans', verdana, arial, sans-serif; font-size: 12px; fill: rgb(42, 63, 95); fill-opacity: 1; white-space: pre;">Oceania</text><g class="groups"><g class="traces" transform="translate(0, 30.1)" style="opacity: 1;"><text class="legendtext" text-anchor="start" x="40" y="4.680000000000001" style="font-family: 'Open Sans', verdana, arial, sans-serif; font-size: 12px; fill: rgb(42, 63, 95); fill-opacity: 1; white-space: pre;">Global</text><g class="layers" style="opacity: 1;"><g class="legendfill"/><g class="legendlines"><path class="js-line" d="M5,0h30" style="fill: none; stroke: rgb(99, 110, 250); stroke-opacity: 1; stroke-width: 2px;"/></g><g class="legendsymbols"><g class="legendpoints"/></g></g><rect class="legendtoggle" x="0" y="-9.5" width="76.09375" height="19" style="fill: rgb(0, 0, 0); fill-opacity: 0;"/></g><g class="traces" transform="translate(0, 49.1)" style="opacity: 1;"><text class="legendtext" text-anchor="start" x="40" y="4.680000000000001" style="font-family: 'Open Sans', verdana, arial, sans-serif; font-size: 12px; fill: rgb(42, 63, 95); fill-opacity: 1; white-space: pre;">au</text><g class="layers" style="opacity: 1;"><g class="legendfill"/><g class="legendlines"><path class="js-line" d="M5,0h30" style="fill: none; stroke: rgb(239, 85, 59); stroke-opacity: 1; stroke-width: 2px;"/></g><g class="legendsymbols"><g class="legendpoints"/></g></g><rect class="legendtoggle" x="0" y="-9.5" width="76.09375" height="19" style="fill: rgb(0, 0, 0); fill-opacity: 0;"/></g><g class="traces" transform="translate(0, 68.1)" style="opacity: 1;"><text class="legendtext" text-anchor="start" x="40" y="4.680000000000001" style="font-family: 'Open Sans', verdana, arial, sans-serif; font-size: 12px; fill: rgb(42, 63, 95); fill-opacity: 1; white-space: pre;">nz</text><g class="layers" style="opacity: 1;"><g class="legendfill"/><g class="legendlines"><path class="js-line" d="M5,0h30" style="fill: none; stroke: rgb(0, 204, 150); stroke-opacity: 1; stroke-width: 2px;"/></g><g class="legendsymbols"><g class="legendpoints"/></g></g><rect class="legendtoggle" x="0" y="-9.5" width="76.09375" height="19" style="fill: rgb(0, 0, 0); fill-opacity: 0;"/></g></g></g><rect class="scrollbar" rx="20" ry="3" width="0" height="0" x="0" y="0" style="fill: rgb(128, 139, 164); fill-opacity: 1;"/></g><g class="g-gtitle"/><g class="g-xtitle"><text class="xtitle" x="338" y="461.8" text-anchor="middle" style="font-family: 'Open Sans', verdana, arial, sans-serif; font-size: 14px; fill: rgb(42, 63, 95); opacity: 1; font-weight: normal; white-space: pre;">Date</text></g><g class="g-ytitle"><text class="ytitle" transform="rotate(-90,30.418750000000003,260)" x="30.418750000000003" y="260" text-anchor="middle" style="font-family: 'Open Sans', verdana, arial, sans-serif; font-size: 14px; fill: rgb(42, 63, 95); opacity: 1; font-weight: normal; white-space: pre;">liveness</text></g></g></svg>