<svg class="main-svg" xmlns="http://www.w3.org/2000/svg" xmlns:xlink="http://www.w3.org/1999/xlink" width="700" height="500" style="" viewBox="0 0 700 500"><rect x="0" y="0" width="700" height="500" style="fill: rgb(255, 255, 255); fill-opacity: 1;"/><defs id="defs-d1b048"><g class="clips"><clipPath id="clipd1b048xyplot" class="plotclip"><rect width="472" height="320"/></clipPath><clipPath class="axesclip" id="clipd1b048x"><rect x="80" y="0" width="472" height="500"/></clipPath><clipPath class="axesclip" id="clipd1b048y"><rect x="0" y="100" width="700" height="320"/></clipPath><clipPath class="axesclip" id="clipd1b048xy"><rect x="80" y="100" width="472" height="320"/></clipPath></g><g class="gradients"/></defs><g class="bglayer"><rect class="bg" x="80" y="100" width="472" height="320" style="fill: rgb(229, 236, 246); fill-opacity: 1; stroke-width: 0;"/></g><g class="layer-below"><g class="imagelayer"/><g class="shapelayer"/></g><g class="cartesianlayer"><g class="subplot xy"><g class="layer-subplot"><g class="shapelayer"/><g class="imagelayer"/></g><g class="gridlayer"><g class="x"><path class="xgrid crisp" transform="translate(200.98000000000002,0)" d="M0,100v320" style="stroke: rgb(255, 255, 255); stroke-opacity: 1; stroke-width: 1px;"/><path class="xgrid crisp" transform="translate(321.97,0)" d="M0,100v320" style="stroke: rgb(255, 255, 255); stroke-opacity: 1; stroke-width: 1px;"/><path class="xgrid crisp" transform="translate(442.95,0)" d="M0,100v320" style="stroke: rgb(255, 255, 255); stroke-opacity: 1; stroke-width: 1px;"/></g><g class="y"><path class="ygrid crisp" transform="translate(0,415.78)" d="M80,0h472" style="stroke: rgb(255, 255, 255); stroke-opacity: 1; stroke-width: 1px;"/><path class="ygrid crisp" transform="translate(0,379.34)" d="M80,0h472" style="stroke: rgb(255, 255, 255); stroke-opacity: 1; stroke-width: 1px;"/><path class="ygrid crisp" transform="translate(0,342.9)" d="M80,0h472" style="stroke: rgb(255, 255, 255); stroke-opacity: 1; stroke-width: 1px;"/><path class="ygrid crisp" transform="translate(0,306.46000000000004)" d="M80,0h472" style="stroke: rgb(255, 255, 255); stroke-opacity: 1; stroke-width: 1px;"/><path class="ygrid crisp" transform="translate(0,270.02)" d="M80,0h472" style="stroke: rgb(255, 255, 255); stroke-opacity: 1; stroke-width: 1px;"/><path class="ygrid crisp" transform="translate(0,233.58)" d="M80,0h472" style="stroke: rgb(255, 255, 255); stroke-opacity: 1; stroke-width: 1px;"/><path class="ygrid crisp" transform="translate(0,197.14)" d="M80,0h472" style="stroke: rgb(255, 255, 255); stroke-opacity: 1; stroke-width: 1px;"/><path class="ygrid crisp" transform="translate(0,160.7)" d="M80,0h472" style="stroke: rgb(255, 255, 255); stroke-opacity: 1; stroke-width: 1px;"/><path class="ygrid crisp" transform="translate(0,124.26)" d="M80,0h472" style="stroke: rgb(255, 255, 255); stroke-opacity: 1; stroke-width: 1px;"/></g></g><g class="zerolinelayer"/><path class="xlines-below"/><path class="ylines-below"/><g class="overlines-below"/><g class="xaxislayer-below"/><g class="yaxislayer-below"/><g class="overaxes-below"/><g class="plot" transform="translate(80, 100)" clip-path="url('#clipd1b048xyplot')"><g class="scatterlayer mlayer"><g class="trace scatter tracec03983" style="stroke-miterlimit: 2; opacity: 1;"><g class="fills"/><g class="errorbars"/><g class="lines"><path class="js-line" d="M0,96.04L0.33,97.96L0.66,97.62L0.99,97.27L1.33,98.11L1.66,104.07L2.32,109.77L2.65,106.29L3.65,103.23L3.98,110.29L4.64,97.9L4.97,102.9L6.63,94.93L6.96,99.45L7.29,108.32L7.62,105.51L7.96,104.75L8.29,104.89L8.62,89.02L8.95,85.83L9.28,100.91L9.61,110.22L9.94,102.38L10.28,101.29L10.61,99.99L10.94,102.86L11.27,95.78L11.93,97.37L12.26,101.19L12.6,101.62L12.93,97.74L13.59,87.4L13.92,94.42L14.58,101.07L14.92,91.65L15.25,87.28L15.58,99.22L16.57,92.76L16.9,95.02L17.24,95.35L17.9,89.06L18.56,98.06L18.89,107.19L19.22,93.81L19.89,94.39L20.22,97.74L20.55,94.49L20.88,100.93L21.54,98.8L21.88,91.42L22.21,90.5L22.54,86.98L22.87,84.77L23.2,89.55L23.87,90.35L24.2,89.77L25.19,83.62L25.52,112.09L25.85,107.49L26.19,109.79L26.52,109.31L27.51,104.56L27.84,106.56L28.17,104.87L28.51,109.49L29.17,109.13L29.5,105.07L29.83,102.93L30.16,105.58L30.49,107.08L30.83,105.38L31.16,97.27L31.82,98.06L32.15,96.89L32.81,105.9L33.15,104.44L33.48,101.57L33.81,97.81L34.14,102.8L34.47,103.37L34.8,100.06L35.13,93.49L35.8,94.27L36.13,92.13L36.79,84.52L37.12,91.4L37.46,87.92L37.79,89.34L38.12,90.14L38.45,90.63L38.78,86.43L39.11,81.07L39.44,85.21L39.78,90.97L40.77,87.05L41.1,83.86L41.43,81.31L41.76,86.8L42.1,88.4L42.43,85.13L42.76,85.86L43.09,83.56L43.42,82.68L43.75,84.84L44.08,90.26L44.42,89.7L44.75,84.68L45.74,74.23L46.07,73.2L46.4,76.42L47.07,76.23L47.4,76.94L47.73,75.25L48.06,83.01L48.72,74.74L49.06,76.77L50.05,75.66L51.04,73.6L51.38,74.78L52.04,77.57L52.37,72.86L53.37,78.82L53.7,78.29L54.36,74.41L54.69,76.02L55.02,85.53L55.69,78.04L56.02,79.97L56.35,81.85L57.34,67.22L57.67,70.65L58.01,72.07L59,73.85L59.33,73.01L59.66,72.81L59.99,68.97L60.33,72.04L60.66,68.86L60.99,70.9L61.32,66.97L61.65,70.51L61.98,76.74L62.31,73.91L62.65,75.68L62.98,77.47L63.64,71.35L64.3,71.5L64.63,72.34L64.97,76.86L65.3,72.31L65.63,74.17L65.96,70.72L66.29,72.67L66.62,86.05L66.96,84.38L67.29,87.34L67.62,89.17L67.95,86.71L68.28,86.09L68.61,79.87L69.28,72.67L69.61,80.18L70.93,69.29L71.26,72.32L71.6,70.22L71.93,76.34L72.59,72.91L72.92,73.47L73.25,73.42L73.58,67.72L73.92,72.33L74.25,74.73L75.9,68.39L76.24,70.51L76.57,71.24L76.9,70.08L77.23,69.28L77.56,70.8L77.89,69.42L78.22,103.49L78.56,104.59L78.89,95.09L79.88,91.34L80.21,92.1L80.88,84.79L81.21,88.66L81.87,81.1L82.2,83.89L82.53,84.64L82.87,84.73L83.2,79.49L83.53,86.48L83.86,83.47L84.19,82.49L84.85,80.48L85.19,82.07L85.52,76.65L85.85,77.65L86.18,79.72L87.51,73.52L87.84,71.44L88.17,78.71L88.5,74.81L88.83,75.16L89.49,76.13L89.83,71.74L90.16,69.76L90.49,77.08L90.82,76.33L91.15,92.86L92.81,70.14L93.14,77.01L94.47,71.82L94.8,72.74L95.46,78.24L95.79,76.81L96.12,77.4L96.46,75.51L96.79,79.83L97.12,79.65L97.45,78.14L97.78,78.59L98.11,76.85L99.44,70.9L99.77,73.62L100.43,93.58L100.76,84.48L101.43,96.7L101.76,90.51L102.75,97.44L103.08,94.3L104.08,80.87L104.41,84.11L104.74,85.35L105.07,85.37L105.4,81.14L105.74,81.31L106.07,78.26L107.06,85.22L107.39,82.37L107.72,81.9L108.06,77.89L108.39,79.21L108.72,85.52L109.05,94.71L109.38,91.97L109.71,89.44L110.38,94.27L110.71,106.19L111.37,136.16L111.7,122.25L112.03,114.94L112.7,115.4L113.03,114.79L113.36,135.89L113.69,136.05L114.02,121.28L114.69,118.03L115.02,124.19L115.35,111.84L115.68,123.26L116.01,133.6L116.34,112.91L116.67,116.17L117.01,122.57L118,138.68L118.33,207.73L118.66,254.67L118.99,111.87L119.99,75.37L120.32,74.58L120.65,82.81L120.98,82.59L121.31,79.94L121.65,79.31L121.98,82.09L122.31,85.63L122.64,79.14L123.3,94.93L123.63,89.03L123.97,86.85L124.96,80.56L125.29,86.36L125.96,95.93L126.29,89.19L126.62,89.28L126.95,87.66L128.28,80.91L128.61,81.31L128.94,79.37L129.27,92.73L129.93,88.41L130.26,89.2L130.6,91.07L131.26,86.86L131.59,89.86L131.92,85.7L132.25,87.28L132.58,91.15L133.25,89.42L133.58,89.52L133.91,93.55L134.24,89.48L134.57,90.66L134.9,95.58L135.24,94.08L135.57,98.99L136.23,92.48L136.56,94.63L136.89,95.62L137.22,97.14L137.56,95.54L137.89,93.69L138.55,89.03L138.88,94.97L139.21,96.58L139.54,92.77L140.54,90.08L140.87,87.89L141.53,96.56L141.87,93.88L142.2,93.46L143.19,97.36L143.52,99.42L144.52,91.33L144.85,96.25L145.18,97.6L145.51,109.75L146.84,101.56L147.17,105.41L148.16,89.39L148.49,96.53L148.83,97.32L149.16,94.91L149.82,93.04L150.15,99.35L150.48,97.88L150.81,100.75L151.15,101.35L151.48,98.67L152.8,92.96L153.13,95.66L154.13,97.42L154.46,96.97L154.79,95.91L155.12,85.12L155.79,98.41L156.45,98.1L156.78,92.82L157.11,98.75L157.44,81.55L158.77,94.89L159.1,98.91L159.43,84L160.1,84.55L160.43,88.45L162.08,74.55L162.42,82.97L162.75,78.79L163.08,81.4L163.41,80.3L164.4,73.65L164.74,82.07L165.4,84.43L165.73,87.39L166.06,84.81L166.39,72.71L167.06,79.63L167.39,79.45L167.72,78.48L168.05,80.1L168.38,75.88L169.38,87.33L169.71,87.05L170.04,88.18L170.37,78.41L170.7,79.75L171.03,78.67L171.37,72.58L172.03,79.13L172.36,78.19L172.69,77.33L173.02,78.6L173.35,71.95L173.69,69.6L174.02,75.64L175.01,71.87L175.34,74.2L176.01,63.1L176.34,72.33L176.67,80.61L177,139.48L177.99,84.97L178.33,86.86L178.66,91.88L178.99,93.47L179.32,90.52L179.65,90.51L179.98,86.66L180.98,110.53L181.31,105L182.3,99.81L182.63,103.35L182.97,97.1L183.3,99.82L183.63,103.28L183.96,103.4L184.29,105.44L184.96,102.3L185.29,97.36L185.62,100.91L185.95,100.52L186.28,99.28L186.94,99.54L187.61,88.27L187.94,92.18L188.93,91L189.26,92.58L189.93,84.59L190.26,90.35L191.25,85.68L191.58,86.82L193.57,78.88L193.9,79.35L194.57,78.65L194.9,79.02L195.23,79.15L195.56,76.56L195.89,76.75L196.22,86.23L196.56,91.98L196.89,83.51L197.22,83.81L197.55,81.48L197.88,81.44L198.21,82.9L198.88,76.86L199.21,78.39L199.54,79.2L200.53,82.66L200.87,80.88L201.2,86.57L201.53,81.11L201.86,83.72L202.52,84.21L202.85,86.63L203.19,86.22L203.52,80.75L203.85,97.39L204.51,94.78L204.84,92.03L205.51,88.13L205.84,99.17L206.17,94.39L206.5,95.04L206.83,96.18L208.49,80.76L208.82,86.45L209.48,87.36L209.81,86.96L210.48,86.1L210.81,77.14L211.14,77.73L211.47,83.03L211.8,85.17L212.13,84.38L212.47,83.3L212.8,94.06L213.46,92.04L213.79,90.91L214.12,93.08L214.46,92.41L214.79,87.24L215.45,78.51L215.78,83.05L217.11,90.6L217.44,110.48L218.1,91L218.43,92.29L218.76,96.36L219.43,94.49L219.76,89.36L220.09,81.88L220.42,85.94L220.75,89.9L221.08,90.98L221.42,100.23L221.75,89.52L222.08,110.48L223.4,91.54L223.74,92.25L225.06,101.73L225.39,97.26L226.06,89.74L226.39,93.55L226.72,92.97L227.05,95.01L227.38,103.3L227.71,99.63L228.04,102.37L228.38,106.39L228.71,107.92L229.04,103.29L229.7,123.53L230.03,121.37L230.37,120.1L230.7,117.79L231.03,119.09L231.36,123.07L232.02,144.25L232.35,135.82L232.69,127.47L233.02,131.2L233.35,128.69L233.68,141.6L234.34,151.43L234.67,140.04L235.01,141.13L235.34,139.66L236,133.31L236.33,146.07L236.66,151.49L236.99,142.24L237.66,142.42L238.32,137.75L238.65,158.09L238.98,171.27L239.31,228.73L239.65,255.98L239.98,135.49L240.97,87.32L241.3,86.11L241.63,73.81L241.97,77.78L242.3,98.38L242.63,99.77L242.96,95.12L243.29,90.97L243.62,93.55L243.96,100.37L244.29,97.03L244.95,97.84L245.28,99.77L245.94,92.72L246.28,97.31L246.94,95.85L247.27,97.4L247.6,98.21L247.93,93.09L248.93,100.05L249.26,106.21L249.59,105.52L249.92,107.95L250.25,99.87L250.58,105.7L250.92,110.57L251.58,110.99L251.91,111.57L252.57,100.16L252.9,106.7L253.24,103.55L253.57,107.83L254.89,97.08L255.22,101.13L255.56,100.4L255.89,101.78L256.22,100.72L256.55,106.78L256.88,108.07L257.21,102.46L257.54,104.06L257.88,98.05L259.2,114.57L259.53,106.04L259.87,109.91L260.2,108.04L260.53,107.72L260.86,105.74L261.19,110.73L261.85,102.91L262.19,107.85L262.85,110.95L263.18,115.53L263.51,114.25L263.84,106.14L264.51,110.21L264.84,104.54L265.83,110.48L266.16,109.09L266.49,106.55L266.83,110.06L267.16,107.55L267.49,107.03L267.82,108.1L268.15,112.93L268.48,101.14L268.81,107.14L269.15,109.55L269.48,102.91L269.81,104.6L270.14,105.38L270.47,105.93L270.8,141.33L271.13,139.91L271.47,145.98L272.79,137.57L273.12,154.53L275.78,129.79L276.11,130.26L276.44,135.7L277.1,125.67L277.43,129.19L277.76,130.67L278.76,125.08L279.09,143.91L279.75,126.62L280.08,135.74L280.42,123.92L280.75,130.75L281.08,132.32L281.41,127.17L281.74,130.25L282.07,131.43L282.4,130.42L282.74,121.76L283.07,131.29L283.4,124.56L283.73,126.32L284.06,131.42L284.39,122.97L285.06,113.82L285.39,129.92L285.72,130.54L286.05,127.76L286.71,125.32L287.04,114.88L287.38,110.57L287.71,119.55L288.37,122.15L288.7,119.39L289.37,121.1L289.7,117.92L290.03,123.86L290.36,118.5L290.69,120.94L291.02,120.76L291.35,122.81L291.69,115.19L292.02,116.1L292.35,120.14L292.68,117.61L293.01,118.52L293.34,118.75L293.67,119.54L294.01,113.49L294.34,114.48L294.67,118.53L295.66,113.37L295.99,113.7L296.33,104.49L296.66,105.71L296.99,113.74L297.32,109.73L297.65,113.06L297.98,114.04L298.31,119.27L298.65,101.4L298.98,98.28L299.31,106.45L300.3,99.92L300.63,102.35L301.3,86.41L301.63,97.98L302.96,102.36L303.29,89.53L303.62,92.23L303.95,102.06L304.61,98.8L304.94,101.08L305.61,110.75L305.94,101.55L306.27,105.01L306.6,104.06L306.93,102.02L307.93,104.72L308.26,100.29L308.92,106.53L309.25,101.14L309.58,102.33L309.92,100.47L310.58,93.93L310.91,105.44L311.24,98.09L311.57,98.37L311.9,102.57L312.9,96.91L313.23,107.67L313.89,102.42L314.22,105.74L314.89,100.7L315.22,96.35L316.21,107.56L316.54,106.07L317.21,101.37L317.54,98.37L317.87,108.36L318.53,107.66L318.87,107.09L319.2,101.62L319.53,119.67L319.86,106.99L320.19,114.99L320.52,113.99L320.85,108.38L321.19,114.66L321.52,112.5L321.85,135.78L322.18,118.74L322.51,123.6L324.5,83.02L324.83,90.66L325.16,93L325.49,88.23L325.83,90.56L326.16,89.87L326.49,78.81L326.82,77.84L327.15,90.24L327.48,93.03L327.81,91.17L328.15,87.37L329.14,78.4L329.47,94.62L329.8,83.4L330.47,84.61L330.8,84.38L331.13,66.21L331.46,72.26L331.79,89.85L332.79,84.65L333.12,88.49L333.78,71.53L334.11,88.81L334.44,87.81L334.78,90.43L335.44,85.83L335.77,76.56L337.1,90.57L337.43,83.54L337.76,86L338.09,85.31L338.42,80.3L339.42,92.81L339.75,87.52L340.08,90.93L340.41,83.82L340.74,79.78L341.07,85.7L342.07,89.28L342.4,90.32L342.73,80.27L343.06,82.36L343.39,92.44L344.39,89.74L344.72,92.66L345.38,87.52L345.71,101.46L346.04,102.74L346.38,96.4L346.71,95.33L347.04,105.38L347.7,94.93L348.03,111.42L349.03,105.97L349.36,108.03L349.69,97.47L350.02,102.07L350.35,116.99L350.69,120.56L351.02,118.69L351.35,116.03L351.68,111.46L352.01,118.62L352.67,153.32L353.01,145.9L353.34,142.42L353.67,145.66L354,126.74L354.99,142.34L355.33,141.49L355.66,138.43L355.99,141.29L356.65,140.81L356.98,138.83L357.98,153.4L358.31,149.19L358.64,150.92L358.97,144.22L360.63,262.57L360.96,148.72L361.62,108.59L361.96,110.38L362.29,106.8L362.62,82.9L362.95,84.24L363.28,108.36L363.61,106.29L363.94,96.89L364.61,107.52L364.94,105.67L365.27,106.23L365.6,101.77L365.93,111.08L366.26,109.44L366.6,109.99L366.93,116.95L367.92,110.36L368.25,121.65L369.25,129.81L369.58,127.86L370.9,107.96L371.24,116.67L371.57,133.37L371.9,129.57L372.23,128.53L372.56,128.8L372.89,117.49L373.22,111.7L373.56,118.39L373.89,121.49L374.22,119.5L374.88,120.03L375.21,104.41L375.54,102.32L375.88,107.79L376.54,114.93L376.87,113.65L377.2,114.29L377.53,111.29L377.87,98.66L378.53,120.22L378.86,117.6L379.19,122.13L379.52,121.11L379.85,96.7L380.19,96.42L380.52,108.84L381.84,117.39L382.17,99.64L382.51,97.63L382.84,103.41L383.17,106.27L383.5,104.3L383.83,101.87L384.16,99.55L384.49,103.94L384.83,101.4L385.16,107.25L385.49,111.85L385.82,107.79L386.15,106.01L386.48,103.71L386.81,106.85L387.15,103.05L387.48,107.38L387.81,114.04L388.8,103.92L389.13,111.15L389.47,112.05L389.8,122.84L390.46,111.56L390.79,115.85L391.12,114.87L391.46,112.39L391.79,103.13L392.45,114.6L392.78,109.59L393.11,109.42L393.44,108.9L393.78,120.21L395.1,100.66L395.43,101.37L395.76,99.37L396.1,105.58L396.76,107.09L397.09,106.64L397.42,111.87L398.42,102.23L398.75,102.82L399.08,105.55L399.41,111.48L399.74,105.15L400.07,104.09L401.73,114.13L402.06,112.56L402.39,113.2L402.72,108.45L403.06,106.26L403.39,111.93L404.05,113.57L404.38,111.34L404.71,111.7L405.04,109.4L405.38,96.27L405.71,98.97L406.04,111.49L406.37,112.12L406.7,110.78L407.03,112.15L407.37,107.06L407.7,112.17L408.03,105.09L408.36,99.81L408.69,107.36L409.35,100.52L409.69,103.44L410.02,112.21L411.01,104.12L411.34,103L411.67,102.25L412.01,104.03L412.34,91.72L412.67,93.14L413,101.53L413.33,102.08L413.66,107.58L413.99,98.83L414.33,99.41L414.66,103.53L414.99,102.77L415.32,108.47L415.98,103.05L416.31,103.59L416.65,103.34L416.98,101.46L417.31,103.61L417.64,108.49L418.63,107.55L418.97,110.35L419.3,111.6L419.63,105.31L419.96,112.57L420.29,108.09L420.62,106.82L420.96,107.32L421.29,100.84L421.62,100.79L421.95,93L422.94,106.01L423.28,104.24L423.94,106.37L424.27,101.52L424.93,108.8L425.26,103.5L425.93,112.56L426.26,111.6L426.59,110.28L426.92,111.26L427.25,119.29L427.92,110.29L428.25,112.95L428.58,112.09L428.91,108.69L429.24,111.46L429.57,111.22L429.9,111.09L430.24,112.08L430.57,107.67L430.9,128L431.89,139.72L432.22,139.87L432.89,139.17L433.22,139.49L433.55,137.92L433.88,145.02L434.54,141.31L434.88,144.26L435.21,143.1L435.54,135.44L435.87,127.92L436.2,138.93L436.87,131.32L437.2,133.5L437.53,134.83L438.19,124.54L438.52,133L439.85,122.8L440.18,108.63L441.51,120.03L441.84,116.71L442.17,114.51L442.5,102.93L443.83,116.84L444.16,114.13L444.49,113.8L444.82,102.28L446.15,114.1L446.48,115.9L446.81,114.23L447.14,104.58L447.8,106.93L448.13,114.64L449.13,110.9L449.46,117.18L449.79,104.1L450.12,114.63L450.46,116.22L450.79,115.77L451.12,116.82L451.45,116.82L451.78,113.35L452.11,109.38L452.44,114.06L452.78,123.24L453.11,121.25L453.44,122.17L453.77,122.17L454.43,97.92L454.76,105.76L455.1,112.65L455.76,112.14L456.09,111.44L456.75,91.13L457.08,103.41L457.42,104.86L457.75,110.59L458.41,109.47L458.74,99.08L459.07,93.91L459.4,100.79L459.74,111.39L460.4,109.39L460.73,107.54L461.39,98.04L461.72,101.15L462.06,111.91L463.05,107.42L463.38,98.74L464.71,117.4L465.04,114.63L465.37,113.39L466.03,94.83L466.37,104.07L466.7,114.66L467.36,113.05L467.69,112.6L468.35,105.97L468.69,113.96L469.68,125.39L470.01,122.24L470.34,113.52L470.67,120.47L471.01,128.73L471.67,126.82L472,134.23" style="vector-effect: non-scaling-stroke; fill: none; stroke: rgb(99, 110, 250); stroke-opacity: 1; stroke-width: 2px; opacity: 1;"/></g><g class="points"/><g class="text"/></g><g class="trace scatter trace93d0c9" style="stroke-miterlimit: 2; opacity: 1;"><g class="fills"/><g class="errorbars"/><g class="lines"><path class="js-line" d="M0,98L1.33,93.88L1.66,99.62L1.99,101.28L2.32,112.02L3.65,99.59L3.98,110.16L4.31,101.38L4.64,111.59L4.97,113.51L6.3,99.61L6.63,98.01L6.96,108.12L7.29,104.88L7.62,104.6L8.29,102.87L8.62,98.13L8.95,95.53L9.28,110.21L10.28,104.69L10.61,104.79L10.94,97.19L11.27,95.83L11.6,105.13L12.6,99.27L12.93,102.4L13.26,89.73L13.59,89.87L13.92,100.46L14.25,98.57L14.58,107.67L15.91,90.33L16.24,101.12L17.57,96.32L17.9,88.15L18.23,87.24L18.56,98.29L18.89,100.71L19.22,99.95L19.56,98.07L20.55,89.89L20.88,98.51L22.87,85.95L23.2,95.53L23.53,87.88L24.2,89.09L24.53,89.6L25.19,83.55L25.52,114.11L27.18,101.99L27.51,98.87L27.84,105.44L28.17,99.79L28.51,100.88L28.84,100.95L29.17,98.17L29.83,93.63L30.16,98.87L30.49,95.96L31.16,96.45L31.49,96.47L32.15,92.03L32.48,97.11L33.48,92.92L33.81,93.07L34.8,106.96L35.13,102.59L36.13,99.61L36.46,92.7L36.79,93.94L37.12,98.18L38.12,93.84L38.45,93.97L39.11,91.59L39.44,93.27L39.78,92.55L40.11,93.43L40.44,93.99L40.77,92.53L41.1,87.51L41.76,95.03L42.1,92.89L42.43,92.98L42.76,95.12L43.09,93.6L43.42,89.15L43.75,90.6L44.08,98.36L46.07,86.52L46.4,89.51L48.39,83.55L48.72,86.37L49.06,85.59L50.05,86.61L50.71,80.39L51.04,83.56L51.38,83.27L52.04,83.98L52.37,82.41L53.03,77.27L53.37,81.48L54.69,77.59L55.02,76.76L55.35,75.09L55.69,77.38L56.02,74.22L56.35,74.86L56.68,75.77L57.01,75.16L57.34,76.08L57.67,73.17L58.01,76.84L58.34,74.49L58.67,73.04L59.33,75.75L59.66,72.15L59.99,72.94L60.33,76.53L60.99,72.92L61.32,73.99L61.65,73.9L61.98,71.27L62.31,72.36L62.65,75.94L62.98,73.87L63.64,74.39L63.97,74.21L64.63,70.26L64.97,72.87L65.3,71.43L65.96,71.83L66.29,71.3L66.62,70.83L66.96,71.55L67.29,75.64L67.62,73.07L67.95,74.57L68.28,74.88L68.61,75.41L68.94,69.96L69.61,74.03L69.94,72.05L70.6,74.05L70.93,73.43L71.26,71.54L71.93,75.5L72.26,73.69L72.59,73.64L72.92,74.17L73.25,76.6L73.58,69.55L73.92,71.43L74.25,75.82L74.58,69.89L74.91,72.83L75.24,73L75.57,71.96L75.9,67.52L76.57,75.25L76.9,70.12L77.23,70.86L77.56,69.54L77.89,69.49L78.22,78.22L78.89,85.9L79.22,82.96L80.21,81.37L80.54,79.68L80.88,79.76L81.21,87.78L81.87,82.85L82.2,85.26L82.53,84.92L83.53,93.26L83.86,88.91L84.52,86.7L84.85,87.21L85.19,88.85L85.52,84.08L85.85,91.37L86.84,85.08L87.17,85.1L87.51,80.01L87.84,81.37L88.17,88.63L89.16,84.16L89.49,83.88L90.16,80.7L90.49,85.7L90.82,84.26L91.15,88.96L92.15,81.57L92.48,83.22L92.81,91.06L93.14,87.16L93.47,86.6L93.8,84.88L94.13,88.27L94.47,82.42L94.8,85.11L95.13,91.78L96.12,88.3L96.46,88.37L96.79,87.68L97.12,89.41L97.45,94.97L97.78,90.76L98.11,90.5L99.44,85.26L99.77,94.18L100.1,87.73L100.43,88.46L100.76,91.51L101.76,95.41L102.09,104.55L103.75,88.36L104.08,87.92L104.41,99.24L104.74,92.47L105.07,93.87L105.4,95.13L105.74,91.78L106.07,87.35L106.4,91.84L106.73,103.25L107.06,95.87L107.72,96.73L108.06,94.71L108.39,93.03L108.72,100.13L109.05,113.37L109.38,103.35L109.71,106.08L110.38,114.81L110.71,123.85L111.37,162.16L111.7,128.02L112.37,133.2L112.7,128.61L113.03,130.01L113.36,155.29L113.69,168.44L114.02,135.88L114.35,133.49L114.69,139.9L115.35,136.1L115.68,159.17L116.01,166.71L116.34,140.77L116.67,140.57L117.01,151.1L117.67,176.13L118,222.57L118.33,304L118.66,214.95L118.99,136.62L119.99,90.42L120.32,91.43L120.65,77.72L120.98,88.62L121.31,91.82L121.65,93.86L121.98,93.52L122.31,92.14L122.64,92.09L122.97,101.4L123.63,95.36L123.97,95.85L124.3,95.76L124.96,93.47L125.29,101.55L125.62,99.78L125.96,104.59L126.95,94.56L127.28,94.94L127.61,102.72L128.28,97.87L128.61,99.64L129.6,94.21L129.93,101.77L130.6,97.7L130.93,97.81L131.26,96.4L131.59,96.7L131.92,95.01L132.25,101.49L132.58,98.64L132.92,98.09L133.25,97.81L133.58,98.61L133.91,97.86L134.24,94.13L134.57,100.68L134.9,96.66L135.24,98.03L135.57,107.09L135.9,98.94L136.23,99.82L136.56,96.37L136.89,100.53L137.22,98.84L137.56,98.9L137.89,97.62L138.22,98.06L138.55,92.02L138.88,93.47L139.21,98.71L139.54,97.11L139.88,98.16L140.21,100.03L141.2,96.91L141.53,100.42L143.19,92.99L143.52,93.19L143.85,98.8L144.85,94.98L145.18,94.53L146.17,107.59L146.51,105.05L147.83,97.22L148.16,97.87L148.49,103.46L149.82,95.36L150.15,96.34L150.48,96.85L150.81,102.43L152.14,94.45L152.47,93.27L152.8,92.69L153.13,95.41L154.13,90.62L154.46,90.43L155.46,96.77L155.79,93.28L156.12,93.24L156.45,91.68L156.78,90.17L157.11,95.8L157.44,84.45L157.78,89.44L158.11,88.82L158.77,89.62L159.1,88.77L159.43,84.38L159.76,84.98L160.1,86.99L160.43,86.03L160.76,86.86L161.09,87.99L161.75,81.12L162.08,81.18L162.42,84.6L162.75,84.42L163.08,82.25L163.41,84.85L163.74,82.05L164.07,79.75L164.4,80.64L164.74,90.09L165.4,83.56L165.73,84.39L166.06,84.38L166.39,81.58L166.72,82.07L167.06,85.44L168.05,82.98L168.38,83.46L168.71,97.44L169.04,89.53L169.38,93.62L170.7,82.94L171.03,90.25L171.37,85.59L172.03,86.74L172.36,85.42L173.02,84.13L173.35,85.79L173.69,83.08L174.02,88.04L174.68,83.8L175.01,84.27L175.34,85.05L175.67,82.33L176.01,84.38L176.34,89.84L176.67,92.33L177,142.35L177.99,104.12L178.33,103.52L178.66,102.79L178.99,97.64L179.65,95.13L179.98,96.1L180.31,125.15L180.98,120.85L181.31,114.46L182.97,100.85L183.3,104.59L185.29,100.6L185.62,101.34L187.61,96.39L187.94,100.88L188.93,99.07L189.26,99.14L189.6,98.45L189.93,99.56L190.26,102.06L190.59,99.65L190.92,97.51L191.58,99.49L191.92,91.3L192.25,91.13L192.58,94L193.24,91.67L193.57,93.32L194.9,101.31L195.23,97.59L195.56,96.8L195.89,97.49L196.22,100.87L196.56,106.15L196.89,99.55L197.22,100.52L197.55,97.56L198.54,95L198.88,89.85L199.54,99.68L199.87,95.82L200.2,95.4L200.53,95.35L200.87,96.57L201.2,97.98L201.53,95.34L201.86,99.44L202.19,97.76L202.52,97.54L203.52,99.36L203.85,108.51L204.18,109.25L204.51,100.16L205.17,98.71L205.51,99.39L205.84,106.28L206.17,100.54L206.5,105.12L206.83,103.36L207.16,103.25L207.49,102.06L208.49,97.38L208.82,102.06L209.48,98.54L209.81,99.16L210.15,99.36L210.48,93.39L210.81,94.62L211.14,102.7L211.47,99.34L212.13,100.12L212.47,98.69L213.46,111.16L213.79,105.46L215.12,98.5L215.45,99.63L215.78,103.39L216.11,100.86L216.44,102.28L216.78,107.27L217.11,105.35L217.44,109.13L217.77,108.58L218.1,112.93L218.43,107.66L219.1,108L219.43,107.24L219.76,105.76L220.09,106.48L220.42,112.5L221.08,108.18L221.42,109.32L221.75,110.05L222.74,115.42L223.07,113.72L223.74,111.54L224.07,114.42L224.4,112.53L224.73,114.43L225.06,119.69L226.06,112.76L226.39,115.28L226.72,112.85L227.05,118.03L227.38,126.68L227.71,117.68L228.04,117.37L229.7,142.63L230.03,131.82L230.37,133.19L230.7,129.64L231.03,131.52L231.36,141.84L232.02,183.03L232.35,153.2L232.69,152.83L233.02,157.41L233.35,154.75L233.68,161.56L234.34,184.1L234.67,158.37L235.01,154.05L235.34,156.61L235.67,162.57L236,157.82L236.33,182.33L236.66,190.19L236.99,162.63L237.66,168.22L237.99,174.45L238.98,228.24L239.31,295.77L240.64,116.42L240.97,113.1L241.3,113.11L241.63,100.59L241.97,108.67L242.63,107.89L242.96,107.31L243.62,114.71L243.96,112.09L244.29,111.29L244.95,112L245.28,116.81L245.61,114.45L245.94,117.71L246.94,112.76L247.27,112.59L248.26,118.81L248.6,114.6L248.93,114.33L249.26,116.24L249.92,116.16L250.25,118.61L250.58,119.35L251.25,119.03L251.58,121.97L251.91,124.5L252.24,122.18L252.57,123.09L252.9,124.69L253.24,121.39L253.57,120.34L253.9,120.48L254.23,121.03L254.56,117.22L254.89,118.9L255.22,120.45L256.22,117.75L256.55,123.65L256.88,116.46L257.21,117.15L257.54,118.83L258.54,115.26L258.87,115.96L259.2,119.16L259.53,115.83L259.87,117.45L261.19,114.26L261.52,114.6L261.85,113.09L262.19,115.89L262.85,117.82L263.18,116.56L263.51,118.45L263.84,112.79L264.51,118.3L264.84,115.97L265.17,116.52L265.5,115.54L265.83,116.34L266.16,116.15L266.49,117.36L266.83,122.5L267.82,117.92L268.15,116.89L268.48,114.04L268.81,115.9L269.15,118.73L269.81,118.2L270.14,117.02L270.47,117.41L270.8,152.8L271.13,152.41L271.47,155.14L272.46,153.66L272.79,152.95L273.46,152.82L273.79,156.08L274.12,155.09L275.78,141.18L276.11,148.97L277.43,138.1L277.76,138.68L278.1,133.2L278.43,136.87L278.76,139.98L279.09,144.63L279.42,142.91L279.75,141.82L280.42,133.34L280.75,138.05L281.08,138.3L281.41,133.25L282.07,136.5L282.4,133.83L282.74,132.39L283.07,136.53L283.4,136.74L283.73,134.52L285.06,127.71L285.39,133.24L285.72,133.64L286.05,132.24L286.38,131.86L286.71,129.9L287.04,132.73L287.38,124.73L287.71,132.25L288.04,131.37L288.37,128.03L288.7,126.6L289.37,126.94L289.7,127.25L290.69,134.13L291.02,131.09L291.35,131.13L291.69,127.22L292.02,126.09L292.35,129.93L294.01,123.93L294.34,124.55L294.67,128.77L295.66,124.22L295.99,124.8L296.33,124.4L296.66,121.52L296.99,126.34L297.32,122.72L297.65,122.9L297.98,121.78L298.31,123.03L298.65,115.45L299.31,125.86L299.64,120.18L300.97,113.24L301.3,113.17L301.63,119.06L301.96,117.39L302.29,115.59L303.29,112.17L303.62,113.74L303.95,119.98L304.28,116.41L304.61,118.13L304.94,115.55L305.28,116.88L305.61,123.87L305.94,122.48L306.27,125.59L307.6,119.27L307.93,119.93L308.26,120.57L308.59,125.72L309.58,119.91L309.92,119.72L310.25,118.09L310.58,121.38L310.91,125.67L311.24,121L311.57,121.65L312.24,121.91L312.57,119.7L312.9,120.76L313.23,124.19L313.56,118.67L314.56,119.86L314.89,117.91L315.22,118.44L315.55,122.48L315.88,119.3L316.21,122.72L316.54,120.43L317.21,124.26L317.54,122.05L317.87,127.25L318.2,124.07L318.53,125.17L319.2,124.26L319.53,130.02L319.86,124.09L320.52,124.49L320.85,123.69L321.19,121.98L321.52,122.45L321.85,142.69L322.18,131.12L322.84,132.37L323.17,130.86L323.84,129.33L324.17,111.4L324.5,112.02L324.83,116.71L325.83,113.87L326.16,114.82L326.49,115.66L326.82,114.08L327.15,119.5L327.48,117.46L327.81,117.85L329.14,116.35L329.47,122.13L330.47,118.02L330.8,118.32L331.13,119.46L331.79,128.11L332.12,123.59L332.46,122.66L332.79,124.09L333.45,120.66L333.78,121.5L334.11,125.31L335.44,118.35L335.77,119.34L336.43,126.61L336.76,122.5L337.1,122.4L337.43,123.36L337.76,122.37L338.09,122.52L338.42,123.59L338.75,130.77L339.08,127.48L339.42,126.24L339.75,127.86L340.08,127.29L340.41,127.33L340.74,127.12L341.07,132.78L342.07,129.43L342.4,128.72L343.39,142.61L343.72,138.06L344.06,136.68L344.39,136.59L344.72,138.85L345.05,140.97L345.38,139.99L345.71,147.22L346.38,141.76L346.71,142.51L347.04,146.58L347.37,145.67L347.7,145.96L348.03,154.07L349.03,146.42L349.36,146.92L350.02,153.06L350.35,162.52L351.35,153.22L351.68,155.76L352.01,156.1L352.34,172.17L352.67,199.27L353.01,178.03L353.34,175.43L353.67,174.81L354,171.33L354.33,173.88L354.66,189.81L354.99,196.21L355.33,170.5L356.65,176.9L356.98,191.92L357.31,200.11L357.65,180.28L358.31,183.66L358.64,187.96L359.97,223.73L360.3,295.37L361.62,151.05L361.96,146.14L362.29,141.35L362.62,122.56L363.28,140.98L363.61,139.91L363.94,138.63L364.28,143.46L364.94,142.23L365.27,140.46L365.6,139.95L365.93,146.04L366.26,145.09L366.6,151.33L366.93,152.15L367.26,146.79L367.59,146.6L367.92,147.41L368.25,154.2L368.58,148.22L368.92,152.16L370.57,142.84L370.9,143.61L371.57,154.91L371.9,154.79L372.23,152.63L372.56,152.52L372.89,148.74L373.22,147.17L373.56,157.65L374.55,151.1L374.88,148.6L375.54,142.81L375.88,152.08L377.2,145.18L377.53,150.16L377.87,150.79L378.2,158.35L378.86,150.38L379.19,151.07L379.52,149.77L379.85,140.44L380.19,143.11L380.52,149.26L380.85,145.92L381.18,147.12L381.51,147.53L382.17,143.74L382.51,144.48L382.84,151.37L383.83,143.55L384.16,142.93L384.83,136.25L385.16,144.6L385.49,143.18L385.82,143.84L386.15,144.26L386.81,144.17L387.15,143L387.48,147.21L387.81,143.33L388.14,143.41L388.47,139.93L388.8,141L389.13,145.06L389.8,149.49L390.13,145.58L391.46,132.54L391.79,132.99L392.12,139.35L393.44,135.21L393.78,144.02L395.43,137.54L395.76,135.79L397.09,143.24L397.42,141.86L398.42,139.03L398.75,138.36L399.08,145.19L399.41,140.98L399.74,139.44L400.07,136.25L400.4,137.4L400.74,138.94L401.4,142.15L401.73,140.72L402.06,141.12L402.39,141.54L402.72,138.97L403.39,135.99L403.72,138.71L405.04,136.43L405.38,140.9L405.71,135.2L406.04,142.29L406.37,137.41L407.03,136.81L407.37,137.75L408.03,135.28L408.36,142.74L409.35,135.59L409.69,135.24L410.02,139.29L410.68,139.13L411.01,137.52L412.67,129.51L413,133.27L413.99,131.47L414.33,133.34L415.32,138.13L415.65,136.16L415.98,135.76L416.31,132.93L416.65,134.3L416.98,134.14L417.31,132.86L417.64,138.08L417.97,134.62L418.3,136.28L418.63,136.15L418.97,135.04L419.96,142.48L420.29,139.38L420.62,141.37L420.96,135.74L421.95,132.1L422.28,137.46L423.28,131.22L423.61,132.49L423.94,132.74L424.27,131.29L424.6,135.63L425.93,130.14L426.26,133.96L426.59,133.46L426.92,134.72L427.92,131.12L428.25,132.44L428.58,131.5L428.91,133.04L429.24,136.47L429.57,132.7L429.9,132.38L430.24,132.27L430.57,131.28L431.56,149.66L431.89,141.99L432.56,138.55L432.89,139.7L433.22,140.32L433.55,138.64L433.88,145.29L434.88,140.26L435.21,139.8L435.87,135.62L436.2,139.36L436.53,139.73L436.87,139.4L437.2,138.59L437.86,139.02L438.19,138.07L438.52,141.56L438.85,140.04L439.19,139.42L439.85,140.55L440.18,137.78L440.84,146.34L441.17,143.46L441.51,138.99L442.17,139.05L442.5,135.87L442.83,136.87L443.16,141.63L445.15,133.56L445.48,140.46L445.81,138.19L446.48,138.6L446.81,138.39L447.47,140.28L447.8,145.96L448.47,141.97L448.8,144.77L449.13,144.61L449.46,142.13L449.79,139.15L450.12,145.43L450.79,143.04L451.12,146.9L451.45,146.33L451.78,146.63L452.11,146.88L452.78,155.92L453.11,149.66L453.44,150.22L453.77,147.5L454.43,138.13L454.76,142.94L455.43,139.73L455.76,139.93L456.09,141.55L456.75,138.75L457.08,148.05L457.42,143.43L457.75,144.31L458.08,152.21L458.74,156.4L459.07,151.68L459.4,155.39L459.74,148.03L460.07,145.39L460.4,149.52L461.39,143.33L461.72,149.95L462.72,142.45L463.05,142.32L463.38,139.3L463.71,143.01L464.04,149.35L464.71,145.52L465.04,146.35L465.37,146.46L465.7,142.61L466.03,145.19L466.37,150.25L467.03,147.02L467.36,149.47L468.35,155.1L468.69,162.43L469.02,156.82L469.35,161.56L469.68,161.54L470.01,161.83L470.34,158.72L471.01,167.35L471.34,158.54L472,161.49" style="vector-effect: non-scaling-stroke; fill: none; stroke: rgb(239, 85, 59); stroke-opacity: 1; stroke-width: 2px; opacity: 1;"/></g><g class="points"/><g class="text"/></g><g class="trace scatter trace2ed490" style="stroke-miterlimit: 2; opacity: 1;"><g class="fills"/><g class="errorbars"/><g class="lines"><path class="js-line" d="M0,120.48L0.66,118.2L0.99,119L1.66,112.32L1.99,118.59L2.32,123.3L2.65,119.9L2.98,118.88L3.31,118.96L3.65,121.43L3.98,120.31L4.31,120.66L4.64,125.34L4.97,129.05L5.3,126.06L5.63,127.28L6.3,122.61L6.63,124.05L6.96,125.29L7.29,131.16L7.62,126.7L7.96,128.75L8.29,128.55L8.62,120.24L9.94,125.66L10.28,126.95L10.61,128.63L10.94,123.13L11.27,122.95L11.6,125.47L12.26,126.52L12.6,125.86L12.93,126.68L13.26,121.23L13.59,120.8L13.92,119.02L14.58,121.54L14.92,117.34L15.25,117.39L15.58,114.87L16.57,120.28L16.9,118.67L17.57,119.45L17.9,117.66L18.89,131.02L19.22,125.82L19.56,125.95L19.89,124.84L20.22,122.22L20.55,123.65L20.88,128.66L21.21,129.25L21.54,124.46L22.21,120.98L22.54,122.33L22.87,122.98L23.2,123.75L23.53,127.44L24.86,116.76L25.19,121.08L26.19,138.22L26.52,134.53L26.85,135.94L27.18,131.51L27.84,137.41L28.17,131.4L28.51,127.54L28.84,132.16L29.17,129.57L29.5,124.51L29.83,132.44L30.83,121.89L31.16,120.24L31.49,121.43L31.82,119.34L32.15,121.7L32.48,118.64L33.15,123.58L33.48,122.69L33.81,124.92L34.47,128.58L34.8,124.41L35.13,125.12L35.47,123.78L35.8,123.01L36.13,126.03L36.46,118.35L37.12,120.42L37.46,120.12L37.79,119.57L38.12,117.17L38.45,119.28L38.78,114.16L39.78,117.96L40.11,115.75L40.77,116.66L41.1,114.05L42.1,118.26L42.43,118.17L42.76,115.22L43.09,115.26L43.42,113.89L44.75,116.13L45.08,114.53L45.41,119.3L45.74,117.15L46.07,117.11L47.07,116.37L47.4,116.49L48.39,121.11L48.72,119.13L49.06,116.64L50.05,120.49L50.71,119.37L51.71,115.57L52.04,115.05L52.37,117.08L52.7,107.33L53.7,116.34L54.03,114.32L54.69,114.6L55.02,118.77L55.35,121.16L55.69,119.14L56.02,119.61L56.35,119.73L56.68,118.73L57.34,115.32L57.67,121.52L58.01,121.49L58.34,117.35L59.99,108.75L60.33,115.6L61.32,112.56L61.65,113.39L61.98,111.04L62.31,115.87L62.98,111.1L63.31,113.02L64.3,108.49L64.63,111.25L64.97,112.76L65.3,109.17L65.63,108.73L65.96,106.6L66.29,111.02L66.62,93.02L67.95,108.32L68.28,108.14L68.61,112.46L68.94,107.16L69.28,110.45L69.94,111.71L70.27,111.45L70.6,111.17L70.93,112.54L71.26,109.12L71.6,109.99L71.93,108.75L72.26,109.81L72.59,108.31L73.58,105.19L73.92,107.93L74.25,107.2L74.58,110L75.24,107.54L75.57,109.06L75.9,106.66L76.24,110.86L76.57,107.67L76.9,111.65L77.23,108.85L78.22,106.33L78.56,107.59L79.22,111.1L79.55,110.27L79.88,106.83L80.21,107.97L80.54,107.07L80.88,111.12L82.2,109.77L82.53,110.55L82.87,110.42L83.2,113.41L83.53,114.89L83.86,112.89L84.19,112.12L84.52,109.3L84.85,111.84L85.19,109.97L85.52,110.17L86.18,110.92L86.51,109.83L87.17,110.11L87.51,108.79L87.84,108.06L88.5,109.73L88.83,106.68L89.83,110.06L90.16,110.89L90.49,110.53L90.82,112.29L91.48,110.08L91.81,112.82L92.81,111.18L93.14,115.3L93.8,112.82L94.13,114.79L94.47,117.33L94.8,114.36L95.13,114.99L95.79,112.8L96.12,113.06L96.46,114.3L96.79,111.1L97.12,115.07L97.45,116.04L98.11,113.6L98.44,115L98.78,117.95L99.11,117.53L99.44,111.58L99.77,112.09L100.1,115.62L101.1,116.66L101.43,124.5L101.76,126.08L102.09,124.42L102.42,125.23L103.75,116.51L104.08,116.12L104.41,116.12L104.74,118.74L105.4,114.96L105.74,116.4L106.4,112.86L106.73,113.91L107.06,113.69L107.39,111.5L107.72,113.61L108.06,114.25L108.39,111.44L108.72,112.45L109.05,117.26L110.38,109.46L110.71,117.59L111.37,116.78L111.7,120.09L113.03,112L113.36,118.95L114.02,119.86L114.35,117.42L115.35,115.11L115.68,122.89L116.01,122.33L116.34,124.18L116.67,123.56L117.01,124.4L117.34,127.51L118,144.49L118.33,165.83L118.66,158.1L118.99,125.86L119.66,121.14L119.99,121.47L120.32,122.09L120.65,108.94L120.98,119.13L121.31,125.59L121.98,128.26L122.31,126.03L123.3,129.32L123.63,128.61L124.3,131.89L124.63,130.57L124.96,130.43L125.29,132.34L125.62,130.11L125.96,136.67L126.95,131.04L127.28,131.6L127.61,131.95L127.94,134.9L128.61,134.16L128.94,133.31L129.27,129.08L129.6,130.5L129.93,131.48L130.26,131.58L130.6,128.79L131.26,129.13L131.59,128.11L131.92,130.67L132.25,130.93L132.58,137.71L132.92,133.41L133.58,133.76L133.91,131.25L134.24,130.65L134.57,133.01L134.9,133.21L135.24,130.45L135.57,136.84L135.9,131.34L136.23,125.78L137.89,133.49L138.22,131.78L138.55,131.14L138.88,133.5L139.88,136.34L140.21,134.54L140.54,136.56L140.87,131.38L141.53,136.47L141.87,141.31L142.53,134.75L142.86,138.27L143.19,134.97L143.52,136.61L143.85,139.66L144.85,136.59L145.18,139.1L145.51,133.32L145.84,134.94L146.17,136.47L146.51,139.34L146.84,137.08L147.17,135.83L147.5,136L147.83,131.37L148.16,136.39L148.83,135.35L149.16,134.18L149.49,135.38L149.82,133.37L150.15,132.02L150.48,132.64L150.81,141.54L151.81,125.43L152.14,126.73L152.47,126.55L153.47,131.86L153.8,130.1L154.46,132.93L154.79,128.46L155.12,127.44L155.46,129.12L155.79,129.67L156.12,125.95L156.45,127.98L156.78,127.3L157.11,126.27L157.44,115.08L158.11,117.59L158.44,119.04L159.1,122.26L159.43,120.21L159.76,120.46L160.1,122.65L160.43,121.89L160.76,118.6L161.09,118.38L161.42,120.36L161.75,118.74L162.08,119.17L162.42,120.48L162.75,121.27L163.08,119.52L163.74,118.72L164.07,112.96L164.74,120.19L165.07,116.05L165.4,118.72L165.73,118.63L166.06,120.79L166.39,111.81L166.72,115.13L167.06,114.87L167.39,115.04L167.72,114.09L168.05,113.84L168.38,117.28L169.04,122.43L169.38,121.75L169.71,121.27L170.04,121.1L170.37,122.39L171.03,121.4L171.37,122.72L171.7,122.99L172.03,120.93L172.36,120.47L172.69,121.93L173.35,122.22L173.69,120.96L174.02,122.93L174.35,122.27L174.68,123.68L175.34,125.6L175.67,118.37L176.01,121.79L176.34,119.45L176.67,115.76L177,126.28L177.66,123.64L177.99,123.44L178.99,125.43L179.32,125.04L179.98,123.1L180.31,130.68L180.98,138.1L181.31,132.67L182.3,129.58L182.63,123.09L183.3,126.84L183.63,123.97L184.62,120.93L184.96,121.93L185.29,122.96L185.62,122.48L185.95,120.23L186.94,122.86L187.28,120.28L187.94,123.56L188.27,119.07L189.26,122.07L189.6,121.35L190.26,125.1L190.59,121.52L190.92,121.97L191.25,120.5L191.58,120.66L191.92,115.9L192.58,123.34L192.91,117.75L193.24,117.61L193.57,116.52L194.9,120.49L195.23,117.95L195.56,118.13L195.89,117.42L196.89,116.38L197.22,117.14L198.21,113.43L198.54,113.88L198.88,102.56L199.54,108.66L199.87,104.83L201.86,117.71L202.19,113.68L202.52,112.32L202.85,114.75L203.19,114.6L203.52,113.32L204.18,116.62L204.51,112.39L204.84,111.63L205.17,113.62L205.84,118.33L206.17,122.37L206.5,121.52L206.83,116.31L207.49,116.86L207.83,117.55L208.16,117.35L208.49,118.26L209.15,118.62L209.48,117.4L210.15,118.67L210.48,117.37L211.14,122.43L211.47,120.3L211.8,118.77L212.13,121.85L212.47,123.1L212.8,120.59L213.13,127.39L213.46,125.85L213.79,124.55L214.46,127.24L214.79,126.17L215.12,121.61L215.45,126.35L215.78,122.76L216.11,121.89L216.44,121.94L216.78,123.68L217.11,122.74L217.44,124.28L217.77,127.12L218.43,126.8L218.76,128.64L219.1,128.79L219.43,127.79L219.76,126.21L220.09,130.12L220.42,130.9L220.75,129.85L221.08,127.78L222.08,124.33L222.41,125.76L223.07,120.69L223.4,121.08L223.74,121.43L224.07,122.16L224.4,121.01L224.73,124.61L225.06,122.11L225.39,122.92L226.06,121.35L226.39,122.66L226.72,122.72L227.05,126.75L227.38,125.09L227.71,125.99L228.04,125.84L228.38,128.18L228.71,127.57L229.04,126.28L229.7,132.41L230.03,130.51L230.37,131.02L230.7,130.9L231.03,129.73L231.36,129.07L231.69,141.07L232.69,136.46L233.02,135.81L233.35,133.52L233.68,134.36L234.01,138.06L234.34,137.17L234.67,132.98L235.34,135.72L235.67,134.5L236,132.85L236.66,137.59L236.99,133.09L238.32,136.72L238.65,142.51L238.98,147.52L239.31,165.1L239.65,164.98L239.98,134.26L241.63,120.88L241.97,127.12L242.3,127.02L242.63,125.58L242.96,125.48L243.29,128.09L243.62,128.29L243.96,125.18L245.61,131.41L245.94,130.21L246.28,129.15L246.61,130.67L247.93,133.14L248.26,131.63L248.6,131.49L248.93,130.54L250.25,136.75L250.58,136.1L250.92,134.79L251.25,136.28L251.58,136.99L251.91,137.73L252.24,136.14L252.57,138.71L252.9,136.6L253.24,137.32L253.57,136.79L253.9,139.91L254.23,141.13L254.56,137.5L254.89,137.4L255.22,138.73L255.56,138.78L255.89,139.76L256.22,140.46L256.55,145.05L256.88,139.19L257.54,140.03L257.88,139.43L258.21,140.25L258.54,138.17L258.87,138.15L259.2,141.8L259.53,144.32L259.87,141.91L260.2,140.35L260.53,141.93L260.86,141.46L261.19,139.75L261.52,136.87L261.85,136.97L262.19,138.32L262.52,137.08L262.85,138.33L263.18,138.92L263.84,136.67L264.17,139.85L264.51,136.86L264.84,139.89L265.17,142.76L266.16,138.52L266.49,139.05L266.83,137.91L267.82,137.43L268.15,135.17L268.48,134.54L268.81,136.44L269.15,137.07L269.48,135.79L270.47,135.76L270.8,158.26L271.8,163.73L272.13,159.01L273.12,148.36L273.46,145.79L274.12,140.67L274.45,142.86L275.11,139.94L275.44,131.49L276.44,136.56L276.77,137.37L277.1,137.63L277.43,139.9L277.76,140.6L278.1,140.42L278.43,137.93L279.09,134.73L279.42,136.28L279.75,138.67L281.08,134.25L281.41,134.67L281.74,135.31L282.07,139.85L282.4,133.25L283.07,134.12L283.4,135.36L283.73,136.18L284.06,141.71L284.72,134L285.06,135.39L285.39,135.72L285.72,135.54L286.05,133.9L287.04,137.99L287.38,135.16L288.04,132.37L288.37,135.43L288.7,135.72L289.03,135.31L289.37,137.36L289.7,138.01L290.03,136.51L290.69,135.38L291.02,135.95L291.35,136.76L291.69,134.58L292.35,135.67L292.68,134.09L293.01,136.37L293.34,134.79L293.67,133.83L294.01,132.25L294.34,134.02L294.67,132.94L295,132.73L295.33,134.47L296.66,133.66L296.99,136.08L297.32,133.67L297.65,133.9L297.98,136.12L298.31,135.87L298.65,128.34L300.3,127.3L300.63,126.5L301.63,128.63L301.96,128.06L303.29,125.55L303.62,125.6L303.95,125.7L304.28,123.68L304.61,124.88L304.94,124.33L305.28,124.21L305.61,132.32L306.27,130.58L306.6,126.78L308.26,132.95L308.59,132.2L308.92,132.52L309.25,131.71L309.58,134.51L309.92,133.21L310.25,130.51L310.91,133.17L311.24,132.04L311.57,132.24L311.9,135.42L312.24,135.56L312.57,133.89L312.9,134.71L313.23,133.99L313.56,131.92L314.22,133.7L314.56,136.43L314.89,134.68L315.22,135L315.55,135.73L315.88,132.31L316.21,134.95L316.54,134.08L317.21,133.54L317.54,134.69L318.2,136.31L318.53,135.77L318.87,135.53L319.2,135.48L319.53,144.24L319.86,146.8L320.19,143.68L320.52,141.87L320.85,144.12L321.19,141.5L321.52,142L321.85,143.57L322.18,141.35L322.84,139.99L323.17,141.4L323.84,140.86L324.17,134.93L325.16,135.49L325.49,135.69L326.16,134.75L326.49,135.8L327.15,135.21L327.48,138.13L328.48,136.7L328.81,137.63L329.14,138.78L329.47,138.31L329.8,136.02L330.13,134.15L330.47,136.03L330.8,137.53L331.13,137.66L331.46,135.61L332.12,139.85L332.46,136.66L333.12,137.74L333.45,134.66L333.78,133.75L334.11,133.92L334.44,136.09L335.11,139.83L335.44,135.43L336.76,142.77L337.1,141.45L337.76,141.62L338.09,143.38L338.42,142.66L338.75,143.12L339.08,143.35L339.42,141.72L339.75,144.36L341.4,141.43L341.74,139.74L342.73,144.95L343.06,144.59L343.39,144.43L343.72,142.1L344.39,142.12L344.72,144.06L345.05,142.74L345.38,143.71L345.71,145.38L346.04,144.09L346.38,144.97L346.71,144.54L347.7,150.87L348.03,150.51L348.37,150.25L348.7,147.94L349.36,148.55L349.69,151.49L351.02,154.08L351.35,150.27L353.34,158.05L353.67,157.19L354.99,155.31L355.33,156.57L356.32,158.23L356.65,157.34L357.31,160.9L357.65,160.42L357.98,159.23L359.3,164.29L359.63,167.32L359.97,165.51L360.3,178.49L360.63,178.12L360.96,158.58L361.96,153.27L362.29,153.72L362.62,148.97L362.95,151.65L363.28,153.78L364.61,153.97L364.94,155.23L365.93,152.66L366.26,155.51L366.6,157.07L366.93,156.48L367.26,155.11L367.92,155.69L368.25,154.37L368.58,154.54L368.92,156.52L369.25,157.6L369.58,157.13L369.91,155.6L370.57,153.88L370.9,154.7L371.24,156.03L372.23,162.07L372.56,159.43L372.89,157.13L373.22,157.95L373.56,158.32L373.89,158.56L374.22,157.42L374.88,155.26L375.21,153.13L375.54,153.57L375.88,152.77L376.87,155.45L377.2,153.81L377.53,157.76L377.87,157.73L378.2,156.58L379.19,154.11L379.52,154.49L379.85,148.24L380.52,148.75L380.85,147.83L381.18,148.56L381.51,151.25L382.51,150.77L382.84,150.9L383.17,150.23L383.5,150.4L383.83,151.23L384.16,151.58L384.49,150.52L385.16,151.34L385.49,149.85L385.82,147.87L386.15,148.29L386.48,149.04L386.81,149.5L387.15,151.79L387.48,151.45L387.81,150.02L388.14,150.21L388.47,149L389.47,154.67L389.8,154.14L390.13,151.63L390.79,152.39L391.12,151.94L391.46,147.09L391.79,151.32L392.12,149.86L392.45,149.65L392.78,151.57L393.11,157.95L393.44,155.1L393.78,156.02L394.11,155.26L394.44,155.63L394.77,151.85L395.43,156.08L395.76,153.68L396.1,152.94L396.43,154.6L397.09,153.44L397.42,154.67L397.75,155.32L398.08,152.56L398.75,158.47L399.08,157.4L399.41,153.94L400.4,155.66L400.74,155.95L401.4,155.83L401.73,154.71L402.06,158.05L402.39,152.35L402.72,150.48L403.06,150.73L403.39,152.05L404.05,150.43L404.38,151.8L404.71,148.72L405.04,149.02L405.38,150.48L405.71,153.85L406.04,153.51L406.37,149.52L406.7,148.77L407.03,149.08L407.37,154.49L407.7,152.54L408.03,155.07L408.36,153.5L409.02,146.96L409.35,153.54L409.69,153.64L410.02,151.89L410.35,160.71L410.68,157.5L411.01,148.44L411.34,149.8L411.67,149.43L412.01,148.7L412.34,147.55L412.67,149.02L413,148.81L413.33,142.51L413.66,143.75L413.99,147.1L414.99,152.89L415.32,152.8L415.65,154L415.98,151.52L416.31,160.46L416.65,161.54L416.98,157.33L417.31,157.66L417.64,154.34L417.97,156.29L418.3,153.11L419.3,154.03L419.63,163.43L420.62,151.33L420.96,152.35L421.29,153.11L421.62,146.55L422.28,148.13L422.61,145.13L424.27,149.98L424.6,148.43L425.26,143.07L425.6,145.62L425.93,147.15L426.92,153.4L427.25,150.86L427.58,151.45L427.92,150.77L428.25,152.93L428.58,155.31L428.91,154.42L429.24,154.43L430.24,153.37L430.57,147.92L431.56,169.51L431.89,167.01L432.22,166.16L432.56,166.99L432.89,162.26L433.88,168.42L434.21,166.97L435.54,165L435.87,166.52L436.2,167.97L436.53,167.11L436.87,165.49L437.2,163.57L437.86,164.02L438.19,164.2L438.52,165.47L438.85,162.25L439.52,163.38L439.85,162.17L440.18,159.62L440.51,162.01L440.84,161.57L442.17,160.32L442.5,154.12L443.16,158.85L443.49,157.16L443.83,158.01L444.82,156.65L445.15,157.67L446.48,156.25L446.81,157.61L447.14,155.83L447.47,158L447.8,159.15L448.13,158.22L448.47,158.75L448.8,160.4L449.13,160.09L449.46,160.52L449.79,161.2L450.12,162.46L450.46,161.02L450.79,158.7L451.12,158.88L451.45,161.05L452.44,171.92L452.78,169.28L453.11,169.97L453.44,165.64L454.76,156.39L455.1,159.5L455.43,157.82L455.76,159.19L456.09,160.89L456.75,162.24L457.08,161.53L457.42,156.64L457.75,155.37L458.08,157.57L458.74,156.2L459.07,158.06L459.4,159.79L459.74,153.56L460.73,155.72L461.06,154.7L461.72,157.28L462.06,148.65L462.39,148.01L462.72,148.71L463.05,153.1L463.71,150.87L464.04,152.49L464.38,153.15L464.71,151.51L465.04,151.01L465.37,152.84L466.03,154.09L466.37,155.19L467.03,152.2L467.36,152.39L467.69,145.1L468.35,157.53L468.69,156.4L469.02,153.35L469.35,152.07L469.68,153.39L470.01,153.94L470.34,152.7L470.67,156.3L471.01,156.48L471.34,152.72L471.67,151.54L472,152.99" style="vector-effect: non-scaling-stroke; fill: none; stroke: rgb(0, 204, 150); stroke-opacity: 1; stroke-width: 2px; opacity: 1;"/></g><g class="points"/><g class="text"/></g><g class="trace scatter trace0e8f5a" style="stroke-miterlimit: 2; opacity: 1;"><g class="fills"/><g class="errorbars"/><g class="lines"><path class="js-line" d="M0,74.58L0.99,81.11L1.33,79.93L1.99,75.07L2.32,78.5L2.65,81.11L2.98,79.59L3.31,80.1L4.31,72L4.64,72.93L4.97,74.62L6.3,73.29L6.63,70.78L6.96,71.32L7.29,73.83L8.95,66.7L9.28,66.63L9.61,72.08L9.94,71.33L10.28,69.87L11.27,66.35L11.6,66.56L11.93,69.38L12.26,69.92L12.6,69.12L12.93,69.56L13.59,63.87L13.92,64.24L14.25,72.25L14.58,75.14L14.92,71.38L15.91,66.7L16.24,69.21L16.9,74.72L17.24,73.17L17.57,72.05L18.56,65.18L18.89,71.74L19.89,68.43L20.22,66.36L20.55,65.02L20.88,66.73L21.21,72.3L22.87,62.12L23.2,64.48L23.87,67.42L24.2,64.17L24.53,64.89L24.86,60.51L25.19,62.03L25.52,75.52L26.19,84.04L26.52,81.3L26.85,78.94L27.51,69.68L27.84,72.27L28.17,74.95L28.51,75.62L28.84,74.57L30.16,65.96L30.49,73.38L30.83,73.18L31.16,74.21L32.15,66.74L32.48,67.68L32.81,71.54L33.15,73.16L33.48,70.44L33.81,67.93L34.14,73.06L34.8,71.61L35.13,75.2L36.13,74.2L36.46,70.48L36.79,68.16L37.12,69.58L37.46,73.11L37.79,72.74L38.12,71.1L38.45,70.97L38.78,66.82L39.11,65.1L39.44,66.82L39.78,67.5L40.44,71.19L40.77,68.69L41.1,69.36L41.43,65.57L41.76,66.56L42.1,70.75L43.75,65.63L44.08,69.17L44.42,71.06L44.75,69.27L45.08,68.91L45.74,65.75L46.07,64.21L47.07,72.96L47.4,72.27L47.73,69.13L48.06,70.46L48.39,68.58L49.06,70.28L50.05,69.06L50.71,64.72L51.04,65.05L51.38,72.11L52.7,67.94L53.03,64.38L53.37,65.39L53.7,69.29L54.03,66.61L54.69,67.25L55.02,64.92L55.35,62.39L55.69,64.19L56.02,67.55L57.01,64.86L57.34,59.93L57.67,59.94L58.01,61.49L58.34,65L58.67,62.95L59,63.84L59.33,63.17L59.66,59.9L59.99,58.67L60.33,61.07L61.32,62.74L61.65,61.9L61.98,64.17L62.65,64.05L62.98,65.07L63.31,68.93L63.64,65.37L63.97,62.57L64.97,59.18L65.3,63.83L65.63,65.1L65.96,64.12L66.29,60.85L66.62,65.55L67.29,64.88L67.62,66.57L68.61,67.99L68.94,62.5L69.61,58.02L69.94,63.72L70.27,63.17L70.6,61.11L70.93,61.51L71.26,63.82L71.93,61.86L72.26,66.55L72.92,65.74L73.25,66.29L74.25,60.11L74.58,63.48L76.57,56.42L76.9,59.85L77.23,60.27L77.56,57.83L77.89,57.82L78.22,64.54L78.89,63.36L79.22,66.81L80.54,62.98L80.88,60.79L81.21,59.99L81.54,64.47L82.53,66.24L82.87,63.36L83.2,61.95L83.53,63.01L83.86,67.07L85.85,60.33L86.18,61.17L86.84,62.51L87.17,62.06L87.51,60.01L87.84,58.47L88.17,61.02L89.16,64.91L89.49,63.84L89.83,63.56L90.16,61.39L90.49,62.28L90.82,71.2L91.15,71.47L91.48,68.81L92.15,66.47L92.48,63.37L93.14,71.18L93.47,69.87L93.8,69.13L94.13,70.71L94.47,65.97L94.8,64.01L95.13,65.75L95.46,70.66L96.12,73.47L96.46,71.01L97.12,64.06L97.45,66.55L97.78,69.79L98.44,68.97L98.78,67.89L99.44,62.51L99.77,63.87L100.1,69.82L100.43,77.36L100.76,71.63L101.1,70.06L101.43,75.16L101.76,72.42L102.09,72.82L102.75,77.25L103.08,74.66L103.42,77.44L103.75,72.15L104.08,68.69L104.41,68.82L104.74,75.28L106.4,68.57L106.73,71.96L107.06,73.68L107.39,72.51L107.72,72.78L108.06,75.36L108.39,74.31L108.72,73.7L109.05,80.33L109.38,80.16L109.71,77.63L110.04,78.13L110.38,76.72L111.37,86.74L111.7,83.94L112.03,82.98L112.37,84.59L113.03,83.21L113.36,86.27L114.02,90.71L114.35,87.74L115.02,86.22L115.35,80.16L116.01,87.28L116.34,85.92L116.67,84.4L118,92.03L118.33,110.77L118.66,135.21L118.99,85.65L119.99,59.27L120.32,58.13L120.65,58.66L120.98,62.47L121.31,62.91L121.65,65.91L121.98,66.34L122.31,65.35L122.64,61.69L122.97,62.91L123.3,70.39L124.3,68.12L124.63,68.38L124.96,63.17L125.29,65.46L125.62,73.81L125.96,76.01L126.29,71.34L126.95,66.49L127.28,63.98L127.61,63.97L127.94,69.67L128.94,67.21L129.27,67.91L129.6,63.53L129.93,62.69L130.26,68.47L130.6,69.35L130.93,68.46L131.26,68.58L131.59,66.99L131.92,61.17L132.25,62.38L132.58,67.16L132.92,68.29L133.25,66.66L134.57,60.48L134.9,66.02L135.24,65.51L135.57,70.52L136.56,58.63L136.89,59.79L137.22,66.31L138.22,64.67L138.55,57.44L138.88,55.24L139.21,59L139.54,64.31L139.88,63L140.21,61.98L140.54,63.17L140.87,61.69L141.2,58.3L142.53,65.67L142.86,64.94L143.52,57.36L143.85,59.07L144.19,63.73L145.51,59.86L145.84,55.42L147.17,63.85L147.5,61.65L148.16,55.02L148.49,57.23L148.83,58.43L149.82,56.75L150.15,57.62L150.48,56.01L150.81,60.18L151.48,63.15L151.81,62.38L152.14,63.94L152.8,58.73L153.13,61.28L153.47,65.04L153.8,63.46L154.13,66.98L155.12,59.42L155.46,62.54L156.12,67.77L156.45,66.77L156.78,67.99L157.11,65.7L157.44,55.31L158.11,64.82L158.44,62.28L158.77,62.81L159.1,62.43L159.43,55.34L159.76,52.1L160.1,53.48L160.43,57.81L160.76,55.66L161.09,58.97L161.42,58.99L161.75,57.13L162.08,52.4L162.42,54.39L162.75,61.62L163.41,59.68L163.74,62.82L164.4,52.41L164.74,55.96L165.73,62.68L166.06,61.4L166.72,54.44L167.06,56.12L167.39,60.99L168.38,58.69L168.71,63.02L169.38,59.92L169.71,62.49L171.03,57.47L171.37,54.07L172.36,61.98L172.69,60.15L173.02,59.52L173.35,55.68L173.69,53.65L174.02,57.15L174.35,61.61L175.01,61.24L175.34,60.64L176.01,52.28L176.34,55.59L176.67,66.03L177,89.88L177.33,80.96L177.66,76.37L178.33,66.58L178.66,67.65L178.99,71.11L179.32,69.54L179.65,69.62L179.98,70.43L180.31,90.56L180.65,85.57L180.98,84.26L181.31,85.66L181.64,81.81L181.97,82L182.3,78.56L182.97,75.77L183.3,76.03L183.63,81.26L184.29,82.13L184.62,81.93L184.96,79.09L185.29,76.85L185.62,77.18L185.95,82.35L187.28,70.99L187.61,69.31L188.27,74.24L188.93,74.05L189.26,74.43L189.93,71.11L190.26,72.58L190.59,75.78L192.58,68.66L192.91,73.52L194.24,67.5L194.57,64L195.56,68.41L195.89,65.59L196.56,71.86L196.89,65.32L198.21,70.03L198.54,67.21L199.21,55.69L199.54,60.4L199.87,59.23L200.2,63.14L200.87,61.38L201.2,63.01L201.53,60.67L201.86,61.23L202.19,64.81L202.85,66.32L203.19,64.85L204.18,65.1L204.51,69.52L205.51,65.76L205.84,69.94L206.17,65.89L206.5,68.43L206.83,69.72L208.49,62.73L208.82,63.21L209.81,67.5L210.15,67.29L210.81,59.92L211.14,62.41L211.47,63.78L212.8,67.26L213.13,64.27L213.46,63.82L213.79,68.02L214.79,65.8L215.12,62.24L215.45,59.5L215.78,62.72L216.11,66.54L217.44,72.14L217.77,68.64L218.1,69.47L218.43,73.4L218.76,74.19L219.1,71.12L220.09,64.88L220.42,67.47L221.42,72.81L221.75,68.14L222.08,70.92L222.41,67.93L222.74,67.46L223.74,76.71L224.07,76.01L224.73,67.45L225.06,70.31L225.39,76.86L225.72,78.31L226.06,75.81L226.39,76.94L226.72,72.86L227.05,69.46L227.38,72.61L227.71,77.81L228.04,77.77L228.38,81.3L228.71,81.11L229.04,83.46L229.37,84.36L229.7,83.68L230.03,87.97L231.36,79.14L231.69,84.3L232.02,88.99L232.35,86.14L232.69,85.28L233.02,84.97L233.35,81.22L233.68,78.68L234.01,83.33L234.34,87.61L234.67,82.7L235.01,82.61L235.34,81.24L235.67,81.48L236,76.21L236.66,84.52L236.99,82.94L237.33,81.91L237.66,80.03L237.99,82.17L238.32,84.88L238.98,93.78L239.31,123.38L239.65,144.36L239.98,88.49L240.97,67.82L241.3,67.66L241.63,65.14L241.97,66.48L242.3,70.09L242.63,70.62L242.96,70.19L243.29,66.2L243.62,67.49L243.96,72.18L244.29,70.78L244.62,72L244.95,73.3L245.28,73.91L245.61,67.38L246.28,75.77L246.61,74.91L246.94,74.31L247.27,75.31L247.6,72.88L247.93,69.3L248.26,72.26L248.6,77.2L248.93,77.95L249.26,81.64L249.92,75.87L250.25,72.46L251.91,83.34L252.24,79.91L252.57,75.32L252.9,76.19L253.24,80.72L253.57,80.34L253.9,81.21L254.23,81.56L254.56,81.07L254.89,75.43L255.22,77.01L255.56,84.51L255.89,85.19L256.22,83.85L256.55,86.82L256.88,79.96L257.21,73.81L257.54,75.06L257.88,80.97L258.54,81L258.87,79.52L259.2,80.91L259.53,75.99L259.87,76.49L260.2,81.32L260.53,81.68L260.86,79.18L261.52,75.4L261.85,68.94L262.19,70.51L262.52,75.99L262.85,78.92L263.51,78.51L263.84,73.86L264.17,69.14L264.51,72.45L264.84,78.17L265.5,78.35L265.83,76.88L266.83,69.49L267.16,75.21L267.82,76.29L268.15,75.98L268.48,75.52L268.81,68.34L269.15,72.25L269.48,76.39L270.47,74.16L270.8,93.19L271.47,94.31L271.8,97.92L273.12,87.08L273.46,81.86L274.12,90.07L274.45,89.47L274.78,87.96L275.78,75.71L276.11,77.84L276.44,81.02L276.77,80.46L277.1,77.45L278.1,74.86L278.43,75.89L278.76,81.06L279.09,84.1L279.42,83.36L279.75,80.3L280.42,72.68L280.75,75.11L281.08,78.1L281.74,75.78L282.07,77.05L282.74,69.84L283.07,70.25L283.4,74.48L283.73,74.82L284.06,73.54L284.39,74.13L284.72,68.08L285.06,64.31L285.39,68.2L285.72,73.65L286.05,74.67L286.38,73.48L286.71,72.23L287.38,61.8L287.71,66.63L288.04,71.85L288.37,71.88L288.7,73.15L289.03,72.53L289.37,74.44L289.7,70.31L290.03,72.68L290.36,78.51L291.02,79.41L291.35,76.85L292.02,64.79L292.35,66.8L292.68,74.39L293.01,74.47L293.34,71.96L293.67,70.86L294.01,64.75L294.34,63.25L294.67,65.79L295.33,70.99L295.66,70.93L295.99,70.88L296.66,61.23L296.99,64.61L297.32,68.68L297.98,68.56L298.31,65.75L298.98,56.95L299.31,60.6L299.64,64.6L300.3,63.69L300.63,62.26L301.3,55.84L301.63,60.05L301.96,61.96L302.29,59.93L302.62,59.04L303.62,50.41L303.95,56.62L304.94,61.53L305.28,62.13L305.61,62.36L305.94,57.24L306.27,58.47L306.6,63.82L308.26,54.76L308.59,59.21L308.92,62.28L309.25,60.56L309.58,61.39L309.92,60.35L310.25,52.94L310.58,52.34L310.91,55.56L311.24,59.11L311.9,58.2L312.24,57.41L312.9,54.02L313.23,54.76L313.56,58.64L313.89,60.44L314.22,58.78L314.56,57.95L315.22,52.55L315.55,56.26L315.88,58.81L316.54,58.62L316.88,56.41L317.21,57.28L317.54,54.84L318.87,63.06L319.2,79.97L319.53,80.19L319.86,71.21L320.19,68L320.52,150L320.85,157.55L321.19,140.78L321.52,73.35L321.85,80.23L322.18,105.58L322.51,122.14L322.84,120.77L323.17,99.18L324.5,48.19L324.83,52.48L325.16,59.83L325.49,57.05L325.83,53.26L326.16,53.12L326.49,49.29L326.82,49.95L327.15,54.05L327.48,57.02L327.81,53.47L328.15,53.9L328.48,53.72L328.81,49.41L329.14,49.65L329.47,52.85L330.47,54.06L330.8,52.39L331.13,45.71L331.46,50.92L331.79,71.64L333.45,53.53L333.78,53.26L335.11,57.69L335.44,57.39L336.1,51.68L336.43,56.21L336.76,59.7L337.1,55.93L337.43,55.21L337.76,58.13L338.09,55.44L338.42,48.57L339.08,57.59L339.42,56.74L339.75,55.56L340.41,57.43L340.74,50.82L341.07,52.24L341.4,58.11L341.74,58.36L342.07,55.6L342.4,59.92L342.73,54.77L343.06,52.43L344.06,58.65L344.39,58.46L344.72,59.82L345.38,50.52L345.71,52.71L346.04,58.54L347.37,63.7L347.7,59.98L348.37,66.23L348.7,63.57L349.03,61.75L349.69,56.93L350.02,58.46L350.35,63.54L351.68,68.66L352.01,68.49L352.34,68.05L352.67,76.96L354.33,69.05L354.66,70.91L355.33,73.68L355.66,70.59L356.32,72.69L356.65,71.57L356.98,71.47L357.31,74.08L357.65,75.77L358.31,75.47L358.64,74.74L358.97,74.37L359.3,77.46L359.97,84.05L360.3,103.81L360.63,129.6L360.96,73.99L361.62,58.87L361.96,58.96L362.29,59.79L362.62,56.14L362.95,63.83L363.94,57.9L364.28,59.21L364.61,60.75L364.94,61.25L365.27,58.74L365.6,60.25L365.93,66.26L366.6,62.22L366.93,64.24L367.26,64.22L367.59,62.53L367.92,61.69L368.25,64.93L368.58,61.76L368.92,64.91L369.25,67.26L370.57,63.79L370.9,58.38L371.57,74.45L371.9,71.95L372.23,69.87L372.56,69.32L372.89,62.27L373.22,58.55L373.56,62.82L373.89,65.04L374.55,66.35L374.88,66.16L375.21,61.1L375.54,58.46L375.88,61.34L376.21,65.4L376.87,63.28L377.2,64.38L377.53,64.99L377.87,62.18L378.86,66.35L379.19,65.67L379.52,64.87L380.19,54.3L380.52,57.23L380.85,62.75L382.17,58.8L382.51,52.46L383.83,56.18L384.16,54.69L384.49,53.74L384.83,48.52L385.49,54.81L385.82,53.6L386.15,53.32L386.81,51.56L387.15,49.91L387.81,58.57L388.47,57.61L388.8,57.11L389.8,66.25L390.13,65.66L390.46,61.84L391.12,59.01L391.46,50.87L391.79,48.82L392.12,51.57L393.11,55.91L393.44,53.86L394.44,58.76L394.77,59.76L395.76,59.23L396.1,59.17L396.43,57.8L396.76,59.28L397.09,61.57L398.42,57.57L398.75,53.76L399.74,55.87L400.07,55.57L400.4,56.05L400.74,53.19L401.07,53.17L401.4,55.93L401.73,56.73L402.06,55.3L403.06,54.6L403.39,52.4L403.72,56.63L404.38,55.75L404.71,54.54L405.71,55.25L406.04,63.6L407.37,59.23L407.7,63.21L408.03,62.46L408.36,64.03L408.69,63.37L409.02,59.22L409.35,58.49L409.69,51.1L410.68,56.87L411.01,56.12L411.34,54.87L411.67,56.38L412.01,56.21L412.67,43.89L413,50.09L413.66,50.57L413.99,46.9L414.33,48.7L414.66,49.23L414.99,48.79L415.32,52.36L415.65,49.73L415.98,54.7L416.65,50.29L416.98,47.02L417.64,51.15L417.97,50.71L418.3,49.39L418.97,52.15L419.3,48.54L419.96,55.53L420.29,53.82L420.62,53.45L421.95,50.04L422.28,52.83L422.94,53.43L423.28,52.5L423.61,52.13L423.94,50.07L424.6,54.26L424.93,54.02L425.26,52.47L425.6,54.67L425.93,52.82L426.26,53.37L426.59,50.33L426.92,54.12L427.25,54.63L428.58,51.27L428.91,49.92L429.24,54.37L429.57,52.56L429.9,51.84L430.24,53.62L430.57,48.28L430.9,70.08L431.56,64.49L431.89,61.88L432.89,56.4L433.22,58.31L433.55,58.26L434.21,62.76L434.54,61.89L434.88,61.95L435.87,57.19L436.2,59.49L436.53,60.68L436.87,60.08L437.2,57.24L438.19,54.65L438.52,57.43L438.85,58.21L439.19,56.67L439.85,56.12L440.18,48.45L440.84,55.42L441.17,53.08L441.51,53.47L442.17,53.6L442.5,48.93L443.49,52.43L443.83,51.63L444.16,52.33L444.49,51.88L444.82,46.17L446.15,51.38L446.48,50.47L446.81,49.78L447.14,44.83L447.47,45.47L447.8,48.57L448.13,49.21L448.47,51.58L448.8,55.26L449.13,51.69L449.46,50.03L450.12,53.51L450.46,55.12L450.79,51.62L451.45,52L451.78,50.11L452.11,50.76L452.44,54L453.11,56.47L453.44,55.9L453.77,55.29L454.43,52.83L454.76,54.57L455.1,55.08L455.43,53.83L456.09,56.13L456.42,55.23L456.75,54.11L457.75,58.56L458.08,57.74L459.07,53.9L459.4,56.94L460.07,56.64L460.4,60.18L460.73,55.5L461.06,50.18L461.39,52.44L461.72,56.97L462.39,57.73L462.72,57.21L463.05,55.46L463.38,59.12L463.71,60.52L464.04,58.33L464.71,62.01L465.04,61.63L465.37,59.72L466.03,52.76L466.37,57.16L467.69,61.03L468.02,55.88L469.35,64.03L469.68,62.52L470.01,61.81L470.67,57.68L471.01,62.06L472,63.77" style="vector-effect: non-scaling-stroke; fill: none; stroke: rgb(171, 99, 250); stroke-opacity: 1; stroke-width: 2px; opacity: 1;"/></g><g class="points"/><g class="text"/></g><g class="trace scatter trace8ca5ca" style="stroke-miterlimit: 2; opacity: 1;"><g class="fills"/><g class="errorbars"/><g class="lines"><path class="js-line" d="M0,34.75L0.66,43.28L0.99,42.52L1.33,41.93L2.32,35.68L2.65,39.9L2.98,41.94L3.31,40.74L3.65,40.31L4.64,34.48L4.97,37.47L5.3,38.01L5.63,37.66L5.97,36.47L6.3,36.4L6.63,32.46L8.29,38.55L8.62,37.18L8.95,33.21L9.28,34.39L9.61,40.07L9.94,40.23L10.28,38L11.6,33.1L11.93,39.6L13.92,31.98L14.25,39.11L14.58,40.11L14.92,37L15.58,37.58L15.91,32.55L16.24,33.65L16.57,38.75L16.9,39.98L17.24,44.49L17.9,36.51L18.23,31.39L18.89,39.94L19.56,39.29L19.89,38.8L20.22,39.51L20.55,36.16L20.88,36.42L21.21,43.16L21.88,41.48L22.21,43.25L23.2,31.88L23.53,40.84L23.87,40.92L24.2,38.78L24.53,38.17L24.86,33.37L25.19,29.56L25.52,30.67L25.85,39.04L26.19,40.02L26.52,37.81L26.85,37.6L27.18,35.84L27.84,30.68L28.17,36.67L28.51,37.11L28.84,36.23L29.5,33.78L29.83,29.79L30.16,29.73L30.49,39.95L31.49,38.69L31.82,34.11L32.15,31.05L32.48,31.74L32.81,38.8L33.15,38.65L33.48,36.95L34.47,30.57L34.8,31.27L35.47,39.81L35.8,39.35L36.13,37.74L37.12,30.45L37.46,39.26L37.79,40.01L38.12,38.33L38.78,33.73L39.11,31.63L39.78,35.51L40.11,39L41.43,31.38L41.76,31.15L42.43,37.91L42.76,34.82L43.42,38.18L43.75,33.51L44.08,32.51L44.42,41.4L44.75,41.38L45.08,39.67L45.41,41.05L45.74,35.8L46.07,34L46.4,34.86L46.74,43.9L47.07,44.05L47.4,41.89L48.06,36.98L48.39,34.3L48.72,34.2L49.06,42.89L50.71,31.2L51.04,31.62L51.38,40.13L51.71,40.6L52.04,38.65L52.7,34.58L53.03,29.18L53.37,29.92L53.7,37.63L54.03,39.2L54.36,35.2L55.35,27.69L55.69,27.85L56.02,32.93L56.35,33.45L56.68,32.3L57.34,30.13L57.67,23.94L58.01,25.5L58.34,31.33L58.67,33.22L59,32.53L59.33,30.23L60.33,23.3L60.66,29.63L60.99,31.6L61.32,30.45L61.65,29.89L62.31,22.22L62.65,22.33L62.98,29.48L63.31,29.75L63.64,29.18L63.97,26.81L64.3,25.84L64.63,22.05L64.97,21.76L65.3,29.3L65.96,28.93L66.29,27.43L67.29,24.42L67.62,32.55L67.95,32.72L68.28,31.24L68.94,26.56L69.28,22.46L69.61,22.28L69.94,30.18L70.27,31.33L70.6,29.96L70.93,29.04L71.93,24.18L72.26,32.54L72.59,33.35L72.92,30.99L73.25,33.49L73.58,29.91L74.25,24L74.58,29.74L74.91,30.98L75.24,30.76L75.57,29.54L76.57,22.31L76.9,26.86L77.23,29.32L77.56,28.54L77.89,28.34L78.89,19.48L79.22,26.43L79.55,28.37L79.88,27.13L80.21,25.73L80.88,21.52L81.21,22.03L81.54,29.6L81.87,31.44L82.2,28.74L83.53,23.68L83.86,32.71L84.85,30.84L85.19,34.65L85.52,33.25L85.85,33.48L86.18,42.66L87.17,27.6L87.51,27.69L87.84,23.41L88.17,23.47L88.5,30.87L89.16,30.59L89.49,30.11L89.83,32.36L90.16,29.94L90.49,30.46L91.15,38.44L91.48,36.71L91.81,36.56L92.81,30.85L93.14,37.44L93.47,38.18L93.8,36.53L94.13,36.94L94.47,34.78L94.8,29.61L95.13,30.16L95.46,35.1L95.79,37.43L96.12,36.17L96.46,34.87L96.79,34.87L97.12,31.35L97.45,32.32L97.78,37.91L98.11,38.11L98.44,36.36L98.78,36.27L99.11,34.16L99.44,28.72L99.77,30.59L100.1,36.35L100.43,36.42L100.76,34.62L101.1,36L101.43,34.89L101.76,32.89L102.75,41.79L103.08,40.38L103.42,40.19L104.08,31.86L104.41,32.08L104.74,36.77L105.07,37.38L105.4,35.9L105.74,39.69L106.07,36.62L106.4,32.58L106.73,32.92L107.06,39.93L107.39,41.48L107.72,39.85L108.06,39.4L108.72,31.82L109.05,32.7L109.38,39.43L109.71,39.92L110.04,38.49L110.38,39.25L110.71,36.19L111.04,32.3L111.37,33.81L111.7,40.83L113.36,30.42L113.69,31.24L114.35,38.72L114.69,37.13L115.02,36.38L115.68,30.59L116.01,32.48L116.34,39.2L118,29.06L118.33,38.16L118.66,63.43L118.99,33.73L119.33,34.19L120.98,20.36L121.31,32.78L122.31,31.75L122.64,26.11L122.97,27.45L123.3,34.02L123.63,34.99L123.97,33.91L124.3,34.07L124.63,33.65L124.96,28.84L125.29,30.75L125.62,39.38L125.96,41.6L126.29,39.09L126.62,36.59L127.28,28.53L127.61,29.04L127.94,36.34L128.28,38.63L128.61,37.43L128.94,35.19L129.27,35.3L129.6,28.97L129.93,29.22L130.26,36.17L130.6,37.89L130.93,35.73L131.26,35.48L131.92,28.22L132.25,28.59L132.58,35.93L132.92,36.29L133.25,35.9L133.58,34.32L134.57,25.32L134.9,29.74L135.24,29.53L135.57,33.2L135.9,34.07L136.23,29.6L136.56,26.26L136.89,26.62L137.22,36.19L137.89,35.23L138.22,33.54L138.88,27.33L139.21,28.74L139.54,33.98L139.88,33.97L140.21,31.82L140.54,32.32L140.87,31.7L141.2,26.77L141.53,25.65L141.87,37.25L142.53,33.98L142.86,30.13L143.52,23.49L143.85,24.79L144.19,31.6L144.52,32L144.85,30.48L145.18,29.24L145.51,25L146.17,18.02L146.51,29.51L146.84,32.67L147.17,31.74L147.5,29.34L148.16,20.72L148.49,21.58L148.83,30.09L149.16,30.18L149.49,29.17L150.48,22.96L150.81,23.82L151.81,33.19L152.14,32.01L152.8,20.69L153.13,22.08L153.47,31.81L155.46,24.44L155.79,34.32L156.45,33.82L156.78,31.26L157.44,21.7L157.78,23.28L158.11,32.39L158.44,33.41L158.77,31.68L159.1,30.98L159.43,24.42L159.76,21.22L160.1,23.15L160.43,28.43L160.76,26.95L161.09,32.39L161.75,31.11L162.08,26.48L162.42,26.51L162.75,35.74L163.08,34.25L163.41,34.92L163.74,35.02L164.4,23.22L164.74,26.8L165.07,33.35L165.73,34.99L166.06,32.76L166.39,33.09L166.72,28.02L167.06,28.64L167.39,34.81L168.05,36.12L168.38,34.48L168.71,39.41L169.04,33.21L169.38,34.57L169.71,39.11L170.04,37.89L170.37,37.75L171.37,33.12L171.7,33.22L172.03,39.07L172.69,38.08L173.02,39.57L173.69,29.82L174.02,32.24L174.35,38.87L174.68,40.94L175.01,39.86L175.34,35.61L176.34,27.68L176.67,38.13L177,49.16L177.33,46.42L177.66,43.52L178.33,36.29L178.66,39.15L178.99,46.93L179.32,44.63L179.65,43.62L179.98,42.77L180.31,50.84L180.98,42.53L181.31,49.61L181.97,49.65L182.3,48.05L182.97,40.07L183.3,41.72L183.63,50.5L184.62,51.72L184.96,49.38L185.29,44.31L185.62,44.57L185.95,51.58L187.61,38.21L187.94,40.33L188.93,47.35L189.26,46.75L189.6,45.64L189.93,40.8L190.26,39.54L190.59,48.85L191.92,43.58L192.25,39.52L192.91,47.69L193.57,47.45L193.9,46.09L194.57,36.8L194.9,37.98L195.23,43.1L195.56,45.24L195.89,42.03L196.22,44.31L196.56,43.43L196.89,38.71L197.22,39.24L197.55,44.34L198.21,45.54L198.54,43.67L199.21,31.17L199.54,32.53L199.87,40.16L200.2,40.43L200.53,39.22L200.87,39.63L201.2,36.17L201.53,32.83L201.86,34.25L202.19,41.96L203.52,36.77L203.85,32.16L204.84,41.67L205.17,40.62L205.51,41.97L206.17,35.93L206.5,40.69L207.16,49.62L207.49,42.81L208.16,37.85L208.49,33.98L208.82,36.14L209.15,44.16L209.81,44.87L210.15,43.53L210.81,33.25L211.14,34.59L211.47,42.59L211.8,43.62L212.13,42.87L212.47,42.41L212.8,42.94L213.13,36.04L213.46,36.63L213.79,43.38L214.46,44.48L214.79,42.14L215.45,32.41L215.78,33.82L216.11,41.86L216.78,45.2L217.11,43.58L217.44,41.28L217.77,34.15L218.1,34.71L218.43,45.57L218.76,46.16L219.1,45.04L219.43,43.19L219.76,36.83L220.09,32.2L220.42,33.68L220.75,44.3L221.08,45.25L221.42,42.11L222.41,32.05L222.74,35.05L223.4,45.22L223.74,44.84L224.07,43.89L224.73,33.27L225.06,35.79L225.39,47.32L226.72,39.23L227.05,35.3L227.38,37.07L227.71,45.99L228.04,45.87L228.38,47.17L229.04,41.22L229.37,34.71L229.7,35.78L230.03,48.76L231.03,43.7L231.36,38.26L231.69,33.99L232.02,34.05L232.35,42.52L232.69,42.59L233.02,39.99L233.68,34.45L234.01,31.17L234.34,29.33L234.67,37.4L235.01,37.45L235.34,35.92L235.67,36.1L236,30.41L236.66,24.59L236.99,34.48L238.65,27.15L238.98,27.74L239.31,45.19L239.65,66.27L239.98,39.4L240.31,39.21L240.64,37L241.97,30.19L242.3,40.71L242.63,41.63L242.96,40.84L243.29,35L243.62,34L243.96,42.52L244.29,41.76L244.62,41.94L244.95,43.05L245.94,33.43L246.28,44.05L246.61,44.61L246.94,42.36L247.27,44.06L247.6,43.48L247.93,37.46L248.26,37.34L248.6,47.01L249.92,40.72L250.25,37.15L250.58,36.14L250.92,45.6L251.91,49.25L252.24,45.1L252.9,40.52L253.24,48.86L254.56,48.39L254.89,43.71L255.22,45.04L255.56,54.49L256.22,52.74L256.55,53.94L257.21,45.71L257.54,46.71L257.88,53.11L258.54,55.61L258.87,53.48L259.53,43.09L259.87,44.96L260.2,53.79L260.53,54.25L260.86,52.65L261.85,39.56L262.19,39.66L262.52,44.52L263.51,52.01L263.84,47.78L264.17,42.85L264.51,44.8L264.84,54.92L265.17,53.84L265.5,55.44L266.16,47.14L266.49,41.56L266.83,44.42L267.16,53.85L267.82,54.17L268.15,52.8L268.81,39.96L269.15,43.06L269.48,52.95L269.81,53.53L270.14,52.31L270.47,50.95L270.8,65.29L271.47,56.77L271.8,68.2L272.79,59.78L273.12,54.83L273.46,48.19L273.79,50.76L274.12,59.96L274.45,60.16L274.78,58.35L275.44,52.37L275.78,42.92L276.44,56.28L276.77,55.21L277.1,53.67L278.1,47.22L278.43,48.71L279.09,58.07L279.42,56.04L279.75,53.49L280.42,42.94L280.75,45.21L281.08,52.61L281.74,44.58L282.07,50.41L282.74,37.47L283.07,43.42L283.4,52.63L283.73,52.53L284.06,51.03L284.72,42.57L285.06,37.48L285.39,39.78L285.72,48.7L286.71,46.62L287.04,38.63L287.38,34.08L287.71,39.6L288.04,46.82L289.03,47.18L289.37,43.72L289.7,39.86L290.03,44.13L290.36,52.91L290.69,54.59L291.02,52.64L291.35,52.41L292.02,38.47L292.35,42.1L292.68,52.58L293.01,53.22L293.34,50.91L294.34,39.69L294.67,43.17L295,53.72L295.66,51.31L295.99,49.79L296.66,38.81L296.99,44.7L297.32,50.82L297.65,48.54L297.98,48.3L298.98,37.12L299.31,40.18L299.64,48.23L300.3,50.65L300.63,47.93L301.3,37.49L301.63,39.31L301.96,46.86L302.29,47.71L302.62,45.83L302.96,45.46L303.29,41.66L303.62,36.46L303.95,41.18L304.28,45.45L305.28,44.11L305.61,42.06L305.94,36.86L306.27,40.51L306.6,47.91L307.6,44.66L307.93,37.75L308.26,32.49L308.59,35.85L308.92,43.23L309.92,44.85L310.25,37.42L310.58,30.98L310.91,32.91L311.24,39.95L311.9,40.4L312.24,37.46L312.9,29.02L313.23,31.52L313.56,40.23L313.89,38.03L314.22,41.45L314.56,36.49L314.89,47.73L315.22,53.51L315.55,52.03L315.88,43.21L317.54,26.9L317.87,28.64L318.53,39.92L318.87,36.33L319.86,22.58L320.19,26.01L320.52,34.7L320.85,33.98L321.19,37.38L321.52,35.91L321.85,30.37L322.18,25.86L322.51,29.04L322.84,35.79L323.17,34.03L323.51,34.55L323.84,36.06L324.5,22.3L324.83,25.24L325.16,36.2L326.82,22.95L327.15,23.99L328.15,45.96L328.48,37.01L329.14,19.82L329.47,24.04L329.8,31.74L330.8,28.11L331.13,24.86L331.46,19.1L331.79,25.89L332.12,33.15L332.79,31.01L333.12,31.76L333.45,26.44L333.78,22.28L334.11,24.74L334.44,31.36L334.78,30.54L335.44,30.85L335.77,27.09L336.1,23.52L336.43,25.74L336.76,32.13L338.09,24.87L338.42,19.03L339.08,33.3L339.75,32.51L340.08,30.78L340.74,26.55L341.07,27.73L341.4,32.15L343.06,21.71L343.39,24.44L344.06,29.97L344.39,29.24L344.72,27.63L345.38,23.44L345.71,23.6L346.04,24.8L347.04,28.09L347.37,25.25L347.7,24.16L348.03,26.09L348.37,31.2L348.7,30.66L349.03,27.5L349.36,29.21L349.69,22.43L350.02,21.02L350.35,23.1L350.69,28.98L351.35,27.98L351.68,26.62L352.01,27.53L352.34,23.39L353.01,30.7L353.34,28.56L353.67,28.19L354,29.05L354.33,25.47L354.66,22.47L354.99,26.01L355.33,29.59L355.66,29.09L355.99,24.7L356.32,29.16L356.65,27.53L356.98,23.11L357.31,24.24L357.65,29.86L358.97,22.34L359.3,22.6L359.63,23.98L359.97,24.37L360.3,29.06L360.63,48.19L360.96,23.42L361.96,20.98L362.29,22.69L362.62,21.44L362.95,25.57L363.28,26.08L363.61,25.23L363.94,22.74L364.61,27.28L364.94,25.47L365.27,22.42L365.6,23.47L365.93,25.71L366.26,22.63L366.6,23.25L366.93,25.71L368.58,21.18L368.92,21.69L369.25,26.05L369.58,26.45L369.91,28.1L370.24,28.94L370.57,25.67L370.9,21.28L371.24,22.57L371.57,33.73L372.23,31.81L372.56,32.51L372.89,27.24L373.22,21.88L373.56,24.1L373.89,30.28L375.21,24.81L375.54,20.77L376.54,30.82L376.87,30.19L377.2,26.19L377.53,28.69L377.87,23.76L378.53,32.38L378.86,32.19L379.19,30.85L379.52,30.4L379.85,25.84L380.19,22L380.52,24.4L380.85,24.51L381.51,30.16L381.84,29.36L382.17,26.26L382.51,21.26L382.84,21.66L383.17,26.88L383.83,24.08L384.16,25.38L384.83,17.81L385.16,20.04L385.49,25.91L385.82,26.35L386.15,23.94L386.48,23.84L386.81,20.6L387.15,18.2L387.48,20.51L387.81,25.15L388.47,29.1L388.8,26.93L389.47,29.07L389.8,32.06L391.12,29.85L391.46,21.55L391.79,21.04L392.12,25.13L393.44,28.51L393.78,25.05L395.1,33.81L395.43,32.69L396.43,31.82L396.76,32.32L397.09,32.07L397.42,32.82L397.75,32.97L398.08,30.5L398.75,27.39L399.08,29.83L399.74,30.62L400.07,29.77L400.74,31.8L401.07,29.09L402.06,34.01L402.39,32.15L403.39,28.27L403.72,30.42L404.05,30.99L404.38,30.76L404.71,30.58L405.04,31.3L405.38,29.73L405.71,28.45L406.04,39.22L406.7,35.05L407.03,36.43L407.37,36.04L407.7,37.87L408.03,34.62L408.36,36.95L408.69,37.04L409.69,31.77L410.02,34.72L410.35,31.45L410.68,33.64L411.01,33.96L411.67,32.44L412.01,31.23L412.67,22.74L413,26.39L413.33,26.01L413.66,27.98L413.99,26.14L414.33,26.09L414.99,23.47L415.32,26.76L415.65,26.57L415.98,33.11L417.31,24.67L417.64,27.03L417.97,26.99L418.3,25.34L419.3,23.12L419.63,23.77L419.96,32.04L420.29,22.04L420.62,27.46L420.96,27.29L421.29,27.15L421.62,25.01L421.95,22.77L422.28,26.94L422.61,28.05L422.94,27.59L423.28,26.77L424.27,23.6L424.6,25.82L425.6,26.61L425.93,26.45L426.26,23.65L426.59,24.18L426.92,27.11L428.25,25.64L428.58,21.08L429.24,25.48L429.57,25.4L429.9,23.93L430.57,24.57L430.9,36.81L431.23,31.04L431.56,31.87L431.89,32.68L432.22,36.07L432.56,30.09L432.89,29.49L433.22,25.88L433.88,25.95L434.21,27.05L435.21,28.51L435.54,25.51L435.87,25.03L436.2,26.92L437.2,27.83L437.53,25.8L437.86,22.4L438.19,22.53L438.52,26.85L438.85,26.71L439.19,24.96L439.85,26.42L440.18,20.66L440.51,17.64L440.84,19.88L441.17,21.07L442.17,22.72L442.5,20.71L442.83,17.96L443.16,22.29L443.83,25.06L444.16,24.99L444.49,23.38L445.15,18.17L445.48,23.77L445.81,21.34L446.15,23.05L446.48,23.47L447.47,18.36L447.8,22.72L448.13,25.08L448.47,24.35L448.8,22.35L449.46,34.79L449.79,26.53L450.12,21.1L450.79,21.82L451.12,22.11L451.45,21.63L451.78,17.48L452.11,16L452.44,19.07L453.11,23.02L453.44,21.13L453.77,22.29L454.1,20.05L454.43,19.66L454.76,23.37L455.1,23.41L455.43,24.29L456.42,20.19L456.75,21.48L457.75,24.66L458.08,24.8L458.41,25.29L458.74,22.94L459.07,20.59L459.4,25.94L459.74,25.71L460.07,28.03L461.39,22.78L461.72,25.56L462.06,26.89L462.39,25.51L462.72,25.46L463.05,24.29L463.38,26.82L463.71,22.92L464.04,23.12L464.38,25.43L466.03,22.37L466.37,26.26L467.03,28.97L467.36,26.93L467.69,29.09L468.02,25.63L468.35,25.06L468.69,26.41L470.01,29.75L470.34,30.76L470.67,24.52L471.01,28.05L471.34,30.89L471.67,30.14L472,31.13" style="vector-effect: non-scaling-stroke; fill: none; stroke: rgb(255, 161, 90); stroke-opacity: 1; stroke-width: 2px; opacity: 1;"/></g><g class="points"/><g class="text"/></g><g class="trace scatter tracef10067" style="stroke-miterlimit: 2; opacity: 1;"><g class="fills"/><g class="errorbars"/><g class="lines"><path class="js-line" d="M0,114.4L0.99,113.14L1.33,115.59L1.66,115.53L1.99,121.39L2.32,126.87L2.65,121.4L2.98,116.36L3.65,115.48L3.98,118.89L4.31,114.46L4.64,116.48L4.97,116.6L5.3,110.9L5.63,114.77L5.97,118.16L7.62,109.66L7.96,110.24L9.28,117.98L9.61,116.36L9.94,109.7L10.61,110.28L10.94,109.41L11.6,116.16L11.93,111.68L12.26,109.32L12.6,111.81L12.93,122.79L13.26,109.84L13.92,112.91L14.25,111.16L14.58,117.72L14.92,109.53L16.24,113.77L16.57,113.19L16.9,113.25L17.24,117.29L17.57,116.73L17.9,112.54L18.56,120.82L18.89,116.68L19.22,115.39L20.22,121.6L20.55,121.85L20.88,124.03L21.21,120.66L22.54,115.53L22.87,116.54L23.2,117.25L23.87,111.54L24.2,112.79L24.53,110.48L24.86,106.35L25.19,111.93L25.52,134.18L26.19,133.08L26.52,131.88L26.85,125.55L27.18,128.97L27.51,130.24L27.84,130.45L28.17,128.94L29.17,133.95L29.5,129.62L29.83,129.5L30.16,132.97L31.16,129.78L31.49,126.76L32.15,125.77L32.48,127.84L32.81,121.68L33.15,128.17L33.48,130.48L33.81,133.7L34.47,133.57L34.8,134.84L35.47,126.88L35.8,119.75L36.46,125.23L36.79,123.78L37.12,130.71L38.78,115.48L39.11,117.95L39.78,119.22L40.11,118.17L40.44,120.06L40.77,117.7L41.1,113.51L41.43,109.93L41.76,112.09L42.1,113.6L42.43,112.7L42.76,114.05L43.09,115.17L43.42,111.74L43.75,110.49L44.08,114.32L44.42,112.56L44.75,116.65L45.41,115.15L45.74,109.37L46.07,110.32L46.4,116.09L47.73,117.05L48.06,108.68L48.72,118.98L49.06,114.48L50.05,114.83L50.71,110.9L51.04,111.03L51.38,115.94L51.71,116.62L52.04,114.23L52.37,114.86L52.7,112.93L53.03,110.76L53.37,114.71L53.7,112.45L54.03,115.86L54.36,112.39L54.69,120.39L55.02,117.17L55.35,118L55.69,120.78L56.02,115.92L56.35,116.57L56.68,118.5L57.67,111.82L58.01,115.5L58.67,117.56L59,117.11L59.33,120.36L59.66,106.68L59.99,109.95L60.33,112.04L60.66,112.04L60.99,110.11L61.32,115.26L61.65,111.2L61.98,106.03L62.65,112.07L62.98,109.53L64.3,105.1L64.63,108L64.97,115.02L65.3,110.52L65.63,111.4L66.62,100.83L66.96,108.89L67.95,117.61L68.28,114.24L68.61,110.84L68.94,97.36L69.61,112.28L69.94,105.41L70.27,106.71L70.93,109.16L71.26,103.9L71.6,104.99L71.93,112.58L72.26,106.67L72.92,108.19L73.25,106.26L73.92,100.72L74.25,107.13L74.58,106.34L74.91,107.1L75.24,107.02L75.57,108.5L75.9,100L76.24,100.07L76.57,107.64L77.89,100.91L78.22,129.75L78.56,128.35L78.89,141.5L80.54,112.98L80.88,113.73L81.21,123.67L82.2,115L82.53,121.38L82.87,110.45L83.2,110.68L83.53,116.48L83.86,116.32L84.19,111.05L84.52,109.55L84.85,113.23L85.52,108.88L85.85,110.97L86.18,105.8L86.51,107.26L86.84,107.78L87.17,108.8L87.51,106.52L87.84,109.38L88.17,108.32L88.5,104.16L89.49,107.66L89.83,106.13L90.16,111.18L90.49,106.41L90.82,102.78L91.15,112.37L91.81,110.22L92.15,111.6L92.48,115.96L92.81,110.73L93.14,108.18L93.47,107.02L93.8,108.92L94.13,113.11L94.47,106.82L95.13,116.23L95.46,107.11L95.79,108.06L96.12,112.26L96.46,113.82L96.79,109.96L97.45,122.74L97.78,114.86L98.11,111.81L98.44,115.28L98.78,110.45L99.11,105.05L99.44,117.08L100.43,110.86L100.76,113.88L101.1,110.01L101.43,112.37L101.76,122.83L102.09,121.96L102.42,113.91L103.08,118.02L103.42,115.61L103.75,111.71L104.08,112.98L104.41,113.85L105.07,107.3L105.4,114.17L106.07,110.29L106.4,114.05L106.73,112.96L107.06,105.45L107.39,105.3L107.72,94.33L108.72,111.55L109.05,109.18L109.38,102.85L109.71,103.27L110.04,111.38L110.38,113.86L110.71,126.49L111.37,132.73L111.7,120.55L112.03,117.12L112.37,118.17L112.7,119L113.03,118.88L113.36,131.08L113.69,133.33L114.02,117.96L114.69,128.99L115.02,126.32L115.35,119.64L116.01,132.65L116.34,116.58L117.01,134.16L117.34,144.94L117.67,149.44L118,181.36L118.33,211.26L118.66,206.25L118.99,120.59L119.66,116.03L119.99,116.59L120.32,122.75L120.65,107.5L120.98,118.78L121.31,117.57L121.98,121.59L122.31,119.28L123.3,122.92L123.63,123.8L124.3,128.1L124.63,122.8L124.96,129.13L125.29,129.09L125.62,122.41L125.96,131.16L126.29,128.41L126.62,128.2L126.95,127.51L127.28,130.29L127.61,129.97L127.94,126.05L128.28,124.22L128.61,124.82L128.94,127.03L129.27,133.7L129.6,133.04L129.93,126.52L130.6,125.19L130.93,128.33L131.59,125.87L131.92,130.12L132.58,127.32L132.92,129.95L133.91,119.5L134.24,129.42L134.57,133.55L134.9,127.4L135.24,127.63L135.57,132.79L136.23,126.18L136.56,130.77L136.89,131.94L137.22,127.02L138.22,131.37L138.55,128.43L138.88,129.07L139.21,133.07L139.88,127.94L140.21,128.58L140.54,128.75L140.87,126.18L141.2,126.72L141.53,129.63L141.87,129.24L142.2,127.36L142.86,133.7L143.19,126.99L143.52,128.34L143.85,133.51L144.85,130.35L145.18,132.37L145.51,146.23L146.17,144.16L146.51,140.23L146.84,137.3L147.17,141.95L147.83,131.44L148.16,133.84L148.49,138.45L149.16,133.37L149.49,133.79L149.82,136.95L150.48,141.93L150.81,139.53L151.15,138.59L151.48,132.72L151.81,135.12L152.14,134.25L152.47,128.44L153.13,137.62L153.47,129.81L154.13,131.87L154.46,129.52L154.79,124.21L155.12,126.35L155.46,133.94L155.79,124.88L156.12,127.98L156.45,128.12L156.78,127.81L157.11,131.26L157.44,126.51L157.78,130.4L158.11,132.45L158.44,130.94L158.77,137.21L159.76,118.2L160.1,119.57L160.43,116.42L160.76,115.15L161.09,115.25L161.42,118.66L162.08,112.48L162.42,119.61L162.75,114.14L163.08,114.78L163.41,118.46L163.74,118.61L164.07,105.08L164.4,107.36L164.74,117.43L165.07,110.06L165.4,115.15L165.73,117.1L166.06,119.17L166.39,109.19L167.06,114.74L167.39,114.57L167.72,113.63L168.05,107.67L168.38,110.94L168.71,122.04L169.04,117.92L169.38,127.41L169.71,117.11L170.37,118.3L170.7,115.01L171.03,108.08L171.37,110.73L171.7,114.32L173.69,108.29L174.02,110.47L174.35,110.46L174.68,111.31L175.34,106.43L175.67,94.73L176.01,97.14L176.34,106.44L176.67,110.79L177,165.56L177.99,122.08L178.33,123.41L178.66,127.65L179.32,123.37L179.65,126.06L179.98,128.67L180.31,150.33L180.65,148.33L180.98,150.75L181.31,149.44L181.64,147.23L181.97,148.32L182.3,148.54L182.97,137.2L183.3,140.71L183.63,135.99L184.62,133.5L184.96,132.53L185.62,134.75L185.95,133.72L186.28,129.49L186.61,127.89L186.94,130.44L187.61,124.48L187.94,129.07L188.93,126.77L189.26,126.18L189.6,125.7L189.93,126.25L190.26,128.28L190.59,126.33L190.92,126.46L191.25,128.73L191.58,126.48L191.92,116.56L192.58,120.92L192.91,119.56L193.24,116.25L193.9,118.75L194.24,115.08L194.57,117.37L194.9,117.03L195.23,114.8L196.56,127.36L196.89,124.54L197.22,118.57L197.55,118.91L197.88,116.84L198.54,121.4L198.88,113.94L199.21,109.56L199.54,119.1L199.87,115.88L200.2,117.87L200.53,118.14L200.87,119.01L201.2,118.58L201.53,121.93L201.86,122.58L202.19,116.61L202.52,116.41L202.85,118.39L203.19,120.57L203.52,119.3L203.85,131.69L204.18,131.28L204.51,126.62L204.84,123.13L205.17,126.08L205.51,125.83L206.17,125.35L206.5,129.23L207.49,123.99L207.83,119.89L208.16,115.93L208.49,122.36L209.15,114.08L209.48,114.81L209.81,118.84L210.15,122.95L210.48,121.08L210.81,116.02L211.8,110.64L212.13,116.11L212.47,111.77L212.8,115.12L213.13,123.43L213.79,110.62L214.12,113.56L214.46,113.6L214.79,112.2L215.12,106.54L215.45,116.83L215.78,114.43L216.11,109.54L216.78,111.92L217.11,111.01L217.44,125.44L218.1,125.76L218.43,120.63L218.76,117.68L219.1,119.12L219.43,118.66L220.42,124.7L220.75,118.88L221.08,117.87L221.42,118.4L221.75,121.6L222.41,130.73L222.74,126.64L223.07,123.92L223.4,123.34L223.74,123.72L224.07,123.81L224.4,122L224.73,126.27L225.06,127.59L225.39,121.2L226.39,124.2L226.72,122.77L227.38,133.02L227.71,128.04L228.04,127.84L228.38,131.17L229.04,128.82L229.37,137.11L229.7,137.6L230.03,133.49L230.7,129.77L231.03,130.47L231.36,134.48L231.69,163.26L232.02,156L232.35,137.89L232.69,136.59L233.02,143.44L233.35,139.77L233.68,151.03L234.01,160.49L234.34,156.08L234.67,141.14L236,153.99L236.33,163.58L236.66,161.38L236.99,151.27L237.99,160.14L238.32,172.05L238.98,195.85L239.31,249.68L239.65,244.54L239.98,138.68L240.64,127.88L240.97,129.74L241.3,130.25L241.63,130.74L241.97,127.7L242.3,127.62L242.63,120.89L243.29,130.14L243.62,129.57L243.96,124.01L245.61,133.1L245.94,131.99L246.28,123.17L246.61,123.66L246.94,127.75L247.27,127.97L247.6,131.42L247.93,142.16L248.26,132.76L248.6,126.14L248.93,126.78L249.26,132.07L249.59,128L249.92,133.17L250.25,151.72L251.25,134.71L251.58,137.86L251.91,139.37L252.24,135.36L252.9,143.94L253.24,137.84L253.9,149.9L254.23,144.25L254.56,138.91L254.89,144.3L255.22,144.15L255.56,137.69L256.22,136.71L256.55,140.57L256.88,140.89L257.21,145.58L257.54,144.04L257.88,135.44L258.54,136.9L258.87,135.39L259.53,144.22L259.87,141.39L260.2,134.34L260.53,135.45L260.86,132.73L261.52,133.71L261.85,137.64L262.19,136.46L262.52,137.26L262.85,137.22L263.51,139.56L263.84,135.14L264.51,142.81L264.84,135.79L265.17,135.47L265.5,136.94L265.83,134.92L266.16,141.96L266.83,143.06L267.16,135.11L267.49,135.83L267.82,143.17L268.15,134.17L268.48,138.02L268.81,146.16L269.15,145.42L269.48,136.75L270.14,138.86L270.47,167.04L271.47,179.91L271.8,168.34L272.13,170.89L272.46,170.18L272.79,167.68L273.46,182.17L273.79,179.83L274.12,180.54L275.11,175.43L275.44,176.05L275.78,175.57L276.11,175L276.44,168.72L278.43,191.47L278.76,179.64L279.09,179.26L279.42,187.24L279.75,186.55L280.08,175.84L280.42,178.56L280.75,178.25L281.08,176.09L281.74,174.6L282.07,177.56L282.4,172.48L282.74,172.96L283.07,176.7L283.73,166.98L284.06,167.49L284.39,167.66L284.72,167.97L285.06,171.51L285.39,173.63L285.72,170.1L287.04,165.92L287.38,168.44L287.71,171.37L288.04,168.22L288.37,171.06L288.7,169.71L289.37,163.73L289.7,169.39L290.03,170.65L290.36,166.6L291.02,163.06L291.35,167.12L292.02,162.42L292.35,168.2L292.68,160.92L293.34,162.13L293.67,164.06L294.01,162.31L294.34,165.27L294.67,164.65L295,160.55L295.66,158.74L295.99,161.61L296.66,159.8L296.99,163.95L297.32,158.08L297.65,160.26L297.98,163.47L298.31,163.07L298.65,151.96L299.31,158.63L299.64,154.11L299.97,151.79L300.3,156.4L300.63,154.75L300.97,155.01L301.3,155.79L301.63,155.67L301.96,148.38L302.62,153.27L302.96,150.26L303.29,148.05L303.62,150.47L303.95,150.72L305.28,145.43L305.61,152.32L306.6,147.37L306.93,147.63L307.6,142.6L307.93,145.14L308.59,152.18L308.92,147.74L309.25,148.62L309.58,146.57L310.25,143.69L310.58,145.74L310.91,149.62L311.24,144.71L311.57,144.33L311.9,145.49L312.24,143.46L312.57,144.38L312.9,147.59L313.23,150.04L313.56,147.24L313.89,148.46L314.56,150.87L314.89,145.67L315.55,154.1L315.88,151.9L316.21,147.46L317.21,150.76L317.54,156.07L317.87,156.81L318.2,151.84L319.2,147.88L319.53,161.68L320.52,155.35L320.85,156.38L321.19,162.66L321.52,163.71L321.85,182.57L323.17,161.36L323.51,159.87L323.84,161.33L324.17,141.09L325.49,138.38L325.83,138.27L326.16,143.26L326.49,137.81L326.82,139.51L327.15,142.1L327.48,138.14L328.48,140.77L328.81,139.76L329.14,148.15L329.47,142.58L329.8,137.33L330.13,132.8L330.47,133.89L330.8,134.7L331.13,133.29L331.46,137.43L331.79,137.29L332.12,131.58L332.46,129.28L332.79,131.04L333.12,131.06L333.45,140.68L333.78,139.17L334.11,133.95L335.11,125.93L335.44,124.85L336.1,136.59L336.43,135.95L336.76,129.67L337.43,133.97L337.76,137.31L338.42,143.37L338.75,137.41L339.08,133.24L339.75,133.33L340.08,136.15L340.41,135.8L340.74,144.92L342.07,130.59L342.4,132.42L342.73,134.54L343.06,141.74L344.39,133.29L344.72,138.73L345.38,149.73L345.71,139.92L346.04,134L346.38,137.37L346.71,138.43L347.7,150.35L348.03,145.83L348.7,137.47L349.03,137.55L349.36,141.22L350.02,151.84L350.35,145.06L351.02,133.48L351.35,142.25L352.01,144.67L352.34,159.65L352.67,167.52L353.01,149.16L353.67,151.79L354,151.33L354.33,156.98L354.66,167.06L354.99,156.81L355.33,139.59L356.98,175.28L357.31,169.88L357.65,154.29L359.97,195.16L360.3,248.83L360.63,246.17L360.96,153.33L361.62,150.11L361.96,145.37L362.29,142.94L362.62,146.89L362.95,147.06L363.28,143.3L363.94,146.97L364.28,142.13L364.61,136.04L364.94,141.93L365.27,139.74L365.6,141.42L365.93,150.41L366.26,153.87L366.6,147.85L367.26,144.19L367.59,147.43L367.92,149.08L368.25,164.44L368.58,171.71L368.92,161.93L370.24,143.23L370.57,150.84L371.24,168.07L371.57,154.58L372.56,149.25L372.89,154.69L373.22,161.34L373.56,151.09L373.89,145.19L374.22,145.67L374.55,151.21L374.88,154.73L375.21,151.31L375.54,152.92L375.88,131.1L376.21,139.7L376.54,142.67L376.87,142.36L377.2,144.62L377.87,152.52L378.2,149.78L378.53,145.32L379.19,147.33L379.52,147L379.85,149.57L380.19,155.35L380.52,147.64L381.18,140.22L381.51,142.31L381.84,149.59L382.17,149.18L382.51,154.6L383.17,141.35L383.5,142.08L383.83,142.27L384.83,150.85L385.16,145.43L386.15,138.74L386.48,140.07L387.15,150.67L387.48,147.71L387.81,142.14L388.14,137.8L388.47,139.34L388.8,141.85L389.47,167.63L389.8,161.9L390.13,146.21L390.46,142.8L390.79,146.28L391.12,147.74L391.46,138.47L391.79,150.34L392.45,136.53L392.78,138.19L393.11,140.92L393.44,144.26L393.78,159.45L394.11,169.16L394.44,157.68L394.77,148.39L395.1,147.83L395.43,148.82L396.76,169.42L397.09,153.34L397.42,146.94L397.75,148.5L398.08,151.25L398.75,167.81L399.08,159.16L399.74,151.26L400.07,154.44L400.4,150.12L400.74,164.91L401.07,163.64L401.4,156.71L402.06,143.39L402.39,147.99L402.72,149L403.39,166.33L403.72,153.26L404.05,143.18L404.71,144.76L405.04,148.69L405.71,175.15L406.04,167.71L406.37,144.66L407.37,150.41L407.7,166.57L408.03,174.48L408.36,158.51L409.02,148.22L409.35,151.07L409.69,153.16L410.35,173.37L410.68,157.37L411.01,151.71L411.34,154.73L411.67,156.66L412.34,153.02L412.67,161.44L413.66,147.13L413.99,149.2L414.33,149.43L414.99,171.19L415.32,163.66L415.65,153.32L416.31,156.14L416.65,154.2L417.31,165.4L417.64,154.99L417.97,149.63L418.3,150.38L418.63,151.42L418.97,154.57L419.3,166.73L419.63,165.11L419.96,157.29L420.29,152.94L420.62,153.49L420.96,156.71L421.62,155.39L421.95,164.29L422.61,143.4L422.94,146.73L423.28,151.04L424.27,154.55L424.6,144.67L424.93,141.78L425.26,145.55L425.93,148.66L426.26,158.02L426.59,166.47L426.92,157.88L427.25,145.13L428.25,150.12L428.58,155.39L428.91,162.65L429.24,153.89L429.57,150.23L429.9,150.3L430.24,148.65L430.57,149.82L430.9,172.42L431.23,178.87L431.56,172.06L431.89,167.09L432.56,171.16L432.89,170.45L433.22,179.5L433.55,184.77L433.88,177.5L434.54,172.87L434.88,175.65L435.87,177.84L436.2,175.61L437.86,163.48L438.19,170.79L439.52,160.98L439.85,160.54L440.51,170.24L440.84,161.09L442.17,156.02L442.5,160.45L442.83,166.2L443.16,162.44L443.49,157.82L443.83,159.85L444.16,155.72L444.49,154.8L444.82,159.89L445.48,161.83L445.81,155.7L446.48,155.98L446.81,159.98L447.14,157.1L447.47,164.73L448.47,154.83L448.8,158.02L449.13,156.17L449.46,156.42L449.79,162.35L450.79,156.29L451.12,156.76L451.45,161.48L451.78,158.96L452.11,163.22L453.11,148.64L453.44,152.73L453.77,153.5L454.1,150.38L454.43,159.24L454.76,151.08L455.1,148.91L455.43,148.11L455.76,148.87L456.09,150.15L456.75,160.81L457.08,157.32L457.42,153.34L457.75,151.87L458.08,153.89L459.07,162.55L459.4,158.06L460.4,147.39L460.73,154.56L461.39,164.35L461.72,161.21L462.06,149.59L462.72,142.53L463.05,143.82L463.38,143.77L464.04,150.75L464.38,141.18L464.71,147.54L465.04,143.88L465.37,145.25L466.03,156.1L466.37,146.85L466.7,142.08L467.03,144.53L467.36,147.41L468.35,169.51L468.69,157.94L469.35,150.29L469.68,151.21L470.01,152.71L470.34,151.96L470.67,160.54L471.01,158.16L471.34,147.57L472,151.5" style="vector-effect: non-scaling-stroke; fill: none; stroke: rgb(25, 211, 243); stroke-opacity: 1; stroke-width: 2px; opacity: 1;"/></g><g class="points"/><g class="text"/></g></g></g><g class="overplot"/><path class="xlines-above crisp" d="M0,0" style="fill: none;"/><path class="ylines-above crisp" d="M0,0" style="fill: none;"/><g class="overlines-above"/><g class="xaxislayer-above"><g class="xtick"><text text-anchor="middle" x="0" y="433" transform="translate(80,0)" style="font-family: 'Open Sans', verdana, arial, sans-serif; font-size: 12px; fill: rgb(42, 63, 95); fill-opacity: 1; white-space: pre;">2017</text></g><g class="xtick"><text text-anchor="middle" x="0" y="433" transform="translate(200.98000000000002,0)" style="font-family: 'Open Sans', verdana, arial, sans-serif; font-size: 12px; fill: rgb(42, 63, 95); fill-opacity: 1; white-space: pre;">2018</text></g><g class="xtick"><text text-anchor="middle" x="0" y="433" transform="translate(321.97,0)" style="font-family: 'Open Sans', verdana, arial, sans-serif; font-size: 12px; fill: rgb(42, 63, 95); fill-opacity: 1; white-space: pre;">2019</text></g><g class="xtick"><text text-anchor="middle" x="0" y="433" transform="translate(442.95,0)" style="font-family: 'Open Sans', verdana, arial, sans-serif; font-size: 12px; fill: rgb(42, 63, 95); fill-opacity: 1; white-space: pre;">2020</text></g></g><g class="yaxislayer-above"><g class="ytick"><text text-anchor="end" x="79" y="4.199999999999999" transform="translate(0,415.78)" style="font-family: 'Open Sans', verdana, arial, sans-serif; font-size: 12px; fill: rgb(42, 63, 95); fill-opacity: 1; white-space: pre;">9</text></g><g class="ytick"><text text-anchor="end" x="79" y="4.199999999999999" transform="translate(0,379.34)" style="font-family: 'Open Sans', verdana, arial, sans-serif; font-size: 12px; fill: rgb(42, 63, 95); fill-opacity: 1; white-space: pre;">8.5</text></g><g class="ytick"><text text-anchor="end" x="79" y="4.199999999999999" transform="translate(0,342.9)" style="font-family: 'Open Sans', verdana, arial, sans-serif; font-size: 12px; fill: rgb(42, 63, 95); fill-opacity: 1; white-space: pre;">8</text></g><g class="ytick"><text text-anchor="end" x="79" y="4.199999999999999" transform="translate(0,306.46000000000004)" style="font-family: 'Open Sans', verdana, arial, sans-serif; font-size: 12px; fill: rgb(42, 63, 95); fill-opacity: 1; white-space: pre;">7.5</text></g><g class="ytick"><text text-anchor="end" x="79" y="4.199999999999999" transform="translate(0,270.02)" style="font-family: 'Open Sans', verdana, arial, sans-serif; font-size: 12px; fill: rgb(42, 63, 95); fill-opacity: 1; white-space: pre;">7</text></g><g class="ytick"><text text-anchor="end" x="79" y="4.199999999999999" transform="translate(0,233.58)" style="font-family: 'Open Sans', verdana, arial, sans-serif; font-size: 12px; fill: rgb(42, 63, 95); fill-opacity: 1; white-space: pre;">6.5</text></g><g class="ytick"><text text-anchor="end" x="79" y="4.199999999999999" transform="translate(0,197.14)" style="font-family: 'Open Sans', verdana, arial, sans-serif; font-size: 12px; fill: rgb(42, 63, 95); fill-opacity: 1; white-space: pre;">6</text></g><g class="ytick"><text text-anchor="end" x="79" y="4.199999999999999" transform="translate(0,160.7)" style="font-family: 'Open Sans', verdana, arial, sans-serif; font-size: 12px; fill: rgb(42, 63, 95); fill-opacity: 1; white-space: pre;">5.5</text></g><g class="ytick"><text text-anchor="end" x="79" y="4.199999999999999" transform="translate(0,124.26)" style="font-family: 'Open Sans', verdana, arial, sans-serif; font-size: 12px; fill: rgb(42, 63, 95); fill-opacity: 1; white-space: pre;">5</text></g></g><g class="overaxes-above"/></g></g><g class="polarlayer"/><g class="ternarylayer"/><g class="geolayer"/><g class="funnelarealayer"/><g class="pielayer"/><g class="treemaplayer"/><g class="sunburstlayer"/><g class="glimages"/><defs id="topdefs-d1b048"><g class="clips"/><clipPath id="legendd1b048"><rect width="127" height="140" x="0" y="0"/></clipPath></defs><g class="layer-above"><g class="imagelayer"/><g class="shapelayer"/></g><g class="infolayer"><g class="legend" pointer-events="all" transform="translate(561.44, 100)"><rect class="bg" shape-rendering="crispEdges" width="127" height="140" x="0" y="0" style="stroke: rgb(68, 68, 68); stroke-opacity: 1; fill: rgb(255, 255, 255); fill-opacity: 1; stroke-width: 0px;"/><g class="scrollbox" transform="translate(0, 0)" clip-path="url('#legendd1b048')"><text class="legendtitletext" text-anchor="start" x="2" y="15.600000000000001" style="font-family: 'Open Sans', verdana, arial, sans-serif; font-size: 12px; fill: rgb(42, 63, 95); fill-opacity: 1; white-space: pre;">Continents</text><g class="groups"><g class="traces" transform="translate(0, 30.1)" style="opacity: 1;"><text class="legendtext" text-anchor="start" x="40" y="4.680000000000001" style="font-family: 'Open Sans', verdana, arial, sans-serif; font-size: 12px; fill: rgb(42, 63, 95); fill-opacity: 1; white-space: pre;">Global</text><g class="layers" style="opacity: 1;"><g class="legendfill"/><g class="legendlines"><path class="js-line" d="M5,0h30" style="fill: none; stroke: rgb(99, 110, 250); stroke-opacity: 1; stroke-width: 2px;"/></g><g class="legendsymbols"><g class="legendpoints"/></g></g><rect class="legendtoggle" x="0" y="-9.5" width="121.734375" height="19" style="fill: rgb(0, 0, 0); fill-opacity: 0;"/></g><g class="traces" transform="translate(0, 49.1)" style="opacity: 1;"><text class="legendtext" text-anchor="start" x="40" y="4.680000000000001" style="font-family: 'Open Sans', verdana, arial, sans-serif; font-size: 12px; fill: rgb(42, 63, 95); fill-opacity: 1; white-space: pre;">Europe</text><g class="layers" style="opacity: 1;"><g class="legendfill"/><g class="legendlines"><path class="js-line" d="M5,0h30" style="fill: none; stroke: rgb(239, 85, 59); stroke-opacity: 1; stroke-width: 2px;"/></g><g class="legendsymbols"><g class="legendpoints"/></g></g><rect class="legendtoggle" x="0" y="-9.5" width="121.734375" height="19" style="fill: rgb(0, 0, 0); fill-opacity: 0;"/></g><g class="traces" transform="translate(0, 68.1)" style="opacity: 1;"><text class="legendtext" text-anchor="start" x="40" y="4.680000000000001" style="font-family: 'Open Sans', verdana, arial, sans-serif; font-size: 12px; fill: rgb(42, 63, 95); fill-opacity: 1; white-space: pre;">Asia</text><g class="layers" style="opacity: 1;"><g class="legendfill"/><g class="legendlines"><path class="js-line" d="M5,0h30" style="fill: none; stroke: rgb(0, 204, 150); stroke-opacity: 1; stroke-width: 2px;"/></g><g class="legendsymbols"><g class="legendpoints"/></g></g><rect class="legendtoggle" x="0" y="-9.5" width="121.734375" height="19" style="fill: rgb(0, 0, 0); fill-opacity: 0;"/></g><g class="traces" transform="translate(0, 87.1)" style="opacity: 1;"><text class="legendtext" text-anchor="start" x="40" y="4.680000000000001" style="font-family: 'Open Sans', verdana, arial, sans-serif; font-size: 12px; fill: rgb(42, 63, 95); fill-opacity: 1; white-space: pre;">North America</text><g class="layers" style="opacity: 1;"><g class="legendfill"/><g class="legendlines"><path class="js-line" d="M5,0h30" style="fill: none; stroke: rgb(171, 99, 250); stroke-opacity: 1; stroke-width: 2px;"/></g><g class="legendsymbols"><g class="legendpoints"/></g></g><rect class="legendtoggle" x="0" y="-9.5" width="121.734375" height="19" style="fill: rgb(0, 0, 0); fill-opacity: 0;"/></g><g class="traces" transform="translate(0, 106.1)" style="opacity: 1;"><text class="legendtext" text-anchor="start" x="40" y="4.680000000000001" style="font-family: 'Open Sans', verdana, arial, sans-serif; font-size: 12px; fill: rgb(42, 63, 95); fill-opacity: 1; white-space: pre;">South America</text><g class="layers" style="opacity: 1;"><g class="legendfill"/><g class="legendlines"><path class="js-line" d="M5,0h30" style="fill: none; stroke: rgb(255, 161, 90); stroke-opacity: 1; stroke-width: 2px;"/></g><g class="legendsymbols"><g class="legendpoints"/></g></g><rect class="legendtoggle" x="0" y="-9.5" width="121.734375" height="19" style="fill: rgb(0, 0, 0); fill-opacity: 0;"/></g><g class="traces" transform="translate(0, 125.1)" style="opacity: 1;"><text class="legendtext" text-anchor="start" x="40" y="4.680000000000001" style="font-family: 'Open Sans', verdana, arial, sans-serif; font-size: 12px; fill: rgb(42, 63, 95); fill-opacity: 1; white-space: pre;">Oceania</text><g class="layers" style="opacity: 1;"><g class="legendfill"/><g class="legendlines"><path class="js-line" d="M5,0h30" style="fill: none; stroke: rgb(25, 211, 243); stroke-opacity: 1; stroke-width: 2px;"/></g><g class="legendsymbols"><g class="legendpoints"/></g></g><rect class="legendtoggle" x="0" y="-9.5" width="121.734375" height="19" style="fill: rgb(0, 0, 0); fill-opacity: 0;"/></g></g></g><rect class="scrollbar" rx="20" ry="3" width="0" height="0" x="0" y="0" style="fill: rgb(128, 139, 164); fill-opacity: 1;"/></g><g class="g-gtitle"/><g class="g-xtitle"><text class="xtitle" x="316" y="461.8" text-anchor="middle" style="font-family: 'Open Sans', verdana, arial, sans-serif; font-size: 14px; fill: rgb(42, 63, 95); opacity: 1; font-weight: normal; white-space: pre;">Date</text></g><g class="g-ytitle"><text class="ytitle" transform="rotate(-90,30.418750000000003,260)" x="30.418750000000003" y="260" text-anchor="middle" style="font-family: 'Open Sans', verdana, arial, sans-serif; font-size: 14px; fill: rgb(42, 63, 95); opacity: 1; font-weight: normal; white-space: pre;">loudness</text></g></g></svg>