<svg class="main-svg" xmlns="http://www.w3.org/2000/svg" xmlns:xlink="http://www.w3.org/1999/xlink" width="700" height="500" style="" viewBox="0 0 700 500"><rect x="0" y="0" width="700" height="500" style="fill: rgb(255, 255, 255); fill-opacity: 1;"/><defs id="defs-170791"><g class="clips"><clipPath id="clip170791xyplot" class="plotclip"><rect width="516" height="320"/></clipPath><clipPath class="axesclip" id="clip170791x"><rect x="80" y="0" width="516" height="500"/></clipPath><clipPath class="axesclip" id="clip170791y"><rect x="0" y="100" width="700" height="320"/></clipPath><clipPath class="axesclip" id="clip170791xy"><rect x="80" y="100" width="516" height="320"/></clipPath></g><g class="gradients"/></defs><g class="bglayer"><rect class="bg" x="80" y="100" width="516" height="320" style="fill: rgb(229, 236, 246); fill-opacity: 1; stroke-width: 0;"/></g><g class="layer-below"><g class="imagelayer"/><g class="shapelayer"/></g><g class="cartesianlayer"><g class="subplot xy"><g class="layer-subplot"><g class="shapelayer"/><g class="imagelayer"/></g><g class="gridlayer"><g class="x"><path class="xgrid crisp" transform="translate(212.26,0)" d="M0,100v320" style="stroke: rgb(255, 255, 255); stroke-opacity: 1; stroke-width: 1px;"/><path class="xgrid crisp" transform="translate(344.52,0)" d="M0,100v320" style="stroke: rgb(255, 255, 255); stroke-opacity: 1; stroke-width: 1px;"/><path class="xgrid crisp" transform="translate(476.78,0)" d="M0,100v320" style="stroke: rgb(255, 255, 255); stroke-opacity: 1; stroke-width: 1px;"/></g><g class="y"><path class="ygrid crisp" transform="translate(0,374.13)" d="M80,0h516" style="stroke: rgb(255, 255, 255); stroke-opacity: 1; stroke-width: 1px;"/><path class="ygrid crisp" transform="translate(0,321.82)" d="M80,0h516" style="stroke: rgb(255, 255, 255); stroke-opacity: 1; stroke-width: 1px;"/><path class="ygrid crisp" transform="translate(0,269.5)" d="M80,0h516" style="stroke: rgb(255, 255, 255); stroke-opacity: 1; stroke-width: 1px;"/><path class="ygrid crisp" transform="translate(0,217.19)" d="M80,0h516" style="stroke: rgb(255, 255, 255); stroke-opacity: 1; stroke-width: 1px;"/><path class="ygrid crisp" transform="translate(0,164.87)" d="M80,0h516" style="stroke: rgb(255, 255, 255); stroke-opacity: 1; stroke-width: 1px;"/><path class="ygrid crisp" transform="translate(0,112.56)" d="M80,0h516" style="stroke: rgb(255, 255, 255); stroke-opacity: 1; stroke-width: 1px;"/></g></g><g class="zerolinelayer"/><path class="xlines-below"/><path class="ylines-below"/><g class="overlines-below"/><g class="xaxislayer-below"/><g class="yaxislayer-below"/><g class="overaxes-below"/><g class="plot" transform="translate(80, 100)" clip-path="url('#clip170791xyplot')"><g class="scatterlayer mlayer"><g class="trace scatter tracea4bd3d" style="stroke-miterlimit: 2; opacity: 1;"><g class="fills"/><g class="errorbars"/><g class="lines"><path class="js-line" d="M0,63.29L0.36,66.05L0.72,65.56L1.09,65.05L1.45,66.26L1.81,74.81L2.54,83L2.9,78L3.99,73.61L4.35,83.74L5.07,65.96L5.44,73.13L7.25,61.69L7.61,68.18L7.97,80.91L8.33,76.88L8.7,75.79L9.06,75.99L9.42,53.21L9.78,48.62L10.15,70.29L10.51,83.64L10.87,72.39L11.23,70.82L11.6,68.96L11.96,73.08L12.32,62.91L12.68,71.38L13.04,65.2L13.77,71.3L14.13,65.72L14.86,50.88L15.22,60.96L15.94,70.51L16.31,56.98L16.67,50.71L17.03,67.85L18.12,58.57L18.48,61.82L18.84,62.3L19.57,53.27L20.29,66.18L20.65,79.29L21.02,60.09L21.74,60.92L22.1,65.73L22.47,61.06L22.83,70.31L23.55,67.25L23.92,56.65L24.28,55.33L24.64,50.28L25,47.11L25.37,53.97L26.09,55.12L26.45,54.28L27.54,45.45L27.9,86.33L28.26,79.73L28.63,83.03L28.99,82.34L30.08,75.51L30.44,78.39L30.8,75.96L31.16,82.6L31.89,82.08L32.25,76.25L32.61,73.17L32.97,76.99L33.34,79.13L33.7,76.7L34.06,65.05L34.42,65.85L34.79,66.19L35.15,64.5L35.51,75.57L35.87,77.45L36.24,75.35L36.96,65.82L37.32,72.99L37.69,73.81L38.05,69.06L38.41,59.62L38.77,66.31L39.13,60.75L40.22,46.75L40.58,56.63L40.95,51.63L41.31,53.67L41.67,54.82L42.03,55.52L42.4,49.49L42.76,41.79L43.12,47.75L43.48,56L44.57,50.38L44.93,45.81L45.29,42.14L45.66,50.02L46.02,52.32L46.38,47.63L46.74,48.67L47.11,45.37L47.47,44.11L47.83,47.21L48.19,54.99L48.56,54.19L48.92,46.97L50.01,31.98L50.37,30.5L50.73,35.12L51.46,34.84L51.82,35.86L52.18,33.43L52.54,44.58L53.27,32.71L53.63,35.62L54.72,34.04L55.8,31.07L56.17,32.76L56.89,36.76L57.25,30L58.34,38.56L58.7,37.8L59.43,32.23L59.79,34.55L60.15,48.19L60.51,40.9L60.88,37.44L61.6,42.91L61.96,35.34L62.33,32.85L62.69,21.92L63.78,30.43L64.14,31.33L64.5,31.43L64.86,30.22L65.22,29.94L65.59,24.43L65.95,28.84L66.31,24.27L66.67,27.19L67.04,21.55L67.4,26.64L67.76,35.58L68.12,31.51L68.49,34.06L68.85,36.63L69.57,27.84L70.3,28.05L70.66,29.26L71.02,35.75L71.38,29.22L71.75,31.89L72.11,26.93L72.47,29.73L72.83,48.94L73.2,46.55L73.56,50.8L73.92,53.42L74.28,49.89L74.65,49L75.01,40.08L75.73,29.73L76.1,40.52L77.54,24.88L77.91,29.23L78.27,26.22L78.63,35L79.36,30.08L79.72,30.89L80.08,30.81L80.44,22.63L80.81,29.24L81.17,32.7L82.98,23.59L83.34,26.64L83.71,27.68L84.07,26.02L84.43,24.87L84.79,27.06L85.15,25.07L85.52,73.99L85.88,75.57L86.24,61.92L87.33,56.54L87.69,57.63L88.42,47.13L88.78,52.69L89.5,41.84L89.87,45.84L90.59,47.05L90.95,39.53L91.31,49.56L91.68,45.23L92.04,43.84L92.76,40.96L93.13,43.24L93.49,35.46L93.85,36.88L94.21,39.85L95.3,32.17L95.66,30.96L96.03,27.97L96.39,38.4L96.75,32.8L97.11,33.3L97.47,34.26L97.84,34.71L98.2,28.41L98.56,25.55L98.92,36.07L99.29,35L99.65,58.73L101.1,28.13L101.46,26.1L101.82,35.96L102.19,32.81L102.55,32.09L102.91,33.71L103.27,28.51L104,31.79L104.36,37.74L105.45,33.82L105.81,40.01L106.17,39.76L106.53,37.59L106.9,38.24L107.26,35.73L108.71,27.19L109.07,31.09L109.79,59.75L110.16,46.69L110.88,64.23L111.24,55.34L112.33,65.3L112.69,60.79L113.78,41.5L114.14,46.17L114.87,47.97L115.23,41.9L115.59,42.13L115.96,37.76L117.04,47.76L117.4,43.67L117.77,42.98L118.13,37.23L118.49,39.13L118.85,48.18L119.22,61.38L119.58,57.44L119.94,53.81L120.67,60.74L121.03,77.86L121.75,120.89L122.12,100.92L122.48,90.42L123.2,91.08L123.56,90.21L124.29,120.73L124.65,99.52L125.38,94.85L125.74,103.69L126.1,85.97L126.46,102.37L126.83,117.2L127.19,87.51L127.55,92.19L127.91,101.38L129,124.5L129.36,223.64L129.72,291.03L130.09,86.01L131.17,33.61L131.54,32.48L131.9,44.3L132.26,43.98L132.62,40.18L132.99,39.27L133.35,43.26L133.71,48.35L134.07,39.02L134.8,61.7L135.16,53.22L135.52,50.09L136.61,41.07L136.97,49.38L137.7,63.12L138.06,53.46L138.42,53.58L138.78,51.25L139.87,43.38L140.23,41.57L140.6,42.15L140.96,39.36L141.32,58.54L141.68,53.18L142.04,52.33L142.77,56.16L143.13,53.26L143.49,50.11L143.86,54.41L144.22,48.45L144.58,50.71L144.94,56.27L145.67,53.79L146.03,53.93L146.39,59.72L146.76,53.87L147.12,55.56L147.48,62.63L147.84,60.48L148.21,67.52L148.93,58.17L149.29,61.26L149.65,62.68L150.02,64.87L150.38,62.56L150.74,59.91L151.47,53.22L151.83,61.75L152.19,64.06L152.55,58.59L152.92,57.84L153.28,55.27L153.64,54.73L154,51.59L154.73,64.03L155.09,60.19L155.45,59.58L156.54,65.18L156.9,68.14L157.99,56.52L158.35,63.59L158.71,65.53L159.08,82.97L160.53,71.21L160.89,76.75L161.97,53.73L162.34,63.99L162.7,65.12L163.06,61.67L163.79,58.98L164.15,68.04L164.51,65.93L164.87,70.05L165.24,70.91L165.6,67.06L167.05,58.86L167.41,62.75L168.5,65.27L168.86,64.62L169.22,63.1L169.58,47.62L170.31,66.69L170.67,65.85L171.03,66.25L171.4,58.66L171.76,67.18L172.12,42.49L172.48,53.69L172.85,60.03L173.21,59.82L173.57,61.63L173.93,67.41L174.29,46.01L175.02,46.8L175.38,52.38L177.19,32.43L177.56,44.52L177.92,38.52L178.28,42.27L178.64,40.7L179.73,31.14L180.09,43.24L180.82,46.61L181.18,50.87L181.54,47.17L181.9,29.8L182.63,39.73L182.99,39.48L183.35,38.08L183.72,40.4L184.08,34.34L185.17,50.78L185.53,50.38L185.89,52L186.25,37.98L186.62,39.9L186.98,38.36L187.34,29.61L188.06,39L188.43,37.66L188.79,36.43L189.15,38.25L189.88,25.33L190.24,34L191.33,28.59L191.69,31.93L192.41,16L192.78,29.25L193.14,41.14L193.5,125.66L194.59,47.39L194.95,50.11L195.31,57.32L195.67,59.6L196.04,55.36L196.4,55.34L196.76,49.82L197.85,84.08L198.21,76.15L199.3,68.7L199.66,73.78L200.02,64.81L200.38,68.71L200.75,73.69L201.11,73.85L201.47,76.78L202.2,72.28L202.56,65.19L202.92,70.28L203.28,69.72L203.65,67.94L204.37,68.31L205.1,52.14L205.46,57.74L206.54,56.05L206.91,58.32L207.63,46.85L207.99,55.12L209.08,48.42L209.44,50.05L211.26,38.54L211.62,38.65L211.98,39.32L212.71,38.33L213.07,38.85L213.43,39.04L213.79,35.33L214.15,35.59L214.52,49.21L214.88,57.46L215.24,45.3L215.6,45.73L215.97,42.38L216.33,42.33L216.69,44.42L217.05,42.36L217.42,35.74L219.23,44.08L219.59,41.52L219.95,49.69L220.31,41.85L220.68,45.6L221.04,45.44L221.4,46.3L221.76,49.77L222.13,49.19L222.49,41.33L222.85,65.22L223.21,63.11L223.58,61.47L224.66,51.94L225.03,67.78L225.39,60.92L225.75,61.86L226.11,63.49L227.92,41.35L228.29,49.51L229.01,50.82L229.37,50.25L230.1,49.02L230.46,36.15L230.82,37L231.19,44.61L231.55,47.68L231.91,46.54L232.27,44.99L232.63,60.44L233,57.72L233.36,57.55L233.72,55.93L234.08,59.03L234.45,58.07L234.81,50.66L235.53,38.12L235.9,44.63L237.35,55.48L237.71,84.01L238.43,56.06L238.79,57.9L239.16,63.75L239.88,61.06L240.24,53.7L240.61,42.96L240.97,48.79L241.33,54.47L241.69,56.02L242.06,69.3L242.42,53.93L242.78,84.02L244.23,56.82L244.59,57.85L244.96,65.21L245.32,60.12L245.68,63.39L246.04,71.46L246.4,65.04L246.77,59.63L247.13,54.24L247.49,59.72L247.85,58.87L248.22,61.81L248.58,73.71L248.94,68.44L249.3,72.37L249.67,78.14L250.03,80.35L250.39,73.7L251.12,102.76L251.48,99.65L251.84,97.84L252.2,94.52L252.56,96.38L252.93,102.09L253.65,132.5L254.01,120.4L254.38,108.4L254.74,113.76L255.1,110.16L255.46,128.7L256.19,142.8L256.55,126.45L256.91,128.02L257.28,125.91L258,116.79L258.36,135.11L258.72,142.9L259.09,129.62L259.45,127.41L259.81,129.87L260.54,123.17L260.9,152.37L261.26,171.29L261.62,253.78L261.99,292.91L262.35,119.93L263.44,50.77L263.8,49.03L264.16,31.37L264.52,37.07L264.88,66.65L265.25,68.64L265.61,61.96L265.97,56.01L266.33,59.72L266.7,69.51L267.06,64.71L267.42,66.04L267.78,65.87L268.15,68.64L268.51,60.43L268.87,58.52L269.23,65.11L269.96,63.01L270.32,65.24L270.68,66.41L271.04,59.05L272.13,69.04L272.49,77.88L272.86,76.89L273.22,80.38L273.58,68.79L273.94,77.16L274.31,84.14L274.67,84.02L275.03,84.75L275.39,85.58L275.76,81.4L276.12,69.2L276.48,78.59L276.84,74.06L277.21,80.21L277.57,75.6L277.93,71.34L278.65,64.78L279.02,70.6L279.38,69.55L279.74,71.53L280.1,70.01L280.47,78.71L280.83,80.55L281.19,72.5L281.55,74.81L281.92,66.17L283.37,89.88L283.73,77.64L284.09,83.2L284.45,80.51L284.81,80.06L285.18,77.21L285.54,84.38L286.26,73.14L286.63,80.24L286.99,81.27L287.35,84.69L287.71,91.27L288.08,89.43L288.44,77.79L289.16,83.63L289.53,75.49L290.61,84.02L290.97,82.03L291.34,78.37L291.7,83.41L292.06,79.8L292.42,79.07L292.79,80.6L293.15,87.54L293.51,70.61L293.87,79.22L294.24,82.68L294.6,73.15L294.96,75.58L295.32,76.69L295.69,77.49L296.05,128.31L296.41,126.27L296.77,134.99L297.86,126.23L298.22,122.91L298.58,147.26L298.95,142.08L299.31,139.65L300.4,131.88L300.76,121.77L301.48,111.73L301.85,112.41L302.21,120.23L302.93,105.82L303.29,110.88L303.66,113L304.02,111.11L304.38,109.41L304.74,104.98L305.11,132.01L305.83,107.18L306.19,120.28L306.56,103.31L306.92,113.12L307.28,115.37L307.64,107.98L308.01,112.39L308.37,114.09L308.73,112.65L309.09,100.2L309.46,113.9L309.82,104.24L310.18,106.76L310.54,114.09L310.9,101.95L311.63,88.81L311.99,111.93L312.35,112.81L312.72,108.83L313.44,105.33L313.8,90.34L314.17,84.15L314.53,97.05L315.25,100.77L315.62,96.81L315.98,99.35L316.34,99.27L316.7,94.7L317.06,103.22L317.43,95.54L317.79,99.03L318.15,98.78L318.51,101.72L318.88,90.78L319.24,92.09L319.6,97.89L319.96,94.25L320.33,95.57L320.69,95.9L321.05,97.03L321.41,88.34L321.78,89.76L322.14,95.58L323.22,88.16L323.59,88.64L323.95,75.42L324.31,77.17L324.67,88.7L325.04,82.93L325.4,87.72L325.76,89.13L326.12,96.64L326.49,70.98L326.85,66.51L327.21,78.23L328.3,68.85L328.66,72.34L329.38,49.46L329.75,66.08L331.2,72.36L331.56,53.94L331.92,57.81L332.28,71.93L333.01,67.25L333.37,70.52L334.1,84.4L334.46,71.2L334.82,76.16L335.18,74.8L335.54,71.87L336.63,75.74L336.99,69.39L337.72,78.35L338.08,70.6L338.44,72.31L338.81,69.64L339.53,60.26L339.89,76.78L340.26,66.23L340.62,66.64L340.98,72.67L342.07,64.53L342.43,79.98L343.15,72.45L343.52,77.21L344.24,69.98L344.6,63.73L345.69,79.83L346.05,77.69L346.78,70.93L347.14,66.63L347.5,80.97L347.87,79.58L348.23,79.97L348.59,79.14L348.95,71.3L349.31,97.21L349.68,79.01L350.04,90.5L350.4,89.06L350.76,81.01L351.13,90.01L351.49,86.92L351.85,120.35L352.94,92.17L353.3,91.95L354.75,44.59L355.11,55.57L355.47,58.92L355.84,52.08L356.2,55.43L356.56,54.43L356.92,38.55L357.29,37.15L357.65,54.95L358.01,58.97L358.37,56.3L358.74,50.83L359.82,37.96L360.19,61.25L360.55,45.15L360.91,47.98L361.27,46.88L361.63,46.54L362,20.46L362.72,54.39L363.08,51.19L363.45,47.78L363.81,46.93L364.17,52.45L364.9,28.09L365.26,52.91L365.62,51.47L365.98,55.24L366.71,48.63L367.07,35.32L368.52,55.43L368.88,45.34L369.24,48.87L369.61,47.89L369.97,40.69L371.06,58.65L371.42,51.06L371.78,55.95L372.14,45.74L372.51,39.94L372.87,48.44L373.96,53.58L374.32,55.08L374.68,40.65L375.04,43.65L375.4,58.12L376.49,54.24L376.85,58.44L377.58,51.06L377.94,71.07L378.3,72.91L378.67,63.8L379.03,62.27L379.39,76.7L380.12,61.69L380.48,85.37L381.56,77.54L381.93,80.5L382.29,65.35L382.65,71.95L383.01,93.36L383.38,98.49L383.74,95.8L384.1,91.98L384.46,85.43L384.83,95.7L385.55,145.52L385.91,134.86L386.28,129.87L386.64,134.53L387,107.36L388.09,129.75L388.45,128.53L388.81,124.15L389.17,128.25L389.54,127.89L389.9,127.57L390.26,124.72L390.62,140.62L391.35,145.63L391.71,139.58L392.07,142.08L392.44,132.46L394.25,302.36L394.61,138.92L395.33,81.31L395.7,83.87L396.06,78.73L396.42,44.42L396.78,46.34L397.15,80.98L397.51,78L397.87,64.51L398.6,79.77L398.96,77.11L399.32,77.91L399.68,71.51L400.04,84.88L400.41,82.53L400.77,83.32L401.13,93.31L402.22,83.84L402.58,100.05L403.67,111.77L404.03,108.97L405.48,80.4L405.84,92.9L406.21,116.89L406.57,111.42L406.93,109.93L407.29,110.32L407.65,94.08L408.02,85.77L408.38,95.37L408.74,99.83L409.1,96.96L409.47,97.34L409.83,97.73L410.19,75.31L410.55,72.31L410.92,80.15L411.64,90.41L412,88.56L412.37,89.48L412.73,85.19L413.09,67.05L413.45,87.68L414.54,100.74L414.9,99.28L415.63,63.83L415.99,81.66L417.44,93.94L417.8,68.46L418.16,65.57L418.53,73.87L418.89,77.98L419.25,75.14L419.61,71.66L419.97,68.33L420.34,74.63L420.7,70.98L421.06,79.39L421.42,85.98L421.79,80.16L422.15,77.6L422.51,74.3L422.87,78.81L423.24,73.35L423.6,79.56L423.96,89.13L424.32,84.85L424.69,76.02L425.05,74.59L425.41,84.98L425.77,86.28L426.13,101.76L426.86,85.57L427.22,91.73L427.58,90.32L427.95,86.76L428.31,73.47L429.03,89.93L429.4,82.73L430.12,81.75L430.48,97.99L431.93,69.92L432.29,70.93L432.66,68.07L433.02,76.98L433.74,79.14L434.11,78.5L434.47,86.02L435.56,72.17L435.92,73.02L436.28,76.94L436.64,85.45L437.01,76.36L437.37,74.84L437.73,77.46L438.09,79.49L438.46,87.95L438.82,87.65L439.18,89.25L440.27,81.11L440.63,77.95L441.72,88.46L442.08,85.26L442.44,85.78L442.8,82.47L443.17,63.62L443.53,67.5L443.89,85.47L444.25,86.37L444.62,84.45L444.98,86.41L445.34,79.11L445.7,86.44L446.06,76.28L446.43,68.7L446.79,79.54L447.51,69.72L447.88,73.91L448.24,86.51L449.33,74.88L449.69,73.28L450.05,72.2L450.41,74.76L450.78,57.09L451.14,59.12L451.5,71.16L451.86,71.96L452.22,79.85L452.59,67.29L452.95,68.13L453.31,74.05L453.67,72.94L454.04,81.13L454.76,73.36L455.12,74.13L455.49,73.77L455.85,71.06L456.21,74.15L456.57,81.16L457.3,80.76L457.66,79.8L458.38,85.63L458.75,76.59L459.11,87.02L459.47,80.59L459.83,78.77L460.2,79.47L460.56,70.17L460.92,70.11L461.28,58.92L462.37,77.59L462.73,75.06L463.46,78.12L463.82,71.16L464.54,81.6L464.91,74L465.63,87.01L465.99,85.63L466.36,83.73L466.72,85.13L467.08,96.66L467.81,83.74L468.17,87.56L468.53,86.33L468.89,81.45L469.26,85.42L469.62,85.09L469.98,84.9L470.34,86.32L470.71,79.99L471.07,109.18L472.15,126L472.52,126.22L472.88,125.08L473.24,125.2L473.6,125.67L473.97,123.42L474.33,133.6L475.05,128.28L475.42,132.51L475.78,130.85L476.14,119.86L476.5,109.06L476.87,124.87L477.59,113.94L477.95,117.07L478.31,118.98L479.04,104.21L479.4,116.35L480.85,101.7L481.21,81.36L482.66,97.73L483.03,92.96L483.39,89.8L483.75,73.19L485.2,93.15L485.56,89.25L485.92,88.78L486.29,72.25L487.74,89.21L488.1,91.8L488.46,89.4L488.82,75.54L489.55,78.92L489.91,90L491,84.63L491.36,93.63L491.72,74.86L492.08,89.97L492.45,92.26L492.81,91.61L493.17,93.12L493.53,93.12L493.9,88.13L494.26,82.44L494.62,89.16L494.98,102.33L495.35,99.48L495.71,100.8L496.07,100.8L496.43,80.26L496.79,65.98L497.16,77.24L497.52,87.13L498.24,86.41L498.61,85.4L499.33,56.23L499.69,73.86L500.06,75.95L500.42,84.18L501.14,82.57L501.51,67.65L501.87,60.22L502.23,70.11L502.59,85.32L502.96,83.37L503.32,82.45L503.68,79.8L504.04,71.15L504.4,66.15L504.77,70.62L505.13,86.08L506.22,79.62L506.58,67.16L508.03,93.95L508.39,89.97L508.75,88.2L509.48,61.54L509.84,74.82L510.2,90.01L510.56,88.75L510.93,87.71L511.29,87.06L511.65,83.02L512.01,77.54L512.38,89.01L513.46,105.42L513.83,100.9L514.19,88.38L514.55,98.36L514.91,110.21L515.64,107.47L516,118.12" style="vector-effect: non-scaling-stroke; fill: none; stroke: rgb(99, 110, 250); stroke-opacity: 1; stroke-width: 2px; opacity: 1;"/></g><g class="points"/><g class="text"/></g><g class="trace scatter tracef5ab95" style="stroke-miterlimit: 2; opacity: 1;"><g class="fills"/><g class="errorbars"/><g class="lines"><path class="js-line" d="M0,77.11L0.36,73.77L0.72,77.21L1.09,78.86L1.45,79.87L1.81,78.92L2.17,83.28L2.54,97.29L2.9,91.2L3.26,83.48L4.35,88.25L4.71,73.58L5.44,92.65L5.8,81.86L6.16,79.92L6.52,90.61L7.25,75.52L7.61,83.85L8.7,72.07L9.06,77.43L9.42,78.46L9.78,76.64L10.51,89.17L10.87,78.02L11.96,69.8L12.32,72.32L13.41,80.04L13.77,74.59L14.13,99.54L14.49,65.48L14.86,69.59L15.22,82.32L15.58,75.03L15.94,94.53L16.31,75.38L17.03,76.24L17.39,75.2L17.76,85.61L18.12,82.19L18.48,80.95L19.21,87.41L19.57,79.9L19.93,80.24L20.29,94.83L21.02,85.81L21.38,90.67L22.1,96.31L22.47,90.28L22.83,96.51L23.19,94.59L23.55,90.47L23.92,92.07L24.28,89.94L25,76.46L25.37,90.08L26.09,83.96L26.45,86.96L27.18,74.17L27.54,77.15L27.9,114.11L28.99,107.56L29.35,108.25L30.08,106.45L30.44,115.03L31.16,109.5L31.53,110.58L31.89,114.93L32.61,101.73L32.97,105.26L34.06,100.1L34.42,97.67L34.79,100.9L35.15,95.78L35.51,97.99L35.87,92.24L36.96,109.57L37.32,106.98L37.69,103.99L38.05,107.34L38.41,106.62L38.77,97.54L39.13,90.29L39.5,96L39.86,103.68L40.22,100.7L40.58,112.77L40.95,99.61L41.31,101.18L41.67,101.21L42.03,104.5L42.4,86.15L43.48,101L43.85,99L44.21,93.8L44.57,94.88L44.93,87.08L45.29,78.36L45.66,89.2L46.02,90.3L46.38,88.15L46.74,88.78L47.11,100.03L47.83,81.68L48.19,90.83L48.56,89.68L48.92,92.75L49.64,90.95L50.01,78.6L50.37,75.11L50.73,86.77L51.09,88.59L51.46,87.01L51.82,82.38L52.18,85.14L52.54,78.12L52.9,75.93L53.27,91.62L53.63,87.32L54.72,89.14L55.44,72.91L55.8,76.65L56.17,84.48L56.53,89.66L56.89,80.23L57.25,82.95L57.62,70.66L57.98,71.85L58.34,79.33L59.06,86.51L59.43,85.76L59.79,84.62L60.15,83.73L60.51,79.55L60.88,89.11L61.6,88.74L61.96,88.79L62.69,76.82L63.05,71.91L64.14,84.52L64.5,82.59L64.86,83.66L65.22,61.71L66.31,74.81L66.67,68.47L67.04,73.44L67.4,70.47L67.76,59.5L68.49,79.52L68.85,73.39L69.21,70.67L69.94,62.15L70.3,62.39L70.66,69.13L71.02,70.12L71.38,74.94L71.75,75.9L72.11,73.4L72.47,71.55L72.83,57.44L74.28,88.91L74.65,77.79L75.01,77.32L75.37,49.15L76.1,79.35L76.46,69.74L76.82,73.99L77.18,75.17L77.54,74.44L77.91,64.86L78.27,61.95L78.63,73.89L78.99,69.84L79.36,80.04L80.44,50.21L80.81,59.24L81.89,70.57L82.26,66.63L82.62,71.53L82.98,51.17L83.71,71.17L84.07,68.2L84.43,69.95L85.15,59.75L85.52,98.67L86.24,125.18L86.6,114.23L86.97,116.79L87.33,96.76L87.69,96.71L88.05,73.75L88.42,74.44L88.78,95.1L89.87,84.7L90.23,93.09L90.59,66.11L90.95,69.68L91.31,81.42L91.68,85.92L92.04,79.96L92.4,69.57L93.13,69.69L93.49,65.04L94.58,76.23L94.94,75.83L95.3,75.91L95.66,60.8L96.39,72.7L96.75,68.35L97.11,64.74L97.47,65.45L97.84,69.05L98.2,60.68L98.92,60.82L99.29,60.94L100.37,73.44L100.74,63.19L101.46,73.05L101.82,72.82L102.19,69.85L102.91,75.54L103.27,57.15L104,75.62L104.36,71.7L104.72,66.04L105.45,77.01L105.81,58.2L106.53,86.09L106.9,75.93L107.26,72.59L107.62,79.63L107.98,70.3L108.35,53.37L108.71,76.87L109.79,62.53L110.16,72.92L110.52,66.1L110.88,68.75L111.24,85.76L111.61,87.48L111.97,74.07L112.33,74.96L112.69,74.15L113.06,72.69L113.42,68.84L113.78,70.95L114.14,73.22L114.51,61.32L114.87,62.01L115.23,74.97L115.59,75.57L115.96,62.97L116.68,73.74L117.04,60.7L117.4,59.89L117.77,60.83L118.13,60.1L118.49,54.35L118.85,68.82L119.22,67.25L119.58,56.91L120.67,68.29L121.03,92.37L121.39,105.47L121.75,104.79L122.12,88.58L123.56,78.7L123.93,101.42L124.29,100.69L124.65,82.03L125.01,84.14L125.38,96.18L126.1,82.74L126.46,89.08L126.83,110.19L127.19,79.71L128.64,126.07L129,166.33L129.36,227.09L129.72,222.26L130.09,81.82L130.45,83.3L130.81,80.99L131.17,81.72L131.54,88.48L131.9,79.74L132.26,91.16L132.99,83.81L133.35,88.54L134.44,82.47L134.8,90.49L135.88,97.78L136.25,83L137.7,108.87L138.06,103.86L138.78,93.97L139.15,98.91L139.87,102.81L140.23,97.47L140.6,94.37L140.96,98.94L141.32,115.1L141.68,102.06L142.04,96.98L142.41,94.26L142.77,95.8L143.13,102.2L143.86,90.21L144.22,105.53L145.31,98.63L145.67,98.56L146.03,96.8L146.39,80.96L147.12,107.41L147.48,102.5L147.84,99.62L148.21,108.17L148.57,97.47L148.93,94.25L149.29,105.45L149.65,106L150.02,96.75L150.74,102.89L151.1,101.68L151.47,98.32L151.83,97.57L152.19,103.24L154.37,95.89L154.73,103.82L155.09,105.01L155.45,102.27L156.18,114.88L156.54,98.49L157.99,115.3L158.35,107.1L158.71,110.37L159.08,130.74L159.44,120.09L159.8,129.34L160.16,123.66L160.53,117.93L160.89,125.6L161.97,103.79L162.34,116.13L163.06,104.77L163.42,107.58L163.79,104.14L165.24,115.07L165.6,103.53L165.96,106.05L166.32,104.88L166.69,96.8L167.41,109.95L167.77,106.76L168.13,103.66L168.5,108.31L168.86,103.94L169.22,90.58L169.95,104.57L170.31,94.78L170.67,99.92L171.4,99.84L171.76,102.09L172.12,92.66L172.48,95.63L172.85,109.91L173.21,96.96L173.57,109.79L173.93,102.92L174.66,75.42L175.02,76.73L175.38,81.62L175.74,78.12L176.11,79.01L176.47,86.6L176.83,66.22L177.19,70.39L177.56,83.69L178.28,78.67L178.64,82.4L179.01,81.67L179.37,62.55L180.09,84.01L180.46,72.73L181.54,85.69L181.9,65.26L182.99,82.9L183.35,78.93L183.72,69.1L185.17,93.62L185.53,79.49L185.89,86.01L186.25,84.81L186.62,80.22L186.98,66.19L187.34,71.62L187.7,77.16L189.51,68.08L189.88,70.41L190.24,70.21L190.6,71.1L190.96,74.6L191.33,64.93L191.69,65.28L192.05,42.57L193.14,67.6L193.5,155.19L194.59,82.99L194.95,86.03L195.31,90.46L195.67,88.52L196.04,93.44L196.4,100.14L196.76,98.96L197.12,130.39L197.49,125.04L197.85,127.35L198.21,130.46L198.57,126.09L198.94,128.58L199.3,129.07L200.02,112.65L200.38,117.78L201.47,109.5L201.83,106.85L202.2,108.23L202.56,113.82L203.28,114.04L205.1,93.18L205.46,97.37L206.54,100.09L206.91,96.59L207.27,96.18L207.63,97.59L207.99,93.62L208.36,96.1L208.72,96.31L209.08,97.22L209.44,96.66L209.81,82.71L210.17,83.17L210.53,87.64L211.26,87.34L211.62,88.23L211.98,90.51L212.34,78.4L212.71,79.13L213.07,81.75L213.43,85.39L213.79,81.89L214.15,82.07L215.24,92.38L215.6,84.94L216.69,86.63L217.05,90.75L217.42,74.32L217.78,82.69L218.14,79.97L219.59,88.44L219.95,78.57L220.68,93.68L221.04,85.03L221.4,85.43L221.76,84.6L222.13,96.1L222.49,79.39L222.85,105.09L223.21,101.54L223.58,100.28L223.94,90.75L224.3,92.21L224.66,93.99L225.03,94.66L225.39,98.02L225.75,98.41L226.11,100.13L227.56,77.74L227.92,88.76L229.01,76.64L229.37,86.02L230.1,89.95L230.46,74.72L230.82,77.83L231.19,74.42L231.55,69.65L231.91,76.15L232.27,71.94L232.63,72.77L233,88.5L233.72,68.1L234.08,76.34L234.45,74.94L234.81,75.28L235.17,65.69L235.53,82.4L235.9,72.33L236.26,71.12L236.98,73.84L237.35,69.11L237.71,90.58L238.07,87.23L238.43,88.22L239.16,77.75L239.52,81.58L239.88,81.47L240.24,86.77L240.97,95.74L241.33,88.6L242.06,84.11L242.42,87.01L243.51,102.01L243.87,93.81L244.23,92.32L244.59,95.67L245.32,88.27L245.68,89.85L246.04,96.15L247.49,79.38L247.85,83.05L248.58,98.89L248.94,90.55L249.3,90.03L249.67,96.54L250.03,96.76L250.39,92L251.12,107.39L251.48,99.92L251.84,105.08L252.2,97.91L252.56,101.77L252.93,100.1L253.29,141.15L253.65,138.64L254.01,107.75L254.38,108.89L254.74,118.51L255.1,103.94L255.46,121.37L255.83,139.29L256.19,131.22L256.55,114.46L256.91,111.68L257.28,119.58L258.72,150L259.09,131.99L260.54,153.61L260.9,166.38L261.99,276.57L262.35,105.45L263.44,87.42L263.8,92L264.16,85.35L264.52,88.14L264.88,85.99L265.25,80.86L265.61,83.81L265.97,95.5L267.06,82.31L267.42,84.72L268.51,99.38L268.87,98.76L269.23,92.01L269.6,93.05L269.96,91.06L270.32,89.1L270.68,95.77L271.04,105.44L271.41,100.43L271.77,92.69L272.13,93.94L272.49,98.61L272.86,83.76L273.22,92L273.58,134.16L273.94,100.57L274.31,102.63L274.67,105.12L275.03,113.26L275.39,111.67L275.76,101.46L276.48,115.9L276.84,109.75L277.21,110.93L277.57,117.99L277.93,116.25L278.29,108.68L279.02,112.41L279.38,109.28L279.74,105.2L280.1,108.54L280.47,115.1L280.83,103.24L281.19,117L281.55,117.01L281.92,110.61L283,105.96L283.37,111.18L283.73,101.72L284.45,101.97L284.81,102.78L285.18,103.56L285.54,100.23L285.9,96.91L286.26,103.05L286.63,104.07L286.99,107.71L287.35,107.99L287.71,109.5L288.08,110.17L288.44,106.84L289.16,115.36L289.53,103.94L289.89,102.16L290.25,103.75L290.61,96.88L291.34,113.69L291.7,108.88L292.06,101.09L292.42,103.34L292.79,110.92L293.15,98.55L293.51,101.13L293.87,118.61L294.24,118.47L294.6,108.36L294.96,109.71L295.32,108.2L295.69,139.43L296.77,160.7L297.13,154.7L297.5,152.47L297.86,155L298.22,144.74L298.58,162.9L299.67,167.99L300.03,167.87L300.4,168.5L300.76,160.22L301.48,155.99L301.85,163.66L302.57,157.71L302.93,166.19L304.38,184.16L304.74,168.04L305.11,163.44L305.47,169.26L305.83,174.15L306.19,156.61L306.92,167.61L307.28,166.44L307.64,163.53L308.01,161.33L308.37,166.61L309.09,154.28L309.46,165.93L310.54,149.52L310.9,150.7L311.99,161.45L312.35,157.46L313.08,147.74L313.44,152.11L313.8,144.61L314.17,153.39L314.53,161.32L314.89,152.57L315.25,157.89L315.62,156.15L315.98,145.45L316.7,160.34L317.06,160.25L317.43,143.57L317.79,144.52L318.15,141.63L318.51,150.38L318.88,143.97L319.24,144.54L319.6,155.51L319.96,144.96L320.33,148.11L320.69,141.87L321.05,151.8L321.41,137.71L321.78,144.59L322.14,146.43L323.95,134.53L324.31,134.22L324.67,146.25L325.04,137.91L325.4,138.13L325.76,143.37L326.12,138.08L326.49,132.06L327.21,134.16L327.57,128.09L327.94,124.32L328.3,129.09L328.66,128.33L329.02,131.12L329.38,133.35L329.75,132.45L330.11,125.41L330.47,124.12L330.83,125.54L331.2,128.05L331.56,124.36L331.92,125.69L332.28,128.41L333.73,121.87L334.1,126.5L334.46,119.98L334.82,130.79L335.91,123.14L336.27,120.3L336.63,115.86L336.99,118.4L337.36,130.1L338.44,124.35L338.81,125.17L339.17,114.1L339.53,114.05L339.89,124.35L340.26,123.83L340.62,122.03L340.98,120.07L341.34,111.9L342.43,128.01L342.79,124.79L343.15,122.76L343.52,125.66L343.88,123.15L344.24,112.54L345.33,132.13L345.69,123.29L346.42,119.15L346.78,125.26L347.5,136.12L347.87,129.4L348.95,119.63L349.31,135.96L350.4,131.24L350.76,138L351.49,139.47L351.85,169.61L352.94,150.26L353.3,145.69L354.03,141.18L354.39,109.46L355.11,113.24L355.47,112.71L355.84,107.93L356.56,106.42L356.92,95.65L357.65,106.43L358.01,104.39L358.37,106.11L359.46,95.75L359.82,103.19L360.91,92.75L361.27,94.88L361.63,92.12L362,98.08L362.72,104.07L363.08,95.46L363.45,94.54L363.81,97.26L364.17,96.53L364.53,105.71L365.62,94.27L365.98,92.05L366.35,88.4L366.71,89.89L367.07,100.47L368.16,94.3L368.52,95.18L368.88,96.36L369.24,96.58L369.61,106.36L369.97,112.46L370.33,102.22L371.06,101.14L371.42,96.18L372.51,114.9L372.87,95.96L373.23,96.91L373.59,96.26L373.96,93.67L374.32,91.99L374.68,99.83L375.77,95.44L376.13,95.21L376.49,95.58L376.85,94.2L377.58,112.67L377.94,104.7L378.3,100.32L378.67,101.61L379.03,100.72L379.39,110.84L379.75,110.18L380.12,121.97L380.48,121.55L380.84,111.15L381.2,110.43L381.56,110.66L381.93,110.76L382.29,111.09L382.65,122.72L383.38,112.71L383.74,117.03L384.1,113.65L384.46,117.83L384.83,116.37L385.19,132.89L385.55,161.21L385.91,131.08L386.28,132.92L387,127.58L387.36,124.46L388.09,131.86L388.45,110.67L390.26,158.89L390.62,155.63L390.99,131.55L391.71,141.48L392.07,152.74L392.8,167.83L393.16,181.75L393.52,190.26L393.88,274.74L394.25,270.95L394.61,118.57L394.97,118.92L395.33,116.31L396.42,94.12L396.78,108.81L397.15,103.8L397.51,104.67L397.87,108.94L398.6,103.02L398.96,110.28L399.68,104.26L400.04,112.86L400.41,118.57L400.77,107.86L401.49,114.88L401.86,114.57L402.22,117.57L402.94,138.88L403.31,131.59L403.67,122.98L404.03,121.56L404.39,112.65L404.76,110.05L405.12,115.7L405.84,162.59L406.21,128.34L407.29,113.05L407.65,118.19L408.38,119.1L408.74,105.53L409.1,110.45L409.47,108.54L409.83,108.81L410.19,111L410.55,118.03L411.28,102.15L411.64,102.5L412,104.39L412.37,105.11L412.73,112.3L413.45,113.81L413.81,110.29L414.54,110.93L414.9,106.04L415.63,102.01L415.99,103.54L416.35,103.86L416.71,97.91L417.08,101.83L417.44,109.38L417.8,106.74L418.16,111.83L418.89,100.78L419.25,102.95L419.61,102.58L419.97,98.87L420.34,110.42L422.15,94.51L422.51,98.15L423.6,111.4L423.96,105.34L424.69,100.93L425.05,101.51L425.41,110.72L426.13,129.07L426.5,115.22L426.86,107.44L427.22,110.9L427.58,114.48L427.95,96.17L428.31,113.11L428.67,105.01L429.4,98.03L429.76,101.96L430.12,102.76L430.48,114.78L430.85,137.73L431.21,122.24L431.57,112.9L431.93,107.43L432.29,109.08L432.66,110.99L433.74,140.39L434.11,106.9L434.47,111.92L434.83,110.25L435.19,109.83L435.92,142.23L436.28,120.75L437.37,110.85L437.73,112.68L438.46,137.18L438.82,113.48L439.18,117.63L439.54,104.44L440.63,118.34L440.99,143.88L442.08,106.04L442.44,106.01L442.8,108.54L443.17,126.57L443.53,148.13L443.89,137.36L444.25,107.67L444.98,110.56L445.34,106.03L446.06,151.28L446.43,119.87L447.15,104.73L447.51,109.81L447.88,117.24L448.6,150.64L448.96,118.12L449.33,115.09L449.69,124.38L450.78,117.96L451.14,133.18L451.86,109.49L452.22,111.23L452.59,110.08L452.95,111.2L453.31,133.68L453.67,144.62L454.04,136.18L454.4,118.16L455.49,109.59L455.85,122.24L456.21,133.3L456.57,116.86L456.94,111.85L457.3,113.71L457.66,114.09L458.02,116.37L458.38,142.48L459.83,111.8L460.2,119.58L460.92,116.3L461.28,130.85L462.37,100.88L462.73,102.68L463.1,106.67L463.82,129.11L464.18,109.15L464.54,100.12L464.91,101.71L465.27,103L465.63,104.95L465.99,126.2L466.36,134.35L466.72,128.7L467.08,116.67L467.44,116.04L467.81,113.56L468.17,115.43L468.53,121.29L468.89,130.42L469.26,119.78L470.71,107.47L471.07,145.94L471.43,149.93L471.79,142.86L472.52,144.84L472.88,150.03L473.24,141.04L473.6,155.95L473.97,163.39L474.33,152.16L475.42,149.61L475.78,153.55L476.14,155.86L476.5,163.53L477.59,143.09L477.95,143.21L478.31,138.93L479.04,139.02L479.4,135.52L479.76,136.53L480.13,141.18L480.85,128.15L481.21,135.49L481.58,134.91L481.94,126.5L482.3,134.75L482.66,128.81L483.03,119.51L483.39,115.67L483.75,118.35L484.11,133.21L485.56,120.44L485.92,121.39L487.01,135.1L487.37,127.6L487.74,126.69L488.1,121.08L489.19,134.18L489.55,126.57L489.91,125.92L490.27,120.1L491.36,122.46L491.72,129.45L492.45,117.3L492.81,119.24L493.17,122.19L494.26,135.65L494.62,125.47L495.35,114.71L495.71,125.33L496.79,115.88L497.16,117.92L497.88,110.16L498.24,118.73L498.61,116.06L498.97,123.75L499.69,127.13L500.06,112.36L500.42,112.13L500.78,118.61L501.14,126.97L501.51,124.96L501.87,122.44L502.23,126.2L502.59,105.02L502.96,117.99L503.32,103.85L504.04,122.57L504.4,121.46L504.77,113.43L505.85,99.28L506.22,100.18L507.3,109.86L507.67,100.44L508.03,114.33L508.39,103.04L508.75,104.88L509.12,117.44L509.48,116.68L509.84,109.88L510.2,105.58L510.56,106.93L510.93,106.56L511.65,137.96L512.01,130.71L512.38,123.91L513.1,114.29L513.46,124.47L514.19,113.35L514.55,120.39L514.91,124.54L515.28,104.89L516,113.1" style="vector-effect: non-scaling-stroke; fill: none; stroke: rgb(239, 85, 59); stroke-opacity: 1; stroke-width: 2px; opacity: 1;"/></g><g class="points"/><g class="text"/></g><g class="trace scatter tracede82ff" style="stroke-miterlimit: 2; opacity: 1;"><g class="fills"/><g class="errorbars"/><g class="lines"><path class="js-line" d="M0,102.2L0.36,103.21L0.72,101.03L1.09,96.82L1.45,102.84L1.81,103.62L2.17,116.08L2.54,117.79L2.9,108.18L3.62,94.94L3.99,98.03L4.35,103.93L4.71,105.87L5.07,98.38L5.8,87.38L6.16,100.43L6.52,99.47L6.88,103.37L7.97,89.11L8.33,89.84L8.7,95.27L9.78,107.69L10.15,102.32L10.87,87.79L11.23,93.17L11.6,94.4L11.96,95.17L12.32,102.54L12.68,104.28L13.04,91.98L13.41,84.66L13.77,97.28L14.13,103.83L14.49,100.7L14.86,102.65L15.22,92.68L15.58,94.97L15.94,94.28L16.31,89.94L16.67,94.64L17.39,100.58L17.76,91.88L18.48,95.02L18.84,100.83L19.57,94.06L19.93,105.68L20.65,95.96L21.02,96.31L21.38,105.58L21.74,98.97L22.1,103.64L22.47,110.41L22.83,110.42L23.19,102.69L24.64,102.77L25,108.97L26.09,87.13L26.45,87.7L27.18,82.01L27.54,95.06L28.63,124.13L28.99,121.93L29.35,103.05L29.71,113.23L30.08,118.31L30.8,108.69L31.16,117.55L31.53,122.48L31.89,120.5L32.25,119.21L32.61,120.93L32.97,127.34L33.34,129.03L33.7,123.59L34.06,123.36L34.42,117.11L34.79,111.98L35.15,116.15L35.51,119.89L35.87,107.94L36.24,114.07L36.6,130.56L36.96,125.15L37.32,125.82L37.69,130.35L38.05,130.64L38.41,124.14L39.5,103.97L39.86,106.7L40.22,105.54L40.58,113.36L40.95,112.08L41.31,98.26L41.67,92.87L42.03,94.92L42.4,96.23L42.76,98.25L43.12,91.53L43.48,92.14L43.85,91.11L44.21,101.73L44.57,93.88L44.93,89.66L45.66,83.46L46.02,86.69L46.38,86.25L46.74,89.49L47.11,81.46L47.47,88.91L47.83,86.39L48.19,88.24L48.56,84.31L48.92,92.99L49.28,92.65L49.64,90.49L50.01,86.24L50.37,92.46L51.82,103.14L52.18,101.75L52.54,84.76L52.9,101.11L53.27,100.81L53.63,92.21L54.72,91.39L55.44,96.34L55.8,92.95L56.17,99.22L56.53,96.01L56.89,98.57L57.25,97.66L57.62,104.41L58.7,89.95L59.06,96.97L59.43,87.76L59.79,111.86L60.15,103.5L60.51,110.07L60.88,108.49L61.24,96.16L61.6,96.79L61.96,102.26L62.33,98.88L62.69,104.48L63.05,99.97L63.41,100.45L63.78,101.02L64.86,112.75L65.22,95.41L65.95,100.97L66.31,97.72L66.67,98.5L67.04,108.31L67.76,95.75L68.12,101.82L69.21,90.74L69.57,92.87L69.94,93.49L70.3,90.19L70.66,91.77L71.02,110.96L72.11,88.29L72.47,91.3L72.83,82.89L73.2,95.03L73.56,95.6L73.92,101.12L74.28,99.6L74.65,101.03L75.01,91.76L75.37,81.22L75.73,88.78L76.1,93.86L76.82,83.23L77.18,86.63L77.54,89.79L77.91,84.27L78.63,100.18L78.99,87.26L80.08,93.41L80.44,89.77L80.81,80.76L81.17,88.99L81.53,90.7L81.89,87.76L82.26,91.46L82.62,90.82L82.98,86.77L83.34,80.12L83.71,88.71L85.15,80.8L85.52,124.7L85.88,113.78L86.24,131.92L87.33,109.92L87.69,114.18L88.05,101.45L88.42,102.93L88.78,110.81L89.87,96.33L90.23,106.23L90.95,98.91L91.31,103.84L92.04,89.72L92.4,95.79L92.76,96.78L93.13,95.21L93.49,98.41L93.85,93.29L94.21,81.95L94.58,82.56L94.94,84.45L95.66,95.87L96.03,94L96.39,89.14L96.75,81.53L97.11,88.26L97.47,91.45L97.84,90.88L98.2,94.86L98.56,103.46L98.92,95.53L99.29,84.98L99.65,103.23L100.01,97.9L100.37,93.83L101.1,110.71L101.46,95.69L102.19,88.25L102.55,90.79L104,108.93L104.36,86.65L106.17,113.73L106.53,117.14L107.26,99.27L107.62,102.2L107.98,97.64L108.35,99.09L108.71,110.12L109.07,99.92L109.43,105.04L109.79,106.61L110.52,100.58L110.88,104.71L111.24,117.73L111.61,113.5L111.97,103.82L112.69,115.53L113.06,110.09L113.42,102.73L113.78,104.26L114.14,104.49L114.87,96.9L115.23,103.65L115.59,95.36L115.96,104.51L116.32,104.71L116.68,101.4L117.04,92.89L117.4,93.27L118.13,97.21L118.85,102.3L119.22,97.04L119.94,87.53L120.3,103L121.75,127.12L122.12,108.37L122.48,101.99L122.84,103.34L123.2,108.14L124.29,132.97L124.65,107.47L125.38,125.01L125.74,121.72L126.1,111.6L126.46,123.57L126.83,121.49L127.19,105.84L127.55,107.8L127.91,125.62L129.36,230.3L129.72,220.77L130.09,115.23L130.81,102.99L131.17,103.85L131.54,114.78L132.26,100.69L132.62,103.62L132.99,108.32L133.35,111.39L133.71,107.85L134.07,114.28L134.44,112.93L134.8,113.27L135.16,113.95L135.52,121.81L136.25,120.4L136.61,125.77L137.33,104.19L137.7,118.55L138.06,115.66L138.42,117.61L138.78,122.97L139.15,126L139.51,122.86L139.87,109.93L140.23,110.01L140.6,114.85L141.32,119.6L141.68,130.74L142.77,114.46L143.13,117.08L143.49,118.02L143.86,122.01L144.58,115.81L144.94,115.88L145.31,125.31L146.03,111.86L146.39,112.98L146.76,119.1L147.12,126.87L147.48,114.11L148.21,123.92L148.57,122.25L148.93,118.87L149.65,123.66L150.02,118.77L151.1,126.34L151.47,121.26L152.19,129.66L152.55,120.17L152.92,116.54L153.28,122.1L153.64,121.54L154,116.6L154.73,119.21L155.09,116.89L155.45,114.23L155.81,119.23L156.18,119.84L156.54,116.94L156.9,117.29L157.26,124.85L157.63,114.32L157.99,118.26L158.35,117.98L158.71,120.52L159.08,139.95L159.44,126.3L159.8,135.41L160.16,129.8L160.53,127.12L160.89,132.79L161.25,123.17L161.61,123.86L161.97,131.32L162.34,132.21L162.7,130.14L163.42,127.39L163.79,139.9L164.15,139.3L164.51,145.42L165.24,133.69L165.6,128.35L165.96,132.72L166.32,131.41L166.69,122.82L167.41,136.01L167.77,116.78L168.13,122.53L168.5,121.14L168.86,118.77L169.22,116.88L169.58,118.99L169.95,130.82L170.31,114.61L170.67,118.37L171.03,118.83L171.4,117.95L171.76,125.61L172.12,121.4L172.48,129.61L172.85,121.21L173.21,129.82L173.57,135L174.29,114.1L174.66,114.79L175.02,117.4L176.11,102.73L176.47,104.93L176.83,107.58L177.19,103.4L177.56,110.57L177.92,97.32L179.01,109.71L179.37,89.99L179.73,91.22L180.09,103.98L180.46,94.09L180.82,98.97L181.18,102.33L181.54,107.28L181.9,99.09L182.63,101.39L182.99,96.88L183.35,98.15L183.72,90.87L184.08,93.33L184.44,117.67L184.8,112.41L185.17,123.01L186.25,105.67L186.62,100.83L186.98,94.93L187.34,97.15L187.7,101.91L188.79,99.15L189.15,92.91L189.51,101.32L189.88,91.33L190.24,97.79L190.6,96.87L190.96,95.8L191.33,99.04L191.69,91.12L192.05,80.26L192.41,80.83L192.78,89.85L193.14,101.32L193.5,170.99L194.59,118.36L194.95,119.13L195.31,126.88L196.04,111.62L196.4,112.62L196.76,121.31L197.85,156.32L198.21,149.44L198.57,147.46L198.94,148.09L199.3,148.25L200.02,132.1L200.38,137.05L201.47,125.83L201.83,127.28L202.56,120.59L202.92,126.97L203.65,114.47L204.01,114.61L204.37,121.5L205.1,115.06L205.46,124.06L206.54,114.72L206.91,116.52L207.27,115.57L207.63,115.74L207.99,125.52L208.36,117.46L208.72,117.6L209.08,123.21L209.81,102.78L210.17,107.84L210.53,110.38L211.26,97.26L211.62,100.4L211.98,101.28L212.34,102.85L212.71,108.68L213.43,95.05L213.79,107.33L214.52,101.22L214.88,125.24L216.33,100.65L216.69,109.86L217.05,108.64L217.42,103.63L218.14,112.82L218.5,100.09L219.95,112.72L220.31,111.52L220.68,109.1L221.4,99.63L221.76,106.13L222.13,100.9L222.49,113.98L223.21,126.22L223.58,114.1L223.94,113.61L224.3,120.62L225.39,112.71L225.75,123.46L227.56,105.93L227.92,113.4L228.65,100.85L229.01,103.83L229.37,106.02L229.74,114.19L230.1,108.53L230.46,109.23L231.19,97.56L231.55,98.83L231.91,108.05L232.27,99.79L232.63,108.58L233,116.73L233.36,114.56L233.72,100.34L234.08,100.53L234.45,102.07L235.17,91.02L235.53,103.86L235.9,107.04L236.26,94.21L237.35,100.44L237.71,120.41L238.07,124.05L238.43,123.7L238.79,119.34L239.88,110.06L240.24,114.21L240.97,113.11L241.33,103.55L241.69,103.82L242.06,106.68L243.14,124.47L243.51,112.41L244.23,112.64L244.59,110.39L245.68,123.52L246.04,121.02L246.4,109.09L246.77,118.87L247.13,119L248.22,129.94L248.58,133.85L249.3,127.85L249.67,130.89L250.03,128.46L250.39,128.69L250.75,137.55L251.12,138.51L251.48,134.18L252.56,123.65L252.93,136.84L253.29,178.42L253.65,160.09L254.01,139L254.38,134.13L254.74,144.17L255.1,148.19L255.46,163.11L255.83,172.34L256.19,167.75L256.55,141.6L257.28,152.37L257.64,150.42L258.36,171L258.72,164.17L259.09,153.18L259.81,162.57L260.17,170.83L261.26,217.44L261.62,304L261.99,276.39L262.35,143.55L263.07,128.66L263.44,135.92L263.8,132.79L264.16,140.85L265.25,117.06L265.61,129L265.97,128.99L266.33,130.58L266.7,124.54L267.06,130.65L267.42,124.71L267.78,124.89L268.51,133.6L268.87,131.03L269.23,112.46L269.6,112.83L269.96,126.55L270.68,132.39L271.04,153.55L271.77,120.3L272.13,120.91L272.49,131.41L273.22,141.18L273.58,152.27L274.67,132.47L275.03,133.39L275.39,139.33L275.76,138.02L276.12,141.74L276.48,148.21L276.84,136.84L277.57,163.24L277.93,148.75L278.29,140.99L278.65,153.7L279.02,152.3L279.38,136.87L279.74,139.39L280.1,134.81L280.83,152.12L281.19,151.82L281.55,147.39L281.92,129.1L282.28,134.24L282.64,134L283,133.59L283.37,149.71L283.73,163.19L284.09,149.43L284.45,134.58L284.81,136.94L285.18,128.36L286.26,142.96L286.63,138.56L287.35,136.81L287.71,139.6L288.08,141.38L288.44,132.01L289.16,145.51L289.53,136.76L290.61,141.33L290.97,147.91L291.34,147.69L291.7,152.69L292.42,137.49L292.79,150.96L293.15,137.51L293.51,145.98L293.87,151.87L294.24,149.89L294.6,135.1L295.32,141.33L295.69,191L296.77,206.68L297.13,179.46L297.5,189.01L297.86,184.45L298.22,187.52L298.58,209.38L298.95,206.6L299.31,200.68L299.67,201.2L300.03,194.88L300.4,193.44L300.76,194.31L301.12,198.58L301.48,198.94L301.85,189.62L302.21,176.44L302.57,186.34L302.93,190.41L304.02,215.42L304.38,216.41L304.74,198.57L305.11,202.08L305.47,219.16L307.28,189.97L307.64,192L308.01,190.81L308.37,194.03L308.73,187.62L309.09,193.16L309.46,192.23L310.18,178.77L310.54,182.2L311.27,179.39L311.63,185.68L311.99,187.9L312.35,181.76L312.72,185.91L313.08,185.81L313.44,184.05L314.17,181.06L314.89,181.26L315.25,184.09L315.98,180.82L316.34,169.3L317.43,185.61L317.79,178.76L318.15,177.38L318.51,180.27L319.24,172.62L319.6,178.27L319.96,167.89L320.33,173.74L320.69,174.46L321.05,170.09L321.41,179.14L321.78,180.76L322.14,177.15L323.22,166.9L323.59,175.99L324.67,175.31L325.04,166.8L326.12,180.95L326.49,155.08L327.21,172.13L327.57,165.23L327.94,162.33L328.3,170.78L328.66,166.82L329.02,164.79L329.75,165.35L330.11,151.45L330.83,165.36L331.2,154.21L331.56,151.55L331.92,157.18L332.65,149.1L333.01,146.77L333.37,150.41L333.73,146.52L334.1,161.67L335.91,138.95L336.27,139.96L336.63,151.69L337.36,157.67L337.72,146.9L338.08,149.97L338.44,147.31L338.81,140.01L339.89,156.08L340.26,142.49L340.62,143.21L340.98,148.49L341.34,150.82L341.71,147.14L342.07,159.78L342.43,153.62L342.79,148.79L343.88,160.85L344.24,156.53L344.6,164.04L344.97,161.72L345.33,154.85L345.69,150.92L346.05,158.2L347.14,167.27L347.5,164.95L347.87,157.39L348.23,157.49L348.59,161.94L348.95,155.8L349.31,179.07L350.04,177.93L350.4,165.64L350.76,161.82L351.13,178.53L351.49,181.41L351.85,205.43L353.3,168.44L353.66,167.24L354.03,172.86L354.39,146.47L355.11,138.73L355.47,140.2L355.84,140.23L356.2,140.9L356.56,155.73L357.29,147.76L357.65,152.4L358.01,143.07L358.37,145.55L358.74,151.95L359.46,156.36L359.82,173.01L360.91,139.37L361.27,140.38L361.63,145.47L362,135.44L362.36,144.87L362.72,140.94L363.45,127.48L363.81,129.8L364.17,130.6L364.9,153.59L365.26,133.39L365.62,123.53L366.35,124L366.71,119.4L367.43,144.48L367.79,143.2L368.16,128.84L368.52,131.11L368.88,139.12L369.97,150.01L370.33,143.13L370.69,131.5L371.06,135.96L371.42,137.47L371.78,140.47L372.14,136.86L372.51,152.01L372.87,147.82L373.23,135.89L373.59,129.61L373.96,132.12L374.32,139.04L374.68,137.29L375.04,160.44L376.49,137.95L376.85,154.96L377.58,168.08L377.94,147.87L378.3,135.24L378.67,143.63L379.03,147.55L379.75,161.13L380.12,160.55L380.48,147.99L381.56,135.12L381.93,145.54L382.65,164.06L383.01,148.7L383.38,142.72L384.1,145.61L384.46,143.49L384.83,149.83L385.19,176.31L385.55,170.6L385.91,148.02L387,157.75L387.36,177.09L387.72,199.24L388.09,169.21L388.45,140.96L388.81,151.04L389.17,157.59L389.54,161.39L389.9,176.88L390.26,195.2L390.62,182.97L390.99,162.27L392.8,222.69L393.16,213.11L393.52,220.91L393.88,290.53L394.25,286.7L394.61,172.49L396.06,158.33L396.42,178.45L397.15,158.46L397.51,161.11L397.87,163.88L398.6,138.42L398.96,148.07L399.32,146.29L400.41,174.07L400.77,167.48L401.49,149.94L401.86,159.57L402.22,161.29L402.58,194.48L402.94,204.95L403.31,184.19L404.76,152.03L405.12,168.22L405.48,184.6L405.84,170.81L406.21,166.32L406.57,163.11L406.93,163.23L407.29,166.3L408.02,195.74L408.38,165.54L409.1,158.62L409.47,176.45L409.83,186.27L410.19,174.28L410.55,171.87L411.28,149.79L413.09,175.21L413.45,167.06L413.81,157.78L414.18,158.77L414.54,162.91L415.26,176.47L415.63,194.86L416.71,155.53L417.08,157.6L418.16,182.89L418.53,165.51L419.25,155.82L419.61,156.74L420.7,176.74L421.06,163.84L421.79,151.06L422.15,154.66L422.51,154.86L423.24,176.81L423.6,163.54L424.32,143.94L424.69,149.96L425.05,156.59L425.77,207.15L426.13,186.6L426.5,155.4L426.86,153.39L427.22,159.91L427.58,160.55L427.95,152.23L428.31,169.37L428.67,164.54L429.03,143.5L430.12,162.27L430.48,193.86L430.85,198.79L431.21,181.33L431.57,163.98L431.93,167.86L432.29,169.04L433.74,196.87L434.11,184.2L434.47,160.79L434.83,166.94L435.19,175.27L435.92,190.43L436.28,187.06L436.64,169.53L437.37,183.42L437.73,169.19L438.09,190.75L438.46,183.49L438.82,187.28L439.54,158.09L439.9,166.51L440.27,168.92L440.63,172.31L440.99,184.51L441.72,154.77L442.08,169.16L442.44,160.47L442.8,169.22L443.17,198.23L443.53,205.61L443.89,194.99L444.25,158.52L444.62,161.09L444.98,168.71L446.06,200.52L446.43,186.08L446.79,171.17L447.15,171.68L447.51,174.77L447.88,173.34L448.24,186.41L448.6,197.97L448.96,184.54L449.69,170.71L450.05,181.69L450.41,171.63L450.78,172.23L451.14,181.18L451.5,184.94L451.86,174.25L452.22,162.02L452.59,169.13L452.95,168.67L453.67,197.73L454.04,184.54L454.4,172.87L456.21,192.42L456.57,178.98L456.94,168.6L457.3,168.89L457.66,171.49L458.75,192.17L459.11,178.79L459.47,169.87L459.83,179.74L460.2,181.18L460.56,179.94L460.92,180.69L461.28,191.67L461.65,178.42L462.01,160.66L462.37,171.23L462.73,181.81L463.1,180.28L463.46,173.61L464.18,157.07L464.54,157.8L464.91,167.01L465.99,178.34L466.36,194.44L467.08,150.86L467.44,156.32L467.81,154.01L468.89,187.42L469.26,172.9L470.34,164.91L470.71,173.51L471.43,214.47L471.79,201.99L472.15,186.57L473.97,217.94L474.33,208.32L475.05,197.63L475.42,205.55L475.78,206.83L476.14,202.78L476.5,197.91L476.87,205.57L477.95,184.41L478.31,182.27L478.68,179.65L479.04,202.18L480.13,177.03L480.49,177.76L480.85,183.63L481.58,204.71L481.94,186.86L482.3,173.14L482.66,176.1L483.03,187.74L483.39,183.12L483.75,193.15L484.11,194.82L484.47,189.62L484.84,177.32L485.56,177.49L485.92,173.88L486.29,184.85L486.65,183.4L487.01,180.37L487.37,170.27L487.74,172.3L488.1,177.58L489.19,189.63L489.55,178.99L489.91,173.86L490.27,175.27L490.63,183.84L491.36,177.49L491.72,187.52L493.17,178.72L493.53,188.69L494.98,165.86L495.35,162.88L495.71,164.03L496.07,168.6L496.43,166L496.79,192.15L497.52,162.92L497.88,165.91L498.24,159.53L499.33,187.5L499.69,175.39L500.06,178.74L500.42,174.73L501.14,172.69L501.51,179.33L501.87,195.12L502.23,178.45L502.59,171.54L502.96,167.99L503.32,170.17L503.68,180.85L504.4,201.25L504.77,200.26L505.13,176.65L505.49,154.05L505.85,160.78L506.22,163.58L506.58,158.66L506.94,175.98L507.3,173.79L507.67,155.75L509.12,175.04L509.48,182.35L510.2,153.19L510.56,158.86L510.93,167.51L512.01,206.81L512.38,180.39L513.46,160.5L513.83,171.11L514.19,173.8L514.55,191.38L515.28,169.63L515.64,174.28L516,172.73" style="vector-effect: non-scaling-stroke; fill: none; stroke: rgb(0, 204, 150); stroke-opacity: 1; stroke-width: 2px; opacity: 1;"/></g><g class="points"/><g class="text"/></g></g></g><g class="overplot"/><path class="xlines-above crisp" d="M0,0" style="fill: none;"/><path class="ylines-above crisp" d="M0,0" style="fill: none;"/><g class="overlines-above"/><g class="xaxislayer-above"><g class="xtick"><text text-anchor="middle" x="0" y="433" transform="translate(80,0)" style="font-family: 'Open Sans', verdana, arial, sans-serif; font-size: 12px; fill: rgb(42, 63, 95); fill-opacity: 1; white-space: pre;">2017</text></g><g class="xtick"><text text-anchor="middle" x="0" y="433" transform="translate(212.26,0)" style="font-family: 'Open Sans', verdana, arial, sans-serif; font-size: 12px; fill: rgb(42, 63, 95); fill-opacity: 1; white-space: pre;">2018</text></g><g class="xtick"><text text-anchor="middle" x="0" y="433" transform="translate(344.52,0)" style="font-family: 'Open Sans', verdana, arial, sans-serif; font-size: 12px; fill: rgb(42, 63, 95); fill-opacity: 1; white-space: pre;">2019</text></g><g class="xtick"><text text-anchor="middle" x="0" y="433" transform="translate(476.78,0)" style="font-family: 'Open Sans', verdana, arial, sans-serif; font-size: 12px; fill: rgb(42, 63, 95); fill-opacity: 1; white-space: pre;">2020</text></g></g><g class="yaxislayer-above"><g class="ytick"><text text-anchor="end" x="79" y="4.199999999999999" transform="translate(0,374.13)" style="font-family: 'Open Sans', verdana, arial, sans-serif; font-size: 12px; fill: rgb(42, 63, 95); fill-opacity: 1; white-space: pre;">−8</text></g><g class="ytick"><text text-anchor="end" x="79" y="4.199999999999999" transform="translate(0,321.82)" style="font-family: 'Open Sans', verdana, arial, sans-serif; font-size: 12px; fill: rgb(42, 63, 95); fill-opacity: 1; white-space: pre;">−7.5</text></g><g class="ytick"><text text-anchor="end" x="79" y="4.199999999999999" transform="translate(0,269.5)" style="font-family: 'Open Sans', verdana, arial, sans-serif; font-size: 12px; fill: rgb(42, 63, 95); fill-opacity: 1; white-space: pre;">−7</text></g><g class="ytick"><text text-anchor="end" x="79" y="4.199999999999999" transform="translate(0,217.19)" style="font-family: 'Open Sans', verdana, arial, sans-serif; font-size: 12px; fill: rgb(42, 63, 95); fill-opacity: 1; white-space: pre;">−6.5</text></g><g class="ytick"><text text-anchor="end" x="79" y="4.199999999999999" transform="translate(0,164.87)" style="font-family: 'Open Sans', verdana, arial, sans-serif; font-size: 12px; fill: rgb(42, 63, 95); fill-opacity: 1; white-space: pre;">−6</text></g><g class="ytick"><text text-anchor="end" x="79" y="4.199999999999999" transform="translate(0,112.56)" style="font-family: 'Open Sans', verdana, arial, sans-serif; font-size: 12px; fill: rgb(42, 63, 95); fill-opacity: 1; white-space: pre;">−5.5</text></g></g><g class="overaxes-above"/></g></g><g class="polarlayer"/><g class="ternarylayer"/><g class="geolayer"/><g class="funnelarealayer"/><g class="pielayer"/><g class="treemaplayer"/><g class="sunburstlayer"/><g class="glimages"/><defs id="topdefs-170791"><g class="clips"/><clipPath id="legend170791"><rect width="82" height="83" x="0" y="0"/></clipPath></defs><g class="layer-above"><g class="imagelayer"/><g class="shapelayer"/></g><g class="infolayer"><g class="legend" pointer-events="all" transform="translate(606.32, 100)"><rect class="bg" shape-rendering="crispEdges" width="82" height="83" x="0" y="0" style="stroke: rgb(68, 68, 68); stroke-opacity: 1; fill: rgb(255, 255, 255); fill-opacity: 1; stroke-width: 0px;"/><g class="scrollbox" transform="translate(0, 0)" clip-path="url('#legend170791')"><text class="legendtitletext" text-anchor="start" x="2" y="15.600000000000001" style="font-family: 'Open Sans', verdana, arial, sans-serif; font-size: 12px; fill: rgb(42, 63, 95); fill-opacity: 1; white-space: pre;">Oceania</text><g class="groups"><g class="traces" transform="translate(0, 30.1)" style="opacity: 1;"><text class="legendtext" text-anchor="start" x="40" y="4.680000000000001" style="font-family: 'Open Sans', verdana, arial, sans-serif; font-size: 12px; fill: rgb(42, 63, 95); fill-opacity: 1; white-space: pre;">Global</text><g class="layers" style="opacity: 1;"><g class="legendfill"/><g class="legendlines"><path class="js-line" d="M5,0h30" style="fill: none; stroke: rgb(99, 110, 250); stroke-opacity: 1; stroke-width: 2px;"/></g><g class="legendsymbols"><g class="legendpoints"/></g></g><rect class="legendtoggle" x="0" y="-9.5" width="76.09375" height="19" style="fill: rgb(0, 0, 0); fill-opacity: 0;"/></g><g class="traces" transform="translate(0, 49.1)" style="opacity: 1;"><text class="legendtext" text-anchor="start" x="40" y="4.680000000000001" style="font-family: 'Open Sans', verdana, arial, sans-serif; font-size: 12px; fill: rgb(42, 63, 95); fill-opacity: 1; white-space: pre;">au</text><g class="layers" style="opacity: 1;"><g class="legendfill"/><g class="legendlines"><path class="js-line" d="M5,0h30" style="fill: none; stroke: rgb(239, 85, 59); stroke-opacity: 1; stroke-width: 2px;"/></g><g class="legendsymbols"><g class="legendpoints"/></g></g><rect class="legendtoggle" x="0" y="-9.5" width="76.09375" height="19" style="fill: rgb(0, 0, 0); fill-opacity: 0;"/></g><g class="traces" transform="translate(0, 68.1)" style="opacity: 1;"><text class="legendtext" text-anchor="start" x="40" y="4.680000000000001" style="font-family: 'Open Sans', verdana, arial, sans-serif; font-size: 12px; fill: rgb(42, 63, 95); fill-opacity: 1; white-space: pre;">nz</text><g class="layers" style="opacity: 1;"><g class="legendfill"/><g class="legendlines"><path class="js-line" d="M5,0h30" style="fill: none; stroke: rgb(0, 204, 150); stroke-opacity: 1; stroke-width: 2px;"/></g><g class="legendsymbols"><g class="legendpoints"/></g></g><rect class="legendtoggle" x="0" y="-9.5" width="76.09375" height="19" style="fill: rgb(0, 0, 0); fill-opacity: 0;"/></g></g></g><rect class="scrollbar" rx="20" ry="3" width="0" height="0" x="0" y="0" style="fill: rgb(128, 139, 164); fill-opacity: 1;"/></g><g class="g-gtitle"/><g class="g-xtitle"><text class="xtitle" x="338" y="461.8" text-anchor="middle" style="font-family: 'Open Sans', verdana, arial, sans-serif; font-size: 14px; fill: rgb(42, 63, 95); opacity: 1; font-weight: normal; white-space: pre;">Date</text></g><g class="g-ytitle"><text class="ytitle" transform="rotate(-90,30.418750000000003,260)" x="30.418750000000003" y="260" text-anchor="middle" style="font-family: 'Open Sans', verdana, arial, sans-serif; font-size: 14px; fill: rgb(42, 63, 95); opacity: 1; font-weight: normal; white-space: pre;">loudness</text></g></g></svg>