<svg class="main-svg" xmlns="http://www.w3.org/2000/svg" xmlns:xlink="http://www.w3.org/1999/xlink" width="700" height="500" style="" viewBox="0 0 700 500"><rect x="0" y="0" width="700" height="500" style="fill: rgb(255, 255, 255); fill-opacity: 1;"/><defs id="defs-64f51d"><g class="clips"><clipPath id="clip64f51dxyplot" class="plotclip"><rect width="472" height="320"/></clipPath><clipPath class="axesclip" id="clip64f51dx"><rect x="80" y="0" width="472" height="500"/></clipPath><clipPath class="axesclip" id="clip64f51dy"><rect x="0" y="100" width="700" height="320"/></clipPath><clipPath class="axesclip" id="clip64f51dxy"><rect x="80" y="100" width="472" height="320"/></clipPath></g><g class="gradients"/></defs><g class="bglayer"><rect class="bg" x="80" y="100" width="472" height="320" style="fill: rgb(229, 236, 246); fill-opacity: 1; stroke-width: 0;"/></g><g class="layer-below"><g class="imagelayer"/><g class="shapelayer"/></g><g class="cartesianlayer"><g class="subplot xy"><g class="layer-subplot"><g class="shapelayer"/><g class="imagelayer"/></g><g class="gridlayer"><g class="x"><path class="xgrid crisp" transform="translate(200.98000000000002,0)" d="M0,100v320" style="stroke: rgb(255, 255, 255); stroke-opacity: 1; stroke-width: 1px;"/><path class="xgrid crisp" transform="translate(321.97,0)" d="M0,100v320" style="stroke: rgb(255, 255, 255); stroke-opacity: 1; stroke-width: 1px;"/><path class="xgrid crisp" transform="translate(442.95,0)" d="M0,100v320" style="stroke: rgb(255, 255, 255); stroke-opacity: 1; stroke-width: 1px;"/></g><g class="y"><path class="ygrid crisp" transform="translate(0,411.03)" d="M80,0h472" style="stroke: rgb(255, 255, 255); stroke-opacity: 1; stroke-width: 1px;"/><path class="ygrid crisp" transform="translate(0,365.53)" d="M80,0h472" style="stroke: rgb(255, 255, 255); stroke-opacity: 1; stroke-width: 1px;"/><path class="ygrid crisp" transform="translate(0,320.03)" d="M80,0h472" style="stroke: rgb(255, 255, 255); stroke-opacity: 1; stroke-width: 1px;"/><path class="ygrid crisp" transform="translate(0,274.53999999999996)" d="M80,0h472" style="stroke: rgb(255, 255, 255); stroke-opacity: 1; stroke-width: 1px;"/><path class="ygrid crisp" transform="translate(0,229.04)" d="M80,0h472" style="stroke: rgb(255, 255, 255); stroke-opacity: 1; stroke-width: 1px;"/><path class="ygrid crisp" transform="translate(0,183.54000000000002)" d="M80,0h472" style="stroke: rgb(255, 255, 255); stroke-opacity: 1; stroke-width: 1px;"/><path class="ygrid crisp" transform="translate(0,138.04)" d="M80,0h472" style="stroke: rgb(255, 255, 255); stroke-opacity: 1; stroke-width: 1px;"/></g></g><g class="zerolinelayer"/><path class="xlines-below"/><path class="ylines-below"/><g class="overlines-below"/><g class="xaxislayer-below"/><g class="yaxislayer-below"/><g class="overaxes-below"/><g class="plot" transform="translate(80, 100)" clip-path="url('#clip64f51dxyplot')"><g class="scatterlayer mlayer"><g class="trace scatter trace3957a4" style="stroke-miterlimit: 2; opacity: 1;"><g class="fills"/><g class="errorbars"/><g class="lines"><path class="js-line" d="M0,233.68L0.66,206.39L0.99,210.93L1.33,206.39L1.66,206.39L1.99,197.29L2.32,188.19L2.65,192.74L2.98,197.29L3.65,197.29L3.98,201.84L4.31,206.39L4.64,188.19L4.97,192.74L5.3,183.64L5.63,183.64L5.97,188.19L6.3,188.19L6.63,192.74L7.29,179.09L7.62,183.64L7.96,188.19L8.62,179.09L8.95,188.19L9.61,179.09L9.94,183.64L10.61,174.54L10.94,188.19L11.27,192.74L11.6,179.09L11.93,174.54L12.26,179.09L12.6,183.64L14.58,156.34L14.92,147.24L15.25,165.44L15.91,160.89L16.24,151.79L16.57,138.14L16.9,147.24L17.24,151.79L18.89,179.09L19.22,169.99L19.56,165.44L19.89,174.54L20.88,151.79L21.21,147.24L22.87,165.44L23.2,160.89L24.2,147.24L24.53,151.79L25.52,160.89L25.85,160.89L26.52,160.89L26.85,156.34L27.51,179.09L27.84,169.99L28.17,179.09L28.84,169.99L29.17,174.54L29.5,188.19L30.16,174.54L30.49,179.09L30.83,183.64L31.49,169.99L31.82,188.19L33.48,169.99L33.81,179.09L34.8,156.34L35.13,160.89L35.47,156.34L38.12,183.64L38.45,183.64L39.44,197.29L39.78,183.64L40.77,174.54L41.1,188.19L42.1,169.99L42.43,179.09L42.76,174.54L43.09,179.09L43.42,183.64L43.75,174.54L44.08,179.09L44.42,179.09L44.75,179.09L45.08,183.64L45.41,183.64L45.74,169.99L46.74,183.64L47.07,183.64L47.73,165.44L48.06,179.09L48.72,179.09L49.06,169.99L50.05,174.54L50.71,192.74L51.71,160.89L52.04,165.44L52.37,169.99L53.03,169.99L53.37,165.44L54.36,151.79L54.69,160.89L55.35,183.64L55.69,179.09L56.02,169.99L56.68,174.54L57.01,165.44L57.34,179.09L57.67,169.99L58.01,174.54L59.33,165.44L59.66,183.64L59.99,192.74L60.33,183.64L60.66,179.09L61.32,188.19L61.65,174.54L61.98,201.84L62.31,192.74L62.65,174.54L62.98,174.54L63.31,183.64L64.3,192.74L64.63,188.19L65.63,179.09L65.96,188.19L66.29,188.19L66.62,183.64L67.29,169.99L67.62,179.09L68.28,192.74L68.61,188.19L68.94,188.19L69.94,201.84L70.27,192.74L70.93,188.19L71.26,215.48L71.6,215.48L71.93,206.39L72.92,201.84L73.25,201.84L73.92,206.39L74.25,188.19L74.91,201.84L75.24,192.74L75.9,188.19L76.24,197.29L76.57,188.19L76.9,192.74L77.23,192.74L78.22,210.93L78.56,224.58L78.89,224.58L79.22,220.03L79.88,224.58L80.21,215.48L80.88,220.03L81.21,215.48L81.87,206.39L82.2,210.93L82.53,210.93L82.87,192.74L83.2,210.93L83.53,197.29L83.86,192.74L84.19,188.19L84.52,197.29L84.85,192.74L85.19,197.29L85.52,206.39L86.51,188.19L86.84,192.74L87.17,197.29L87.51,192.74L87.84,188.19L88.17,197.29L88.5,179.09L88.83,179.09L89.16,183.64L89.49,179.09L89.83,201.84L90.82,188.19L91.15,179.09L91.81,197.29L92.15,179.09L92.48,179.09L92.81,188.19L93.14,192.74L93.47,188.19L93.8,188.19L94.13,188.19L94.47,169.99L94.8,179.09L95.13,169.99L95.46,169.99L96.12,169.99L96.46,174.54L97.45,160.89L97.78,179.09L98.44,179.09L98.78,174.54L99.11,174.54L99.44,165.44L99.77,169.99L100.1,160.89L100.43,169.99L100.76,151.79L101.43,138.14L101.76,147.24L102.09,151.79L102.42,147.24L102.75,142.69L103.08,142.69L103.42,133.59L103.75,151.79L104.08,129.04L104.41,138.14L104.74,138.14L105.07,133.59L105.4,133.59L105.74,138.14L106.07,151.79L106.4,133.59L107.39,138.14L107.72,133.59L108.39,151.79L108.72,147.24L109.05,138.14L109.71,138.14L110.04,133.59L110.38,138.14L110.71,133.59L111.04,129.04L111.7,119.94L112.03,129.04L112.7,110.84L113.03,124.49L113.69,101.74L114.02,119.94L114.69,110.84L115.02,115.39L115.35,115.39L115.68,115.39L116.01,110.84L116.67,115.39L117.01,106.29L117.34,106.29L117.67,101.74L118.66,42.59L118.99,110.84L119.66,147.24L119.99,142.69L120.32,138.14L120.65,179.09L120.98,151.79L121.31,129.04L121.65,129.04L121.98,133.59L122.97,142.69L123.3,142.69L125.29,119.94L125.62,124.49L126.29,115.39L126.62,119.94L126.95,129.04L127.28,133.59L127.61,124.49L128.61,115.39L128.94,119.94L129.6,147.24L129.93,129.04L131.26,115.39L131.59,129.04L131.92,133.59L132.25,124.49L133.25,119.94L133.58,129.04L133.91,133.59L134.24,129.04L134.57,124.49L135.24,124.49L135.57,119.94L135.9,119.94L136.23,124.49L136.89,138.14L137.22,129.04L137.56,129.04L137.89,124.49L138.88,119.94L139.21,119.94L139.54,124.49L139.88,119.94L140.21,119.94L140.54,110.84L140.87,129.04L142.2,119.94L142.53,119.94L144.52,156.34L144.85,151.79L145.18,151.79L145.51,183.64L145.84,165.44L146.17,160.89L147.17,169.99L147.5,169.99L148.49,165.44L148.83,169.99L149.16,160.89L149.49,169.99L149.82,165.44L150.15,169.99L150.48,160.89L150.81,156.34L151.15,160.89L151.48,160.89L152.47,165.44L152.8,165.44L153.13,165.44L153.47,174.54L154.13,174.54L154.46,169.99L154.79,174.54L155.12,197.29L155.46,206.39L155.79,201.84L156.12,201.84L156.45,201.84L156.78,206.39L157.78,210.93L158.11,233.68L159.1,210.93L159.43,210.93L160.1,192.74L160.43,201.84L160.76,201.84L162.08,210.93L162.42,192.74L163.41,192.74L163.74,201.84L164.74,215.48L165.07,220.03L165.4,220.03L165.73,224.58L166.06,224.58L166.39,260.98L167.39,233.68L167.72,233.68L168.71,215.48L169.04,229.13L169.71,224.58L170.04,229.13L170.37,229.13L170.7,210.93L171.03,206.39L171.37,229.13L172.03,206.39L172.36,215.48L172.69,210.93L173.02,206.39L173.35,224.58L173.69,224.58L174.02,220.03L174.35,224.58L174.68,220.03L175.01,215.48L176.01,210.93L176.34,220.03L177.33,233.68L177.66,233.68L177.99,242.78L178.33,220.03L178.66,206.39L178.99,220.03L179.32,220.03L180.31,229.13L180.65,210.93L181.31,224.58L181.64,220.03L182.3,197.29L182.63,220.03L182.97,206.39L183.3,210.93L183.63,224.58L184.62,201.84L184.96,210.93L185.29,201.84L185.62,206.39L185.95,206.39L186.28,210.93L186.61,201.84L186.94,206.39L187.28,192.74L187.61,188.19L187.94,201.84L188.93,183.64L189.26,192.74L189.6,197.29L189.93,188.19L190.92,197.29L191.25,188.19L192.25,206.39L192.58,201.84L192.91,192.74L193.24,201.84L193.57,197.29L193.9,201.84L194.24,220.03L194.57,229.13L194.9,215.48L196.56,188.19L196.89,197.29L197.22,197.29L197.55,188.19L197.88,192.74L198.21,183.64L198.54,183.64L198.88,197.29L199.87,183.64L200.2,183.64L200.87,188.19L201.2,165.44L201.53,165.44L201.86,160.89L202.52,142.69L202.85,151.79L203.19,151.79L203.52,160.89L203.85,160.89L204.18,151.79L204.51,156.34L204.84,142.69L205.51,129.04L205.84,174.54L206.5,174.54L206.83,179.09L207.83,192.74L208.16,174.54L208.82,192.74L209.15,188.19L209.48,197.29L209.81,197.29L210.15,192.74L211.14,179.09L211.47,174.54L211.8,169.99L212.13,174.54L212.47,174.54L213.13,210.93L213.46,197.29L213.79,183.64L214.79,179.09L215.12,192.74L215.78,188.19L216.11,169.99L217.44,156.34L217.77,174.54L218.76,151.79L219.1,165.44L219.43,165.44L219.76,156.34L220.75,169.99L221.08,165.44L221.42,165.44L221.75,160.89L222.08,192.74L222.41,174.54L222.74,160.89L223.07,151.79L223.4,160.89L223.74,160.89L224.07,160.89L224.4,174.54L225.39,147.24L225.72,156.34L226.06,151.79L226.39,169.99L226.72,174.54L227.05,160.89L227.38,156.34L227.71,160.89L228.04,160.89L229.04,151.79L229.37,147.24L229.7,129.04L230.03,147.24L230.37,151.79L231.36,179.09L231.69,151.79L232.02,142.69L232.35,156.34L233.35,124.49L233.68,147.24L234.67,138.14L235.01,133.59L235.34,133.59L235.67,124.49L236.33,147.24L236.66,133.59L237.66,156.34L237.99,147.24L238.32,147.24L238.65,138.14L238.98,129.04L239.31,78.99L239.65,83.54L239.98,169.99L240.97,220.03L241.3,210.93L241.63,229.13L241.97,220.03L242.3,206.39L242.96,201.84L243.29,206.39L243.62,197.29L243.96,201.84L244.29,206.39L244.62,201.84L244.95,206.39L245.28,206.39L245.61,215.48L245.94,206.39L246.28,206.39L247.27,220.03L247.6,201.84L247.93,210.93L248.26,206.39L248.6,206.39L248.93,206.39L249.26,215.48L250.25,201.84L250.58,206.39L251.25,201.84L251.58,206.39L252.24,206.39L252.57,197.29L252.9,197.29L253.24,210.93L255.22,179.09L255.56,183.64L255.89,183.64L256.22,183.64L256.55,179.09L256.88,179.09L257.21,197.29L257.54,197.29L257.88,192.74L258.87,206.39L259.2,201.84L259.53,210.93L259.87,192.74L260.2,201.84L260.53,188.19L260.86,188.19L261.19,179.09L262.19,206.39L262.52,197.29L263.51,188.19L263.84,210.93L264.17,215.48L264.51,197.29L265.83,210.93L266.16,233.68L266.49,233.68L266.83,224.58L267.16,224.58L267.49,215.48L267.82,220.03L268.15,215.48L268.48,260.98L268.81,260.98L269.15,238.23L269.48,247.33L269.81,238.23L270.14,238.23L270.47,238.23L270.8,233.68L271.13,224.58L271.47,233.68L271.8,238.23L272.13,238.23L272.46,233.68L272.79,229.13L273.12,242.78L274.12,229.13L274.45,229.13L274.78,238.23L275.11,220.03L275.44,224.58L275.78,215.48L276.77,201.84L277.1,201.84L278.1,206.39L278.43,197.29L278.76,192.74L279.09,206.39L280.08,192.74L280.42,201.84L280.75,188.19L281.08,192.74L281.41,206.39L282.4,188.19L282.74,192.74L283.07,174.54L283.4,179.09L283.73,192.74L284.39,188.19L284.72,160.89L285.06,179.09L285.39,165.44L285.72,169.99L286.38,188.19L286.71,179.09L287.71,197.29L288.04,201.84L288.37,192.74L288.7,197.29L289.03,201.84L290.36,179.09L290.69,183.64L291.69,192.74L292.02,192.74L292.35,188.19L292.68,197.29L293.34,197.29L293.67,188.19L294.01,210.93L294.34,188.19L294.67,188.19L295.33,201.84L295.66,192.74L295.99,192.74L296.33,201.84L296.66,206.39L296.99,201.84L297.32,201.84L297.65,192.74L297.98,197.29L298.31,197.29L298.98,183.64L299.31,188.19L299.64,206.39L299.97,206.39L300.3,197.29L300.97,188.19L301.3,192.74L301.63,192.74L301.96,192.74L302.29,188.19L302.62,179.09L302.96,192.74L303.29,169.99L303.62,188.19L303.95,183.64L304.28,179.09L304.61,183.64L304.94,183.64L305.28,179.09L305.61,183.64L305.94,183.64L307.6,197.29L307.93,188.19L308.26,174.54L308.59,179.09L308.92,192.74L310.25,169.99L310.58,179.09L310.91,174.54L311.24,183.64L312.24,179.09L312.57,197.29L313.23,179.09L313.56,188.19L314.22,188.19L314.56,183.64L314.89,183.64L315.22,188.19L316.54,174.54L316.88,179.09L317.87,160.89L318.2,169.99L318.53,169.99L318.87,174.54L319.2,174.54L319.53,183.64L320.52,197.29L320.85,179.09L321.19,179.09L321.52,183.64L322.51,215.48L322.84,201.84L323.51,201.84L323.84,220.03L324.5,206.39L324.83,215.48L325.83,220.03L326.16,215.48L326.49,206.39L326.82,220.03L327.81,210.93L328.15,215.48L328.48,206.39L328.81,229.13L329.14,224.58L329.47,206.39L329.8,201.84L330.13,210.93L330.47,201.84L330.8,210.93L331.13,206.39L331.46,201.84L331.79,206.39L332.12,206.39L332.79,206.39L333.12,210.93L333.78,229.13L334.11,220.03L334.44,238.23L334.78,229.13L335.11,224.58L335.44,224.58L335.77,220.03L336.1,229.13L336.43,220.03L336.76,220.03L337.1,220.03L337.43,229.13L338.09,238.23L338.42,233.68L338.75,229.13L339.08,247.33L339.42,242.78L339.75,242.78L340.08,238.23L340.41,247.33L341.4,251.88L341.74,247.33L342.07,247.33L342.4,260.98L342.73,247.33L343.06,265.53L344.06,247.33L344.39,242.78L345.05,233.68L345.38,238.23L346.38,201.84L346.71,201.84L347.04,206.39L347.37,224.58L347.7,220.03L348.03,201.84L348.37,201.84L348.7,197.29L349.03,197.29L349.36,192.74L349.69,210.93L350.02,206.39L350.35,197.29L351.02,183.64L351.35,188.19L351.68,188.19L352.01,201.84L352.67,142.69L353.01,156.34L353.34,160.89L353.67,160.89L354,188.19L354.99,142.69L355.33,169.99L356.98,142.69L357.31,151.79L357.65,151.79L357.98,156.34L358.97,156.34L359.3,151.79L359.63,156.34L359.97,129.04L360.63,38.04L360.96,160.89L361.96,220.03L362.29,220.03L362.62,215.48L362.95,229.13L363.61,210.93L363.94,220.03L364.28,220.03L364.61,229.13L365.6,220.03L365.93,247.33L366.26,247.33L366.6,233.68L366.93,233.68L367.26,238.23L367.59,220.03L367.92,229.13L368.25,238.23L368.92,247.33L369.25,233.68L369.58,233.68L369.91,238.23L370.57,224.58L370.9,229.13L371.24,229.13L372.23,210.93L372.56,210.93L373.22,220.03L373.56,206.39L373.89,206.39L374.22,210.93L374.55,210.93L374.88,206.39L375.54,220.03L375.88,206.39L377.2,192.74L377.53,220.03L377.87,220.03L378.2,224.58L379.19,201.84L379.52,201.84L379.85,247.33L380.19,224.58L380.52,229.13L381.51,220.03L381.84,224.58L383.17,242.78L383.5,233.68L383.83,238.23L384.16,229.13L384.49,233.68L384.83,224.58L385.16,229.13L385.49,220.03L386.81,251.88L387.15,233.68L388.14,247.33L388.47,247.33L389.8,229.13L390.13,229.13L390.46,229.13L390.79,224.58L391.12,229.13L391.46,247.33L392.45,220.03L392.78,224.58L394.11,247.33L394.44,229.13L394.77,229.13L395.1,233.68L395.43,229.13L395.76,242.78L396.1,229.13L396.43,242.78L396.76,233.68L398.08,242.78L398.42,233.68L401.4,197.29L401.73,210.93L402.39,206.39L402.72,220.03L403.06,238.23L403.72,233.68L404.05,238.23L404.38,238.23L404.71,229.13L405.04,233.68L405.38,220.03L406.7,238.23L407.03,233.68L408.03,215.48L408.36,224.58L409.35,238.23L409.69,233.68L410.02,220.03L410.35,215.48L410.68,220.03L411.01,224.58L412.01,229.13L412.34,229.13L412.67,206.39L413,210.93L413.33,215.48L413.66,210.93L413.99,220.03L414.33,210.93L414.66,242.78L415.32,220.03L415.65,224.58L415.98,229.13L417.31,206.39L417.64,206.39L417.97,201.84L418.3,206.39L418.63,206.39L418.97,210.93L419.3,206.39L419.63,192.74L420.62,206.39L420.96,201.84L421.62,201.84L421.95,206.39L422.28,197.29L422.61,215.48L424.27,197.29L424.6,206.39L424.93,220.03L425.26,215.48L425.6,210.93L425.93,210.93L426.26,206.39L426.59,206.39L426.92,229.13L427.92,206.39L428.25,206.39L428.58,210.93L428.91,206.39L429.24,206.39L429.57,215.48L429.9,210.93L430.24,206.39L431.23,183.64L431.56,188.19L432.56,174.54L432.89,179.09L433.22,188.19L433.55,179.09L433.88,197.29L434.21,201.84L434.54,192.74L434.88,192.74L435.21,188.19L435.87,169.99L436.2,179.09L437.53,197.29L437.86,201.84L438.19,197.29L438.52,206.39L438.85,210.93L439.19,206.39L439.52,201.84L439.85,201.84L440.18,220.03L441.17,233.68L441.51,229.13L441.84,220.03L442.5,220.03L442.83,210.93L443.83,233.68L444.16,229.13L444.49,229.13L444.82,206.39L445.15,210.93L445.48,220.03L446.15,224.58L446.48,215.48L446.81,215.48L447.14,224.58L447.8,229.13L448.13,224.58L449.13,210.93L449.46,229.13L449.79,215.48L450.12,229.13L450.46,224.58L451.45,210.93L451.78,220.03L452.78,197.29L453.11,206.39L453.77,206.39L454.1,242.78L455.1,224.58L455.43,220.03L456.09,220.03L456.42,206.39L457.75,229.13L458.08,224.58L458.41,224.58L458.74,220.03L459.07,215.48L459.4,224.58L460.4,238.23L460.73,233.68L461.06,238.23L461.39,229.13L461.72,229.13L462.06,256.43L463.05,247.33L463.38,270.08L464.71,251.88L465.04,256.43L465.37,251.88L465.7,274.63L466.03,274.63L466.37,251.88L467.03,265.53L467.36,251.88L467.69,265.53L468.02,260.98L468.35,260.98L468.69,265.53L469.02,247.33L469.68,256.43L470.01,247.33L470.34,260.98L470.67,247.33L471.01,251.88L471.34,256.43L471.67,251.88L472,251.88" style="vector-effect: non-scaling-stroke; fill: none; stroke: rgb(99, 110, 250); stroke-opacity: 1; stroke-width: 2px; opacity: 1;"/></g><g class="points"/><g class="text"/></g><g class="trace scatter trace463cee" style="stroke-miterlimit: 2; opacity: 1;"><g class="fills"/><g class="errorbars"/><g class="lines"><path class="js-line" d="M0,227.71L0.33,225.97L0.66,220.12L1.33,226.75L1.66,222.77L2.32,198.87L2.65,205.84L2.98,207.84L3.65,214.93L3.98,214.1L4.31,213.23L4.64,197.53L4.97,207.27L5.3,205.03L5.97,207.35L6.3,206.12L6.63,208.9L6.96,194.67L7.29,200.4L7.62,199.52L7.96,197.45L8.62,209.04L8.95,212.93L9.28,198.65L9.61,204.15L9.94,203.7L10.61,205.41L10.94,214.41L11.27,217.76L11.6,206.08L12.93,208.34L13.26,218.67L13.59,215.32L13.92,201.08L14.25,204.25L14.58,195.91L14.92,207.88L15.25,207.44L15.58,202.49L15.91,205.8L16.24,194.82L16.57,194.99L16.9,196.41L17.24,197.36L17.57,201.89L17.9,215.6L18.23,211.17L18.56,204.66L18.89,210.12L19.22,207.6L19.56,208.6L19.89,208.24L20.22,183.44L20.55,186.69L20.88,174.13L21.88,185.18L22.21,186.01L22.87,198.52L23.2,185.73L23.87,194.55L24.2,193.27L24.53,194.93L25.19,210.45L25.52,203.56L26.85,210.03L27.18,213.43L27.51,215.06L27.84,206.44L28.51,210.3L28.84,209.09L29.17,209.45L29.5,223.83L29.83,218.23L30.16,209.93L31.82,223.75L32.15,223.08L33.15,214.62L33.48,216.21L33.81,215.39L34.14,212.09L34.47,213.87L34.8,207.33L35.47,201.45L35.8,202.85L36.13,203.7L36.79,207.53L37.12,204.27L37.46,205.03L37.79,208.6L38.12,206.27L38.45,208.67L38.78,213.98L39.11,212.81L39.44,207.36L40.44,201.32L40.77,202.5L41.1,211.33L41.43,205.57L41.76,200.77L42.1,203.74L42.43,202.43L42.76,201.45L43.09,201.28L43.42,203.27L43.75,215.79L44.08,214.7L44.42,208.53L44.75,213.93L45.08,212.14L45.41,201.82L46.4,197.71L46.74,202.15L47.07,203.86L47.4,202.73L47.73,202.74L48.39,208.68L48.72,200.5L49.06,200.05L50.05,203.24L50.71,215.61L51.04,211.43L51.38,210.83L51.71,209.34L52.04,214.52L52.37,213.39L52.7,228.06L54.03,218.39L54.36,222.88L54.69,218.53L55.02,227.82L56.02,233.33L56.35,231.4L58.01,216.81L58.34,223.41L59.33,221.37L59.66,227.96L60.33,221.66L60.66,225.4L60.99,224.8L61.32,228.9L61.65,226.92L61.98,235.69L62.65,221.02L62.98,226.34L63.31,226.46L63.97,223.76L64.3,232.57L64.97,224.7L65.3,228.32L65.63,225.99L66.62,218.14L66.96,219.14L67.29,217.89L67.62,224.27L67.95,223.07L68.28,227.69L68.61,230.98L68.94,224.96L69.94,234.9L70.27,233.35L70.6,231.07L70.93,235.09L71.26,248.38L71.6,245.91L71.93,234.18L72.92,238.9L73.25,234.56L73.58,240.98L73.92,234.79L74.25,226.88L74.58,233.65L74.91,229.49L75.24,230.76L75.57,224.91L75.9,235.03L76.57,222.23L76.9,228.47L77.23,229.35L77.56,229.5L77.89,226.35L78.56,245.04L78.89,244.63L79.22,246.61L79.55,247.3L79.88,245.1L80.21,247.37L80.54,255.05L81.21,243.58L81.54,251L81.87,254.19L82.2,250.09L83.2,257.22L83.53,246.55L83.86,256.16L84.19,253.26L84.52,252.43L84.85,250.02L85.19,268.24L85.85,250.48L86.18,263.99L87.17,256.18L87.51,257.94L88.17,244.02L88.5,251.43L88.83,248.21L89.16,243.52L89.49,250.24L89.83,261.01L90.16,257.78L90.49,247.5L90.82,258.9L91.15,251.33L91.48,254.63L92.15,258.32L92.48,253.45L92.81,249.25L93.14,256.18L93.8,253.25L94.13,250.32L94.47,252.92L94.8,251.39L95.13,246.36L95.46,253.4L95.79,253.16L96.12,248.49L96.46,247.59L96.79,259.04L97.45,241.86L97.78,247.23L98.11,246.49L98.44,245.65L98.78,247.17L99.11,249.77L99.44,248.68L99.77,241.91L100.1,243.38L100.43,241.33L101.1,233.99L101.43,237.41L101.76,244.34L102.09,234.42L102.42,235.75L102.75,232.7L103.42,231.65L103.75,237.06L104.41,225.25L104.74,235.59L105.4,228.15L105.74,235.93L106.07,242.83L106.4,236.53L106.73,222.64L107.06,231.13L107.39,225.28L107.72,224L108.39,230.73L108.72,219.92L109.05,205.2L109.38,227.87L111.37,161.89L111.7,190.45L112.37,183.79L112.7,191.25L113.36,164.9L113.69,151.43L114.02,177.83L114.69,173.07L115.02,171L115.35,175.75L115.68,153.6L116.01,149.47L116.34,175.07L117.01,165.99L117.34,157.09L118,103.42L118.33,35.89L119.66,220.76L119.99,222.58L120.32,225.84L120.65,251.21L121.65,214.3L121.98,214.64L122.31,229.13L122.97,222.11L123.3,226.59L123.63,221.3L124.3,222.45L124.63,219.25L124.96,217.61L125.29,208.45L125.62,215.85L125.96,204.2L126.95,217.95L127.28,216.39L127.61,211.56L127.94,223.73L128.28,216.85L128.61,211.76L128.94,217.41L129.27,208.04L129.6,207.67L129.93,202L130.26,204.17L130.6,201.63L130.93,202.14L131.26,200.71L131.59,209.18L131.92,207.21L132.25,197.78L132.58,207.1L132.92,205.48L133.25,202.18L133.58,197.96L133.91,209.31L134.57,197.88L134.9,199.48L135.24,202.03L135.57,193.11L135.9,204.92L136.56,214.54L136.89,212.42L137.22,212.79L137.56,213.02L137.89,214.8L138.22,210.77L138.55,219.65L138.88,223.92L139.21,216.21L139.54,215.65L139.88,217.83L140.21,219.17L140.54,213.85L140.87,214.33L141.2,213.23L141.53,206.53L141.87,210.43L142.2,210.74L142.86,207.26L143.19,214.98L143.52,214.8L143.85,205.86L144.19,213.4L144.52,210.97L144.85,207.75L145.18,212.74L145.51,237.39L146.17,221.05L146.51,231.6L147.5,221.96L147.83,235.08L148.49,217.11L148.83,227.83L149.82,216.77L150.15,228.47L151.15,225.01L151.48,229.4L152.8,227.49L153.13,222L153.47,228.64L154.13,228.12L154.46,229.02L155.46,222.03L155.79,229.02L156.45,227.2L156.78,228.21L157.11,230.35L157.78,221.77L158.11,225.05L158.44,223.82L158.77,226.43L159.1,224.25L159.43,224.91L159.76,226.8L160.1,220.35L160.43,227.74L160.76,220.02L161.09,221.72L161.42,222.29L161.75,233.08L162.42,227.8L162.75,230.73L163.74,222.74L164.07,226.17L165.07,234.74L165.4,229.75L166.06,230.98L166.39,240.42L166.72,235.89L167.06,236.5L167.39,239.24L168.71,225.42L169.04,233.64L169.38,233.46L169.71,239.4L170.37,240.08L170.7,238.52L171.03,235.3L171.37,246.38L172.03,249.5L172.36,247.92L172.69,248.65L173.02,243.69L173.35,247.41L173.69,247.73L174.68,241.63L175.01,242.77L175.34,245.41L175.67,240.39L176.01,241.68L176.34,238.28L177.33,265.43L177.66,260.73L178.33,247.3L178.66,247.35L178.99,254.64L180.31,242.35L180.65,245.71L181.31,250.61L181.64,247.07L182.3,247.06L182.63,248.91L182.97,246.4L183.3,246.73L183.63,250.65L184.96,242.72L185.29,244.75L185.62,244.12L185.95,245.67L186.28,240.29L186.61,242.45L186.94,242.48L187.94,230.94L188.27,231.79L188.93,227.88L189.26,231.25L189.93,223.37L190.59,223.76L190.92,225.12L191.25,222.29L191.58,223.11L191.92,240.32L192.25,232.67L192.91,233.09L193.24,231.28L194.9,218.54L195.23,222.5L195.56,221.12L195.89,222.46L196.22,215.44L196.89,209.68L197.22,212.07L197.55,217.24L198.54,212.51L198.88,221.62L199.54,208.9L199.87,212.7L200.87,208.74L201.2,190.92L201.53,192.53L201.86,190.01L202.19,193.94L202.52,193.65L202.85,192.36L203.19,188.34L203.52,195.07L204.84,184.21L205.17,185.14L205.51,187.15L205.84,195.8L206.83,200.6L207.16,202.25L208.49,213.5L208.82,211.35L209.15,215.48L209.48,214.62L209.81,211.4L210.15,213.14L210.48,203.11L210.81,207.69L211.14,200.01L212.13,205.49L212.47,206.82L213.13,213.89L213.46,208.69L214.12,205.1L214.46,205.38L214.79,207.65L215.12,216.36L215.78,214L216.11,213.85L216.44,212.46L216.78,213.27L217.11,212.92L217.44,213.93L217.77,211.93L218.1,205.39L218.76,206.99L219.1,207.08L219.43,209.01L219.76,216.87L220.09,218.5L220.42,215L221.42,222.11L221.75,220.16L222.08,227.44L222.41,224.77L222.74,210.53L223.07,215.18L223.4,214.7L223.74,213.92L224.07,213.88L224.4,209.86L225.06,200.41L225.39,205.68L225.72,203.53L226.06,204.08L226.39,206.21L226.72,213.68L227.05,206.85L227.38,195.53L228.04,202.77L228.38,201.97L228.71,199.37L229.04,199.44L229.37,191.84L229.7,181.48L230.03,193.56L230.37,191.76L231.36,199.21L231.69,156.43L232.02,140.35L232.35,170.75L232.69,175.77L233.02,169.98L233.35,172.47L233.68,186.02L234.01,162.98L234.34,154.8L234.67,188.03L235.67,171.93L236,175.8L236.33,143.51L236.66,134.1L236.99,162.61L237.33,164.26L237.66,159.36L238.65,108.68L238.98,87.84L239.31,16L239.65,90.31L239.98,178.02L240.97,237.75L241.3,238.69L241.63,232.82L241.97,236.02L242.3,241.48L242.63,242.88L242.96,241.28L243.29,241.44L243.62,236.24L243.96,239.63L244.29,239.62L244.62,237.9L244.95,242.34L245.28,242.91L245.61,237.44L245.94,236.32L246.28,238.47L246.61,239.71L246.94,238.2L247.27,242.83L247.93,241.79L248.26,237.59L249.26,242.49L249.59,239.42L249.92,244.47L250.25,236.56L250.92,233.67L251.25,235.19L253.24,223.33L253.57,226.11L253.9,227.59L254.23,225.18L254.89,221.27L255.22,216.92L255.56,216.78L255.89,219.28L256.22,219.18L256.55,204.61L257.21,227.31L257.54,224.6L257.88,224.57L258.87,228.49L259.2,222.94L259.87,233.15L260.2,229.31L260.53,228.67L260.86,228.8L261.19,229.81L261.52,243.91L262.19,241.59L262.52,240.46L262.85,239.76L263.18,243.33L263.51,242.1L263.84,251.9L264.17,252.06L264.51,249.97L264.84,257.29L265.17,255.27L265.5,254.39L266.16,258.86L266.49,256.9L266.83,255.29L267.82,256.75L268.15,252.42L268.48,264.74L268.81,258.14L269.15,259.41L269.48,263.09L269.81,260.04L270.14,257.93L270.47,259.06L270.8,248.13L271.47,244.19L271.8,248.48L273.79,233.85L274.12,233.11L274.78,231.86L275.11,237.05L275.44,242.09L275.78,240.1L276.11,240.18L276.77,240.29L277.1,241.84L277.76,240.63L278.1,241.52L278.43,246.52L278.76,244.52L279.09,243.23L279.42,242.92L279.75,245.54L280.42,243.91L280.75,240.64L281.08,246.78L281.41,243.98L281.74,241.93L282.07,240.5L282.4,242.6L282.74,243.25L283.07,241.01L284.72,232.59L285.06,236.16L285.39,235.02L285.72,236.37L286.05,236.91L287.04,240.43L287.38,254.35L287.71,262.1L288.04,255.73L288.37,255.17L288.7,254.62L289.03,252.12L290.36,242.22L290.69,242.99L291.02,243.97L291.35,235.42L292.02,235.81L292.35,239.37L292.68,235.5L293.01,236.15L293.34,238.07L294.01,235.5L294.34,237.79L295.66,243.66L295.99,242.61L296.33,240.49L296.99,240.65L297.32,246.02L297.98,248.7L298.31,246.84L298.65,245.8L298.98,246.55L299.31,240.01L300.3,247.03L300.63,245.9L301.63,242.07L301.96,244.51L302.96,237.7L303.29,228.49L303.62,232.43L303.95,231.57L304.28,230.28L304.61,229.44L304.94,233.65L305.28,233.55L305.61,227.21L306.27,233.04L306.6,232.28L306.93,230.65L307.6,235.29L307.93,233.11L308.26,237.4L308.59,236.65L308.92,233.49L309.58,237.55L309.92,235.61L310.25,232.49L310.58,237.8L310.91,234.54L311.24,234.16L312.57,243.05L312.9,239.66L313.23,244.25L313.56,242.54L313.89,241.76L314.56,241.69L314.89,248.3L315.88,244.15L316.21,245.06L317.21,238.26L317.54,241.15L317.87,239.21L318.2,241.81L318.53,242.45L318.87,242.08L319.2,241.83L320.52,246.96L320.85,242.91L321.85,253.52L322.18,251.12L322.51,252.59L322.84,256.99L323.17,253.64L323.51,254.06L323.84,256.09L324.17,250.73L325.16,247.75L325.49,248.15L325.83,250.03L326.16,250.64L326.49,256.96L326.82,259.37L327.15,253.84L327.48,258.47L328.15,257.58L328.48,258.9L328.81,258.58L329.14,257.05L330.8,263.94L331.13,268.16L331.46,264.42L331.79,265.94L332.12,266.33L332.46,265.43L332.79,266.23L333.12,266.73L333.45,280.74L333.78,275.24L334.11,276.27L334.44,280.71L335.11,280.38L335.44,281.45L335.77,288.75L336.1,285.41L336.43,286L336.76,291.61L337.43,290.32L337.76,291.17L338.09,293.7L338.42,290.39L338.75,288.36L339.08,293.15L339.75,288.98L340.08,289.82L340.41,301.75L340.74,302.29L341.07,296.46L341.4,300.74L341.74,298.29L342.07,297.8L342.4,297.27L342.73,304L343.39,295.39L343.72,303.45L345.38,289.6L345.71,281.93L346.38,284.8L346.71,282.91L347.7,272.16L348.03,262.18L348.37,269.32L348.7,267.92L349.03,263.87L349.69,262.02L350.02,253.37L350.35,240.28L350.69,247.72L351.02,247.79L351.35,251.49L351.68,248.3L352.01,249.14L352.67,183.67L353.01,212.2L353.34,214.55L353.67,212.63L354,219.87L354.99,174.58L355.33,205.08L356.32,200.86L356.65,195.49L357.31,171.53L357.65,198.91L357.98,200.13L358.31,195.32L359.97,140.31L360.3,46.93L361.96,276.64L362.29,279.32L362.95,268.27L363.28,276.23L363.94,278.7L364.28,276.88L364.61,285.17L364.94,280.68L365.27,279.47L365.6,280.3L365.93,293.06L366.6,288.62L366.93,298.29L368.58,279.45L368.92,278.57L370.24,287.72L370.57,285.5L371.57,276.65L371.9,281.12L373.56,271.4L373.89,276.2L374.88,272.67L375.21,271.89L375.88,262.85L376.21,266.9L376.54,263.78L377.2,266.41L377.53,269.94L378.53,275.72L378.86,274.16L379.19,273.47L379.52,269.99L379.85,278.7L380.19,277.31L380.52,278.59L380.85,281.72L381.51,278.85L381.84,274.7L382.84,266.44L383.17,271.8L383.5,270.84L383.83,272.19L384.16,269.91L384.49,262.33L384.83,262.83L385.16,268.29L385.49,268.84L385.82,275.86L386.48,275.4L386.81,276.98L387.15,277.46L387.48,275.23L387.81,279.57L388.14,275.69L388.47,271.96L389.13,278.34L389.47,272.24L390.13,274.63L390.46,271.38L391.12,276.37L391.46,272.29L391.79,266.32L392.12,268.17L392.45,272.5L393.44,270.36L393.78,274.84L394.44,266.14L394.77,272.05L396.43,262.95L396.76,267.37L397.42,272.77L397.75,271.08L398.08,272.05L398.75,262.57L399.08,266.44L399.41,268.22L400.74,257.63L401.07,247.93L401.73,257.57L402.06,256.48L402.39,257.69L403.06,258.65L403.39,251.05L404.38,257.67L404.71,256.07L405.04,256.78L405.38,249.4L405.71,246.45L406.04,253.41L406.37,259.58L406.7,256.07L407.03,254.41L407.37,255.61L407.7,249.43L408.03,244.21L408.36,246.22L408.69,251.35L409.69,248.01L410.02,233.58L411.01,245.67L411.34,247.17L412.01,250.11L412.34,243.45L412.67,239.84L413,242.34L413.33,248.28L413.66,243.37L413.99,246.87L414.33,251.29L414.66,257.47L414.99,253.97L415.32,255.47L415.98,258.98L416.31,255.77L416.65,258.5L416.98,247.14L417.31,243.4L417.64,246.25L417.97,251.74L418.3,252.19L418.63,254.41L418.97,254.24L419.3,258.44L419.63,252.75L419.96,253.99L420.29,254.92L420.62,247.75L420.96,252.93L421.29,256.63L421.62,257.84L421.95,255.65L422.61,259.97L422.94,257.73L423.28,257.56L423.61,258.56L423.94,259.57L424.27,251.25L424.93,256.23L425.6,255.95L425.93,250.61L426.26,252.77L426.59,250.75L426.92,249.48L427.92,254.99L428.25,254.75L428.58,258.65L429.24,257.8L429.57,261.3L430.57,255.28L430.9,245.09L432.22,256.49L432.56,254.88L432.89,256.86L433.22,256.37L433.55,256.23L434.21,254.5L434.54,256.72L434.88,255.83L435.21,259.13L435.87,257.38L436.2,257.54L436.53,258.11L437.53,257.72L437.86,262.48L438.52,259.03L438.85,261.62L439.52,260.98L439.85,261.72L440.18,269.12L440.51,268.28L440.84,266.79L441.17,270.26L441.51,269.65L441.84,268.74L442.5,271.5L442.83,266.96L443.16,262.73L443.49,265.26L443.83,270.79L444.16,269.84L444.49,272.24L445.48,263.81L445.81,269.56L447.47,266.51L447.8,263.82L448.13,268.74L448.8,268.12L449.13,268.48L449.46,268.73L449.79,263.22L450.12,259.93L450.46,262.93L450.79,262.4L451.78,258.33L452.11,254.6L452.44,253.02L452.78,254.47L453.11,257.03L454.1,267.57L454.43,264.83L454.76,263.56L455.1,264.64L455.43,263.66L455.76,261.52L456.42,265.27L456.75,263.49L457.08,262.63L457.42,267.68L457.75,264.01L458.08,265.98L458.41,266.07L458.74,264.45L459.07,266.95L459.4,266.88L459.74,270.07L460.73,270.44L461.06,274.01L461.72,267.24L462.06,272.99L463.05,273.07L463.38,277.88L464.04,269.03L464.38,273.61L464.71,274.14L465.04,276.4L465.37,274.5L465.7,285.06L466.37,269.24L466.7,275.43L467.03,271.4L468.02,267.86L468.35,259.71L468.69,254.81L469.02,265.71L469.68,265.27L470.01,260.34L471.01,228.81L471.34,248.01L472,240.06" style="vector-effect: non-scaling-stroke; fill: none; stroke: rgb(239, 85, 59); stroke-opacity: 1; stroke-width: 2px; opacity: 1;"/></g><g class="points"/><g class="text"/></g><g class="trace scatter traceebdcc5" style="stroke-miterlimit: 2; opacity: 1;"><g class="fills"/><g class="errorbars"/><g class="lines"><path class="js-line" d="M0,143.64L1.33,125.54L1.66,140.58L2.98,125.17L3.31,125.4L3.65,123.03L3.98,134.94L4.97,124.98L5.3,126.88L5.63,123.21L5.97,123.65L6.3,127.62L6.96,122.29L7.29,125.97L8.29,118.13L8.62,130.5L8.95,133.59L9.28,131.88L9.61,128.13L10.28,122.83L10.61,117.31L11.27,130.75L11.6,125.63L11.93,126.91L12.93,121.92L13.26,124.43L13.59,126.76L13.92,119.94L14.25,123.92L14.58,121.08L14.92,122.21L15.25,118.8L15.58,125.65L16.57,117.1L16.9,118.23L17.24,119.94L17.57,120.51L17.9,133.02L18.56,124.49L18.89,131.31L20.22,115.96L20.55,116.53L21.54,104.02L21.88,108.57L22.21,101.17L22.54,115.39L22.87,116.53L23.2,115.96L23.53,109.13L24.53,110.27L24.86,130.18L25.85,120.51L26.19,126.2L26.52,121.08L26.85,121.65L27.18,129.61L28.17,119.94L28.51,122.78L28.84,121.65L29.17,121.08L29.5,128.47L29.83,131.88L30.16,131.31L30.49,127.33L30.83,127.9L31.16,121.65L31.49,121.08L31.82,136.43L32.81,126.76L33.15,127.9L33.48,130.75L33.81,130.18L34.14,133.02L35.47,114.25L35.8,119.37L36.13,117.66L36.46,125.63L37.79,110.27L38.12,117.66L38.45,117.66L38.78,115.39L39.44,121.08L39.78,114.82L40.77,110.27L41.1,115.96L41.76,124.49L42.1,118.23L42.43,115.96L42.76,119.94L43.09,120.51L43.42,125.63L43.75,127.33L44.08,126.2L44.42,119.94L45.08,124.49L45.41,113.68L46.07,121.65L46.4,118.8L46.74,118.23L47.07,116.53L47.4,118.8L47.73,114.25L48.06,115.39L48.39,119.94L48.72,120.51L49.06,115.96L50.05,111.98L50.71,125.06L51.04,126.76L51.38,121.84L52.37,122.78L52.7,146.59L53.03,123.35L53.7,125.06L54.03,128.47L54.36,129.04L54.69,125.06L55.69,134.73L56.02,133.59L56.35,132.45L56.68,131.88L57.01,126.2L57.67,141.55L58.01,134.16L58.34,130.75L59.33,118.23L59.66,133.59L59.99,143.34L60.33,123.35L60.66,119.94L60.99,126.76L61.32,126.76L61.65,122.78L61.98,130.18L62.65,129.04L62.98,131.88L63.97,124.49L64.3,134.16L65.3,129.04L65.63,130.75L65.96,131.31L66.29,126.2L66.62,148.38L66.96,142.12L67.29,131.88L68.28,137.57L68.61,135.3L69.61,152.93L69.94,142.69L70.27,142.12L70.6,139.28L70.93,135.3L71.26,147.81L71.93,156.34L72.26,146.1L72.59,149.51L72.92,148.38L73.25,146.1L73.58,153.49L73.92,151.22L74.25,145.53L75.57,129.04L75.9,137L76.24,135.86L76.57,138.71L76.9,130.75L77.56,131.75L77.89,137L78.56,142.12L78.89,139.84L79.22,140.98L79.88,147.69L80.21,140.6L80.88,150.22L81.21,146.02L82.87,129.83L83.2,134.18L83.53,134.48L83.86,130.48L84.19,136.51L84.52,134.98L84.85,127.94L85.85,144.64L86.18,152.11L86.51,159.66L86.84,154.83L87.17,155.98L87.51,151.21L88.17,151.46L88.5,148.17L88.83,153.53L89.16,149.26L89.49,144.03L89.83,151.46L90.16,151.07L90.49,147.83L91.15,144.58L91.48,148.24L91.81,142.81L92.15,156.13L92.48,150.81L92.81,155.57L93.14,152.76L93.47,159.27L93.8,156.37L94.13,154.56L95.13,152.24L95.46,145.72L96.46,137.75L96.79,145.64L97.12,144.93L97.45,141.87L98.11,142.24L98.44,140.09L98.78,140.96L99.44,147.25L99.77,145.1L100.1,139.35L100.43,146.42L100.76,133.19L101.1,133.79L101.43,132.55L102.09,130.53L102.42,128.73L102.75,128.53L103.08,124.77L103.42,121.83L103.75,130.56L104.41,123.62L104.74,124.33L105.07,126.51L105.74,120.95L106.07,127.02L107.06,121.46L107.39,125.5L108.06,116.4L108.39,128.53L108.72,137.49L109.05,134.24L109.38,123.98L109.71,127.02L110.04,121.96L110.38,123.48L110.71,128.53L112.03,115.9L112.37,118.93L112.7,117.92L113.03,123.48L113.36,114.38L114.02,114.88L114.35,111.85L114.69,112.86L115.02,110.33L115.35,114.38L116.01,113.37L116.34,116.4L117.01,113.37L117.34,109.83L118,106.8L118.33,100.22L118.66,98.71L118.99,115.9L120.32,120.45L120.65,140.67L121.98,110.84L122.31,122.47L122.97,115.9L123.3,120.45L124.63,106.8L125.29,107.3L125.62,105.78L125.96,102.75L126.29,106.29L126.62,105.28L127.28,113.37L127.61,108.31L127.94,107.81L129.6,99.72L129.93,101.24L130.93,103.76L131.26,95.67L131.92,99.21L132.25,102.25L132.92,97.19L133.25,98.2L133.58,101.74L133.91,108.31L134.24,101.74L134.57,100.73L134.9,100.73L135.24,105.78L135.57,101.24L135.9,110.33L136.89,117.92L137.22,116.91L137.89,105.78L138.22,110.84L138.55,110.33L138.88,112.36L139.21,110.33L139.54,104.27L140.54,91.12L140.87,91.63L141.2,93.65L141.53,91.63L141.87,97.19L142.2,91.12L142.86,92.14L143.19,94.16L143.52,94.66L143.85,92.64L144.19,91.63L144.52,94.66L145.51,128.73L145.84,123.49L146.17,127.57L146.51,123.66L146.84,120.96L147.5,128.44L147.83,148.66L148.83,122.43L149.16,123.5L149.49,123.01L149.82,120.86L150.81,131.27L151.15,122.44L151.81,128.32L152.14,122.55L153.13,127.99L153.47,124.76L154.46,115.83L154.79,124.29L155.12,122.62L155.46,125.09L156.78,120.8L157.11,129.58L157.44,139.89L157.78,137.37L158.11,132.14L158.44,125.03L158.77,128.65L159.1,128.82L159.43,128.39L159.76,124.8L160.1,125.16L160.43,129.2L160.76,130.27L161.09,125.8L161.42,119.71L161.75,138.5L162.75,130.38L163.08,129.74L163.41,130.31L163.74,126.46L164.07,137.71L164.74,136.15L165.07,144.25L166.06,131.38L166.39,169.04L167.06,158.89L167.39,164.62L168.05,169.68L168.38,167.02L168.71,168.04L169.04,165.34L169.38,169.48L169.71,171.18L170.04,164.6L170.37,163.94L170.7,165.45L171.03,162.07L171.37,167.21L171.7,162L172.03,169.16L172.36,169.09L172.69,165.75L174.35,157.65L174.68,159.35L175.01,153.44L175.34,156.91L175.67,159.14L176.34,151.18L176.67,152.84L177,166.59L178.99,154.71L179.32,155.3L179.98,153.1L180.31,160.11L180.65,161.71L180.98,157.25L182.3,150.92L182.63,153.79L183.63,144.25L183.96,141.01L184.96,147.23L185.29,144.87L185.62,146.27L185.95,143.57L186.28,147.61L187.28,142.05L187.61,135.44L188.6,139.86L188.93,134.82L189.6,133.82L189.93,128.9L190.59,135.82L190.92,135.41L191.25,134.76L191.92,133.19L192.25,121.73L192.58,126.53L192.91,120.4L193.24,124.15L193.57,124.56L193.9,118.66L194.9,120.14L195.23,117.24L195.89,123.32L196.22,120.98L196.56,120.21L196.89,120.38L197.22,122.43L197.55,120.71L197.88,125.46L198.21,126.04L198.54,121.29L198.88,148.23L199.54,145.3L199.87,146.63L201.86,112.15L202.19,118.2L202.52,110.72L203.19,111.71L203.52,114.16L204.51,106.17L204.84,114.02L205.51,107.07L205.84,122.09L206.17,120.53L206.5,125.57L207.49,122.3L207.83,125.72L208.82,138.74L209.15,132.08L209.48,134.74L209.81,132.66L210.15,133.19L210.81,126.39L211.14,133.07L211.47,125.59L212.13,127.16L212.47,124.59L212.8,134.48L213.13,124.29L213.46,129.3L214.46,122.39L214.79,125.59L215.78,139.11L216.11,135.57L216.78,129.94L217.11,130.63L217.44,134.52L218.43,123.04L218.76,121.19L219.43,118.02L219.76,128.87L220.09,129.94L220.42,126.48L220.75,119.05L221.08,127.36L221.42,128.48L221.75,124.61L222.08,136.24L222.41,139.1L222.74,137.71L223.07,129.77L223.4,129.34L223.74,131.06L224.07,125.24L224.4,128.5L224.73,128.65L225.06,131.79L225.39,126.91L225.72,124.72L226.06,127.51L227.38,119.65L227.71,122.9L228.71,116.01L229.04,125.89L229.37,126.65L229.7,119.63L230.03,121.83L230.37,118.74L230.7,118.02L231.03,119.45L231.36,132.3L231.69,119.06L232.02,123.5L232.35,120.59L232.69,122.84L233.02,125.24L234.34,115.86L234.67,120.41L235.01,117.89L235.34,120.86L235.67,126.8L236,127.06L236.33,117.06L236.66,117.73L236.99,120.54L237.33,126.19L237.66,125.77L237.99,122.93L238.32,123.48L238.65,117.85L239.31,87.59L239.65,97.86L239.98,121.11L240.64,132.14L240.97,131.67L241.3,131.84L241.63,140.32L241.97,135.35L242.3,132.07L243.29,136.66L243.62,136.12L243.96,136.84L244.29,131.52L244.62,135.24L244.95,130.82L245.28,131.91L246.28,137.67L246.61,133.25L246.94,136.84L247.27,132.04L247.6,142.37L248.26,139.87L248.6,136.65L249.59,130.35L249.92,135.39L251.25,121.36L251.58,120.68L252.57,132.03L252.9,129.06L254.56,118.94L254.89,121.57L255.22,121.11L255.56,123.05L255.89,123.43L256.22,119.27L256.55,110.55L256.88,119.53L257.21,124.79L257.88,125.32L258.21,119.82L258.54,121.18L258.87,118.98L259.2,125.73L259.53,120.79L259.87,120.94L260.2,122.84L260.53,120.77L260.86,132.07L261.19,129.8L261.52,142.69L262.19,140.79L262.52,138.14L263.51,141.55L263.84,149.13L264.17,151.41L264.51,149.13L264.84,147.24L265.17,140.41L265.83,141.55L266.16,138.14L266.49,139.66L266.83,138.52L267.16,138.9L267.49,138.9L267.82,140.03L268.15,138.52L268.48,143.83L268.81,144.21L269.15,142.31L269.48,137.76L269.81,141.17L270.14,140.79L270.8,132.83L271.13,137.38L271.47,136.24L271.8,132.07L272.13,126.01L272.46,127.9L272.79,134.73L273.12,144.96L273.46,144.21L273.79,141.17L274.45,137.76L274.78,140.41L275.78,143.07L276.11,141.93L276.44,138.9L276.77,140.79L277.1,141.55L277.43,138.52L277.76,144.21L278.1,139.28L278.43,144.21L278.76,147.24L279.42,142.69L279.75,138.9L280.08,135.48L280.42,139.28L280.75,140.79L282.07,130.18L282.4,137.38L283.07,143.07L283.4,139.66L283.73,140.79L284.06,144.96L284.72,134.35L285.06,135.48L285.39,135.86L286.38,132.83L286.71,132.45L288.04,143.07L288.37,137.76L289.37,144.21L289.7,142.69L290.36,147.62L290.69,144.58L291.35,149.51L291.69,148L292.02,142.69L293.01,152.17L293.34,149.13L294.67,133.97L295,139.66L295.33,135.86L295.66,137.76L295.99,139.66L296.99,137L297.32,137.76L298.31,134.73L298.65,141.17L298.98,144.21L299.31,142.31L299.64,140.03L299.97,140.79L300.3,138.9L300.63,144.58L300.97,139.66L301.3,137.38L301.63,143.45L301.96,142.69L302.29,139.28L302.62,138.9L302.96,139.28L303.29,137.38L303.62,133.21L303.95,138.14L304.28,138.52L304.61,137L304.94,139.28L305.28,137L305.61,137.76L305.94,138.14L308.26,130.18L308.59,130.18L309.92,122.59L310.25,128.66L310.58,131.69L310.91,127.14L311.24,124.11L311.57,127.14L311.9,127.14L312.24,128.66L312.57,134.73L313.23,134.35L313.56,133.59L314.56,129.8L314.89,135.11L315.22,139.66L315.55,136.62L315.88,130.94L316.21,129.04L316.54,132.07L317.87,129.42L318.2,122.97L319.2,124.49L319.53,122.97L319.86,122.59L320.19,128.28L320.85,122.59L321.19,126.76L322.51,133.97L322.84,130.18L323.84,125.25L324.17,129.04L324.5,130.56L325.16,130.18L325.49,124.87L326.49,137L326.82,136.62L327.15,137.38L327.48,130.94L328.15,131.31L328.48,138.52L330.8,132.83L331.13,132.45L331.79,135.11L332.12,130.18L332.46,133.21L332.79,129.8L333.12,129.04L334.11,146.1L334.44,145.72L335.11,143.07L335.44,148L336.1,151.03L336.43,148.38L336.76,145.34L337.1,148L337.43,147.24L337.76,146.1L338.09,147.62L338.42,148.38L338.75,150.27L339.08,145.72L339.42,145.72L339.75,144.58L340.08,145.17L340.41,150.27L340.74,158.23L341.07,151.41L341.4,155.58L341.74,155.58L342.07,151.79L342.4,151.03L342.73,154.82L344.06,164.3L344.39,162.4L344.72,163.16L345.05,160.89L346.38,157.1L346.71,156.72L347.37,150.65L347.7,153.68L348.03,151.41L349.36,145.34L349.69,143.83L350.35,147.62L350.69,142.31L351.35,149.13L351.68,148.75L352.01,146.48L353.34,136.24L353.67,138.52L354.33,132.45L354.66,135.11L354.99,134.35L356.32,133.97L356.65,138.14L356.98,135.48L357.31,141.55L357.98,136.62L358.31,138.14L358.64,135.48L358.97,136.62L359.3,133.59L359.63,133.97L359.97,130.18L360.3,109.7L360.63,114.63L360.96,133.59L362.62,149.89L362.95,141.93L363.28,142.31L363.61,144.58L363.94,145.72L364.28,144.21L364.61,144.58L364.94,142.69L365.27,143.07L365.6,145.34L366.26,151.03L366.6,150.27L366.93,143.45L368.25,149.51L368.58,149.13L369.25,143.45L369.58,145.72L369.91,144.21L370.57,148L370.9,146.1L371.24,146.86L371.9,139.28L372.23,141.17L372.56,138.52L372.89,139.66L373.22,138.52L373.56,138.14L373.89,137L374.22,132.45L374.88,136.62L375.21,135.48L375.54,136.24L376.54,128.66L376.87,131.69L377.2,129.42L377.53,142.31L378.2,151.41L378.53,142.69L379.19,143.07L379.52,138.52L380.52,158.99L380.85,154.82L381.84,152.93L382.17,148.75L382.51,154.82L382.84,154.06L383.17,148.75L383.5,143.83L383.83,147.24L384.16,145.34L384.49,141.55L384.83,144.21L385.16,145.72L385.49,143.83L385.82,146.48L386.81,140.41L387.15,145.72L387.48,146.1L387.81,140.79L388.8,137.38L389.13,144.58L389.47,146.1L389.8,144.21L390.13,139.28L390.46,140.79L390.79,138.9L391.12,136.24L391.46,137.38L391.79,141.17L392.12,143.45L392.45,139.66L394.11,148.75L394.44,148.75L394.77,148.38L395.1,145.72L396.1,154.44L396.43,151.79L396.76,151.03L397.09,153.3L397.42,150.27L397.75,150.27L398.08,152.17L399.08,149.13L399.41,151.03L399.74,154.82L400.07,150.27L400.4,151.79L401.73,145.34L402.06,145.34L402.39,141.55L402.72,149.51L403.06,152.55L403.39,149.13L403.72,149.89L404.05,151.03L404.38,148L405.38,144.58L405.71,146.48L406.04,148L406.37,146.1L406.7,146.1L407.03,149.51L407.37,143.45L407.7,141.17L408.03,143.45L408.36,143.45L408.69,142.69L409.02,144.21L409.69,146.48L410.02,142.69L410.35,148L410.68,142.69L411.01,139.66L412.01,131.69L412.34,132.45L412.67,132.45L413,130.56L413.33,138.14L413.66,132.45L413.99,133.21L414.33,133.21L414.66,132.45L414.99,136.62L415.32,135.11L415.65,135.11L415.98,136.24L416.31,132.83L417.31,137.38L417.64,133.97L418.3,135.48L418.63,133.59L418.97,133.21L419.3,131.31L420.62,125.63L420.96,130.18L421.95,133.59L422.28,137L422.61,139.28L422.94,136.62L423.28,136.24L423.61,140.03L423.94,139.66L424.27,138.52L424.93,140.41L425.26,138.14L426.59,130.56L426.92,129.42L427.25,128.28L427.58,132.45L428.25,130.56L428.58,133.59L429.24,138.14L429.57,135.11L430.57,127.14L430.9,115.01L431.23,115.77L431.56,119.56L432.22,118.42L432.56,118.8L432.89,122.97L433.22,121.46L433.55,122.59L433.88,122.97L434.54,118.8L434.88,122.97L435.87,129.04L436.2,124.49L437.53,120.32L437.86,124.49L438.19,120.32L438.52,121.46L438.85,122.97L439.52,123.35L439.85,125.25L441.17,139.66L441.51,135.48L442.17,130.94L442.5,140.41L443.16,142.31L443.49,137.76L443.83,131.69L444.16,133.21L444.49,133.97L444.82,133.21L445.15,135.86L445.48,135.11L445.81,132.45L446.81,127.52L447.14,132.45L447.8,131.31L448.13,127.9L448.8,132.07L449.13,129.42L449.79,128.66L450.12,133.21L450.46,129.42L450.79,130.18L451.12,132.45L452.11,131.69L452.44,129.42L452.78,124.49L453.11,127.9L453.44,128.28L454.1,126.76L454.43,130.18L454.76,129.8L455.1,125.25L455.43,124.87L455.76,125.63L456.09,122.97L457.08,130.18L457.42,128.28L458.08,126.76L458.41,127.9L458.74,126.76L459.07,132.07L459.4,132.07L459.74,141.45L460.73,128.66L461.06,127.52L462.39,144.21L462.72,140.41L463.71,146.48L464.04,144.58L465.04,143.45L465.37,143.07L466.03,149.13L466.37,147.62L466.7,146.1L467.36,148.38L467.69,122.84L468.35,151.03L468.69,148L469.02,148.38L469.35,147.62L469.68,143.83L470.34,143.45L470.67,145.72L471.01,140.79L471.34,141.93L471.67,145.34L472,143.07" style="vector-effect: non-scaling-stroke; fill: none; stroke: rgb(0, 204, 150); stroke-opacity: 1; stroke-width: 2px; opacity: 1;"/></g><g class="points"/><g class="text"/></g><g class="trace scatter trace958540" style="stroke-miterlimit: 2; opacity: 1;"><g class="fills"/><g class="errorbars"/><g class="lines"><path class="js-line" d="M0,206.22L0.33,212.23L0.66,211.13L0.99,207.48L2.32,199.34L2.65,200.63L4.31,194.84L4.64,198.59L5.63,187.42L5.97,192.85L7.29,183.38L7.62,185.81L7.96,189.58L8.29,181.32L8.62,191.91L8.95,191.64L9.28,193.35L10.28,180.3L10.61,185.06L11.27,195.11L11.6,191.05L11.93,190.36L12.26,186.21L12.6,187.39L12.93,188.52L13.26,194.04L13.59,187.34L13.92,190.77L14.58,183.23L14.92,185.54L15.25,185.71L15.91,192.82L16.24,187.44L17.24,180.19L17.57,184.04L18.23,205.76L18.56,199.37L18.89,204.7L19.89,196.17L20.22,175.69L20.55,179.94L21.21,179.12L21.54,179.36L23.2,187.73L23.53,185.06L24.2,182.39L24.53,184.3L25.52,195.75L25.85,191.51L26.19,192.61L26.52,200.71L26.85,195.89L27.18,202.33L28.17,207.09L28.51,204.95L29.83,207.73L30.16,204.51L30.49,202.38L30.83,203.9L31.16,204.5L31.49,200.97L31.82,204.81L32.15,209.77L33.15,204.54L33.48,207.22L33.81,211.4L34.47,210.67L34.8,206.39L35.8,193.43L36.13,199.21L36.46,198.26L36.79,201.38L37.12,205.13L37.46,201.61L37.79,198.46L38.12,201.74L38.45,201.64L38.78,196.46L39.11,201.7L39.44,199.65L39.78,195.93L40.44,193.98L40.77,191.7L41.1,196.56L41.43,190L41.76,194.79L42.1,191.36L42.43,191.68L43.09,184.95L43.42,186.35L43.75,186.07L44.08,186.76L44.42,180.32L46.07,192.68L46.4,189.02L46.74,182.61L47.07,189.05L47.4,184.33L48.06,195.09L48.39,202.96L49.06,189.85L50.05,196.24L51.04,205.72L51.38,197.46L51.71,194.26L52.04,195.72L52.37,197.66L53.03,203.04L53.37,211.97L53.7,196.76L54.03,200.71L54.36,205.79L55.02,206.09L55.35,210.54L56.35,205.72L56.68,206.47L57.01,208.18L57.34,207.58L57.67,214.14L58.01,213.3L58.34,209.91L58.67,206.71L59,211.79L59.33,208.03L59.66,217.47L59.99,222.1L60.33,219.56L60.66,215.18L60.99,214.13L61.32,217.64L61.65,217.15L61.98,218.01L62.31,220.24L62.65,217.09L62.98,210.31L63.31,213.54L63.64,217.06L63.97,212.04L64.3,214.47L64.63,217.88L65.3,211.85L65.63,215.76L66.62,204.96L66.96,214L67.29,214.39L67.62,209.57L67.95,208.27L68.28,209.51L68.61,210.91L68.94,212.02L69.28,217.58L69.94,209.03L70.27,210.38L70.6,211.26L70.93,211.21L71.26,216.11L71.6,220.06L71.93,214.58L72.26,209L72.59,214.26L72.92,213.68L73.25,213.38L73.58,215.54L73.92,214.54L74.25,210.36L74.58,205.01L74.91,207.02L75.24,206.57L75.57,203.75L75.9,211.59L76.24,213.47L76.57,212.78L76.9,203.38L77.23,200.62L77.56,203.62L77.89,203.65L78.89,216.13L79.22,209.95L79.88,206.19L80.21,212.4L80.88,222.95L81.21,219.51L81.54,213.63L82.2,214.59L82.53,221.07L82.87,221.38L83.2,220L83.86,218.79L84.19,217.4L85.19,220.01L85.52,217.05L87.17,229.66L87.51,225.93L88.83,217.04L89.16,218.7L89.49,218.56L89.83,222.12L90.16,224.89L90.49,222.51L90.82,216.98L91.15,211.12L91.81,211.63L92.15,216.13L92.48,220.53L92.81,217.51L93.14,213.57L93.47,214.32L93.8,217.43L94.13,217.66L94.47,219.32L94.8,223.96L95.46,222.84L95.79,218.96L96.46,222.48L96.79,219.84L97.12,220.66L97.45,212.61L98.11,206.01L98.44,211.15L99.11,217.12L99.44,216.45L99.77,215.86L100.76,208.29L101.1,206.04L101.76,210.49L102.09,209.31L102.42,203.2L103.42,207.79L103.75,212.83L104.08,215.3L104.41,205.5L104.74,203.04L105.07,209.44L105.74,204.08L106.07,210.1L106.4,208.91L106.73,200.71L107.06,202.54L107.39,199.61L108.06,199.71L108.39,207.81L109.05,199.23L109.38,200.54L109.71,198.33L110.38,197.26L110.71,190.14L111.04,190.14L111.37,186.43L111.7,184.79L112.03,186.03L112.37,188.93L112.7,192.26L113.03,189.42L113.36,183.38L113.69,182.73L114.02,173.7L114.35,173.61L114.69,176.74L115.35,186.48L115.68,180.08L116.01,177.9L116.34,183.45L118,168.56L118.33,152.77L118.66,135.82L118.99,172.73L119.33,183.23L119.99,182.22L120.32,185.61L120.65,190.87L120.98,189.33L121.31,185.84L121.65,179.46L121.98,180.63L122.31,187.81L123.3,176.73L123.63,184.13L124.96,173.22L125.29,169.66L125.62,168.54L125.96,161.49L127.61,173.16L127.94,166.53L128.28,163.25L128.61,165.85L128.94,164.92L129.6,168.71L129.93,163.44L130.93,156.3L131.26,159.42L131.59,159.21L131.92,164.61L132.25,166.25L132.58,156.49L133.25,151.93L133.58,156.76L134.24,167.08L134.57,160.05L134.9,149.59L135.24,154.46L135.57,152.36L135.9,155.99L136.23,168.02L136.56,179.88L136.89,176.25L137.22,169.16L138.55,157.48L138.88,164.06L139.54,156.19L139.88,163.65L140.21,163.36L140.54,155.57L141.2,164.48L141.53,160.49L142.86,148.39L143.19,155.81L143.52,153.2L143.85,159.21L144.85,151.49L145.18,153.42L145.84,160.28L146.17,159.89L146.51,154.86L147.5,151.06L147.83,159.31L148.49,157.43L148.83,159.22L149.16,159.86L149.49,156.52L149.82,156.66L150.15,164.96L150.48,168.6L150.81,167.56L151.15,161.31L151.48,165.22L151.81,164.1L152.14,160.58L152.47,166.43L153.13,165.27L153.47,160.95L153.8,160.9L154.13,165.88L154.46,169.18L154.79,166.72L155.12,167.29L155.46,169.7L155.79,168.8L156.12,165.3L156.45,160.09L156.78,162.27L157.11,168.84L157.44,178.08L157.78,160.94L158.44,153.92L158.77,155.91L159.1,159.51L159.43,158.36L159.76,161.58L161.09,146.41L161.42,146.62L161.75,156.03L162.08,154.04L162.42,153.25L163.08,144.79L163.41,145.58L163.74,146.96L164.4,164.11L164.74,157.58L165.07,146.12L165.73,154.81L166.06,154.37L166.39,178.23L166.72,175.57L167.06,165.81L167.39,156.65L167.72,159.63L168.05,161.12L168.38,158.51L168.71,163.65L169.04,164.93L169.38,169.31L169.71,166.08L170.04,171.74L170.7,170.76L171.03,164.27L171.37,173.87L172.03,173.22L172.36,172.53L172.69,175.7L173.02,174.42L173.35,185.08L174.35,174.54L174.68,176.79L175.01,175.94L175.34,176.06L175.67,183.97L176.01,189.65L176.34,185.1L176.67,186.59L177,200.12L177.66,197.34L177.99,201.02L178.33,201.99L178.66,200.62L179.65,187.83L179.98,186.38L180.65,193.93L180.98,191.74L181.31,187.17L181.64,190.79L181.97,185.5L182.63,183.8L182.97,185.14L183.63,178.94L183.96,182.47L184.62,187.87L184.96,184.67L185.29,183.06L185.62,176.97L185.95,177.84L186.28,169.6L186.94,177.42L187.28,169.85L188.27,159.76L188.6,168.23L189.93,162.66L190.26,163.27L190.59,163.03L190.92,160.83L191.25,160.41L191.58,163.52L192.25,176.06L192.58,167.68L192.91,169.51L193.24,165.66L193.57,165.83L193.9,163.26L194.9,177.99L195.23,169.38L195.56,167.56L195.89,174.09L196.22,169.37L196.56,170.12L196.89,175.51L197.55,168.84L197.88,169.32L198.21,170.3L198.54,163.66L198.88,172.29L200.2,154.44L200.53,160.79L200.87,165.03L201.2,159.38L201.86,165.38L202.19,149.85L202.52,151.51L202.85,157.7L203.19,157.13L203.52,159.34L203.85,162.83L204.18,160.54L204.51,149.96L205.84,163.89L206.17,169.82L206.83,165.71L207.16,169.53L208.49,175.73L208.82,176.66L209.48,165.69L209.81,167.35L210.15,164.15L210.48,161.29L210.81,162.67L211.14,166.18L212.13,156.74L212.47,157.98L213.13,168.69L213.46,167.57L213.79,157.18L214.46,154.11L214.79,159.95L215.12,169.04L215.45,164.19L215.78,161.19L216.78,153.15L217.11,158.65L217.44,154.44L217.77,158.92L218.1,159.36L218.43,149.05L218.76,152.68L219.1,152.68L219.43,152.46L219.76,154.04L220.42,157.84L220.75,151.51L221.08,154.02L221.42,164.4L221.75,154.2L222.08,155.27L222.41,158.72L223.4,146L223.74,147L224.07,148.93L224.4,157.65L225.06,165.71L225.39,155.62L225.72,157.76L226.06,152.12L227.05,165.32L227.38,165.16L227.71,165.33L228.71,156.77L229.04,157.78L229.37,164.72L229.7,165.4L230.03,155.32L230.37,153.81L230.7,167.46L231.03,159.8L231.69,161.03L232.02,161.77L232.69,162.31L233.02,159.96L233.35,161.55L233.68,168.8L234.01,161.91L234.34,164.21L234.67,171.95L235.34,167.35L235.67,167.48L236,189.22L236.66,175.64L237.33,176.56L237.66,175.17L237.99,174.96L238.32,177.89L238.65,179.71L238.98,172.39L239.65,141.63L239.98,183.91L240.97,199.41L241.3,197.87L241.63,199.27L241.97,211.79L242.96,197.54L243.29,198.07L243.62,198.92L243.96,196.61L244.29,198.22L244.62,196.42L244.95,195.52L245.94,188.94L246.28,194.58L247.27,191.31L247.6,195.14L247.93,196.19L248.26,195.41L248.6,191.65L248.93,187.87L249.26,195.26L249.59,193.26L249.92,196.55L250.25,193.07L250.58,199.24L250.92,193.39L251.25,195.34L251.58,195.08L252.57,204.56L252.9,203.38L253.24,202.27L253.57,198.1L254.56,190.38L254.89,190.51L255.22,192.57L255.89,181.24L256.22,181.87L256.55,178.22L256.88,180.88L257.21,194.5L257.54,196.92L257.88,186.98L258.54,188.76L258.87,186.48L259.2,186.44L259.53,194.12L260.53,182.39L260.86,186.52L261.19,185.36L261.85,202.09L262.19,196.03L262.52,187.59L262.85,188.32L263.18,185.58L264.17,207.64L264.51,206.8L264.84,193.39L265.5,192.95L265.83,196.77L266.83,206.26L267.16,192.67L267.49,194.73L267.82,192.87L268.15,189.7L268.48,191.8L268.81,204.14L269.15,206.78L269.48,194.79L269.81,190.87L270.14,194.43L270.47,198.4L271.8,186.1L272.13,185.46L272.46,188.02L272.79,181.45L273.46,192.91L273.79,189.31L274.12,178.51L274.45,176.73L274.78,180.18L276.11,187.85L276.44,185.58L277.1,191.11L277.43,190.3L277.76,186.87L278.1,188.91L278.43,186.56L278.76,181.6L279.09,185.27L279.42,180.78L279.75,175.89L280.42,189.16L280.75,186.59L281.08,179.96L281.41,178.7L281.74,185.64L282.07,179.62L282.4,179.89L282.74,182.38L283.07,181.99L283.4,176.2L284.06,168.96L284.39,169.91L284.72,170.57L285.06,176.13L285.39,174.33L285.72,167.37L286.05,170.09L286.38,167.91L286.71,165.95L287.38,181.43L287.71,178.17L288.04,172.04L288.7,171.65L289.03,176.6L289.37,191.62L291.02,175.57L291.35,180.34L292.02,177.24L292.35,180.5L292.68,168.26L293.34,171.14L293.67,169.3L294.67,175.68L295,165.63L295.99,163.43L296.33,172.06L296.99,170.8L297.32,161.81L297.65,161.81L297.98,162.91L298.98,169.22L299.31,168.91L300.3,160.26L300.63,164.31L301.3,183.49L301.63,178.09L301.96,167.57L303.62,173.94L303.95,171.82L304.94,166.09L305.28,168.48L306.27,179.19L306.6,175.77L307.6,171.67L307.93,175.96L308.26,174.54L308.59,176.51L308.92,167.36L309.58,168.2L309.92,164.03L310.91,175.47L311.24,168.06L311.57,164.91L311.9,165.22L312.24,170.52L312.9,185.94L313.23,185.33L313.56,175.44L314.56,172.95L314.89,180.15L315.55,186.24L315.88,173.54L316.54,178.2L316.88,175.23L317.87,180.33L318.2,168.16L318.53,170.98L318.87,167.03L319.2,188.79L319.86,184.14L320.19,184.1L321.19,173.9L321.52,181.28L322.18,196.83L322.51,195.54L322.84,184.34L323.17,195.8L323.51,188.67L323.84,178.75L324.17,176.1L324.5,179.42L324.83,177.97L325.16,171.69L325.49,174.05L325.83,173.35L326.82,184.21L327.15,179.42L327.81,168.63L328.15,172.65L328.48,166.86L328.81,166.01L329.14,170.13L329.47,169.37L329.8,161.42L330.13,162.35L330.47,161.22L330.8,160.8L331.13,162.18L331.46,176.67L331.79,176.1L332.12,166.01L332.46,167.39L332.79,165.62L333.12,164.26L334.11,179.88L334.44,167.08L334.78,165.14L335.11,167.86L335.44,163.66L335.77,178.52L336.1,186.95L336.43,186.46L336.76,174.54L338.42,194.71L338.75,190.23L339.08,181.33L339.42,182.36L339.75,178.82L340.41,192.36L340.74,198.12L341.74,181.51L342.07,185.78L342.4,192.16L343.39,200.68L343.72,195.72L344.06,198.11L344.39,194.46L344.72,193.49L345.05,184.45L345.38,184.82L345.71,187.91L346.71,168.05L347.04,170.87L347.7,188.94L348.03,184.73L348.37,177.35L348.7,173.67L349.03,178.3L349.36,177.02L349.69,177.02L350.02,180.37L350.35,180.04L350.69,174.54L351.35,177.81L351.68,171.95L352.34,183.46L352.67,172.8L353.01,168.45L353.34,171.74L353.67,169.81L354,180.54L354.66,178.65L354.99,178.4L355.33,175.89L355.66,180.89L355.99,177.12L356.32,180.76L356.65,180.36L357.31,185.13L357.65,177.32L358.64,171.29L358.97,179.02L359.97,166.5L360.3,148.84L360.63,122.29L360.96,176.94L361.96,201.16L362.29,196.02L362.95,190.58L363.28,192.01L363.61,200.4L363.94,204.8L364.28,201.99L364.61,199.78L365.27,194.07L365.6,198.2L365.93,215.78L366.26,214.13L366.6,210.9L367.59,200.88L367.92,201.15L368.25,193.77L368.58,201.08L368.92,206.33L369.25,196.13L369.91,197.57L370.24,196.09L371.24,204.13L371.57,193.92L371.9,199.92L372.23,197.25L372.56,194.05L372.89,196.16L373.22,204.5L373.56,205.96L373.89,204.11L374.22,203.56L374.55,196.42L374.88,199.65L375.21,200.19L375.54,207.08L375.88,204.66L376.21,196.2L376.54,195.74L376.87,197.6L378.53,195.59L378.86,195.59L379.85,212.82L380.19,211.66L380.52,207.1L380.85,206.5L381.18,197.99L381.51,202.39L381.84,199.65L382.17,195.3L382.84,207.83L383.17,198.76L383.5,199.79L383.83,199.24L384.16,199.04L384.49,187.69L385.16,189.31L385.49,189.18L386.15,188.31L386.48,191.26L386.81,189.15L387.15,189.78L387.48,196.16L388.47,187.47L388.8,198.61L389.13,218.09L389.47,211.96L389.8,209.83L390.13,208.93L390.46,205.59L391.12,204.95L391.46,216.35L392.45,206.54L392.78,208.66L393.11,208.72L393.44,209.73L393.78,211.32L394.11,208.66L394.44,208.54L394.77,211.95L395.43,210.15L395.76,214.61L396.1,212.85L396.43,214.08L396.76,217.92L397.09,224.69L397.75,224.52L398.08,222.43L398.75,212.06L399.08,213.22L399.41,219.56L400.74,207.68L401.07,198.9L402.72,213.07L403.06,210.27L403.39,206.87L403.72,211.74L404.38,220.35L404.71,218.27L405.04,214.77L406.04,204.34L406.37,208.75L406.7,209.77L407.03,207.37L407.7,201.7L408.03,196.03L408.36,195.54L408.69,206.15L410.68,185.89L411.01,193.52L412.01,204.88L412.34,181.35L412.67,182.35L413,187.92L413.99,195.37L414.33,193.77L414.66,195.15L414.99,189.26L415.32,197.56L416.31,204.8L416.65,204.45L416.98,195.59L417.64,192.32L417.97,197.23L418.3,196.74L418.63,193.85L418.97,193.59L419.3,189.34L419.63,184.9L419.96,186.55L420.29,193.29L420.96,197.56L421.29,197.3L421.62,194.83L422.28,191.84L422.61,194.05L424.27,179.52L424.6,180.53L424.93,187.97L425.6,190.63L425.93,185.61L426.26,175.11L426.92,177.62L427.25,183.29L427.58,182.31L427.92,185.13L428.25,181.74L428.91,181.88L429.24,183.55L429.57,187.54L429.9,182.04L430.24,183.49L430.57,174.06L430.9,169.11L431.23,173.3L431.56,177.99L432.22,180.89L432.56,184.05L432.89,186.46L433.22,182.77L433.55,179.03L433.88,182.98L434.21,181.47L435.21,182.92L435.54,187.22L435.87,178.94L436.53,180.03L436.87,181.56L437.53,183.09L437.86,182.24L438.19,179.34L438.52,181.38L438.85,181.19L440.18,195.13L440.51,192.74L440.84,193.67L441.17,192.23L441.51,193.82L441.84,191.62L442.17,191.3L442.5,191.86L442.83,186.42L443.49,187.78L443.83,186.71L444.16,187.22L444.49,184.4L444.82,171.13L445.15,180.89L445.48,181.51L446.48,189.3L446.81,188.15L447.14,188.04L447.47,184.8L447.8,187.71L448.13,191.78L448.8,181.15L449.13,189.58L449.46,194.12L449.79,188.24L450.12,184L450.46,197.11L451.12,197.87L451.45,196.92L451.78,199.04L452.11,197.07L452.44,194.2L452.78,197.67L453.11,195.76L453.44,192.01L453.77,192.29L454.1,200.67L455.1,192.56L455.43,194.07L456.42,202.84L456.75,195.39L457.08,198.97L457.42,195.13L457.75,196.31L458.08,198.56L458.41,196.52L458.74,205.2L459.07,205.65L459.4,201.42L460.4,196.82L460.73,198.44L461.06,190.96L461.39,199.86L461.72,199.92L462.06,196.05L462.39,200.81L462.72,202.03L464.04,213.98L464.38,208.72L464.71,208.54L465.04,211.71L465.37,211.86L465.7,216.91L466.03,212.51L466.7,213.07L467.03,214.93L467.69,217.98L468.02,215.5L468.69,208.63L469.02,213.71L469.35,213.9L469.68,209.58L470.34,215.24L470.67,208.6L471.01,201.34L471.34,211.03L471.67,214.09L472,212.56" style="vector-effect: non-scaling-stroke; fill: none; stroke: rgb(171, 99, 250); stroke-opacity: 1; stroke-width: 2px; opacity: 1;"/></g><g class="points"/><g class="text"/></g><g class="trace scatter tracedac5e5" style="stroke-miterlimit: 2; opacity: 1;"><g class="fills"/><g class="errorbars"/><g class="lines"><path class="js-line" d="M0,214.14L0.33,214.33L0.66,219.27L0.99,215.11L1.33,215.23L1.66,220.46L3.65,212.85L3.98,215.1L4.31,218.88L4.64,218.16L4.97,209.62L5.3,213.16L5.97,212.67L6.3,215.35L6.63,217.7L6.96,214.06L7.29,210.22L7.62,211.92L7.96,212.99L8.29,212.81L8.62,219.11L9.61,201.76L9.94,204.89L10.28,204.28L10.61,204.42L10.94,206.38L11.27,203.72L11.6,205.63L11.93,193.24L13.59,209.57L13.92,204.29L14.58,196.94L14.92,201.6L15.25,201.51L15.58,202.93L15.91,205.25L16.24,202.29L16.57,197.43L16.9,192.97L17.24,193.78L17.57,198.41L18.89,223.21L19.22,218.55L21.21,191.91L21.54,195.15L22.21,196.6L22.54,198.71L22.87,203L23.2,197.86L23.53,195.91L24.2,197.06L24.53,199.47L25.19,213.53L25.52,206.6L26.19,210.2L26.52,206.83L26.85,207.83L27.18,211.77L27.51,218.62L27.84,216.62L28.17,214.53L28.51,212.61L28.84,216.32L29.17,214.29L29.5,214.67L29.83,215.8L30.16,215.89L30.49,214.72L31.82,209.18L32.15,210.14L32.48,208.55L32.81,202.77L33.81,211.07L34.14,207.88L34.47,209.47L34.8,202.07L35.8,199.45L36.13,201.77L36.46,204.16L36.79,202.53L37.12,202.77L37.79,197.66L38.12,193.97L39.11,202.65L39.44,199.94L40.44,189.56L40.77,197.78L41.1,203.16L41.43,200.54L41.76,196.19L42.76,189.08L43.09,189.56L43.42,194.16L43.75,204.45L44.08,187.81L44.42,191.78L44.75,189.27L45.08,190.23L45.41,191.82L45.74,206.67L46.74,192.67L47.07,193.03L47.4,195.38L47.73,192.39L48.06,207.94L48.39,205.99L48.72,194.1L50.71,202.59L51.04,197.64L51.38,196.91L51.71,199.97L52.37,195.75L52.7,213.19L53.7,203.41L54.03,203.62L54.36,204.66L55.02,214.8L55.35,214.24L55.69,204.26L57.34,219.82L57.67,218.75L58.34,215.91L58.67,218.21L59.99,230.79L60.33,226.02L60.66,218.06L60.99,223.92L61.32,228.54L61.65,226.03L61.98,229.07L62.31,227.92L62.65,225.91L63.31,226.31L63.64,227.41L64.3,229.95L64.63,228.98L64.97,222.3L65.63,226.09L65.96,220.54L66.62,214.62L66.96,227.89L67.29,228.91L67.62,222.16L68.61,229.37L68.94,224.66L69.61,226.6L69.94,220.26L70.27,220.23L70.6,216.93L71.26,224.27L71.6,223.93L71.93,220.29L72.26,218.85L72.59,221.99L72.92,221.57L73.25,227.39L74.58,213.87L74.91,219.05L75.9,212.02L76.24,215.95L76.57,215.93L76.9,212.2L77.23,209.45L77.56,212.53L77.89,212.13L78.22,221.29L78.56,219.19L78.89,218.09L79.88,212.82L80.21,215.58L80.88,220.01L81.21,216.26L81.54,207.66L81.87,212.79L82.2,211.9L82.87,224.27L83.2,229.77L83.86,214.74L84.19,217.3L84.52,218.32L84.85,223.59L85.19,218.91L85.52,217.78L86.18,213.22L86.51,222.68L87.84,234.2L88.17,232.7L89.16,221.18L89.49,221.98L90.16,231.1L90.49,230.96L90.82,220.91L91.15,219.87L91.48,222.05L92.48,232.44L92.81,231.17L93.14,221.5L93.8,221.17L94.13,223.39L94.47,225.63L94.8,237.33L95.13,227.41L95.46,223.92L96.46,220.39L96.79,218.71L97.12,226.06L97.45,221.57L97.78,210.19L99.44,224.61L99.77,220.15L100.43,215.93L100.76,218.37L101.1,212.54L101.43,215.87L101.76,220.28L102.75,207.39L103.08,212.3L103.42,210.87L103.75,214.05L104.08,220.33L104.41,217.18L104.74,208.66L105.07,205.36L105.4,212.41L106.07,207.26L106.4,214.98L106.73,213.55L107.06,208.16L107.39,204.08L107.72,207.8L108.06,207.58L108.72,218.67L109.05,218.54L109.38,205.45L109.71,199.26L110.04,203.38L110.38,202.42L111.04,203.47L111.37,200.77L111.7,193.11L112.03,198.28L112.37,200.09L112.7,198.97L113.03,200.91L113.36,202.8L113.69,200.69L114.02,196.33L114.35,196.82L114.69,199.05L116.01,192.27L116.34,192.25L116.67,187.61L117.01,190.49L117.34,193.33L118,196.58L118.33,191.13L118.66,162.67L118.99,189.26L119.33,194.36L119.66,192.42L119.99,194.91L120.32,201.82L120.98,198.91L121.31,185.21L121.65,186.08L121.98,190.54L122.31,193.56L122.64,192.66L122.97,192.56L123.3,192.17L123.63,188.56L123.97,189.7L124.3,186.61L125.62,172.85L125.96,174.01L126.29,179.75L126.62,181.22L126.95,178.72L127.28,187.94L127.61,187.87L127.94,177.63L128.61,184.16L128.94,182.29L129.27,184.97L129.6,190.8L129.93,186.64L130.26,181.3L130.6,181.34L130.93,180.52L131.26,178.63L131.59,178.94L131.92,181.39L132.25,181.14L132.58,173.38L132.92,173.59L133.25,171.5L134.57,183.11L134.9,173.14L135.24,183.37L135.57,175.17L135.9,178.61L136.89,195.98L137.22,191.58L137.56,191.7L137.89,186.42L138.55,184.02L138.88,187.18L139.54,177.05L139.88,182.57L140.54,174.95L140.87,178.48L141.2,183.71L141.53,180.32L141.87,172.66L142.2,172.13L142.53,175.92L142.86,168.19L143.19,179.29L144.52,163.79L144.85,164.15L145.18,165.08L145.51,164.19L145.84,171.31L146.84,151.11L147.17,152.86L147.5,149.99L147.83,161.47L148.16,171.68L148.49,164.43L148.83,155.05L149.82,163.65L150.15,163.49L150.48,164.21L150.81,163.37L151.15,157L151.48,154.96L151.81,158.97L152.8,169.34L153.13,168.14L153.47,156.36L153.8,158.27L154.13,156.62L154.46,156.39L155.46,178.3L155.79,156.97L156.78,161.64L157.11,160.74L157.44,169.82L158.77,152.85L159.1,157.43L159.43,155.82L159.76,163.96L160.76,146.46L161.09,151.59L161.42,151.53L161.75,150.18L162.08,155.24L163.08,145.33L163.41,148.63L163.74,146.52L164.07,149.14L164.4,153.16L165.07,143.04L165.4,148.84L166.06,148.04L166.39,160.78L167.39,144.28L167.72,149.01L168.05,149.88L168.38,152.9L168.71,152.24L169.04,156.33L169.71,160.58L170.04,159.17L170.37,152.64L170.7,153.65L171.03,162.51L171.37,162.4L171.7,161.13L173.02,169.91L173.35,168.82L173.69,169.07L174.02,170.96L174.68,167.96L175.01,169.12L175.34,174.75L175.67,179.05L176.01,178.65L176.34,175.79L177,195.23L177.66,195.03L177.99,190.4L178.33,190.88L178.66,183.7L179.32,188.34L179.65,183.57L180.65,196.07L180.98,192.48L181.31,192.34L181.97,189.18L182.3,193.61L182.63,185.52L183.3,185.65L183.63,184.62L184.62,193.47L184.96,189.14L185.29,191.41L185.62,187.37L186.28,173.39L186.61,173.5L186.94,177.12L187.28,170.09L187.61,175.27L187.94,174.54L188.27,167.35L188.6,174.54L188.93,176.61L189.93,185.67L190.26,180.61L191.25,171.34L191.58,172.47L192.25,183.75L192.58,181.97L192.91,178.43L193.24,180.13L193.57,177.42L193.9,177.62L194.24,179.5L194.57,187.98L194.9,183.83L195.23,178.32L195.56,174.43L195.89,176.68L196.22,176.07L196.89,187.25L197.22,186.45L197.55,180.84L197.88,180.21L198.21,180.48L198.54,183.04L198.88,186.67L199.21,180.21L199.54,178.84L199.87,167.25L200.87,170.59L201.2,169.48L201.53,177.41L201.86,175.58L202.19,164.37L203.52,174.94L203.85,178.21L204.51,170.86L204.84,171.39L205.17,171.49L205.51,170.39L205.84,176.66L206.17,178.23L206.5,175.27L206.83,168.91L207.16,168.95L207.49,172.2L208.49,177.62L208.82,172.46L209.48,166.87L209.81,166.98L210.15,168.53L210.81,182.86L211.14,175.69L211.47,171.46L211.8,170.36L212.13,172.3L212.47,172.71L212.8,184.14L213.13,185.36L213.46,183.31L214.12,167.75L214.46,168.56L214.79,172.71L215.12,179.59L215.45,178.33L215.78,176.52L216.11,167.71L216.44,171.4L216.78,173.02L217.11,174.54L217.44,172.01L217.77,175.26L218.1,172.31L218.43,168.13L219.76,171L220.09,176.27L220.75,167.44L221.08,168.98L221.42,168.47L221.75,172.51L222.41,171.87L222.74,165.18L223.07,157.85L223.4,162.4L223.74,161.9L224.07,163.92L224.4,171.5L225.06,174.12L225.39,164.93L225.72,168.47L226.06,164.93L226.39,163.92L227.05,179.09L227.38,176.79L227.71,167.97L229.37,181.95L229.7,180.57L230.03,171L230.37,169.99L230.7,176.05L231.69,190.21L232.02,188.06L232.35,181.61L233.35,185.87L233.68,194.25L234.34,199.65L234.67,194.76L235.67,191.22L236,207.4L236.33,217.38L236.66,214.63L236.99,203.35L237.33,203.86L237.66,205.88L238.32,213.97L238.65,221.99L238.98,223.23L239.31,209.42L239.65,183.13L239.98,209.42L240.31,211.44L240.64,211.44L240.97,214.19L241.97,230.38L242.3,205.88L242.63,203.35L242.96,205.37L243.29,208.82L243.62,211.08L243.96,201.33L244.29,201.33L244.62,200.32L244.95,198.3L245.28,204.36L245.94,211.99L246.28,197.29L246.94,194.76L247.27,199.81L248.26,214.47L248.6,199.81L250.25,217.51L250.58,217.25L251.25,205.37L251.58,206.89L251.91,209.92L252.57,220.03L252.9,219.12L253.24,212.07L253.57,206.89L254.23,207.9L254.56,210.93L254.89,219.53L255.22,218.52L255.56,210.43L255.89,208.41L256.22,211.44L256.55,209.92L256.88,215.48L257.21,224.08L257.54,222.56L257.88,211.44L258.87,215.48L259.2,213.46L259.87,220.54L260.2,208.91L260.53,208.41L260.86,213.46L261.52,228.63L261.85,235.2L263.51,219.02L263.84,220.54L264.51,225.09L264.84,214.98L265.5,211.44L265.83,214.98L266.49,231.16L266.83,223.07L267.16,219.02L268.15,214.47L268.48,219.53L268.81,226.61L269.15,224.08L269.48,219.53L269.81,213.46L270.14,217L270.47,218.01L270.8,209.42L271.13,218.01L271.47,212.45L272.79,201.84L273.12,203.35L273.46,214.47L273.79,212.45L274.12,198.8L275.11,205.88L275.44,198.8L276.11,206.39L276.44,195.26L276.77,194.25L277.1,195.77L278.1,202.85L278.43,200.32L279.09,192.23L279.42,193.24L279.75,189.7L280.42,203.86L280.75,198.8L281.08,193.24L282.4,200.82L282.74,198.8L283.73,187.68L284.06,190.21L284.39,188.69L284.72,190.71L285.39,197.29L285.72,183.64L286.71,190.21L287.04,191.72L287.38,198.3L287.71,194.25L288.04,185.15L288.7,187.68L289.03,192.23L289.7,216.5L290.03,214.47L290.36,202.34L291.69,201.33L292.02,208.41L292.68,195.26L293.01,196.27L293.34,199.31L293.67,197.29L294.01,202.85L294.34,210.93L294.67,205.88L295,194.25L295.33,189.7L295.99,190.21L296.33,199.81L296.66,207.4L296.99,206.28L297.32,191.72L297.65,186.16L297.98,188.19L298.31,190.21L298.65,189.2L298.98,195.26L299.64,190.21L299.97,186.16L300.63,187.68L300.97,210.43L301.3,215.99L301.63,213.46L301.96,203.35L302.62,200.32L302.96,202.34L303.29,201.84L303.62,205.37L303.95,206.89L304.28,194.76L305.61,198.8L305.94,208.91L306.27,208.91L306.6,197.29L307.6,198.8L307.93,195.77L308.59,203.86L308.92,194.76L309.58,191.22L309.92,188.69L310.25,187.18L310.58,193.24L310.91,197.79L311.24,183.64L311.57,183.13L311.9,184.14L312.24,182.63L312.57,184.14L312.9,192.23L313.23,194.25L313.56,182.12L313.89,187.18L314.22,187.05L314.56,185.15L314.89,185.15L315.22,198.8L315.55,206.89L315.88,183.64L316.21,183.13L316.54,176.05L316.88,176.05L317.21,179.59L317.54,186.67L317.87,184.14L318.2,174.03L319.53,164.43L319.86,173.53L320.19,174.54L320.52,168.98L322.18,176.05L322.51,171L322.84,167.46L323.17,167.97L323.51,169.99L323.84,167.46L324.17,169.99L324.5,174.54L324.83,173.02L325.16,161.9L325.49,160.38L325.83,160.89L326.16,163.92L327.15,172.51L327.48,166.45L327.81,163.92L328.15,152.8L329.14,164.93L329.47,162.91L329.8,158.36L330.13,161.9L330.47,157.85L330.8,158.87L331.46,168.47L331.79,164.93L332.12,159.88L333.12,157.85L333.45,162.4L333.78,164.93L334.11,162.91L334.44,158.87L335.77,169.99L336.1,169.99L337.1,161.9L337.43,162.4L337.76,164.43L338.09,159.37L338.42,165.44L338.75,165.44L339.75,158.87L340.08,163.42L340.74,155.83L341.07,161.9L341.4,153.81L341.74,155.83L342.07,158.87L342.4,158.36L342.73,162.91L343.39,165.94L343.72,155.83L344.39,159.88L344.72,158.87L345.05,156.34L345.38,162.4L345.71,158.89L346.04,156.1L346.71,152.29L347.04,154.82L348.03,162.91L348.37,158.87L349.03,158.36L349.36,161.46L349.69,159.88L350.02,160.38L350.35,156.34L351.02,153.81L351.35,155.33L351.68,159.88L352.01,159.37L352.34,158.36L352.67,157.85L353.01,160.32L353.67,152.8L354,164.43L354.99,176.05L355.33,165.94L355.66,167.97L355.99,165.44L356.32,164.93L357.31,172.01L357.65,163.42L358.31,159.88L358.64,163.42L359.63,167.46L359.97,156.34L360.63,155.83L361.62,175.55L361.96,175.04L362.29,167.46L362.95,185.15L363.28,155.33L364.28,177.57L364.61,169.99L365.6,171L365.93,180.1L367.26,174.03L367.59,172.51L368.58,180.1L368.92,185.15L369.25,175.04L369.91,176.56L370.24,177.57L370.9,186.67L371.24,185.15L371.57,173.53L371.9,177.57L372.23,176.05L372.56,174.54L373.56,184.14L373.89,174.54L374.22,176.56L374.55,174.03L374.88,171.5L375.21,172.01L375.54,182.12L375.88,185.15L376.21,178.08L376.54,179.09L376.87,175.04L377.2,174.03L377.53,178.58L377.87,176.05L378.2,180.1L378.53,172.01L379.19,173.53L379.52,177.06L380.19,192.23L380.52,190.21L380.85,184.14L382.17,168.47L382.51,180.1L382.84,182.12L383.17,175.55L384.49,161.39L384.83,161.9L385.16,164.43L385.49,164.93L385.82,164.43L386.15,161.9L386.48,167.97L386.81,162.4L387.15,163.92L387.48,167.97L387.81,166.95L388.14,162.4L388.47,164.43L388.8,175.04L389.13,189.7L389.47,182.12L389.8,183.13L390.13,185.15L390.46,176.05L391.46,183.13L391.79,180.6L392.12,174.54L392.78,176.05L393.11,173.02L393.78,176.56L394.11,173.02L394.44,172.51L394.77,181.11L396.1,176.56L396.43,181.61L396.76,182.63L397.09,186.67L397.42,188.69L397.75,185.66L399.08,172.51L399.41,174.54L400.07,174.03L400.4,180.1L400.74,172.51L401.07,165.44L401.4,166.95L401.73,175.04L402.39,171L402.72,176.05L403.72,165.44L404.05,172.01L404.71,176.05L405.04,174.54L405.38,171.5L405.71,162.4L406.04,164.93L406.37,169.99L407.03,165.94L407.37,167.46L407.7,166.95L408.36,159.88L408.69,165.94L409.35,163.42L409.69,170.49L410.02,158.36L410.35,163.92L410.68,164.93L411.34,166.95L411.67,166.45L412.01,170.49L412.34,166.45L412.67,171L413,171L413.66,163.42L413.99,169.48L414.99,165.44L415.32,158.87L415.98,166.45L416.31,165.44L416.65,165.44L416.98,166.45L417.31,165.94L417.64,164.43L418.3,169.99L418.63,166.95L418.97,165.94L419.3,167.46L419.63,167.46L419.96,173.02L420.62,167.97L420.96,173.02L421.29,169.48L421.62,174.54L421.95,176.56L422.28,173.53L423.28,176.56L423.61,176.56L423.94,177.06L424.27,179.09L424.6,179.09L424.93,181.61L426.92,163.92L427.25,163.92L428.25,165.44L428.58,163.92L429.57,167.46L429.9,166.95L430.24,163.92L430.9,155.33L431.23,167.46L431.89,162.91L432.22,166.95L433.22,164.43L433.55,170.49L433.88,170.49L434.21,165.94L435.21,169.48L435.54,166.95L435.87,172.01L436.2,169.99L436.53,166.95L436.87,163.92L437.2,167.46L437.53,168.98L438.19,177.06L438.52,176.05L438.85,165.44L439.85,173.02L440.18,195.77L441.51,185.66L441.84,182.63L442.17,183.64L442.5,178.58L442.83,185.15L443.16,183.13L443.49,179.59L443.83,179.09L444.16,181.11L444.49,179.59L444.82,170.49L446.48,183.64L446.81,182.12L448.47,191.22L448.8,187.68L449.46,179.59L449.79,184.65L450.12,189.2L450.79,188.19L451.12,188.19L452.11,199.81L452.44,199.31L452.78,195.26L453.77,196.78L454.1,196.78L454.43,199.81L454.76,195.77L455.1,186.67L455.43,191.72L455.76,195.26L456.09,195.26L456.42,201.84L458.08,191.22L458.41,193.24L459.07,197.79L459.4,195.77L460.07,183.13L460.4,190.21L460.73,187.68L461.06,189.7L461.39,195.26L462.06,187.68L462.39,190.21L462.72,192.74L464.04,209.92L464.38,202.85L464.71,203.35L465.04,201.33L465.37,202.85L465.7,209.92L466.03,216.5L466.37,215.99L466.7,208.91L468.35,221.05L468.69,217.51L469.02,217L469.35,220.54L469.68,220.03L470.01,223.07L470.34,227.62L470.67,223.57L471.01,221.55L471.34,222.56L471.67,222.06L472,220.54" style="vector-effect: non-scaling-stroke; fill: none; stroke: rgb(255, 161, 90); stroke-opacity: 1; stroke-width: 2px; opacity: 1;"/></g><g class="points"/><g class="text"/></g><g class="trace scatter traceeba9c2" style="stroke-miterlimit: 2; opacity: 1;"><g class="fills"/><g class="errorbars"/><g class="lines"><path class="js-line" d="M0,206.39L0.33,199.56L0.66,206.39L0.99,210.93L1.99,192.74L2.32,188.19L2.98,188.19L3.31,201.84L4.64,174.54L4.97,179.09L5.63,190.46L5.97,158.61L6.63,190.46L6.96,169.99L7.29,174.54L7.62,172.26L7.96,192.74L8.29,176.81L8.62,188.19L8.95,188.19L9.28,181.36L9.61,183.64L9.94,192.74L10.28,192.74L10.61,179.09L11.27,188.19L11.6,176.81L11.93,172.26L12.26,179.09L12.6,179.09L12.93,167.71L13.26,179.09L13.59,174.54L13.92,158.61L14.25,158.61L14.58,151.79L15.58,176.81L15.91,167.71L16.24,158.61L16.9,160.89L17.24,167.71L17.57,165.44L17.9,190.46L18.56,176.81L18.89,179.09L19.22,183.64L20.55,151.79L20.88,154.06L21.54,142.69L21.88,147.24L22.21,156.34L22.87,169.99L23.2,158.61L23.53,158.61L23.87,163.16L24.53,174.54L24.86,195.01L25.52,183.64L25.85,188.19L26.19,185.91L26.52,183.64L26.85,192.74L27.51,197.29L27.84,188.19L28.17,190.46L28.51,185.91L29.5,181.36L29.83,183.64L30.16,169.99L30.49,183.64L30.83,188.19L31.49,190.46L31.82,201.84L32.15,199.56L32.48,190.46L33.15,190.46L33.48,192.74L34.14,179.09L34.47,192.74L35.8,172.26L36.13,172.26L36.46,176.81L36.79,167.71L37.12,165.44L37.46,169.99L38.78,181.36L39.11,174.54L39.44,158.61L39.78,163.16L40.11,167.71L40.77,160.89L41.1,167.71L41.43,174.54L41.76,151.79L42.1,147.24L42.43,149.51L42.76,158.61L43.09,160.89L43.42,169.99L43.75,172.26L44.08,165.44L44.42,151.79L44.75,158.61L45.08,158.61L45.41,160.89L45.74,156.34L46.07,156.34L46.4,154.06L46.74,154.06L47.07,160.89L47.4,156.34L47.73,167.71L48.06,163.16L48.39,169.99L49.06,151.79L50.05,156.34L50.71,167.71L51.04,151.79L52.04,167.71L52.37,163.16L52.7,183.64L53.03,169.99L53.37,160.89L54.03,147.24L54.36,160.89L55.02,192.74L55.35,190.46L55.69,174.54L56.02,169.99L56.35,172.26L56.68,179.09L57.34,188.19L57.67,183.64L58.01,176.81L58.34,167.71L58.67,172.26L59,176.81L59.66,192.74L59.99,174.54L60.33,169.99L60.66,179.09L61.65,174.54L61.98,183.64L62.31,172.26L62.65,174.54L62.98,181.36L63.64,176.81L63.97,179.09L64.3,188.19L64.63,174.54L64.97,174.54L65.3,176.81L65.63,179.09L65.96,174.54L66.29,174.54L66.62,142.69L67.62,158.61L67.95,160.89L68.28,160.89L68.61,169.99L68.94,172.26L69.28,181.36L70.6,172.26L70.93,183.64L71.26,190.46L71.6,188.19L71.93,176.81L72.26,183.64L72.59,181.36L72.92,181.36L73.25,165.44L73.58,181.36L73.92,185.91L74.91,163.16L75.24,169.99L75.57,160.89L75.9,176.81L76.9,167.71L77.23,174.54L77.56,169.99L77.89,176.81L78.22,195.01L78.56,183.64L78.89,174.54L79.88,185.91L80.21,181.36L80.54,192.74L80.88,174.54L81.21,174.54L81.54,179.09L81.87,179.09L82.2,181.36L82.53,174.54L82.87,183.64L83.86,174.54L84.19,176.81L85.19,190.46L85.52,176.81L86.84,188.19L87.17,174.54L87.51,183.64L87.84,172.26L88.17,165.44L88.5,169.99L88.83,176.81L90.49,158.61L90.82,165.44L91.48,158.61L91.81,169.99L92.15,172.26L92.48,167.71L92.81,169.99L93.14,179.09L93.47,185.91L93.8,179.09L94.13,176.81L95.13,156.34L95.46,176.81L95.79,179.09L96.12,169.99L96.46,181.36L96.79,179.09L97.12,160.89L97.78,176.81L98.11,190.46L99.77,165.44L100.1,174.54L100.43,176.81L100.76,163.16L101.1,163.16L101.43,151.79L101.76,142.69L102.09,147.24L102.42,160.89L102.75,151.79L103.08,160.89L103.42,167.71L103.75,165.44L104.08,151.79L104.41,151.79L104.74,149.51L106.07,167.71L106.4,158.61L106.73,142.69L107.06,149.51L107.39,154.06L108.39,160.89L108.72,160.89L109.05,149.51L109.38,163.16L109.71,163.16L111.04,126.76L111.37,135.86L112.37,165.44L112.7,147.24L113.36,126.76L113.69,131.31L114.02,147.24L114.69,131.31L115.02,138.14L115.68,117.66L116.01,119.94L116.34,126.76L118,81.27L118.33,65.34L118.66,56.24L118.99,144.96L119.66,154.06L119.99,149.51L120.32,142.69L120.65,179.09L120.98,156.34L121.31,147.24L122.31,144.96L122.64,144.96L122.97,135.86L123.3,140.41L123.63,147.24L124.3,140.41L124.63,126.76L124.96,119.94L125.29,124.49L125.62,133.59L126.62,117.66L126.95,119.94L127.28,117.66L127.94,124.49L128.28,122.21L128.61,113.12L128.94,117.66L129.27,83.54L130.26,117.66L130.6,113.12L130.93,122.21L131.26,115.39L131.59,122.21L131.92,117.66L132.25,122.21L132.58,119.94L132.92,117.66L133.25,133.59L133.58,122.21L133.91,115.39L134.24,101.74L134.57,108.57L134.9,113.12L135.24,113.12L135.57,106.29L136.23,119.94L136.56,104.02L137.22,119.94L137.56,117.66L137.89,115.39L138.88,92.64L139.21,97.19L139.54,94.92L139.88,110.84L140.21,106.29L140.54,101.74L140.87,92.64L141.2,97.19L141.53,99.47L142.53,108.57L142.86,101.74L143.52,115.39L143.85,108.57L144.19,101.74L144.52,106.29L144.85,104.02L145.18,104.02L145.84,142.69L146.17,138.14L146.51,122.21L147.83,129.04L148.16,124.49L148.49,122.21L148.83,138.14L149.16,131.31L149.49,135.86L149.82,133.59L150.15,133.59L150.48,131.31L151.15,122.21L151.48,133.59L152.47,149.51L152.8,144.96L153.13,140.41L153.47,144.96L153.8,142.69L154.13,138.14L154.46,144.96L155.12,160.89L155.46,151.79L156.12,144.96L156.45,147.24L156.78,156.34L157.11,151.79L157.44,158.61L157.78,156.34L158.11,160.89L159.1,144.96L159.43,147.24L159.76,147.24L160.1,149.51L160.43,158.61L160.76,156.34L161.09,154.06L161.75,147.24L162.08,154.06L162.42,147.24L162.75,158.61L163.08,167.71L163.41,160.89L163.74,156.34L164.07,169.99L164.4,151.79L165.4,174.54L165.73,167.71L166.06,165.44L166.39,169.99L166.72,163.16L167.06,172.26L167.39,172.26L167.72,165.44L168.05,172.26L168.38,160.89L169.04,156.34L169.38,165.44L169.71,174.54L170.04,169.99L170.37,163.16L170.7,165.44L171.03,149.51L171.7,154.06L172.03,167.71L172.36,169.99L172.69,165.44L173.02,167.71L173.35,154.06L173.69,151.79L174.02,158.61L175.01,167.71L175.34,165.44L176.34,149.51L176.67,158.61L177,192.74L177.33,185.91L177.66,176.81L178.33,167.71L178.66,163.16L178.99,176.81L179.32,174.54L179.65,167.71L179.98,151.79L180.31,172.26L180.98,158.61L181.31,172.26L181.97,167.71L182.3,156.34L182.97,167.71L183.3,156.34L183.96,147.24L184.29,156.34L186.94,135.86L187.28,126.76L187.61,133.59L187.94,124.49L188.6,117.66L188.93,119.94L189.26,122.21L189.6,135.86L189.93,122.21L190.26,110.84L190.59,106.29L190.92,115.39L191.25,110.84L191.58,124.49L193.24,149.51L193.57,147.24L193.9,158.61L194.24,151.79L194.57,149.51L194.9,140.41L195.23,151.79L195.56,144.96L196.22,129.04L196.56,115.39L197.55,140.41L197.88,138.14L198.21,138.14L199.21,119.94L199.54,122.21L200.2,117.66L200.53,129.04L201.53,108.57L201.86,117.66L202.19,117.66L202.52,108.57L202.85,108.57L203.19,99.47L204.51,110.84L204.84,104.02L205.17,110.84L205.51,104.02L205.84,104.02L207.49,124.49L207.83,115.39L209.15,129.04L209.48,129.04L210.48,119.94L210.81,110.84L211.47,117.66L211.8,115.39L212.13,110.84L212.47,117.66L212.8,115.39L213.13,115.39L213.79,119.94L214.12,117.66L214.79,115.39L215.12,122.21L215.45,131.31L216.11,129.04L216.44,124.49L217.11,133.59L217.44,126.76L218.43,115.39L218.76,117.66L219.1,117.66L219.76,126.76L220.09,119.94L221.08,133.59L221.42,124.49L222.08,119.94L222.41,122.21L222.74,124.49L223.4,110.84L223.74,115.39L224.07,124.49L224.73,119.94L225.06,126.76L225.39,117.66L225.72,122.21L226.06,129.04L226.39,122.21L226.72,126.76L227.05,124.49L227.38,131.31L227.71,129.04L228.04,129.04L228.38,129.04L228.71,133.59L229.04,113.12L229.37,119.94L229.7,119.94L231.03,131.31L231.36,115.39L231.69,90.37L232.02,94.92L232.35,117.66L232.69,119.94L233.02,108.57L233.35,108.57L233.68,115.39L234.34,99.47L234.67,117.66L235.67,110.84L236,106.29L236.33,92.64L236.66,94.92L236.99,108.57L237.33,108.57L237.66,97.19L238.65,72.17L238.98,74.44L239.65,35.77L239.98,129.04L240.31,142.69L240.64,140.41L240.97,135.86L241.63,135.86L241.97,149.51L243.29,131.31L243.62,133.59L244.29,151.79L244.62,149.51L244.95,154.06L245.61,126.76L245.94,131.31L246.28,147.24L246.94,149.51L247.27,140.41L247.6,140.41L247.93,129.04L248.26,126.76L248.6,140.41L249.26,154.06L249.59,142.69L249.92,142.69L250.25,113.12L251.25,142.69L251.58,135.86L251.91,140.41L252.24,131.31L252.57,124.49L252.9,138.14L253.24,138.14L253.57,126.76L253.9,129.04L254.23,142.69L254.56,144.96L254.89,124.49L255.89,135.86L256.22,131.31L256.55,131.31L256.88,135.86L257.21,126.76L257.54,129.04L257.88,135.86L258.54,135.86L258.87,147.24L259.2,149.51L259.53,140.41L259.87,142.69L260.2,156.34L260.53,147.24L260.86,151.79L261.19,156.34L261.85,144.96L262.19,149.51L262.52,149.51L262.85,156.34L263.18,149.51L263.51,151.79L263.84,144.96L264.17,151.79L264.51,154.06L265.5,163.16L265.83,163.16L266.49,158.61L266.83,169.99L267.49,172.26L267.82,167.71L268.15,179.09L268.48,169.99L268.81,165.44L269.81,183.64L270.14,176.81L270.47,179.09L270.8,169.99L271.13,154.06L271.47,163.16L271.8,183.64L273.46,151.79L273.79,158.61L274.78,163.16L275.11,160.89L275.44,160.89L275.78,135.86L276.44,163.16L276.77,158.61L277.1,149.51L278.1,117.66L278.43,117.66L279.42,147.24L279.75,149.51L280.42,124.49L280.75,147.24L281.41,149.51L281.74,147.24L282.4,149.51L282.74,131.31L283.73,147.24L284.06,144.96L285.39,124.49L285.72,135.86L286.38,144.96L286.71,138.14L287.04,160.89L287.71,158.61L288.04,169.99L289.7,142.69L290.03,147.24L290.36,160.89L290.69,156.34L291.02,149.51L292.02,133.59L292.35,140.41L293.34,149.51L293.67,140.41L294.01,138.14L294.34,126.76L295.33,147.24L295.66,144.96L296.33,135.86L296.66,140.41L296.99,140.41L297.32,149.51L297.65,151.79L297.98,149.51L298.31,138.14L298.98,135.86L299.31,140.41L299.64,149.51L300.3,147.24L300.63,147.24L301.3,133.59L301.63,138.14L301.96,147.24L302.96,156.34L303.29,138.14L303.62,129.04L303.95,131.31L304.28,140.41L304.61,140.41L304.94,133.59L305.28,135.86L305.61,126.76L305.94,119.94L306.27,126.76L306.6,129.04L307.6,131.31L307.93,126.76L308.59,124.49L308.92,126.76L309.92,140.41L310.25,135.86L310.58,119.94L310.91,124.49L311.24,135.86L311.9,126.76L312.24,142.69L312.57,142.69L312.9,131.31L313.89,147.24L314.22,149.51L314.89,140.41L315.22,129.04L315.88,142.69L316.21,140.41L316.54,140.41L316.88,142.69L317.21,131.31L317.54,129.04L317.87,138.14L318.53,138.14L318.87,140.41L319.2,140.41L319.53,117.66L319.86,108.57L320.19,110.84L320.52,122.21L320.85,129.04L321.19,126.76L321.52,124.49L322.18,124.49L322.51,135.86L322.84,144.96L323.17,135.86L323.51,133.59L324.5,113.12L324.83,115.39L325.16,126.76L325.49,124.49L325.83,122.21L326.16,122.21L326.49,147.24L326.82,131.31L327.15,144.96L327.48,142.69L328.15,144.96L328.48,154.06L329.14,122.21L329.47,133.59L329.8,147.24L330.13,149.51L330.47,144.96L331.46,117.66L331.79,122.21L332.12,142.69L332.46,142.69L332.79,140.41L333.12,138.14L333.45,140.41L333.78,131.31L335.44,158.61L335.77,163.16L336.1,154.06L336.43,165.44L336.76,169.99L337.1,165.44L337.43,167.71L337.76,169.99L338.09,176.81L338.42,169.99L338.75,172.26L339.75,183.64L340.08,185.91L340.41,192.74L340.74,183.64L342.07,220.03L342.4,206.39L342.73,210.93L343.06,197.29L343.72,206.39L344.06,201.84L344.39,201.84L345.05,169.99L345.38,172.26L345.71,181.36L346.71,183.64L347.04,174.54L347.7,167.71L348.03,174.54L348.37,179.09L348.7,176.81L349.03,172.26L350.02,149.51L350.35,154.06L350.69,167.71L351.02,160.89L351.35,169.99L351.68,167.71L352.01,156.34L352.34,140.41L352.67,147.24L353.01,163.16L353.67,156.34L354,160.89L354.99,135.86L355.33,160.89L355.66,160.89L355.99,154.06L356.32,156.34L356.65,147.24L356.98,126.76L357.31,135.86L357.65,154.06L359.3,122.21L359.63,129.04L359.97,135.86L360.3,69.89L360.63,67.62L360.96,167.71L361.62,183.64L361.96,179.09L362.29,179.09L362.62,142.69L362.95,163.16L363.28,174.54L363.61,181.36L363.94,169.99L364.61,183.64L364.94,174.54L365.93,190.46L366.26,179.09L367.59,192.74L367.92,188.19L368.25,204.11L368.58,197.29L368.92,197.29L369.91,206.39L370.24,201.84L371.24,169.99L371.57,190.46L372.23,208.66L372.56,204.11L372.89,195.01L373.22,190.46L373.56,192.74L373.89,201.84L375.54,176.81L375.88,179.09L376.87,192.74L377.2,185.91L379.19,215.48L379.52,201.84L379.85,210.93L380.19,201.84L380.52,208.66L380.85,213.21L381.18,210.93L381.51,208.66L381.84,206.39L382.17,192.74L382.51,185.91L382.84,195.01L383.83,204.11L384.16,197.29L384.49,183.64L384.83,190.46L385.16,197.29L386.15,206.39L386.48,204.11L386.81,213.21L387.15,213.21L387.48,206.39L388.14,208.66L388.47,206.39L388.8,208.66L389.13,217.76L389.47,204.11L389.8,210.93L390.13,229.13L390.79,220.03L391.12,213.21L391.46,213.21L391.79,201.84L392.78,226.86L393.11,222.31L393.78,215.48L394.11,201.84L395.1,226.86L395.43,220.03L395.76,210.93L396.76,192.74L397.09,213.21L397.75,231.41L398.08,229.13L398.42,215.48L398.75,201.84L399.08,213.21L399.41,226.86L399.74,226.86L400.07,233.68L401.07,185.91L401.4,206.39L402.39,226.86L402.72,222.31L403.06,231.41L403.39,208.66L404.05,235.96L404.38,233.68L404.71,231.41L405.04,235.96L405.38,217.76L405.71,195.01L406.04,206.39L406.37,226.86L406.7,226.86L407.03,220.03L407.37,224.58L407.7,188.19L408.03,179.09L408.36,208.66L408.69,220.03L409.02,210.93L409.35,210.93L409.69,215.48L410.02,183.64L410.35,169.99L410.68,188.19L411.34,201.84L411.67,197.29L412.01,192.74L412.67,165.44L413,183.64L413.99,201.84L414.33,197.29L414.99,176.81L415.32,188.19L415.65,210.93L415.98,208.66L416.31,204.11L416.65,213.21L416.98,192.74L417.31,183.64L417.64,192.74L417.97,197.29L418.63,201.84L418.97,197.29L419.63,190.46L419.96,199.56L420.29,204.11L420.62,195.01L421.29,204.11L421.62,185.91L421.95,181.36L422.28,188.19L422.61,199.56L422.94,195.01L423.28,195.01L423.61,197.29L423.94,181.36L424.27,174.54L424.6,197.29L425.26,197.29L425.6,199.56L426.59,176.81L426.92,192.74L427.25,199.56L427.58,195.01L427.92,183.64L428.91,169.99L429.24,195.01L429.57,208.66L429.9,204.11L430.24,199.56L431.23,160.89L431.56,172.26L431.89,179.09L432.22,176.81L432.56,174.54L432.89,174.54L433.22,165.44L433.55,156.34L433.88,163.16L434.21,174.54L435.21,163.16L435.54,167.71L435.87,151.79L436.2,163.16L436.53,169.99L436.87,165.44L437.2,179.09L437.53,183.64L437.86,181.36L438.19,160.89L439.19,190.46L439.52,185.91L440.18,163.16L440.51,167.71L440.84,183.64L441.84,197.29L442.17,199.56L442.83,179.09L443.16,192.74L443.83,201.84L444.16,197.29L444.49,195.01L444.82,185.91L445.15,174.54L445.48,181.36L445.81,183.64L446.48,190.46L446.81,179.09L448.13,188.19L448.47,185.91L448.8,188.19L449.13,185.91L449.46,183.64L450.79,195.01L451.12,183.64L451.45,185.91L451.78,176.81L452.11,167.71L452.44,169.99L452.78,181.36L453.11,181.36L453.44,183.64L454.43,163.16L454.76,183.64L455.43,190.46L455.76,183.64L456.09,181.36L456.42,156.34L456.75,156.34L457.08,169.99L458.08,183.64L458.41,181.36L459.07,160.89L459.4,181.36L460.07,190.46L460.4,179.09L460.73,179.09L461.06,156.34L462.39,183.64L462.72,181.36L464.38,195.01L464.71,192.74L465.04,192.74L465.37,190.46L465.7,183.64L466.03,192.74L466.37,192.74L466.7,201.84L467.03,204.11L467.36,192.74L468.02,199.56L468.35,183.64L469.35,210.93L469.68,206.39L470.34,197.29L470.67,174.54L471.34,222.31L471.67,220.03L472,210.93" style="vector-effect: non-scaling-stroke; fill: none; stroke: rgb(25, 211, 243); stroke-opacity: 1; stroke-width: 2px; opacity: 1;"/></g><g class="points"/><g class="text"/></g></g></g><g class="overplot"/><path class="xlines-above crisp" d="M0,0" style="fill: none;"/><path class="ylines-above crisp" d="M0,0" style="fill: none;"/><g class="overlines-above"/><g class="xaxislayer-above"><g class="xtick"><text text-anchor="middle" x="0" y="433" transform="translate(80,0)" style="font-family: 'Open Sans', verdana, arial, sans-serif; font-size: 12px; fill: rgb(42, 63, 95); fill-opacity: 1; white-space: pre;">2017</text></g><g class="xtick"><text text-anchor="middle" x="0" y="433" transform="translate(200.98000000000002,0)" style="font-family: 'Open Sans', verdana, arial, sans-serif; font-size: 12px; fill: rgb(42, 63, 95); fill-opacity: 1; white-space: pre;">2018</text></g><g class="xtick"><text text-anchor="middle" x="0" y="433" transform="translate(321.97,0)" style="font-family: 'Open Sans', verdana, arial, sans-serif; font-size: 12px; fill: rgb(42, 63, 95); fill-opacity: 1; white-space: pre;">2019</text></g><g class="xtick"><text text-anchor="middle" x="0" y="433" transform="translate(442.95,0)" style="font-family: 'Open Sans', verdana, arial, sans-serif; font-size: 12px; fill: rgb(42, 63, 95); fill-opacity: 1; white-space: pre;">2020</text></g></g><g class="yaxislayer-above"><g class="ytick"><text text-anchor="end" x="79" y="4.199999999999999" transform="translate(0,411.03)" style="font-family: 'Open Sans', verdana, arial, sans-serif; font-size: 12px; fill: rgb(42, 63, 95); fill-opacity: 1; white-space: pre;">0.45</text></g><g class="ytick"><text text-anchor="end" x="79" y="4.199999999999999" transform="translate(0,365.53)" style="font-family: 'Open Sans', verdana, arial, sans-serif; font-size: 12px; fill: rgb(42, 63, 95); fill-opacity: 1; white-space: pre;">0.5</text></g><g class="ytick"><text text-anchor="end" x="79" y="4.199999999999999" transform="translate(0,320.03)" style="font-family: 'Open Sans', verdana, arial, sans-serif; font-size: 12px; fill: rgb(42, 63, 95); fill-opacity: 1; white-space: pre;">0.55</text></g><g class="ytick"><text text-anchor="end" x="79" y="4.199999999999999" transform="translate(0,274.53999999999996)" style="font-family: 'Open Sans', verdana, arial, sans-serif; font-size: 12px; fill: rgb(42, 63, 95); fill-opacity: 1; white-space: pre;">0.6</text></g><g class="ytick"><text text-anchor="end" x="79" y="4.199999999999999" transform="translate(0,229.04)" style="font-family: 'Open Sans', verdana, arial, sans-serif; font-size: 12px; fill: rgb(42, 63, 95); fill-opacity: 1; white-space: pre;">0.65</text></g><g class="ytick"><text text-anchor="end" x="79" y="4.199999999999999" transform="translate(0,183.54000000000002)" style="font-family: 'Open Sans', verdana, arial, sans-serif; font-size: 12px; fill: rgb(42, 63, 95); fill-opacity: 1; white-space: pre;">0.7</text></g><g class="ytick"><text text-anchor="end" x="79" y="4.199999999999999" transform="translate(0,138.04)" style="font-family: 'Open Sans', verdana, arial, sans-serif; font-size: 12px; fill: rgb(42, 63, 95); fill-opacity: 1; white-space: pre;">0.75</text></g></g><g class="overaxes-above"/></g></g><g class="polarlayer"/><g class="ternarylayer"/><g class="geolayer"/><g class="funnelarealayer"/><g class="pielayer"/><g class="treemaplayer"/><g class="sunburstlayer"/><g class="glimages"/><defs id="topdefs-64f51d"><g class="clips"/><clipPath id="legend64f51d"><rect width="127" height="140" x="0" y="0"/></clipPath></defs><g class="layer-above"><g class="imagelayer"/><g class="shapelayer"/></g><g class="infolayer"><g class="legend" pointer-events="all" transform="translate(561.44, 100)"><rect class="bg" shape-rendering="crispEdges" width="127" height="140" x="0" y="0" style="stroke: rgb(68, 68, 68); stroke-opacity: 1; fill: rgb(255, 255, 255); fill-opacity: 1; stroke-width: 0px;"/><g class="scrollbox" transform="translate(0, 0)" clip-path="url('#legend64f51d')"><text class="legendtitletext" text-anchor="start" x="2" y="15.600000000000001" style="font-family: 'Open Sans', verdana, arial, sans-serif; font-size: 12px; fill: rgb(42, 63, 95); fill-opacity: 1; white-space: pre;">Continents</text><g class="groups"><g class="traces" transform="translate(0, 30.1)" style="opacity: 1;"><text class="legendtext" text-anchor="start" x="40" y="4.680000000000001" style="font-family: 'Open Sans', verdana, arial, sans-serif; font-size: 12px; fill: rgb(42, 63, 95); fill-opacity: 1; white-space: pre;">Global</text><g class="layers" style="opacity: 1;"><g class="legendfill"/><g class="legendlines"><path class="js-line" d="M5,0h30" style="fill: none; stroke: rgb(99, 110, 250); stroke-opacity: 1; stroke-width: 2px;"/></g><g class="legendsymbols"><g class="legendpoints"/></g></g><rect class="legendtoggle" x="0" y="-9.5" width="121.734375" height="19" style="fill: rgb(0, 0, 0); fill-opacity: 0;"/></g><g class="traces" transform="translate(0, 49.1)" style="opacity: 1;"><text class="legendtext" text-anchor="start" x="40" y="4.680000000000001" style="font-family: 'Open Sans', verdana, arial, sans-serif; font-size: 12px; fill: rgb(42, 63, 95); fill-opacity: 1; white-space: pre;">Europe</text><g class="layers" style="opacity: 1;"><g class="legendfill"/><g class="legendlines"><path class="js-line" d="M5,0h30" style="fill: none; stroke: rgb(239, 85, 59); stroke-opacity: 1; stroke-width: 2px;"/></g><g class="legendsymbols"><g class="legendpoints"/></g></g><rect class="legendtoggle" x="0" y="-9.5" width="121.734375" height="19" style="fill: rgb(0, 0, 0); fill-opacity: 0;"/></g><g class="traces" transform="translate(0, 68.1)" style="opacity: 1;"><text class="legendtext" text-anchor="start" x="40" y="4.680000000000001" style="font-family: 'Open Sans', verdana, arial, sans-serif; font-size: 12px; fill: rgb(42, 63, 95); fill-opacity: 1; white-space: pre;">Asia</text><g class="layers" style="opacity: 1;"><g class="legendfill"/><g class="legendlines"><path class="js-line" d="M5,0h30" style="fill: none; stroke: rgb(0, 204, 150); stroke-opacity: 1; stroke-width: 2px;"/></g><g class="legendsymbols"><g class="legendpoints"/></g></g><rect class="legendtoggle" x="0" y="-9.5" width="121.734375" height="19" style="fill: rgb(0, 0, 0); fill-opacity: 0;"/></g><g class="traces" transform="translate(0, 87.1)" style="opacity: 1;"><text class="legendtext" text-anchor="start" x="40" y="4.680000000000001" style="font-family: 'Open Sans', verdana, arial, sans-serif; font-size: 12px; fill: rgb(42, 63, 95); fill-opacity: 1; white-space: pre;">North America</text><g class="layers" style="opacity: 1;"><g class="legendfill"/><g class="legendlines"><path class="js-line" d="M5,0h30" style="fill: none; stroke: rgb(171, 99, 250); stroke-opacity: 1; stroke-width: 2px;"/></g><g class="legendsymbols"><g class="legendpoints"/></g></g><rect class="legendtoggle" x="0" y="-9.5" width="121.734375" height="19" style="fill: rgb(0, 0, 0); fill-opacity: 0;"/></g><g class="traces" transform="translate(0, 106.1)" style="opacity: 1;"><text class="legendtext" text-anchor="start" x="40" y="4.680000000000001" style="font-family: 'Open Sans', verdana, arial, sans-serif; font-size: 12px; fill: rgb(42, 63, 95); fill-opacity: 1; white-space: pre;">South America</text><g class="layers" style="opacity: 1;"><g class="legendfill"/><g class="legendlines"><path class="js-line" d="M5,0h30" style="fill: none; stroke: rgb(255, 161, 90); stroke-opacity: 1; stroke-width: 2px;"/></g><g class="legendsymbols"><g class="legendpoints"/></g></g><rect class="legendtoggle" x="0" y="-9.5" width="121.734375" height="19" style="fill: rgb(0, 0, 0); fill-opacity: 0;"/></g><g class="traces" transform="translate(0, 125.1)" style="opacity: 1;"><text class="legendtext" text-anchor="start" x="40" y="4.680000000000001" style="font-family: 'Open Sans', verdana, arial, sans-serif; font-size: 12px; fill: rgb(42, 63, 95); fill-opacity: 1; white-space: pre;">Oceania</text><g class="layers" style="opacity: 1;"><g class="legendfill"/><g class="legendlines"><path class="js-line" d="M5,0h30" style="fill: none; stroke: rgb(25, 211, 243); stroke-opacity: 1; stroke-width: 2px;"/></g><g class="legendsymbols"><g class="legendpoints"/></g></g><rect class="legendtoggle" x="0" y="-9.5" width="121.734375" height="19" style="fill: rgb(0, 0, 0); fill-opacity: 0;"/></g></g></g><rect class="scrollbar" rx="20" ry="3" width="0" height="0" x="0" y="0" style="fill: rgb(128, 139, 164); fill-opacity: 1;"/></g><g class="g-gtitle"/><g class="g-xtitle"><text class="xtitle" x="316" y="461.8" text-anchor="middle" style="font-family: 'Open Sans', verdana, arial, sans-serif; font-size: 14px; fill: rgb(42, 63, 95); opacity: 1; font-weight: normal; white-space: pre;">Date</text></g><g class="g-ytitle"><text class="ytitle" transform="rotate(-90,30.418750000000003,260)" x="30.418750000000003" y="260" text-anchor="middle" style="font-family: 'Open Sans', verdana, arial, sans-serif; font-size: 14px; fill: rgb(42, 63, 95); opacity: 1; font-weight: normal; white-space: pre;">mode</text></g></g></svg>