<svg class="main-svg" xmlns="http://www.w3.org/2000/svg" xmlns:xlink="http://www.w3.org/1999/xlink" width="700" height="500" style="" viewBox="0 0 700 500"><rect x="0" y="0" width="700" height="500" style="fill: rgb(255, 255, 255); fill-opacity: 1;"/><defs id="defs-a8daba"><g class="clips"><clipPath id="clipa8dabaxyplot" class="plotclip"><rect width="516" height="320"/></clipPath><clipPath class="axesclip" id="clipa8dabax"><rect x="80" y="0" width="516" height="500"/></clipPath><clipPath class="axesclip" id="clipa8dabay"><rect x="0" y="100" width="700" height="320"/></clipPath><clipPath class="axesclip" id="clipa8dabaxy"><rect x="80" y="100" width="516" height="320"/></clipPath></g><g class="gradients"/></defs><g class="bglayer"><rect class="bg" x="80" y="100" width="516" height="320" style="fill: rgb(229, 236, 246); fill-opacity: 1; stroke-width: 0;"/></g><g class="layer-below"><g class="imagelayer"/><g class="shapelayer"/></g><g class="cartesianlayer"><g class="subplot xy"><g class="layer-subplot"><g class="shapelayer"/><g class="imagelayer"/></g><g class="gridlayer"><g class="x"><path class="xgrid crisp" transform="translate(212.26,0)" d="M0,100v320" style="stroke: rgb(255, 255, 255); stroke-opacity: 1; stroke-width: 1px;"/><path class="xgrid crisp" transform="translate(344.52,0)" d="M0,100v320" style="stroke: rgb(255, 255, 255); stroke-opacity: 1; stroke-width: 1px;"/><path class="xgrid crisp" transform="translate(476.78,0)" d="M0,100v320" style="stroke: rgb(255, 255, 255); stroke-opacity: 1; stroke-width: 1px;"/></g><g class="y"><path class="ygrid crisp" transform="translate(0,393.33)" d="M80,0h516" style="stroke: rgb(255, 255, 255); stroke-opacity: 1; stroke-width: 1px;"/><path class="ygrid crisp" transform="translate(0,340)" d="M80,0h516" style="stroke: rgb(255, 255, 255); stroke-opacity: 1; stroke-width: 1px;"/><path class="ygrid crisp" transform="translate(0,286.66999999999996)" d="M80,0h516" style="stroke: rgb(255, 255, 255); stroke-opacity: 1; stroke-width: 1px;"/><path class="ygrid crisp" transform="translate(0,233.33)" d="M80,0h516" style="stroke: rgb(255, 255, 255); stroke-opacity: 1; stroke-width: 1px;"/><path class="ygrid crisp" transform="translate(0,180)" d="M80,0h516" style="stroke: rgb(255, 255, 255); stroke-opacity: 1; stroke-width: 1px;"/><path class="ygrid crisp" transform="translate(0,126.67)" d="M80,0h516" style="stroke: rgb(255, 255, 255); stroke-opacity: 1; stroke-width: 1px;"/></g></g><g class="zerolinelayer"/><path class="xlines-below"/><path class="ylines-below"/><g class="overlines-below"/><g class="xaxislayer-below"/><g class="yaxislayer-below"/><g class="overaxes-below"/><g class="plot" transform="translate(80, 100)" clip-path="url('#clipa8dabaxyplot')"><g class="scatterlayer mlayer"><g class="trace scatter traceecc85f" style="stroke-miterlimit: 2; opacity: 1;"><g class="fills"/><g class="errorbars"/><g class="lines"><path class="js-line" d="M0,256L0.72,224L1.09,229.33L1.45,224L1.81,224L2.17,213.33L2.54,202.67L2.9,208L3.26,213.33L3.99,213.33L4.35,218.67L4.71,224L5.07,202.67L5.44,208L5.8,197.33L6.16,197.33L6.52,202.67L6.88,202.67L7.25,208L7.97,192L8.33,197.33L8.7,202.67L9.42,192L9.78,202.67L10.51,192L10.87,197.33L11.6,186.67L11.96,202.67L12.32,208L12.68,192L13.04,186.67L13.41,192L13.77,197.33L15.94,165.33L16.31,154.67L16.67,176L17.03,170.67L17.39,170.67L18.12,144L18.48,154.67L18.84,160L20.65,192L21.02,181.33L21.38,176L21.74,186.67L22.83,160L23.19,154.67L25,176L25.37,170.67L26.45,154.67L26.81,160L27.9,170.67L28.26,170.67L28.99,170.67L29.35,165.33L30.08,192L30.44,181.33L30.8,192L31.53,181.33L31.89,186.67L32.25,202.67L32.97,186.67L33.34,192L33.7,197.33L34.42,181.33L34.79,202.67L36.6,181.33L36.96,192L38.05,165.33L38.41,170.67L38.77,165.33L41.67,197.33L42.03,197.33L43.12,213.33L43.48,197.33L44.57,186.67L44.93,202.67L46.02,181.33L46.38,192L46.74,186.67L47.11,192L47.47,197.33L47.83,186.67L48.19,192L48.56,192L48.92,192L49.28,197.33L49.64,197.33L50.01,181.33L51.09,197.33L51.46,197.33L52.18,176L52.54,192L53.27,192L53.63,181.33L54.72,186.67L55.44,208L56.53,170.67L56.89,176L57.25,181.33L57.98,181.33L58.34,176L59.43,160L59.79,170.67L60.51,197.33L60.88,192L61.24,181.33L61.96,186.67L62.33,176L62.69,192L63.05,181.33L63.41,186.67L64.86,176L65.22,197.33L65.59,208L65.95,197.33L66.31,192L67.04,202.67L67.4,186.67L67.76,218.67L68.12,208L68.49,186.67L68.85,186.67L69.21,197.33L70.3,208L70.66,202.67L71.75,192L72.11,202.67L72.47,202.67L72.83,197.33L73.56,181.33L73.92,192L74.65,208L75.01,202.67L75.37,202.67L76.46,218.67L76.82,208L77.54,202.67L77.91,234.67L78.27,234.67L78.63,224L79.72,218.67L80.08,218.67L80.81,224L81.17,202.67L81.89,218.67L82.26,208L82.98,202.67L83.34,213.33L83.71,202.67L84.07,208L84.43,208L85.52,229.33L85.88,245.33L86.24,245.33L86.6,240L87.33,245.33L87.69,234.67L88.42,240L88.78,234.67L89.5,224L89.87,229.33L90.23,229.33L90.59,208L90.95,229.33L91.31,213.33L91.68,208L92.04,202.67L92.4,213.33L92.76,208L93.13,213.33L93.49,224L94.58,202.67L94.94,208L95.3,213.33L95.66,208L96.03,202.67L96.39,213.33L96.75,192L97.11,192L97.47,197.33L97.84,192L98.2,218.67L99.29,202.67L99.65,192L100.37,213.33L100.74,192L101.1,192L101.46,202.67L101.82,208L102.19,202.67L102.55,202.67L102.91,202.67L103.27,181.33L103.63,192L104,181.33L104.36,181.33L105.08,181.33L105.45,186.67L106.53,170.67L106.9,192L107.62,192L107.98,186.67L108.35,186.67L108.71,176L109.07,181.33L109.43,170.67L109.79,181.33L110.16,160L110.88,144L111.24,154.67L111.61,160L111.97,154.67L112.33,149.33L112.69,149.33L113.06,138.67L113.42,160L113.78,133.33L114.51,144L114.87,138.67L115.23,138.67L115.59,144L115.96,160L116.32,138.67L117.4,144L117.77,138.67L118.49,160L118.85,154.67L119.22,144L119.94,144L120.3,138.67L120.67,144L121.03,138.67L121.39,133.33L122.12,122.67L122.48,133.33L123.2,112L123.56,128L124.29,101.33L124.65,122.67L125.38,112L125.74,117.33L126.1,117.33L126.46,117.33L126.83,112L127.55,117.33L127.91,106.67L128.28,106.67L128.64,101.33L129.72,32L130.09,112L130.81,154.67L131.17,149.33L131.54,144L131.9,192L132.99,133.33L133.35,138.67L134.44,149.33L134.8,149.33L136.97,122.67L137.33,128L138.06,117.33L138.42,122.67L138.78,133.33L139.15,138.67L139.51,128L140.6,117.33L140.96,122.67L141.68,154.67L142.04,133.33L143.49,117.33L143.86,133.33L144.22,138.67L144.58,128L145.67,122.67L146.03,133.33L146.39,138.67L146.76,133.33L147.12,128L147.84,128L148.21,122.67L148.57,122.67L148.93,128L149.65,144L150.02,133.33L150.38,133.33L150.74,128L151.83,122.67L152.19,122.67L152.55,128L152.92,122.67L153.28,122.67L153.64,112L154,133.33L155.45,122.67L155.81,122.67L157.26,149.33L157.63,160L157.99,165.33L158.35,160L158.71,160L159.08,197.33L159.44,176L159.8,170.67L160.89,181.33L161.25,181.33L162.34,176L162.7,181.33L163.06,170.67L163.42,181.33L163.79,176L164.15,181.33L164.51,170.67L164.87,165.33L165.24,170.67L165.6,170.67L166.69,176L167.05,176L167.41,176L167.77,186.67L168.5,186.67L168.86,181.33L169.22,186.67L169.58,213.33L169.95,224L170.31,218.67L170.67,218.67L171.03,218.67L171.4,224L172.48,229.33L172.85,256L173.93,229.33L174.29,229.33L175.02,208L175.38,218.67L175.74,218.67L177.19,229.33L177.56,208L178.64,208L179.01,218.67L180.09,234.67L180.46,240L180.82,240L181.18,245.33L181.54,245.33L181.9,288L182.99,256L183.35,256L184.44,234.67L184.8,250.67L185.53,245.33L185.89,250.67L186.25,250.67L186.62,229.33L186.98,224L187.34,250.67L188.06,224L188.43,234.67L189.15,224L189.51,245.33L189.88,245.33L190.24,240L190.6,245.33L190.96,240L191.33,234.67L192.41,229.33L192.78,240L193.86,256L194.22,256L194.59,266.67L194.95,240L195.31,224L195.67,240L196.04,240L197.12,250.67L197.49,229.33L198.21,245.33L198.57,240L199.3,213.33L199.66,240L200.02,224L200.38,229.33L200.75,245.33L201.83,218.67L202.2,229.33L202.56,218.67L202.92,224L203.28,224L203.65,229.33L204.01,218.67L204.37,224L204.73,208L205.1,202.67L205.46,218.67L206.54,197.33L206.91,208L207.27,213.33L207.63,202.67L208.72,213.33L209.08,202.67L210.17,224L210.53,218.67L210.89,208L211.26,218.67L211.62,213.33L211.98,218.67L212.34,240L212.71,250.67L213.07,234.67L214.88,202.67L215.24,213.33L215.6,213.33L215.97,202.67L216.33,208L216.69,197.33L217.05,197.33L217.42,213.33L218.5,197.33L218.87,197.33L219.59,202.67L219.95,176L220.31,176L220.68,170.67L221.4,149.33L221.76,160L222.13,160L222.49,170.67L222.85,170.67L223.21,160L223.58,165.33L223.94,149.33L224.66,133.33L225.03,186.67L225.75,186.67L226.11,192L227.2,208L227.56,186.67L228.29,208L228.65,202.67L229.01,213.33L229.37,213.33L229.74,208L230.82,192L231.19,186.67L231.55,181.33L231.91,186.67L232.27,186.67L233,229.33L233.36,213.33L234.45,192L234.81,192L235.17,208L235.53,202.67L235.9,202.67L236.98,176L237.35,176L237.71,165.33L238.07,186.67L239.16,160L239.52,176L239.88,176L240.24,165.33L241.33,181.33L241.69,176L242.06,176L242.42,170.67L242.78,208L243.14,186.67L243.51,170.67L243.87,160L244.23,170.67L244.59,170.67L244.96,170.67L245.32,186.67L246.4,154.67L246.77,165.33L247.13,160L247.49,181.33L247.85,186.67L248.22,170.67L248.58,165.33L248.94,170.67L249.3,170.67L250.39,160L250.75,154.67L251.12,133.33L251.48,154.67L251.84,160L252.93,192L253.29,160L253.65,149.33L254.01,165.33L255.1,128L255.46,154.67L256.55,144L256.91,138.67L257.28,138.67L257.64,128L258.36,154.67L258.72,138.67L259.81,165.33L260.17,154.67L260.54,154.67L260.9,144L261.26,133.33L261.62,74.67L261.99,80L262.35,181.33L263.44,240L263.8,229.33L264.16,250.67L264.52,240L264.88,224L265.61,218.67L265.97,224L266.33,213.33L266.7,218.67L267.06,224L267.42,218.67L267.78,224L268.15,224L268.51,234.67L268.87,224L269.23,224L270.32,240L270.68,218.67L271.04,229.33L271.41,224L271.77,224L272.13,224L272.49,234.67L273.58,218.67L273.94,224L274.67,218.67L275.03,224L275.76,224L276.12,213.33L276.48,213.33L276.84,229.33L278.65,202.67L279.02,192L280.1,197.33L280.47,192L280.83,192L281.19,213.33L281.55,213.33L281.92,208L283,224L283.37,218.67L283.73,229.33L284.09,208L284.45,218.67L284.81,202.67L285.18,202.67L285.54,192L286.63,224L286.99,213.33L288.08,202.67L288.44,229.33L288.8,234.67L289.16,213.33L290.61,229.33L290.97,256L291.34,256L291.7,245.33L292.06,245.33L292.42,234.67L292.79,240L293.15,234.67L293.51,288L293.87,288L294.24,261.33L294.6,272L294.96,261.33L295.32,261.33L295.69,261.33L296.05,256L296.41,245.33L296.77,256L297.13,261.33L297.5,261.33L297.86,256L298.22,250.67L298.58,266.67L299.67,250.67L300.03,250.67L300.4,261.33L300.76,240L301.12,245.33L301.48,234.67L302.57,218.67L302.93,218.67L304.02,224L304.38,213.33L304.74,208L305.11,224L306.19,208L306.56,218.67L306.92,202.67L307.28,208L307.64,224L308.73,202.67L309.09,208L309.46,186.67L309.82,192L310.18,208L310.9,202.67L311.27,170.67L311.63,192L311.99,176L312.35,181.33L313.08,202.67L313.44,192L314.53,213.33L314.89,218.67L315.25,208L315.62,213.33L315.98,218.67L317.43,192L317.79,197.33L318.88,208L319.24,208L319.6,202.67L319.96,213.33L320.69,213.33L321.05,202.67L321.41,229.33L321.78,202.67L322.14,202.67L322.86,218.67L323.22,208L323.59,208L323.95,218.67L324.31,224L324.67,218.67L325.04,218.67L325.4,208L325.76,213.33L326.12,213.33L326.85,197.33L327.21,202.67L327.57,224L327.94,224L328.3,213.33L329.02,202.67L329.38,208L329.75,208L330.11,208L330.47,202.67L330.83,192L331.2,208L331.56,181.33L331.92,202.67L332.28,197.33L332.65,192L333.01,197.33L333.37,197.33L333.73,192L334.1,197.33L334.46,197.33L336.27,213.33L336.63,202.67L336.99,186.67L337.36,192L337.72,208L339.17,181.33L339.53,192L339.89,186.67L340.26,197.33L341.34,192L341.71,213.33L342.43,192L342.79,202.67L343.52,202.67L343.88,197.33L344.24,197.33L344.6,202.67L346.05,186.67L346.42,192L347.5,170.67L347.87,181.33L348.23,181.33L348.59,186.67L348.95,186.67L349.31,197.33L350.4,213.33L350.76,192L351.13,192L351.49,197.33L352.58,234.67L352.94,218.67L353.66,218.67L354.03,240L354.75,224L355.11,234.67L356.2,240L356.56,234.67L356.92,224L357.29,240L358.37,229.33L358.74,234.67L359.1,224L359.46,250.67L359.82,245.33L360.19,224L360.55,218.67L360.91,229.33L361.27,218.67L361.63,229.33L362,224L362.36,218.67L362.72,224L363.08,224L363.81,224L364.17,229.33L364.9,250.67L365.26,240L365.62,261.33L365.98,250.67L366.35,245.33L366.71,245.33L367.07,240L367.43,250.67L367.79,240L368.16,240L368.52,240L368.88,250.67L369.61,261.33L369.97,256L370.33,250.67L370.69,272L371.06,266.67L371.42,266.67L371.78,261.33L372.14,272L373.23,277.33L373.59,272L373.96,272L374.32,288L374.68,272L375.04,293.33L376.13,272L376.49,266.67L377.22,256L377.58,261.33L378.67,218.67L379.03,218.67L379.39,224L379.75,245.33L380.12,240L380.48,218.67L380.84,218.67L381.2,213.33L381.56,213.33L381.93,208L382.29,229.33L382.65,224L383.01,213.33L383.74,197.33L384.1,202.67L384.46,202.67L384.83,218.67L385.55,149.33L385.91,165.33L386.28,170.67L386.64,170.67L387,202.67L388.09,149.33L388.45,181.33L390.26,149.33L390.62,160L390.99,160L391.35,165.33L392.44,165.33L392.8,160L393.16,165.33L393.52,133.33L394.25,26.67L394.61,170.67L395.7,240L396.06,240L396.42,234.67L396.78,250.67L397.51,229.33L397.87,240L398.23,240L398.6,250.67L399.68,240L400.04,272L400.41,272L400.77,256L401.13,256L401.49,261.33L401.86,240L402.22,250.67L402.58,261.33L403.31,272L403.67,256L404.03,256L404.39,261.33L405.12,245.33L405.48,250.67L405.84,250.67L406.93,229.33L407.29,229.33L408.02,240L408.38,224L408.74,224L409.1,229.33L409.47,229.33L409.83,224L410.55,240L410.92,224L412.37,208L412.73,240L413.09,240L413.45,245.33L414.54,218.67L414.9,218.67L415.26,272L415.63,245.33L415.99,250.67L417.08,240L417.44,245.33L418.89,266.67L419.25,256L419.61,261.33L419.97,250.67L420.34,256L420.7,245.33L421.06,250.67L421.42,240L422.87,277.33L423.24,256L424.32,272L424.69,272L426.13,250.67L426.5,250.67L426.86,250.67L427.22,245.33L427.58,250.67L427.95,272L429.03,240L429.4,245.33L430.85,272L431.21,250.67L431.57,250.67L431.93,256L432.29,250.67L432.66,266.67L433.02,250.67L433.38,266.67L433.74,256L435.19,266.67L435.56,256L438.82,213.33L439.18,229.33L439.9,224L440.27,240L440.63,261.33L440.99,256L441.35,256L442.08,261.33L442.44,250.67L442.8,256L443.17,240L444.62,261.33L444.98,256L446.06,234.67L446.43,245.33L447.51,261.33L447.88,256L448.24,240L448.6,234.67L448.96,240L449.33,245.33L450.41,250.67L450.78,250.67L451.14,224L451.5,229.33L451.86,234.67L452.22,229.33L452.59,240L452.95,229.33L453.31,266.67L454.04,240L454.4,245.33L454.76,250.67L455.12,240L456.94,218.67L457.3,224L457.66,224L458.02,229.33L458.75,208L459.11,213.33L459.47,224L459.83,224L460.2,218.67L460.92,218.67L461.28,224L461.65,213.33L462.01,234.67L463.82,213.33L464.18,224L464.54,240L464.91,234.67L465.27,229.33L465.63,229.33L465.99,224L466.36,224L466.72,250.67L467.81,224L468.17,224L468.53,229.33L468.89,224L469.26,224L469.62,234.67L469.98,229.33L470.34,224L471.43,197.33L471.79,202.67L472.88,186.67L473.24,192L473.6,202.67L473.97,192L474.33,213.33L474.69,218.67L475.05,208L475.42,208L475.78,202.67L476.5,181.33L476.87,192L478.31,213.33L478.68,218.67L479.04,213.33L479.4,224L479.76,229.33L480.13,224L480.49,218.67L480.85,218.67L481.21,240L482.3,256L482.66,250.67L483.03,240L483.75,240L484.11,229.33L485.2,256L485.56,250.67L485.92,250.67L486.29,224L486.65,229.33L487.01,240L487.74,245.33L488.1,234.67L488.46,234.67L488.82,245.33L489.55,250.67L489.91,245.33L491,229.33L491.36,250.67L491.72,234.67L492.08,250.67L492.45,245.33L493.53,229.33L493.9,240L494.98,213.33L495.35,224L496.07,224L496.43,266.67L497.52,245.33L497.88,240L498.61,240L498.97,224L500.42,250.67L500.78,245.33L501.14,245.33L501.51,240L501.87,234.67L502.23,245.33L503.32,261.33L503.68,256L504.04,261.33L504.4,250.67L504.77,250.67L505.13,282.67L506.22,272L506.58,298.67L508.03,277.33L508.39,282.67L508.75,277.33L509.12,304L509.48,304L509.84,277.33L510.56,293.33L510.93,277.33L511.29,293.33L511.65,288L512.01,288L512.38,293.33L512.74,272L513.46,282.67L513.83,272L514.19,288L514.55,272L514.91,277.33L515.28,282.67L515.64,277.33L516,277.33" style="vector-effect: non-scaling-stroke; fill: none; stroke: rgb(99, 110, 250); stroke-opacity: 1; stroke-width: 2px; opacity: 1;"/></g><g class="points"/><g class="text"/></g><g class="trace scatter trace1e107c" style="stroke-miterlimit: 2; opacity: 1;"><g class="fills"/><g class="errorbars"/><g class="lines"><path class="js-line" d="M0,229.33L0.36,229.33L0.72,234.67L1.09,240L1.45,218.67L2.17,218.67L2.54,202.67L3.62,218.67L3.99,208L4.35,208L4.71,202.67L5.07,176L5.44,186.67L5.8,197.33L6.16,213.33L6.52,154.67L7.25,213.33L7.61,176L7.97,181.33L8.33,176L8.7,208L9.06,176L9.42,197.33L9.78,213.33L10.87,197.33L11.23,208L11.6,192L11.96,197.33L12.32,213.33L13.41,170.67L13.77,176L14.13,170.67L14.49,186.67L14.86,186.67L15.22,165.33L15.58,170.67L15.94,165.33L16.31,165.33L16.67,165.33L17.03,197.33L17.76,154.67L18.12,165.33L18.48,160L19.57,208L19.93,202.67L20.29,192L21.74,160L22.1,170.67L23.19,154.67L23.55,144L24.28,165.33L24.64,181.33L25,186.67L25.37,176L25.73,165.33L26.09,176L26.45,176L26.81,176L27.18,197.33L27.54,197.33L27.9,181.33L28.63,197.33L28.99,186.67L30.08,218.67L30.44,192L31.16,208L31.53,197.33L32.61,202.67L32.97,176L34.06,202.67L34.42,208L35.15,224L35.51,218.67L35.87,208L36.24,208L36.6,213.33L37.32,202.67L37.69,208L38.05,208L39.13,165.33L39.5,181.33L40.58,186.67L40.95,186.67L41.31,192L41.67,181.33L42.4,197.33L42.76,192L43.12,176L43.48,160L43.85,170.67L44.21,165.33L44.57,165.33L44.93,176L45.29,197.33L45.66,165.33L46.02,149.33L46.38,160L46.74,176L47.11,176L47.47,192L47.83,192L48.19,176L48.56,154.67L48.92,165.33L49.28,165.33L49.64,160L50.01,165.33L50.37,176L51.46,160L51.82,160L52.9,186.67L53.27,160L54.72,149.33L55.44,170.67L55.8,154.67L56.17,170.67L56.53,165.33L56.89,165.33L57.25,160L57.62,197.33L57.98,170.67L58.34,165.33L59.06,138.67L59.43,160L59.79,160L60.15,202.67L61.24,165.33L61.6,170.67L61.96,170.67L62.69,202.67L63.05,186.67L63.78,165.33L64.14,170.67L64.5,170.67L65.22,208L65.59,176L65.95,170.67L66.31,176L66.67,181.33L67.4,170.67L67.76,202.67L68.85,181.33L69.21,176L70.3,208L70.66,192L71.02,192L71.38,186.67L71.75,181.33L72.11,186.67L72.47,186.67L73.56,149.33L73.92,165.33L74.65,165.33L75.01,170.67L76.1,186.67L76.46,181.33L77.54,202.67L77.91,197.33L78.27,197.33L78.63,202.67L78.99,202.67L79.36,208L79.72,208L80.08,170.67L80.81,192L81.17,186.67L81.53,197.33L81.89,176L82.26,192L82.62,170.67L82.98,192L83.34,176L83.71,181.33L84.07,181.33L84.43,197.33L85.15,181.33L85.52,208L86.24,186.67L86.6,197.33L86.97,192L87.33,202.67L87.69,192L88.05,208L88.42,176L88.78,186.67L89.14,186.67L89.5,186.67L89.87,197.33L90.95,186.67L91.31,197.33L92.04,181.33L92.4,192L92.76,181.33L93.13,213.33L93.85,181.33L94.21,186.67L94.94,197.33L95.3,181.33L95.66,197.33L96.03,186.67L96.39,170.67L97.11,192L97.47,186.67L97.84,192L99.65,165.33L100.01,176L100.74,213.33L101.1,192L101.46,197.33L101.82,186.67L102.91,202.67L103.27,181.33L103.63,165.33L104,170.67L104.36,192L104.72,197.33L105.08,181.33L105.45,181.33L105.81,197.33L106.17,170.67L106.53,186.67L106.9,197.33L107.62,202.67L107.98,197.33L108.71,197.33L109.07,186.67L109.79,197.33L110.16,186.67L110.88,170.67L111.24,154.67L113.06,186.67L113.42,181.33L113.78,176L114.14,154.67L114.51,160L114.87,170.67L115.23,170.67L115.59,165.33L115.96,181.33L116.32,170.67L116.68,149.33L117.77,170.67L118.13,160L118.85,170.67L119.22,154.67L119.94,170.67L120.3,149.33L120.67,160L121.03,133.33L121.39,122.67L121.75,128L122.12,138.67L122.84,160L123.2,138.67L123.56,144L123.93,138.67L124.29,128L124.65,144L125.01,138.67L125.38,128L125.74,138.67L126.1,128L126.46,128L127.55,106.67L127.91,96L128.28,90.67L128.64,101.33L129.72,53.33L130.09,138.67L131.17,154.67L131.54,154.67L131.9,192L132.26,165.33L132.62,154.67L132.99,149.33L133.35,160L134.8,138.67L135.16,149.33L137.7,117.33L138.06,117.33L138.42,112L138.78,122.67L140.6,96L140.96,106.67L141.32,58.67L141.68,101.33L142.04,117.33L142.41,122.67L142.77,112L143.86,133.33L144.22,122.67L145.67,138.67L146.03,133.33L146.39,133.33L146.76,112L147.84,122.67L148.21,96L148.93,133.33L149.29,106.67L150.02,128L150.38,122.67L150.74,117.33L152.55,85.33L152.92,117.33L154.37,96L154.73,96L155.81,106.67L156.18,101.33L156.9,122.67L157.26,96L157.63,80L157.99,96L158.35,96L158.71,96L159.08,149.33L159.44,160L159.8,138.67L160.53,117.33L160.89,122.67L161.97,138.67L162.34,122.67L163.79,160L164.15,149.33L165.24,117.33L165.6,138.67L166.69,154.67L167.05,154.67L167.41,154.67L167.77,160L168.5,133.33L168.86,149.33L169.58,186.67L169.95,170.67L170.31,165.33L170.67,149.33L171.03,154.67L171.4,170.67L171.76,154.67L172.12,165.33L172.48,165.33L172.85,165.33L173.21,154.67L173.57,154.67L173.93,149.33L175.02,165.33L175.38,154.67L176.11,154.67L176.47,144L177.19,160L177.56,144L178.64,165.33L179.01,149.33L179.37,176L179.73,154.67L180.09,170.67L180.46,192L180.82,186.67L181.18,186.67L181.54,181.33L181.9,186.67L182.27,186.67L182.63,192L182.99,186.67L183.35,186.67L183.72,197.33L184.08,181.33L184.44,176L184.8,181.33L185.17,181.33L185.89,192L186.25,186.67L187.34,165.33L187.7,186.67L188.06,197.33L188.43,181.33L189.15,181.33L189.51,170.67L189.88,160L190.24,170.67L190.6,176L191.69,186.67L192.05,165.33L193.14,165.33L193.5,202.67L194.22,186.67L194.59,202.67L195.31,176L195.67,197.33L196.04,197.33L196.4,186.67L196.76,176L197.12,202.67L197.85,181.33L198.21,192L199.3,170.67L199.66,192L200.02,192L200.38,181.33L201.11,160L201.47,170.67L201.83,165.33L202.2,181.33L203.65,160L204.01,154.67L204.73,144L205.1,154.67L206.54,112L206.91,122.67L207.27,154.67L207.63,144L207.99,122.67L208.36,112L208.72,122.67L209.08,117.33L210.17,165.33L210.53,154.67L211.26,154.67L211.62,149.33L212.34,165.33L212.71,160L213.07,138.67L213.43,149.33L213.79,149.33L214.52,138.67L214.88,112L215.97,144L216.33,133.33L216.69,133.33L217.05,128L217.42,133.33L217.78,122.67L218.14,128L218.5,117.33L218.87,117.33L219.23,144L220.31,106.67L220.68,117.33L221.4,101.33L221.76,112L222.13,85.33L222.49,101.33L222.85,101.33L223.21,96L223.58,101.33L223.94,101.33L225.39,128L225.75,122.67L226.11,106.67L226.47,117.33L226.84,122.67L227.2,106.67L227.56,133.33L228.29,138.67L228.65,122.67L229.74,138.67L230.1,133.33L230.46,122.67L230.82,122.67L231.19,117.33L231.55,122.67L231.91,117.33L232.27,117.33L233.36,122.67L233.72,122.67L234.81,122.67L235.17,133.33L235.9,144L236.26,133.33L236.62,133.33L236.98,138.67L237.71,160L238.07,133.33L238.43,144L238.79,128L239.52,117.33L239.88,138.67L240.24,144L240.61,133.33L242.06,133.33L242.42,138.67L242.78,144L243.14,133.33L244.23,117.33L244.59,117.33L245.32,133.33L245.68,128L246.04,128L246.4,122.67L247.85,144L248.22,138.67L248.58,138.67L248.94,138.67L249.3,128L250.03,138.67L250.39,122.67L250.75,133.33L251.12,117.33L252.2,138.67L252.56,133.33L252.93,128L253.29,106.67L253.65,106.67L254.01,122.67L254.38,128L254.74,122.67L255.1,117.33L255.83,128L256.19,117.33L257.28,133.33L257.64,128L258,128L258.36,117.33L258.72,117.33L259.09,122.67L259.81,122.67L260.17,96L261.26,80L261.62,37.33L261.99,21.33L262.35,154.67L263.07,165.33L263.44,149.33L264.16,149.33L264.52,165.33L265.61,149.33L265.97,144L266.33,138.67L266.7,160L267.78,170.67L268.15,144L268.51,138.67L268.87,144L269.23,149.33L269.96,154.67L270.32,138.67L270.68,149.33L271.04,133.33L271.41,133.33L271.77,144L272.49,165.33L272.86,149.33L273.22,144L273.58,80L274.67,154.67L275.03,138.67L275.39,149.33L275.76,138.67L276.12,128L276.84,138.67L277.21,128L277.57,133.33L277.93,154.67L278.29,154.67L278.65,128L279.74,144L280.1,138.67L280.83,144L281.19,138.67L281.55,138.67L281.92,149.33L282.28,144L282.64,149.33L283,154.67L283.37,170.67L283.73,154.67L284.09,160L284.45,181.33L284.81,170.67L285.18,176L285.54,181.33L285.9,165.33L286.26,160L286.63,165.33L286.99,165.33L287.35,176L287.71,170.67L288.08,170.67L288.44,160L288.8,176L289.16,165.33L289.53,176L289.89,181.33L290.97,176L291.34,181.33L291.7,192L292.06,186.67L292.42,186.67L292.79,181.33L293.15,202.67L293.87,181.33L294.24,197.33L294.96,202.67L295.32,192L295.69,192L296.05,186.67L296.41,192L296.77,181.33L297.5,202.67L297.86,192L298.95,165.33L299.31,170.67L300.4,176L300.76,160L301.12,176L301.48,149.33L302.57,176L302.93,165.33L304.38,122.67L304.74,149.33L305.11,144L305.47,154.67L305.83,165.33L306.19,144L306.56,138.67L306.92,160L307.64,165.33L308.01,160L308.73,181.33L309.09,149.33L310.18,160L310.54,154.67L311.99,133.33L312.35,144L313.08,160L313.44,154.67L314.17,181.33L314.53,176L315.62,192L315.98,176L316.34,186.67L316.7,176L317.06,176L317.79,181.33L318.15,170.67L318.51,170.67L318.88,176L319.24,176L319.6,170.67L320.69,176L321.05,165.33L321.41,176L321.78,160L322.86,181.33L323.22,181.33L324.67,170.67L325.04,181.33L325.4,181.33L325.76,186.67L327.21,154.67L327.57,176L327.94,176L328.3,181.33L329.38,160L329.75,165.33L330.11,170.67L331.2,186.67L331.56,160L331.92,149.33L332.28,154.67L332.65,165.33L333.37,165.33L333.73,154.67L334.1,154.67L334.46,133.33L334.82,144L335.18,138.67L335.54,138.67L336.27,138.67L336.63,133.33L336.99,133.33L337.36,128L337.72,128L338.08,138.67L338.44,133.33L338.81,149.33L339.17,149.33L339.53,117.33L340.26,144L340.62,138.67L340.98,133.33L341.71,149.33L342.07,138.67L343.15,154.67L343.52,149.33L343.88,154.67L344.24,149.33L344.6,138.67L344.97,144L345.33,133.33L346.78,144L347.14,133.33L348.59,144L348.95,138.67L350.04,117.33L350.4,133.33L351.13,133.33L351.49,128L351.85,128L352.21,133.33L353.3,149.33L353.66,138.67L354.75,117.33L355.11,128L355.47,138.67L355.84,133.33L356.2,122.67L356.56,128L356.92,160L358.01,144L358.37,144L359.1,165.33L359.46,160L359.82,133.33L361.27,149.33L361.63,128L362,138.67L362.36,128L362.72,128L363.45,144L363.81,138.67L364.53,149.33L364.9,138.67L367.07,176L367.43,154.67L369.61,192L369.97,181.33L370.33,165.33L370.69,181.33L371.06,186.67L371.42,181.33L371.78,197.33L372.51,208L372.87,229.33L373.96,250.67L374.32,234.67L374.68,234.67L375.04,229.33L375.4,229.33L375.77,234.67L377.94,192L378.3,197.33L380.12,181.33L380.48,181.33L380.84,181.33L381.2,186.67L382.65,160L383.01,160L384.46,176L384.83,149.33L385.55,138.67L385.91,160L386.64,149.33L387,165.33L388.09,144L388.45,170.67L388.81,181.33L389.17,165.33L389.54,165.33L389.9,154.67L390.26,128L390.62,133.33L390.99,154.67L392.8,117.33L393.16,128L393.52,144L393.88,69.33L394.25,42.67L394.61,176L395.33,197.33L395.7,192L396.06,186.67L396.42,154.67L396.78,165.33L397.15,186.67L397.51,186.67L397.87,176L398.23,176L398.6,186.67L399.32,181.33L399.68,192L400.04,192L400.41,176L401.13,197.33L401.49,208L402.22,192L402.58,213.33L402.94,197.33L403.31,202.67L403.67,218.67L404.03,213.33L404.39,224L405.48,186.67L405.84,160L406.93,234.67L407.29,229.33L408.38,218.67L408.74,229.33L410.19,186.67L410.55,186.67L413.45,224L413.81,218.67L414.54,240L414.9,224L415.99,240L416.35,224L416.71,218.67L417.08,234.67L418.53,208L418.89,218.67L419.61,218.67L419.97,213.33L420.34,192L420.7,208L421.06,218.67L421.42,208L421.79,224L422.51,218.67L422.87,224L423.6,229.33L423.96,218.67L424.69,213.33L425.05,218.67L426.13,234.67L426.5,245.33L426.86,256L427.22,250.67L427.58,250.67L427.95,250.67L428.31,229.33L429.4,272L429.76,256L430.85,229.33L431.21,234.67L431.57,256L431.93,256L432.29,234.67L432.66,229.33L433.02,202.67L433.38,213.33L433.74,202.67L434.11,240L434.83,266.67L435.19,256L435.56,240L435.92,208L436.28,234.67L436.64,266.67L437.73,261.33L438.09,224L438.46,197.33L438.82,245.33L439.18,261.33L439.54,250.67L439.9,250.67L440.27,250.67L440.63,261.33L440.99,213.33L441.35,256L441.72,277.33L442.8,272L443.17,240L443.53,202.67L443.89,218.67L444.25,250.67L444.98,234.67L445.34,240L445.7,202.67L446.06,186.67L446.43,213.33L446.79,234.67L447.15,229.33L447.51,224L447.88,234.67L448.24,181.33L448.6,170.67L448.96,192L450.05,202.67L450.41,208L451.14,165.33L451.5,197.33L452.22,213.33L452.59,208L452.95,202.67L453.31,197.33L453.67,170.67L454.76,224L455.12,218.67L455.49,224L456.21,192L456.57,202.67L457.3,218.67L457.66,213.33L458.02,208L458.38,197.33L458.75,202.67L459.11,208L459.47,218.67L459.83,197.33L460.56,213.33L460.92,192L461.28,186.67L461.65,192L462.01,213.33L463.46,192L463.82,181.33L464.54,213.33L464.91,208L465.27,202.67L466.36,197.33L466.72,213.33L467.44,218.67L467.81,202.67L468.89,181.33L469.26,218.67L469.98,229.33L470.34,218.67L471.43,186.67L471.79,186.67L472.15,197.33L472.52,192L472.88,181.33L473.24,186.67L473.6,181.33L473.97,176L474.33,165.33L474.69,186.67L475.78,165.33L476.14,181.33L476.87,165.33L477.23,176L477.59,176L477.95,192L478.31,192L478.68,202.67L479.04,186.67L479.4,197.33L479.76,202.67L480.13,208L480.49,202.67L480.85,197.33L481.21,192L481.58,208L481.94,202.67L482.3,213.33L482.66,208L483.03,218.67L483.39,213.33L483.75,224L484.11,197.33L484.47,213.33L484.84,229.33L485.92,229.33L486.29,213.33L487.01,202.67L487.37,213.33L488.46,202.67L488.82,208L489.19,197.33L489.55,202.67L489.91,208L491.36,197.33L491.72,208L492.08,197.33L492.45,208L492.81,208L493.53,197.33L493.9,202.67L494.62,181.33L494.98,192L496.79,170.67L497.16,186.67L497.52,186.67L497.88,192L499.69,170.67L500.06,186.67L501.14,181.33L501.51,186.67L501.87,181.33L502.23,186.67L502.59,186.67L502.96,197.33L503.32,192L503.68,186.67L504.04,176L504.4,192L504.77,181.33L505.13,186.67L505.49,186.67L505.85,186.67L506.22,192L506.58,192L506.94,202.67L507.67,213.33L508.03,208L508.75,218.67L509.12,208L510.56,229.33L510.93,224L511.29,224L511.65,234.67L512.01,208L512.38,229.33L512.74,234.67L513.1,234.67L513.46,224L514.19,224L514.55,192L515.28,245.33L515.64,240L516,234.67" style="vector-effect: non-scaling-stroke; fill: none; stroke: rgb(239, 85, 59); stroke-opacity: 1; stroke-width: 2px; opacity: 1;"/></g><g class="points"/><g class="text"/></g><g class="trace scatter trace372a7b" style="stroke-miterlimit: 2; opacity: 1;"><g class="fills"/><g class="errorbars"/><g class="lines"><path class="js-line" d="M0,218.67L0.36,202.67L0.72,213.33L1.09,218.67L2.17,197.33L2.54,202.67L2.9,192L3.26,197.33L3.62,218.67L4.71,202.67L5.07,197.33L5.44,197.33L5.8,213.33L6.52,181.33L6.88,202.67L7.61,186.67L7.97,192L8.33,192L9.42,208L9.78,192L10.51,192L10.87,218.67L11.6,192L11.96,208L13.04,192L13.41,213.33L13.77,208L14.13,186.67L14.49,197.33L14.86,186.67L15.22,170.67L15.94,154.67L16.31,181.33L16.67,197.33L17.03,181.33L17.39,170.67L18.48,181.33L18.84,181.33L19.21,181.33L19.57,202.67L20.29,186.67L20.65,202.67L21.02,202.67L21.38,192L22.47,154.67L22.83,160L23.19,160L23.55,154.67L23.92,160L24.28,165.33L24.64,165.33L25,176L25.37,160L25.73,170.67L26.09,170.67L27.18,224L27.54,213.33L27.9,213.33L28.63,202.67L28.99,208L29.35,208L29.71,202.67L30.08,208L30.44,213.33L31.89,186.67L32.25,186.67L34.06,208L34.42,202.67L34.79,218.67L35.15,208L35.51,192L36.6,202.67L36.96,197.33L37.32,181.33L37.69,208L38.41,181.33L38.77,186.67L39.13,202.67L39.5,186.67L39.86,192L40.58,165.33L40.95,176L42.03,197.33L42.4,192L42.76,181.33L43.12,160L43.48,186.67L43.85,186.67L44.21,181.33L45.29,176L45.66,154.67L47.83,176L48.19,176L48.56,165.33L48.92,170.67L49.28,170.67L49.64,181.33L50.01,165.33L50.37,154.67L50.73,165.33L51.09,165.33L52.18,181.33L52.54,181.33L53.27,160L53.63,165.33L54.72,181.33L55.44,186.67L55.8,165.33L56.89,192L57.25,186.67L57.62,197.33L57.98,192L58.34,176L59.06,170.67L59.43,181.33L60.51,218.67L60.88,202.67L61.6,197.33L61.96,213.33L62.69,202.67L63.05,208L63.78,192L64.14,197.33L64.5,208L64.86,213.33L65.22,208L65.59,197.33L65.95,192L66.31,208L67.04,197.33L67.4,202.67L68.49,181.33L68.85,208L69.94,192L70.3,197.33L71.02,181.33L71.38,192L71.75,202.67L72.11,186.67L72.47,186.67L72.83,149.33L73.2,176L73.56,149.33L73.92,170.67L75.01,192L75.37,186.67L75.73,208L77.18,176L77.54,192L77.91,213.33L78.27,208L78.63,176L78.99,192L79.36,181.33L79.72,181.33L80.08,181.33L80.44,197.33L80.81,208L81.17,165.33L81.53,181.33L81.89,170.67L82.26,170.67L82.62,170.67L82.98,186.67L83.34,197.33L83.71,176L84.43,176L84.79,170.67L85.52,213.33L85.88,208L86.24,186.67L86.6,202.67L86.97,197.33L87.33,197.33L87.69,197.33L88.05,208L88.78,186.67L89.14,197.33L89.5,197.33L90.23,186.67L90.59,202.67L91.68,192L92.04,197.33L92.76,208L93.13,197.33L93.49,197.33L93.85,208L94.21,202.67L94.58,208L94.94,208L96.03,181.33L96.39,181.33L96.75,176L97.11,186.67L98.92,160L99.29,181.33L100.01,160L100.37,176L100.74,154.67L101.1,165.33L101.46,165.33L102.19,202.67L102.55,192L104,160L104.36,186.67L104.72,186.67L105.08,181.33L105.45,208L105.81,186.67L106.17,170.67L106.53,165.33L106.9,181.33L107.26,208L107.62,192L107.98,197.33L109.07,165.33L109.43,181.33L109.79,181.33L110.16,160L110.52,165.33L110.88,149.33L111.24,144L111.61,149.33L111.97,176L112.33,154.67L112.69,165.33L113.06,170.67L113.42,170.67L113.78,144L114.14,165.33L114.51,154.67L114.87,154.67L115.23,154.67L115.59,170.67L115.96,176L116.32,165.33L116.68,149.33L117.04,154.67L117.4,154.67L118.13,181.33L118.49,170.67L118.85,170.67L119.22,160L119.58,176L119.94,176L120.3,149.33L120.67,165.33L121.03,128L122.84,192L123.2,170.67L123.93,122.67L124.29,144L124.65,165.33L125.01,160L125.38,144L125.74,149.33L126.1,128L126.46,112L126.83,138.67L127.55,138.67L127.91,122.67L129.72,42.67L130.09,165.33L130.45,160L130.81,170.67L131.54,144L132.26,165.33L133.35,144L133.71,154.67L134.07,160L134.44,144L135.52,160L135.88,154.67L136.61,122.67L136.97,138.67L137.33,160L137.7,149.33L138.06,128L138.42,128L138.78,122.67L139.15,122.67L139.51,133.33L140.23,138.67L140.6,133.33L140.96,133.33L141.32,101.33L141.68,96L142.04,101.33L142.41,117.33L142.77,117.33L143.13,133.33L144.22,117.33L144.58,122.67L145.31,112L145.67,138.67L146.76,90.67L147.12,96L147.48,106.67L147.84,106.67L148.21,117.33L149.29,101.33L149.65,106.67L150.02,117.33L150.74,117.33L151.1,112L151.83,80L152.19,101.33L152.55,101.33L152.92,106.67L153.28,106.67L153.64,101.33L154,85.33L154.37,96L154.73,101.33L155.81,112L156.18,101.33L157.63,122.67L157.99,117.33L158.71,112L159.08,144L159.44,138.67L159.8,149.33L160.89,128L161.25,128L161.61,128L161.97,117.33L162.7,149.33L163.06,133.33L163.79,117.33L164.15,128L165.6,138.67L165.96,138.67L166.69,160L167.05,149.33L167.41,138.67L169.22,170.67L169.58,154.67L170.31,149.33L170.67,154.67L171.03,154.67L171.4,160L172.85,176L173.21,165.33L174.29,144L174.66,149.33L175.02,149.33L175.38,181.33L176.83,154.67L177.19,165.33L177.56,165.33L177.92,181.33L178.28,192L178.64,176L179.37,186.67L179.73,165.33L180.09,165.33L180.46,176L180.82,186.67L181.18,170.67L181.54,170.67L181.9,176L182.27,160L182.63,176L182.99,181.33L184.08,160L184.44,154.67L184.8,149.33L185.17,170.67L185.53,181.33L185.89,170.67L186.25,160L186.62,170.67L186.98,149.33L187.34,154.67L187.7,138.67L188.43,181.33L188.79,170.67L189.15,176L189.51,154.67L189.88,160L190.24,165.33L191.33,176L191.69,165.33L192.05,170.67L192.41,149.33L192.78,149.33L193.14,170.67L193.5,213.33L193.86,208L194.22,192L195.31,170.67L195.67,181.33L196.4,170.67L196.76,144L197.12,165.33L197.49,154.67L197.85,154.67L198.57,176L198.94,170.67L199.3,160L199.66,165.33L200.02,165.33L201.11,149.33L201.47,160L201.83,160L202.2,138.67L202.56,138.67L202.92,133.33L204.37,133.33L204.73,117.33L205.1,122.67L205.46,112L206.54,133.33L206.91,128L207.27,128L207.63,106.67L208.36,101.33L208.72,112L209.08,106.67L209.44,117.33L211.98,170.67L212.34,154.67L213.07,154.67L213.43,170.67L215.24,117.33L215.6,133.33L216.69,154.67L217.05,133.33L217.42,138.67L218.14,122.67L218.5,128L218.87,122.67L219.23,122.67L219.95,101.33L220.31,112L220.68,122.67L221.04,133.33L221.4,117.33L222.49,101.33L222.85,106.67L223.58,122.67L223.94,106.67L224.3,112L224.66,101.33L225.39,96L225.75,106.67L226.47,138.67L226.84,133.33L227.2,128L228.29,112L228.65,144L230.1,112L230.46,101.33L231.19,122.67L231.55,112L231.91,106.67L232.27,122.67L232.63,112L233,117.33L233.36,122.67L233.72,122.67L234.08,117.33L234.81,112L235.17,117.33L236.26,133.33L236.62,122.67L236.98,128L237.35,122.67L237.71,101.33L238.07,117.33L238.43,112L238.79,106.67L239.88,122.67L240.24,117.33L240.61,112L240.97,128L241.69,144L242.06,122.67L242.78,101.33L243.14,117.33L243.51,133.33L243.87,122.67L244.23,106.67L244.96,122.67L245.32,112L246.04,133.33L246.4,117.33L247.13,133.33L247.49,112L249.3,138.67L249.67,128L250.03,138.67L250.39,106.67L252.56,138.67L252.93,106.67L253.29,69.33L253.65,80L254.01,117.33L254.38,117.33L254.74,96L255.46,112L255.83,80L256.19,80L256.55,112L258.36,64L258.72,69.33L259.09,96L259.45,96L259.81,69.33L260.9,48L261.26,58.67L261.62,16L261.99,26.67L262.35,112L262.71,138.67L263.07,128L263.44,133.33L264.16,133.33L264.52,149.33L264.88,144L265.25,154.67L265.97,128L266.33,138.67L266.7,160L268.15,149.33L268.51,122.67L268.87,128L269.23,160L269.96,160L270.32,154.67L271.41,128L271.77,149.33L272.49,160L272.86,149.33L273.22,154.67L273.58,149.33L273.94,138.67L274.31,138.67L274.67,144L275.39,144L275.76,133.33L276.12,128L276.48,149.33L276.84,149.33L277.21,133.33L277.57,133.33L277.93,144L278.29,149.33L278.65,128L279.74,138.67L280.1,133.33L280.47,128L280.83,138.67L281.19,122.67L281.55,128L281.92,133.33L282.28,138.67L282.64,133.33L283,154.67L284.09,138.67L284.45,149.33L284.81,138.67L285.18,144L285.54,149.33L285.9,149.33L286.26,144L287.35,154.67L287.71,144L288.08,149.33L288.44,144L288.8,144L289.53,170.67L289.89,165.33L290.25,170.67L290.61,170.67L290.97,160L291.34,154.67L291.7,170.67L292.42,181.33L292.79,176L293.15,181.33L293.51,176L293.87,170.67L294.96,192L295.32,186.67L295.69,192L296.05,176L296.41,133.33L296.77,165.33L297.13,192L298.22,176L298.58,165.33L298.95,154.67L299.31,165.33L299.67,165.33L300.03,165.33L300.4,170.67L300.76,181.33L301.12,165.33L301.48,133.33L301.85,160L302.21,170.67L304.02,117.33L304.38,117.33L305.47,154.67L305.83,149.33L306.56,117.33L306.92,149.33L308.01,149.33L308.37,144L309.09,122.67L309.46,138.67L310.54,149.33L310.9,138.67L311.27,117.33L311.63,128L311.99,122.67L313.08,144L313.44,133.33L314.53,160L314.89,170.67L316.7,122.67L317.06,133.33L317.43,160L317.79,149.33L318.15,144L319.24,101.33L319.6,122.67L320.33,144L320.69,138.67L321.05,128L321.78,101.33L322.14,122.67L322.5,133.33L322.86,128L323.22,122.67L323.59,122.67L323.95,101.33L325.4,138.67L325.76,128L326.12,112L326.49,117.33L326.85,117.33L327.57,138.67L327.94,122.67L329.02,133.33L329.38,117.33L330.11,138.67L330.47,144L331.92,117.33L332.28,117.33L333.01,128L333.37,112L333.73,128L334.1,106.67L336.27,133.33L336.63,128L336.99,122.67L337.36,128L337.72,133.33L338.81,144L339.17,133.33L339.89,128L340.26,138.67L340.98,128L341.34,149.33L341.71,149.33L342.07,133.33L343.52,165.33L343.88,154.67L344.6,128L344.97,154.67L345.33,165.33L345.69,154.67L346.05,154.67L346.42,154.67L346.78,128L347.87,154.67L348.23,149.33L348.59,149.33L348.95,154.67L349.31,106.67L349.68,101.33L350.04,106.67L350.4,117.33L350.76,133.33L351.13,128L351.49,128L351.85,128L352.21,122.67L352.94,160L353.3,133.33L353.66,138.67L354.03,117.33L355.11,106.67L355.47,122.67L355.84,122.67L356.2,128L356.56,122.67L356.92,149.33L357.29,128L357.65,149.33L358.01,154.67L359.1,160L359.46,144L359.82,117.33L360.19,138.67L360.55,170.67L360.91,170.67L361.27,154.67L361.63,154.67L362,138.67L362.36,112L362.72,122.67L363.08,154.67L363.81,154.67L364.17,144L364.53,144L364.9,133.33L365.98,165.33L366.35,160L367.43,170.67L367.79,192L368.16,192L368.52,181.33L369.24,176L369.61,186.67L369.97,181.33L370.33,202.67L371.42,213.33L371.78,202.67L372.14,213.33L372.51,186.67L373.59,234.67L373.96,229.33L375.04,197.33L375.4,208L376.49,213.33L376.85,192L377.22,170.67L377.58,176L377.94,197.33L378.3,197.33L378.67,202.67L379.03,202.67L379.39,186.67L380.12,176L380.48,192L380.84,202.67L381.2,192L381.56,192L382.65,154.67L383.01,165.33L383.38,192L384.83,181.33L385.19,154.67L386.28,186.67L386.64,181.33L387,176L387.36,149.33L388.09,138.67L388.45,170.67L389.17,160L389.54,165.33L390.26,133.33L390.62,149.33L390.99,170.67L391.35,160L391.71,160L392.8,133.33L393.16,138.67L393.52,138.67L393.88,58.67L394.25,80L394.61,181.33L394.97,202.67L395.33,197.33L395.7,192L396.06,197.33L396.42,144L397.51,202.67L397.87,186.67L398.6,208L398.96,192L400.04,218.67L400.41,208L401.13,213.33L401.49,208L402.94,229.33L403.31,224L404.03,229.33L404.39,224L404.76,224L405.12,208L406.21,186.67L406.57,213.33L406.93,218.67L407.29,213.33L407.65,197.33L408.02,192L408.38,197.33L408.74,208L409.1,208L409.47,202.67L410.55,192L411.28,208L412,208L412.37,197.33L413.45,202.67L413.81,234.67L414.18,234.67L414.54,229.33L415.63,202.67L415.99,213.33L416.71,240L417.08,218.67L417.44,218.67L417.8,197.33L418.16,192L418.53,213.33L419.61,224L419.97,213.33L420.7,202.67L421.06,208L422.15,229.33L422.51,224L422.87,240L423.24,234.67L423.6,218.67L424.32,240L424.69,234.67L425.05,234.67L425.41,240L425.77,224L426.13,224L426.5,256L428.31,208L428.67,218.67L430.12,234.67L430.48,213.33L430.85,208L431.21,224L431.57,224L431.93,240L432.29,245.33L432.66,229.33L433.38,208L433.74,213.33L434.11,224L435.19,245.33L435.56,229.33L436.64,229.33L437.01,234.67L437.37,245.33L437.73,229.33L438.82,202.67L439.18,229.33L439.54,229.33L439.9,245.33L440.27,234.67L440.63,245.33L440.99,240L441.35,256L441.72,240L442.08,240L442.44,234.67L442.8,245.33L443.53,218.67L443.89,229.33L444.25,245.33L445.34,250.67L445.7,202.67L446.06,197.33L446.43,240L446.79,245.33L447.15,229.33L447.88,234.67L448.24,213.33L448.6,192L448.96,213.33L449.33,229.33L449.69,234.67L450.05,224L451.14,186.67L451.5,197.33L452.59,229.33L452.95,224L453.67,208L454.04,218.67L454.4,245.33L454.76,229.33L455.12,224L455.49,240L455.85,218.67L456.21,202.67L456.57,213.33L456.94,218.67L457.3,213.33L457.66,224L458.75,208L459.11,224L460.2,224L460.56,229.33L461.28,202.67L461.65,213.33L462.01,218.67L462.37,213.33L462.73,213.33L463.1,218.67L463.46,197.33L463.82,192L464.18,224L464.54,213.33L464.91,218.67L465.27,229.33L466.36,181.33L466.72,202.67L467.08,213.33L467.44,202.67L467.81,192L468.17,192L468.53,202.67L468.89,181.33L469.26,202.67L469.62,229.33L471.43,154.67L471.79,181.33L472.88,192L473.24,186.67L473.97,154.67L474.33,181.33L475.42,192L475.78,181.33L476.14,176L476.5,154.67L477.23,186.67L477.59,176L478.31,202.67L478.68,186.67L479.04,154.67L479.4,192L479.76,192L480.13,202.67L480.85,186.67L481.21,154.67L481.58,149.33L481.94,192L482.66,213.33L483.03,208L483.39,218.67L484.11,186.67L484.47,202.67L485.2,208L485.56,197.33L486.65,170.67L487.01,186.67L487.37,181.33L487.74,197.33L488.1,197.33L488.46,181.33L490.63,208L491,202.67L491.72,192L492.08,213.33L493.17,197.33L493.53,202.67L493.9,176L494.26,176L494.62,181.33L495.71,213.33L496.07,186.67L496.43,170.67L496.79,176L497.16,208L497.88,218.67L498.24,208L498.61,202.67L498.97,149.33L499.33,154.67L499.69,192L500.78,208L501.14,208L501.87,160L502.23,202.67L502.96,213.33L503.32,192L503.68,197.33L504.04,154.67L504.77,165.33L505.13,202.67L506.22,208L506.58,197.33L506.94,197.33L507.3,208L508.03,208L508.39,197.33L509.12,186.67L509.48,197.33L510.56,213.33L510.93,192L511.29,208L511.65,197.33L512.01,186.67L513.46,224L513.83,213.33L514.55,181.33L514.91,218.67L515.64,240L516,224" style="vector-effect: non-scaling-stroke; fill: none; stroke: rgb(0, 204, 150); stroke-opacity: 1; stroke-width: 2px; opacity: 1;"/></g><g class="points"/><g class="text"/></g></g></g><g class="overplot"/><path class="xlines-above crisp" d="M0,0" style="fill: none;"/><path class="ylines-above crisp" d="M0,0" style="fill: none;"/><g class="overlines-above"/><g class="xaxislayer-above"><g class="xtick"><text text-anchor="middle" x="0" y="433" transform="translate(80,0)" style="font-family: 'Open Sans', verdana, arial, sans-serif; font-size: 12px; fill: rgb(42, 63, 95); fill-opacity: 1; white-space: pre;">2017</text></g><g class="xtick"><text text-anchor="middle" x="0" y="433" transform="translate(212.26,0)" style="font-family: 'Open Sans', verdana, arial, sans-serif; font-size: 12px; fill: rgb(42, 63, 95); fill-opacity: 1; white-space: pre;">2018</text></g><g class="xtick"><text text-anchor="middle" x="0" y="433" transform="translate(344.52,0)" style="font-family: 'Open Sans', verdana, arial, sans-serif; font-size: 12px; fill: rgb(42, 63, 95); fill-opacity: 1; white-space: pre;">2019</text></g><g class="xtick"><text text-anchor="middle" x="0" y="433" transform="translate(476.78,0)" style="font-family: 'Open Sans', verdana, arial, sans-serif; font-size: 12px; fill: rgb(42, 63, 95); fill-opacity: 1; white-space: pre;">2020</text></g></g><g class="yaxislayer-above"><g class="ytick"><text text-anchor="end" x="79" y="4.199999999999999" transform="translate(0,393.33)" style="font-family: 'Open Sans', verdana, arial, sans-serif; font-size: 12px; fill: rgb(42, 63, 95); fill-opacity: 1; white-space: pre;">0.5</text></g><g class="ytick"><text text-anchor="end" x="79" y="4.199999999999999" transform="translate(0,340)" style="font-family: 'Open Sans', verdana, arial, sans-serif; font-size: 12px; fill: rgb(42, 63, 95); fill-opacity: 1; white-space: pre;">0.55</text></g><g class="ytick"><text text-anchor="end" x="79" y="4.199999999999999" transform="translate(0,286.66999999999996)" style="font-family: 'Open Sans', verdana, arial, sans-serif; font-size: 12px; fill: rgb(42, 63, 95); fill-opacity: 1; white-space: pre;">0.6</text></g><g class="ytick"><text text-anchor="end" x="79" y="4.199999999999999" transform="translate(0,233.33)" style="font-family: 'Open Sans', verdana, arial, sans-serif; font-size: 12px; fill: rgb(42, 63, 95); fill-opacity: 1; white-space: pre;">0.65</text></g><g class="ytick"><text text-anchor="end" x="79" y="4.199999999999999" transform="translate(0,180)" style="font-family: 'Open Sans', verdana, arial, sans-serif; font-size: 12px; fill: rgb(42, 63, 95); fill-opacity: 1; white-space: pre;">0.7</text></g><g class="ytick"><text text-anchor="end" x="79" y="4.199999999999999" transform="translate(0,126.67)" style="font-family: 'Open Sans', verdana, arial, sans-serif; font-size: 12px; fill: rgb(42, 63, 95); fill-opacity: 1; white-space: pre;">0.75</text></g></g><g class="overaxes-above"/></g></g><g class="polarlayer"/><g class="ternarylayer"/><g class="geolayer"/><g class="funnelarealayer"/><g class="pielayer"/><g class="treemaplayer"/><g class="sunburstlayer"/><g class="glimages"/><defs id="topdefs-a8daba"><g class="clips"/><clipPath id="legenda8daba"><rect width="82" height="83" x="0" y="0"/></clipPath></defs><g class="layer-above"><g class="imagelayer"/><g class="shapelayer"/></g><g class="infolayer"><g class="legend" pointer-events="all" transform="translate(606.32, 100)"><rect class="bg" shape-rendering="crispEdges" width="82" height="83" x="0" y="0" style="stroke: rgb(68, 68, 68); stroke-opacity: 1; fill: rgb(255, 255, 255); fill-opacity: 1; stroke-width: 0px;"/><g class="scrollbox" transform="translate(0, 0)" clip-path="url('#legenda8daba')"><text class="legendtitletext" text-anchor="start" x="2" y="15.600000000000001" style="font-family: 'Open Sans', verdana, arial, sans-serif; font-size: 12px; fill: rgb(42, 63, 95); fill-opacity: 1; white-space: pre;">Oceania</text><g class="groups"><g class="traces" transform="translate(0, 30.1)" style="opacity: 1;"><text class="legendtext" text-anchor="start" x="40" y="4.680000000000001" style="font-family: 'Open Sans', verdana, arial, sans-serif; font-size: 12px; fill: rgb(42, 63, 95); fill-opacity: 1; white-space: pre;">Global</text><g class="layers" style="opacity: 1;"><g class="legendfill"/><g class="legendlines"><path class="js-line" d="M5,0h30" style="fill: none; stroke: rgb(99, 110, 250); stroke-opacity: 1; stroke-width: 2px;"/></g><g class="legendsymbols"><g class="legendpoints"/></g></g><rect class="legendtoggle" x="0" y="-9.5" width="76.09375" height="19" style="fill: rgb(0, 0, 0); fill-opacity: 0;"/></g><g class="traces" transform="translate(0, 49.1)" style="opacity: 1;"><text class="legendtext" text-anchor="start" x="40" y="4.680000000000001" style="font-family: 'Open Sans', verdana, arial, sans-serif; font-size: 12px; fill: rgb(42, 63, 95); fill-opacity: 1; white-space: pre;">au</text><g class="layers" style="opacity: 1;"><g class="legendfill"/><g class="legendlines"><path class="js-line" d="M5,0h30" style="fill: none; stroke: rgb(239, 85, 59); stroke-opacity: 1; stroke-width: 2px;"/></g><g class="legendsymbols"><g class="legendpoints"/></g></g><rect class="legendtoggle" x="0" y="-9.5" width="76.09375" height="19" style="fill: rgb(0, 0, 0); fill-opacity: 0;"/></g><g class="traces" transform="translate(0, 68.1)" style="opacity: 1;"><text class="legendtext" text-anchor="start" x="40" y="4.680000000000001" style="font-family: 'Open Sans', verdana, arial, sans-serif; font-size: 12px; fill: rgb(42, 63, 95); fill-opacity: 1; white-space: pre;">nz</text><g class="layers" style="opacity: 1;"><g class="legendfill"/><g class="legendlines"><path class="js-line" d="M5,0h30" style="fill: none; stroke: rgb(0, 204, 150); stroke-opacity: 1; stroke-width: 2px;"/></g><g class="legendsymbols"><g class="legendpoints"/></g></g><rect class="legendtoggle" x="0" y="-9.5" width="76.09375" height="19" style="fill: rgb(0, 0, 0); fill-opacity: 0;"/></g></g></g><rect class="scrollbar" rx="20" ry="3" width="0" height="0" x="0" y="0" style="fill: rgb(128, 139, 164); fill-opacity: 1;"/></g><g class="g-gtitle"/><g class="g-xtitle"><text class="xtitle" x="338" y="461.8" text-anchor="middle" style="font-family: 'Open Sans', verdana, arial, sans-serif; font-size: 14px; fill: rgb(42, 63, 95); opacity: 1; font-weight: normal; white-space: pre;">Date</text></g><g class="g-ytitle"><text class="ytitle" transform="rotate(-90,30.418750000000003,260)" x="30.418750000000003" y="260" text-anchor="middle" style="font-family: 'Open Sans', verdana, arial, sans-serif; font-size: 14px; fill: rgb(42, 63, 95); opacity: 1; font-weight: normal; white-space: pre;">mode</text></g></g></svg>