<svg class="main-svg" xmlns="http://www.w3.org/2000/svg" xmlns:xlink="http://www.w3.org/1999/xlink" width="700" height="500" style="" viewBox="0 0 700 500"><rect x="0" y="0" width="700" height="500" style="fill: rgb(255, 255, 255); fill-opacity: 1;"/><defs id="defs-f00983"><g class="clips"><clipPath id="clipf00983xyplot" class="plotclip"><rect width="516" height="320"/></clipPath><clipPath class="axesclip" id="clipf00983x"><rect x="80" y="0" width="516" height="500"/></clipPath><clipPath class="axesclip" id="clipf00983y"><rect x="0" y="100" width="700" height="320"/></clipPath><clipPath class="axesclip" id="clipf00983xy"><rect x="80" y="100" width="516" height="320"/></clipPath></g><g class="gradients"/></defs><g class="bglayer"><rect class="bg" x="80" y="100" width="516" height="320" style="fill: rgb(229, 236, 246); fill-opacity: 1; stroke-width: 0;"/></g><g class="layer-below"><g class="imagelayer"/><g class="shapelayer"/></g><g class="cartesianlayer"><g class="subplot xy"><g class="layer-subplot"><g class="shapelayer"/><g class="imagelayer"/></g><g class="gridlayer"><g class="x"><path class="xgrid crisp" transform="translate(212.26,0)" d="M0,100v320" style="stroke: rgb(255, 255, 255); stroke-opacity: 1; stroke-width: 1px;"/><path class="xgrid crisp" transform="translate(344.52,0)" d="M0,100v320" style="stroke: rgb(255, 255, 255); stroke-opacity: 1; stroke-width: 1px;"/><path class="xgrid crisp" transform="translate(476.78,0)" d="M0,100v320" style="stroke: rgb(255, 255, 255); stroke-opacity: 1; stroke-width: 1px;"/></g><g class="y"><path class="ygrid crisp" transform="translate(0,351.48)" d="M80,0h516" style="stroke: rgb(255, 255, 255); stroke-opacity: 1; stroke-width: 1px;"/><path class="ygrid crisp" transform="translate(0,281.39)" d="M80,0h516" style="stroke: rgb(255, 255, 255); stroke-opacity: 1; stroke-width: 1px;"/><path class="ygrid crisp" transform="translate(0,211.29000000000002)" d="M80,0h516" style="stroke: rgb(255, 255, 255); stroke-opacity: 1; stroke-width: 1px;"/><path class="ygrid crisp" transform="translate(0,141.2)" d="M80,0h516" style="stroke: rgb(255, 255, 255); stroke-opacity: 1; stroke-width: 1px;"/></g></g><g class="zerolinelayer"/><path class="xlines-below"/><path class="ylines-below"/><g class="overlines-below"/><g class="xaxislayer-below"/><g class="yaxislayer-below"/><g class="overaxes-below"/><g class="plot" transform="translate(80, 100)" clip-path="url('#clipf00983xyplot')"><g class="scatterlayer mlayer"><g class="trace scatter trace868ed4" style="stroke-miterlimit: 2; opacity: 1;"><g class="fills"/><g class="errorbars"/><g class="lines"><path class="js-line" d="M0,105.68L0.36,110.08L0.72,106.94L1.09,108.14L1.81,103.9L2.17,109.83L2.54,115.31L2.9,111.7L3.26,109.73L3.62,104.97L3.99,108.35L4.35,121.1L4.71,116.72L5.07,119.34L5.44,117.98L5.8,121.97L6.16,116.45L6.52,118.82L6.88,109.88L7.25,109.82L7.61,124.01L8.33,126.43L8.7,120.2L9.06,124.32L9.42,111.83L10.15,113.03L10.51,123.94L11.6,116.68L11.96,98.98L12.32,96.06L12.68,111.82L13.04,124.56L13.41,107.99L14.13,118.47L14.49,112.1L14.86,105.18L15.22,105.43L15.58,118.47L15.94,120.47L16.31,117.27L16.67,119.5L17.03,62.76L18.48,108.51L18.84,98.56L19.57,72.54L19.93,75.48L20.29,88.05L21.38,92.45L21.74,89.23L22.83,116.23L23.19,111.1L23.92,100.78L24.28,106.25L24.64,100.86L25,106.86L25.73,120.19L26.09,119.71L26.45,116.67L26.81,117.11L27.18,112.74L27.54,113.88L27.9,86.13L28.99,74.97L29.35,79.71L29.71,65.57L30.08,78.06L30.44,83.98L30.8,81.61L31.16,84.24L31.89,85.9L32.25,84.41L32.61,83.99L32.97,86.44L35.15,125.91L35.51,119.06L36.24,129.75L36.6,127.85L36.96,123.06L37.69,67.31L38.05,95.3L38.41,103.67L38.77,92.52L39.5,108.54L39.86,106.65L40.22,102.6L40.95,95.86L41.31,96.41L41.67,97.01L42.76,104.65L43.12,106.31L44.57,116.93L44.93,92.21L45.66,113.63L46.02,105.51L47.47,143.33L47.83,139.07L48.19,137.94L48.56,146.85L48.92,133.52L49.28,132.59L49.64,148.12L50.01,140.2L50.37,153.05L50.73,146.34L51.09,148.08L51.46,146.88L52.54,127.16L52.9,138.58L53.63,143.01L54.72,135.16L55.44,144.4L55.8,136.01L56.17,146.33L56.53,142.34L56.89,139.62L57.25,152.42L57.62,149.21L57.98,145.94L59.06,151.65L59.43,150.88L59.79,148.59L60.15,158.03L60.51,145.43L61.6,162.79L61.96,153.08L62.33,153.89L62.69,150.79L63.78,160.1L64.14,163.38L65.59,140.24L65.95,149.31L66.67,157.97L67.04,151.89L67.4,151.46L67.76,138.46L68.85,141.78L69.21,143.12L69.57,143.06L69.94,144.58L70.3,149.26L70.66,131.94L71.38,138.26L71.75,123.5L72.47,135.7L72.83,168.43L73.56,152.45L73.92,160.19L74.65,138.42L75.01,146.69L75.37,146.53L75.73,144.28L76.1,132.8L77.18,147.06L77.54,148.85L77.91,146.91L78.27,149.34L78.63,133.88L78.99,151.1L79.72,149.14L80.08,151.37L80.44,173.95L80.81,161.92L81.17,157.62L81.53,168.12L82.26,167.84L82.62,168.46L82.98,169.44L83.34,162.19L83.71,157.87L84.07,167.1L84.79,162.44L85.15,163.46L85.52,122.16L85.88,114.85L86.24,138.35L86.6,138.78L86.97,143.31L87.33,142.7L87.69,143.61L88.78,126.81L89.14,131.6L89.5,138.48L89.87,132.05L90.23,137.71L90.59,137.51L90.95,149.46L91.31,141.01L91.68,148.87L92.04,142.96L92.4,141.41L92.76,147.44L93.13,153.63L93.49,146.14L94.58,154.69L94.94,153.94L95.3,156.89L95.66,154.59L96.03,154.57L96.39,146.06L96.75,163.5L98.2,149.91L98.56,158.74L98.92,154.46L99.29,156.43L99.65,179.86L100.37,152.34L100.74,163.45L101.1,156.83L101.46,161.83L101.82,161.69L102.19,160.09L102.55,166.26L103.27,154.45L103.63,155.12L104,156.05L104.36,153.39L104.72,155.56L105.08,155.59L105.45,153.37L105.81,153.86L106.17,162.02L106.53,156.97L106.9,161.72L107.26,162.49L107.62,163.16L107.98,159.89L108.35,170.33L108.71,159.35L109.07,157.35L109.43,166.77L109.79,143.74L110.52,134.85L110.88,153.95L111.97,166.61L112.33,161.76L112.69,159.44L113.06,163.74L113.42,162.58L113.78,150.26L114.51,163.47L114.87,161.87L115.23,168.44L115.59,174.41L115.96,171.11L116.32,169.51L116.68,173.34L117.04,172.96L117.4,170.98L117.77,171L118.13,172.61L118.49,172.8L118.85,166.06L119.22,171.94L119.58,164.72L120.3,168.91L120.67,181.29L121.03,182.25L121.39,199.32L121.75,216.57L122.12,194.44L123.2,201.02L123.56,176.26L124.29,215.57L124.65,190.87L125.74,202.72L126.1,142.91L126.83,159.82L127.19,150.53L127.55,150.31L127.91,173.87L129,222.76L129.36,259.29L129.72,252.57L130.09,178.45L130.81,155.65L131.17,162.59L131.54,159L131.9,186.61L132.99,161.2L133.35,165.56L134.07,159.35L134.44,161.73L134.8,161.73L135.88,167.99L136.25,154.66L138.06,160.82L138.42,163.99L139.15,149.75L139.51,154.55L139.87,154.15L140.23,156.83L140.96,156.15L141.32,136.64L141.68,137.4L142.04,144.27L143.13,148.07L143.49,148.36L143.86,141.81L144.22,142.66L144.58,147.42L144.94,147.92L145.31,146.73L146.03,147.87L146.39,110.23L146.76,109.99L147.12,113.38L148.57,136.31L148.93,133.63L149.29,123L150.02,134.32L150.38,130.87L150.74,141.63L151.1,143.12L151.47,129.16L152.92,145.87L153.28,150.96L153.64,158.22L154,150.26L154.73,146.82L155.09,150.13L155.45,146.44L155.81,146.69L156.18,149.23L156.54,118.99L156.9,141.84L157.26,153.77L157.63,147.44L157.99,151.16L158.35,155.53L158.71,158.11L159.08,135.8L159.8,150.28L160.16,149.76L160.53,153.05L161.25,149.22L161.61,141.95L161.97,141.2L162.34,141.82L162.7,154.6L163.79,140.94L164.15,127.03L165.24,145.64L165.6,139.73L165.96,144.53L166.32,138.97L166.69,121.36L168.13,132.38L168.5,130.5L169.58,120.73L169.95,120.74L170.31,118.93L170.67,110.77L171.4,122.19L171.76,83.33L172.48,105.26L172.85,99.81L173.21,94.84L173.57,91.6L173.93,98.13L175.02,123.78L175.38,118.86L175.74,126.23L177.19,153.09L177.56,154.52L177.92,155.41L178.28,151.38L179.01,154.6L179.37,162.44L179.73,163.82L180.09,169.07L180.82,155.64L181.18,145.8L181.54,149.84L181.9,137.7L182.27,166.48L182.63,164.71L182.99,153.89L184.08,173.44L184.44,99.36L185.89,148.62L186.25,146.02L186.62,146.12L186.98,143.83L187.34,120.61L187.7,127.58L188.06,129.02L188.43,124.21L188.79,127.85L189.15,130.05L189.51,110.82L189.88,120.6L190.24,120.66L191.69,108.95L192.05,113.32L192.78,89.25L193.14,97.69L193.5,73.63L193.86,121.27L194.22,127.24L194.59,116.1L195.67,132.58L196.04,126.15L197.85,99.81L198.21,101.6L198.94,116.48L199.3,115.11L199.66,90.78L200.38,104.84L200.75,97.78L201.11,99.9L201.47,110.62L201.83,111.57L202.2,115.89L203.28,134.82L203.65,130.7L204.01,131.18L204.37,114.79L204.73,131.3L205.1,151.96L205.82,135.26L206.18,136.85L206.54,141.69L207.99,130.09L208.36,132.69L208.72,137.42L210.17,151.71L210.53,154.22L210.89,151.51L211.26,155.26L212.34,139.18L212.71,140.87L213.07,135.38L213.43,149.59L214.15,138.8L214.52,152.72L214.88,153.33L215.24,162.05L216.33,151.12L216.69,152.16L217.05,152.29L217.42,150.37L218.5,160.33L218.87,152.16L219.23,150.54L219.59,145.04L219.95,87.46L220.31,95.28L220.68,94.44L221.04,94.57L221.4,90.1L221.76,90.63L222.13,93.46L222.49,97.68L222.85,86.87L224.3,115.3L224.66,111.86L225.03,98.18L225.39,98.89L225.75,120.09L226.11,98.14L226.47,112.57L226.84,111.54L227.2,112.57L227.56,116.67L227.92,123.35L228.29,118.33L228.65,115.2L229.37,128.23L229.74,127.92L230.1,40.76L231.91,104.04L232.27,111.06L232.63,72.82L233,113.88L233.36,117.04L233.72,110.73L234.08,109.14L234.45,117.5L234.81,119.46L235.17,71.47L235.53,108.36L235.9,106.92L236.26,105.49L236.62,102.42L236.98,103.29L237.35,105.49L237.71,65.48L238.07,104.66L238.43,115.6L238.79,104.24L239.16,109.1L239.52,116.77L240.61,128.4L240.97,126.05L241.33,126.78L241.69,122.9L242.42,129.3L242.78,94.36L243.51,120L243.87,116.2L244.23,113.62L244.96,125.89L245.32,99.34L246.4,133.56L246.77,131.72L247.13,134.34L247.49,132.96L247.85,128.41L248.22,123.81L248.58,136.2L248.94,135.64L249.3,131.27L249.67,129.5L250.03,134.99L251.12,151.75L251.48,148.39L252.2,133.77L252.56,136.89L252.93,68.82L253.65,140.94L254.01,127.32L254.38,138.25L255.1,154.54L255.46,138.08L256.19,170.57L256.55,146.38L256.91,149.78L257.28,149.11L257.64,163.96L258,155.67L258.36,169.47L258.72,191.14L259.09,156.11L259.81,173.8L260.17,172.75L260.54,155.76L261.62,247.98L261.99,246.39L262.35,150.55L263.07,117.29L263.44,120.08L263.8,123.76L264.16,160.37L264.52,141.24L264.88,124.63L265.61,131.9L265.97,128.93L267.42,145.74L267.78,143.85L268.15,136.87L268.51,141.17L268.87,149.13L269.23,150.52L269.6,143.85L270.68,125.56L271.04,132.23L271.77,151.61L272.13,142.98L272.49,137.06L273.58,130.59L273.94,137.26L274.67,147.38L275.03,145.12L275.39,146.09L275.76,129.61L276.12,140.71L276.48,152.34L277.21,135.28L277.57,139.43L277.93,137L278.65,129.16L279.02,144.61L279.38,139.16L279.74,140.32L280.1,147.01L280.47,161.34L280.83,141.09L281.19,132.75L281.55,134.05L281.92,146.82L283.37,110.38L283.73,116.37L284.81,135.23L285.18,135.67L285.54,134.93L285.9,132.01L286.63,115.99L286.99,127.93L287.35,122.98L287.71,126.86L288.08,128.5L288.44,138.01L288.8,123.76L289.16,126.44L289.53,138.62L289.89,134.56L290.25,142.24L290.61,141.41L290.97,115.19L291.34,112.28L291.7,114.99L292.06,127.25L292.42,119.97L292.79,124.64L293.15,127.63L293.51,101.43L293.87,108.84L294.24,118.34L294.6,116.72L294.96,131.29L295.32,136.67L295.69,133.79L296.05,110.2L296.77,118.1L297.13,92.77L298.58,119.51L298.95,107.37L300.03,113.96L300.4,114.13L300.76,119.02L301.12,95.3L301.85,110.51L302.21,110.12L302.57,108.51L303.66,100.07L304.02,113.74L304.38,115.64L304.74,113.18L305.83,92.39L306.19,63.46L307.28,94.65L307.64,102.55L308.01,102.62L308.37,110.16L309.46,91.82L309.82,99.18L310.9,107.77L311.27,105.72L311.63,101.95L311.99,118.46L312.72,116.83L313.08,120.78L313.44,122.25L313.8,84.74L314.17,78.43L314.53,94.12L314.89,96.37L315.25,104.03L315.62,103.35L315.98,100.86L316.34,88.92L316.7,105.01L317.06,110.43L317.43,109.49L317.79,109.9L318.51,99.3L318.88,106.1L319.96,94.56L320.33,92.33L321.41,81.42L321.78,101.96L322.5,115.81L322.86,110.12L323.22,108.44L323.59,102.04L323.95,99.03L324.31,105.29L324.67,98.41L325.04,101.83L325.4,100.09L326.12,112.62L326.49,101.97L326.85,112.87L327.21,107.21L327.57,100.42L328.66,119.64L329.02,102.27L329.75,107.8L330.11,92.08L330.47,94.1L330.83,91.71L331.2,105.9L331.56,34.69L332.28,91.51L332.65,80.81L333.01,79.76L333.73,93.71L334.1,81.2L334.82,94.3L335.18,85.51L335.54,84.63L335.91,91.5L336.27,103.42L336.63,82.63L337.72,93.55L338.08,98.08L338.44,97.83L338.81,92.68L339.17,59.2L339.53,67.47L339.89,71.19L340.26,67.05L340.62,78.37L341.34,87.94L341.71,47.41L342.79,84.45L343.15,81.21L343.52,90.14L343.88,88.69L344.24,85.64L344.6,85.41L344.97,80.24L345.33,84.64L345.69,79.28L346.05,85.83L346.42,82.48L346.78,78.88L347.14,78.68L347.5,75.57L348.23,79.44L348.59,73.75L348.95,77.47L349.31,68.68L350.4,85.66L350.76,75.91L351.85,89.54L352.21,88.9L352.58,87.35L352.94,90.84L353.3,90.49L353.66,87.93L355.11,70.73L355.47,73.12L356.56,65.68L356.92,71.64L357.29,62.14L357.65,73.59L359.1,79.76L359.46,70.88L359.82,75.17L360.19,69.21L360.55,71.2L360.91,66.35L361.27,69.2L361.63,65.13L362,16L362.36,24.92L362.72,48.73L363.81,41.82L364.17,45.38L364.53,43.76L364.9,60.73L365.26,59.48L365.62,47.69L366.35,53.33L366.71,61.1L367.79,73.08L368.16,70.37L368.52,70.83L368.88,74.29L369.24,73.19L369.61,72.16L370.33,79.33L370.69,75.4L371.06,75.18L371.42,79.67L371.78,85.94L372.14,80.9L372.51,73.35L373.23,77.59L373.59,70.03L373.96,68.66L374.32,76.05L375.04,62.3L375.4,79.47L375.77,78.52L376.13,70.69L376.85,77.04L377.22,65.44L378.67,80.31L379.03,79.87L379.39,79.5L379.75,83.25L380.12,61.48L380.48,86.71L380.84,88.59L381.2,82.84L381.93,87.96L382.29,109.17L382.65,100.18L383.01,118.27L383.38,117.9L383.74,119.49L384.1,121.47L384.46,113.18L384.83,115.57L385.19,139.03L385.55,172.78L385.91,135.75L386.64,133.74L387,122.44L387.72,146.12L388.09,142.6L388.45,129.57L390.62,187.29L390.99,183.03L391.35,184.61L391.71,184.78L392.07,181.37L392.44,180.14L392.8,198.94L393.16,200.81L393.52,206.99L393.88,276.17L394.25,274.86L394.61,162.94L395.7,124.78L396.06,128.65L396.42,145.82L396.78,136.86L397.15,126.13L397.51,123.77L397.87,127.8L398.23,128.99L398.6,124.61L400.04,112.79L400.41,114.23L401.13,116.88L401.49,115.93L401.86,119.54L402.22,116.24L402.58,90.65L402.94,86.57L403.31,96.54L403.67,87.78L404.39,88.36L404.76,88.58L405.12,81.59L405.48,94.18L405.84,100.01L406.21,95.04L406.57,94.34L407.29,99.43L407.65,70.25L408.74,108.88L409.1,111.76L409.47,117.31L409.83,117.05L410.19,104.7L410.92,124.84L411.28,116.81L412.37,115.25L412.73,141.84L414.18,159.71L414.54,137.9L414.9,141.27L415.26,113.68L416.35,134.37L416.71,129.27L417.08,126.14L417.44,137.54L417.8,80.6L418.16,109.41L418.53,120.61L418.89,123.91L419.25,117.12L419.97,126.63L420.34,91.75L421.06,101.69L421.42,101.38L421.79,100.66L422.51,120.26L422.87,73.57L424.32,130.6L424.69,136.54L425.05,132.77L425.41,134.22L425.77,139.02L426.13,143.58L426.5,132.49L427.58,139.93L427.95,137.2L428.31,152.55L428.67,136.84L429.03,139.08L429.76,145.95L430.12,143.83L430.48,147.69L430.85,145.93L431.21,143.54L431.57,146.62L431.93,146.32L432.29,142.85L432.66,147.19L433.02,144.57L433.38,144.68L433.74,146.18L434.11,138.49L434.83,149.11L435.19,148.34L435.56,100.37L436.64,137.38L437.01,134.35L437.37,139.59L437.73,148.68L438.09,130.29L438.46,143.45L438.82,136.44L439.18,131.56L439.54,143.48L439.9,140.15L440.27,136.48L440.99,108.87L441.35,110.65L441.72,108.73L442.44,128.48L442.8,122.85L443.17,99.4L443.53,121.43L443.89,116.97L444.25,113.33L444.62,110.13L444.98,116.44L445.34,120L445.7,80.47L446.79,115.39L447.15,117.08L447.51,117.35L447.88,131.45L448.24,101.18L448.6,118.51L448.96,115.44L449.33,116.28L449.69,115.86L450.05,123.86L450.41,120.34L450.78,96.5L451.86,134.35L452.22,90.51L452.95,112.7L453.31,95.68L454.4,116.15L454.76,110.5L455.12,118.72L455.49,117.87L455.85,98.21L456.21,92.42L456.57,105.8L456.94,102.6L457.3,90.42L458.75,108.11L459.11,103.39L459.47,104.91L459.83,99.51L460.2,96.17L460.56,102.12L460.92,87.5L461.28,106.59L462.01,94.61L462.37,101.13L462.73,104.47L463.1,100.01L464.18,48.69L464.54,51.89L465.27,65.35L465.63,62.07L465.99,58.97L466.36,64.81L466.72,61.64L467.08,62.71L467.44,64.01L467.81,76.27L468.17,74.74L468.53,69.33L469.62,77.97L469.98,73.89L470.34,76.96L470.71,93.15L471.07,73.94L471.43,87.78L471.79,88.11L472.52,91.5L472.88,97.38L473.24,99.08L473.6,109.57L473.97,109.1L474.33,91.21L475.05,98.58L475.42,102.33L475.78,102.76L476.14,95.74L476.5,108.73L476.87,101.05L477.23,98.16L477.59,99.36L477.95,97.11L478.31,93.59L478.68,107.13L479.04,105.78L479.4,109.16L480.13,102.68L480.49,108.28L481.58,93.2L481.94,111.06L482.3,111.94L482.66,107.51L483.03,107.36L483.39,103.82L483.75,103.05L484.11,107.64L484.47,107.01L484.84,100.88L485.56,109.96L485.92,109.38L486.29,108.62L486.65,107.04L487.01,112.38L487.74,118.2L488.1,110.66L489.19,89.86L489.55,110.68L490.27,101.4L490.63,101.95L491,102.91L491.36,73.31L491.72,91.45L492.08,102.5L492.45,102.99L492.81,112.11L493.53,119.25L493.9,115.3L494.26,112.5L494.62,117.99L494.98,124.39L495.35,118.9L495.71,116.79L496.07,116.79L496.43,31.28L497.88,121.52L498.24,118.89L498.97,127.22L499.33,117.45L499.69,119.5L500.06,127.91L500.78,126.98L501.14,128.2L501.87,116.76L502.23,120.15L502.59,131.41L502.96,125.7L503.32,135.91L503.68,128.99L504.04,140.3L504.77,132.36L505.13,142.73L505.49,139.86L505.85,144.54L506.22,138.57L506.58,106.67L507.67,125.38L508.03,125.15L508.75,116.6L509.12,121.56L509.48,113.61L509.84,130.04L510.2,132.42L510.56,128.63L510.93,129.5L511.29,126.69L511.65,92.54L512.01,117.65L512.38,115.87L513.1,139.12L513.46,136.13L513.83,137.21L514.19,124.09L514.55,126.11L514.91,132.4L515.28,131.94L515.64,134.92L516,137.33" style="vector-effect: non-scaling-stroke; fill: none; stroke: rgb(99, 110, 250); stroke-opacity: 1; stroke-width: 2px; opacity: 1;"/></g><g class="points"/><g class="text"/></g><g class="trace scatter traced2d31b" style="stroke-miterlimit: 2; opacity: 1;"><g class="fills"/><g class="errorbars"/><g class="lines"><path class="js-line" d="M0,161.18L0.36,145.17L0.72,145.88L1.09,146.91L1.45,143.27L1.81,164.42L2.17,153.85L2.54,162.93L2.9,158.34L3.26,158.04L3.62,154.62L3.99,145.35L4.35,159.89L4.71,155.27L5.07,162.32L6.16,154.17L6.52,156.53L6.88,158.17L7.25,154.77L7.97,158.57L8.33,153.57L8.7,156.74L9.06,167.18L9.42,141.78L9.78,146.31L10.15,148.1L11.23,159.5L11.6,159.02L11.96,149.88L12.32,142.22L12.68,145.19L13.04,152.74L13.41,153.16L13.77,151.55L14.13,154.39L14.49,149.63L14.86,146.13L15.22,152.93L15.58,142.3L15.94,157.34L16.31,147.21L16.67,147.27L17.03,153.97L17.39,153.73L17.76,165.79L18.84,137.71L19.21,137.95L19.57,136.91L20.29,144.01L20.65,141.47L21.02,154.93L21.38,146.67L21.74,167.28L22.47,162.65L22.83,174.78L23.19,178.95L23.55,169.68L23.92,169.48L24.28,166.54L25,157.08L25.37,158.8L25.73,166.05L26.09,164.69L26.45,158.46L27.18,138.42L27.54,141.38L27.9,109.75L28.63,97.83L28.99,102.57L29.71,92.33L30.08,93.3L30.44,100.95L31.16,89.81L31.53,90.99L31.89,85.45L32.25,100.92L32.97,112.01L33.34,111.11L33.7,109.78L34.79,119.77L35.15,131.13L35.51,147.83L35.87,142.91L36.24,142.66L36.6,143.61L36.96,142L38.05,102.76L38.41,124.82L38.77,134.81L39.13,132.95L39.5,130.69L39.86,121.44L40.22,128.33L40.58,136.62L40.95,129.89L41.31,140.06L42.4,121.78L42.76,126.63L43.12,140.57L43.48,137.54L43.85,132.62L44.21,141.75L44.57,134.96L44.93,127.19L45.66,152.94L46.02,146.46L46.38,150.84L46.74,148.38L47.11,150.57L47.47,150.45L48.56,173.65L48.92,161.88L49.28,164.14L49.64,155.91L50.01,156.72L50.37,169.42L50.73,174.86L51.09,167.19L51.82,160.34L52.18,161.17L52.54,137.53L53.27,158.83L53.63,154.23L54.72,145.22L56.17,163.94L56.53,158.31L57.98,142.07L58.34,146.6L58.7,159.11L59.06,152.17L59.43,147.06L60.15,142.32L60.51,152.51L60.88,165.82L61.24,158.37L61.6,156.85L61.96,153.04L62.33,154.69L62.69,141.52L63.41,157.84L63.78,150.86L64.14,151.35L64.5,152.79L64.86,142.1L65.22,127.77L65.59,137.2L65.95,144.33L66.31,135.2L66.67,136.25L67.04,135.96L67.4,141.81L67.76,132.29L68.85,148.88L69.21,141.99L69.94,158.17L70.3,141.46L71.02,159.75L71.38,149.4L71.75,146.58L72.11,146.96L72.47,138.35L72.83,148.76L73.2,144.75L73.56,145.11L73.92,145.81L74.28,139.5L74.65,144.33L75.01,139.28L75.37,135.45L76.1,146.8L76.46,139.99L77.18,143.57L77.54,140.71L77.91,137.42L78.27,148.58L78.63,142.87L78.99,146.81L79.36,144.89L79.72,147.95L80.08,158.8L80.44,141.86L80.81,149.34L81.17,149.62L82.26,159.85L82.62,158.67L82.98,149.61L83.34,163.33L84.79,176L85.15,169.68L85.52,135.23L85.88,144.56L86.24,141.26L86.6,141.78L86.97,145.42L87.33,160.45L87.69,151.25L88.05,141.96L88.42,153.7L88.78,145.99L89.14,147.68L89.5,146.97L89.87,147.43L90.23,157.9L91.31,154.24L91.68,163.31L92.04,152.39L92.4,163.07L92.76,157.34L93.13,151.3L93.49,173.19L94.21,162.97L94.58,165.83L95.3,148.7L95.66,149.45L96.03,170.27L97.47,180.86L97.84,164.88L98.2,160.21L98.56,163.15L98.92,180.81L99.29,187.97L99.65,185.2L100.01,174.2L100.37,154.2L100.74,166.04L101.1,164.78L101.46,172.5L101.82,169.3L102.19,167.2L102.55,166.95L102.91,157.57L104,176.94L104.36,176.17L104.72,177.53L105.45,173.08L105.81,161.29L106.53,181.24L106.9,175.69L107.26,179.87L108.35,171.09L108.71,172.99L109.07,203.5L109.43,186.57L109.79,175.9L110.16,172.36L110.52,179.88L111.61,206.13L111.97,200.31L112.33,183.4L112.69,182.98L113.06,175.33L113.42,165.69L113.78,179.54L114.14,192.44L114.51,186.47L114.87,181.36L115.96,173.2L116.32,175.58L117.04,188.56L117.4,183.08L118.13,191.65L118.49,179.63L119.22,203.03L119.58,197.77L119.94,194.28L121.75,216.15L122.12,191.04L122.48,190.29L122.84,182.19L123.56,184.53L123.93,203.02L124.29,206.9L124.65,201.68L125.01,200.69L125.38,201.63L125.74,203.77L126.1,160.5L126.46,168.41L126.83,174.66L127.19,164.12L127.55,181.21L129.36,282.21L129.72,286.9L130.81,190.33L131.17,193.96L131.54,191.71L131.9,206.02L132.62,197.95L132.99,198.58L133.35,192.87L133.71,191.86L134.07,205.55L135.16,195.86L135.52,201.84L135.88,200.12L136.25,187.55L137.33,209.4L137.7,213.57L138.42,208.63L138.78,209.58L139.15,209.71L139.51,209.74L139.87,201.3L140.23,200.13L140.6,202.73L140.96,208.63L141.32,235L141.68,193.95L142.04,198.59L142.41,197.59L142.77,194.45L143.13,199.81L143.49,190.12L143.86,190.64L144.22,196.05L144.58,191.01L144.94,195.31L145.31,191.45L146.39,170.28L146.76,182.67L147.48,163.79L147.84,172.22L148.21,178.03L148.57,167.3L148.93,167.98L149.29,179.63L150.02,163.06L150.38,164.39L150.74,164.77L151.83,182.56L152.19,182.12L152.55,162.74L152.92,175.43L153.28,168.34L153.64,168.79L154.37,188.3L154.73,184.79L155.09,179.25L155.45,178.46L155.81,180.08L157.63,210.13L157.99,199.84L158.35,197.84L158.71,205.51L159.08,178.04L159.44,196.35L159.8,195.47L160.89,184.35L161.25,176.03L161.97,180.61L162.34,176.56L163.42,171.06L163.79,182.21L164.51,169.92L164.87,183.04L165.96,157.12L166.32,163.19L166.69,164.54L167.05,158.36L167.77,142.14L168.13,153.36L168.5,147.78L168.86,151.8L169.22,157.58L169.95,168.06L170.31,165.15L170.67,162.58L171.4,156.06L171.76,99.03L172.48,124.22L172.85,108.26L173.57,101.14L173.93,108.56L174.66,161.76L175.02,150.46L175.38,137.62L176.47,132.39L176.83,146.21L177.19,163.27L177.56,145.78L177.92,147.73L178.64,136.32L179.01,140.94L179.73,161.89L180.09,151.43L180.82,128.92L181.18,133.72L181.54,146.4L182.27,175.17L182.63,170.5L182.99,155.21L183.35,173.64L183.72,173.06L184.08,167.89L184.44,112.96L184.8,122.8L185.17,130.03L186.98,163.41L187.34,131.24L187.7,131.31L188.06,125.6L189.51,138.04L189.88,134.4L190.6,125.16L190.96,131.02L191.33,133.39L191.69,117.31L192.05,128.17L192.41,116.79L192.78,115.39L193.14,106.61L193.5,77.91L193.86,113.05L194.59,112.4L194.95,128.84L196.04,127.55L196.4,133.68L196.76,132.5L197.12,98.64L197.85,102.26L198.21,95.94L198.57,98.36L198.94,110.1L199.3,111.84L199.66,109.05L200.02,115.98L200.38,112.58L200.75,108.86L201.11,105.19L201.47,108.84L201.83,112.53L202.2,112.57L202.56,108.57L202.92,111.76L203.28,100.37L203.65,103.06L204.01,119.72L205.1,139.67L205.46,124.56L205.82,128.08L206.18,117.35L207.63,137L207.99,129.49L209.08,113.56L209.44,132.52L210.53,163.35L210.89,152.14L211.98,159.79L212.34,155.67L212.71,141.04L213.43,141.28L213.79,142.82L215.6,178.48L215.97,164.7L216.69,173.41L217.05,168.76L217.42,159.3L217.78,167.15L218.14,183.07L218.5,166.71L218.87,176.15L219.23,169.27L219.59,176.97L219.95,110.76L220.68,130.67L221.04,114.28L221.4,114.42L221.76,108.34L222.13,127.77L222.49,119.88L222.85,119.22L223.21,116.72L223.58,120.61L223.94,112.01L224.3,125.14L225.03,122.6L225.39,148.27L226.11,122.06L226.47,140.04L226.84,142.51L227.2,140.95L227.56,130.16L228.29,163.02L228.65,152.23L229.01,152.27L229.37,165.22L229.74,172.25L230.1,131.6L230.82,154.5L231.19,149.87L231.55,146.72L231.91,141.3L232.27,154.32L232.63,151.64L233,161.48L233.36,161.53L233.72,155.37L234.08,160.31L234.45,157.64L234.81,159.93L235.17,149.13L235.53,153.7L235.9,156.95L236.98,140.14L237.35,148.48L238.43,176.18L238.79,160.72L239.16,152.93L239.52,160.79L239.88,159.39L240.97,178.06L241.33,162.55L242.06,164.69L242.42,157.41L243.51,176.33L243.87,157.63L244.23,165.81L244.59,158.25L244.96,164.79L245.68,181.5L246.04,172.72L247.13,154.22L247.49,159.04L248.22,179.56L248.58,161.43L248.94,158.02L249.3,161.99L250.03,149.9L250.39,159L250.75,174.16L251.12,172.76L251.48,155.33L251.84,155.77L252.2,149.68L252.56,148.48L252.93,163.88L253.65,201.33L254.01,176.42L254.74,173.64L255.1,193.64L255.46,172.57L255.83,189.53L256.19,186.67L256.55,173.6L256.91,173.61L257.28,182.88L257.64,180.43L258,193.99L258.36,206.37L258.72,199.11L259.09,203.3L259.45,203.59L259.81,208.26L261.99,304L262.35,188.34L262.71,174.1L263.07,177.37L263.44,188.81L264.16,198.7L264.52,186.68L265.25,173.55L265.61,178.63L265.97,182.13L266.33,180.3L266.7,172.24L267.42,173.2L267.78,176.09L268.51,204.57L268.87,191.02L269.23,168.73L269.96,159.97L270.32,164.29L271.04,188.1L271.41,174.67L272.49,184.44L272.86,179.55L273.22,182L273.58,237.46L274.67,189.26L275.03,173.09L275.76,163.48L276.12,171.52L276.48,167.8L276.84,153.81L277.21,153.35L277.57,159.09L277.93,150.02L278.29,159.4L278.65,163.46L279.02,169.88L279.38,150.47L279.74,151.44L280.1,157.7L280.47,168.32L280.83,164.22L281.19,162.38L281.55,166.34L281.92,154.48L282.28,160.53L282.64,153.1L283,151.34L283.37,142.04L284.09,167.63L284.45,141.13L285.54,147.94L285.9,148.33L286.26,174.32L286.63,170.01L286.99,139.92L287.35,142.57L287.71,140.64L288.08,139.42L289.16,180.28L289.53,158.64L289.89,153.94L290.25,159.86L291.34,174.75L291.7,160.77L292.42,152.09L292.79,157.4L293.15,121.57L293.51,153.3L293.87,168.31L294.24,167.32L294.6,155.22L294.96,151.81L295.32,165.15L296.05,139.46L296.41,150.6L296.77,166.77L297.13,145.01L297.5,139.84L297.86,145.32L298.22,146.85L298.58,158.08L299.31,150.32L299.67,152.39L300.03,152.19L301.12,141.81L301.48,151.79L301.85,131.24L302.21,143.61L302.57,141.99L302.93,139.66L303.29,156.05L304.38,174.14L304.74,159.78L305.47,149.49L305.83,155.26L306.19,114.97L306.56,132.49L306.92,139.08L307.28,134.85L307.64,146.7L308.01,155.31L308.37,142.13L309.46,150.02L309.82,144.91L310.18,145.3L310.54,146.82L310.9,146.87L311.27,135.99L311.99,159.05L312.35,140.84L313.44,153.73L313.8,129.58L314.17,129.12L314.53,145.61L315.62,140.75L315.98,139.48L316.34,128.88L316.7,138.89L317.06,144.57L317.79,139.23L318.15,152.27L318.51,157.33L318.88,138.35L319.6,162.46L319.96,146.28L320.33,146.95L320.69,145.02L321.41,143.69L321.78,147.92L322.14,164.13L322.5,154.15L322.86,144.38L323.22,133.76L323.59,148.69L324.67,166.89L325.04,159.12L325.4,155.41L325.76,155.78L326.12,169.22L326.49,181.3L326.85,178L327.21,175.71L327.57,169.89L327.94,174.14L328.3,172.84L329.38,186.8L329.75,184.74L330.11,171.93L330.83,175.66L331.2,173.91L331.56,162.85L331.92,163.62L332.28,168.57L332.65,163.07L333.01,169.5L333.73,178.44L334.1,172.49L334.46,174.9L334.82,170.93L335.54,175.34L335.91,173.87L336.99,168.93L337.36,172.17L338.44,175.64L338.81,173.54L339.53,146.76L339.89,152.78L340.26,139.18L340.62,140.87L340.98,143.71L341.34,141.24L341.71,117.15L342.07,155.63L342.43,150.94L342.79,138.75L343.15,138.51L343.52,143.79L344.24,157.31L344.6,147.84L344.97,149.41L345.33,144.25L345.69,145.42L346.05,140.8L346.42,137.26L346.78,137.39L347.14,140.95L348.23,135.91L348.59,131.53L348.95,141.13L349.31,121.6L349.68,142.73L350.04,131.8L350.4,120.07L351.13,134.71L351.49,131.56L351.85,149.78L352.21,142.85L352.58,146L352.94,141.87L353.3,143.46L353.66,142.3L355.11,146.91L355.47,144.99L355.84,144.58L356.2,148.25L356.56,150.75L356.92,146.83L357.29,152.4L357.65,145.75L358.01,147.34L358.37,143.9L358.74,146.28L359.1,143.44L359.46,147.08L359.82,140.36L360.91,129.01L361.27,139.63L361.63,145.98L362,145.47L362.36,144.91L362.72,143.16L363.08,135.04L364.17,144.58L364.53,143.23L364.9,163.93L365.26,159.46L365.62,138.9L365.98,139.9L366.35,137.12L366.71,135.84L367.07,146.33L367.43,152.31L367.79,146.56L368.16,131.32L369.61,154.13L369.97,152.74L370.33,151.93L370.69,139.23L371.06,140.75L371.42,153.56L372.51,143.11L372.87,143.54L373.23,141.74L373.59,134.23L374.32,137.06L374.68,135.92L375.04,149.09L375.4,148.45L375.77,136.28L376.85,146.86L377.22,156.42L377.58,162.12L377.94,158.6L378.3,143.49L379.39,130.56L379.75,136.45L380.12,155.04L380.48,150.96L380.84,132.68L381.93,140.87L382.29,159.01L382.65,169.28L383.01,162.94L383.38,146.99L383.74,140.28L384.1,140.9L384.46,153.84L385.55,196.13L385.91,155.6L386.28,157.1L386.64,163.55L387.36,177.87L387.72,194.95L388.09,194.66L388.45,156.16L389.17,169.97L389.54,169.25L389.9,177.22L390.62,209.62L390.99,186.92L392.8,235.59L393.16,246.39L393.52,251.02L393.88,298.29L394.25,296.08L394.61,191.05L395.7,175.75L396.06,181.07L396.42,221.51L396.78,181.77L397.15,182.24L397.51,174.53L397.87,178.61L398.23,177.63L399.68,183.75L400.04,173.06L400.41,173.07L400.77,175.08L401.13,168.31L401.49,172.46L401.86,174.93L402.22,175.71L402.58,135.27L402.94,143.47L403.31,139.6L403.67,131.15L404.03,130.98L404.39,136.74L404.76,137.81L405.12,144.96L405.84,205.93L406.21,162.05L406.57,145.56L406.93,156.02L407.29,160.65L407.65,139.11L408.02,165.45L409.1,156.58L409.47,156.98L409.83,164.25L410.55,178.3L410.92,177.76L411.28,156.04L412.73,206.49L413.09,199.37L413.45,198.82L413.81,192.56L414.18,191.45L414.54,182.9L414.9,177.52L415.26,194.29L415.63,197.43L415.99,190.07L416.35,171.11L416.71,178.32L417.08,172.21L418.16,191.87L418.53,186.84L418.89,177.72L420.34,186.37L420.7,141.36L421.79,164.56L422.15,168.02L422.51,168.36L422.87,165.71L423.6,187.51L423.96,183.96L424.32,172.05L424.69,172.39L425.05,168.78L425.77,197.57L426.13,185.22L426.5,177.58L426.86,186.16L427.58,186.94L427.95,185.62L428.31,202.46L428.67,193.29L429.03,178.49L429.4,182.66L430.12,182.51L430.48,185.31L430.85,206.7L431.21,195.54L431.57,177.34L433.02,208.44L433.38,198.34L433.74,200.7L434.11,183.93L434.83,171.48L435.19,173.11L435.56,142.86L436.28,186.82L436.64,166.42L437.01,165.46L437.37,168.51L437.73,159.89L438.09,177.06L438.46,187.81L438.82,182.88L439.18,164.98L439.9,160.93L440.27,165.96L440.63,147.15L440.99,169.57L441.72,152.36L442.08,156.38L442.44,153.28L442.8,158.18L443.17,145.51L443.53,187.37L443.89,179.12L444.25,147.94L444.62,159.68L445.34,158.79L445.7,166.62L446.06,185.01L446.43,176.07L446.79,156.51L447.15,160.68L447.51,153.14L447.88,153.97L448.24,152.61L448.6,179L448.96,172.21L449.33,141.94L449.69,134.29L450.05,147.5L450.41,146.64L450.78,164.31L451.14,192.95L451.5,169.01L451.86,143.91L452.59,113.34L452.95,138.18L453.67,149.4L454.04,145.03L455.85,121.46L456.21,139.04L456.94,121.92L457.3,130.59L458.75,161.63L459.11,149.7L459.47,143.28L459.83,150.37L460.2,141.29L460.56,142.05L460.92,148.72L461.28,164.91L461.65,152.52L462.01,136.23L462.73,132.03L463.1,132.39L463.46,112.77L463.82,125.24L464.18,123.47L464.54,120.01L464.91,119.17L465.27,130.36L465.63,130.22L465.99,122.44L466.72,149.81L467.08,134.95L467.44,142.04L467.81,137.14L468.17,139.07L468.89,154.94L469.26,149.03L470.34,140.93L470.71,155.04L471.07,158.33L471.43,183.3L471.79,184.5L472.15,162.68L473.97,187.17L474.33,183.01L474.69,183.56L475.05,184.32L475.42,184.07L475.78,181.34L476.14,172.66L476.5,190.3L477.59,184.37L477.95,186.19L478.31,180.31L478.68,185.01L479.04,183.87L479.4,185.62L479.76,176.59L480.85,165.15L481.21,145.36L481.58,176.42L481.94,170.02L482.3,162.31L482.66,162.84L483.03,167.06L483.39,170.88L483.75,167.86L484.11,198.84L485.2,167.88L485.56,168.13L485.92,166.67L487.01,191.22L487.37,162.6L489.19,191.63L489.55,186.25L490.63,170.29L491,172.98L491.36,174.69L491.72,181.97L492.45,170.98L492.81,162.42L493.17,161.86L493.53,173.28L493.9,156.5L494.26,174.89L494.62,171.83L494.98,154.27L496.07,174.36L496.43,142.56L497.16,178.69L497.52,159.12L498.61,173.23L498.97,179.28L499.33,193L499.69,183.24L500.06,175.13L500.42,176.84L500.78,175.15L501.14,174.69L501.87,182.67L502.23,179.53L502.59,168.99L502.96,169.37L503.32,170.61L504.04,181.31L504.4,191.1L504.77,190.08L505.13,175.22L505.49,175.37L505.85,177.08L506.22,177.99L506.58,171.15L506.94,191.82L507.3,184.29L507.67,171.41L508.03,175.33L508.39,167.43L509.48,183.96L509.84,178.17L510.56,163L510.93,163.72L511.29,173.79L511.65,156.73L512.01,192.69L512.74,167.93L513.1,170.65L513.46,174.11L514.91,200.85L515.28,179.75L515.64,176.38L516,178.29" style="vector-effect: non-scaling-stroke; fill: none; stroke: rgb(239, 85, 59); stroke-opacity: 1; stroke-width: 2px; opacity: 1;"/></g><g class="points"/><g class="text"/></g><g class="trace scatter trace300c50" style="stroke-miterlimit: 2; opacity: 1;"><g class="fills"/><g class="errorbars"/><g class="lines"><path class="js-line" d="M0,153.57L0.36,147.79L0.72,148.56L1.09,152.19L1.81,154.34L2.17,154.08L2.54,162.35L3.62,141.22L3.99,150.91L5.07,156.83L5.44,153.49L5.8,148.87L6.16,149.71L6.52,152.88L7.25,146L7.61,152.26L7.97,141.41L8.33,144.39L8.7,148.79L9.06,143.15L9.42,150.7L10.15,156.64L10.51,149.58L10.87,149.67L11.23,150.54L11.96,145.64L12.32,140.99L12.68,149.95L13.04,148.56L13.41,133.1L13.77,141.22L14.13,133.93L14.49,130.27L14.86,143.58L15.22,134.41L15.58,127.99L15.94,141.3L16.31,130.86L16.67,135.09L17.03,126.44L17.39,144L17.76,146.19L18.12,129.29L18.84,118.76L19.21,125.51L19.93,131.76L20.29,127.22L21.02,116.72L21.38,122.43L22.83,156.9L23.19,144.31L23.55,142.47L23.92,145.94L24.28,149.35L24.64,146.25L25,143.84L25.37,149.29L25.73,139.56L26.09,143.89L26.45,136.56L27.18,127.98L27.54,138.82L28.26,92.36L28.63,94.83L28.99,94.05L29.35,99.21L29.71,89.26L30.44,125.46L30.8,101.83L31.16,105.6L31.53,98.93L32.97,125.67L33.34,117.54L33.7,106.27L34.42,106.44L34.79,113.29L35.15,117.27L35.51,132.67L36.24,116.19L36.6,125.3L37.69,73.93L38.05,90.25L38.41,95.22L38.77,91.78L39.13,93.66L39.5,103.56L39.86,95.89L40.22,93.07L40.58,114.75L40.95,103L41.31,106.83L42.4,93.28L42.76,98.76L43.12,110.01L43.48,96.62L43.85,102.21L44.21,89.92L45.66,114.39L46.02,106.15L46.74,109.83L47.11,120.83L47.83,128.51L48.19,133.87L48.56,127.49L48.92,136.47L49.64,136.53L50.01,150.45L52.9,107.54L53.27,128.29L53.63,115.97L54.72,117.91L55.44,112.22L55.8,120.9L56.17,121.67L56.53,111.76L56.89,107.36L57.25,114.49L57.62,107.42L57.98,108.83L58.34,114.39L58.7,114.32L59.06,106.36L59.43,112.96L59.79,107.31L60.15,112.38L60.51,110.49L60.88,121.13L61.24,108.48L61.96,109.4L62.33,111.18L63.05,116.88L63.41,116.2L63.78,116.97L64.5,116.13L64.86,112.5L65.59,99.7L65.95,120.55L66.31,101.2L66.67,115.01L67.04,103.72L67.4,105.68L67.76,98.32L68.49,124.8L68.85,116.1L69.21,111.83L69.94,125.9L70.3,117.92L71.02,130.54L71.38,118.75L71.75,119.73L72.11,116.95L72.47,118.02L72.83,132.09L73.2,121.95L73.56,134.96L74.28,107.11L74.65,110.06L75.01,101.67L76.1,116.08L76.46,111.13L77.18,112.71L77.54,107.51L77.91,107.55L78.27,134.06L79.36,115.08L79.72,113.74L80.08,117.73L80.44,113.5L80.81,141.18L81.17,136.75L81.53,120.88L81.89,118.3L82.26,125.61L82.98,124.82L83.34,145.59L83.71,152.61L84.07,126.26L84.43,125.05L84.79,126.25L85.15,121.78L85.52,109.73L85.88,144.95L86.6,112.44L86.97,120.51L87.33,127.26L87.69,125.99L88.05,119.77L88.78,142.01L89.14,124.83L89.87,119.67L90.23,129.98L91.31,142.4L91.68,130.76L92.04,131.4L92.4,124.39L93.49,151.89L93.85,144.35L94.21,142.36L94.58,148.15L95.3,133.7L95.66,140.41L96.03,164.45L96.39,156.19L96.75,139.16L97.11,142.47L97.47,134.67L97.84,134.91L98.2,153.14L98.56,164.76L98.92,162.55L99.29,159.07L100.01,157.86L100.37,153.02L101.1,167.95L101.46,160.05L101.82,142.23L102.19,145.47L102.55,143.52L103.27,161.88L103.63,175.64L104,170.41L104.36,143.65L105.08,164.99L105.45,149.72L106.53,190.13L106.9,179.43L107.98,151.19L108.35,170.86L109.07,187.56L109.43,158.21L110.88,181.09L111.24,182.24L111.61,198.35L111.97,188.4L112.33,189.88L112.69,189.96L113.06,184.83L113.42,184.78L113.78,194.41L114.14,205.72L114.51,192.85L114.87,197.83L115.23,189.27L115.96,184.73L116.32,195.44L116.68,203.81L117.04,190.63L117.4,192.7L118.13,192.11L118.49,194.83L118.85,187.93L119.22,195.51L119.58,177.81L119.94,173.65L120.3,177.47L120.67,162.02L121.75,210.58L122.12,190.28L122.48,194.75L122.84,186.12L123.2,180.31L123.56,194.16L124.29,207.87L124.65,188.45L125.38,202.12L125.74,194.84L126.1,164.62L126.46,173.85L126.83,171.29L127.55,161.05L127.91,185.24L129.36,278.64L129.72,281.19L130.45,191.81L130.81,192.31L131.17,200.6L131.54,204.47L132.26,198.19L132.62,207.5L132.99,197.91L133.35,190.95L133.71,189.1L134.07,192.37L134.44,196.08L134.8,185.4L136.97,209.2L137.33,194.01L137.7,193.5L138.06,188.23L138.42,192.43L138.78,209.69L139.15,202.17L139.51,205.25L139.87,180.72L141.32,202.14L141.68,207.39L142.04,208.59L142.41,199.85L143.13,184.87L143.49,190.44L143.86,189.41L144.58,211.63L144.94,185.54L145.31,204.45L145.67,179.25L146.76,171.29L147.12,176.16L148.57,153.11L148.93,163.54L149.65,190.2L150.02,160.28L150.38,159.74L150.74,157.21L151.83,193.86L152.19,181.93L152.55,162.53L152.92,176L153.28,175.01L154.37,204.82L154.73,194.91L155.09,192.67L155.45,192.93L155.81,194.76L156.54,182.06L156.9,196.58L157.26,199.26L157.63,194.47L157.99,191.94L158.35,200.19L159.08,184.14L159.44,198.6L159.8,199.82L160.16,195.38L160.89,196.87L161.25,196.73L161.61,195.58L162.34,198.31L162.7,195.95L163.06,193.8L163.42,184.06L163.79,184.19L164.15,193.78L164.51,183.81L164.87,196.02L165.96,161.46L166.32,161.16L167.41,166.26L167.77,132.96L168.13,145.88L168.5,138L168.86,139.17L169.95,174.66L170.31,158.33L171.4,148.32L171.76,101.18L172.48,116.43L172.85,99.31L173.57,123.21L173.93,110.2L174.66,145.98L175.02,122.64L175.74,106.43L176.11,124.5L177.56,147.02L177.92,123.05L178.28,131.11L178.64,130.43L179.01,126.75L179.73,153.69L180.09,140.61L180.82,110.39L181.18,116.94L181.54,127.96L182.63,143.1L182.99,130.35L183.35,141.69L183.72,134.76L184.08,136.02L184.44,96.6L184.8,104.43L185.17,102.15L185.53,85.19L185.89,119.84L186.62,129.03L186.98,151.1L188.06,123.92L188.43,117.06L188.79,115.78L189.15,117.98L189.51,120.52L189.88,110.73L190.24,117.72L190.6,108.57L190.96,112.16L191.33,108.32L191.69,118.64L192.05,118.25L192.41,105.69L192.78,103.78L193.14,90.6L193.5,39.94L193.86,59.38L194.22,86.04L194.95,113.45L195.31,107.75L195.67,91.11L196.04,107.7L196.4,103.66L196.76,101.51L197.12,79.22L197.49,101.93L197.85,96.53L198.94,83.82L199.3,82.58L200.38,111.38L200.75,99.41L202.2,113.68L202.56,128.68L202.92,128.41L203.28,114.55L203.65,112.13L204.01,118.57L204.37,109.33L204.73,123.13L205.1,132.75L205.46,130.76L205.82,114.88L206.18,124.08L206.54,120.03L206.91,118.09L207.99,142.69L208.36,126.28L208.72,125.88L209.08,118.41L209.44,120.81L209.81,140.99L210.53,159.4L210.89,132.28L211.26,139.52L211.62,136.91L211.98,127.55L213.07,157.54L213.43,124.72L214.52,133.64L214.88,165.08L215.6,177.41L215.97,152.32L217.05,161.52L217.42,158.99L218.14,182.48L218.5,161.31L218.87,161.5L219.23,162.73L219.59,163.5L219.95,108.05L220.31,121.5L220.68,118.97L221.04,109.21L221.4,110.24L221.76,102.85L222.13,111.45L222.49,80.68L222.85,94.97L223.21,89.99L223.58,87.5L223.94,86.55L224.3,102.31L224.66,97.61L225.03,105.33L225.75,118.46L226.11,102.56L226.47,111.04L226.84,89.02L227.92,139.7L228.29,134.14L229.01,118.82L229.37,120.93L229.74,138.54L230.1,109.86L231.19,128.37L231.55,125.77L231.91,126.1L232.27,134.61L232.63,136.77L233,150.87L233.36,151.61L233.72,149.03L234.45,142.1L234.81,152.75L235.17,133.98L235.53,146.71L235.9,152.04L236.26,131.99L236.98,133.06L237.35,132.7L238.43,172.5L238.79,167.65L239.16,144.67L239.52,141.89L239.88,148.46L240.97,160.91L241.33,146.22L241.69,143.18L242.06,152.24L242.42,150.9L242.78,154.5L243.14,152.72L243.51,165.04L244.59,154.25L244.96,155.56L245.32,174.79L245.68,176.77L246.04,171.19L246.4,152.06L246.77,156.56L247.13,157.89L247.49,158.05L247.85,172.24L248.22,176.55L248.58,169.79L248.94,154.15L249.3,157.11L249.67,156.15L250.75,176.72L251.12,168.27L251.48,166.88L251.84,151.15L252.2,148.34L252.56,159.35L252.93,172.99L253.29,227.32L254.01,174.31L254.38,175.41L254.74,179.48L255.1,178.29L255.46,178.43L255.83,202.48L256.19,195.07L256.55,170.36L257.64,186.59L258,194.34L258.36,225.37L258.72,221.47L259.09,198.6L259.81,210.09L260.17,232.24L261.26,259.29L261.62,295.44L261.99,292.82L262.35,185.71L263.07,202.21L263.44,201.57L263.8,213.53L264.16,237.64L264.52,208.37L264.88,208.33L265.25,191.25L265.97,217.3L266.33,197.4L267.06,181.93L267.42,190.16L267.78,190.96L268.15,197.42L268.51,222.74L268.87,202.11L269.23,169.76L269.6,168.01L269.96,176.69L270.32,188.08L270.68,174.78L271.04,224.99L271.41,209.81L271.77,173.75L272.13,175.19L272.49,185.39L272.86,164.46L273.22,184.39L273.58,197.86L273.94,205.08L274.31,175.36L274.67,176.81L275.03,167.6L276.12,191.14L276.48,189.03L276.84,170.97L277.57,192.56L277.93,163.23L278.65,179.1L279.02,171.08L280.1,155.96L280.47,160.87L281.55,179.5L281.92,151.29L282.28,154.01L282.64,150.1L283,148.24L283.37,165.57L283.73,179.02L284.09,162.84L285.18,142.93L285.54,145.96L285.9,137.92L286.26,150.28L286.63,155.52L286.99,144.84L287.35,145.46L287.71,136.8L288.08,139.48L288.44,160.51L288.8,166.32L289.16,149.6L289.53,136.35L289.89,144.5L290.25,141.3L290.61,140.44L290.97,158.98L291.34,164.87L291.7,154.05L292.79,145.96L293.15,152.17L293.87,178.65L294.24,172.45L294.6,144.24L295.32,157.35L295.69,136.37L296.41,159.38L296.77,149.58L297.13,111.74L297.5,116.62L297.86,114.68L299.31,152.46L299.67,136.5L300.03,125.68L300.4,139.5L300.76,128.95L301.12,138.28L301.48,141.41L301.85,149.82L302.21,134.85L304.38,181.44L304.74,168.51L306.19,109.06L306.56,132.63L307.28,122.08L307.64,132.99L308.01,143.53L308.37,142.98L308.73,137.93L309.46,157L309.82,136.26L310.18,135.38L310.54,141.35L311.63,166.5L311.99,154.51L312.35,145.61L312.72,151.26L313.08,152.04L313.44,154.78L313.8,131.81L314.17,147.57L314.53,139.72L314.89,128.51L315.62,124.98L315.98,131L316.34,131.52L316.7,150.93L317.43,129.63L317.79,141.63L319.24,163.09L319.6,162.97L319.96,157.02L320.69,154.45L321.05,157.01L321.41,150.36L321.78,158.31L322.14,157.18L322.5,157.32L322.86,157.92L323.22,156.73L323.59,148.48L324.31,156.46L324.67,150.27L325.04,149.38L325.4,155.9L325.76,153.55L326.12,156.76L326.85,173.82L327.21,158.23L328.3,166.06L328.66,165.55L329.38,181.72L329.75,179.14L330.11,171.3L330.47,170.89L330.83,167.83L331.2,165.92L331.56,159.69L332.28,173.86L332.65,170.87L333.01,172.6L333.73,181.21L334.1,173.04L334.46,170.59L334.82,177.43L335.54,168.23L335.91,174.69L336.27,175.4L336.63,165.75L337.36,164.85L337.72,156.46L338.08,157.38L338.44,155.11L338.81,143.61L339.17,151.88L339.53,156.35L339.89,153.8L340.26,139.01L340.62,137.83L340.98,145.8L341.71,147.9L342.07,169.02L343.15,147.47L343.52,148.18L343.88,143.33L344.24,147.75L344.6,148.25L346.05,124.58L346.42,128.89L347.14,136.46L347.5,146.57L347.87,128.44L348.23,134.35L348.59,134.07L348.95,133.82L349.31,118.63L349.68,146.6L350.04,140.97L350.4,116.38L351.13,121.37L351.49,128.63L351.85,125.73L352.21,160.69L352.58,158.45L352.94,130.16L353.3,135.86L353.66,125.49L355.11,144.97L355.47,137.08L355.84,138.64L356.2,137.14L356.56,149.72L356.92,150.53L357.29,156.6L357.65,157.85L358.01,130.48L358.37,133.2L358.74,132.54L359.1,141.81L359.46,143.2L359.82,163.13L360.19,158.91L360.55,128.47L360.91,125.29L361.27,131.16L361.63,135.39L362,130.04L362.36,150.3L362.72,143.88L363.08,129.06L363.45,129.78L363.81,141.02L364.17,140.27L364.53,142.97L364.9,167.3L365.26,156.32L365.62,142L365.98,135.64L366.35,142.85L366.71,136.26L367.07,158.24L367.43,163.84L367.79,147.78L368.16,135.38L368.52,140.78L368.88,141.59L369.24,138.74L369.61,154.22L370.33,155.75L370.69,128.61L371.06,129.54L371.42,132.52L372.14,138.8L372.51,169.07L372.87,176.42L373.23,154.17L373.96,132.57L374.32,137.96L375.4,182.94L375.77,150.63L376.13,153.51L376.49,152.13L376.85,163.84L377.22,183.53L377.58,181.74L377.94,174.95L378.67,146.28L379.03,147.6L379.39,159.79L379.75,163.99L380.12,185.29L381.2,146.36L381.56,149.75L381.93,168.95L382.29,173.9L382.65,195.28L384.1,155.61L384.46,172.98L384.83,180.48L385.19,206.25L385.55,206.45L385.91,167.58L386.28,169.75L386.64,164.99L387,160.56L387.36,179.35L387.72,219.53L388.09,200.36L388.45,161.63L390.26,228L390.62,220.04L390.99,193.79L392.07,213.16L392.44,229.96L393.52,240.95L393.88,298.26L394.25,284.41L394.61,204.87L395.33,193.53L395.7,207.34L396.06,196.15L396.42,235.82L397.51,194.17L397.87,191.28L398.96,176.25L399.32,184.38L399.68,181.06L400.04,185.72L400.41,199.91L400.77,177.31L401.86,156.55L402.22,166.03L402.58,131.22L402.94,143.45L403.31,133.17L404.03,116.41L404.39,122.61L404.76,130.36L405.48,167.42L405.84,164.86L406.21,146.64L406.57,127.71L406.93,133.46L407.29,135.06L408.02,171.66L408.38,158.19L408.74,139.24L409.1,139.15L409.47,144.38L410.55,184.98L411.28,156.97L411.64,150.29L412,159.87L413.09,202.51L413.45,198.35L413.81,173.87L414.18,173.58L414.54,174.73L414.9,164.46L415.26,179.92L415.63,192.61L415.99,188.63L416.35,171.27L416.71,172.48L417.08,183.29L417.44,181.82L417.8,183.22L418.16,193.87L418.89,169.93L419.25,175.61L419.61,177.96L419.97,185.88L420.34,154.82L420.7,153.76L421.06,148.41L421.42,131.67L421.79,146.48L422.15,158.47L423.6,187.62L423.96,157.55L424.32,160.56L424.69,160.31L425.05,156.24L425.77,203.6L426.13,194.6L426.5,148.2L428.31,204.43L428.67,196.36L429.4,176.23L429.76,181.75L430.12,172.43L430.48,192.6L430.85,201.12L431.21,191.71L431.57,173.77L432.29,174.76L432.66,177.96L433.38,199.84L433.74,173.79L434.47,149.3L434.83,154.9L435.19,157.21L435.56,122.35L435.92,158.82L436.28,156.71L436.64,147.87L437.01,156.37L437.37,152.77L437.73,153.48L438.09,183.03L438.82,196.41L439.18,160.14L439.54,154.27L439.9,160.97L440.27,156.67L440.63,140.27L440.99,154.92L441.35,142.55L441.72,147.03L442.08,146.48L442.44,146.72L442.8,137.41L443.17,131.68L443.53,168.29L444.25,127.49L444.62,134.51L444.98,135.04L445.34,137.1L445.7,167.62L446.06,184.51L446.43,174.32L446.79,139.77L447.15,148.14L447.51,143.05L447.88,144.59L448.24,144.39L448.6,165.38L449.33,134.36L449.69,147.95L450.05,146.54L450.41,167.8L451.5,179.61L451.86,170.08L452.59,122.4L452.95,134.3L453.31,138.97L453.67,161.84L454.04,143.05L454.4,123.67L455.49,150.91L455.85,143.78L456.21,150.28L456.57,138.36L456.94,126.16L457.3,140.89L457.66,139.99L458.02,136.63L459.11,155.76L459.47,137.35L459.83,144.68L460.2,137.84L460.56,135.65L460.92,142.11L461.28,162.93L461.65,170.4L462.01,135.17L462.73,114L463.1,128.54L463.46,116.71L463.82,136.56L464.54,110.75L464.91,111.25L465.27,118.61L466.36,151.61L466.72,147.29L467.08,149.94L467.81,149.6L468.17,159.73L468.53,151.22L469.26,161.51L469.62,142.65L469.98,143.11L470.34,140.44L470.71,140.65L471.07,151.58L471.79,171.34L472.15,151.01L473.97,184.27L474.33,180.57L474.69,163.48L475.05,174.85L475.42,179.15L476.87,196.2L477.23,181.98L478.31,164.22L478.68,165.04L479.04,199.13L479.4,191.9L479.76,169.15L480.49,169.45L480.85,182.31L481.21,179.61L481.58,195.5L482.66,169.87L483.03,180.63L483.39,182.25L483.75,189.54L484.11,198.69L484.47,184.17L484.84,169.5L485.2,172.74L485.56,170.99L486.29,176.45L486.65,192.02L487.37,167.48L487.74,171.93L488.1,169.5L489.19,202.91L489.55,182.27L489.91,175.08L490.27,176.09L490.63,183.87L491.36,181.33L491.72,193.21L492.81,169.11L493.17,171.71L493.53,173.62L493.9,183.26L494.26,183.16L494.62,158.3L494.98,159.09L495.35,169L496.79,188.5L497.16,182.48L497.52,174.2L497.88,174.83L498.24,176.6L498.61,179.96L498.97,191.6L499.33,194.67L499.69,184.61L500.06,184.94L500.42,178.84L501.51,186.99L501.87,197.59L502.59,172.56L502.96,173.49L503.32,179.59L504.04,207.16L504.4,223.22L504.77,221.89L505.13,201.27L505.85,186.65L506.22,189.23L506.58,183.38L507.3,202.87L507.67,186.32L508.39,180.47L508.75,185.76L509.12,183.14L509.48,200.89L509.84,202.1L510.2,179.64L510.93,184.98L511.29,192.8L512.01,218.04L512.38,211.48L512.74,180.93L513.1,178.42L513.46,185.53L514.55,213.93L514.91,209.73L515.64,188.29L516,195.34" style="vector-effect: non-scaling-stroke; fill: none; stroke: rgb(0, 204, 150); stroke-opacity: 1; stroke-width: 2px; opacity: 1;"/></g><g class="points"/><g class="text"/></g></g></g><g class="overplot"/><path class="xlines-above crisp" d="M0,0" style="fill: none;"/><path class="ylines-above crisp" d="M0,0" style="fill: none;"/><g class="overlines-above"/><g class="xaxislayer-above"><g class="xtick"><text text-anchor="middle" x="0" y="433" transform="translate(80,0)" style="font-family: 'Open Sans', verdana, arial, sans-serif; font-size: 12px; fill: rgb(42, 63, 95); fill-opacity: 1; white-space: pre;">2017</text></g><g class="xtick"><text text-anchor="middle" x="0" y="433" transform="translate(212.26,0)" style="font-family: 'Open Sans', verdana, arial, sans-serif; font-size: 12px; fill: rgb(42, 63, 95); fill-opacity: 1; white-space: pre;">2018</text></g><g class="xtick"><text text-anchor="middle" x="0" y="433" transform="translate(344.52,0)" style="font-family: 'Open Sans', verdana, arial, sans-serif; font-size: 12px; fill: rgb(42, 63, 95); fill-opacity: 1; white-space: pre;">2019</text></g><g class="xtick"><text text-anchor="middle" x="0" y="433" transform="translate(476.78,0)" style="font-family: 'Open Sans', verdana, arial, sans-serif; font-size: 12px; fill: rgb(42, 63, 95); fill-opacity: 1; white-space: pre;">2020</text></g></g><g class="yaxislayer-above"><g class="ytick"><text text-anchor="end" x="79" y="4.199999999999999" transform="translate(0,351.48)" style="font-family: 'Open Sans', verdana, arial, sans-serif; font-size: 12px; fill: rgb(42, 63, 95); fill-opacity: 1; white-space: pre;">0.08</text></g><g class="ytick"><text text-anchor="end" x="79" y="4.199999999999999" transform="translate(0,281.39)" style="font-family: 'Open Sans', verdana, arial, sans-serif; font-size: 12px; fill: rgb(42, 63, 95); fill-opacity: 1; white-space: pre;">0.1</text></g><g class="ytick"><text text-anchor="end" x="79" y="4.199999999999999" transform="translate(0,211.29000000000002)" style="font-family: 'Open Sans', verdana, arial, sans-serif; font-size: 12px; fill: rgb(42, 63, 95); fill-opacity: 1; white-space: pre;">0.12</text></g><g class="ytick"><text text-anchor="end" x="79" y="4.199999999999999" transform="translate(0,141.2)" style="font-family: 'Open Sans', verdana, arial, sans-serif; font-size: 12px; fill: rgb(42, 63, 95); fill-opacity: 1; white-space: pre;">0.14</text></g></g><g class="overaxes-above"/></g></g><g class="polarlayer"/><g class="ternarylayer"/><g class="geolayer"/><g class="funnelarealayer"/><g class="pielayer"/><g class="treemaplayer"/><g class="sunburstlayer"/><g class="glimages"/><defs id="topdefs-f00983"><g class="clips"/><clipPath id="legendf00983"><rect width="82" height="83" x="0" y="0"/></clipPath></defs><g class="layer-above"><g class="imagelayer"/><g class="shapelayer"/></g><g class="infolayer"><g class="legend" pointer-events="all" transform="translate(606.32, 100)"><rect class="bg" shape-rendering="crispEdges" width="82" height="83" x="0" y="0" style="stroke: rgb(68, 68, 68); stroke-opacity: 1; fill: rgb(255, 255, 255); fill-opacity: 1; stroke-width: 0px;"/><g class="scrollbox" transform="translate(0, 0)" clip-path="url('#legendf00983')"><text class="legendtitletext" text-anchor="start" x="2" y="15.600000000000001" style="font-family: 'Open Sans', verdana, arial, sans-serif; font-size: 12px; fill: rgb(42, 63, 95); fill-opacity: 1; white-space: pre;">Oceania</text><g class="groups"><g class="traces" transform="translate(0, 30.1)" style="opacity: 1;"><text class="legendtext" text-anchor="start" x="40" y="4.680000000000001" style="font-family: 'Open Sans', verdana, arial, sans-serif; font-size: 12px; fill: rgb(42, 63, 95); fill-opacity: 1; white-space: pre;">Global</text><g class="layers" style="opacity: 1;"><g class="legendfill"/><g class="legendlines"><path class="js-line" d="M5,0h30" style="fill: none; stroke: rgb(99, 110, 250); stroke-opacity: 1; stroke-width: 2px;"/></g><g class="legendsymbols"><g class="legendpoints"/></g></g><rect class="legendtoggle" x="0" y="-9.5" width="76.09375" height="19" style="fill: rgb(0, 0, 0); fill-opacity: 0;"/></g><g class="traces" transform="translate(0, 49.1)" style="opacity: 1;"><text class="legendtext" text-anchor="start" x="40" y="4.680000000000001" style="font-family: 'Open Sans', verdana, arial, sans-serif; font-size: 12px; fill: rgb(42, 63, 95); fill-opacity: 1; white-space: pre;">au</text><g class="layers" style="opacity: 1;"><g class="legendfill"/><g class="legendlines"><path class="js-line" d="M5,0h30" style="fill: none; stroke: rgb(239, 85, 59); stroke-opacity: 1; stroke-width: 2px;"/></g><g class="legendsymbols"><g class="legendpoints"/></g></g><rect class="legendtoggle" x="0" y="-9.5" width="76.09375" height="19" style="fill: rgb(0, 0, 0); fill-opacity: 0;"/></g><g class="traces" transform="translate(0, 68.1)" style="opacity: 1;"><text class="legendtext" text-anchor="start" x="40" y="4.680000000000001" style="font-family: 'Open Sans', verdana, arial, sans-serif; font-size: 12px; fill: rgb(42, 63, 95); fill-opacity: 1; white-space: pre;">nz</text><g class="layers" style="opacity: 1;"><g class="legendfill"/><g class="legendlines"><path class="js-line" d="M5,0h30" style="fill: none; stroke: rgb(0, 204, 150); stroke-opacity: 1; stroke-width: 2px;"/></g><g class="legendsymbols"><g class="legendpoints"/></g></g><rect class="legendtoggle" x="0" y="-9.5" width="76.09375" height="19" style="fill: rgb(0, 0, 0); fill-opacity: 0;"/></g></g></g><rect class="scrollbar" rx="20" ry="3" width="0" height="0" x="0" y="0" style="fill: rgb(128, 139, 164); fill-opacity: 1;"/></g><g class="g-gtitle"/><g class="g-xtitle"><text class="xtitle" x="338" y="461.8" text-anchor="middle" style="font-family: 'Open Sans', verdana, arial, sans-serif; font-size: 14px; fill: rgb(42, 63, 95); opacity: 1; font-weight: normal; white-space: pre;">Date</text></g><g class="g-ytitle"><text class="ytitle" transform="rotate(-90,30.418750000000003,260)" x="30.418750000000003" y="260" text-anchor="middle" style="font-family: 'Open Sans', verdana, arial, sans-serif; font-size: 14px; fill: rgb(42, 63, 95); opacity: 1; font-weight: normal; white-space: pre;">speechiness</text></g></g></svg>