<svg class="main-svg" xmlns="http://www.w3.org/2000/svg" xmlns:xlink="http://www.w3.org/1999/xlink" width="700" height="500" style="" viewBox="0 0 700 500"><rect x="0" y="0" width="700" height="500" style="fill: rgb(255, 255, 255); fill-opacity: 1;"/><defs id="defs-0b227d"><g class="clips"><clipPath id="clip0b227dxyplot" class="plotclip"><rect width="472" height="320"/></clipPath><clipPath class="axesclip" id="clip0b227dx"><rect x="80" y="0" width="472" height="500"/></clipPath><clipPath class="axesclip" id="clip0b227dy"><rect x="0" y="100" width="700" height="320"/></clipPath><clipPath class="axesclip" id="clip0b227dxy"><rect x="80" y="100" width="472" height="320"/></clipPath></g><g class="gradients"/></defs><g class="bglayer"><rect class="bg" x="80" y="100" width="472" height="320" style="fill: rgb(229, 236, 246); fill-opacity: 1; stroke-width: 0;"/></g><g class="layer-below"><g class="imagelayer"/><g class="shapelayer"/></g><g class="cartesianlayer"><g class="subplot xy"><g class="layer-subplot"><g class="shapelayer"/><g class="imagelayer"/></g><g class="gridlayer"><g class="x"><path class="xgrid crisp" transform="translate(200.98000000000002,0)" d="M0,100v320" style="stroke: rgb(255, 255, 255); stroke-opacity: 1; stroke-width: 1px;"/><path class="xgrid crisp" transform="translate(321.97,0)" d="M0,100v320" style="stroke: rgb(255, 255, 255); stroke-opacity: 1; stroke-width: 1px;"/><path class="xgrid crisp" transform="translate(442.95,0)" d="M0,100v320" style="stroke: rgb(255, 255, 255); stroke-opacity: 1; stroke-width: 1px;"/></g><g class="y"><path class="ygrid crisp" transform="translate(0,351.15999999999997)" d="M80,0h472" style="stroke: rgb(255, 255, 255); stroke-opacity: 1; stroke-width: 1px;"/><path class="ygrid crisp" transform="translate(0,281.15999999999997)" d="M80,0h472" style="stroke: rgb(255, 255, 255); stroke-opacity: 1; stroke-width: 1px;"/><path class="ygrid crisp" transform="translate(0,211.16)" d="M80,0h472" style="stroke: rgb(255, 255, 255); stroke-opacity: 1; stroke-width: 1px;"/><path class="ygrid crisp" transform="translate(0,141.16)" d="M80,0h472" style="stroke: rgb(255, 255, 255); stroke-opacity: 1; stroke-width: 1px;"/></g></g><g class="zerolinelayer"/><path class="xlines-below"/><path class="ylines-below"/><g class="overlines-below"/><g class="xaxislayer-below"/><g class="yaxislayer-below"/><g class="overaxes-below"/><g class="plot" transform="translate(80, 100)" clip-path="url('#clip0b227dxyplot')"><g class="scatterlayer mlayer"><g class="trace scatter trace2ee87f" style="stroke-miterlimit: 2; opacity: 1;"><g class="fills"/><g class="errorbars"/><g class="lines"><path class="js-line" d="M0,105.56L0.33,109.95L0.66,106.82L0.99,108.01L1.66,103.78L1.99,109.71L2.32,115.18L2.65,111.57L2.98,109.6L3.31,104.85L3.65,108.23L3.98,120.96L4.31,116.58L4.64,119.2L4.97,117.84L5.3,121.83L5.63,116.31L5.97,118.68L6.3,109.76L6.63,109.69L6.96,123.86L7.62,126.28L7.96,120.06L8.29,124.17L8.62,111.7L9.28,112.9L9.61,123.79L10.61,116.54L10.94,98.87L11.27,95.95L11.6,111.69L11.93,124.42L12.26,107.87L12.93,118.33L13.26,111.97L13.59,105.06L13.92,105.31L14.25,118.33L14.58,120.33L14.92,117.14L15.25,119.36L15.58,62.7L16.9,108.39L17.24,98.45L17.9,72.46L18.23,75.4L18.56,87.96L19.56,92.35L19.89,89.13L20.88,116.09L21.21,110.97L21.88,100.67L22.21,106.12L22.54,100.74L22.87,106.74L23.2,119.81L23.53,120.05L23.87,119.57L24.2,116.53L24.53,116.98L24.86,112.61L25.19,113.75L25.52,86.04L26.52,74.89L26.85,79.62L27.18,65.5L27.51,77.98L27.84,83.89L28.17,81.52L28.51,84.15L28.84,84.57L29.17,85.81L29.5,84.32L29.83,83.9L30.49,91.69L30.83,98.57L32.15,125.76L32.48,118.92L33.15,129.6L33.48,127.7L33.81,122.91L34.47,67.24L34.8,95.19L35.13,103.55L35.47,92.42L36.13,108.41L36.46,106.52L36.79,102.48L37.46,95.75L37.79,96.3L38.12,96.91L39.44,106.19L39.78,110.17L40.11,107.55L40.44,115.19L40.77,116.79L41.1,92.11L41.76,113.5L42.1,105.39L43.42,143.15L43.75,138.91L44.08,137.77L44.42,146.68L44.75,133.36L45.08,132.44L45.41,147.94L45.74,140.03L46.07,152.87L46.4,146.16L47.07,146.7L47.4,142.27L47.73,139.02L48.06,127.01L49.06,142.84L50.05,135L50.71,144.22L51.04,135.85L51.38,146.15L51.71,142.17L52.04,139.45L52.37,152.23L52.7,149.03L53.03,145.77L54.03,151.47L54.36,150.7L54.69,148.41L55.02,157.84L55.35,145.26L56.35,162.6L56.68,152.9L57.01,153.71L57.34,150.61L58.34,159.91L58.67,163.18L59.99,140.07L60.33,149.13L60.99,157.78L61.32,151.71L61.65,151.28L61.98,138.29L63.31,142.94L63.64,142.88L64.3,149.08L64.63,131.78L65.3,138.09L65.63,123.35L66.29,135.54L66.62,168.23L67.29,152.26L67.62,159.99L68.28,138.25L68.61,146.52L68.94,146.35L69.28,144.1L69.61,132.64L70.6,146.89L70.93,148.67L71.26,146.74L71.6,149.16L71.93,133.72L72.26,150.92L72.92,148.96L73.25,151.19L73.58,173.74L73.92,161.72L74.25,157.42L74.58,167.92L75.24,167.64L75.57,168.26L75.9,169.23L76.24,161.99L76.57,157.68L76.9,166.9L77.56,162.25L77.89,163.26L78.22,122.01L78.56,114.72L78.89,138.19L79.22,138.61L79.55,143.13L79.88,142.53L80.21,143.44L80.54,131.25L80.88,130.63L81.21,126.66L81.87,138.31L82.2,131.89L83.2,149.28L83.53,140.84L83.86,148.69L84.19,142.79L84.52,141.24L85.19,153.44L85.52,145.97L85.85,151.7L87.17,156.7L87.51,154.4L87.84,154.38L88.17,145.88L88.5,163.3L88.83,159.94L89.16,157.09L89.49,159.63L89.83,149.73L91.15,179.64L91.48,156.37L91.81,152.16L92.15,163.25L92.48,156.64L92.81,161.63L93.14,161.49L93.47,159.9L93.8,166.06L94.47,154.27L94.8,154.94L95.13,155.86L95.46,153.2L95.79,155.37L96.12,155.4L96.46,153.18L96.79,153.67L97.12,161.83L97.45,156.78L97.78,161.52L98.11,162.3L98.44,162.96L98.78,159.69L99.11,170.12L99.44,159.15L99.77,157.16L100.1,166.56L100.43,143.57L101.1,134.69L101.43,153.76L102.42,166.41L102.75,161.57L103.08,159.24L103.42,163.54L103.75,162.38L104.08,150.08L105.4,168.23L105.74,174.19L106.4,169.3L106.73,173.13L107.06,172.75L107.39,170.77L107.72,170.79L108.06,172.4L108.39,172.59L108.72,165.86L109.05,171.73L109.38,164.52L109.71,165.68L110.04,168.7L110.38,181.07L110.71,182.02L111.04,199.07L111.37,216.3L111.7,194.19L112.7,200.77L113.03,176.04L113.69,215.3L114.02,190.63L115.02,202.47L115.35,142.74L116.01,159.62L116.34,150.35L116.67,150.13L117.01,173.65L118,222.48L118.33,258.96L118.66,252.25L118.99,178.23L119.66,155.46L119.99,162.39L120.32,158.8L120.65,186.38L120.98,173.63L121.31,168.66L121.65,161L122.31,161.99L122.64,159.16L124.3,167.79L124.63,154.47L126.29,160.62L126.62,163.79L127.28,149.57L127.61,154.36L127.94,153.96L128.28,156.64L128.94,155.96L129.27,136.48L129.6,137.23L129.93,144.09L130.93,147.89L131.26,148.18L131.59,141.64L131.92,142.49L132.25,147.25L132.58,147.74L132.92,146.55L133.58,147.69L133.91,110.1L134.24,109.86L134.57,113.25L135.9,136.15L136.23,133.47L136.56,122.85L137.22,134.16L137.56,130.71L137.89,141.46L138.22,142.95L138.55,129.01L140.54,158.03L140.87,150.08L141.53,146.64L141.87,149.95L142.2,146.26L142.53,146.51L142.86,149.05L143.19,118.85L143.52,141.67L143.85,153.59L144.19,147.26L144.52,150.98L144.85,155.34L145.18,157.92L145.51,135.64L146.17,150.1L146.51,149.58L146.84,152.86L148.16,141.03L148.49,141.65L148.83,154.41L149.82,140.77L150.15,126.88L151.15,145.46L151.81,144.35L152.14,138.8L152.47,121.21L153.13,123.2L153.47,132.22L153.8,132.22L154.13,130.34L155.12,120.58L155.46,120.6L155.79,118.79L156.12,110.64L156.78,122.05L157.11,83.23L157.78,105.14L158.11,99.69L158.44,94.73L158.77,91.5L159.1,98.02L161.09,136.05L161.42,134.14L162.75,155.22L163.08,151.19L163.74,154.41L164.07,162.24L164.4,163.62L164.74,168.87L166.39,137.53L166.72,166.27L167.06,164.51L167.39,153.71L168.38,173.23L168.71,99.25L170.04,148.44L170.37,145.84L170.7,145.94L171.03,143.66L171.37,120.47L172.03,128.86L172.36,124.06L173.02,129.89L173.35,110.69L174.02,120.52L174.35,115.26L175.34,108.82L175.67,113.19L177,73.55L177.33,121.13L177.66,127.09L177.99,115.97L178.99,132.42L179.32,126L180.98,99.7L181.31,101.48L181.64,111.9L181.97,116.35L182.3,114.98L182.63,90.68L183.3,104.72L183.63,97.67L183.96,99.79L184.29,110.49L184.62,111.44L184.96,115.76L185.95,134.66L186.28,130.55L186.61,131.02L186.94,114.65L187.28,131.14L187.61,151.78L188.27,135.1L188.6,136.69L188.93,141.52L190.26,129.94L190.59,132.53L190.92,137.26L192.25,151.53L192.58,154.03L192.91,151.33L193.24,155.07L194.24,139.01L194.57,140.7L194.9,135.22L195.23,149.41L195.89,138.63L196.22,152.54L196.56,153.15L196.89,161.86L197.88,150.94L198.21,151.97L198.54,152.11L198.88,150.18L199.87,160.14L200.2,151.98L200.53,150.36L200.87,144.86L201.2,87.36L201.86,94.34L202.19,94.47L202.52,90L202.85,90.52L203.19,93.36L203.52,97.57L203.85,86.78L205.17,115.17L205.51,111.73L205.84,98.07L206.17,98.78L206.5,119.95L206.83,98.03L207.16,112.44L207.49,111.41L207.83,112.44L208.16,116.53L208.49,123.21L208.82,118.2L209.15,115.06L209.81,128.08L210.15,127.77L210.48,40.73L212.13,103.92L212.47,110.93L212.8,72.74L213.13,113.74L213.46,116.9L214.12,109.01L214.46,117.36L214.79,119.32L215.12,71.4L215.45,108.24L216.11,105.36L216.44,102.3L217.11,105.37L217.44,65.41L218.1,115.46L218.43,104.12L218.76,108.97L220.09,128.24L220.42,125.9L220.75,126.63L221.08,122.75L221.75,129.14L222.08,94.26L222.74,119.86L223.07,116.06L223.4,113.49L224.07,125.74L224.4,99.23L225.39,133.4L225.72,131.57L226.06,134.18L226.39,132.8L226.72,128.26L227.05,123.66L227.38,136.04L227.71,135.47L228.04,131.12L228.38,129.35L228.71,134.83L229.7,151.56L230.03,148.21L230.7,133.61L231.03,136.73L231.36,68.75L232.02,140.77L232.35,127.17L232.69,138.08L233.35,154.35L233.68,137.91L234.34,170.36L234.67,146.2L235.01,149.6L235.34,148.93L235.67,163.76L236,155.48L236.33,169.26L236.66,190.91L236.99,155.92L237.66,173.59L237.99,172.54L238.32,155.57L239.31,247.66L239.65,246.08L239.98,150.37L240.64,117.15L240.97,119.94L241.3,123.62L241.63,160.18L241.97,141.07L242.3,124.48L242.96,131.74L243.29,128.78L244.62,145.57L244.95,143.68L245.28,136.71L245.61,141L245.94,148.95L246.28,150.33L246.61,143.68L247.6,125.41L247.93,132.07L248.6,151.43L248.93,142.81L249.26,136.89L250.25,130.44L250.58,137.1L251.25,147.2L251.58,144.95L251.91,145.92L252.24,129.46L252.57,140.54L252.9,152.15L253.57,135.11L254.23,136.83L254.56,131.54L254.89,129L255.22,144.44L255.56,138.99L255.89,140.15L256.22,146.83L256.55,161.15L256.88,140.92L257.21,132.59L257.54,133.89L257.88,146.65L259.2,110.25L259.53,116.23L259.87,126.98L260.86,135.5L261.19,134.77L261.52,131.86L261.85,120.06L262.19,115.86L262.52,127.78L262.85,122.83L263.18,126.71L263.51,128.34L263.84,137.85L264.17,123.61L264.51,126.29L264.84,138.45L265.17,134.4L265.5,142.06L265.83,141.24L266.16,115.06L266.49,112.15L266.83,114.85L267.16,127.1L267.49,119.83L267.82,124.49L268.15,127.48L268.48,101.31L268.81,108.71L269.15,118.2L269.48,116.58L269.81,131.13L270.14,136.51L270.47,133.63L270.8,110.08L271.47,117.96L271.8,92.67L273.12,119.37L273.46,107.24L274.45,113.83L274.78,114L275.11,118.88L275.44,95.2L276.11,110.38L276.44,109.99L276.77,108.39L277.76,99.96L278.1,113.61L278.43,115.51L278.76,113.05L279.09,107.39L279.75,92.29L280.08,63.39L281.08,94.55L281.41,102.43L281.74,102.51L282.07,110.04L283.07,91.71L283.4,99.06L284.39,107.65L284.72,105.6L285.06,101.84L285.39,118.32L286.05,116.7L286.38,120.64L286.71,122.1L287.04,84.65L287.38,78.34L287.71,94.01L288.04,96.26L288.37,103.91L288.7,103.23L289.03,100.75L289.37,88.82L289.7,104.89L290.03,110.3L290.69,109.77L291.02,100.97L291.35,99.19L291.69,105.98L292.68,94.45L293.01,92.23L294.01,81.33L294.34,101.85L295,115.67L295.33,110L295.66,108.31L296.33,98.92L296.66,105.17L296.99,98.29L297.65,99.98L297.98,107.27L298.31,112.49L298.65,101.86L298.98,112.73L299.31,107.08L299.64,100.31L300.63,119.5L300.97,102.15L301.63,107.68L301.96,91.97L302.29,94L302.62,91.61L302.96,105.78L303.29,34.67L303.62,69.81L303.95,91.41L304.61,79.67L304.94,88.62L305.28,93.6L305.61,81.11L306.27,94.19L306.6,85.42L306.93,84.53L307.26,91.39L307.6,103.3L307.93,82.54L309.25,97.97L309.58,97.72L309.92,92.58L310.25,59.14L311.9,84.49L312.24,87.84L312.57,47.37L312.9,66.38L313.23,84.27L313.56,84.36L313.89,81.12L314.22,90.04L314.56,88.59L314.89,85.54L315.22,85.31L315.55,80.15L316.21,79.19L316.54,85.73L316.88,82.39L317.87,75.49L318.2,76.76L318.53,79.35L318.87,73.67L319.2,77.38L319.53,68.6L320.52,85.56L320.85,75.82L321.85,89.44L322.18,88.8L322.51,87.25L322.84,90.74L323.17,90.39L323.51,87.84L324.83,70.66L325.16,73.04L326.16,65.61L326.49,71.56L326.82,62.08L327.15,73.51L327.48,76.49L328.15,76.51L328.48,79.67L329.47,69.14L329.8,71.12L330.8,65.07L331.13,16L331.79,48.69L332.12,47.1L332.46,43.71L332.79,41.79L333.12,45.34L333.45,43.72L333.78,60.67L334.11,59.42L334.44,47.64L335.11,53.28L335.44,61.04L336.43,73L336.76,70.3L337.1,70.76L337.43,74.21L337.76,73.12L338.09,72.09L338.75,79.24L339.08,75.32L339.42,75.1L339.75,79.58L340.08,85.84L340.41,80.81L340.74,73.27L341.4,77.51L341.74,69.96L342.07,68.58L342.4,75.97L343.06,62.24L343.39,79.38L343.72,78.44L344.06,70.61L344.72,76.96L345.05,65.37L346.38,80.23L346.71,79.79L347.04,79.42L347.37,83.16L347.7,61.42L348.03,86.61L348.37,88.49L348.7,82.75L349.03,85.33L349.36,87.86L350.35,118.13L350.69,117.76L351.35,121.33L351.68,113.05L352.01,115.43L352.34,138.87L352.67,172.57L353.01,135.59L353.34,134.28L353.67,133.58L354,122.3L354.66,145.94L354.99,142.43L355.33,129.42L357.31,187.06L357.65,182.8L357.98,184.38L358.31,184.55L358.64,181.14L358.97,179.91L359.3,198.7L359.97,206.73L360.3,275.82L360.63,274.51L360.96,162.74L361.96,124.64L362.29,128.5L362.62,145.64L362.95,136.69L363.28,125.98L363.61,123.62L363.94,127.65L364.28,128.83L364.61,124.46L365.93,112.66L366.26,114.1L366.6,116.03L366.93,116.75L367.26,115.79L367.59,119.4L367.92,116.1L368.25,90.55L368.58,86.48L368.92,96.43L369.25,87.68L369.91,88.26L370.24,88.48L370.57,81.5L370.9,94.07L371.24,99.9L371.57,94.93L371.9,94.24L372.56,99.31L372.89,70.17L373.89,108.75L374.22,111.63L374.55,117.17L374.88,116.91L375.21,104.58L375.88,124.69L376.21,116.68L376.54,115.46L377.2,115.12L377.53,141.67L378.86,159.52L379.19,137.74L379.52,141.11L379.85,113.55L380.85,134.21L381.18,129.11L381.51,125.99L381.84,137.37L382.17,80.51L382.51,109.29L382.84,120.46L383.17,123.76L383.5,116.98L384.16,126.48L384.49,91.65L385.16,101.57L385.49,101.27L385.82,100.54L386.48,120.12L386.81,73.5L388.14,130.44L388.47,136.38L388.8,132.61L389.13,134.06L389.47,138.85L389.8,143.4L390.13,132.33L391.12,139.76L391.46,137.03L391.79,152.36L392.12,136.68L392.78,140.67L393.11,145.78L393.44,143.66L393.78,147.51L394.44,143.37L394.77,146.45L395.1,146.14L395.43,142.67L395.76,147.01L396.1,144.4L396.43,144.51L396.76,146L397.09,138.33L397.75,148.93L398.08,148.16L398.42,100.26L400.07,139.43L400.4,148.5L400.74,130.13L401.07,143.27L401.4,136.28L401.73,131.41L402.06,143.3L402.72,136.31L403.06,111.08L404.05,108.61L404.38,115.65L404.71,128.33L405.04,122.71L405.38,99.29L405.71,121.29L406.04,116.83L406.37,113.2L406.7,110L407.03,116.31L407.37,119.86L407.7,80.38L408.69,115.26L409.02,116.94L409.35,117.22L409.69,131.29L410.02,101.07L410.35,118.37L410.68,115.31L411.01,116.14L411.34,115.73L411.67,123.71L412.01,120.19L412.34,96.39L413.33,134.19L413.66,90.41L414.33,112.57L414.66,95.57L415.65,116.01L415.98,110.37L416.31,118.58L416.65,117.73L416.98,98.1L417.31,92.32L417.64,105.68L417.97,102.48L418.3,90.32L419.63,107.99L419.96,103.27L420.29,104.79L420.62,99.39L420.96,96.06L421.29,102L421.62,87.4L421.95,106.46L422.61,94.5L422.94,101.02L423.28,104.35L423.61,99.9L424.6,48.64L424.93,51.85L425.6,65.29L425.93,62.01L426.26,58.92L426.59,64.75L426.92,61.58L427.25,62.65L427.58,63.95L427.92,76.19L428.25,74.66L428.58,69.26L429.57,77.88L429.9,73.81L430.24,76.87L430.57,93.05L430.9,73.86L431.23,87.69L431.56,88.01L432.22,91.4L432.56,97.27L432.89,98.97L433.22,109.44L433.55,108.98L433.88,91.1L434.54,98.47L434.88,102.21L435.21,102.64L435.54,95.63L435.87,108.61L436.2,100.93L436.53,98.05L436.87,99.25L437.2,97L437.53,93.49L437.86,107.01L438.19,105.66L438.52,109.04L439.19,102.56L439.52,108.15L440.51,93.1L440.84,110.93L441.17,111.81L441.51,107.39L441.84,107.24L442.17,103.7L442.5,102.94L442.83,107.52L443.16,106.88L443.49,100.77L444.16,109.83L444.49,109.25L444.82,108.5L445.15,106.92L445.48,112.25L446.15,118.06L446.48,110.53L447.47,89.76L447.8,110.55L448.47,101.29L448.8,101.84L449.13,102.79L449.46,73.23L449.79,91.35L450.12,102.38L450.46,102.87L450.79,111.98L451.45,119.11L451.78,115.16L452.11,112.37L452.44,117.85L452.78,124.25L453.11,118.76L453.44,116.65L453.77,116.65L454.1,31.26L455.43,121.37L455.76,118.75L456.42,127.07L456.75,117.31L457.08,119.36L457.42,127.76L457.75,126.72L458.08,126.83L458.41,128.05L459.07,116.62L459.4,120.01L459.74,131.26L460.07,125.55L460.4,135.75L460.73,128.83L461.06,140.13L461.72,132.2L462.06,142.56L462.39,139.69L462.72,144.37L463.05,138.4L463.38,106.54L464.38,125.23L464.71,125.01L465.37,116.46L465.7,121.42L466.03,113.48L466.37,129.88L466.7,132.26L467.03,128.48L467.36,129.35L467.69,126.54L468.02,92.44L468.35,117.51L468.69,115.74L469.35,138.95L469.68,135.97L470.01,137.04L470.34,123.94L470.67,125.96L471.01,132.24L471.34,131.79L471.67,134.76L472,137.16" style="vector-effect: non-scaling-stroke; fill: none; stroke: rgb(99, 110, 250); stroke-opacity: 1; stroke-width: 2px; opacity: 1;"/></g><g class="points"/><g class="text"/></g><g class="trace scatter trace49dd3a" style="stroke-miterlimit: 2; opacity: 1;"><g class="fills"/><g class="errorbars"/><g class="lines"><path class="js-line" d="M0,167.29L0.66,152.45L0.99,153.37L1.33,152.09L1.66,152.74L1.99,161.33L2.32,168.29L2.65,151.67L2.98,147.57L3.31,149.41L3.65,148.99L4.64,170.2L4.97,158.65L5.3,153.21L5.63,156.51L5.97,154.64L6.3,149.29L6.63,154.28L6.96,162.91L7.29,152.27L7.62,152.48L7.96,154.93L8.62,149.91L8.95,156.67L9.28,164.01L9.61,155.56L9.94,154.36L10.61,156.05L10.94,149.95L11.27,150.73L11.6,159.17L11.93,149.94L12.6,150.1L12.93,152.32L13.26,143.38L13.59,151.44L13.92,159.13L14.25,153.6L14.58,170.3L15.58,154.45L15.91,162.95L16.24,165.91L16.57,156.73L16.9,157.54L17.24,157.18L17.57,163.02L17.9,156.13L18.23,159.72L18.56,161.4L19.89,149.62L20.22,171.23L20.88,179.29L21.21,168.64L21.54,169.91L21.88,168.33L22.21,168.05L22.54,159.66L22.87,162.09L23.2,166.71L24.86,150.87L25.19,155.41L26.19,114.38L26.52,117.07L26.85,119.82L27.18,107.91L27.84,128.97L28.17,122.4L28.51,127.21L29.17,127.99L29.5,123.25L29.83,136.71L30.16,141.79L30.49,134.88L30.83,133.99L31.16,137.19L31.82,144.08L32.15,148.75L32.48,148.49L32.81,141.98L33.81,148.95L34.14,93.37L35.13,100.62L35.47,101.89L36.46,113.05L36.79,123.88L37.12,128.59L37.46,118.38L37.79,119.82L38.12,126.24L38.45,126.28L38.78,127.7L39.78,138.47L40.11,135.82L41.76,149.16L42.1,141.18L42.43,141.43L42.76,146.63L44.08,169.07L44.42,161.39L44.75,161.26L45.08,163.59L45.41,169.76L45.74,163.59L46.07,163.52L46.4,167.96L46.74,160.79L47.07,162.06L47.4,155.39L47.73,159.91L48.06,148.5L48.72,164.56L49.06,156.77L50.05,158.05L50.71,160.86L51.04,158.92L51.38,159.55L51.71,157.14L52.7,148.26L53.03,149.26L53.37,153.24L53.7,146.76L54.03,150.68L54.69,149.74L55.02,145.84L55.69,158.13L56.35,158.08L56.68,157.12L57.01,156.11L57.34,161.31L58.67,156.73L59,157.22L59.33,154.35L59.66,157L59.99,157.22L60.33,158.41L60.66,152.96L61.65,160.81L61.98,156.31L62.31,162.92L62.65,160.72L62.98,153.46L63.97,159.56L64.3,157.45L64.63,158.69L64.97,157.4L65.3,156L65.63,150.05L65.96,151.22L66.29,154.65L66.62,171.87L66.96,165.32L67.29,161.58L67.62,162.03L67.95,161.77L68.28,164.52L68.61,159.78L68.94,164.51L69.28,162.17L69.94,154.32L70.27,156.31L70.6,157.17L71.6,155.74L71.93,157.5L72.26,152.25L72.59,154.01L72.92,155.24L73.58,160.89L73.92,158.92L74.25,156.37L74.91,155.04L75.24,157.34L75.9,159.53L76.24,157.06L76.9,153.4L77.23,156.4L77.89,162.5L78.22,154.49L78.89,151.35L79.22,141.29L80.21,150.04L80.54,147.39L80.88,147.23L81.21,144.3L81.54,136.24L81.87,140.06L82.2,139.37L82.87,140.41L83.2,135.06L83.53,136.57L83.86,130.54L85.19,142.67L85.52,141.53L85.85,138.86L87.17,144.58L87.51,137.78L88.17,145.6L88.5,141.62L89.49,145.95L89.83,129.81L90.16,132.66L90.49,131.98L90.82,129.22L92.48,142.59L92.81,142.65L93.47,147.85L93.8,146.02L94.13,146.11L94.47,138.21L94.8,144.05L95.13,143.59L95.46,136.61L95.79,138.98L96.12,139.52L96.46,140.23L96.79,144.57L97.12,143.56L97.45,148.69L97.78,138.92L98.11,141.07L98.44,142.97L98.78,147.9L99.11,146.73L99.44,144.77L99.77,148.01L100.1,146.03L100.43,141.42L101.76,153.99L102.09,161.91L102.75,149.4L103.08,149.72L103.42,146.71L103.75,143.73L104.08,150.83L104.41,158.98L104.74,147.97L105.07,150.23L105.4,147.94L105.74,147.14L106.07,137.5L106.4,144.31L106.73,153.17L107.39,141.01L107.72,143.77L108.06,146.97L108.39,139.77L108.72,153.31L109.05,163.73L109.38,146.04L110.71,167.27L111.04,185.94L111.37,196.92L111.7,167.74L112.37,180.13L112.7,168.85L113.03,166.06L113.36,192.86L113.69,208.46L114.02,173.07L114.35,172.92L114.69,179.66L115.02,181.84L115.35,123.95L116.01,172.33L116.34,141.01L117.67,202.6L118,235.83L118.33,292.33L118.66,234.26L118.99,173.05L119.33,141.36L119.99,142.93L120.32,144.66L120.65,184.18L120.98,157.28L121.31,144.85L121.98,151.5L122.31,143.29L122.97,153.62L123.3,144.44L124.63,126.76L124.96,138.87L125.29,145.4L125.62,137.39L125.96,139.37L126.62,138.39L126.95,134.42L127.61,145.45L127.94,131.23L128.61,132.57L128.94,131.96L129.27,127.61L129.6,133.13L129.93,136.15L130.26,128.75L130.6,129.82L130.93,132.59L131.59,130.14L131.92,134.47L132.25,138.77L132.58,129.64L133.58,138.49L133.91,106.78L134.57,131.92L134.9,125.79L135.24,126.53L135.57,147.07L135.9,131.61L136.23,132.08L136.89,140.91L137.22,129.66L138.22,134.05L138.55,122L139.21,140.6L139.54,128.11L139.88,129.79L140.21,125.03L140.54,128.33L140.87,116.66L141.53,132.08L141.87,122.8L142.86,135.22L143.19,120.96L143.85,148.37L144.19,136.93L145.18,142.18L145.51,123.78L146.17,144.4L146.51,135.42L147.17,138.04L147.5,139.81L147.83,121.74L148.16,128.78L148.49,133.76L148.83,128.57L149.16,129.94L149.49,132.17L149.82,132L150.15,120.5L150.48,129.53L151.15,128.6L151.48,127.19L151.81,129.36L152.14,128.88L152.47,122.79L153.13,138.64L153.47,125.02L154.13,129.24L154.46,122.39L154.79,114.39L155.12,127.33L155.46,130.37L155.79,116.18L156.12,113.69L156.45,118.74L156.78,121.36L157.11,81.73L157.44,115.94L157.78,112.17L158.11,91.02L159.1,96.92L159.43,119.59L160.1,134.58L160.43,124.91L160.76,138.97L161.09,129.83L161.42,132.72L162.42,148.81L162.75,139.2L163.08,139.12L163.41,135.86L164.74,160.65L165.07,148.41L166.39,138.32L166.72,144.68L167.39,142.59L167.72,135.88L168.38,134.59L168.71,91.57L169.38,118.3L169.71,115.95L170.04,115.01L170.37,111.86L170.7,117.07L172.03,89.48L172.36,86.89L174.02,117.39L174.35,106.75L175.01,105.65L175.34,106.78L176.34,122.04L176.67,111.28L177,86.04L177.33,102.82L177.66,107.23L178.33,120.79L178.66,117.52L178.99,110.2L179.65,119.48L179.98,119.25L180.31,88.14L180.65,96.88L181.31,95.01L181.64,100.62L182.63,107.02L182.97,114.67L183.63,106.16L183.96,110.17L184.62,120.43L184.96,113.14L185.62,125.24L185.95,122.32L186.28,123.16L186.61,123.76L186.94,126.27L187.28,123.18L187.61,128.79L188.27,116.74L188.6,120.98L188.93,123L189.26,125.24L189.6,116.75L189.93,120.62L190.26,119.44L190.59,116.72L192.25,137.86L192.58,133.63L192.91,130.61L193.24,132.31L193.57,132.32L193.9,132.96L194.24,126.95L194.9,131.74L195.23,126.49L196.89,147.44L197.22,145.51L197.55,135.87L197.88,138.94L198.21,138.67L198.54,137.42L198.88,135.3L199.21,145.79L199.87,132.96L200.2,136.93L200.53,135.27L200.87,134.62L201.2,62.06L201.53,64.06L201.86,63.34L202.19,55.83L202.52,59.97L202.85,58.63L203.19,58.42L203.52,52.98L203.85,80.3L204.18,84.79L204.51,64.24L205.51,76.36L205.84,72.85L206.5,98.17L206.83,80.32L207.83,90.07L208.16,82.18L208.82,106.52L209.15,96.64L209.48,95.7L210.15,103.3L210.48,60.79L211.14,94.46L211.47,88.13L211.8,93.84L212.13,95.36L212.47,94.45L212.8,86.99L213.46,107.51L213.79,95.25L214.12,93.94L214.46,97.28L214.79,97.3L215.12,85.33L215.78,105.91L216.11,101.82L216.44,103.98L216.78,100.73L217.11,106.37L217.44,99.37L217.77,109.67L218.1,113.89L218.43,106.81L218.76,103.47L219.1,107.68L219.43,108.14L219.76,102.61L221.08,116.51L221.42,113.77L221.75,115.13L222.08,102.81L222.74,122.33L223.07,112.24L224.4,124.97L224.73,133.07L225.06,142.12L225.39,131.26L225.72,130.38L226.06,130.18L226.39,132.35L226.72,118.14L227.05,130.42L227.38,137.77L227.71,127.15L228.04,130.95L228.38,131.55L228.71,128.25L229.04,116.68L229.7,144.75L230.03,132.02L230.37,131.52L231.36,116.15L231.69,157.41L232.02,179.68L232.35,144.42L233.35,153L233.68,128.02L234.34,168.78L234.67,140.67L236,163.56L236.33,190.92L236.66,201.63L236.99,173L237.66,177.23L237.99,183.01L238.32,179.82L238.65,209.19L239.31,283.74L239.65,227.54L240.64,128.02L240.97,129.63L241.3,130.08L241.63,166.39L242.3,132.97L242.63,133.08L242.96,132.11L243.62,137.94L243.96,127.15L244.62,131.26L244.95,127.35L245.28,128.58L245.61,140.12L245.94,143.72L246.28,134.35L246.61,134.72L246.94,133.5L247.27,134.29L247.6,117.73L248.26,129.83L248.6,125.32L249.26,128.08L249.59,123.48L249.92,109.92L250.25,118.68L250.58,127.49L251.58,114.48L251.91,114.76L252.24,100.59L252.57,113.72L252.9,122.15L253.24,110.41L253.57,116.55L253.9,118.78L254.56,105.37L254.89,116.59L255.22,120.75L255.56,115.66L255.89,114.9L256.22,117.37L256.55,132.25L256.88,118.41L257.21,122.85L257.54,125L258.21,118.7L258.54,119.28L258.87,119.14L259.2,104.94L259.53,119.44L259.87,123.6L260.2,116.94L260.53,120.8L260.86,119.85L261.19,121.79L261.52,107.39L262.19,120.38L262.52,111.79L263.51,107.48L263.84,107.93L264.17,110.16L264.51,115.23L264.84,107.56L265.83,102.76L266.16,96.85L266.83,110.32L267.16,103.52L267.49,104.9L267.82,104.66L268.15,109.8L268.48,98.85L268.81,107.51L269.15,108.29L269.48,99.96L269.81,102.83L270.14,103.56L270.47,101.78L270.8,80.25L271.47,91.95L271.8,81.43L273.12,66.69L273.46,74.18L273.79,74.09L274.12,72.16L274.78,79.17L275.11,77.44L275.44,59.11L275.78,70.37L276.11,68.02L276.44,65.51L277.43,76.12L277.76,71.17L278.1,81.03L278.76,80.92L279.09,70.5L279.42,71.19L279.75,73.9L280.08,58.18L280.42,70.77L280.75,76.65L281.08,66.66L281.41,72.04L281.74,78.42L282.4,63.96L282.74,73.09L283.07,75.79L283.4,70.16L283.73,69.77L284.06,74.64L284.39,73.27L284.72,73.66L285.06,80.67L285.39,85.14L285.72,72.45L286.38,75.95L286.71,75.39L287.04,92.31L287.38,90.82L287.71,98.24L288.7,90.01L289.03,88.96L289.37,80.25L289.7,89.75L290.03,88.27L290.36,80.49L290.69,81.75L291.02,82.65L291.35,90.01L291.69,77.05L292.02,94.64L292.35,94.02L292.68,82.45L293.01,80.92L293.34,86.69L293.67,82.42L294.01,88.32L294.67,96.16L295,90.12L295.33,82.65L295.66,83.02L295.99,85.59L296.33,86.55L296.66,94.22L297.32,83.41L297.65,85.32L297.98,87.18L299.31,103.45L299.64,88.88L300.63,99.13L300.97,92.96L301.3,100.25L301.63,95.03L301.96,88.17L302.29,86.85L302.62,91.19L302.96,87.33L303.29,95.16L303.62,102.19L303.95,99.35L304.28,95.99L304.61,98.39L304.94,96.91L305.28,95.92L305.61,84.9L306.27,86.36L306.6,86.01L307.6,92.49L307.93,87.83L308.26,96.71L308.59,90.42L308.92,88.7L309.92,97.15L310.25,91.78L310.58,95.07L310.91,90.25L311.24,88.01L311.57,89.84L311.9,91.56L312.24,96.28L312.57,87.42L312.9,92.72L313.23,85.47L313.56,85.11L313.89,85.81L314.22,90.04L314.56,90.15L314.89,96.05L315.88,84.5L316.21,84.77L316.54,90.18L317.21,83.39L317.54,90.14L318.87,75.86L319.2,77.16L319.53,67.43L319.86,75.34L320.19,74.28L320.52,70.25L320.85,72.48L321.19,72.24L321.52,73.96L321.85,83.52L322.18,82.79L322.51,72.2L322.84,64.56L323.51,64.95L323.84,63.85L324.5,80.67L324.83,76.52L325.16,74.81L325.49,76.06L325.83,72.83L326.49,60.45L326.82,68.18L327.15,67.62L327.48,56.97L327.81,58.79L328.15,62.4L328.48,62.57L328.81,67.51L329.14,74.2L329.47,73.83L329.8,64.81L330.47,68.76L330.8,68.19L331.13,52.21L331.79,65.16L332.12,59.93L332.46,57.61L333.12,61.47L333.45,53.48L334.11,65.32L334.44,58.58L335.11,58.46L335.44,59.77L335.77,61.24L336.1,69.49L336.43,69.8L336.76,66.12L337.1,70.98L337.76,70.55L338.09,69.3L338.42,75.86L338.75,75.29L339.08,70.01L339.75,76.93L340.08,72.07L340.41,72.06L340.74,78.34L341.07,78.14L341.4,71.95L343.06,79.57L343.39,85.98L343.72,78.75L344.39,80.26L344.72,77.88L345.05,77.16L345.38,83.05L345.71,87.01L346.04,81.58L346.38,83.15L346.71,82.01L347.04,81.47L347.37,79.29L347.7,90.5L348.03,99.77L348.37,89.56L348.7,88.63L349.03,93.55L349.36,91.17L349.69,90.71L350.35,107.79L350.69,97.2L351.02,97.29L351.35,99.63L351.68,98.39L352.01,90.87L352.67,157.81L353.01,125.37L353.34,127.34L354.33,119.25L354.66,143.87L354.99,143.13L355.33,107.08L357.31,164.72L357.65,132.59L357.98,133.62L358.31,138.8L358.64,147.33L358.97,146.52L359.3,176.4L359.97,189.27L360.3,270.67L361.62,82.28L361.96,81.17L362.29,85.89L362.62,129.7L363.61,87.77L363.94,93.93L364.28,98.82L364.61,87.35L364.94,88.89L365.27,87.47L365.6,85.21L365.93,73.56L366.26,81.77L366.6,87.51L367.26,74.58L367.59,79.93L367.92,78.99L368.25,48.94L368.92,55.9L369.25,52.92L370.24,57.25L370.57,51.16L371.24,70.88L371.57,59.55L371.9,59.47L372.23,65.19L372.89,61.55L373.22,72.9L373.56,69.29L373.89,72.61L374.22,74.74L374.88,73.67L375.21,76.66L375.88,90.46L376.21,81.86L377.53,94.06L377.87,86.77L378.2,87.93L378.53,85.55L378.86,86.54L379.19,76.82L379.52,76.34L379.85,82.6L380.52,95L380.85,84.59L381.51,85.88L381.84,87.92L382.17,72.17L382.51,85.28L382.84,92.5L383.17,84.12L383.5,85.7L383.83,86.55L384.16,88.92L384.49,64.51L384.83,62.05L385.16,77.53L385.49,72.87L385.82,79.89L386.15,80.31L386.48,79.64L386.81,62.34L387.48,83.11L387.81,81.81L388.14,87.86L388.8,90.83L389.13,102.31L389.47,111.2L389.8,105.99L390.13,100.03L390.46,102.21L390.79,101.7L391.12,99.44L391.46,95.38L391.79,100.19L392.12,96.2L392.45,93.37L392.78,89.68L393.11,92.31L393.44,93.3L393.78,87.74L394.11,96.23L394.77,86.18L395.1,88.43L395.43,90.56L396.43,102.47L396.76,95.54L398.08,89.01L398.42,60.89L398.75,89.39L399.08,88.69L399.41,79.4L401.07,100.01L401.4,96.63L401.73,87.18L402.06,91.35L402.39,90.84L402.72,88.91L403.06,76.71L403.39,89.11L403.72,89.55L404.05,80.56L404.38,84.62L404.71,88.76L405.04,89.07L405.38,92.35L405.71,102.51L406.04,92.26L406.37,80.65L407.03,83.72L407.37,82.03L407.7,82.46L408.03,98.68L408.69,82.85L409.02,86.06L409.35,86.93L409.69,96.36L410.02,84.79L410.35,92.06L410.68,90.43L411.01,81.57L411.67,85.13L412.01,83.09L412.34,81.94L412.67,92.9L413.66,67.02L413.99,73.33L414.33,73.14L414.66,61.62L414.99,76.45L415.32,73.64L415.65,63.86L416.31,76.55L416.65,70.31L416.98,57.4L417.31,71.54L417.64,65.29L417.97,56.5L418.3,61.57L418.63,67.97L418.97,67.97L419.3,75.52L419.63,86.84L419.96,83.26L420.29,67.95L420.62,82.86L420.96,75.41L421.29,72.78L421.95,84.91L422.28,80.35L422.61,70.74L422.94,68.05L423.28,68.33L423.61,71.36L423.94,40.58L424.27,57.38L424.6,57.91L424.93,50.95L425.26,57.7L425.6,60.9L426.26,67.92L426.59,82.08L427.25,71.26L427.58,74.5L427.92,74.17L428.25,73.39L428.58,74.7L428.91,81.45L429.24,78.88L429.57,70.34L429.9,70.32L430.24,73.78L430.57,74.87L430.9,87.43L431.23,89.84L431.56,86.71L432.22,81.95L432.56,84.45L432.89,81.48L433.22,90.56L433.55,96.46L433.88,88.67L434.21,80.58L434.88,82.45L435.21,83.61L435.87,84.88L436.53,68.68L436.87,71.09L437.53,73.94L437.86,80.07L438.19,85.11L438.52,79.02L438.85,73.31L439.85,76.08L440.18,77.52L440.51,82.94L440.84,80.01L441.17,72.27L442.17,77.98L442.5,67.73L442.83,75.13L443.16,74.05L443.49,65.4L444.16,61.63L444.49,65.04L444.82,57.75L445.15,68.53L445.48,70.58L445.81,60.46L446.81,64.06L447.14,53.27L447.8,65.39L448.13,55.17L448.47,55.18L448.8,58.3L449.13,57.91L449.46,42.66L450.12,57.92L450.46,50.26L451.12,53.75L451.45,53.32L451.78,59.51L452.44,67.49L452.78,59.22L453.44,61.85L453.77,60.64L454.1,35.57L454.76,66.28L455.1,58.22L455.43,62.37L456.09,66.11L456.42,56.93L457.08,67.89L457.42,62.22L458.41,72.54L458.74,65.22L459.4,74.11L459.74,64.55L460.4,69.36L460.73,68.97L461.06,64.76L461.72,80.57L462.06,74.72L463.05,80.54L463.38,70.65L464.04,88.2L464.38,78.98L465.37,83.43L465.7,76.2L466.37,97.91L466.7,83.88L467.36,90.44L467.69,86.38L468.02,70.12L468.35,89.85L468.69,98.77L469.02,84.94L469.35,90.31L469.68,94.07L470.01,94.12L470.34,83.49L471.01,117.96L471.34,100L472,108.82" style="vector-effect: non-scaling-stroke; fill: none; stroke: rgb(239, 85, 59); stroke-opacity: 1; stroke-width: 2px; opacity: 1;"/></g><g class="points"/><g class="text"/></g><g class="trace scatter trace581f22" style="stroke-miterlimit: 2; opacity: 1;"><g class="fills"/><g class="errorbars"/><g class="lines"><path class="js-line" d="M0,246.02L1.33,252.05L1.66,248.52L2.32,247.8L2.65,249.99L2.98,249.36L3.31,250.01L3.65,251.57L4.31,243.18L4.64,247.04L4.97,253.63L5.63,256.89L5.97,254.15L6.3,256.95L6.63,254.79L6.96,255.22L7.29,260.99L7.96,259.58L8.29,261.64L8.95,252.58L9.28,255.53L9.61,256.72L10.61,263.57L10.94,260.74L11.27,254.43L11.6,258.41L11.93,260.98L12.26,261.64L12.6,260.62L12.93,262.96L13.26,256.89L13.59,257.18L13.92,256.02L14.25,250.96L14.58,265.99L15.58,257.22L15.91,257.27L16.24,258.89L16.57,264.95L16.9,264.79L17.24,263.65L17.57,264.89L17.9,260.8L19.22,265.02L19.56,263.37L19.89,264.69L20.22,263.99L20.55,269.47L21.54,274.65L21.88,270.04L22.21,272.6L22.54,263.73L23.2,257.4L23.53,263.54L23.87,262.9L24.2,256.69L24.53,258.53L24.86,251.69L25.19,252.09L25.52,241.19L26.19,235.75L26.52,239.55L26.85,242.59L27.18,235.36L27.84,253.47L28.17,248.57L28.51,250.72L28.84,231.15L29.17,239.11L29.5,256.79L30.83,260.99L31.16,262.25L33.15,269.6L33.48,267.51L33.81,270.16L34.14,237.13L34.47,229.99L34.8,231.93L35.13,236.26L36.79,251.28L37.46,251.16L37.79,252.55L38.12,251.36L38.45,254.39L39.11,248.63L39.44,249.98L39.78,251.98L40.77,254.35L41.1,254.05L41.43,253.36L41.76,254.04L42.1,257.1L42.43,257.4L42.76,256.51L43.42,258.77L43.75,258.53L44.08,257.29L45.41,264.8L45.74,256.53L46.4,256.61L46.74,259.1L47.07,259.44L47.4,258.35L47.73,256.25L48.06,247.37L48.39,254.52L48.72,252.91L49.06,250.49L50.05,251.08L50.71,246.14L51.04,247.49L51.38,252.54L51.71,249.62L52.04,250.47L52.37,252.71L52.7,242.9L53.03,247.12L53.37,247.63L53.7,248.41L54.03,252.9L54.69,255.69L55.02,255.16L55.35,253.7L55.69,255.18L56.02,261.34L56.68,260.65L57.01,262.44L57.34,257.22L57.67,261.04L58.01,258.93L59.33,256.85L59.66,252.64L59.99,253L60.33,259.69L60.66,260.29L60.99,259.12L61.32,259.07L61.65,259.84L61.98,258.37L62.31,260.73L63.31,255.65L63.64,257.08L63.97,259.01L64.63,252.74L64.97,255.21L65.3,257.75L65.63,258.16L65.96,260.15L66.29,263.4L66.62,252.77L67.95,262.47L68.28,260.81L68.61,260.18L68.94,259.12L69.28,253.96L69.61,255.1L69.94,262.23L71.6,254.47L71.93,255.34L72.59,261.64L72.92,259.03L73.25,263.7L73.58,262.71L73.92,259.84L74.58,262.15L74.91,260.28L75.24,259.86L75.57,263.89L75.9,258.93L76.24,261.1L76.57,260.91L77.23,267.05L77.56,265.05L77.89,265.02L79.55,256.85L79.88,256.72L80.21,256.39L80.54,250.77L82.87,265.87L83.2,261.17L83.53,262.17L83.86,266.03L84.19,265.88L84.52,267.43L85.19,267.31L85.52,264.18L85.85,264.7L86.18,256.7L86.51,256.78L86.84,257.79L87.17,258.61L87.51,256.52L88.17,259.16L88.5,264.52L89.16,265.71L89.49,268.89L90.16,268.73L90.49,269.63L90.82,273.85L91.15,271.97L91.48,271.1L91.81,276.47L92.15,269.94L92.48,268.11L92.81,268.12L93.14,274.29L93.47,271.76L93.8,275.53L94.13,276.89L94.47,270.49L94.8,269.62L95.13,271.5L95.46,273.94L95.79,273.05L96.12,271.23L96.46,274.97L96.79,274.8L97.12,268.5L97.45,269.46L97.78,274.87L98.11,270.11L98.44,272.47L98.78,277.99L99.44,269.24L99.77,272.35L100.1,277.73L100.43,273.32L100.76,276.23L101.1,275.32L101.43,271.83L101.76,271.94L102.09,275.76L102.42,279.55L102.75,279.14L103.08,277.22L103.42,279.12L103.75,271.22L104.08,267.37L104.41,271.07L104.74,275.14L105.07,273.72L105.4,274.66L105.74,275.87L106.4,268.15L106.73,269.2L107.06,267.78L107.72,271.65L108.06,270.33L108.39,264.13L108.72,259.07L109.05,263.28L109.38,268.49L109.71,268.77L110.04,268.33L110.38,271.3L110.71,266.75L111.04,267.83L111.37,268.42L111.7,270.83L112.03,269.35L112.37,266.28L112.7,266.38L113.03,259.2L113.69,269.76L114.02,268.74L114.35,269.77L115.02,267.46L115.35,252.87L115.68,250.18L116.01,255.73L117.01,269.89L117.34,270.29L117.67,270.71L118,274.92L118.33,285.99L118.66,282.86L118.99,268.89L120.65,256.87L120.98,267.83L121.65,265.93L121.98,268.53L122.31,264.22L122.64,267.04L122.97,265.76L123.97,273.1L124.3,271.04L124.96,261.45L125.29,263.4L125.62,265.47L126.62,275.25L126.95,270.78L127.61,267.33L127.94,272.4L128.61,268.69L128.94,274.37L129.27,271.06L129.6,272.02L129.93,272.18L130.26,271.82L130.6,274.68L131.26,280.67L131.59,268.6L132.25,271.12L132.58,279.13L132.92,277.94L133.25,278.78L133.58,280.62L133.91,264.87L134.24,269.91L134.57,274.58L134.9,274.72L135.24,271.64L135.57,282.96L135.9,269.13L136.23,262.65L136.56,261.63L136.89,261.82L137.22,264.99L138.55,272.84L138.88,270.53L139.21,271.42L139.54,278.06L140.54,285.23L140.87,276.41L141.2,274.14L141.53,277.36L141.87,283.55L142.53,283.4L142.86,281.28L143.19,281.18L143.52,278.25L145.18,286.43L145.51,280.61L145.84,279.6L146.17,279.93L146.51,283.52L147.83,272.43L148.16,275.06L148.49,274.38L148.83,276.37L149.49,272.65L149.82,275.46L150.15,270.32L150.48,272.38L150.81,275.8L151.15,275.11L151.48,269.89L151.81,268L152.14,272.2L152.47,266.98L152.8,273.03L153.13,272.82L153.47,276.49L153.8,276.23L154.13,273.64L154.46,273.79L154.79,261.8L155.79,264.62L156.12,264.43L156.45,263.78L156.78,264.43L157.11,246.96L157.44,262.85L158.11,262.63L158.44,258.98L160.1,268.12L160.43,274.77L160.76,272.87L161.09,275.25L161.42,278.27L162.08,271.43L162.42,271.71L162.75,270.44L163.08,269.55L163.41,270.36L163.74,273.32L164.07,276.4L164.4,273.98L164.74,275.51L165.07,271.07L165.4,271.73L165.73,272.85L166.06,277.72L166.39,266.43L166.72,267.95L167.06,266.76L167.39,274.38L168.71,262.58L169.04,259.66L169.38,259.07L169.71,263L170.7,266.64L171.03,266.21L171.37,249.6L172.03,251.97L172.36,248.63L173.35,256.26L173.69,262.84L174.02,258.06L174.35,264.78L175.01,267.24L175.34,266.52L175.67,260.25L176.34,257.22L176.67,249.69L177,240.93L177.33,244.19L177.66,246.45L178.33,255.36L178.66,254.59L178.99,256.35L179.98,253.35L180.31,226.98L180.65,221.47L180.98,228.81L182.3,243.33L182.63,257.07L182.97,256.73L183.3,257.97L183.63,263.66L183.96,259.61L184.29,260.27L184.96,264.97L185.29,264.52L185.62,262.01L186.94,267.78L187.28,267.12L187.61,269.76L187.94,267.88L188.27,268.9L188.6,265.9L188.93,268.56L189.26,267.41L190.26,259.36L190.59,261.27L190.92,259.61L191.25,260.3L191.58,261.4L191.92,259.49L192.25,261.7L192.58,259.71L192.91,260.35L193.24,258.54L193.57,260L193.9,261.14L194.24,262.63L194.57,259.91L196.56,270.26L196.89,269.57L197.22,269.39L197.55,267.23L197.88,266.78L198.21,268.12L198.54,270.21L198.88,257.58L199.87,261.84L200.2,261.89L200.87,266.66L201.2,243.93L202.19,228.91L202.52,227.36L203.85,245.68L204.18,250.13L204.51,250.14L204.84,252.43L205.17,252.74L205.51,251.91L206.17,258.36L206.5,256.86L206.83,258.48L207.16,262.84L207.49,262.81L207.83,255.68L208.16,255.1L208.49,257.83L210.15,263.35L210.48,250.15L211.14,258.26L211.47,257.44L211.8,260.4L212.13,262.53L212.47,261.43L212.8,260.19L214.12,270.99L214.46,269.37L214.79,268.03L215.45,263.03L215.78,264.77L216.11,263.27L216.44,263.97L216.78,269.1L217.44,263.85L217.77,267.72L218.1,267.59L218.43,268.28L218.76,266.43L219.1,266.92L219.43,267.76L219.76,264.02L220.09,270.16L221.08,277.76L221.42,274.61L221.75,276.68L222.08,273.56L222.74,272.92L223.07,275.61L223.4,274.88L223.74,276.7L225.06,273.63L225.39,274.24L225.72,276.47L226.06,274.42L226.39,273.72L227.05,272.77L227.38,274.8L228.38,279.81L228.71,278.81L229.04,275.81L229.37,272.22L229.7,273.82L230.03,275.52L230.37,279.32L230.7,278.88L231.03,276.75L233.02,282.92L233.35,280.46L233.68,278.55L234.01,281.19L235.01,286.8L235.34,284.97L235.67,283.43L236.66,288.12L236.99,285.53L237.33,283.02L237.66,284.69L237.99,285.03L238.32,284.78L238.65,288.76L239.31,304L239.65,298.14L239.98,288.53L241.63,276.17L241.97,281.45L243.29,284.81L243.62,283.67L243.96,283.79L244.29,285.07L244.95,287.15L245.28,285.64L245.61,285.57L245.94,287.09L246.94,284.16L247.27,284.94L247.93,279.44L248.26,280.37L248.6,283.09L249.59,280.78L249.92,272.56L250.25,270.88L250.58,272.11L250.92,272.33L251.25,272.6L251.58,272.09L251.91,268.08L252.24,261.93L252.9,263.55L253.24,265.46L253.57,263.04L253.9,265.87L254.23,264.67L254.89,250.24L255.22,251.48L255.56,255.4L255.89,255.59L256.22,257.3L256.55,266.13L256.88,261.47L257.21,260.61L257.54,260.16L257.88,263.63L258.54,261.79L258.87,263.18L260.53,269.53L260.86,262.4L261.19,263.43L261.52,255.09L261.85,258.3L262.19,255.98L262.52,253L262.85,252.06L263.18,253.5L264.17,256.4L264.51,253.97L264.84,253.52L265.17,256.37L265.83,262.1L266.16,259.88L266.49,258.13L267.49,262.21L267.82,262L268.15,262.04L268.81,255.61L269.15,258.5L269.48,261.3L269.81,258.82L270.14,261.39L270.47,259.64L271.47,234.61L271.8,238.44L273.12,230.86L273.46,232.77L274.45,238.06L274.78,236.86L275.11,238.63L275.44,228.83L276.77,231.84L277.1,232.27L278.1,234.46L278.43,233.69L278.76,232.49L279.09,232.12L279.42,235.35L279.75,237.57L280.08,235.39L280.42,235.62L281.41,238.83L281.74,236.91L282.07,244.08L282.4,235.92L282.74,234.04L283.07,233.51L283.4,237.21L283.73,237.99L284.06,240.7L284.39,240.29L284.72,240.64L285.06,236.4L285.39,237.12L285.72,242.13L286.38,242.14L286.71,243.46L287.04,239.67L287.38,241.79L287.71,245.74L288.04,250.09L288.7,249.41L289.03,249.52L289.37,240.07L290.03,240.54L290.36,242.27L290.69,241.62L291.02,245.46L291.69,248.25L292.02,245.67L292.35,247.81L292.68,245.25L293.01,245.17L294.01,251.2L294.34,250.64L294.67,249.68L295.33,254.36L295.66,252.05L295.99,255.62L296.33,250.51L296.66,253.83L296.99,251.79L297.32,251.94L297.98,254.68L298.31,257.22L299.31,252.54L299.64,254.33L299.97,253.6L300.3,258.17L300.63,258.2L300.97,256.96L301.63,248.86L301.96,253.11L302.62,261.62L303.29,261.43L303.62,258.67L304.28,262.84L304.61,260.2L305.28,264.86L305.61,250.41L305.94,244.63L306.6,245.94L306.93,250.3L307.6,259.72L307.93,257.79L308.26,251.33L308.59,250.98L308.92,254.15L309.25,254.51L309.58,259.99L310.58,252.49L310.91,254.65L311.24,256.82L311.9,259.8L312.24,259.42L312.57,251.5L312.9,250.71L313.23,252.54L314.22,255.37L314.56,253L315.55,244.4L315.88,249.35L316.88,254.36L317.21,253.32L318.53,258L318.87,257.51L319.2,258.04L319.53,246.02L320.19,244.56L320.52,251.07L321.52,254.32L321.85,253.4L322.18,248.19L322.51,249.1L322.84,251.37L323.84,256.14L324.17,255.75L324.5,255.79L324.83,253.19L325.16,254.5L325.49,254.23L326.16,255.76L326.49,255.08L326.82,252.44L327.15,254.4L327.48,255.75L327.81,256.12L328.15,260.18L328.81,259.91L329.14,258.62L330.8,266.08L331.13,263.52L331.46,262.61L331.79,263.64L332.12,265.08L332.46,264.43L332.79,266.04L333.12,267.23L333.45,260.7L333.78,260.24L334.11,261.62L334.78,262.56L335.11,259.12L335.77,261.25L336.1,259.15L337.1,263.4L337.43,264.8L337.76,264.1L338.09,260.76L338.42,260.64L338.75,262.36L340.08,264.71L340.41,257.86L340.74,248.27L341.07,250.07L341.4,254.44L342.4,257.08L342.73,255.24L343.06,252.73L343.39,254.31L343.72,254.99L344.72,257.58L345.05,255.12L345.38,253.79L345.71,257.38L346.71,253.42L347.04,252.98L347.37,251.18L347.7,251.46L348.03,253.07L348.37,252.49L348.7,255.56L349.36,254.99L349.69,259.63L350.35,257.37L350.69,263.22L352.01,259.95L352.34,262.43L352.67,261.75L353.01,262.86L353.67,265.32L354,260.06L354.33,265.08L354.66,261.47L354.99,261.2L355.33,260.97L355.66,262.67L355.99,262.08L356.32,263.11L356.65,264.62L356.98,260.79L357.98,265.33L358.31,264.06L358.97,266.06L359.3,263.82L359.63,262.27L359.97,264.35L360.3,277.91L360.63,275L360.96,266.14L361.62,260.02L361.96,261.91L362.29,261.13L362.62,259.31L362.95,263.09L363.28,265.22L363.61,263.99L363.94,261.16L364.28,258.31L364.61,262.06L364.94,263.34L365.27,262.85L365.6,260.73L366.26,249.11L366.6,249.14L366.93,253.29L367.92,252.3L368.25,236.65L368.58,236.26L368.92,237.96L370.24,245.78L370.57,241.96L371.24,242.22L371.57,240.7L371.9,236.06L372.56,239.19L372.89,244.82L373.89,246.55L374.22,248.48L375.54,253.17L375.88,251.45L376.54,256.51L376.87,256.42L377.2,258.62L377.53,258.9L377.87,256.98L378.2,256.27L378.53,258.88L379.19,261.52L379.52,257.97L379.85,242.11L380.19,243.16L380.52,246.13L381.51,248.56L381.84,254.35L382.17,254.27L382.51,255.57L384.16,262.82L384.49,260.89L384.83,253.6L385.16,260.78L385.49,263L385.82,263.19L386.15,264.38L386.81,263.17L387.15,263.49L387.48,267.13L387.81,267.34L388.14,266.69L388.47,267.97L388.8,266.1L389.13,268.92L389.47,268.14L389.8,270.27L390.46,269.57L390.79,265.33L391.12,265.55L391.46,262.33L392.12,259.6L392.45,264.04L392.78,263.43L393.11,266.47L393.44,265.14L393.78,267.14L394.11,263.96L394.77,264.11L395.1,264.83L395.43,264.04L395.76,267.86L396.1,261.45L396.43,262.29L396.76,264.03L397.42,267.26L397.75,265.39L398.08,265.39L398.42,260.54L399.74,267.03L400.07,265.61L400.4,266.46L400.74,270.66L401.07,269.52L401.4,271.74L402.39,273.76L402.72,272.19L403.06,267.42L403.39,271.31L403.72,270.48L404.71,270.08L405.04,270.35L406.04,266.96L406.37,263.23L406.7,265.9L407.03,261.87L407.37,262.15L407.7,261.42L409.69,257.27L410.02,254.63L411.01,272.92L411.34,272.7L411.67,271.66L412.01,272.43L412.34,268.34L413,272.98L413.33,269.83L413.66,263.03L413.99,265.89L414.33,270.11L414.66,270.3L414.99,269.45L416.31,275.16L416.65,275.54L417.31,271.35L417.64,274.19L418.63,279.55L418.97,280.22L419.63,276.89L419.96,283.1L421.29,279.83L421.62,280.65L423.28,274.82L423.61,277.48L424.27,274.84L424.6,276.46L424.93,276.2L425.6,279.36L425.93,278.99L426.26,277.85L427.58,283.51L427.92,279.37L428.58,279.58L428.91,278.63L429.24,275.95L429.57,276.43L429.9,276.89L430.24,275.68L430.57,281.34L431.56,287.7L431.89,287.84L432.22,287.11L432.56,288.09L432.89,287.83L433.88,290.97L434.21,290.82L434.88,293.39L435.21,292.92L435.54,285.39L435.87,282.95L436.2,287.03L437.2,283.21L437.53,283.12L437.86,281.91L438.19,282.78L438.52,283.62L438.85,281.64L439.19,283.79L439.52,284.34L440.51,283.23L440.84,286.29L441.17,283.8L441.51,285.64L441.84,286.62L442.83,276.54L443.16,277.37L443.49,277.16L444.16,277.91L444.49,277.23L444.82,277.47L445.81,275.17L446.15,275.08L446.48,275.61L446.81,273.62L447.47,275.97L447.8,275.37L448.13,275.14L448.8,272.78L449.13,274.22L449.79,268.02L450.12,271.15L450.79,272.24L451.12,269.28L451.45,269.24L451.78,262.77L452.11,262.96L452.44,266.62L452.78,267.55L453.11,267.19L453.44,265.89L453.77,265.9L454.1,260.75L455.1,263.31L455.43,262.83L455.76,262.75L456.09,263.88L456.42,266.55L456.75,264.54L457.08,265.15L457.42,260.83L458.08,261.24L458.41,262.57L458.74,264.53L459.07,261.86L459.4,262.81L459.74,260.85L460.07,264.35L460.4,261.46L460.73,261.07L461.06,261.86L461.39,259.69L461.72,259.42L462.06,254.84L465.37,266.44L465.7,263.38L466.37,265.45L466.7,262.19L467.69,270.14L468.02,262.17L468.35,260.45L468.69,262.68L469.02,260.3L469.35,261.78L469.68,262.27L470.01,263.1L470.34,250.5L470.67,250.33L471.01,254.12L471.67,253.22L472,253.52" style="vector-effect: non-scaling-stroke; fill: none; stroke: rgb(0, 204, 150); stroke-opacity: 1; stroke-width: 2px; opacity: 1;"/></g><g class="points"/><g class="text"/></g><g class="trace scatter trace5389d7" style="stroke-miterlimit: 2; opacity: 1;"><g class="fills"/><g class="errorbars"/><g class="lines"><path class="js-line" d="M0,157.06L0.33,143.45L0.99,146.6L1.33,145.48L1.66,147.17L1.99,141.76L2.32,144.02L2.65,142.7L2.98,141.63L3.98,147.85L4.31,142.81L4.64,137.64L4.97,142.29L5.3,142.84L6.3,143.84L6.63,141L6.96,138.92L7.29,143L7.62,142.78L7.96,131.41L8.95,145.44L9.28,141.8L10.28,151.62L10.61,150.09L10.94,147L11.27,142.34L11.6,142.62L11.93,149.74L12.26,149.82L12.6,152.4L12.93,154.7L13.26,151.39L13.92,145.76L14.25,146.12L14.58,155.07L16.24,139.94L16.57,146.74L17.24,144.27L17.57,146.08L17.9,145.89L18.23,141.17L18.56,140.26L18.89,143.09L19.56,141.5L19.89,145.03L20.55,160.1L20.88,158.07L21.21,161.24L21.54,161.08L21.88,159.67L22.21,161.24L22.54,158.1L23.2,149.94L23.53,157.69L24.2,156.7L24.53,153.22L24.86,152.24L25.19,147.61L25.52,124.1L26.19,128.77L26.52,129.11L27.18,136.82L27.84,136.63L28.17,137.12L29.17,139.84L29.5,137.86L29.83,139.15L30.16,136.65L30.83,140.34L31.16,139.03L31.82,147.21L32.15,146.63L32.48,144.61L33.15,144.23L33.48,147.44L33.81,145.88L34.14,123.6L34.8,126.27L35.13,125.25L35.47,120.94L35.8,125.61L36.13,127.66L36.79,138.81L37.12,128.48L38.12,139.28L38.45,138.65L38.78,144.96L39.11,144.18L39.44,135.48L39.78,135.77L40.11,138.34L40.44,138.95L40.77,141.58L41.76,135.92L42.1,142.26L42.43,142.1L42.76,143.46L43.42,151.61L43.75,147.78L44.08,142.72L44.42,149.17L44.75,150.1L45.08,148.79L45.41,157.85L46.4,148.3L46.74,149.86L47.07,150.57L47.4,150.82L47.73,149.45L48.06,137.46L48.39,138.05L48.72,141.97L49.06,149.99L50.05,147.27L51.04,145.29L51.38,153.09L52.37,154.9L52.7,154.91L53.37,150.82L53.7,155.41L54.03,154.95L54.36,150.4L54.69,149.86L55.02,156.19L55.35,154.1L55.69,157.01L56.02,163.93L56.35,162.03L56.68,160.45L57.01,161.38L57.34,157.92L58.34,167.26L58.67,165.73L59,166.36L59.33,165.37L59.99,157.8L60.33,160.05L60.66,165.74L60.99,171.47L61.32,164.54L61.65,164.86L62.65,150.58L62.98,154.12L63.31,147.8L63.64,152.07L63.97,154.93L64.3,156.82L64.63,153.82L64.97,153.94L65.3,155.82L65.63,155.38L65.96,153.1L66.62,173.6L66.96,162.46L67.62,162.56L67.95,157.75L68.28,159.5L68.61,145.99L68.94,163.93L69.28,160.83L69.61,162.95L69.94,163.24L71.26,159.28L71.6,158.55L72.26,165.53L72.59,162.31L72.92,159.32L73.58,165.7L73.92,162.74L74.25,166.12L74.58,166.68L74.91,164.84L75.24,165.82L75.57,170.74L75.9,169.79L76.24,166.33L76.9,169.29L77.23,168.34L77.56,168.7L77.89,169.72L78.22,161.58L78.56,158.41L78.89,159.06L79.22,165.99L79.55,167.11L79.88,164.81L80.88,163.62L81.21,164.65L81.87,167.78L82.2,166.75L82.53,164.16L82.87,169.62L83.2,152.82L84.19,170.7L84.52,169.98L84.85,166.18L85.19,168.95L85.52,167.68L85.85,165.7L86.18,174.01L86.51,170.13L86.84,166.49L87.17,166.37L87.51,169.89L88.17,164.57L88.5,170.44L89.49,167.85L89.83,168.04L90.49,164.26L90.82,169.87L91.15,178.32L91.48,171.55L91.81,171.03L92.81,165.39L93.14,175.02L95.13,163.2L95.46,167.68L96.12,179.51L96.46,177.47L96.79,172.04L97.12,167.07L97.45,167.97L97.78,176.55L98.11,173.99L98.44,179.32L99.44,171.08L99.77,165.57L100.1,177.15L100.43,171.95L100.76,169.42L101.1,166.23L101.43,171.16L101.76,170.31L102.09,167.17L102.75,174.69L103.08,173.62L103.42,173.97L103.75,167.23L104.41,168.3L104.74,173.01L105.74,174.29L106.07,169.86L106.4,170.19L106.73,171.98L107.39,174.96L107.72,174.13L108.06,174.72L108.39,168.33L108.72,171.18L109.05,175.33L109.38,181.36L109.71,178.84L110.04,177.98L110.38,175.92L110.71,176.86L111.04,180.54L111.37,190.25L111.7,188.4L112.03,185.93L112.37,190.03L112.7,184.49L113.03,173.46L113.36,180.5L113.69,187.5L115.02,181.46L115.35,162.27L116.01,172.16L116.34,167.08L117.34,174.03L117.67,183.89L118,188.64L118.33,211.38L118.66,234.25L118.99,185.9L119.33,170.92L119.99,173.1L120.32,166.8L120.98,190.77L121.31,166.52L121.98,173.14L122.31,172.77L122.64,168.7L122.97,169.66L123.3,174.17L123.63,173.47L123.97,175.79L124.63,167.48L124.96,162.5L125.29,163.78L125.62,170.03L125.96,175.88L126.29,173.49L126.62,170L127.61,157.3L127.94,164.65L128.28,169.29L128.61,164.78L128.94,166.3L129.6,160.63L129.93,165.32L130.26,175.92L130.6,175.4L130.93,172.75L131.26,172.4L131.59,173.39L132.25,165.5L132.58,177.58L132.92,176.41L133.25,178.53L133.58,175.36L133.91,157.99L134.24,155.95L134.57,161.49L135.57,173.27L135.9,172.35L136.56,160.15L136.89,162.34L137.22,167.64L138.22,170.28L138.55,168.74L138.88,166.13L139.21,167.01L139.54,174.29L139.88,169.94L140.21,170.56L140.54,171.65L140.87,159.14L141.2,163.53L141.53,169.13L142.53,176.75L142.86,175.92L143.19,168.39L143.52,169.68L143.85,174.21L144.85,183.16L145.18,182.89L145.51,173.39L146.51,185.47L146.84,183.22L147.17,181.83L147.5,184.36L147.83,171.95L148.16,167.68L148.49,168L148.83,174.68L150.48,164.92L150.81,166.51L151.15,177.9L151.81,175.14L152.14,175.38L153.13,163.72L153.47,173.21L153.8,174.66L154.13,172.55L154.46,174.32L154.79,168.7L155.12,163.89L155.46,165.29L155.79,168.59L156.12,161.62L156.45,167.02L156.78,170.53L157.11,149.85L157.44,161.75L157.78,160.59L158.44,164.59L158.77,162.27L160.43,171.82L160.76,172.88L161.09,179.18L161.42,175.95L161.75,176.81L162.42,176.53L162.75,178.98L163.74,174.5L164.07,177.34L164.4,174.58L164.74,175.77L165.07,181.43L166.39,169.28L166.72,167.82L167.39,185.73L167.72,182.22L168.05,181.94L168.38,180.93L168.71,155.3L170.04,160.03L170.37,167.13L170.7,165.49L171.03,169.12L171.7,157.77L172.03,158.59L172.36,163.69L172.69,159.15L173.02,164.51L173.35,161.25L174.35,168.82L174.68,167.69L175.67,164.25L176.01,159.21L176.34,162.26L176.67,161.78L177,137.29L177.99,156.98L178.33,162.13L178.99,169.29L179.32,166.99L179.65,167.23L179.98,168.59L180.31,141.89L180.65,140.82L180.98,141.54L181.31,145.77L182.3,164.08L182.63,156.71L182.97,157.45L183.3,161.3L183.63,162.54L183.96,159.7L184.62,161.46L184.96,154.83L185.29,156.25L185.62,155.69L185.95,163.43L186.28,159.72L186.61,162.82L186.94,161.31L187.28,163.08L187.61,162.49L187.94,158.77L188.27,156.59L188.6,157.98L188.93,161.55L189.93,151.36L190.26,154.3L190.59,151.62L190.92,153.43L191.25,154.68L192.58,159.2L192.91,159.9L193.57,154.38L193.9,157.3L194.24,150.32L194.57,150.98L194.9,153.31L195.56,155.36L195.89,152.96L196.22,152.56L196.56,154.49L197.22,159.55L197.55,159.39L197.88,160.44L198.21,165.65L198.54,162.4L198.88,157.86L199.21,159.33L199.54,157.06L199.87,162.26L200.2,161.67L200.53,158.54L200.87,155.83L201.2,142.62L202.85,134.46L203.19,135.72L203.85,126.89L204.18,128.65L204.51,133.61L204.84,135.95L205.17,134.02L205.51,133.78L205.84,130.85L206.17,131.89L206.5,137.46L206.83,137.69L207.16,133.76L207.49,138.66L207.83,137.33L208.16,128.82L208.49,130.39L208.82,139.2L209.15,137.23L209.48,138.74L209.81,142.85L210.15,139.58L210.48,109.45L212.13,135.33L212.47,133.5L212.8,127.92L213.46,128.63L213.79,141.13L214.12,135.59L214.46,141.38L214.79,142.1L215.12,125.99L215.45,129.96L215.78,135.59L216.78,140.75L217.11,140.52L217.44,127.08L217.77,130.22L218.1,133.29L218.76,132.67L219.1,136.84L220.75,150.5L221.08,152.16L221.42,155.85L221.75,149.32L222.08,141.07L222.41,141.86L222.74,144.95L223.4,150.03L223.74,148.13L224.07,147.74L224.73,156.8L225.06,150.89L225.39,158.16L226.06,157.72L226.39,153.71L227.05,149.68L227.38,152.6L227.71,155.17L228.38,154.81L228.71,154.34L229.37,158.81L229.7,157.37L230.03,159.94L230.37,158.52L230.7,152.55L231.03,153.34L231.36,133.48L232.02,147.39L232.35,142.47L232.69,144.19L233.35,151.51L233.68,146.71L234.01,159.14L234.67,157.52L235.01,159.61L235.34,160.55L235.67,157.06L236,154.58L236.33,160.58L236.66,160.3L236.99,157.26L237.99,168.92L238.32,154.77L238.98,162.78L239.31,172.67L239.65,207.65L239.98,149.29L240.31,132.38L240.97,134.89L241.3,137.08L241.97,153.72L242.3,140.75L242.63,138.28L242.96,141.76L243.29,140.77L243.62,135.51L244.62,142.11L244.95,141.29L245.28,140.94L245.61,139.48L246.28,140.85L246.61,140.42L246.94,139.49L247.27,142.41L247.6,133.97L248.26,133.97L248.6,141L248.93,141.69L249.26,140.01L250.25,131.45L250.58,126.94L250.92,136.28L251.58,133.9L251.91,130.67L252.24,123.7L252.9,125.15L253.24,125.82L253.9,132.36L254.23,126.83L254.56,120.2L255.22,120.97L255.56,125.81L255.89,122.08L256.22,125.05L256.55,132.61L256.88,132.06L257.21,121.25L257.88,125.57L258.21,121.54L258.54,121.87L258.87,124.37L259.2,112.85L259.53,115.22L259.87,119.98L260.2,120.46L260.53,117.58L260.86,116.44L261.19,117.48L261.52,113.08L261.85,111.15L262.19,116.37L262.52,117.46L262.85,115.96L263.18,114.76L263.51,117.26L263.84,118.88L264.17,114.98L264.51,112.5L264.84,118.84L266.49,110.25L266.83,112.28L267.16,112.27L267.49,110.95L268.15,115.1L268.48,105.06L268.81,106.43L269.15,105.83L269.48,104.76L270.14,110.13L270.47,109.32L270.8,86.41L271.47,89.31L271.8,84.27L272.13,84.06L272.46,86.61L272.79,87.61L273.12,97.72L273.46,98.03L273.79,100.78L274.12,107.04L274.45,104.39L274.78,103.36L275.78,87.13L276.11,88.23L276.44,95.3L277.1,99.15L277.43,95.57L278.1,90.25L278.43,93.72L278.76,94.5L279.09,93.37L279.42,97.05L279.75,95.87L280.08,87.63L280.42,85.08L280.75,89.49L281.08,94.9L281.74,94.21L282.07,95.8L282.74,87.03L283.07,92.87L284.06,99.45L284.39,99.06L284.72,96.25L285.72,99.71L286.05,99.7L286.38,100.02L286.71,102.59L287.04,94.48L287.38,97.17L287.71,99.83L288.7,103.91L289.03,104.56L289.37,84.64L289.7,86.05L290.03,90.55L291.02,93.43L291.35,91.2L293.34,102.83L293.67,102.14L294.67,110.17L295,109.36L295.33,108.95L295.66,109.33L295.99,108.54L296.66,108.61L296.99,110.32L297.98,117.99L298.31,116.69L298.65,116.25L298.98,112.86L299.31,118.04L300.63,123.35L300.97,110.57L301.3,110.35L301.63,112.56L301.96,118.83L302.29,115.8L302.62,116.84L302.96,114.14L303.29,102.03L303.62,99.58L303.95,109.02L304.94,116.33L305.28,114.18L305.94,100.05L306.27,102.28L306.6,105.57L306.93,104.21L307.26,106.16L307.93,106.2L308.26,100.65L308.92,109.17L309.58,108.78L309.92,110.03L310.58,68.17L310.91,75.47L311.24,82.08L312.24,94.48L312.57,64.96L312.9,63.97L313.23,68.23L314.56,77.66L314.89,72.35L315.22,70.03L315.55,70.98L315.88,71.48L316.54,72.54L316.88,70.01L317.21,64.57L317.54,64.99L317.87,66.91L318.2,66.57L318.53,62.86L319.2,74.46L319.53,59.32L320.19,51.89L320.52,81.79L320.85,85.92L321.19,84.55L321.52,76.42L322.51,86.7L322.84,91.13L323.17,87.74L323.51,75.44L323.84,68.15L324.17,69.31L324.5,70.61L325.16,80.65L325.49,79.86L325.83,73.25L326.49,74.26L326.82,72.21L327.15,72.24L327.48,79.07L328.15,75.23L328.48,77.96L328.81,78.07L329.14,73.47L329.47,74.39L329.8,80.82L330.13,78.07L330.47,78.38L330.8,79.14L331.46,69.79L331.79,86.24L332.46,76.62L332.79,79.57L333.12,81.22L333.45,75.33L333.78,78.97L334.11,77.65L334.44,82.79L334.78,82.4L335.11,80.9L335.44,82.13L335.77,70.87L336.1,68.22L336.43,70.74L336.76,77.84L337.1,74.69L337.43,75.26L337.76,80.31L338.09,78.77L338.42,71.89L338.75,72.83L339.08,77.54L339.42,77.77L339.75,81.1L340.08,77.47L340.41,82.31L340.74,71L341.07,74.47L341.4,76.68L342.07,78.47L342.4,77.24L342.73,73.06L343.06,76.03L343.39,74.95L344.06,74.63L344.39,77.36L344.72,76.82L345.05,80.64L345.38,74.85L345.71,74.72L346.04,79.9L346.71,80.64L347.04,78.78L347.37,62.88L347.7,64.53L348.03,73.78L348.37,73.58L348.7,76.35L349.36,70.66L349.69,74.79L350.02,70.25L350.35,74.22L350.69,72.58L351.02,71.2L351.35,74.75L352.01,76.53L352.34,80.42L352.67,87.3L353.01,85.77L353.34,81.09L354.66,93.59L354.99,92.57L355.33,85.96L355.66,85.37L355.99,86.31L356.32,88.67L356.65,96.04L356.98,95L357.31,93.74L357.98,92.02L358.31,92.84L358.64,92.35L358.97,88.76L359.3,93.16L359.63,93.16L359.97,97.13L360.3,119.41L360.63,156.93L360.96,81.67L361.96,63.71L362.29,66.99L362.62,74.33L362.95,98.89L363.94,66.51L364.28,64.18L365.27,70.41L365.6,69.47L365.93,63.69L366.6,57.12L366.93,62.85L367.26,58.67L367.59,62.67L367.92,64.04L368.92,55.77L369.25,61.68L369.58,61.36L369.91,64.7L370.24,62.82L370.57,52.3L370.9,45.83L371.24,51.66L371.57,59.78L371.9,58.81L372.23,59.56L372.56,65.4L373.22,54.19L373.56,62.92L373.89,65.77L374.55,65.37L374.88,66.08L375.21,71.76L375.54,66.37L375.88,69L376.21,72.63L376.54,69.32L376.87,67.8L377.53,75.14L377.87,71.82L378.2,73.17L378.53,79.41L378.86,79.02L379.19,76.24L380.19,71.46L380.52,75.8L380.85,81.53L381.18,77.3L381.51,76.3L381.84,76.42L382.17,59.65L383.83,81.99L384.16,80.04L384.83,74.92L385.16,79.01L385.49,83.22L385.82,82.42L386.15,78.78L386.48,77.57L386.81,72.72L387.15,68.94L387.48,71.58L387.81,75.12L389.13,86.46L389.47,88.99L390.13,90.5L390.46,87.48L391.46,94.59L391.79,92.31L392.12,89.44L393.11,94.26L393.44,93.32L394.11,85.73L394.44,87.5L394.77,85.57L396.1,80.01L396.43,81.32L396.76,81.75L397.09,79.58L397.42,76.82L397.75,77.77L398.08,78.89L398.42,69.26L398.75,72.94L399.08,79.51L399.74,77.31L400.07,79.33L401.4,94.71L401.73,90.3L402.72,88.79L403.06,72.82L403.72,94.87L404.05,84.52L404.38,80.95L404.71,82.51L405.04,84.57L405.38,79.21L405.71,88.56L406.04,92.25L406.37,82.37L407.7,68.43L408.03,80.25L408.36,82.61L408.69,75.19L409.02,72.36L409.35,79.22L409.69,78.52L410.02,80.75L410.68,100.86L411.01,88.21L412.01,79.86L412.34,107.18L412.67,109.88L413,105.23L413.99,82.12L414.33,83.07L414.66,79.26L415.32,93.64L415.65,84.49L415.98,89.1L416.31,86.81L416.65,85.7L416.98,85.05L417.31,86.59L417.64,94.08L417.97,81.53L418.97,86.84L419.3,86.06L419.63,93.55L419.96,100.95L420.29,87.79L420.96,83.13L421.29,86.24L421.62,82.31L421.95,89.63L422.28,92.22L422.61,81.03L422.94,80.08L423.28,83.27L423.94,72.97L424.27,82.78L424.6,86.82L424.93,69.51L425.26,69.6L425.6,71.2L425.93,69.35L426.26,72.99L426.92,79.22L427.25,69.06L428.25,75.29L428.58,71.79L428.91,82.41L429.24,81.52L429.57,66.44L430.24,71.51L430.57,88.57L430.9,83.56L431.23,85.52L431.56,90.47L432.22,75.26L432.56,79.68L432.89,76.32L433.55,91.05L433.88,90.24L434.21,83.57L434.88,79.74L435.21,83.25L435.54,78.6L435.87,84.55L436.2,86.01L436.53,76.05L436.87,74.27L437.2,75.74L437.53,78.43L438.52,91.21L438.85,81.18L440.18,65.65L440.51,72.79L440.84,83.13L441.17,73L441.51,73.63L443.16,86.04L443.49,76.83L445.48,87.04L445.81,82.68L447.14,75.74L447.47,86.08L447.8,90.98L448.13,83.99L448.8,88.42L449.13,83.95L449.46,68.25L449.79,74.08L450.12,81.89L450.46,66.52L450.79,70.93L451.12,73.62L451.78,71.61L452.11,82.33L452.44,82.49L452.78,75.02L453.11,74.76L453.44,77.93L453.77,75.77L454.1,68.3L454.43,70.14L454.76,76.74L455.43,74.26L455.76,76.76L456.09,77.85L456.42,75.85L457.08,90.4L457.42,89.55L457.75,84.45L458.74,79.45L459.07,84.12L459.4,89.19L459.74,83.74L460.07,82.59L460.4,93.69L460.73,82.85L461.06,85.3L461.72,91.05L462.06,86.7L462.39,83.8L462.72,84.98L463.05,85.43L464.38,96.05L464.71,89.67L465.37,81.62L465.7,82.34L466.03,86.65L466.37,90.65L466.7,88.84L467.03,86.49L467.69,88.31L468.02,79.02L468.69,93.21L469.02,91.87L469.35,89.13L470.01,90.88L470.34,83.56L471.01,104.82L471.34,104.24L471.67,103.84L472,102.68" style="vector-effect: non-scaling-stroke; fill: none; stroke: rgb(171, 99, 250); stroke-opacity: 1; stroke-width: 2px; opacity: 1;"/></g><g class="points"/><g class="text"/></g><g class="trace scatter tracee02cf7" style="stroke-miterlimit: 2; opacity: 1;"><g class="fills"/><g class="errorbars"/><g class="lines"><path class="js-line" d="M0,211.91L1.33,206.77L1.66,208.44L1.99,203.3L2.32,203.99L2.65,209.15L2.98,204.11L3.65,204.65L3.98,207.4L4.64,200.97L4.97,202.78L5.3,205.03L5.63,205.4L5.97,203.87L6.3,206.08L6.63,201.81L6.96,199.38L7.29,203.11L8.29,200.97L8.62,204.53L9.28,202.32L9.61,205.91L10.28,205.58L10.61,207.92L10.94,207.67L11.27,205.35L11.6,203.84L11.93,208.88L12.6,209.05L12.93,210.59L13.59,202.8L13.92,203.15L14.25,208.59L14.58,208.12L14.92,209.05L16.24,202.6L16.57,207.09L17.57,213.13L17.9,208.09L18.56,203.74L18.89,205.16L19.22,205.53L19.56,209.69L19.89,209.04L20.22,211.88L20.55,209.65L20.88,211.34L21.21,214.69L22.21,217.09L22.54,210.66L22.87,208.45L23.2,210.15L23.53,212.81L23.87,214.42L24.2,211.83L25.19,206.52L25.52,205.47L26.19,202.43L26.52,205.2L26.85,205.66L27.18,201.86L27.84,209.06L28.17,207.31L28.51,208.97L29.5,207.1L29.83,206.21L31.16,211.87L31.49,209.79L31.82,211.7L32.15,207.72L33.81,213.67L34.14,201.48L34.47,201.26L34.8,204.15L35.47,204.74L35.8,203.05L36.46,207.34L36.79,207.25L37.12,202.89L38.12,208.61L38.45,205.1L40.44,210.43L40.77,210.1L41.1,209.43L41.43,204.65L41.76,204.98L42.1,208.86L42.43,209.35L42.76,208.97L43.09,207.67L43.42,212.06L43.75,207.97L44.08,209.32L45.41,213.11L45.74,206.88L46.07,205.62L46.4,201.27L47.73,206.6L48.06,202.69L48.72,204.39L49.06,211.93L50.71,199.16L51.04,199.26L51.38,207.49L52.37,204.63L52.7,199.89L53.03,193.84L53.37,194.92L53.7,200.69L54.36,200.98L55.35,196.52L55.69,197.18L56.68,202.06L57.01,202.12L58.01,196.97L58.34,200.23L58.67,201.51L59,199.3L59.33,201.15L59.66,197.48L59.99,198.64L60.33,197.02L60.66,204.73L60.99,202.16L61.32,202.44L61.98,202.02L62.31,197.66L62.65,195.45L62.98,200.58L63.64,198.81L63.97,197.41L64.3,196.63L64.63,192.1L64.97,189.43L65.3,197.4L65.63,199.54L65.96,196.36L66.62,204.53L66.96,197.5L67.29,195.92L67.62,201.12L67.95,201.15L68.28,199.81L68.61,201.36L68.94,197.44L69.61,193.82L69.94,199.05L70.27,199.23L70.6,198.47L70.93,199.96L71.26,197.34L71.6,193.08L71.93,193.72L72.26,197.24L72.92,200.46L73.25,196.87L73.58,198.64L73.92,196.56L74.25,194.62L75.57,203.19L75.9,198.69L76.24,196.53L76.57,197.94L76.9,201.71L78.56,195.54L78.89,199.64L79.88,202.81L80.21,203.55L80.88,196.96L81.21,201.43L81.54,204.38L81.87,203.14L82.2,200.85L82.53,202.17L82.87,198.85L83.53,197.08L83.86,199.92L84.19,202.75L84.52,200.92L84.85,200.17L85.19,202.43L85.52,199.2L86.51,205.28L86.84,201.69L87.51,199.76L87.84,197.49L88.83,206.51L89.16,204.91L89.49,203.23L90.16,198.96L90.49,200.29L90.82,203.97L91.15,205.81L91.48,205.17L91.81,203.51L92.15,202.74L92.48,197.64L92.81,198.12L93.14,205.08L93.8,200.74L94.13,202.61L94.47,200.99L94.8,195.33L95.79,203.28L96.12,202.06L96.79,203.43L97.12,196.47L97.45,195.93L97.78,203.43L98.11,202.68L98.44,205.54L98.78,206.07L99.11,202.23L99.77,191.92L100.1,198.58L100.43,200.27L100.76,197.44L101.1,198.59L101.43,197.46L101.76,195.22L102.09,193.72L102.42,201.1L103.42,203.63L103.75,199.29L104.08,193.71L104.41,195.77L104.74,201.41L105.07,202.84L105.4,200.83L106.07,202.75L106.4,195.93L107.39,204.02L107.72,203.01L108.06,203.82L108.72,194.75L109.05,196.73L109.38,202.74L109.71,204.3L110.04,203.59L110.38,202.28L110.71,201.72L111.04,197.02L111.37,198.63L111.7,205.58L112.03,205.58L112.37,204.13L113.36,196.68L113.69,199.1L114.35,203.44L114.69,200.46L115.02,199.81L115.35,190.21L115.68,189.3L116.01,192.08L116.34,192.13L116.67,193.04L117.01,192.86L117.34,190.92L117.67,191.57L118,191.27L118.33,199.84L118.66,217.48L118.99,196.55L119.33,193.62L119.66,199.44L119.99,197.36L120.32,194.13L120.98,209.54L121.31,197.03L121.65,196.8L121.98,197.9L122.97,194.67L123.3,196.75L123.63,196.33L123.97,197.21L124.3,195.77L124.63,186.07L124.96,184.99L125.29,185.84L125.62,192.6L125.96,197.43L126.29,194.47L126.62,191.16L127.61,182.67L127.94,188.59L128.61,189.82L128.94,188.06L129.27,188.67L129.6,182.72L130.93,195.12L131.26,191.76L132.25,188.23L132.58,193.08L132.92,196.39L133.58,195.8L133.91,189.28L134.57,188.65L134.9,192.78L135.57,192.99L135.9,194.26L136.89,185.49L137.22,193.74L137.56,196.54L137.89,194.87L138.22,194.05L138.55,193.58L138.88,191.58L139.21,192.19L139.54,196.37L139.88,194.55L140.21,196.45L140.54,199.47L140.87,199.87L141.2,192.47L142.86,208.15L143.19,206.78L143.52,199.75L143.85,202.66L144.19,211.33L144.52,212.14L144.85,208.89L145.18,208.62L145.51,204.71L146.17,198.14L146.51,209.64L147.5,211.92L147.83,199.54L148.16,194.65L148.49,196.29L148.83,206.66L149.16,207.51L149.49,205.92L149.82,203.32L150.15,204.9L150.48,204.68L150.81,204.86L151.15,210.04L151.48,208.86L151.81,209.82L152.14,210.89L152.8,198.06L153.13,199.24L153.47,209.09L154.13,208.68L154.46,207.29L155.12,194.16L155.46,195.89L155.79,202.86L156.12,205.88L156.45,204.44L156.78,203.06L157.11,204.87L157.44,202.84L157.78,199.95L158.11,208.6L158.77,208.03L159.1,207.34L160.1,195.3L160.43,204.5L160.76,201.49L161.09,205.02L161.42,205.14L161.75,204.87L162.08,195.66L162.75,207.57L163.08,204.65L163.41,202.76L163.74,201.35L164.07,205.62L164.4,198.55L164.74,198.96L165.07,206.21L165.4,202.69L165.73,207.85L166.72,196.65L167.06,200.13L167.39,210.77L167.72,211.32L168.05,210.57L168.38,205L169.04,193.76L169.38,196.91L169.71,202.75L170.04,203.53L170.37,206.99L171.37,194.97L171.7,198.15L172.03,202.72L172.36,203.86L172.69,200.88L173.35,197.58L173.69,193.67L174.02,193.57L174.35,199.56L174.68,201.32L175.01,199.86L175.34,194.08L175.67,192.45L176.01,186.48L176.34,188.49L176.67,197.85L177,186.86L177.33,189.34L177.66,190.54L178.33,183.18L178.66,184.62L178.99,196.61L179.65,194.37L179.98,191.39L180.65,168.94L180.98,175.06L181.31,180.47L182.63,193.33L182.97,190.68L184.29,199.79L184.62,199.25L185.29,197.93L185.62,193.45L185.95,205.23L186.61,202.34L186.94,206.8L187.28,207.97L187.61,203.52L187.94,202.14L188.27,207.97L190.26,187.16L190.59,190.74L190.92,191.94L191.25,189.82L191.58,189.45L191.92,185.39L192.58,180.78L192.91,182.57L193.24,184.65L193.57,183.57L193.9,185.57L194.24,175.75L194.57,176.14L194.9,179.27L195.23,179.17L195.56,182.97L195.89,181.45L196.22,183.9L196.56,183.83L196.89,181.01L197.22,180.19L197.55,185.67L197.88,186.28L198.21,185.61L198.54,184.87L198.88,185.28L199.21,182.39L199.54,182.74L199.87,186.36L200.53,185.23L200.87,185.94L201.2,185.49L201.53,180.71L202.19,181.92L202.52,184.75L203.19,183.44L203.52,186.55L204.18,179.38L204.51,181.83L204.84,181.65L205.17,181.18L205.51,182.75L205.84,182.39L206.17,177.87L206.83,187.76L207.16,184.96L207.49,183.93L208.16,180.2L208.49,180.67L208.82,183.2L209.15,180.53L209.48,182.07L209.81,183.01L210.15,182.56L210.48,178.31L210.81,178.64L211.14,180.62L212.13,186.76L212.47,185.16L213.13,181.69L213.46,183.28L213.79,189.21L214.12,193.72L214.79,193.05L215.12,191.02L215.45,187.43L215.78,187.69L216.11,194.75L216.44,195.88L216.78,194.34L217.77,187.76L218.1,185.54L218.43,194.81L219.1,193.53L219.43,192.78L219.76,193.96L220.09,188.15L220.42,186.32L220.75,196.77L221.08,197.17L221.42,194.15L221.75,193.05L222.08,188.26L222.41,187.18L222.74,190.46L223.07,195.52L223.4,192.67L223.74,192.56L225.06,180.84L225.39,189.13L225.72,187.86L226.39,188.17L226.72,183.27L227.05,180.32L227.38,180.79L227.71,186.28L228.38,187.81L228.71,187.01L229.04,178.99L229.7,171.99L230.03,185.64L230.37,185.98L230.7,184.69L231.36,180.68L231.69,180.89L232.02,181.02L232.35,186.88L232.69,181.56L233.02,182.97L234.34,171.93L234.67,177.3L235.67,179.83L236,177.82L236.66,171.36L236.99,176.38L237.99,174.46L238.32,166.64L238.65,166.44L238.98,164.84L239.31,164.56L239.65,188.69L240.64,157.22L240.97,157.69L241.3,155.24L241.63,159.28L241.97,174.38L242.3,163.12L242.63,161.58L242.96,162.99L243.29,160.27L244.95,166.98L245.28,164.51L245.94,156.73L246.28,164.51L246.61,167.23L246.94,166.94L247.27,164.87L248.26,153.27L248.6,162.63L249.92,151.2L250.25,148.68L250.58,147L250.92,154.44L251.58,155.18L251.91,149.71L252.9,141.15L253.24,151.95L253.9,155.37L254.23,153.53L254.89,135.83L255.22,136.92L255.56,150.27L256.55,152.2L256.88,150.52L257.54,142.82L257.88,150.72L258.21,154.49L258.54,153.31L258.87,151.39L259.2,150.24L259.53,144.51L259.87,144.13L260.2,157.22L260.53,157.21L260.86,155.66L261.85,136.77L262.19,138.03L262.52,139.54L262.85,138.88L263.18,141.51L263.51,144.97L263.84,143.2L264.17,139.17L264.51,135.37L264.84,142.33L265.5,144.37L265.83,144.29L266.16,133.24L266.49,127.54L266.83,128.46L267.16,132.97L268.15,136.15L268.48,132.81L269.15,132.31L269.48,135.68L270.47,139.87L270.8,115.29L271.13,111.86L271.47,113.01L271.8,121.82L272.13,120.17L272.46,124.11L273.46,114.48L273.79,117.74L274.12,124.86L274.45,121.27L274.78,121.12L275.78,109.05L276.11,109.66L276.44,117.05L277.1,118.34L277.43,116.25L277.76,111.16L278.1,112.74L278.43,115.33L278.76,117.59L279.09,114.71L279.42,115.62L279.75,116.9L280.08,114.83L280.75,108.48L281.08,116L282.07,111.8L282.4,112.74L282.74,111.73L283.07,117.1L283.4,117.2L283.73,119.14L284.39,122.29L284.72,115.99L285.06,115.5L285.39,111.57L286.38,114.91L286.71,115.57L287.38,110.02L287.71,115.02L289.03,121.15L289.37,96.21L291.35,106.19L291.69,100.34L292.68,102.87L293.01,97.68L293.67,101.64L294.01,97.76L294.34,96.8L294.67,98.11L295,105L295.99,108.39L296.33,105.6L296.66,100.32L296.99,101.86L297.32,107.33L297.65,106.2L297.98,107.71L298.31,109.29L298.65,111.59L298.98,107.14L299.31,107.76L299.64,115.08L300.63,116.29L300.97,99.56L301.3,98.32L301.63,101.65L302.29,112.19L302.62,108.36L302.96,105.88L303.62,98.37L303.95,99.81L304.28,107.27L304.61,104.51L304.94,105.4L305.28,106.86L306.27,94.54L306.6,99.17L306.93,98.18L307.26,98.55L307.6,98.78L308.59,95.37L308.92,101.92L309.25,98.93L309.58,101.83L309.92,100.83L310.91,80.32L311.24,86.59L311.57,87.6L311.9,86.75L312.24,87.08L312.57,68.49L313.23,69.94L313.56,75.31L313.89,72.35L314.22,80.62L314.89,70.08L315.22,72.9L315.55,74.69L316.88,64.48L317.21,62.62L317.54,62.58L317.87,63.99L318.53,62.64L318.87,63.96L319.2,69.2L319.53,56.77L320.85,67.26L321.19,67.09L322.18,69.49L322.51,71.3L322.84,70.5L323.17,71.69L324.17,76.73L324.5,72.59L325.16,79.43L325.49,79.11L325.83,77.57L326.16,78.32L326.49,75.06L326.82,75.07L327.15,77.33L327.81,82.92L328.15,94.35L328.48,92.52L328.81,83.08L329.14,80.68L329.47,84.69L330.13,85.69L330.47,85.06L330.8,84.03L331.46,77.1L331.79,84.66L332.12,86.24L332.46,85.81L332.79,84L333.12,83.43L333.45,71.57L333.78,72.69L334.11,76.81L334.44,78.11L334.78,77.55L335.11,76.94L335.44,79.44L335.77,70.29L336.1,69.81L336.43,74.87L336.76,71.63L337.1,76.43L338.09,72.41L338.42,74.97L338.75,74.79L339.08,79.89L339.42,78.31L339.75,82L341.07,74.78L341.4,75.65L341.74,75.97L342.07,77.62L342.4,75.14L342.73,71.38L343.06,73.89L343.39,74.11L344.39,78.51L344.72,73.83L345.38,65.52L345.71,70.05L346.04,70.97L346.38,70.3L346.71,74.19L347.7,63.4L348.03,70.24L348.37,70.71L348.7,68.1L349.03,67.73L349.36,61.98L350.02,61.82L350.35,66.79L351.35,73.25L351.68,68.13L352.01,67.51L352.34,70.31L352.67,74.2L353.01,68.55L354.33,74.91L354.66,73.86L354.99,81.12L355.33,74.44L355.66,74.25L355.99,70.83L356.32,72.54L356.65,83.57L356.98,78.23L357.31,82.62L357.65,81.77L358.31,82.79L358.64,79.04L358.97,79.55L359.3,77.83L360.3,89.77L360.63,134.68L361.29,77.55L361.62,82.19L361.96,82.33L362.29,82.47L362.62,85.9L362.95,123.11L363.28,87.63L363.61,83.55L364.28,84.96L364.61,88L364.94,84.95L365.27,85.42L365.6,86.29L366.26,77.73L366.6,83.45L366.93,84.72L367.26,81.77L367.92,82.08L368.25,79.1L368.58,78.34L368.92,79.97L370.24,84.71L370.57,77.78L370.9,76.43L371.24,81.65L371.57,81.44L371.9,85.68L372.56,87.45L372.89,84.8L373.22,81.79L373.56,85.96L373.89,91.27L374.22,87L374.55,89.35L375.21,88.92L375.54,83.24L377.53,90.97L377.87,90.36L378.2,93.62L378.86,93.09L379.19,93.49L379.52,90.89L379.85,95.48L380.85,91.43L381.18,99.18L382.51,95.11L382.84,96.92L383.17,96.27L383.5,97.6L384.16,92.24L384.83,92.5L385.16,97.11L385.49,96.94L385.82,100.15L386.81,94.7L387.15,95.55L387.48,97.3L387.81,89.47L389.13,95.72L389.47,107.22L389.8,107.3L390.13,99.15L390.46,99.72L390.79,98.81L391.12,96.71L392.12,110.9L392.45,103.61L393.44,106.5L393.78,102.31L394.44,107.51L394.77,98.83L395.1,98.7L395.43,101.76L395.76,107.6L396.1,101.44L396.43,102.96L396.76,106.78L397.09,95.09L397.42,96.21L397.75,94.47L398.08,97.6L398.42,89.49L399.08,108.38L399.41,94.83L399.74,95.36L400.07,94.2L400.4,92.41L400.74,94.36L401.07,104.03L401.4,105.46L401.73,96.31L402.06,96.98L402.39,99.96L403.72,116.44L404.05,102.27L404.71,103.09L405.04,101.43L405.38,102.75L405.71,109.19L406.04,113.81L406.37,98.3L406.7,102.61L407.03,100.69L407.37,100.63L408.36,111.95L408.69,100.02L409.02,100.34L409.35,99.03L409.69,98.49L410.02,107.16L410.68,112.95L411.01,105.24L411.34,103.73L411.67,104.34L412.01,97.82L412.67,107.94L413,106.61L413.33,100.83L413.66,98.51L413.99,103.32L414.99,107.29L415.32,109.44L415.65,100.46L415.98,107.7L416.31,105L416.98,100.58L417.31,106.25L417.64,106.32L417.97,103.67L418.3,103.75L418.63,102.61L418.97,101.46L419.3,103.05L419.63,102.79L419.96,115.96L420.96,97.63L421.29,100.96L421.62,100.18L421.95,101.41L422.28,105.01L422.61,101L422.94,101.52L423.28,102.61L423.61,101.89L423.94,95.58L424.6,103.74L424.93,93.41L425.6,98.41L425.93,94.79L426.26,91.65L426.59,92.91L426.92,99.55L427.25,90.51L427.92,91.56L428.25,93.7L428.91,95.31L429.24,102.85L429.9,89.29L430.24,90.6L430.57,108.43L432.22,92.04L432.56,90.46L432.89,90.43L433.22,93.67L433.88,99.24L434.21,88.84L435.87,92.53L436.2,100.47L436.53,83.45L436.87,85.26L437.2,88.04L437.53,87.07L437.86,87.23L438.19,95.02L438.52,101.12L438.85,87.39L439.19,86.46L439.52,87.39L439.85,88.81L440.18,71.52L440.51,80.48L440.84,87.6L441.17,78.04L441.51,88.19L441.84,84.29L443.16,97.1L443.49,86.93L444.16,90.78L444.49,90.21L444.82,102.59L445.48,107.07L445.81,96.15L447.14,91.89L447.47,99.86L447.8,105.15L448.13,91.74L448.47,91.23L448.8,93.32L450.12,108.87L450.46,82.42L451.45,85.9L451.78,84.43L452.44,102.45L452.78,86.92L453.77,91.01L454.1,92.82L454.76,107.95L455.1,94.24L456.42,100.31L456.75,112.29L457.08,119.19L457.42,108L457.75,95.69L458.08,97.01L458.41,99.43L458.74,98.76L459.07,107.81L459.4,117.17L459.74,99.46L460.73,106.98L461.06,103.86L461.72,114.15L462.06,100.77L462.39,98.5L462.72,101.5L463.05,101.52L463.38,108.95L464.04,119.54L464.38,110.83L465.37,100.02L465.7,101.66L466.37,114.33L466.7,104.43L468.02,100.03L468.35,105.36L468.69,112.23L469.02,105.03L469.35,101.05L470.67,110.21L471.01,118.74L472,106.69" style="vector-effect: non-scaling-stroke; fill: none; stroke: rgb(255, 161, 90); stroke-opacity: 1; stroke-width: 2px; opacity: 1;"/></g><g class="points"/><g class="text"/></g><g class="trace scatter trace6a2587" style="stroke-miterlimit: 2; opacity: 1;"><g class="fills"/><g class="errorbars"/><g class="lines"><path class="js-line" d="M0,157.18L0.33,146.31L0.66,147.04L0.99,149.37L1.33,148.05L1.66,159.19L1.99,153.78L2.32,162.44L3.31,147.74L3.65,147.95L4.64,159.38L4.97,156.05L5.63,151.76L5.97,154.52L6.63,150.21L6.96,154.44L7.62,148.8L7.96,152.58L8.29,154.98L8.62,146.06L9.94,154.11L10.28,154.84L10.61,153.74L10.94,147.58L11.27,141.44L11.6,147.39L11.93,150.47L12.26,142.96L12.93,143.99L13.26,139.78L13.59,144.68L13.92,143.5L14.25,134.98L14.58,149.14L14.92,138.87L15.25,141.01L15.58,140.04L15.91,148.68L16.24,155.8L16.57,141.48L17.24,128.09L17.57,131.57L17.9,133.84L18.56,135.45L18.89,130.13L20.88,165.64L21.21,161.43L21.54,155.88L22.21,157.75L22.54,154.01L22.87,150.28L23.2,153.86L23.53,152.62L23.87,154.1L24.2,147.34L24.86,133.04L25.19,139.93L26.19,96.22L26.52,98.2L26.85,98.02L27.18,90.69L27.84,113.08L28.17,95.8L28.51,97.59L28.84,94.85L29.5,104.75L29.83,110.45L30.16,118.7L30.49,114.19L30.83,107.9L32.15,124.05L32.48,140.08L33.15,129.28L33.48,134.29L33.81,125.43L34.14,89.85L34.47,88.83L34.8,96.39L35.8,113.17L36.13,116.98L36.46,108.54L36.79,110.57L37.12,125.54L37.46,116.31L38.12,116.95L38.45,110.09L38.78,107.41L39.11,112.57L39.44,125.14L39.78,116.94L40.11,117.28L40.44,115.7L40.77,116.18L41.1,108.75L41.76,133.5L42.1,126.16L42.43,130.1L42.76,128.95L43.09,135.54L43.42,136.57L43.75,142.52L44.42,150.39L44.75,149L45.08,149.99L45.41,146.04L45.74,153.4L46.4,157.13L46.74,149.15L47.07,149.99L47.4,140.29L47.73,137.11L48.06,123.87L48.39,127.82L48.72,143.39L49.06,134.94L50.05,131.41L50.71,134.12L51.04,139.59L51.38,142.63L51.71,134.87L53.03,125.3L53.37,130.34L53.7,136.55L54.03,129.11L54.36,129.86L54.69,125.64L55.02,127.2L55.35,131.34L55.69,143.3L56.02,133.27L56.35,134.03L57.34,127.87L57.67,132.94L58.01,136.86L58.34,133.75L58.67,133.65L59,134.3L59.33,127.15L59.66,115.81L59.99,118.32L60.33,132.28L60.66,118.06L61.32,119.7L61.65,123.6L61.98,115.17L62.31,125.52L62.65,135.52L63.31,126.76L63.64,133.76L63.97,141.87L64.3,129.54L64.97,144.97L65.3,133.92L65.96,131.8L66.29,128.03L66.62,140.25L67.29,139.86L67.62,127.81L68.61,120.33L68.94,121.58L69.61,131.29L69.94,125.41L70.6,127.99L70.93,123.96L71.26,122.34L71.6,141.15L72.59,129.83L72.92,130.69L73.25,138.1L73.58,127.53L73.92,145.09L74.25,143.01L74.58,138.32L74.91,135.59L75.24,142.56L75.57,141.58L75.9,137.05L76.57,160.61L76.9,146.19L77.56,150.95L77.89,145.56L78.22,122.34L78.56,144.58L78.89,136.65L79.22,126.96L79.55,132.81L79.88,143.68L80.54,130.71L80.88,145.31L81.21,143.83L81.54,136.09L82.2,133.39L82.53,143.76L83.53,148.14L83.86,146.86L84.19,141.72L84.52,143.56L84.85,143.74L85.19,142.63L85.52,162.34L86.18,152.48L86.51,156.8L87.17,141.04L87.51,144.76L87.84,167.16L88.17,165.61L88.5,156.65L88.83,160.71L89.16,157.57L89.49,149.72L90.82,173.31L91.15,171.8L91.48,165.82L91.81,153.42L92.15,163.54L92.48,166.16L92.81,166.07L93.14,155.58L93.47,156.14L93.8,155.05L94.13,153.01L94.47,163.23L94.8,174.34L95.13,173.46L95.46,159.72L96.12,169.56L96.46,161.2L97.45,185.46L97.78,177.34L98.78,161.07L99.11,170.76L99.44,174.55L99.77,195.29L100.43,170.66L100.76,174.64L101.1,178L102.09,201.99L102.42,194.12L102.75,186.41L103.08,186.24L103.42,179.85L103.75,175.02L104.08,186.74L104.41,198.83L104.74,189.42L105.07,189.36L106.07,178.74L106.4,185.28L106.73,194.89L107.06,189.36L107.39,187.65L108.06,191.64L108.39,187L108.72,189.59L109.05,199.03L110.38,178.48L110.71,195.01L111.37,213.1L111.7,190.42L112.03,192.28L112.37,183.93L112.7,181.83L113.03,189.11L113.69,207.12L114.02,194.82L114.69,201.62L115.02,199.06L115.35,162.36L116.01,172.76L116.34,163.77L116.67,170.92L117.01,197.78L118.66,283.68L118.99,198L119.66,191.08L119.99,197.03L120.32,197.84L120.65,205.76L121.98,191.67L122.31,190.24L122.97,199.33L123.3,191.05L123.63,192.38L123.97,197.45L124.63,193.81L124.96,202.77L125.29,203.88L125.62,201.46L125.96,203.28L126.29,199.95L126.62,200.28L126.95,209.38L127.28,205.68L127.61,207.24L127.94,190.78L128.94,200.11L129.27,218.3L130.26,198.47L130.6,191.97L130.93,192.1L131.26,190.04L131.59,189.79L131.92,198.32L132.25,201.07L132.58,190.19L132.92,197.7L133.25,181.39L133.58,179.82L133.91,172.98L134.24,176.76L134.57,175.02L134.9,165.52L135.24,166.26L135.57,171.65L135.9,160.01L136.23,165.56L136.56,183.85L136.89,180.46L137.22,161.47L137.56,161.87L137.89,160.8L138.88,187.98L139.21,181.8L139.54,162.43L140.54,176.15L140.87,183.33L141.2,196.32L141.53,189.62L141.87,185.73L142.2,185.46L142.53,187.18L142.86,186.96L143.19,184L144.19,202.05L144.52,195.65L145.18,199.96L145.51,180.87L146.17,197.4L146.51,193.62L146.84,194.73L147.5,186.15L147.83,186.89L148.16,188.88L148.83,184.05L149.16,184.61L149.49,177.34L150.15,185.57L150.48,176.65L150.81,189.3L151.15,169.27L151.48,170.36L151.81,159.1L152.47,164.76L152.8,160.71L153.13,158.31L153.47,137.38L153.8,149.44L154.13,142.72L154.46,145.31L155.46,171.15L155.79,161.54L156.12,156.92L156.78,152.01L157.11,99.99L157.78,120.18L158.11,103.66L158.44,105.39L158.77,112.04L159.1,109.26L159.43,137.61L159.76,153.68L160.1,136.39L160.43,122.19L160.76,121.32L161.09,130.03L161.42,132.17L161.75,142.45L162.08,149.93L162.42,146.23L162.75,135.23L163.41,133.21L163.74,133.69L164.07,152.32L164.4,157.6L164.74,145.84L165.4,119.51L165.73,125.18L166.06,137.01L167.06,156.61L167.39,142.61L167.72,157.47L168.05,153.73L168.38,151.77L168.71,104.66L169.38,115.96L169.71,110.74L171.03,157.06L171.37,131.52L171.7,132.43L172.03,124.61L172.36,123.74L172.69,125.22L173.02,124.97L173.35,129.12L174.35,116.73L174.68,121.45L175.01,120.71L175.34,117.83L175.67,123.07L176.01,111.12L176.34,109.46L176.67,98.49L177,58.86L177.33,86.12L177.66,90.36L178.33,121L178.66,117.96L178.99,109.56L179.65,118.53L179.98,116.87L180.31,88.83L180.65,101.91L180.98,99.28L181.31,90.33L182.3,97.1L182.63,105.48L182.97,112.22L183.3,111.85L183.63,104.01L183.96,104.07L184.29,108.25L184.96,113L185.29,118.48L185.62,119.95L185.95,107.34L186.28,107.47L186.61,119.01L186.94,118.93L187.28,127.11L187.61,136.05L187.94,127.51L188.27,121.33L189.26,119.19L189.6,124.74L189.93,138.14L190.26,135.93L190.59,124.14L191.25,115.85L191.58,126.51L192.58,161.18L192.91,142.04L193.57,147.56L193.9,143.5L194.24,148.26L194.57,137.96L194.9,152.6L195.23,132.84L196.22,140.9L196.56,165.72L196.89,167.98L197.22,177.72L197.55,158.32L197.88,162.12L198.21,166.16L198.54,164.94L198.88,158.95L199.54,182.55L199.87,163.81L200.87,170.03L201.2,109.28L201.86,124.67L202.19,111.61L202.52,112.2L202.85,105.47L203.19,119.47L203.52,100.17L203.85,106.97L204.18,103.24L204.51,103.94L204.84,99.16L205.17,113.59L205.51,110.4L205.84,113.83L206.17,133.21L206.83,112.18L207.16,125.39L207.49,115.63L207.83,130.96L208.16,121.99L208.49,147.69L208.82,148.4L209.15,135.63L209.48,135.39L209.81,142.91L210.15,155.2L210.48,120.59L211.14,141.24L211.47,138.95L211.8,136.08L212.13,133.54L212.47,144.29L212.8,144.03L213.13,155.98L213.46,156.38L213.79,152.01L214.12,153.11L214.46,149.69L214.79,156.15L215.12,141.39L215.78,154.31L216.11,139.74L216.78,136.44L217.11,140.42L218.1,174.13L218.43,163.99L218.76,148.62L220.09,163.53L220.42,169.27L221.08,153.61L221.42,158.27L221.75,153.97L222.08,158.11L222.41,160.33L222.74,170.48L223.07,159.36L223.4,161.77L223.74,156.06L224.07,159.98L224.4,171.9L224.73,178.91L225.06,171.74L225.39,154.74L226.39,158.35L226.72,170.62L227.05,177.84L227.38,165.41L227.71,155.9L228.38,156.52L228.71,156.72L229.37,175.23L229.7,170.3L230.03,160.91L230.7,148.83L231.03,153.73L231.36,168.23L231.69,213.36L232.02,207.45L232.35,175.15L232.69,174.6L233.02,176.34L233.68,175.28L234.01,195.76L234.34,190.63L234.67,171.77L235.01,173.5L235.34,183.47L235.67,183.28L236,193.92L236.33,215.6L236.66,210.03L236.99,200.7L237.33,202.63L237.66,208.92L239.65,298.03L239.98,186.79L240.31,181.94L240.64,189.55L241.63,217.89L241.97,197.28L242.63,182.18L242.96,192.77L243.29,199.47L243.62,188.62L244.29,177.14L244.62,181.45L244.95,183.3L245.28,193.67L245.61,213.38L245.94,196.32L246.28,169.04L246.61,166.89L246.94,168.13L247.27,175.97L247.6,174.56L247.93,206.29L248.93,177.13L249.26,184.68L249.59,171.8L249.92,182.97L250.25,217.39L251.58,170.14L251.91,172.3L252.24,172.89L252.57,181.11L252.9,178.2L253.24,162.19L253.9,175.61L254.23,156.44L254.89,171.07L255.22,170.27L255.56,154.72L256.22,156.64L256.55,164.4L257.21,168.75L257.54,172.71L258.54,151.42L258.87,149.61L259.2,153.61L259.53,172.53L260.86,142.69L261.19,146.77L261.52,142.95L261.85,162.1L262.19,162.56L262.52,142.21L262.85,143.84L263.18,138.55L263.51,139.29L263.84,160.57L264.17,171.92L264.51,164.74L264.84,147.32L265.83,152.08L266.16,162.6L266.49,169.6L266.83,157.22L268.15,136.71L268.48,158.24L268.81,173.27L269.15,169.67L269.48,149.55L269.81,151.94L270.14,161.05L270.47,139.11L270.8,141.46L271.13,154.8L271.47,157.99L271.8,128.22L272.13,128.08L272.46,129.84L273.79,151.21L274.12,144.27L275.11,137.67L275.44,139.88L275.78,146.42L276.11,140.36L276.44,139.07L276.77,142.99L277.1,142.71L277.43,159.11L278.43,177.57L278.76,163.94L280.08,111.88L280.42,132.4L280.75,132.66L281.08,128.31L281.74,149.24L282.07,142.39L282.4,141.94L283.07,153.32L283.4,140.41L283.73,140.17L284.06,143.91L285.06,156.39L285.39,156.59L285.72,143.05L286.05,150.26L286.38,150.71L286.71,154.07L287.04,130.54L287.71,142.49L288.04,135.22L288.7,132.71L289.03,135.08L289.37,130.05L289.7,144.73L290.03,144.66L290.36,135L291.35,152.2L291.69,147.14L292.35,162.52L292.68,151.47L293.01,151.24L293.34,149.55L293.67,150.4L294.01,146.85L294.67,160.46L295,155.54L295.33,150.97L295.66,145.07L295.99,148.41L296.33,159.17L296.66,157.95L296.99,158.39L297.32,154.06L297.65,155.46L297.98,154.47L298.31,162.79L298.98,175.7L299.31,166.77L299.64,166.67L299.97,169.72L300.3,169.24L300.63,170.98L301.3,184.03L301.63,181.71L301.96,171.4L302.29,172.42L302.62,171.53L302.96,169.71L303.29,161.07L303.62,165.92L303.95,171L304.28,166.77L304.61,170.84L304.94,177.87L305.28,179.61L305.61,172.55L305.94,172.53L306.27,173.96L306.93,171.58L307.26,174.07L307.6,173.84L307.93,167.89L308.26,166.81L308.59,168.3L309.92,158.38L310.25,149.68L310.91,153.1L311.24,138.93L311.57,139.18L311.9,144.58L312.24,143.74L312.57,132.37L312.9,162.13L313.23,153.66L313.56,143.41L313.89,142.82L314.22,145.81L314.56,145.71L314.89,152.35L316.54,132.53L316.88,132.92L317.54,138.54L317.87,142.77L318.87,132.64L319.2,137.31L319.53,119.97L319.86,144.49L320.52,118.08L320.85,126.08L321.19,127.89L321.52,129.94L321.85,137.59L322.51,152.04L322.84,135.85L323.17,139.49L323.51,133.74L324.83,145.76L325.16,140.86L325.83,142.52L326.16,150.06L326.49,148.5L326.82,154.31L327.15,151.62L327.48,138.75L327.81,138.38L328.15,139.24L329.14,151.56L329.47,148.08L329.8,131.06L330.13,127L330.47,135.24L331.46,147.43L331.79,143.35L332.12,131.89L332.46,134.12L332.79,140.83L333.45,142.93L333.78,165.41L334.78,137.6L335.11,139.82L335.44,135.89L336.1,157.89L336.43,146.99L336.76,133.19L337.1,139.14L337.43,139.7L337.76,138.87L338.09,153.99L338.75,153.65L339.08,133.76L339.42,134.99L339.75,142.87L340.41,141.33L340.74,155.9L341.07,159.79L341.4,147.78L341.74,133.64L342.4,137.35L342.73,146.42L343.06,165.71L343.39,165.49L343.72,143.28L344.72,155.16L345.05,169.77L345.38,171.72L345.71,166.57L346.38,142.51L346.71,143.51L347.04,145L347.37,150.03L347.7,169.96L348.7,140.84L349.03,143.32L349.36,154.72L350.02,182.06L350.35,171.55L350.69,152.93L351.02,140.11L351.35,148.08L351.68,163.21L352.67,201.04L353.01,161.39L354,164.71L354.33,178.39L354.66,206.98L354.99,197.26L355.33,158.7L356.98,217.84L357.31,214.56L357.65,190.12L359.3,235.4L359.63,238.57L359.97,245.68L360.3,297.89L360.63,289.87L360.96,197.71L361.29,188.26L361.62,189.27L361.96,191.31L362.29,188.38L362.62,228.38L363.61,184.12L363.94,184.72L364.94,178.59L365.27,182.76L365.6,182.18L365.93,179.17L366.26,186.26L366.6,175.98L367.59,165.54L367.92,170.66L368.25,133.09L368.92,136.22L369.25,128.22L369.58,123.55L369.91,129.52L370.24,133.92L371.24,185.17L371.57,154.15L371.9,136.47L372.23,144.56L372.56,147.68L372.89,144.79L373.22,168.35L374.22,147.69L374.55,150.5L374.88,162.57L375.54,181.42L375.88,177.54L376.21,156.31L377.2,172.2L377.53,202L378.2,198.34L378.53,182.99L378.86,182.29L379.19,178.59L379.52,170.78L379.85,186.88L380.19,194.78L380.52,189.12L380.85,170.98L382.51,192.63L382.84,183.12L383.17,173.61L383.5,178.06L383.83,179.14L384.16,183.57L384.49,170.39L385.49,142.36L385.82,155.33L387.48,187.33L387.81,170.55L388.8,162.31L389.13,187.99L389.47,200.33L389.8,189.68L390.13,162.69L391.79,203.19L392.12,194.59L392.45,178.81L393.11,181.05L393.44,177.25L394.11,203.66L394.44,193.39L394.77,175.34L395.76,182.7L396.1,203.07L396.76,187.01L397.09,174.98L398.42,132.44L398.75,172.14L399.08,171.56L399.41,156.95L399.74,160.72L400.07,160.44L400.4,156.5L401.4,189.41L401.73,162.36L402.06,158.51L402.39,160.75L402.72,161.12L403.06,143.54L403.39,162.04L403.72,150.14L404.05,149.51L404.38,151.25L405.04,147.62L405.38,138.42L405.71,177.61L406.04,163.13L406.37,137.55L408.03,184.53L408.36,174.98L408.69,147.97L409.02,154.23L409.35,147.92L409.69,149.1L410.02,148.32L410.35,171.98L411.01,137.98L411.34,140.95L411.67,146.84L412.67,185.27L413,174.09L413.33,156.8L413.99,117.73L414.33,136.08L414.66,143.26L414.99,155.43L415.32,143.87L415.65,132.46L416.65,140.53L416.98,132.46L417.31,144.49L417.64,134.55L417.97,123.9L419.63,158.26L419.96,152.54L420.96,139.4L421.29,138.68L421.95,163.72L422.28,161.26L422.61,135.54L423.28,122.87L423.61,130.31L423.94,114.6L424.27,130.75L424.6,121.59L425.26,115.08L425.6,124.33L426.92,148.37L427.25,142.27L427.58,149.81L428.25,149.22L428.58,147.62L428.91,157.51L429.24,155.08L429.57,141.8L429.9,143.96L430.24,140.51L431.56,177.7L431.89,156.65L433.55,185.49L433.88,181.56L434.21,173.3L434.54,179.36L434.88,181.39L435.21,182.79L435.54,176.86L436.2,190.43L436.53,184.1L437.53,172.06L437.86,174.81L438.19,191.26L438.52,188.53L438.85,172.66L439.52,169.49L439.85,173.51L440.18,162.29L440.51,185.73L441.51,166.15L441.84,173.63L442.5,178.48L442.83,198.52L443.49,169.31L444.16,169.35L444.49,170.74L445.15,189.2L445.48,186.84L445.81,164.84L447.14,181.2L447.47,197.03L448.47,173.57L448.8,176.86L449.46,177.8L449.79,187.36L450.79,165.56L451.12,166.58L451.45,173.23L451.78,169.68L452.11,178.81L452.78,156.49L453.11,167.33L453.44,170.93L453.77,174.42L454.1,158.17L454.43,181.6L454.76,180.36L455.1,166.46L456.09,176.38L456.42,185.21L456.75,193.59L457.08,183.7L457.42,179.81L457.75,177.62L458.08,177.79L458.41,178.52L459.07,189.9L459.4,180.7L459.74,170.56L460.07,171.22L460.4,174.88L461.06,194L461.39,206.9L461.72,205.73L462.06,188.01L463.38,177.05L463.71,193.63L464.04,193.34L464.38,178.64L464.71,178.4L465.04,173.73L466.03,192.18L466.37,189.9L466.7,171.29L467.36,174.13L467.69,183.07L468.02,180.99L468.35,205.11L468.69,198.44L469.02,174.21L469.35,174.32L469.68,179.6L470.67,206.65L471.01,205.04L471.34,189.07L471.67,182.11L472,186.58" style="vector-effect: non-scaling-stroke; fill: none; stroke: rgb(25, 211, 243); stroke-opacity: 1; stroke-width: 2px; opacity: 1;"/></g><g class="points"/><g class="text"/></g></g></g><g class="overplot"/><path class="xlines-above crisp" d="M0,0" style="fill: none;"/><path class="ylines-above crisp" d="M0,0" style="fill: none;"/><g class="overlines-above"/><g class="xaxislayer-above"><g class="xtick"><text text-anchor="middle" x="0" y="433" transform="translate(80,0)" style="font-family: 'Open Sans', verdana, arial, sans-serif; font-size: 12px; fill: rgb(42, 63, 95); fill-opacity: 1; white-space: pre;">2017</text></g><g class="xtick"><text text-anchor="middle" x="0" y="433" transform="translate(200.98000000000002,0)" style="font-family: 'Open Sans', verdana, arial, sans-serif; font-size: 12px; fill: rgb(42, 63, 95); fill-opacity: 1; white-space: pre;">2018</text></g><g class="xtick"><text text-anchor="middle" x="0" y="433" transform="translate(321.97,0)" style="font-family: 'Open Sans', verdana, arial, sans-serif; font-size: 12px; fill: rgb(42, 63, 95); fill-opacity: 1; white-space: pre;">2019</text></g><g class="xtick"><text text-anchor="middle" x="0" y="433" transform="translate(442.95,0)" style="font-family: 'Open Sans', verdana, arial, sans-serif; font-size: 12px; fill: rgb(42, 63, 95); fill-opacity: 1; white-space: pre;">2020</text></g></g><g class="yaxislayer-above"><g class="ytick"><text text-anchor="end" x="79" y="4.199999999999999" transform="translate(0,351.15999999999997)" style="font-family: 'Open Sans', verdana, arial, sans-serif; font-size: 12px; fill: rgb(42, 63, 95); fill-opacity: 1; white-space: pre;">0.08</text></g><g class="ytick"><text text-anchor="end" x="79" y="4.199999999999999" transform="translate(0,281.15999999999997)" style="font-family: 'Open Sans', verdana, arial, sans-serif; font-size: 12px; fill: rgb(42, 63, 95); fill-opacity: 1; white-space: pre;">0.1</text></g><g class="ytick"><text text-anchor="end" x="79" y="4.199999999999999" transform="translate(0,211.16)" style="font-family: 'Open Sans', verdana, arial, sans-serif; font-size: 12px; fill: rgb(42, 63, 95); fill-opacity: 1; white-space: pre;">0.12</text></g><g class="ytick"><text text-anchor="end" x="79" y="4.199999999999999" transform="translate(0,141.16)" style="font-family: 'Open Sans', verdana, arial, sans-serif; font-size: 12px; fill: rgb(42, 63, 95); fill-opacity: 1; white-space: pre;">0.14</text></g></g><g class="overaxes-above"/></g></g><g class="polarlayer"/><g class="ternarylayer"/><g class="geolayer"/><g class="funnelarealayer"/><g class="pielayer"/><g class="treemaplayer"/><g class="sunburstlayer"/><g class="glimages"/><defs id="topdefs-0b227d"><g class="clips"/><clipPath id="legend0b227d"><rect width="127" height="140" x="0" y="0"/></clipPath></defs><g class="layer-above"><g class="imagelayer"/><g class="shapelayer"/></g><g class="infolayer"><g class="legend" pointer-events="all" transform="translate(561.44, 100)"><rect class="bg" shape-rendering="crispEdges" width="127" height="140" x="0" y="0" style="stroke: rgb(68, 68, 68); stroke-opacity: 1; fill: rgb(255, 255, 255); fill-opacity: 1; stroke-width: 0px;"/><g class="scrollbox" transform="translate(0, 0)" clip-path="url('#legend0b227d')"><text class="legendtitletext" text-anchor="start" x="2" y="15.600000000000001" style="font-family: 'Open Sans', verdana, arial, sans-serif; font-size: 12px; fill: rgb(42, 63, 95); fill-opacity: 1; white-space: pre;">Continents</text><g class="groups"><g class="traces" transform="translate(0, 30.1)" style="opacity: 1;"><text class="legendtext" text-anchor="start" x="40" y="4.680000000000001" style="font-family: 'Open Sans', verdana, arial, sans-serif; font-size: 12px; fill: rgb(42, 63, 95); fill-opacity: 1; white-space: pre;">Global</text><g class="layers" style="opacity: 1;"><g class="legendfill"/><g class="legendlines"><path class="js-line" d="M5,0h30" style="fill: none; stroke: rgb(99, 110, 250); stroke-opacity: 1; stroke-width: 2px;"/></g><g class="legendsymbols"><g class="legendpoints"/></g></g><rect class="legendtoggle" x="0" y="-9.5" width="121.734375" height="19" style="fill: rgb(0, 0, 0); fill-opacity: 0;"/></g><g class="traces" transform="translate(0, 49.1)" style="opacity: 1;"><text class="legendtext" text-anchor="start" x="40" y="4.680000000000001" style="font-family: 'Open Sans', verdana, arial, sans-serif; font-size: 12px; fill: rgb(42, 63, 95); fill-opacity: 1; white-space: pre;">Europe</text><g class="layers" style="opacity: 1;"><g class="legendfill"/><g class="legendlines"><path class="js-line" d="M5,0h30" style="fill: none; stroke: rgb(239, 85, 59); stroke-opacity: 1; stroke-width: 2px;"/></g><g class="legendsymbols"><g class="legendpoints"/></g></g><rect class="legendtoggle" x="0" y="-9.5" width="121.734375" height="19" style="fill: rgb(0, 0, 0); fill-opacity: 0;"/></g><g class="traces" transform="translate(0, 68.1)" style="opacity: 1;"><text class="legendtext" text-anchor="start" x="40" y="4.680000000000001" style="font-family: 'Open Sans', verdana, arial, sans-serif; font-size: 12px; fill: rgb(42, 63, 95); fill-opacity: 1; white-space: pre;">Asia</text><g class="layers" style="opacity: 1;"><g class="legendfill"/><g class="legendlines"><path class="js-line" d="M5,0h30" style="fill: none; stroke: rgb(0, 204, 150); stroke-opacity: 1; stroke-width: 2px;"/></g><g class="legendsymbols"><g class="legendpoints"/></g></g><rect class="legendtoggle" x="0" y="-9.5" width="121.734375" height="19" style="fill: rgb(0, 0, 0); fill-opacity: 0;"/></g><g class="traces" transform="translate(0, 87.1)" style="opacity: 1;"><text class="legendtext" text-anchor="start" x="40" y="4.680000000000001" style="font-family: 'Open Sans', verdana, arial, sans-serif; font-size: 12px; fill: rgb(42, 63, 95); fill-opacity: 1; white-space: pre;">North America</text><g class="layers" style="opacity: 1;"><g class="legendfill"/><g class="legendlines"><path class="js-line" d="M5,0h30" style="fill: none; stroke: rgb(171, 99, 250); stroke-opacity: 1; stroke-width: 2px;"/></g><g class="legendsymbols"><g class="legendpoints"/></g></g><rect class="legendtoggle" x="0" y="-9.5" width="121.734375" height="19" style="fill: rgb(0, 0, 0); fill-opacity: 0;"/></g><g class="traces" transform="translate(0, 106.1)" style="opacity: 1;"><text class="legendtext" text-anchor="start" x="40" y="4.680000000000001" style="font-family: 'Open Sans', verdana, arial, sans-serif; font-size: 12px; fill: rgb(42, 63, 95); fill-opacity: 1; white-space: pre;">South America</text><g class="layers" style="opacity: 1;"><g class="legendfill"/><g class="legendlines"><path class="js-line" d="M5,0h30" style="fill: none; stroke: rgb(255, 161, 90); stroke-opacity: 1; stroke-width: 2px;"/></g><g class="legendsymbols"><g class="legendpoints"/></g></g><rect class="legendtoggle" x="0" y="-9.5" width="121.734375" height="19" style="fill: rgb(0, 0, 0); fill-opacity: 0;"/></g><g class="traces" transform="translate(0, 125.1)" style="opacity: 1;"><text class="legendtext" text-anchor="start" x="40" y="4.680000000000001" style="font-family: 'Open Sans', verdana, arial, sans-serif; font-size: 12px; fill: rgb(42, 63, 95); fill-opacity: 1; white-space: pre;">Oceania</text><g class="layers" style="opacity: 1;"><g class="legendfill"/><g class="legendlines"><path class="js-line" d="M5,0h30" style="fill: none; stroke: rgb(25, 211, 243); stroke-opacity: 1; stroke-width: 2px;"/></g><g class="legendsymbols"><g class="legendpoints"/></g></g><rect class="legendtoggle" x="0" y="-9.5" width="121.734375" height="19" style="fill: rgb(0, 0, 0); fill-opacity: 0;"/></g></g></g><rect class="scrollbar" rx="20" ry="3" width="0" height="0" x="0" y="0" style="fill: rgb(128, 139, 164); fill-opacity: 1;"/></g><g class="g-gtitle"/><g class="g-xtitle"><text class="xtitle" x="316" y="461.8" text-anchor="middle" style="font-family: 'Open Sans', verdana, arial, sans-serif; font-size: 14px; fill: rgb(42, 63, 95); opacity: 1; font-weight: normal; white-space: pre;">Date</text></g><g class="g-ytitle"><text class="ytitle" transform="rotate(-90,30.418750000000003,260)" x="30.418750000000003" y="260" text-anchor="middle" style="font-family: 'Open Sans', verdana, arial, sans-serif; font-size: 14px; fill: rgb(42, 63, 95); opacity: 1; font-weight: normal; white-space: pre;">speechiness</text></g></g></svg>