<svg class="main-svg" xmlns="http://www.w3.org/2000/svg" xmlns:xlink="http://www.w3.org/1999/xlink" width="700" height="500" style="" viewBox="0 0 700 500"><rect x="0" y="0" width="700" height="500" style="fill: rgb(255, 255, 255); fill-opacity: 1;"/><defs id="defs-ccbe9d"><g class="clips"><clipPath id="clipccbe9dxyplot" class="plotclip"><rect width="516" height="320"/></clipPath><clipPath class="axesclip" id="clipccbe9dx"><rect x="80" y="0" width="516" height="500"/></clipPath><clipPath class="axesclip" id="clipccbe9dy"><rect x="0" y="100" width="700" height="320"/></clipPath><clipPath class="axesclip" id="clipccbe9dxy"><rect x="80" y="100" width="516" height="320"/></clipPath></g><g class="gradients"/></defs><g class="bglayer"><rect class="bg" x="80" y="100" width="516" height="320" style="fill: rgb(229, 236, 246); fill-opacity: 1; stroke-width: 0;"/></g><g class="layer-below"><g class="imagelayer"/><g class="shapelayer"/></g><g class="cartesianlayer"><g class="subplot xy"><g class="layer-subplot"><g class="shapelayer"/><g class="imagelayer"/></g><g class="gridlayer"><g class="x"><path class="xgrid crisp" transform="translate(212.26,0)" d="M0,100v320" style="stroke: rgb(255, 255, 255); stroke-opacity: 1; stroke-width: 1px;"/><path class="xgrid crisp" transform="translate(344.52,0)" d="M0,100v320" style="stroke: rgb(255, 255, 255); stroke-opacity: 1; stroke-width: 1px;"/><path class="xgrid crisp" transform="translate(476.78,0)" d="M0,100v320" style="stroke: rgb(255, 255, 255); stroke-opacity: 1; stroke-width: 1px;"/></g><g class="y"><path class="ygrid crisp" transform="translate(0,364.45)" d="M80,0h516" style="stroke: rgb(255, 255, 255); stroke-opacity: 1; stroke-width: 1px;"/><path class="ygrid crisp" transform="translate(0,304.31)" d="M80,0h516" style="stroke: rgb(255, 255, 255); stroke-opacity: 1; stroke-width: 1px;"/><path class="ygrid crisp" transform="translate(0,244.18)" d="M80,0h516" style="stroke: rgb(255, 255, 255); stroke-opacity: 1; stroke-width: 1px;"/><path class="ygrid crisp" transform="translate(0,184.04000000000002)" d="M80,0h516" style="stroke: rgb(255, 255, 255); stroke-opacity: 1; stroke-width: 1px;"/><path class="ygrid crisp" transform="translate(0,123.9)" d="M80,0h516" style="stroke: rgb(255, 255, 255); stroke-opacity: 1; stroke-width: 1px;"/></g></g><g class="zerolinelayer"/><path class="xlines-below"/><path class="ylines-below"/><g class="overlines-below"/><g class="xaxislayer-below"/><g class="yaxislayer-below"/><g class="overaxes-below"/><g class="plot" transform="translate(80, 100)" clip-path="url('#clipccbe9dxyplot')"><g class="scatterlayer mlayer"><g class="trace scatter tracea9bc49" style="stroke-miterlimit: 2; opacity: 1;"><g class="fills"/><g class="errorbars"/><g class="lines"><path class="js-line" d="M0,122.93L0.72,166.77L1.09,158.65L1.45,153.21L1.81,155.71L2.17,178.69L2.54,188.67L2.9,170.94L3.26,180.03L3.62,174.92L3.99,167.06L4.71,124.69L5.07,132.56L5.44,130.88L5.8,125.24L6.16,125.98L6.52,112.37L6.88,113.28L7.25,116.85L7.61,134.26L7.97,133.78L8.33,129.92L8.7,119.95L9.06,125.68L9.42,127.92L9.78,111.11L10.15,122.26L10.51,142.85L10.87,125.16L11.23,140.92L11.6,141.25L11.96,164.91L12.32,141.88L12.68,141.43L13.04,141.27L13.41,142.96L13.77,140.03L14.13,154.28L14.49,152.62L14.86,128.1L15.94,167.8L16.31,139.21L16.67,136.74L17.03,85.1L17.39,90.08L17.76,133.13L18.48,116.49L18.84,127.76L19.93,135.42L20.29,127.55L21.38,144.95L21.74,132.02L22.47,175.08L22.83,153.32L23.19,151.53L23.55,147.01L23.92,154.83L24.28,164.29L24.64,157.2L25,160.35L25.37,186.42L26.09,184.5L26.45,180.16L26.81,187.3L27.18,176.57L28.99,213.71L29.35,199.12L29.71,171.85L30.08,175.67L30.44,187.35L31.16,201.1L31.53,192.35L31.89,189.15L32.25,178L32.61,202.02L32.97,194.48L33.34,186.9L33.7,185.04L34.06,190.8L34.42,203.13L34.79,177.23L35.51,188.63L35.87,170.55L36.6,163.11L36.96,163.9L37.32,130.98L37.69,120.09L38.05,126.24L38.41,128.71L38.77,122.61L39.13,132.4L40.22,147.63L40.58,132.3L41.67,153.46L42.03,146.72L42.4,197.76L42.76,152.47L43.12,150.95L43.48,147.61L43.85,168.75L44.21,149.7L44.57,154.17L44.93,151.94L45.29,135.28L46.02,135.58L46.38,144.46L46.74,145.41L47.11,157.35L47.47,177.97L47.83,164.94L48.19,163.11L48.92,176.38L49.28,155.05L49.64,159.24L50.01,148.91L51.09,136.63L51.46,146.78L51.82,127.57L52.18,128.65L52.54,138.11L52.9,129.83L53.27,138.25L53.63,136.68L54.72,138.86L55.44,145.22L56.53,122.13L56.89,129.34L57.25,139.09L57.62,130.13L57.98,113.3L59.06,140.24L59.43,131.15L59.79,117.65L60.15,195.52L61.24,174.54L61.6,177.71L62.33,149.79L62.69,157.71L63.05,175.64L63.41,182.46L63.78,160.67L64.5,128.25L64.86,132.43L65.22,173.23L65.59,178.13L65.95,167.42L67.04,160.47L67.4,167.49L68.12,141.07L68.49,143.6L68.85,151.8L69.57,166.57L69.94,147.16L70.3,186.42L70.66,181.49L71.02,165.24L71.75,189.89L72.11,170.89L72.47,180.59L72.83,278.47L74.28,191.03L74.65,196.18L75.01,196.09L75.37,154.69L75.73,215.69L76.1,164.79L76.46,163.73L76.82,152.27L77.18,161.77L77.54,158.61L78.27,188.84L78.63,162.27L79.72,144.12L80.08,145.62L80.44,200.34L80.81,198.68L81.17,164.55L81.53,171.62L81.89,161.99L82.26,158.94L82.62,173.22L83.34,213.33L83.71,176.74L85.15,145.54L85.52,201.46L86.24,187.93L86.6,193.55L87.33,182.3L87.69,185.54L88.05,173.39L88.42,186.55L88.78,159.51L89.5,175.49L89.87,161.48L90.23,156.15L90.59,176.48L90.95,194.79L91.31,166.28L92.4,176.13L92.76,169.12L93.13,165.37L93.49,183.98L93.85,187.22L94.21,183.88L94.58,166.09L94.94,153.7L95.3,175.06L95.66,170.4L96.03,180.07L96.39,159.99L96.75,178.8L97.11,188.9L97.47,189.33L97.84,174.73L98.2,187.41L98.56,162.69L98.92,153.87L99.29,164.42L99.65,153.5L100.01,164.15L100.37,161.63L100.74,132.16L101.46,132.95L101.82,137.71L102.19,137.77L102.55,127.82L102.91,155.47L103.27,119.36L103.63,138.9L104,133.74L104.36,130.53L104.72,145.37L105.08,129.11L105.45,129.88L105.81,59.61L106.53,92.02L106.9,113.95L107.26,135.21L107.62,127.72L107.98,127.85L108.71,111.36L109.07,137.49L109.43,131.37L109.79,144.06L110.16,110.08L110.52,142.6L110.88,152.45L111.97,167.54L112.33,169.88L112.69,164.24L113.06,145.24L113.42,135.53L113.78,142.09L114.14,137.93L114.51,111.91L114.87,118.31L115.23,118.21L115.59,111.1L115.96,152.22L116.32,130.97L116.68,133.91L117.04,153.56L118.85,59.55L119.22,106.09L119.58,103.45L119.94,107.22L120.3,103.59L120.67,75.53L121.75,151.39L122.12,107.9L123.2,148.5L123.56,109.07L123.93,157.56L124.29,152.27L124.65,142.79L125.38,118.85L125.74,137.65L126.83,180.04L127.19,156.68L127.55,157.09L127.91,162.91L128.28,172.8L128.64,124.96L129,116.43L129.36,124.53L129.72,201.03L130.09,133.05L130.45,152.89L130.81,141.71L131.17,146.08L131.54,139.93L131.9,172.45L132.26,157.24L132.62,146.01L133.71,188.52L134.07,176.63L134.44,184.26L135.16,150.64L135.52,159.36L135.88,153.5L136.61,188.43L136.97,181.29L137.33,166.44L138.42,152.96L138.78,98.02L139.51,140.32L139.87,118.32L140.6,122.61L140.96,117.64L141.32,88.43L141.68,112.8L142.04,136.74L142.41,132.46L142.77,149.02L143.13,153.42L143.49,138.76L143.86,113.57L144.22,124.24L144.58,130.94L144.94,125.22L145.31,134.93L145.67,124.7L146.03,125.44L146.39,88.88L147.12,123.22L147.48,112.75L147.84,108.57L148.93,87.61L149.29,97.59L149.65,116.14L150.02,97.02L150.38,100.23L150.74,94.29L151.1,98.1L151.47,74.73L152.92,135.83L153.28,115.29L153.64,127.34L154,108.19L155.09,131.24L155.45,112.3L156.54,137.86L156.9,128.7L157.99,159.73L158.35,157.54L158.71,158.69L159.44,136.96L159.8,147.4L160.16,135.39L160.53,142.78L160.89,157.07L161.61,120.98L161.97,121.7L162.34,131L162.7,145.61L163.06,118.72L163.42,124.08L163.79,119.79L164.15,104.51L165.24,135.79L165.6,131.42L165.96,112.94L167.41,75.88L167.77,84.35L168.13,84.35L168.5,77.15L168.86,80.26L169.22,109.83L169.58,81.05L169.95,111.45L171.03,89.29L171.4,104.58L172.12,160.21L172.48,147.43L172.85,146.55L173.21,151.04L173.57,167.1L173.93,178.74L174.29,159.7L174.66,140.42L175.02,151.13L175.38,156.8L176.47,113.55L176.83,118.31L177.92,138.1L178.28,121.14L179.37,147.18L179.73,142.26L180.09,180.76L180.46,165.38L180.82,176.91L181.18,199.28L181.54,165.22L182.27,126.42L182.63,138.04L182.99,173.76L183.35,172.11L183.72,180.29L184.44,138.25L184.8,143.71L185.17,166.74L185.53,179.02L185.89,166.96L186.25,148.97L186.98,99.33L187.34,115.86L187.7,149.02L188.06,154.41L188.43,136.68L188.79,146L189.51,145.59L189.88,136.01L190.24,149.22L190.6,132.13L191.33,116.45L191.69,127.8L192.05,79.92L192.41,99.67L192.78,115.38L193.14,110.05L193.5,138.82L193.86,144.74L194.22,110.9L194.59,141.13L194.95,94.32L195.31,124.45L195.67,119.34L196.04,100.08L196.4,81.9L196.76,92.08L197.12,149.58L197.49,103.98L197.85,148.32L198.21,140.51L198.57,134.56L198.94,172.25L200.02,105.68L200.38,134.24L200.75,134.54L201.11,136.76L202.56,75.84L202.92,112.76L203.65,113.17L204.01,93.93L204.37,121.51L205.46,171.73L205.82,168.76L206.18,168.89L206.54,153.52L206.91,173.6L207.27,137.18L207.63,169.35L207.99,136.61L208.36,151.05L208.72,182.21L209.08,157.24L209.44,156.6L209.81,158.73L210.17,131.29L210.53,156.91L210.89,128.42L211.26,157.87L211.62,138.95L211.98,143.82L212.34,166.38L212.71,147.04L213.07,140.8L213.43,141.66L213.79,145.35L214.15,130.52L214.52,175.37L214.88,210.52L215.24,198.22L215.6,187.1L215.97,187.95L216.33,184.75L216.69,166.77L217.05,167.31L217.42,180.07L217.78,199.53L218.14,179.04L218.5,170.8L219.59,124.9L219.95,145.87L220.68,158.06L221.04,128.14L222.13,119.6L222.49,128.65L223.21,136.64L223.58,131.34L223.94,146.24L224.3,119L225.03,137.1L225.39,107.75L225.75,121.74L226.11,106.47L226.47,116.76L226.84,100.16L227.2,89.45L227.56,103.42L227.92,84.25L228.29,91.43L228.65,91.04L229.37,109.72L229.74,105.68L230.1,136.17L230.46,131L230.82,130.37L231.91,141.77L232.27,129.8L233,111.47L233.36,126.83L233.72,128.29L234.08,104.96L234.45,109.79L234.81,134.94L235.17,95.94L235.53,124.6L235.9,149.9L236.26,146.39L236.62,155.65L237.35,143.04L237.71,96.55L238.43,137.08L238.79,133.79L239.16,137.44L239.52,136.34L239.88,153.8L240.97,125.35L241.33,121.06L241.69,126.88L242.06,105.88L242.42,119.38L242.78,161.68L243.51,140.27L243.87,160.04L244.23,153.71L244.59,157.41L244.96,159.11L246.04,136.39L246.4,175.11L246.77,170.32L247.13,154.83L247.49,160.32L247.85,154.54L248.22,155.42L248.58,140.1L248.94,152.3L249.3,148.75L249.67,136.93L250.03,146.37L250.39,144.6L250.75,141.34L251.12,98.48L252.56,125.7L252.93,103.24L253.29,142.9L254.01,139.72L254.38,117.52L254.74,113.78L255.1,119.99L255.46,68.31L255.83,120.09L256.19,142.78L257.28,84.17L257.64,95.69L258.36,129.35L258.72,127.29L259.09,85.25L259.45,106.42L259.81,102.74L260.17,98.69L261.26,116.02L261.62,75.93L261.99,119.34L262.35,81.09L262.71,115.67L263.07,110.45L263.44,116.97L263.8,100.43L264.16,119.46L264.52,112.43L264.88,120.38L265.25,118.45L265.61,134.29L266.33,94.81L266.7,127.69L267.06,135.45L267.42,125.83L267.78,135.44L268.15,119.52L268.51,106.18L268.87,116.72L269.23,129.18L269.6,134.57L269.96,154.33L270.32,159.91L270.68,127.4L271.04,116.9L271.41,130.99L272.49,165.58L272.86,156.16L273.58,124.01L273.94,142.85L274.67,164.51L275.03,158.84L275.39,157.64L275.76,159.34L276.12,146.56L276.48,147.24L276.84,163.6L277.57,151.75L277.93,155.51L278.29,168.07L278.65,155.94L279.02,156.84L279.38,169.52L279.74,168L280.1,169.9L280.83,159.41L281.19,140.86L281.55,143.24L281.92,162.11L282.28,159.63L282.64,175.39L283,185.43L283.37,182.63L283.73,147.87L284.09,145.92L284.45,191.74L285.54,164.05L285.9,182.61L286.26,168.11L286.63,186.66L287.35,199.27L287.71,188L288.08,202.68L288.44,169.79L289.53,209.51L289.89,203.63L290.61,222.31L290.97,197.08L292.06,228.07L292.42,226.76L292.79,209.98L293.15,217.7L293.51,193.44L293.87,183.89L294.24,187.78L294.6,207.15L294.96,193.46L295.32,203.88L295.69,227.59L296.77,263.2L297.13,253.74L297.5,261.12L297.86,259.32L298.22,242.5L299.67,278.56L300.03,252.32L301.12,222.96L301.48,221.59L302.21,235.77L302.57,214.38L302.93,214.63L303.29,228.55L304.74,189.77L305.11,197.23L305.47,149.71L305.83,169.9L306.19,193.27L306.56,131.26L306.92,165.44L307.28,169.8L307.64,156.2L308.01,167.35L308.37,180.85L308.73,148.05L309.09,158.57L309.46,152.83L310.54,181.39L310.9,171.6L311.27,93.25L311.63,134L311.99,154.38L312.72,154.29L313.08,164.23L313.44,149.78L313.8,123.6L314.17,148.7L314.53,158.52L314.89,141.15L315.25,145.39L315.62,169.79L316.7,146.6L317.06,162.5L317.43,139.44L318.15,140.23L318.51,121.84L318.88,125.5L319.24,142.88L319.6,163.45L319.96,131.52L320.33,129.86L320.69,129.95L321.05,130.72L321.41,104.44L321.78,144.67L322.14,110.73L322.5,127.97L322.86,121.14L323.22,122.38L323.59,111.89L323.95,140.27L324.31,117.52L324.67,113.22L325.04,110.58L325.4,97.05L325.76,104.9L326.12,100.16L326.49,101.18L327.21,146.34L327.57,126.29L327.94,128.39L328.3,135.73L328.66,134.5L329.02,129.91L329.38,129.25L329.75,117.82L330.47,130.08L330.83,117.43L331.2,153.13L331.56,133.52L331.92,139.84L332.28,120.65L332.65,131.42L333.01,147.3L333.73,154.61L334.1,145.65L334.46,149.27L334.82,183.24L335.18,133.15L335.54,143.92L335.91,153.55L336.99,186.12L337.36,169.15L338.44,175.62L338.81,170.42L339.89,145.7L340.26,142.46L340.98,161.14L341.34,159.04L341.71,137.07L342.07,136.12L342.43,122.55L342.79,127.25L343.15,121.85L343.88,129.25L344.24,138.49L344.6,141.73L344.97,138.57L345.33,118.25L345.69,106.74L346.05,119.96L346.42,118.95L346.78,128.7L347.5,124.73L347.87,127.25L348.23,126.45L348.59,132.36L348.95,132.46L349.31,151.8L350.4,110.29L350.76,135.31L351.13,147.97L351.49,133.54L352.21,167.72L352.58,135.92L352.94,167.05L353.3,157.22L353.66,142.28L354.03,106.6L354.39,118.3L354.75,109.51L355.84,100.2L356.2,109.2L356.92,96.58L357.29,97.53L357.65,121.58L358.01,124.87L358.37,115.87L359.1,119.96L359.46,113.42L359.82,99.43L360.19,155.82L361.27,125.54L361.63,125.86L362.36,66.49L362.72,135.64L363.45,90.15L363.81,91.69L364.17,98.93L364.53,79.69L364.9,90.1L365.26,83.2L365.62,59.96L365.98,72.36L366.35,69.47L366.71,77.57L367.07,63.68L367.79,49.61L368.16,61.45L368.88,72.59L369.24,68.52L370.33,108.03L370.69,97.9L371.06,88.02L371.42,97.41L371.78,109.71L372.14,183.09L372.51,131.69L372.87,171.63L373.23,198.05L373.59,193.21L373.96,190.19L374.32,198.67L374.68,106.2L375.04,59.68L375.4,120.81L375.77,130.16L376.13,104.95L376.49,138.83L376.85,121.28L377.22,117.7L377.58,111.54L377.94,142.94L379.03,115.34L379.39,127.29L380.12,107.31L380.48,128.92L382.29,206.93L382.65,135.49L383.74,170.39L384.1,153.86L384.83,84.85L385.19,87.95L385.55,130.6L385.91,129.56L386.28,131.36L386.64,132.33L387,122.83L387.72,95.67L388.09,116.27L388.45,105.78L388.81,155.92L389.9,85.24L390.26,110.01L391.71,114.25L392.07,125.44L392.44,128.3L392.8,149.37L393.52,138.46L393.88,111.07L394.25,154.78L394.61,131.77L394.97,121.15L395.33,127.81L395.7,125.29L396.06,164.04L396.42,161.38L396.78,122.39L397.15,182.7L397.51,180.56L397.87,164.24L398.23,166.84L398.6,210.6L399.32,180.65L399.68,185.23L400.04,186.2L400.41,169.46L400.77,174.31L401.13,205.64L401.49,207.55L401.86,198.18L402.22,198.9L402.58,180.38L402.94,174.51L403.31,175.7L403.67,205.13L404.39,191.37L404.76,196.23L405.12,203.89L405.48,158L405.84,156.94L406.21,194.8L407.29,205.73L407.65,177.77L408.02,176.95L408.38,168.53L409.47,215.21L409.83,199.76L410.92,176.94L411.28,160.61L412,186.14L412.37,185.57L412.73,113.35L414.18,153.33L414.54,137.48L414.9,138.34L415.26,146.11L415.63,142.04L415.99,171.85L416.35,149.67L416.71,162.3L417.08,152.06L418.16,176.62L418.53,174.03L419.25,203.41L419.61,196.66L419.97,205.08L420.34,159.99L420.7,154.43L421.06,163L421.42,164.56L421.79,158.53L422.51,173.67L422.87,83.65L424.32,162.95L424.69,177.33L425.05,178.48L425.41,147.45L425.77,143.4L426.13,150.64L426.86,184.13L427.22,172.33L427.58,169.76L428.67,179.21L429.03,174.46L429.4,183.51L429.76,173.08L430.12,182.81L430.48,217.05L430.85,184.09L431.21,186.6L431.57,194.83L432.66,157.41L433.02,185.15L433.38,178.58L433.74,201.05L434.11,167.38L434.47,182.88L434.83,185.66L435.56,131.31L435.92,136.74L436.28,151.23L436.64,181.81L437.01,178.28L437.37,173.17L437.73,182.32L438.09,150.17L438.46,128.52L438.82,137.84L439.18,157.09L439.54,154.07L439.9,173.87L440.63,129.84L440.99,152.23L441.35,151.36L441.72,157.92L442.44,157.8L442.8,157.22L443.89,115.64L444.25,118.2L444.98,105.94L445.34,106.78L445.7,79.07L446.06,70.06L446.43,73.51L446.79,83.4L447.51,90.41L447.88,111.95L448.6,72.35L448.96,90.33L449.33,107.98L450.05,97.82L450.41,122.27L450.78,65.47L451.14,72.02L451.5,94.54L451.86,124.61L452.22,110.79L452.59,96.59L452.95,82.11L453.31,84.96L453.67,93.85L454.04,94.95L454.4,92.02L455.12,82.59L455.49,65.73L456.57,123.2L456.94,120.84L457.3,106.77L457.66,128.34L458.02,128.06L458.38,142.71L458.75,122.62L459.47,123.38L459.83,118.85L460.2,118.88L460.56,101.88L461.28,85.54L461.65,99.53L462.37,127.45L462.73,121.59L463.1,129L463.82,66.81L464.18,84.41L465.27,118.86L465.63,111.64L466.36,50.27L466.72,78.91L467.08,84.24L467.44,67.02L467.81,70.3L468.17,102L468.89,74.18L469.26,81.14L469.62,87.27L469.98,70.01L470.71,104.66L471.07,148.33L471.79,96.11L472.15,111.25L473.24,136.96L473.6,113.54L474.33,82.23L474.69,108.34L475.78,126.31L476.14,97.62L476.5,78.39L476.87,105.09L477.23,110.23L477.59,106.3L477.95,100.85L478.68,134.33L479.04,96.22L479.76,141.89L480.13,141.46L480.49,117.53L480.85,116.14L481.21,79.2L481.94,136.63L482.3,129.33L482.66,130.76L484.11,57.96L484.47,70.84L484.84,104.82L485.2,99.63L485.56,100.98L485.92,106.34L487.01,42.09L487.37,75.96L488.1,86.1L488.46,69.36L489.19,22.69L489.55,54.89L491,79.61L491.36,46.64L491.72,42.72L492.08,102.64L492.45,117.26L492.81,89.13L493.53,112.64L493.9,16L494.62,77.87L494.98,117.88L495.35,116.22L495.71,132.47L496.07,132.47L496.43,30.57L497.16,70.25L497.52,121.05L497.88,120.31L498.24,124.78L499.33,55L499.69,98.91L500.42,144.4L500.78,141.99L501.14,130.68L501.51,122.97L501.87,69.66L502.59,168.53L502.96,156.6L503.32,146.86L503.68,150.89L504.04,81.13L504.4,71.62L504.77,99.46L505.13,118.15L505.49,103.76L505.85,94.78L506.94,16.91L507.3,61.64L507.67,63.42L508.03,99.28L508.39,96.6L508.75,103.5L509.48,46.71L509.84,71.36L510.2,103.58L510.56,119.3L510.93,93.88L511.29,110.64L511.65,45.37L512.01,17.99L512.38,33.92L512.74,113.09L513.83,100.16L514.19,43.12L515.64,87.94L516,79.55" style="vector-effect: non-scaling-stroke; fill: none; stroke: rgb(99, 110, 250); stroke-opacity: 1; stroke-width: 2px; opacity: 1;"/></g><g class="points"/><g class="text"/></g><g class="trace scatter tracee28d35" style="stroke-miterlimit: 2; opacity: 1;"><g class="fills"/><g class="errorbars"/><g class="lines"><path class="js-line" d="M0,190.55L0.36,170.7L0.72,173.62L1.09,196.63L1.45,193.42L1.81,182.93L2.17,189.32L2.54,175.97L2.9,171.44L3.26,180.66L3.99,224.75L4.35,187.74L4.71,203.79L5.07,174.34L6.16,226.92L6.52,187.34L7.25,208.28L7.61,166.45L7.97,172.06L8.33,166.33L8.7,198.16L9.06,187.79L9.42,188.59L9.78,189.41L10.15,191.08L10.51,201.01L11.6,154.94L11.96,170.88L12.68,199.21L13.04,173.27L13.77,202.75L14.13,180.66L14.49,167.59L14.86,194.81L15.58,176.94L15.94,147.51L16.31,172.9L16.67,132.13L17.39,149.96L17.76,145.34L18.12,137.05L18.48,133.72L18.84,105.19L19.57,116.5L19.93,99.56L20.65,135.91L21.02,131.36L21.38,125.54L22.83,217.93L23.19,192.23L24.64,168.41L25,188.08L25.73,172.53L26.09,184.65L26.81,178.29L27.18,153.96L27.9,197.01L28.26,167.02L29.35,158.83L29.71,188.51L30.08,178.39L30.44,189.29L31.53,159.3L31.89,184.76L32.61,217.35L32.97,190.39L33.34,203.26L33.7,199.64L34.06,184.13L35.51,213.89L35.87,222.92L36.96,202.01L37.32,168.14L39.13,230.34L39.5,217.22L39.86,224.64L40.22,217.38L40.58,220.53L40.95,174.99L41.67,178.09L42.03,183.46L43.12,194.36L43.48,191.12L43.85,196.68L44.21,193.51L44.57,193.06L44.93,175.13L45.29,204.86L46.74,258.06L47.11,243.62L47.83,199.15L48.19,228.51L49.28,257.02L49.64,238.26L50.01,250.89L50.37,227.45L50.73,240.28L51.09,218.74L51.82,242.94L52.18,223.83L52.9,209.02L53.27,211.18L53.63,225.59L55.44,212.99L55.8,200.52L56.17,238.4L56.53,236.06L56.89,205.51L57.25,207.84L57.62,206.17L57.98,186.57L58.34,197.88L58.7,185.22L59.06,201.75L59.43,182.21L59.79,171.78L60.15,232.97L60.51,222.75L60.88,236.84L61.24,209.17L61.6,215.88L61.96,243.52L62.33,220.4L62.69,225.23L63.05,234.64L63.78,208.76L64.14,228.12L64.5,229.28L64.86,240.77L65.22,232.43L65.59,234.49L65.95,234.92L66.31,201.31L66.67,212.87L67.04,219.18L67.4,212.49L67.76,220.32L68.12,217.94L68.49,225.35L68.85,218.93L69.21,222.88L69.57,229.78L69.94,236.23L70.3,219.03L70.66,227.52L71.02,263.03L72.11,223.49L72.47,234.59L73.92,288.35L74.28,272.17L74.65,257.05L75.01,261.07L75.37,212.85L76.1,260.02L76.46,242.54L77.18,230.56L77.54,249.54L77.91,224.11L78.27,226.07L78.63,233.49L78.99,236.16L79.36,209.09L79.72,185.71L80.08,201.96L80.44,213.56L80.81,206.86L81.17,230.47L82.26,202.97L82.62,228.1L82.98,214.38L83.34,222.89L83.71,253.3L84.79,228.78L85.15,246.69L85.88,218.22L86.24,228.14L86.6,210.01L86.97,224.17L87.33,217.07L87.69,213.39L88.05,219.19L89.14,186.33L89.5,189.3L89.87,190.46L90.23,187.26L90.95,231.89L91.31,212.54L91.68,217.97L92.04,222.74L92.4,237.82L92.76,203.5L93.13,215.17L93.49,234.79L93.85,223.86L94.21,226.35L94.58,253.12L94.94,231.71L95.66,232.31L96.03,240.49L96.75,216.69L97.11,231.51L97.47,245.29L97.84,237.4L98.2,236.61L98.56,239.2L98.92,258.14L99.29,275.94L99.65,246.16L100.01,243.69L100.37,251.14L101.46,214.63L101.82,242.45L102.19,244.56L102.55,233.61L102.91,249.09L103.27,216.33L103.63,218.65L104,209.99L104.36,227.23L104.72,215.52L105.08,215.19L106.53,226.05L106.9,202.13L108.35,273.08L108.71,261.35L109.79,219.04L110.16,224.87L111.24,267.65L111.61,234.51L112.33,245.73L112.69,241.33L113.06,226.21L113.42,269.42L114.14,229.14L114.51,258.48L114.87,246.62L115.23,247.13L115.59,257.19L115.96,282.85L116.32,269.67L116.68,236.74L117.04,261.19L117.4,254.24L117.77,252.79L118.13,249.68L118.49,262.91L118.85,271.32L119.22,252.47L119.58,231.3L119.94,243.71L120.3,257.81L120.67,269.23L121.03,212.19L121.39,220.74L121.75,178.33L122.84,223.13L123.2,228.74L124.29,178.93L124.65,220.31L125.38,192.67L125.74,206.41L126.1,228.23L126.46,203.94L127.19,215.06L127.55,195.3L127.91,231.46L128.28,201.92L128.64,169.79L129,166.43L129.36,173.19L130.09,254.93L130.45,217.79L131.17,260.87L131.54,245.04L131.9,244.29L132.26,234.91L132.62,265.06L133.35,264.82L133.71,273.13L134.07,262.57L134.44,273.54L134.8,247.22L135.52,258.42L135.88,269.33L136.25,256.76L136.61,271.12L136.97,275.58L137.33,236.45L137.7,238.37L138.06,247.91L138.42,250.4L138.78,235.24L139.51,262.96L139.87,242.05L140.6,262.11L140.96,256.89L141.32,196.62L142.41,235.16L142.77,246.99L143.13,240.65L143.49,248.19L143.86,226.57L144.22,252.62L145.67,233.07L146.03,208.41L146.39,183.46L146.76,193.64L147.12,195.08L148.21,145.96L148.57,166.41L149.29,182.6L149.65,164.47L150.02,148.06L150.38,152.53L150.74,152.61L151.1,158.19L151.47,180.23L151.83,198.61L152.19,175.62L152.55,151.18L152.92,167.36L153.28,156.18L154,196.91L154.37,189.12L154.73,167.74L155.81,181.33L156.18,168.89L156.9,205.47L157.26,177.66L157.63,202.3L158.35,201.21L158.71,211.67L160.16,172.61L160.53,176.1L160.89,178.17L161.25,158.39L161.61,181.8L161.97,179.03L162.34,173.03L162.7,193.57L163.06,177.91L163.42,156.93L163.79,188.13L164.15,183.69L164.51,179.81L164.87,176.8L165.24,150.97L165.6,129.96L165.96,132L166.32,152.61L166.69,160.51L167.05,148.38L168.13,118.11L168.5,127.64L169.95,153.6L170.31,136.42L170.67,119.7L171.03,124L171.4,122.8L171.76,163L172.48,159.98L172.85,164.47L173.57,199.06L173.93,190.27L174.29,140.33L174.66,115.24L175.02,123.7L175.38,120.24L176.47,145.3L176.83,158.08L177.19,159.2L177.56,149.18L177.92,151.87L178.28,127.92L179.01,152.93L179.37,131.21L179.73,166.29L180.09,165.94L180.46,151.98L180.82,175.93L181.54,174.42L181.9,181.46L182.27,190.94L182.63,185.67L182.99,158.07L183.72,196.19L184.08,182.12L184.44,148.26L184.8,149.33L185.17,154.93L186.25,140.24L186.62,166.53L186.98,161.64L187.34,162.25L187.7,171.14L188.06,128.41L188.43,148.55L188.79,151.61L189.15,155.24L189.51,197.86L190.96,142.29L191.33,145.62L191.69,153.92L192.05,130.21L192.78,160.14L193.14,96.14L194.22,140.47L194.59,113.16L194.95,146.38L195.31,144.92L195.67,107.77L196.04,118.26L196.4,100.96L196.76,101.51L197.12,151.51L197.49,183.03L197.85,160.35L198.21,127L198.57,124.41L198.94,128.56L199.3,124.5L199.66,178.77L200.75,114.99L201.11,117.22L201.47,139.29L202.2,151.64L202.56,137.73L202.92,158.97L203.28,127.96L204.01,118.49L204.37,159.2L205.1,187.66L205.46,182.49L206.54,118.12L206.91,149.71L207.27,179.06L207.63,163.11L207.99,162.19L208.72,111.57L209.08,123.37L209.44,159.12L210.53,127.39L210.89,113.8L211.26,109.09L211.62,120.55L211.98,114.23L212.34,150.93L212.71,166.64L213.07,140.23L214.88,186.62L215.24,173.67L215.6,168.92L215.97,146.94L216.69,169.57L217.05,165.1L217.42,167.05L217.78,195.95L218.14,178.34L218.5,154.72L218.87,156.98L219.23,165.5L219.59,135.61L219.95,173.79L220.31,184.52L220.68,170.7L221.4,142.37L221.76,143.48L222.13,150.03L222.85,200.59L223.21,187.75L223.58,178.72L225.03,223.48L225.39,239.55L226.11,191.03L226.47,200.09L226.84,198.24L227.92,239.81L228.29,227.73L228.65,211.97L229.01,229.49L230.1,290.16L230.46,275.91L230.82,277.8L231.19,269.74L231.91,234.6L232.27,249.35L232.63,270.19L233,255.07L233.36,263.24L234.81,233.56L235.17,232.6L235.53,221.29L235.9,229.25L236.26,226.46L236.62,248.81L236.98,218.71L237.35,254.97L237.71,246.57L238.07,241.27L238.43,268.12L238.79,242.86L239.16,241.55L240.24,212.04L240.61,260.62L240.97,260.59L241.33,247.54L241.69,237L242.06,245.73L242.42,238.24L243.14,247.27L243.51,275.34L243.87,259.11L244.23,282.59L244.59,279.57L244.96,269.4L245.32,223.4L245.68,266.04L246.04,267.05L246.77,229.35L247.13,250.6L247.49,245.23L247.85,255.52L248.58,296.07L248.94,284.23L249.3,265.72L249.67,264.81L250.03,250.86L250.39,251.02L250.75,260.44L251.12,263.83L251.48,230.8L252.93,209.27L253.29,194.3L253.65,187.31L254.01,215.63L256.19,144.31L256.55,148.07L256.91,151.14L257.28,146.32L257.64,165.3L258,130.48L258.36,169.41L258.72,159.1L259.09,132.13L260.17,154.11L260.54,123.26L260.9,127.57L261.26,148.29L261.62,116.61L261.99,150.79L263.07,183.72L263.44,172.27L263.8,168.98L264.16,189.04L264.52,186.23L264.88,153.97L265.25,140.58L265.61,175.28L266.33,170.25L266.7,175.64L267.06,180.95L267.42,175.61L267.78,170.94L268.15,169.72L268.51,161.08L268.87,165.96L269.23,156.4L269.6,152.29L269.96,165.48L271.41,129.92L272.13,130.03L272.49,152.54L272.86,154.21L273.22,153.02L273.58,143.28L273.94,129.24L274.31,140.62L274.67,184.66L275.39,175.14L275.76,163.56L276.12,158.57L276.48,179.63L276.84,154.02L277.21,166.82L277.57,174.76L277.93,198.24L278.29,176.54L278.65,165.58L279.38,213.43L279.74,188.97L280.1,179.84L280.47,205.85L280.83,188.07L281.19,165.22L281.55,189.81L281.92,160.28L283,204.63L283.37,188.77L285.54,221.23L285.9,196.21L286.26,192.82L286.63,199.19L287.35,225.98L287.71,208.98L288.08,217.16L288.44,209.54L288.8,197.87L289.53,242.53L289.89,231.56L290.25,235.11L290.97,203.32L291.34,212.38L291.7,251.89L293.15,197.26L293.51,205.22L294.24,251.96L294.6,232.43L295.32,257.63L295.69,236.17L296.05,213.09L296.41,229.1L296.77,235.87L297.5,213.69L297.86,224.57L298.95,174.95L299.31,219.13L300.03,213.17L300.4,218.88L301.85,174.65L302.21,166.68L302.57,200.18L302.93,179.7L303.29,159.95L304.38,139.23L304.74,181.53L306.19,126.11L306.56,126.57L307.28,159.15L307.64,156.5L308.01,149.73L308.37,160.1L308.73,125.8L309.09,111.46L309.46,132.89L310.54,154.27L310.9,150.42L311.27,148.18L311.63,151.07L311.99,181.04L312.35,140.15L312.72,139.4L313.08,147.77L314.53,179.34L314.89,188.67L315.98,165.89L316.34,179.86L317.06,158.99L317.43,176.98L317.79,170.34L318.15,178.41L318.88,161.13L319.24,194.03L319.6,192.58L319.96,175.13L320.69,206.6L321.05,174.56L321.41,177.17L321.78,164.83L322.14,177.15L322.5,160.82L322.86,168.42L323.22,161.38L323.59,164.29L323.95,174.05L324.31,133.49L325.04,189.17L325.4,166.57L325.76,174.31L326.12,164.24L326.49,176.59L327.21,154.9L327.57,195.65L327.94,190.17L328.3,171.84L328.66,192.46L329.02,181.96L329.38,162.19L329.75,172.85L330.11,170.38L330.47,163.85L330.83,152.31L331.2,163.88L331.56,164.97L331.92,142.66L332.28,156.47L332.65,162.6L333.01,161.07L333.37,176.06L334.1,227.92L334.46,185.18L335.91,226.76L336.27,217.52L336.63,228.53L336.99,212.16L337.72,220.71L338.08,199.83L338.44,209.57L338.81,201.28L339.17,173.38L339.89,208.11L340.26,174.81L341.34,201.99L341.71,196.72L342.07,167.99L342.43,203.48L342.79,203.78L343.15,195.85L343.52,203.27L343.88,187.13L344.24,191.59L344.6,191.49L344.97,187.75L345.33,196.29L345.69,188.65L346.05,187.49L346.42,184.84L346.78,175.9L347.14,169.01L347.5,176.56L347.87,189.89L348.59,189.51L348.95,160.3L349.31,162.12L349.68,172.84L350.04,172.13L350.4,175.34L351.49,141.3L351.85,130.7L352.21,108.04L352.58,118.23L352.94,147.26L354.39,125.84L354.75,130.73L355.11,116.43L355.47,131.08L355.84,130.62L356.2,141.85L356.56,140.69L356.92,138.53L357.29,140.28L357.65,112.95L358.01,143.08L358.37,131.51L358.74,119.83L359.82,146.48L360.19,129.2L360.55,128.3L360.91,140.31L361.27,150.32L361.63,127.85L362,131.32L362.36,172.68L362.72,173.08L363.08,136.32L363.81,158.88L364.17,146.25L365.26,169.96L365.62,151.61L365.98,151.49L366.35,146.09L367.07,123.68L367.43,159.71L368.16,139.24L368.52,163.95L369.61,137.42L369.97,150.36L371.06,166.81L371.42,141.89L372.51,212.22L372.87,193.9L373.23,207.34L373.59,205.19L373.96,198.41L374.32,213.33L374.68,196.01L376.13,141.86L376.49,148.34L376.85,158.5L377.22,140.93L377.58,169L377.94,150.66L378.3,134.96L378.67,130.9L379.03,118.62L380.48,181.63L380.84,162.69L381.2,174.24L381.56,169.23L381.93,157.2L382.29,164.89L382.65,190.47L383.01,171.32L383.38,180.45L383.74,192.15L385.19,129.58L385.55,168.52L386.28,154.85L386.64,141.74L387,153.25L387.36,136.68L388.09,106.64L388.45,116.02L388.81,160.64L389.17,157.15L389.54,141.22L390.99,174.82L391.35,171.99L391.71,157.48L392.07,174.01L392.8,194.48L393.16,187.23L393.52,178.95L394.25,133.85L394.61,168.26L394.97,166L395.33,185.44L395.7,168.33L396.06,184.73L396.42,182.7L396.78,163.44L397.15,187.53L397.87,158.86L398.23,204.48L398.6,220.47L398.96,211.12L399.32,191.03L400.04,151.19L400.41,152.55L400.77,191.29L401.49,209.53L401.86,208.02L402.22,184.59L402.58,227.46L402.94,188.6L403.31,223.29L403.67,236.23L404.03,214.89L405.84,169.34L406.21,213.4L407.29,242.74L407.65,202.84L408.02,184.94L408.38,214.22L408.74,229.62L409.1,227.99L409.47,218.91L409.83,221.6L410.19,184.41L410.55,166.37L410.92,221.99L411.28,217.94L411.64,228.03L412,218.84L412.37,222.01L412.73,166.39L413.09,136.54L413.45,158.92L413.81,164.24L414.54,192.6L414.9,190.35L415.26,155.49L415.63,139.23L415.99,191.85L417.44,220.34L417.8,195.27L418.16,185.25L418.53,226.56L419.97,203.89L420.34,174.65L420.7,141.93L421.06,179.85L421.79,218.74L422.15,200.68L423.24,159.3L423.6,196.02L423.96,200.76L424.32,181.51L424.69,174.81L425.05,184.94L425.41,190.89L425.77,138.95L426.86,207.05L427.22,201.46L428.31,156.23L428.67,180.61L429.4,199.77L429.76,197.43L430.12,197.26L430.48,170.09L430.85,195.57L431.21,176.38L431.57,184.25L431.93,214.13L432.29,207.78L432.66,146.75L433.02,201.64L433.38,181.87L433.74,193.06L434.11,165.16L434.47,185.09L434.83,181.34L435.19,178.16L435.56,137.81L436.64,187.32L437.01,182.37L437.37,170.96L438.09,146.47L438.46,160.16L438.82,142.64L439.18,160.56L439.54,176.67L440.27,184.52L440.63,179.06L440.99,217.27L441.35,183.93L441.72,186.44L442.08,204.22L442.44,201.24L442.8,185.39L443.17,173.92L443.53,199.18L443.89,197.93L444.25,215.63L444.62,213.58L444.98,214.18L445.34,221.12L445.7,156.56L446.06,160.63L446.43,184.88L447.51,211.89L447.88,209.59L448.24,122.5L448.6,173.1L448.96,176.12L449.69,211.26L450.05,195.94L450.41,193.5L450.78,204.15L451.86,221.02L452.22,211.14L453.31,195.8L453.67,213.09L454.04,178.49L454.4,183.56L454.76,234.46L455.85,177.57L456.21,189.32L456.57,189.61L456.94,209.14L457.66,231.31L458.02,227.29L458.38,184.86L458.75,172.49L459.11,179.14L459.47,209.28L459.83,212.92L460.2,190.21L461.65,154.06L462.01,202.35L462.37,181.74L462.73,181.89L463.1,193.2L463.46,178.13L463.82,190.82L464.18,181.37L464.54,204.38L464.91,194.77L465.27,202.72L465.63,197.31L465.99,137.39L466.72,167.82L467.08,159.28L467.44,160.12L467.81,170.89L468.17,162.32L468.53,159.54L469.98,183.52L470.34,161.67L471.79,252.68L472.15,237.32L472.52,245.44L473.6,188.66L473.97,197.6L474.33,215.59L475.05,247.55L475.42,246.72L475.78,237.29L476.14,192.15L476.5,197.32L476.87,221.27L477.23,232.22L477.59,229.86L477.95,222.6L479.04,195.11L479.4,218.82L479.76,223.47L480.13,221.24L480.49,209.46L481.21,198.03L481.58,224.4L481.94,223.95L482.3,237.39L482.66,235.74L483.03,236.21L483.39,227.15L483.75,227.2L484.11,211.4L484.47,249.15L484.84,226L485.2,232.31L485.56,232.77L485.92,235.14L486.29,237.46L486.65,209.68L487.01,259.63L487.37,239.89L487.74,243.04L488.1,230.63L488.46,241.23L488.82,241.58L489.19,222.79L489.55,234.73L489.91,244.44L491,236.24L491.36,250.49L491.72,231.1L492.08,258.45L493.17,229.53L493.53,236.29L493.9,183.7L494.26,209.26L494.62,214.1L495.71,227.5L496.07,202.14L496.43,168.73L496.79,221.13L497.88,188.08L498.24,202.03L498.97,221.87L499.33,216.08L499.69,223.21L500.42,243.74L500.78,225.81L501.14,214.68L501.51,229.21L501.87,222.55L502.23,238.5L502.59,235.86L502.96,221.29L503.68,200.86L504.04,203.31L504.4,210.51L504.77,275.5L505.13,231.23L505.49,206.68L505.85,195.28L506.22,197.55L506.58,222.97L506.94,223.54L507.3,217.77L507.67,217.44L508.03,225.5L508.75,217.46L509.12,242.64L509.84,212.89L510.2,217.79L510.56,216.49L511.29,256.5L511.65,221.64L512.01,218.62L512.38,201.69L512.74,206.71L513.1,223.16L513.46,224.53L513.83,208.16L514.19,226.85L514.55,219.11L514.91,201.29L515.28,200.43L515.64,201.55L516,205.12" style="vector-effect: non-scaling-stroke; fill: none; stroke: rgb(239, 85, 59); stroke-opacity: 1; stroke-width: 2px; opacity: 1;"/></g><g class="points"/><g class="text"/></g><g class="trace scatter tracecc2982" style="stroke-miterlimit: 2; opacity: 1;"><g class="fills"/><g class="errorbars"/><g class="lines"><path class="js-line" d="M0,151.88L0.72,153.22L1.09,165.71L1.45,150.51L1.81,172.87L2.54,206.99L2.9,183.13L3.26,189.05L3.62,183.4L3.99,169.86L4.71,209.63L5.07,194.52L5.8,189.89L6.16,171.46L6.52,174.49L6.88,217.2L7.25,212.49L7.61,169.28L9.06,198.64L9.42,193.19L9.78,212.05L10.15,186.32L10.51,185.74L10.87,189.35L11.23,162.92L11.6,171.02L11.96,186.01L12.68,226.52L13.04,198.28L14.13,171.74L14.49,179.19L14.86,214.69L15.22,159.66L15.58,155.21L15.94,155.93L16.31,157.07L17.03,152.73L17.39,164.16L18.48,132.59L18.84,147.46L19.21,142.86L19.57,171.37L20.65,151.06L21.02,159.58L21.38,156.16L21.74,209.83L22.1,199.79L22.47,218.05L22.83,208.93L23.19,221.28L23.55,204.85L23.92,217.83L24.28,212.23L24.64,183.36L25,201.3L25.37,186.14L25.73,191.26L26.09,181.78L26.45,201.4L26.81,181.26L27.18,155.86L27.54,173.55L27.9,149.37L28.63,171.98L28.99,170.69L29.35,152.85L29.71,153.62L30.08,169.06L30.44,206.06L30.8,144.63L31.16,146.52L31.53,169.59L32.25,189.08L32.61,169.9L33.7,204.64L34.06,183.04L34.42,179.7L34.79,145.97L35.15,150.95L35.51,173.63L35.87,177.82L36.24,168.24L36.96,184.02L37.32,140.03L37.69,137.01L38.05,122.42L38.41,117.98L38.77,139.68L39.13,172.91L39.5,168.81L39.86,163.84L41.31,131.35L41.67,156.81L42.76,124.99L43.12,155.59L43.48,127.61L43.85,145.36L44.21,157.15L44.57,128.36L44.93,135.02L45.29,141.61L45.66,167.87L46.02,167.6L46.38,158.05L47.11,166.46L47.47,160.87L47.83,157.94L48.19,179.83L48.56,177.6L48.92,166.92L49.28,175.66L49.64,152.48L50.01,174.93L50.37,147.82L50.73,169.67L51.09,145.19L51.46,145.18L51.82,151.81L52.9,124.31L53.27,139.76L53.63,140.86L54.72,153.87L55.8,123.34L56.17,143.1L56.53,135.96L56.89,105.44L57.25,123.16L57.62,110.22L57.98,114.74L58.7,94.32L59.06,96.95L59.43,122.63L59.79,127.85L60.15,150.33L60.88,132.3L61.24,137.09L61.6,136.3L61.96,171.19L62.33,161.41L62.69,166.6L63.41,124.68L63.78,155.6L64.14,152.69L64.5,165.55L64.86,181.1L65.22,179.84L65.59,142.4L66.67,170.24L67.04,162.89L67.4,170.15L67.76,143.29L68.49,156.41L68.85,138.63L69.21,125.09L69.57,142.23L69.94,148.32L70.66,148.02L71.02,153.68L71.75,155.82L72.11,152.37L72.47,159.01L72.83,207.83L73.2,186.88L73.56,216.1L74.28,183.01L74.65,193.86L75.01,182.83L75.37,144.72L75.73,183.03L76.1,166L76.46,144.07L76.82,164.57L77.18,145.77L77.54,153.86L77.91,141.85L78.27,190.08L79.36,142.04L79.72,155.14L80.08,142.19L80.44,154.87L80.81,184.68L81.17,184.34L81.53,148.14L81.89,156.99L82.26,149.15L82.62,152.28L83.71,190.75L84.07,167.64L84.79,155.35L85.15,178.27L85.52,175.41L85.88,202.69L86.24,209.68L86.6,200.92L86.97,218.33L87.33,183.55L87.69,190.67L88.05,150.25L88.78,194.14L89.14,176.43L89.5,179.98L89.87,162.95L90.59,160.28L90.95,175.45L91.31,203.05L91.68,170.74L92.76,189.22L93.13,157.02L93.85,205.29L94.21,158.08L94.58,149.6L94.94,166.78L95.3,165.18L95.66,175.61L96.39,213.71L96.75,193.29L97.11,201.11L97.47,175.55L97.84,180L98.2,222.69L98.56,206.04L98.92,226.68L99.65,177.54L100.01,197.99L100.37,224.19L100.74,189.95L101.1,213.02L101.46,197.1L102.19,151.93L102.55,173.03L104,206.7L104.36,143.97L105.45,164.48L105.81,205.75L106.53,171.42L106.9,187.17L107.62,146.8L107.98,182.72L108.35,231.15L108.71,214.55L109.07,202.77L109.79,184.06L110.16,202.52L110.52,210.2L110.88,255.42L111.24,254.71L111.61,237.12L111.97,247.37L112.33,229.05L113.42,267.12L113.78,265.99L114.14,255.16L115.23,242.43L115.59,267.86L115.96,255.37L116.32,272.58L117.04,246.63L117.4,254.88L118.13,282.49L119.58,219.62L119.94,224.94L120.3,237.07L120.67,234.37L121.03,206.51L121.75,211.43L122.12,197.04L123.2,243.7L123.56,224.72L123.93,192.37L124.29,216.15L124.65,219.27L125.01,219.24L125.38,213.46L125.74,222.03L126.1,256.09L127.19,211.63L127.55,217.83L127.91,219.32L128.28,240.34L129.36,195.69L129.72,210.28L130.09,264.96L130.45,256.23L130.81,251.78L131.17,248.08L131.54,260.46L132.26,234.62L132.62,241.51L132.99,235.79L134.44,270.85L134.8,267.61L135.16,260.38L136.25,292.14L136.61,268.22L136.97,293.69L137.33,242.79L137.7,264.09L138.06,246.84L138.42,247.23L138.78,245.29L139.15,270.64L139.51,279.84L139.87,245.93L140.23,241.33L140.6,255.29L140.96,265.23L141.32,254.31L141.68,244.2L142.04,249.36L142.41,265.84L143.13,247.69L143.49,295.2L143.86,228.14L144.22,254.73L144.58,272.55L144.94,240.19L145.31,283.37L146.39,192.2L146.76,195.14L147.12,237L147.48,184.83L148.21,199.85L148.57,182.51L148.93,175.89L149.29,200.89L149.65,210.95L150.02,148.69L151.1,181.79L151.47,150.59L152.19,196.78L152.55,166.24L153.28,149.75L153.64,203.24L154,178.58L154.37,183.08L154.73,204.01L155.09,180.53L155.45,198.72L155.81,193.31L156.9,226.06L157.26,220.99L157.63,218.35L157.99,246.5L158.71,222.91L159.08,240.08L159.44,222.29L159.8,231.41L160.16,229.18L160.53,231.45L160.89,212.66L161.25,236.98L161.61,232.83L161.97,228.87L162.34,231.8L162.7,248.83L163.06,253.28L163.42,226.25L163.79,262.12L164.15,250.14L164.51,247.95L164.87,250.32L165.24,236.95L165.96,194.98L166.32,202.63L166.69,189.35L167.05,191.28L167.41,214.46L168.5,173.76L168.86,175.44L169.22,170.9L169.58,196.38L169.95,211.93L170.31,152.95L171.03,177.43L171.4,165.45L172.48,207.47L172.85,186.82L173.57,227.3L173.93,206.5L174.29,162.07L175.02,168.89L175.38,165.53L175.74,178.79L176.47,122.8L176.83,151.83L177.19,141.91L177.56,150.18L177.92,154.78L178.28,182.96L178.64,173.5L179.01,147.42L179.73,204.6L180.09,174.56L180.46,160.95L180.82,161.95L181.18,165.39L181.54,161.49L181.9,201.11L182.99,170.48L183.35,172.65L183.72,177.58L184.08,176.6L184.44,163.69L184.8,169.66L185.17,144.03L185.89,190.4L186.25,184.91L186.62,185.23L188.43,133.39L188.79,149.66L189.15,143.75L189.51,163.92L189.88,179.3L190.24,145L190.6,134.14L190.96,141.81L191.33,144.29L192.05,146.66L192.41,159.62L193.14,97.49L193.5,183.67L194.59,115.22L194.95,172.57L196.04,123.09L196.4,128.87L196.76,136.34L197.12,164.22L197.49,182.95L197.85,157.18L198.21,153.2L198.57,106.21L198.94,109.79L199.3,130.01L199.66,156.15L200.02,145.02L200.38,139.83L200.75,118.04L201.11,131.77L201.47,129.44L201.83,110.4L202.2,127.52L202.56,132.43L203.65,112.68L204.01,118.54L205.1,173.56L205.46,123.29L205.82,145.88L206.18,121.71L206.54,113.36L206.91,118.11L207.27,156.39L208.36,118.74L208.72,124.37L209.08,121.68L209.44,134.07L209.81,99.76L210.17,102.25L210.53,130.41L210.89,103.07L211.26,114.43L211.62,110.49L212.71,148.33L213.07,171.07L213.43,163.21L213.79,167.35L214.15,165.95L214.88,206.73L215.24,166.75L216.33,207.17L216.69,196.44L217.05,175.98L217.42,182.19L218.14,205.29L218.5,193.48L218.87,210.81L219.59,180.29L219.95,219.85L220.31,175.82L220.68,204.93L221.04,193.65L221.76,190.54L222.13,196.07L222.49,195.47L222.85,201.45L223.21,181.9L223.58,191.82L223.94,192.47L224.3,210.21L224.66,175.67L225.75,212.94L226.11,193.31L226.84,192.98L227.56,208.29L227.92,178.8L229.01,210.18L229.37,187.83L230.82,246.71L231.19,217.88L231.55,220.92L231.91,231.34L233,205.27L233.36,228.98L233.72,222.8L234.08,228.92L234.45,238.13L235.17,215.86L235.53,223.93L235.9,233.81L236.26,233.49L236.62,225.8L237.35,237.2L237.71,211.16L238.07,193.66L238.43,195.14L238.79,215.33L239.16,189.66L239.52,196.96L239.88,209.68L240.97,253.87L241.33,235.33L241.69,221.31L242.06,238.25L243.51,277.38L243.87,258.91L244.23,257.27L244.59,262.71L245.32,193.1L245.68,217.08L246.04,259.53L246.4,221.17L246.77,243.95L247.49,254.43L247.85,276.53L248.22,240.33L248.58,304L249.67,263.95L250.03,264.4L250.75,216.5L251.12,261.15L251.48,269.1L251.84,231.58L252.2,233.75L252.56,231.19L253.29,166.62L253.65,187.14L254.01,205.44L254.38,206.21L254.74,175.94L255.1,152.33L255.46,181.06L256.91,161.99L257.28,173.84L257.64,166.27L258,176.24L258.36,161.66L258.72,172.08L259.09,178.45L259.45,169.21L259.81,133.25L260.17,171.03L260.54,150.44L260.9,132.07L261.26,173.48L261.62,121.62L261.99,114.45L262.35,197.89L262.71,244.16L263.07,228.21L263.44,236.2L263.8,232.91L264.16,241.74L264.52,241.99L264.88,239.16L265.25,214.26L265.61,245.14L265.97,236.71L266.33,278.89L267.42,230.6L267.78,234.72L268.51,190.45L268.87,226.64L269.6,195.56L269.96,237.01L270.68,201.9L271.04,214.52L271.41,210.8L271.77,160.7L272.49,161.8L272.86,221.65L273.22,214.47L273.58,178.55L273.94,202.01L274.31,179.03L274.67,177.1L275.39,185.08L275.76,183.32L276.48,209.56L276.84,177.37L277.57,209.13L277.93,227.84L278.29,179.3L278.65,181.5L279.02,234.9L281.19,150.99L281.55,186.21L281.92,158.12L282.28,183.06L282.64,195.88L283,176.84L283.37,195.83L283.73,202.33L284.09,212.82L284.45,189.2L284.81,232.84L285.18,188.89L285.54,219.57L285.9,230.01L286.26,212.79L286.99,206.66L287.35,217.88L287.71,218.53L288.08,230.95L288.44,223.96L288.8,226.27L289.16,260.66L290.25,219.26L290.61,223.25L290.97,227.74L291.34,200.03L291.7,259.36L292.06,234.69L292.42,239.33L293.51,202.99L293.87,204.75L294.24,233.53L294.6,224.32L294.96,213.68L295.69,261.07L296.05,223.56L296.41,187.06L296.77,246.45L297.13,255.68L297.5,220.78L298.22,259.59L298.58,203.27L298.95,184.28L299.31,247.28L299.67,249.46L300.03,218.21L300.4,215.48L300.76,205.67L301.12,173.72L301.48,199.22L301.85,193.11L302.21,165.99L302.57,193.26L302.93,185.88L303.29,199.71L303.66,172.23L304.02,161.26L304.38,181.53L305.47,161.34L305.83,190.06L306.56,149.14L306.92,158.73L307.28,175.53L307.64,167.98L308.01,144.51L308.37,142.78L308.73,126.1L309.09,124.75L309.46,142.54L309.82,140.9L310.18,132.51L310.54,128.3L310.9,137.4L311.27,126.93L311.63,135.74L311.99,164.13L312.35,169.7L312.72,155.04L313.08,146.05L313.44,171.39L314.17,138.93L314.53,164.68L315.25,141.63L315.62,153.08L316.34,140.82L316.7,130.8L317.06,150.77L317.43,146.6L317.79,147.39L318.51,165.07L318.88,144.71L319.24,112.78L319.6,148.55L321.05,171.89L321.41,121.59L321.78,132.08L322.14,163.97L322.5,166.03L322.86,179.28L324.31,126.26L324.67,154.54L325.4,182.62L325.76,164.54L326.85,150.95L327.21,185.88L327.57,170.16L327.94,195.02L328.3,192.25L328.66,204.65L329.38,196.14L329.75,200.3L330.11,199.19L330.47,205.6L330.83,226.88L331.2,217.6L331.56,179.03L331.92,179.58L332.28,179.17L332.65,185.94L333.01,183.58L333.37,193.39L333.73,202.55L334.1,198.83L334.46,185.61L334.82,222.09L335.18,209.21L335.54,212.64L335.91,239.89L336.27,232.64L336.63,233.79L336.99,202.81L337.36,221.35L337.72,238.59L338.08,242.71L338.44,262L338.81,248.23L339.17,254.81L339.53,203.54L339.89,245.91L340.26,237.05L340.62,228.33L340.98,226.46L341.34,252.5L342.07,210.03L342.43,237.73L342.79,227.54L343.15,236.04L343.52,245.47L344.24,259.81L344.6,198.67L345.33,269.19L345.69,255.46L346.05,244.86L346.42,248.91L346.78,206.89L347.87,215.94L348.23,213.17L348.95,221.02L349.31,173.41L349.68,174.92L350.04,196.82L351.13,139.57L351.49,174.32L351.85,149.19L352.21,166.29L352.58,171.85L353.66,112.87L354.03,146.93L354.39,144.75L354.75,167.18L355.84,147.01L356.2,147.67L356.56,138.92L356.92,141.63L357.29,165.13L357.65,173.28L358.01,108.27L359.46,158.61L359.82,142.04L360.19,197.14L360.55,153.5L360.91,149.63L361.27,141.82L361.63,149.46L362,159.79L362.72,193.79L363.08,151.27L364.17,183.53L364.53,195.93L364.9,216.75L365.26,206.41L365.62,177.55L365.98,174.63L366.35,199.48L367.43,149.96L367.79,165.31L368.16,151.01L368.52,175.65L368.88,190.75L369.24,177.84L369.61,185.72L369.97,182.1L370.33,197.36L370.69,169.73L371.06,179.38L371.42,188.06L371.78,190.6L372.14,206.67L373.23,192.86L373.59,221.09L373.96,202.9L374.32,223.88L375.04,181.32L375.4,187.76L376.13,156.71L376.49,167.32L377.58,162.24L377.94,154.51L378.3,157.22L378.67,151.3L379.39,162.15L379.75,188.35L380.12,186.96L380.48,195.76L380.84,178.16L381.2,184.78L381.56,210.01L381.93,210.58L382.29,201.98L382.65,173.69L383.01,191.08L383.38,197L384.1,186.37L384.46,187.27L384.83,187.72L385.55,122.19L385.91,164.97L386.28,164.45L386.64,169.41L387,166.45L387.36,174.89L388.09,135.54L388.45,163.68L388.81,181.44L389.17,162.73L389.54,135.05L389.9,124.8L390.26,141.07L390.99,121.6L391.35,128.4L391.71,124.51L393.52,143.04L393.88,174.82L394.25,235.59L394.61,204.57L394.97,194.33L395.33,184.59L395.7,186.56L396.06,203.91L396.42,190.65L396.78,220.48L397.51,207.07L397.87,211.63L398.23,191.39L398.6,182.17L398.96,194.97L399.32,181.33L399.68,211.26L400.04,204.89L400.41,182.93L401.49,225.26L401.86,210.7L402.58,183.38L402.94,190.64L403.31,185.73L403.67,177.06L404.03,180.91L404.39,180.98L405.12,168.12L405.48,193.33L406.57,205.17L406.93,203.6L407.65,177.19L408.02,198.51L408.38,219.45L408.74,195.99L409.1,194.77L409.47,188.38L410.19,145.85L410.55,172.88L412,212.5L412.37,224.98L412.73,156.15L413.09,165.86L413.45,162.55L413.81,163.57L414.18,172.21L414.54,170.11L414.9,160.96L415.99,207.36L416.35,198.63L417.08,214.49L417.44,209.31L417.8,192.61L418.16,164.19L418.53,226.07L419.61,200.11L419.97,207.76L420.7,165.85L421.06,180.76L421.42,178.54L421.79,183.36L423.24,158.97L423.6,172.79L424.69,190.14L425.05,164.79L425.77,212.07L426.13,186.09L426.5,162.89L426.86,177.33L427.22,189.78L428.31,246.58L428.67,229.42L429.76,188.58L430.12,188.91L430.48,235.67L430.85,228.22L431.21,254.4L431.93,216.81L432.29,218.28L432.66,214.15L433.02,228.9L433.38,208.52L433.74,216.63L434.11,212.25L434.47,186.18L434.83,202.9L435.19,181.69L435.92,232.04L436.28,202.03L437.73,181.82L438.09,220.23L438.46,211.14L438.82,217.77L439.18,177.57L439.9,169.13L440.27,184.55L440.99,205.66L441.35,191.76L441.72,188.33L442.08,196.8L442.8,231.14L443.17,213.08L443.53,209.69L443.89,229.48L444.98,166.63L445.34,185.02L445.7,171.66L446.06,198.36L446.43,217.73L446.79,165.65L447.15,153.86L447.51,163.89L447.88,171.08L448.96,204.53L449.33,137.26L450.41,224.87L450.78,208.05L451.14,192.91L451.5,194.12L451.86,220.04L452.59,173.83L452.95,195L453.31,208.05L453.67,178.66L454.04,217.71L454.4,165.48L454.76,167.86L455.12,199.34L455.85,183.35L456.21,193.45L456.57,227.22L456.94,186.28L458.02,235.68L458.38,229.13L458.75,211.29L459.11,239.96L459.47,215.76L459.83,240.25L460.2,229.07L461.28,203.92L461.65,253.38L462.73,208.22L463.1,223.18L464.18,167.61L464.54,179.75L464.91,174.24L465.27,179.87L465.63,211.66L465.99,162.43L466.36,198.2L466.72,177.48L468.89,234.77L469.26,201.35L469.98,168.14L470.34,173.34L470.71,210.1L471.07,237.01L471.43,216.59L471.79,214.33L472.15,203.02L472.52,211.44L472.88,209.08L473.24,203.99L473.6,214.91L473.97,222.92L474.33,221.74L474.69,193.01L475.78,236.08L476.14,221.42L476.5,221.31L476.87,222.95L477.59,196.37L477.95,215.56L478.31,216.9L478.68,206.33L479.04,238.51L479.4,221.26L479.76,199.9L480.13,202.49L480.49,189.2L480.85,195.07L481.21,226.57L481.58,230.88L481.94,228.86L482.3,217.84L483.39,248.92L483.75,215.89L484.11,194.84L484.47,238.05L484.84,213.91L485.2,232.59L485.56,249.23L486.29,207.17L486.65,214.41L487.01,237.68L487.37,221.46L487.74,244.2L488.1,232.73L488.46,245.34L488.82,198.03L489.19,220.42L489.55,236.9L489.91,232.44L490.27,257.64L491.36,217.54L491.72,233.92L492.45,248.3L492.81,245.34L493.17,240.5L493.53,240.65L493.9,226.98L494.26,229.25L494.62,239.78L494.98,252.98L495.35,246.05L495.71,250.58L496.07,258.67L496.43,221.5L496.79,199.8L497.16,215.28L497.52,215.37L498.61,236.66L498.97,206.71L500.06,237.67L500.42,235.86L500.78,235.62L501.51,228.06L501.87,231.34L502.23,257.83L502.59,244.22L502.96,258.83L504.4,194.86L504.77,206.7L505.13,239.32L505.85,210.46L506.22,226.86L506.58,230.09L506.94,195.61L507.3,221.98L507.67,199.18L508.03,214.74L508.39,188.86L508.75,193.59L509.12,217.75L510.2,187.89L510.56,222.41L511.29,267.87L511.65,235.32L512.01,196.91L512.38,221.43L512.74,223.77L513.46,210.45L513.83,233.96L514.19,244.49L514.55,208.43L515.28,239.74L515.64,215.71L516,219.08" style="vector-effect: non-scaling-stroke; fill: none; stroke: rgb(0, 204, 150); stroke-opacity: 1; stroke-width: 2px; opacity: 1;"/></g><g class="points"/><g class="text"/></g></g></g><g class="overplot"/><path class="xlines-above crisp" d="M0,0" style="fill: none;"/><path class="ylines-above crisp" d="M0,0" style="fill: none;"/><g class="overlines-above"/><g class="xaxislayer-above"><g class="xtick"><text text-anchor="middle" x="0" y="433" transform="translate(80,0)" style="font-family: 'Open Sans', verdana, arial, sans-serif; font-size: 12px; fill: rgb(42, 63, 95); fill-opacity: 1; white-space: pre;">2017</text></g><g class="xtick"><text text-anchor="middle" x="0" y="433" transform="translate(212.26,0)" style="font-family: 'Open Sans', verdana, arial, sans-serif; font-size: 12px; fill: rgb(42, 63, 95); fill-opacity: 1; white-space: pre;">2018</text></g><g class="xtick"><text text-anchor="middle" x="0" y="433" transform="translate(344.52,0)" style="font-family: 'Open Sans', verdana, arial, sans-serif; font-size: 12px; fill: rgb(42, 63, 95); fill-opacity: 1; white-space: pre;">2019</text></g><g class="xtick"><text text-anchor="middle" x="0" y="433" transform="translate(476.78,0)" style="font-family: 'Open Sans', verdana, arial, sans-serif; font-size: 12px; fill: rgb(42, 63, 95); fill-opacity: 1; white-space: pre;">2020</text></g></g><g class="yaxislayer-above"><g class="ytick"><text text-anchor="end" x="79" y="4.199999999999999" transform="translate(0,364.45)" style="font-family: 'Open Sans', verdana, arial, sans-serif; font-size: 12px; fill: rgb(42, 63, 95); fill-opacity: 1; white-space: pre;">116</text></g><g class="ytick"><text text-anchor="end" x="79" y="4.199999999999999" transform="translate(0,304.31)" style="font-family: 'Open Sans', verdana, arial, sans-serif; font-size: 12px; fill: rgb(42, 63, 95); fill-opacity: 1; white-space: pre;">118</text></g><g class="ytick"><text text-anchor="end" x="79" y="4.199999999999999" transform="translate(0,244.18)" style="font-family: 'Open Sans', verdana, arial, sans-serif; font-size: 12px; fill: rgb(42, 63, 95); fill-opacity: 1; white-space: pre;">120</text></g><g class="ytick"><text text-anchor="end" x="79" y="4.199999999999999" transform="translate(0,184.04000000000002)" style="font-family: 'Open Sans', verdana, arial, sans-serif; font-size: 12px; fill: rgb(42, 63, 95); fill-opacity: 1; white-space: pre;">122</text></g><g class="ytick"><text text-anchor="end" x="79" y="4.199999999999999" transform="translate(0,123.9)" style="font-family: 'Open Sans', verdana, arial, sans-serif; font-size: 12px; fill: rgb(42, 63, 95); fill-opacity: 1; white-space: pre;">124</text></g></g><g class="overaxes-above"/></g></g><g class="polarlayer"/><g class="ternarylayer"/><g class="geolayer"/><g class="funnelarealayer"/><g class="pielayer"/><g class="treemaplayer"/><g class="sunburstlayer"/><g class="glimages"/><defs id="topdefs-ccbe9d"><g class="clips"/><clipPath id="legendccbe9d"><rect width="82" height="83" x="0" y="0"/></clipPath></defs><g class="layer-above"><g class="imagelayer"/><g class="shapelayer"/></g><g class="infolayer"><g class="legend" pointer-events="all" transform="translate(606.32, 100)"><rect class="bg" shape-rendering="crispEdges" width="82" height="83" x="0" y="0" style="stroke: rgb(68, 68, 68); stroke-opacity: 1; fill: rgb(255, 255, 255); fill-opacity: 1; stroke-width: 0px;"/><g class="scrollbox" transform="translate(0, 0)" clip-path="url('#legendccbe9d')"><text class="legendtitletext" text-anchor="start" x="2" y="15.600000000000001" style="font-family: 'Open Sans', verdana, arial, sans-serif; font-size: 12px; fill: rgb(42, 63, 95); fill-opacity: 1; white-space: pre;">Oceania</text><g class="groups"><g class="traces" transform="translate(0, 30.1)" style="opacity: 1;"><text class="legendtext" text-anchor="start" x="40" y="4.680000000000001" style="font-family: 'Open Sans', verdana, arial, sans-serif; font-size: 12px; fill: rgb(42, 63, 95); fill-opacity: 1; white-space: pre;">Global</text><g class="layers" style="opacity: 1;"><g class="legendfill"/><g class="legendlines"><path class="js-line" d="M5,0h30" style="fill: none; stroke: rgb(99, 110, 250); stroke-opacity: 1; stroke-width: 2px;"/></g><g class="legendsymbols"><g class="legendpoints"/></g></g><rect class="legendtoggle" x="0" y="-9.5" width="76.09375" height="19" style="fill: rgb(0, 0, 0); fill-opacity: 0;"/></g><g class="traces" transform="translate(0, 49.1)" style="opacity: 1;"><text class="legendtext" text-anchor="start" x="40" y="4.680000000000001" style="font-family: 'Open Sans', verdana, arial, sans-serif; font-size: 12px; fill: rgb(42, 63, 95); fill-opacity: 1; white-space: pre;">au</text><g class="layers" style="opacity: 1;"><g class="legendfill"/><g class="legendlines"><path class="js-line" d="M5,0h30" style="fill: none; stroke: rgb(239, 85, 59); stroke-opacity: 1; stroke-width: 2px;"/></g><g class="legendsymbols"><g class="legendpoints"/></g></g><rect class="legendtoggle" x="0" y="-9.5" width="76.09375" height="19" style="fill: rgb(0, 0, 0); fill-opacity: 0;"/></g><g class="traces" transform="translate(0, 68.1)" style="opacity: 1;"><text class="legendtext" text-anchor="start" x="40" y="4.680000000000001" style="font-family: 'Open Sans', verdana, arial, sans-serif; font-size: 12px; fill: rgb(42, 63, 95); fill-opacity: 1; white-space: pre;">nz</text><g class="layers" style="opacity: 1;"><g class="legendfill"/><g class="legendlines"><path class="js-line" d="M5,0h30" style="fill: none; stroke: rgb(0, 204, 150); stroke-opacity: 1; stroke-width: 2px;"/></g><g class="legendsymbols"><g class="legendpoints"/></g></g><rect class="legendtoggle" x="0" y="-9.5" width="76.09375" height="19" style="fill: rgb(0, 0, 0); fill-opacity: 0;"/></g></g></g><rect class="scrollbar" rx="20" ry="3" width="0" height="0" x="0" y="0" style="fill: rgb(128, 139, 164); fill-opacity: 1;"/></g><g class="g-gtitle"/><g class="g-xtitle"><text class="xtitle" x="338" y="461.8" text-anchor="middle" style="font-family: 'Open Sans', verdana, arial, sans-serif; font-size: 14px; fill: rgb(42, 63, 95); opacity: 1; font-weight: normal; white-space: pre;">Date</text></g><g class="g-ytitle"><text class="ytitle" transform="rotate(-90,33.60625,260)" x="33.60625" y="260" text-anchor="middle" style="font-family: 'Open Sans', verdana, arial, sans-serif; font-size: 14px; fill: rgb(42, 63, 95); opacity: 1; font-weight: normal; white-space: pre;">tempo</text></g></g></svg>