<svg class="main-svg" xmlns="http://www.w3.org/2000/svg" xmlns:xlink="http://www.w3.org/1999/xlink" width="700" height="500" style="" viewBox="0 0 700 500"><rect x="0" y="0" width="700" height="500" style="fill: rgb(255, 255, 255); fill-opacity: 1;"/><defs id="defs-4d3255"><g class="clips"><clipPath id="clip4d3255xyplot" class="plotclip"><rect width="472" height="320"/></clipPath><clipPath class="axesclip" id="clip4d3255x"><rect x="80" y="0" width="472" height="500"/></clipPath><clipPath class="axesclip" id="clip4d3255y"><rect x="0" y="100" width="700" height="320"/></clipPath><clipPath class="axesclip" id="clip4d3255xy"><rect x="80" y="100" width="472" height="320"/></clipPath></g><g class="gradients"/></defs><g class="bglayer"><rect class="bg" x="80" y="100" width="472" height="320" style="fill: rgb(229, 236, 246); fill-opacity: 1; stroke-width: 0;"/></g><g class="layer-below"><g class="imagelayer"/><g class="shapelayer"/></g><g class="cartesianlayer"><g class="subplot xy"><g class="layer-subplot"><g class="shapelayer"/><g class="imagelayer"/></g><g class="gridlayer"><g class="x"><path class="xgrid crisp" transform="translate(200.98000000000002,0)" d="M0,100v320" style="stroke: rgb(255, 255, 255); stroke-opacity: 1; stroke-width: 1px;"/><path class="xgrid crisp" transform="translate(321.97,0)" d="M0,100v320" style="stroke: rgb(255, 255, 255); stroke-opacity: 1; stroke-width: 1px;"/><path class="xgrid crisp" transform="translate(442.95,0)" d="M0,100v320" style="stroke: rgb(255, 255, 255); stroke-opacity: 1; stroke-width: 1px;"/></g><g class="y"><path class="ygrid crisp" transform="translate(0,366.11)" d="M80,0h472" style="stroke: rgb(255, 255, 255); stroke-opacity: 1; stroke-width: 1px;"/><path class="ygrid crisp" transform="translate(0,290.32)" d="M80,0h472" style="stroke: rgb(255, 255, 255); stroke-opacity: 1; stroke-width: 1px;"/><path class="ygrid crisp" transform="translate(0,214.53)" d="M80,0h472" style="stroke: rgb(255, 255, 255); stroke-opacity: 1; stroke-width: 1px;"/><path class="ygrid crisp" transform="translate(0,138.74)" d="M80,0h472" style="stroke: rgb(255, 255, 255); stroke-opacity: 1; stroke-width: 1px;"/></g></g><g class="zerolinelayer"/><path class="xlines-below"/><path class="ylines-below"/><g class="overlines-below"/><g class="xaxislayer-below"/><g class="yaxislayer-below"/><g class="overaxes-below"/><g class="plot" transform="translate(80, 100)" clip-path="url('#clip4d3255xyplot')"><g class="scatterlayer mlayer"><g class="trace scatter tracedb5d8c" style="stroke-miterlimit: 2; opacity: 1;"><g class="fills"/><g class="errorbars"/><g class="lines"><path class="js-line" d="M0,16L3.65,16L3.98,46.32L4.31,46.32L4.64,23.58L5.97,23.58L6.3,31.16L7.29,23.58L7.62,23.58L9.28,23.58L9.61,31.16L10.61,23.58L10.94,23.58L11.6,16L11.93,23.58L13.92,23.58L14.25,46.32L14.58,91.79L14.92,76.63L15.25,23.58L15.91,23.58L16.24,31.16L17.24,31.16L17.9,23.58L18.23,23.58L18.56,16L18.89,38.74L19.22,31.16L19.56,31.16L19.89,31.16L20.22,53.9L20.55,53.9L20.88,61.48L21.88,53.9L22.21,53.9L22.87,53.9L23.2,61.48L25.52,61.48L25.85,53.9L26.85,53.9L27.18,46.32L28.51,61.48L28.84,61.48L29.17,61.48L29.5,53.9L30.16,53.9L30.49,61.48L31.49,61.48L31.82,69.05L33.15,84.21L33.48,84.21L34.14,84.21L34.47,76.63L35.47,84.21L35.8,84.21L36.79,76.63L37.12,76.63L38.45,76.63L38.78,84.21L39.11,84.21L39.44,76.63L40.44,84.21L40.77,84.21L41.1,91.79L41.43,84.21L41.76,84.21L43.09,84.21L43.42,76.63L43.75,76.63L44.08,84.21L44.42,84.21L44.75,76.63L45.08,76.63L45.41,91.79L45.74,91.79L46.07,84.21L46.4,76.63L46.74,84.21L47.07,84.21L47.73,84.21L48.06,91.79L49.06,84.21L50.05,84.21L54.69,84.21L55.02,76.63L55.35,76.63L55.69,84.21L57.01,84.21L57.34,99.37L57.67,106.95L58.01,99.37L58.34,99.37L59.99,69.05L60.33,76.63L61.65,76.63L61.98,61.48L63.31,76.63L63.64,76.63L63.97,76.63L64.3,46.32L64.63,46.32L64.97,61.48L65.3,61.48L65.63,53.9L66.29,61.48L66.62,53.9L68.28,76.63L68.61,69.05L69.28,46.32L69.61,69.05L70.93,69.05L71.26,61.48L71.6,46.32L71.93,69.05L72.26,76.63L72.59,69.05L72.92,69.05L73.25,69.05L73.58,61.48L73.92,53.9L74.25,69.05L74.58,69.05L74.91,76.63L75.57,76.63L75.9,61.48L76.24,53.9L76.57,69.05L77.23,69.05L77.56,76.63L77.89,76.63L78.22,38.74L79.55,69.05L79.88,69.05L80.21,69.05L80.54,61.48L80.88,61.48L81.21,69.05L82.53,69.05L82.87,61.48L83.2,61.48L83.53,69.05L84.85,69.05L85.19,53.9L85.52,53.9L85.85,69.05L86.18,69.05L86.51,61.48L86.84,61.48L87.17,53.9L87.51,76.63L87.84,53.9L88.17,53.9L88.5,61.48L88.83,53.9L89.16,53.9L90.49,53.9L90.82,61.48L91.81,53.9L92.15,61.48L92.48,46.32L92.81,61.48L93.14,69.05L93.8,69.05L94.13,61.48L94.47,69.05L94.8,61.48L95.13,61.48L96.12,69.05L96.46,61.48L96.79,76.63L97.12,69.05L97.45,61.48L99.77,61.48L100.1,69.05L101.1,61.48L101.43,76.63L103.08,76.63L103.42,69.05L104.08,53.9L104.41,61.48L104.74,61.48L106.07,61.48L106.4,46.32L107.06,53.9L107.39,46.32L107.72,46.32L108.06,53.9L109.05,76.63L109.38,53.9L110.04,53.9L110.38,69.05L111.37,114.53L111.7,106.95L112.03,76.63L112.37,76.63L112.7,99.37L113.69,114.53L114.02,99.37L114.35,99.37L114.69,91.79L115.02,91.79L115.35,129.69L115.68,122.11L116.01,129.69L116.34,129.69L117.34,122.11L117.67,129.69L118,129.69L118.33,190.32L118.66,235.8L118.99,106.95L119.99,69.05L120.32,69.05L120.65,69.05L120.98,53.9L121.65,91.79L121.98,84.21L122.31,84.21L122.64,76.63L122.97,84.21L123.3,84.21L124.63,53.9L124.96,61.48L125.29,61.48L126.29,69.05L126.62,69.05L126.95,69.05L127.28,61.48L127.61,76.63L127.94,69.05L128.28,69.05L128.94,69.05L129.27,61.48L131.92,61.48L132.25,69.05L132.58,69.05L132.92,61.48L133.25,61.48L133.58,69.05L135.24,69.05L135.57,114.53L136.56,76.63L136.89,76.63L140.21,76.63L140.54,84.21L141.2,61.48L141.53,76.63L142.53,69.05L142.86,69.05L143.52,61.48L143.85,69.05L145.18,69.05L145.51,53.9L145.84,53.9L146.17,61.48L147.17,53.9L147.5,53.9L148.83,76.63L149.16,69.05L149.82,69.05L150.15,76.63L150.48,69.05L150.81,84.21L151.48,91.79L151.81,84.21L152.14,76.63L152.47,99.37L153.47,76.63L153.8,76.63L154.79,76.63L155.12,69.05L156.12,76.63L156.45,76.63L156.78,76.63L157.11,84.21L157.44,69.05L157.78,84.21L158.11,84.21L159.1,84.21L159.43,61.48L159.76,53.9L160.1,69.05L160.43,69.05L160.76,84.21L162.08,46.32L162.42,61.48L162.75,53.9L163.08,69.05L163.74,53.9L164.07,76.63L164.4,76.63L164.74,69.05L166.06,53.9L166.39,76.63L167.06,69.05L167.39,84.21L168.05,84.21L168.38,76.63L168.71,46.32L169.04,61.48L169.38,76.63L170.37,76.63L170.7,69.05L171.7,76.63L172.03,76.63L173.35,76.63L173.69,69.05L174.68,76.63L175.01,69.05L176.67,46.32L177,46.32L177.99,69.05L178.33,61.48L178.66,61.48L180.31,61.48L180.65,53.9L186.61,53.9L186.94,61.48L187.94,69.05L188.27,69.05L188.6,69.05L188.93,76.63L189.26,76.63L189.6,69.05L190.92,69.05L191.25,61.48L191.58,61.48L191.92,76.63L192.91,53.9L193.24,53.9L193.9,53.9L194.24,69.05L195.23,53.9L195.56,61.48L195.89,53.9L196.22,69.05L197.22,53.9L197.55,61.48L198.54,46.32L198.88,46.32L200.2,61.48L200.53,61.48L200.87,61.48L201.2,69.05L203.19,69.05L203.52,61.48L204.51,69.05L204.84,69.05L205.51,69.05L205.84,61.48L206.5,69.05L206.83,61.48L207.49,61.48L207.83,69.05L208.82,61.48L209.15,61.48L210.15,61.48L210.48,53.9L210.81,53.9L211.14,61.48L212.47,61.48L212.8,46.32L213.79,61.48L214.12,53.9L214.46,61.48L214.79,53.9L215.12,53.9L216.11,61.48L216.44,61.48L217.11,84.21L217.44,69.05L217.77,69.05L218.1,76.63L218.76,76.63L219.1,84.21L220.09,53.9L220.42,69.05L220.75,69.05L221.08,76.63L221.42,69.05L221.75,76.63L222.08,91.79L222.41,69.05L222.74,76.63L223.07,76.63L223.4,69.05L223.74,84.21L224.07,76.63L224.4,84.21L224.73,84.21L225.72,84.21L226.06,76.63L227.05,69.05L227.38,76.63L228.38,76.63L228.71,84.21L229.04,76.63L229.37,114.53L230.03,122.11L230.37,106.95L231.36,129.69L231.69,122.11L232.02,122.11L232.35,137.27L233.35,137.27L233.68,129.69L234.01,114.53L234.34,129.69L234.67,137.27L235.01,137.27L235.34,129.69L236,129.69L236.33,114.53L236.66,114.53L236.99,129.69L237.66,129.69L237.99,122.11L238.32,114.53L238.65,137.27L238.98,129.69L239.31,213.06L239.65,228.22L239.98,129.69L240.97,76.63L241.3,76.63L241.97,69.05L242.3,84.21L242.63,84.21L242.96,69.05L243.29,69.05L243.62,84.21L244.29,91.79L244.62,84.21L244.95,84.21L245.28,76.63L245.61,76.63L245.94,69.05L246.94,84.21L247.27,76.63L247.93,69.05L248.26,76.63L249.92,76.63L250.25,84.21L250.58,84.21L250.92,76.63L251.25,84.21L251.58,76.63L251.91,76.63L252.24,69.05L252.57,76.63L252.9,76.63L253.24,69.05L253.57,76.63L253.9,76.63L254.23,76.63L254.56,84.21L256.22,84.21L256.55,106.95L257.54,84.21L257.88,84.21L258.87,91.79L259.2,91.79L259.87,91.79L260.2,99.37L260.86,99.37L261.19,91.79L261.85,91.79L262.19,84.21L262.85,84.21L263.18,91.79L263.51,84.21L263.84,99.37L264.84,76.63L265.17,76.63L265.83,76.63L266.16,99.37L266.83,76.63L267.16,84.21L268.15,76.63L268.48,91.79L269.15,76.63L269.48,91.79L270.8,76.63L271.13,76.63L272.46,61.48L272.79,61.48L273.79,76.63L274.12,76.63L275.44,76.63L275.78,69.05L276.44,76.63L276.77,69.05L278.1,69.05L278.43,76.63L278.76,69.05L279.09,84.21L279.42,84.21L279.75,69.05L280.08,84.21L280.42,69.05L280.75,76.63L281.08,76.63L281.41,69.05L282.07,91.79L282.4,84.21L282.74,53.9L283.4,91.79L283.73,84.21L284.06,84.21L285.06,53.9L285.39,61.48L285.72,69.05L286.05,61.48L286.38,61.48L286.71,61.48L287.04,38.74L288.37,69.05L288.7,61.48L291.69,61.48L292.02,53.9L293.01,61.48L293.34,61.48L294.01,61.48L294.34,46.32L295.33,69.05L295.66,61.48L295.99,69.05L296.33,38.74L296.66,31.16L296.99,38.74L297.32,46.32L298.31,46.32L298.65,31.16L299.31,46.32L299.64,31.16L300.63,38.74L300.97,38.74L302.62,38.74L302.96,46.32L304.28,31.16L304.61,38.74L305.28,38.74L305.61,31.16L306.27,46.32L306.6,38.74L306.93,38.74L307.26,38.74L307.6,46.32L308.59,31.16L308.92,31.16L309.92,31.16L310.25,46.32L310.58,46.32L310.91,53.9L312.24,53.9L312.57,69.05L313.56,61.48L313.89,61.48L314.56,61.48L314.89,53.9L315.22,53.9L315.55,61.48L316.54,69.05L316.88,69.05L317.54,61.48L317.87,69.05L319.2,69.05L319.53,91.79L319.86,84.21L320.19,91.79L320.52,91.79L320.85,84.21L321.19,106.95L321.52,106.95L321.85,197.9L322.84,106.95L323.17,129.69L323.51,129.69L323.84,137.27L324.5,99.37L324.83,106.95L325.16,106.95L326.16,99.37L326.49,106.95L327.48,99.37L327.81,99.37L328.48,99.37L328.81,106.95L331.46,106.95L331.79,99.37L332.46,114.53L332.79,106.95L333.12,106.95L333.45,114.53L334.11,106.95L334.44,114.53L334.78,114.53L335.11,106.95L335.77,106.95L336.1,99.37L337.1,106.95L337.43,106.95L339.75,106.95L340.08,99.37L341.07,114.53L341.4,99.37L342.07,99.37L342.4,106.95L342.73,99.37L343.06,106.95L343.39,106.95L344.06,99.37L344.39,106.95L345.05,91.79L345.38,106.95L345.71,106.95L346.04,99.37L346.38,99.37L346.71,106.95L347.04,106.95L347.37,91.79L348.37,106.95L348.7,99.37L349.03,99.37L349.36,106.95L349.69,106.95L350.02,114.53L351.02,114.53L351.35,122.11L351.68,122.11L352.01,129.69L352.67,129.69L353.01,137.27L354.66,106.95L354.99,76.63L355.99,99.37L356.32,99.37L356.65,99.37L356.98,91.79L357.31,84.21L357.65,106.95L357.98,106.95L358.31,99.37L359.3,84.21L359.63,91.79L359.97,91.79L360.3,175.16L360.63,213.06L360.96,84.21L362.62,31.16L362.95,38.74L363.28,46.32L363.61,38.74L363.94,38.74L365.6,61.48L365.93,46.32L366.26,38.74L366.6,53.9L367.92,53.9L368.25,61.48L368.92,53.9L369.25,61.48L370.57,61.48L370.9,46.32L371.57,69.05L371.9,61.48L372.23,61.48L373.22,38.74L373.56,53.9L374.22,53.9L374.55,46.32L376.21,69.05L376.54,61.48L376.87,61.48L377.2,69.05L377.53,69.05L377.87,84.21L378.2,84.21L378.53,76.63L378.86,76.63L379.19,69.05L379.52,69.05L379.85,53.9L380.85,61.48L381.18,61.48L381.84,61.48L382.17,38.74L383.17,46.32L383.5,46.32L384.49,46.32L384.83,53.9L386.48,53.9L386.81,61.48L387.81,53.9L388.14,53.9L388.8,46.32L389.13,53.9L391.12,53.9L391.46,61.48L392.12,38.74L392.45,46.32L393.44,38.74L393.78,61.48L394.11,61.48L394.44,46.32L396.1,46.32L396.43,38.74L396.76,38.74L397.09,46.32L397.75,46.32L398.08,61.48L399.08,46.32L399.41,46.32L400.4,46.32L400.74,38.74L402.72,38.74L403.06,53.9L403.39,53.9L403.72,46.32L404.38,46.32L404.71,38.74L405.04,38.74L405.38,53.9L406.37,46.32L406.7,53.9L407.37,31.16L407.7,46.32L408.36,53.9L408.69,38.74L409.69,31.16L410.02,46.32L411.34,61.48L411.67,61.48L412.01,61.48L412.34,53.9L412.67,53.9L413,69.05L413.33,69.05L413.66,61.48L414.66,69.05L414.99,38.74L415.98,61.48L416.31,61.48L416.65,53.9L416.98,84.21L417.31,84.21L417.64,76.63L418.97,76.63L419.3,84.21L419.63,61.48L419.96,76.63L420.29,76.63L420.62,76.63L420.96,84.21L421.29,84.21L421.62,61.48L421.95,61.48L422.28,84.21L423.28,76.63L423.61,84.21L424.6,53.9L424.93,46.32L425.93,46.32L426.26,69.05L427.58,69.05L427.92,53.9L428.58,53.9L428.91,61.48L429.24,61.48L429.57,53.9L429.9,53.9L430.24,69.05L431.23,53.9L431.56,61.48L432.56,61.48L432.89,53.9L435.21,53.9L435.54,61.48L435.87,61.48L436.2,53.9L437.2,91.79L437.53,91.79L438.52,84.21L438.85,91.79L439.19,91.79L439.52,99.37L440.51,91.79L440.84,99.37L442.17,114.53L442.5,106.95L443.16,114.53L443.49,106.95L444.82,106.95L445.15,114.53L445.48,114.53L445.81,106.95L446.81,106.95L447.14,99.37L449.13,99.37L449.46,84.21L449.79,91.79L450.12,84.21L450.46,84.21L450.79,99.37L451.12,91.79L451.45,91.79L452.11,114.53L452.44,106.95L453.11,106.95L453.44,99.37L453.77,99.37L454.1,144.85L455.43,99.37L455.76,91.79L463.05,91.79L463.38,99.37L463.71,91.79L464.04,114.53L465.37,114.53L465.7,91.79L466.03,91.79L466.37,114.53L467.69,114.53L468.02,122.11L468.35,106.95L468.69,129.69L470.01,129.69L470.34,84.21L470.67,84.21L471.01,91.79L471.34,91.79L471.67,84.21L472,84.21" style="vector-effect: non-scaling-stroke; fill: none; stroke: rgb(99, 110, 250); stroke-opacity: 1; stroke-width: 2px; opacity: 1;"/></g><g class="points"/><g class="text"/></g><g class="trace scatter trace37db3a" style="stroke-miterlimit: 2; opacity: 1;"><g class="fills"/><g class="errorbars"/><g class="lines"><path class="js-line" d="M0,35.79L0.66,39.54L0.99,38.34L1.33,32.72L1.99,36.23L2.32,42.79L2.65,39.14L2.98,40.73L3.31,40.33L3.65,38.34L3.98,59.19L4.31,48.14L4.97,48.6L5.3,48.6L6.63,39.92L6.96,43.51L7.29,42.71L7.62,44.26L8.95,39.13L9.28,43.93L9.61,42.28L9.94,46.21L10.94,36.79L11.27,31.25L11.6,39.13L12.26,38.74L12.6,37.95L12.93,41.48L13.26,37.96L13.59,38.74L13.92,46.68L14.25,45.83L14.58,74.73L15.58,45.3L15.91,44.6L16.24,55.71L16.9,54.63L17.24,53.54L17.57,51.82L17.9,52.99L18.23,56.23L18.56,58.46L18.89,53.15L19.89,58.71L20.22,79.73L20.88,82.95L21.21,80.76L21.88,81.91L22.21,80.13L23.2,80.35L23.53,79.18L23.87,79.93L24.2,79.37L24.53,77.88L24.86,78.29L25.19,77.13L25.52,65.72L26.19,67.97L26.52,65.83L27.84,73.16L28.17,70.88L28.51,69.02L28.84,70.08L29.17,71.09L29.5,70.68L29.83,67.56L30.16,70.58L30.49,68.86L30.83,65.88L31.82,63.91L32.15,65.72L32.48,66.04L32.81,68.02L33.15,68.88L33.48,67.21L33.81,69.77L34.14,64.61L35.47,70.59L35.8,67.27L36.13,66.48L36.46,66.7L36.79,67.06L37.12,70.23L37.46,70.1L37.79,69.33L38.12,70.05L38.45,69.74L38.78,80.4L39.44,68.85L39.78,70.54L40.11,71.3L40.77,69.99L41.1,67.39L42.43,76.89L42.76,74.89L43.09,75.17L43.42,62.12L43.75,69.15L44.08,78.97L45.08,76.34L45.41,78.49L45.74,79.56L46.07,68.93L47.07,75.24L47.4,74.49L48.39,66.37L48.72,69.19L50.05,73.27L50.71,73.67L52.04,66.81L52.37,68.19L53.03,61.99L53.37,62.25L53.7,60.02L54.36,62.05L54.69,60.84L55.02,59.55L55.35,60.06L55.69,59.11L56.02,59.44L56.35,58.63L57.01,57.45L57.34,78.48L58.01,66.5L58.34,66.88L58.67,65.9L59.66,56.68L59.99,53.72L60.33,53.05L60.66,54.14L60.99,54.44L61.32,52.68L61.65,50.4L61.98,50.65L62.31,52.79L62.65,52.99L62.98,54.12L63.31,53.7L63.64,51.51L63.97,51.05L64.3,37.63L64.97,48.43L65.3,45.52L65.63,43.99L65.96,45.89L66.29,42.48L66.62,57.4L66.96,51.15L67.29,50.32L68.28,48.49L68.61,46.59L68.94,49.85L69.28,46.75L69.61,47.3L69.94,45.16L70.27,45.89L70.6,45.91L70.93,45.52L71.26,46.58L71.6,46.05L71.93,47L72.59,47.18L72.92,46.03L73.92,50.3L74.25,49.5L74.58,47.62L74.91,47.31L75.24,48.33L75.57,46.9L75.9,50.11L76.24,50.02L76.57,52.63L77.56,47.83L77.89,50.39L78.22,48.48L78.56,49L78.89,51.1L79.55,48.23L79.88,49.51L80.88,54L81.21,55.4L82.2,52.19L82.53,51.98L83.2,45.86L83.53,51.3L83.86,47.04L84.19,48.08L84.52,48.48L84.85,52.94L85.19,45.14L85.52,45.85L85.85,53.13L86.84,47.59L87.17,50.03L87.51,58.37L87.84,50.38L88.17,55.63L89.16,48.2L89.49,47.68L90.49,64.19L90.82,57.14L91.81,53.16L92.15,57.87L92.48,42.22L92.81,64.24L93.14,63.35L93.47,57.97L93.8,57.86L94.13,58.7L94.47,57.5L94.8,59.21L95.13,60.83L95.46,57.18L95.79,55.91L96.12,57.28L96.46,57.51L96.79,64.1L97.45,62.63L97.78,60.63L98.44,57.22L98.78,58.22L99.11,60.12L99.44,57.45L99.77,63.08L100.43,55.93L100.76,57.69L101.1,62.13L102.09,82.2L102.42,76.39L104.08,58.3L104.41,72.88L105.07,66.13L105.4,66.28L105.74,63.19L106.73,82.9L107.06,73.16L107.39,76.17L107.72,72.94L108.06,69.79L108.39,70.02L108.72,78.5L109.05,89.09L109.38,75.76L109.71,80.25L110.04,81.55L110.38,88.46L111.37,151.7L111.7,119.57L112.03,119.17L112.37,121.74L113.03,110.08L113.36,139.79L113.69,154.52L114.02,119.98L115.02,124.74L115.35,143.07L116.01,170.79L116.34,146L116.67,142.8L117.01,151.34L117.67,182.87L118,217.97L118.33,304L118.66,198.68L118.99,124.65L119.99,76.46L120.32,74.74L120.65,68.1L120.98,72.72L121.31,78L121.65,76.93L121.98,73.35L122.31,75.42L122.64,72.54L123.3,78.97L123.63,77.84L123.97,76.69L124.96,61.49L125.29,73.17L126.62,66.39L126.95,68.81L127.28,66.72L127.61,75.87L128.61,69.48L128.94,72.49L129.6,63.17L129.93,69.86L131.59,65.61L131.92,67.65L132.25,71.6L132.58,67.98L132.92,69.11L133.25,69.11L133.58,74.04L133.91,69.9L134.24,71.85L134.57,77.54L134.9,73.3L135.24,74L135.57,101.77L136.23,75.56L136.56,75.89L136.89,79.84L137.56,71.95L137.89,74.32L138.22,73L139.21,83.34L139.54,78.84L139.88,81.45L140.21,77.64L140.54,77.64L140.87,67.04L141.53,73.91L141.87,71.14L142.2,68.78L142.53,70.73L142.86,68.85L143.19,68.44L143.85,75.06L144.19,69.28L144.52,69.16L144.85,71.2L145.51,66.29L145.84,68.74L146.17,72.02L147.17,68.11L147.5,68.44L147.83,73.52L148.49,73L148.83,69.95L149.82,66.68L150.15,79.41L150.48,75.22L150.81,78.29L151.15,76.82L152.14,72.24L152.47,79.78L152.8,71.09L153.47,72.99L153.8,76.87L154.46,68.87L154.79,73.34L155.12,70.44L155.46,79.42L155.79,73.12L156.45,74.42L156.78,72.48L157.78,81.33L158.11,77.48L158.44,77.98L158.77,74.73L159.1,75.2L159.43,68.46L159.76,68.33L160.1,70.02L160.76,67.88L161.09,69.3L161.42,70L161.75,59.58L162.42,66.68L162.75,64.11L163.08,62.99L163.41,63.67L163.74,62.75L164.07,70.56L164.4,70.19L164.74,78.58L165.73,67.75L166.06,73.12L166.39,74.35L166.72,68.4L167.06,74.54L167.39,71.77L167.72,70.33L168.05,70.39L168.38,66.94L168.71,53.32L169.04,61.77L169.38,70.19L171.37,61.1L171.7,64.86L172.03,65.45L172.36,62.28L172.69,63.26L173.02,60.71L173.35,63.95L173.69,58.02L174.02,64.21L174.35,63.41L174.68,62.26L175.01,61.85L175.34,58.16L176.01,44.03L176.34,50.77L176.67,47.43L177,42.58L177.33,44.34L177.66,45.14L177.99,51.08L178.66,50.62L178.99,48.08L179.32,47.01L179.65,47.35L179.98,48.45L180.98,49.34L181.31,46.25L182.63,58.74L182.97,60.23L183.63,57.78L183.96,59.63L184.29,60.42L184.62,58.6L185.29,55.41L185.62,56.95L185.95,58.92L186.61,57.34L186.94,58.83L187.94,67.84L188.27,66.75L188.93,72.53L189.26,71.53L189.6,66.04L189.93,61.97L190.26,66.65L190.59,66.14L190.92,66.27L191.25,65.26L191.58,64.92L191.92,73.56L192.91,60.07L193.24,59.42L194.9,72.16L195.23,68.2L196.22,73.06L196.56,59.33L198.21,68.52L198.54,67.1L198.88,62.42L199.21,69.07L200.53,71.82L200.87,69.31L201.2,62L201.53,65.8L201.86,67.18L202.52,64.56L202.85,64.96L203.19,67.39L203.52,62.52L203.85,69.99L204.18,71.01L204.51,64.96L205.17,66.63L205.51,66.25L205.84,65.48L206.17,65.85L206.5,69.19L206.83,64.8L207.16,66.92L207.49,67.58L207.83,69.05L208.16,64.58L208.49,69.77L208.82,68.89L209.15,67.37L209.81,67.72L210.15,68.49L210.81,61.45L211.14,68.21L211.47,66.05L211.8,70.55L212.13,67.82L212.47,69.51L212.8,71.15L213.13,71.41L213.46,76.62L214.46,66.97L214.79,68.4L215.12,70.96L215.45,67.54L216.78,76.51L217.11,80.81L217.44,81.3L217.77,78.46L218.1,84.84L218.43,82.44L218.76,80.98L219.1,80.92L219.43,79.96L220.75,87.97L221.08,87.34L221.42,82.07L221.75,89.72L222.41,88.83L222.74,95.2L223.07,95.56L223.4,91.85L224.07,96.33L224.4,87.23L225.06,105.55L225.39,97.74L226.06,93.56L226.39,99.43L226.72,90.6L227.05,99.54L227.38,112.96L227.71,102.31L228.38,103.19L228.71,99.93L229.04,98.24L229.37,117.62L229.7,129.66L230.03,113.52L230.37,114.39L230.7,117.63L231.36,129.22L231.69,157.81L232.02,167.73L232.35,150.31L232.69,147.03L233.02,154.29L233.68,124.81L234.01,146.66L234.34,151.72L234.67,138.91L235.01,137.09L235.34,140.93L235.67,144.99L236,142.22L236.33,158.85L236.66,165.83L236.99,152.82L238.32,158.72L238.65,178.73L239.31,265.69L239.65,209.1L240.97,95.53L241.3,96.2L241.63,84.31L241.97,93.95L242.3,91.47L242.63,93.69L242.96,87.35L243.96,96.15L244.29,92.53L245.94,99.14L246.28,95.13L247.6,85.65L247.93,87.08L248.26,94.72L249.26,84.79L249.59,84.25L249.92,81.49L250.25,82.77L250.58,87.89L251.58,81.61L251.91,82.57L252.24,81.96L252.9,85.01L253.24,81.02L254.23,80.98L254.56,91.09L254.89,90.98L255.22,92.39L255.56,87.26L255.89,88.34L256.22,90.22L256.55,102.25L256.88,85.78L257.21,86.2L257.54,89.32L258.54,82.27L258.87,83.31L260.53,89.88L260.86,86.68L261.52,82.71L261.85,85.16L262.19,87.59L262.52,87.04L262.85,85.67L263.51,87.87L263.84,77.9L264.17,76.2L264.51,77.01L264.84,79.74L265.5,78.24L265.83,74.04L266.83,82.71L267.16,81.3L267.49,80.55L267.82,82.14L268.15,77.83L268.48,78.77L268.81,83.59L269.48,87.93L269.81,87.55L270.14,84.32L270.8,84.09L271.13,88.84L271.47,91.2L272.13,91.1L272.46,90.19L272.79,90.34L273.12,88.13L273.46,86.88L273.79,88.27L274.12,90.07L275.11,83.33L275.44,89.09L275.78,87.96L276.11,88.66L276.44,84.39L276.77,85.27L277.1,83.37L278.1,74.29L278.43,78.15L278.76,77.71L279.09,82.31L279.75,75.85L280.08,91.31L281.41,77.96L281.74,83.14L282.07,85.3L282.4,79.42L282.74,78.74L283.07,81.84L283.4,82.53L283.73,80.71L284.39,74.93L284.72,80.38L285.06,78.3L285.72,78.62L286.05,77.42L286.38,79.34L286.71,78.61L287.04,76.41L287.38,74.02L287.71,81.76L289.37,70.61L289.7,73.71L290.03,72.14L290.69,72.52L291.02,74.82L291.35,75.75L291.69,64.34L292.35,71.08L292.68,67.6L293.01,69.62L293.34,69.56L293.67,67.81L294.67,72.24L295,69.94L296.33,67.19L296.66,69.57L296.99,70.17L297.32,65.47L298.31,61.68L298.65,57.43L299.31,61.54L299.64,55.68L300.97,52.86L301.3,55.54L301.63,56.7L301.96,52.75L302.96,57.41L303.29,54.89L303.95,60.47L304.28,57.11L304.94,58.41L305.28,56.06L305.61,51.47L305.94,53.49L306.27,54.25L307.26,54.67L307.6,54.29L307.93,38.1L308.59,40.43L308.92,36.45L309.92,43.64L310.25,65.33L311.24,63.96L311.57,64.69L312.24,66.58L312.57,65.21L313.23,68.13L313.56,67.47L313.89,66.78L314.56,64.34L314.89,67.6L315.22,64.69L315.55,65.7L315.88,66.32L316.21,69.05L316.54,65.58L316.88,67.8L317.21,64.04L317.54,64.46L317.87,65.57L318.2,63.87L318.53,65.7L318.87,64.34L319.2,63.27L319.86,60.63L320.19,61.53L320.52,63.42L320.85,67.67L321.52,67.33L321.85,142.18L322.51,103.07L322.84,114.86L323.17,107.99L323.84,95.7L324.17,67.89L324.5,67.06L324.83,71.91L325.16,72.63L325.49,75.27L326.16,79.16L326.49,77.36L326.82,74.48L327.81,81.43L328.15,81.45L328.48,83.91L328.81,82.1L329.14,81.11L329.47,90.81L329.8,87.16L330.13,86.38L330.8,88.34L331.13,87.44L331.79,91.08L332.12,89.42L333.78,95.08L334.11,96.19L334.78,97.17L335.11,95.49L335.44,95.08L335.77,99.44L336.1,100.93L336.43,107.59L336.76,105.32L337.1,106.94L337.43,106.72L337.76,103.3L338.42,104.06L338.75,109.67L339.08,106.59L339.42,109.47L339.75,108.28L340.41,91.41L340.74,96.71L341.07,100.44L341.4,101.15L341.74,98.39L342.07,99.15L342.4,92.1L343.06,85.94L343.39,88.81L343.72,89.67L344.39,85.9L344.72,89.14L345.38,84.52L345.71,92.01L346.04,91.25L346.38,91.67L346.71,94.66L347.04,94.73L347.37,86.46L348.03,97.21L348.37,89.49L348.7,89.4L349.03,90.53L349.69,84.93L350.02,96.33L350.35,101.57L350.69,91.44L351.02,90.57L351.35,96.05L352.01,94.32L352.34,113.41L352.67,146.19L353.01,120.15L353.34,118.98L354,116.06L354.33,105.74L354.66,120.07L354.99,118.4L355.33,92.72L355.99,97.36L356.32,96.24L356.65,105.28L357.31,125.91L357.65,105.58L357.98,105.4L358.31,110.23L359.3,131.86L359.63,145.17L359.97,154.78L360.3,255.2L361.62,74.08L361.96,62.08L362.29,55.47L362.62,60.91L362.95,61.58L363.28,56.56L363.61,58.4L363.94,60.34L364.28,60.15L364.61,59.02L365.27,67.18L365.6,62.19L365.93,63.03L366.26,58.99L367.59,65.74L367.92,64.96L368.92,71.73L369.25,72.52L370.57,68.02L370.9,68.7L371.24,73.61L371.57,68.95L371.9,64.19L372.89,56.95L373.22,57.37L373.56,67.59L373.89,56.68L374.22,57.3L374.55,61.17L374.88,63.17L375.21,71.97L375.54,72.76L375.88,80.72L376.54,72.07L376.87,74.61L377.2,73.02L377.53,79.08L377.87,73.32L378.2,76.42L378.86,75.27L379.19,70.02L380.19,67.37L380.52,68.18L381.51,66.59L381.84,68.96L382.17,69.3L382.51,71.47L382.84,73.68L383.17,72.65L383.5,69.53L383.83,69.75L384.16,69.23L384.49,66.66L385.82,75.11L386.15,74.76L386.48,72.92L386.81,66.3L388.47,72.99L388.8,69.27L389.8,72.53L390.13,71L390.46,70.22L390.79,67.17L391.12,69.32L391.46,67.7L391.79,65.57L392.45,69.78L392.78,67.89L393.11,68.99L393.44,67.96L393.78,74.31L395.1,66.94L395.43,68.22L396.1,67.08L396.43,67.53L396.76,68.7L397.42,64.84L397.75,65.46L398.08,69.99L398.42,69.4L398.75,69.99L399.08,70.02L399.74,69.88L400.07,63.86L400.74,62.48L401.07,64.62L401.4,63.94L401.73,65.93L402.06,65.95L402.39,64.87L403.06,71.66L403.39,66.63L403.72,68.9L404.05,66.75L404.38,67.55L405.04,60.04L405.38,68.98L406.04,68.52L406.37,65.51L407.37,68.84L407.7,68.93L408.36,72.41L408.69,70.89L409.02,68.94L409.69,68.73L410.02,59.26L410.68,66.33L411.01,66.11L411.34,67.37L412.01,66.06L412.34,69.74L412.67,63.7L413,68.32L413.33,74.33L413.66,64.87L413.99,72.91L414.33,72.54L414.66,68.48L414.99,69.16L415.32,73.9L415.65,78.38L416.31,77.38L416.65,74.21L416.98,77.03L417.31,73.34L418.3,82.2L418.63,80.01L419.63,72.87L419.96,81.78L421.29,71.02L421.62,68.52L421.95,68.07L422.28,69.47L422.61,68.97L422.94,69.28L423.28,66.6L423.61,68.41L423.94,54.88L424.27,54.28L424.6,58.59L424.93,57.59L425.26,57.71L425.6,58.73L425.93,59.56L426.26,68.22L427.25,61.39L427.58,59.18L427.92,59.7L428.25,58.46L428.58,53.82L428.91,54.68L429.24,60L429.57,59.32L429.9,55.57L431.56,49.71L431.89,50.25L432.22,50.85L432.56,52.34L432.89,51.87L433.22,48.52L434.21,52.37L434.54,54.76L435.87,49.49L436.2,55.39L437.2,55.63L437.53,60.05L437.86,59.96L438.19,61.37L439.19,72.8L439.52,75.29L439.85,73.89L440.18,75.46L440.51,84.16L440.84,88.75L441.17,80.04L441.51,78.66L441.84,79.43L442.17,85.26L442.5,86.36L442.83,86.07L443.16,90.76L443.49,86.9L444.16,87.45L444.49,84.61L445.48,90.95L445.81,87.7L446.15,89.29L446.48,84.38L446.81,85.8L447.14,81.23L447.8,88.11L448.13,83.34L448.47,80.73L448.8,83.12L449.13,83.92L449.46,77.29L449.79,78.22L450.12,87.18L450.79,80.52L451.12,80.76L451.45,81.24L451.78,77.77L452.11,78.12L452.44,90.34L453.11,81.4L453.44,81.86L453.77,84.67L454.1,86.51L454.43,77.75L454.76,86L455.1,82.08L455.43,80.69L455.76,82.14L456.09,80.19L456.42,71.92L456.75,77.86L457.08,84.94L457.42,85.06L457.75,84.16L458.08,84.16L458.41,85.98L458.74,77.9L459.07,81.19L459.4,86.74L459.74,84.73L460.07,85.9L460.4,87.76L460.73,84.55L461.06,71.06L461.72,86.15L462.06,81.91L462.39,81.07L463.05,81.87L463.38,75.03L464.04,105.67L464.38,101.71L464.71,97.28L465.7,80.95L466.03,82.14L466.37,92.63L467.03,89.4L467.36,90.5L467.69,88.98L468.02,81.25L468.69,97.68L469.02,93.04L469.35,95.37L469.68,96.46L470.01,93.81L470.34,87.89L470.67,96.56L471.01,106.11L471.34,92.72L471.67,96.95L472,95.8" style="vector-effect: non-scaling-stroke; fill: none; stroke: rgb(239, 85, 59); stroke-opacity: 1; stroke-width: 2px; opacity: 1;"/></g><g class="points"/><g class="text"/></g><g class="trace scatter tracee9d9f5" style="stroke-miterlimit: 2; opacity: 1;"><g class="fills"/><g class="errorbars"/><g class="lines"><path class="js-line" d="M0,40.75L1.33,50.6L1.66,48.63L1.99,43.68L2.32,44.71L2.65,49.52L2.98,52.61L3.31,46.68L3.65,53.67L3.98,49.66L4.31,46.62L5.63,61.09L5.97,60.22L6.3,59.35L6.63,57.96L6.96,65.52L7.29,68.96L7.62,67.74L7.96,67.63L8.29,68.71L8.62,61.66L8.95,55.79L9.28,59.58L9.61,61.53L10.61,74.01L10.94,71.44L11.27,64.32L11.6,66.21L11.93,70.36L12.26,77.09L12.93,77.02L13.26,66.56L13.59,71.9L13.92,69.05L14.25,96.53L15.58,65.31L15.91,68.11L16.24,71.9L17.24,80.42L17.57,76.63L18.23,70.95L18.56,71.9L18.89,78.53L19.22,77.58L19.56,79.48L19.89,81.37L20.22,88.95L20.55,88L20.88,88.95L21.21,93.69L21.88,90.84L22.21,94.63L23.2,87.05L23.53,95.58L24.53,91.79L24.86,83.27L25.19,88L25.52,85.16L25.85,79.48L26.19,79.48L26.52,83.27L27.51,85.16L27.84,79.48L29.17,90.84L29.5,83.27L29.83,83.27L30.16,78.53L30.83,85.16L31.16,79.48L31.49,82.32L31.82,70.95L33.15,86.11L33.48,85.16L33.81,86.11L34.14,75.69L34.47,79.48L34.8,76.63L35.13,77.58L35.47,79.48L35.8,78.53L36.13,86.11L36.46,74.74L36.79,83.27L37.12,83.27L37.46,86.11L37.79,79.48L38.12,77.58L38.45,86.11L38.78,81.37L39.44,82.32L39.78,84.21L40.11,80.42L40.44,82.32L40.77,88L41.1,81.37L41.43,88.95L41.76,87.05L42.1,91.79L42.43,89.9L42.76,88L43.09,93.69L43.42,82.32L44.08,92.74L44.42,90.84L44.75,88.95L45.08,86.11L45.41,94.63L47.07,88.95L47.4,88L47.73,91.79L48.06,86.11L48.39,91.79L48.72,90.84L49.06,88L50.05,90.84L50.71,88L51.04,93.69L51.38,90.88L51.71,85.22L52.04,85.16L52.37,90.84L52.7,75.55L53.03,82.32L53.37,84.21L54.36,77.58L54.69,79.48L55.69,75.69L56.02,77.58L56.35,80.42L56.68,78.53L57.01,76.63L57.34,88L57.67,87.05L58.01,80.42L58.34,73.79L58.67,78.53L59,76.63L59.66,70.95L59.99,74.47L60.66,78.53L60.99,72.84L61.32,70.95L61.65,72.84L61.98,63.37L62.65,70.95L62.98,64.32L63.31,72.84L63.97,71.9L64.3,63.37L65.63,74.74L65.96,70.95L66.29,73.79L66.62,83.27L67.29,70.95L67.62,71.9L67.95,70.95L68.28,70L68.61,75.69L68.94,75.69L69.28,74.74L69.94,73.79L70.27,81.37L70.6,77.58L71.26,78.53L71.6,80.42L72.26,81.37L72.59,80.42L72.92,76.63L73.25,82.32L73.58,76.63L73.92,82.32L74.25,81.37L74.91,85.16L75.24,81.37L75.57,88.95L75.9,82.32L76.24,83.27L77.23,89.9L77.56,84.7L77.89,89.9L78.22,86.11L78.56,85.16L78.89,84.21L79.22,86.11L79.55,87.05L79.88,80.56L80.21,80.96L80.54,79.45L80.88,75.41L81.21,83.27L81.54,80.8L81.87,85.97L82.2,83.19L82.53,84.51L82.87,92.19L83.2,82.85L83.86,84.17L84.19,85.73L84.52,85.81L84.85,84.75L85.19,87.24L85.52,83.32L85.85,82.42L86.18,92.35L86.51,92.47L86.84,88.83L87.17,91.13L87.51,99.78L88.17,84.62L88.5,87.83L88.83,82.49L89.49,82.66L89.83,74.93L90.16,75.06L90.49,76.83L91.48,71.37L91.81,74.03L92.15,75.36L92.48,60.4L93.14,83.45L93.47,81.7L93.8,80.87L94.47,85.97L94.8,78.67L95.13,78.47L95.46,82.61L95.79,82.66L96.12,81.65L96.79,83.97L97.12,81.85L97.45,83.07L97.78,81.75L98.11,80.84L98.78,89.18L99.11,85.55L99.44,85.41L99.77,87.61L100.43,87.28L100.76,80.61L102.42,92.51L102.75,91.54L103.08,92.36L103.42,88.64L104.08,79.84L104.41,86.61L104.74,87.64L105.07,85.05L105.74,83.37L106.07,87.58L106.4,81.06L106.73,81.69L107.06,85.05L107.72,80.84L108.06,84.21L108.72,79.88L109.05,82.05L109.38,83.37L109.71,80L110.04,80L110.38,79.16L111.04,91.79L111.37,87.58L111.7,95.16L112.03,89.27L112.37,90.11L113.69,97.69L114.02,89.27L114.69,91.79L115.02,90.95L115.35,108.63L116.01,114.53L116.34,108.63L118.66,146.53L118.99,113.69L119.33,99.37L119.66,102.74L119.99,110.32L120.65,101.9L120.98,108.63L122.31,116.21L122.64,108.63L122.97,107.79L123.3,119.58L123.63,118.74L123.97,121.27L124.3,122.95L124.63,108.63L124.96,108.63L125.29,107.79L125.62,107.79L125.96,112.84L126.62,106.11L126.95,119.58L127.28,118.74L127.61,112.84L127.94,122.95L128.61,122.11L128.94,119.58L129.93,112L130.26,117.06L131.26,122.95L131.59,117.9L131.92,117.9L132.25,117.06L132.58,128.85L132.92,125.48L133.25,123.79L133.58,126.32L133.91,123.79L134.24,123.79L134.9,132.21L135.24,130.53L135.57,150.74L136.56,117.9L136.89,118.74L137.56,119.58L137.89,125.48L138.88,117.9L139.21,119.58L139.88,122.11L140.21,120.42L140.54,122.11L140.87,114.53L141.87,120.42L142.2,119.58L142.53,117.06L142.86,121.27L143.19,119.58L143.52,118.74L143.85,119.58L144.19,128L144.52,124.63L144.85,126.79L145.18,131.48L146.17,125.19L146.51,124.35L146.84,124.08L147.17,125.44L147.5,127.95L147.83,120.46L149.16,126.23L149.49,120.65L150.15,130.63L150.48,125.8L150.81,123.48L151.48,130.96L151.81,124.04L152.47,129.88L152.8,126.98L153.13,124.89L153.47,128.21L153.8,127.6L154.13,121.41L155.12,121.61L155.46,119.46L155.79,119.03L156.12,120.88L157.44,114.64L157.78,114.27L158.11,118.05L158.44,113.36L158.77,113.36L159.1,113.41L159.43,114.27L160.1,113.93L160.43,116.84L160.76,113.85L161.42,118.71L161.75,110.78L162.08,110.99L162.42,114.68L162.75,113.66L163.08,108.22L163.41,108.05L163.74,103.86L164.4,108.33L164.74,105.23L165.07,104.22L165.4,105.1L165.73,105.71L166.39,111.91L166.72,109.8L167.06,112.22L167.39,111.73L167.72,105.96L168.05,106.43L168.38,108.6L168.71,100.19L169.38,100.82L169.71,102.79L170.04,102.3L170.37,104.96L171.37,98.98L171.7,101.25L172.03,101.19L172.36,104.61L172.69,107.57L173.02,105.8L173.35,104.74L173.69,104.25L174.02,106.27L174.68,107.14L176.01,91.03L176.34,92L177.66,82.6L177.99,92.27L178.33,90.1L178.66,91.77L178.99,94.53L179.98,98.99L180.31,90.56L180.65,84.31L180.98,91.64L181.31,93.11L182.97,91.16L183.3,90.1L183.63,90.07L183.96,91.8L184.29,95.91L184.62,90.04L184.96,95.77L185.29,86.34L185.62,85.53L185.95,89.44L186.61,89.82L186.94,95.73L187.28,104.01L187.61,98.7L187.94,99.82L188.27,102.93L188.6,99.28L188.93,101.99L189.26,103.76L189.6,101.32L190.92,88.93L191.25,87.31L191.58,89.82L191.92,102.14L192.58,93.99L192.91,95.28L193.24,97.34L193.9,108.33L194.24,103.41L194.57,101.4L194.9,105.02L195.56,107.11L195.89,106.32L196.22,105.46L196.89,94.19L197.22,95.98L197.55,90.33L198.54,99.08L198.88,90.46L199.54,99.98L199.87,93.78L201.2,88.81L201.53,91.59L201.86,92.72L202.19,89.19L202.52,88.81L202.85,90.29L203.19,92.72L203.52,88.38L204.18,95.12L204.51,89.09L204.84,87.97L205.17,90.76L205.51,90.81L205.84,88.47L206.83,92.13L207.16,90.39L207.49,91.59L207.83,97.23L208.16,94.16L208.82,94.77L209.15,97.18L209.48,94.83L209.81,95.79L210.15,95.65L210.48,92.87L210.81,96.13L211.14,98.59L211.8,98.79L212.47,93.73L212.8,93.02L213.13,92.25L213.46,97.09L213.79,91.31L214.12,94.99L214.46,98.62L215.12,98.76L215.45,97.07L216.44,98.62L216.78,106.86L217.11,106.73L217.44,108.97L217.77,111.92L218.1,106.92L218.43,109.62L218.76,103.24L219.1,107.48L219.43,103.03L219.76,100.83L220.75,111.33L221.08,106.14L221.42,107.44L221.75,104.58L222.41,106.08L222.74,105.79L223.07,101.72L224.73,105.34L225.06,104.45L225.72,100.9L226.06,101.15L226.39,103.7L226.72,104.61L227.05,110.2L227.38,110.13L227.71,107.44L228.04,102.4L228.71,102.88L229.04,103.77L229.37,103.3L229.7,108.49L230.37,103.09L230.7,105.98L231.03,103.77L231.36,105.11L231.69,127.99L232.69,114.88L233.02,117.58L233.35,117.77L233.68,114.46L234.34,127.53L234.67,118.97L235.01,119.05L235.34,120.02L235.67,118.97L236,121.65L236.33,129.86L236.66,128.66L236.99,126.69L237.33,127.2L237.66,125.07L238.98,141.02L239.31,153.94L239.65,149.89L239.98,113.86L240.31,106L240.64,107.38L240.97,113.43L241.63,103.03L241.97,108.88L242.96,105.72L243.29,108.06L243.62,110.95L243.96,107.74L244.29,109.27L244.95,103.66L245.28,109.18L246.28,107.99L246.61,108.91L246.94,106.33L247.27,109.11L247.6,108.88L247.93,111.46L248.26,106.52L249.26,110.85L249.59,105.59L249.92,106.46L250.25,103.67L250.58,105.52L250.92,102.39L251.58,103.31L251.91,101.9L252.57,107.32L252.9,102.1L253.24,102.1L253.57,98.71L254.89,110.05L255.22,113.83L255.89,107.95L256.22,109.24L256.55,117.54L256.88,106.26L257.21,107.11L257.54,110.49L258.54,102.13L258.87,102.18L259.53,111.28L259.87,105.88L260.53,111.08L260.86,104.42L261.19,105.06L261.52,100L262.19,108.21L262.52,101.9L262.85,94.95L263.51,95.58L263.84,91.79L264.17,96.84L264.51,95.58L264.84,91.16L265.17,90.53L265.5,92.42L265.83,91.79L266.16,95.58L266.49,99.37L266.83,94.95L267.16,93.05L267.49,92.42L267.82,94.32L268.48,91.79L268.81,94.95L269.15,95.58L269.48,94.32L270.47,92.42L270.8,94.32L271.47,98.11L271.8,96.21L272.13,96.84L273.46,83.58L273.79,88L274.78,83.58L275.11,82.95L276.11,91.79L276.44,90.53L276.77,91.16L277.1,90.53L277.43,89.27L277.76,89.9L278.1,89.27L278.43,88.63L278.76,88L279.09,84.21L279.75,88.63L280.08,101.9L280.42,93.69L281.08,95.58L281.41,94.32L282.07,110.74L282.4,103.79L282.74,101.27L283.4,101.9L283.73,103.16L284.39,100.63L284.72,104.42L285.72,95.58L286.05,98.11L287.71,88L288.04,88L288.7,93.69L289.03,89.9L289.37,89.27L289.7,94.95L290.69,90.53L291.02,91.79L292.02,88.63L292.35,89.27L292.68,89.27L293.01,92.42L293.67,89.9L294.01,95.58L294.34,94.32L294.67,94.95L295,94.95L295.33,94.95L295.66,96.21L296.66,89.9L296.99,93.69L297.32,91.79L297.65,93.69L297.98,94.95L298.98,89.27L299.31,91.16L301.63,86.74L301.96,88L302.29,85.48L302.62,86.74L302.96,86.74L303.29,84.21L303.62,86.11L303.95,87.37L304.28,86.74L304.61,87.37L304.94,88L305.61,82.95L305.94,85.48L306.27,85.48L307.93,76L308.26,77.9L308.59,77.26L308.92,77.26L309.25,73.48L309.58,72.84L309.92,85.48L310.58,96.84L310.91,93.69L311.24,96.21L312.24,99.37L312.57,95.58L312.9,94.95L313.23,96.21L314.56,104.42L314.89,101.9L315.55,99.37L315.88,100.63L316.21,100.63L316.54,98.74L316.88,100.63L317.21,99.37L317.54,97.48L317.87,105.06L318.2,101.9L318.53,100.63L319.2,106.32L319.53,97.48L320.52,97.48L320.85,100.63L321.19,100L321.52,100.63L321.85,114.53L322.51,112L322.84,110.11L323.51,106.95L323.84,108.84L324.83,100.63L325.16,102.53L326.16,105.69L326.49,105.06L327.15,102.53L327.48,105.06L328.48,118.32L329.14,117.69L329.47,115.79L330.47,118.32L330.8,118.95L331.79,121.48L332.12,118.32L332.79,119.58L333.12,123.37L333.45,123.37L333.78,120.85L334.78,127.79L335.11,125.9L335.44,124.63L335.77,130.32L336.76,127.16L337.1,127.16L337.43,127.16L337.76,125.27L338.09,126.53L338.42,124.63L338.75,124L339.08,126.53L339.42,125.9L339.75,127.16L340.08,115.22L340.74,118.32L341.07,118.32L341.74,125.27L342.07,122.11L343.72,113.9L344.06,112.63L345.38,106.95L345.71,109.48L347.04,117.06L347.37,115.79L347.7,113.9L348.37,109.48L348.7,110.74L349.03,112.63L350.35,103.79L350.69,104.42L351.02,104.42L351.68,101.9L352.01,103.79L352.34,101.27L352.67,103.79L353.01,107.58L353.34,106.32L353.67,108.84L354,106.32L354.33,92.42L354.66,92.42L354.99,93.69L355.66,88.63L355.99,90.53L356.98,99.37L357.31,96.84L357.65,98.11L357.98,94.95L358.97,100L359.3,104.42L359.97,108.84L360.3,127.16L360.63,128.42L360.96,100.63L361.62,91.16L361.96,91.79L362.29,89.27L363.61,94.32L363.94,90.53L364.28,93.69L364.61,91.79L364.94,89.27L365.27,92.42L365.6,91.79L365.93,89.27L366.26,86.74L366.6,88L366.93,91.16L367.26,93.05L367.59,90.53L367.92,94.32L368.25,89.27L368.92,93.69L369.25,96.21L369.91,93.05L370.24,95.58L371.57,84.21L371.9,83.58L372.23,77.9L372.89,79.16L373.22,76.63L373.56,75.37L373.89,77.9L374.22,76L374.55,78.53L376.21,89.9L376.54,89.27L377.2,88.63L377.53,86.11L377.87,87.37L378.2,85.48L378.53,82.95L378.86,86.11L379.19,88.63L380.19,77.26L380.52,81.05L381.51,77.26L381.84,80.42L382.17,76L382.51,81.05L382.84,82.95L383.83,78.53L384.16,81.05L384.49,86.74L384.83,82.32L385.16,83.58L385.49,87.37L385.82,82.32L386.15,83.58L386.48,88L386.81,89.27L387.15,87.37L388.14,85.48L388.47,86.74L388.8,86.11L389.13,88L389.47,80.42L389.8,86.11L390.13,84.84L390.46,83.58L390.79,88L391.12,82.95L391.79,83.58L392.12,82.32L392.45,82.32L392.78,86.74L393.11,81.69L393.44,82.32L393.78,84.21L394.77,79.16L395.1,81.69L395.76,74.74L396.1,79.79L396.76,74.11L397.09,79.79L397.42,81.05L397.75,77.9L398.75,82.95L399.08,83.58L399.41,82.32L399.74,85.48L400.4,79.79L400.74,83.58L401.4,82.95L401.73,84.84L402.06,88.63L402.39,85.48L402.72,85.48L403.39,86.11L403.72,81.05L404.05,81.69L404.71,80.42L405.04,84.84L406.04,98.74L406.37,95.58L406.7,93.05L407.03,94.32L407.37,96.21L407.7,98.11L408.03,96.21L408.36,96.21L408.69,94.95L409.02,96.21L409.35,95.58L409.69,95.58L410.02,91.16L410.68,105.06L411.01,94.32L411.34,95.58L411.67,90.53L412.01,97.48L412.34,92.42L412.67,94.32L413,98.11L413.33,91.16L413.66,89.9L413.99,91.79L414.99,87.37L415.32,91.79L415.65,92.42L415.98,95.58L416.31,93.69L416.65,94.95L416.98,94.95L417.31,93.05L417.64,95.58L418.63,91.79L418.97,95.58L419.3,96.84L419.63,95.58L419.96,96.21L420.29,91.79L420.62,94.32L420.96,94.32L421.29,94.95L421.62,89.27L422.28,94.32L422.61,89.9L423.61,93.05L423.94,88.63L424.6,92.42L424.93,89.9L425.6,89.27L425.93,91.16L426.92,94.95L427.25,91.16L427.58,90.53L427.92,91.79L429.24,91.79L429.57,91.16L430.57,94.95L430.9,93.05L431.23,95.58L431.56,94.32L431.89,89.9L432.56,100L432.89,96.21L433.22,97.48L433.55,97.48L433.88,98.74L434.21,97.48L434.54,100.63L435.21,98.74L435.54,100L435.87,99.37L436.2,100.63L436.87,94.32L437.2,94.95L437.53,96.84L437.86,91.16L438.19,96.84L438.52,98.74L439.19,96.84L439.52,105.06L440.18,100L440.51,105.06L440.84,105.69L441.17,101.9L442.5,109.48L442.83,108.21L443.16,107.58L443.49,110.11L444.49,105.06L444.82,105.69L445.15,105.69L446.15,110.74L446.48,108.84L446.81,108.84L447.14,112.63L448.47,103.16L448.8,106.95L449.46,101.9L449.79,108.84L450.46,108.21L450.79,103.16L451.45,100L451.78,102.53L452.11,104.42L452.44,114.53L453.11,108.84L453.44,97.48L453.77,96.84L454.1,99.37L454.43,97.48L454.76,99.37L455.1,100L455.76,99.37L456.09,101.27L456.75,102.53L457.08,110.74L457.75,96.84L458.08,97.48L458.41,98.74L459.4,102.53L459.74,98.68L460.07,99.37L460.4,101.9L461.06,97.48L461.39,98.11L461.72,101.27L462.06,100.63L462.39,98.11L462.72,98.74L463.05,96.84L463.38,89.9L463.71,110.11L464.04,112L464.38,105.06L464.71,106.95L465.04,105.06L465.37,101.27L466.03,100.63L466.37,106.95L466.7,103.16L467.36,97.48L467.69,100.75L468.02,96.21L468.35,96.84L468.69,99.37L469.02,94.95L469.35,97.48L469.68,98.11L470.01,99.37L470.34,98.74L470.67,96.21L471.01,98.74L471.34,96.84L471.67,96.84L472,94.32" style="vector-effect: non-scaling-stroke; fill: none; stroke: rgb(0, 204, 150); stroke-opacity: 1; stroke-width: 2px; opacity: 1;"/></g><g class="points"/><g class="text"/></g><g class="trace scatter trace7fbbc7" style="stroke-miterlimit: 2; opacity: 1;"><g class="fills"/><g class="errorbars"/><g class="lines"><path class="js-line" d="M0,53.33L0.66,48.93L0.99,51.11L1.33,50.94L1.66,47.46L1.99,48.54L2.32,52.67L2.65,49.09L2.98,50L3.31,52.08L4.31,47.3L4.64,55.72L5.63,50.66L5.97,50.47L6.3,52.37L6.63,46.16L6.96,55.3L7.29,53.03L7.62,49.53L7.96,33.73L8.29,51.54L8.62,47.97L10.28,53.35L10.61,51.11L10.94,48.89L11.27,52L11.93,58.34L12.26,54.59L12.6,54.17L12.93,50.07L13.92,57.9L14.25,54.9L14.58,75.99L15.58,51.54L15.91,54.56L16.24,62.97L16.57,57.87L16.9,62.42L17.24,63.29L17.57,62.78L17.9,56.19L18.56,63.93L18.89,58.14L19.22,55.57L19.56,57.48L19.89,57.06L20.88,86.17L21.21,84.14L21.88,82.97L22.21,85.89L22.54,78.5L22.87,79.57L23.2,83.32L23.53,83.6L23.87,81.21L24.86,73.9L25.19,79.46L25.52,79.76L25.85,79.13L26.19,77.15L26.52,73.54L26.85,76.56L27.18,78.65L27.51,71.5L27.84,78.66L28.17,77.47L29.17,70.21L29.5,72.29L29.83,72.31L30.16,70.34L31.16,59.28L31.49,61.86L31.82,61.22L32.48,70.56L32.81,64.31L33.15,64.66L33.48,71.12L33.81,68.12L34.14,70.85L34.47,75.52L34.8,73.96L35.13,64.46L35.47,68.63L35.8,67.44L36.13,65.46L37.46,77.36L37.79,70.95L38.12,70.82L38.45,72.4L38.78,65.93L39.11,67.74L39.44,69.65L40.11,72.79L40.44,69.3L40.77,69.73L41.1,72.27L41.76,76.45L42.1,75.08L42.43,67.09L42.76,76.2L43.09,73.44L43.42,64.33L43.75,65.21L44.08,71.28L46.07,62.13L46.4,67.06L46.74,62.54L47.07,70.97L48.06,61.82L48.39,63.09L48.72,66.83L49.06,64.05L50.05,63.3L50.71,61.54L51.04,65.86L51.38,67.47L51.71,66.44L52.04,64.36L52.37,64.41L52.7,58.99L53.7,63.29L54.03,62.96L54.36,58.84L55.02,57.09L55.35,60.92L55.69,66.03L56.35,65.5L56.68,63.46L57.01,61.27L57.34,61.68L57.67,65.01L58.01,65.99L58.34,62.03L58.67,63.73L59,60.62L59.33,60.35L59.66,57.91L60.66,58.83L60.99,61.38L61.98,55.8L62.31,58.92L62.65,65.3L62.98,60.74L63.31,61.33L64.3,52.91L64.63,52.91L64.97,56.88L65.3,55.72L65.63,54.25L65.96,53.24L66.29,55.02L66.62,55.93L66.96,53.35L67.29,56.36L67.62,50.33L67.95,50.01L68.28,51.94L68.61,40.88L68.94,56.29L69.28,55.46L69.61,59.02L69.94,58.35L70.27,60.75L70.6,58.94L70.93,61.72L71.26,56.62L71.6,61.32L71.93,71.3L72.92,63.97L73.25,66.58L73.92,62.33L74.25,68.87L74.91,61.04L75.24,61.22L75.57,59.9L76.24,63.25L76.57,62.7L76.9,58.84L77.23,65.77L77.56,63.34L77.89,58.78L78.22,53.76L78.56,57.11L78.89,59.06L79.22,59.31L79.55,62.54L79.88,62.62L80.21,58.51L80.54,55.47L80.88,63.01L81.21,66.88L81.54,59.99L81.87,61.76L82.2,61.04L82.53,60.32L82.87,60.15L83.2,51.47L83.53,67.34L83.86,62.92L84.19,60.69L84.85,63.07L85.19,62.93L85.52,70.67L86.84,60.25L87.17,62.64L87.51,62.47L87.84,65.15L88.17,70.5L88.5,67.58L88.83,66.79L89.83,60.34L90.16,61.31L90.49,67.21L90.82,67.7L91.15,64.77L91.81,62.87L92.15,70.5L92.48,60.02L92.81,69.73L93.14,77.99L94.8,67.59L95.13,70.84L95.46,71.25L95.79,64.6L96.46,66.84L96.79,65.21L97.45,72.18L97.78,67.99L98.78,61.89L99.11,62.32L99.44,68.55L100.1,70.46L100.43,66.64L100.76,68.23L101.1,65.55L102.09,82.75L102.42,76.86L102.75,76.36L103.75,70.93L104.08,65.67L104.41,76.3L104.74,67.91L105.07,70.38L105.4,71.09L105.74,62.36L106.07,62.78L106.4,68.73L106.73,73.87L107.06,67.13L107.39,64.23L107.72,65.81L108.06,65.67L109.05,80.28L109.38,76.53L109.71,68.46L110.04,71.24L110.38,71.09L110.71,81.74L111.37,92.87L111.7,87.38L112.03,87.07L112.37,81.91L112.7,83.29L113.03,76.3L113.69,101.85L114.02,92.2L114.35,88.66L114.69,85.96L115.02,86.96L115.35,92.15L116.01,112.73L116.34,94.41L117.34,108.48L117.67,106.54L118,120.45L118.66,145.61L118.99,103.99L119.66,80.9L119.99,82.96L120.32,82.02L120.65,79.73L120.98,86.92L121.31,73.91L121.65,83.61L121.98,80.68L122.31,82.21L122.64,78.5L123.3,88.69L123.63,82.51L123.97,83.85L124.3,79.61L124.96,68.03L125.29,78.42L125.62,77.36L125.96,79.02L126.29,76.35L126.62,78.68L126.95,78.1L127.61,80.79L127.94,79.15L128.61,77.7L128.94,81.1L129.27,82.28L129.6,80.89L129.93,85.42L130.26,84.16L130.6,78.77L130.93,79.48L131.26,77.92L131.59,73.8L131.92,76.91L132.25,79.01L132.58,79.21L132.92,74.68L133.25,73.82L133.58,77.37L133.91,76.02L134.24,78.03L134.9,81.66L135.24,76.22L135.57,92.33L135.9,82.34L136.23,81.99L136.56,82.36L136.89,79.73L137.89,82.18L138.22,81.44L139.21,72.95L139.54,73.34L139.88,73.34L140.21,74.47L140.54,74.25L140.87,68.55L142.2,75.19L142.53,75.59L143.52,69.77L143.85,72.38L144.19,77.97L144.85,76.73L145.18,75.3L145.84,73.34L146.17,77.73L146.51,78.71L146.84,76.29L147.5,77.46L147.83,73.75L148.16,71.73L148.49,77.86L149.49,71.23L149.82,72.15L150.48,82.13L150.81,81.79L151.15,80.05L151.48,79.52L151.81,81.23L152.14,81.36L152.47,77.75L152.8,77.63L153.13,83.67L153.47,83.41L153.8,82.19L154.79,76.47L155.12,77.41L155.46,84.91L156.45,80.47L156.78,81.14L157.44,76.54L157.78,83.64L158.11,83.06L158.44,80.93L158.77,79.97L159.1,76.58L159.43,72.65L159.76,76.28L160.1,79.12L160.43,75.23L160.76,76.99L161.09,78.12L161.42,78.65L161.75,75.8L162.08,76.56L162.42,79.73L162.75,78.55L163.08,73.85L163.41,74.62L163.74,74.38L164.07,79.73L164.4,74.06L165.07,74.44L165.4,75.39L165.73,76.12L166.06,74.1L167.06,103.37L167.39,101.56L168.38,96.21L168.71,79.88L169.04,81.58L169.38,93.16L169.71,96.28L170.04,94.05L170.37,90.14L171.37,88.09L171.7,97.23L172.03,89.66L172.69,90.24L173.02,90.94L173.69,87.91L174.02,97.19L176.01,78.15L176.34,87.37L176.67,84.92L177,73.3L177.33,78.98L177.99,78.92L178.33,74.65L178.66,74.62L178.99,80.71L181.31,65.52L181.64,68.09L181.97,67.34L182.3,69.92L182.63,72.2L182.97,70.36L183.3,68.16L183.96,73.21L184.29,67.8L184.62,68.1L184.96,61.42L185.29,63.3L185.62,62.84L185.95,62.45L186.94,68.28L187.28,75.07L188.27,70.43L188.6,72.81L189.26,76.47L189.6,65.74L190.26,66.9L190.59,61.07L190.92,67.05L191.25,67.01L191.58,70.54L192.25,60.48L192.58,64.03L192.91,61.06L194.24,67.66L194.57,63.01L194.9,64.74L195.23,61.15L195.89,64.59L196.22,62.54L196.56,52.21L196.89,54.95L197.22,64.05L197.88,58.14L198.21,64.66L198.54,66.18L198.88,49.42L200.2,65.89L200.53,66.91L200.87,67.85L201.2,65.6L201.53,61.93L201.86,67.23L202.19,67.32L202.52,61.57L202.85,62.27L203.19,65.19L204.18,72.05L204.51,67.71L204.84,63.75L205.51,64.18L205.84,66.51L206.5,74.65L206.83,66.3L207.16,65.62L207.49,66.33L207.83,62.58L208.82,71.33L209.15,67.87L209.81,71.91L210.15,70.95L210.48,63.16L211.8,73.37L212.13,71.28L212.47,68.67L212.8,69.56L213.13,73.67L213.79,79.37L214.12,73.95L214.46,77.86L214.79,72.28L215.12,69.27L215.45,71.07L215.78,75.48L216.11,73.29L216.44,76.29L216.78,76.72L217.11,80.42L217.44,75.84L217.77,85.38L218.1,84.96L218.43,86.43L219.1,90.88L219.43,86.5L219.76,86.49L220.09,88.41L220.75,94.98L221.08,92.71L221.42,90.85L221.75,92.24L222.08,95.8L223.07,90.44L223.4,96.14L223.74,98.11L224.07,92.72L224.4,83.88L224.73,89.68L225.06,96.61L225.39,96.94L225.72,91.8L226.06,93.6L226.39,92.08L226.72,81.06L227.71,96.48L228.04,89.71L228.38,92.91L228.71,91.89L229.04,91.4L230.03,111.09L230.37,101.67L231.36,103.54L231.69,101.64L232.02,109.35L232.35,97.53L233.02,94.55L233.35,100.29L233.68,91.73L234.01,103.58L234.34,110.09L234.67,100.74L235.01,102.16L235.34,97.73L235.67,94.81L236,97.27L236.33,99.68L236.66,111.09L236.99,104.21L237.33,101.75L237.66,100.54L237.99,102.41L238.32,96.27L238.65,110L239.31,133.53L239.65,158.63L240.64,79.14L240.97,76.33L241.3,80.45L241.63,76.83L241.97,75.4L242.3,76.43L242.63,73.95L243.62,77.37L243.96,76.57L244.29,72.77L244.62,74.5L244.95,72.81L245.28,72.64L245.61,73.48L245.94,78.13L246.61,69.19L246.94,70.1L247.27,71.71L248.26,79.75L248.6,78.58L248.93,75.45L249.59,77.72L249.92,74.89L250.92,78.21L251.25,72.52L252.57,87.39L252.9,84.17L253.9,87.86L254.23,84.33L255.22,99.51L255.56,97.74L255.89,91.98L256.22,93.8L256.55,101.86L257.88,89.7L258.21,85.11L258.54,83.37L258.87,87.64L259.53,99.06L259.87,96.97L260.2,96.61L261.19,90.27L261.52,89.69L261.85,86.62L262.19,92.97L262.52,89.64L262.85,90.53L263.18,91.16L264.51,91.64L264.84,85.59L266.16,79.73L266.49,84L267.16,88.51L267.49,84.7L267.82,82.12L268.15,83.73L268.48,90.09L269.15,94.17L269.48,86.57L270.14,85.59L270.47,84.33L271.47,94.05L271.8,93.4L272.13,87.24L272.46,87.97L272.79,83.42L273.12,77.87L273.46,83.64L273.79,87.27L274.12,82.27L274.78,83.09L275.11,81.08L275.44,90.72L275.78,88.5L276.11,86.03L276.77,85.81L277.1,77.93L277.43,80.8L277.76,70.95L278.1,67.79L278.43,73.29L278.76,72.5L279.09,75.2L279.42,75.98L279.75,73.37L280.42,67.94L280.75,72.48L281.08,63.94L281.41,69.92L281.74,73.31L282.07,76.78L282.4,68.73L283.07,76.65L283.4,73.35L283.73,68.97L284.72,74.26L285.06,73.49L285.39,80.17L285.72,74.21L286.05,73.21L286.38,74.11L286.71,73.21L287.04,62.65L287.38,63.59L287.71,68.1L288.7,62.8L289.03,63.64L289.37,58.34L289.7,63.5L290.03,68.99L290.36,61.16L290.69,62.77L291.02,63.64L292.02,60.4L292.35,67.5L292.68,66.61L293.01,57.7L293.34,60.16L293.67,60.11L294.01,59.4L294.34,61L294.67,68.24L295.66,64.49L295.99,64.44L296.33,57.69L296.66,63.55L296.99,66.41L297.32,67.18L297.65,65.45L297.98,67.87L298.31,62.21L298.98,62.14L299.31,68.24L300.63,52.93L300.97,55.19L301.3,62.76L302.29,58.52L302.62,61.17L303.29,58.54L303.62,61.89L303.95,63.96L304.28,60.27L305.61,56.55L305.94,56.84L306.93,59.31L307.26,54.96L307.6,55.78L307.93,44.66L308.59,52.57L308.92,48.13L309.58,40.44L309.92,47.23L310.25,38.74L310.58,40.38L310.91,51.63L311.57,43.86L311.9,45.56L312.24,46.9L312.57,42.82L312.9,50.2L313.23,50.39L313.56,48.74L313.89,53.26L314.22,47.89L314.56,47.83L315.55,56.24L315.88,57.01L316.88,46.14L317.21,47.73L317.54,51.79L318.87,63.56L319.2,62.33L319.53,62.23L319.86,56.26L320.19,57.67L320.52,65.65L320.85,65.47L321.19,60.06L321.52,64.47L321.85,87.49L322.18,86.49L322.51,93.2L324.17,50.95L324.5,62.31L324.83,61.62L325.16,64.93L326.82,59.89L327.15,66.1L327.48,72.7L327.81,61.68L328.15,60.19L328.48,62.51L330.13,70.66L330.47,70.56L331.46,54.92L331.79,63.97L332.46,55.05L332.79,64.84L333.12,59.93L333.45,63.17L333.78,61.61L334.11,62.65L334.44,67.73L334.78,60.98L335.11,66.54L335.44,66.48L335.77,57.36L336.1,58.94L336.43,60.9L336.76,65.17L337.1,57.46L337.43,61.46L337.76,58.69L338.09,56.75L339.08,67.45L339.42,65.63L339.75,63.89L340.08,58.12L340.74,68.52L341.07,67.95L341.4,70.44L341.74,71.01L342.07,64.58L342.4,66.17L342.73,55.62L343.39,61.57L343.72,59.07L344.06,60.55L344.39,61.29L344.72,66.12L345.38,56.34L345.71,58.25L346.04,61.39L346.38,65.37L347.04,64.48L347.37,55.54L347.7,50.74L348.03,61.37L349.03,50.78L349.36,52.29L349.69,53.84L350.02,53.08L350.35,58.85L351.02,49.96L351.35,52.35L351.68,53.13L352.67,69.31L353.01,61.27L354,55.4L354.33,56.96L354.99,66.88L355.33,54.8L355.99,60.29L356.32,58.68L356.65,66.56L356.98,64.19L357.31,67.61L358.64,57.81L358.97,57L360.3,89.89L360.63,122.91L360.96,57.18L361.62,58.69L361.96,57.21L362.29,48.32L362.62,49.84L362.95,61.01L363.61,45.17L363.94,47.57L364.28,52.47L364.94,45.99L365.27,48.36L365.6,49.15L365.93,40.33L366.26,42.72L366.6,44.38L366.93,44.35L367.26,40.34L368.25,44.32L368.58,52.26L368.92,52.42L369.25,48.37L369.58,45.14L369.91,46.77L370.24,50.7L370.57,49.87L370.9,53.05L371.24,59.68L371.57,54L371.9,46.72L372.89,44.32L373.22,46.71L373.89,50.77L374.22,43.54L374.55,42.73L374.88,46.72L375.21,44.32L375.54,49.07L375.88,54.77L376.21,47.56L377.2,43.53L377.53,53.82L378.2,59.52L378.53,50.75L379.52,49.13L379.85,45.07L380.19,45.06L380.52,52.3L381.51,45.94L381.84,46.72L382.17,41.91L382.51,43.45L382.84,48.27L383.5,42.71L383.83,43.5L384.16,43.5L384.49,42.68L384.83,48.97L385.16,55.4L385.49,47.51L385.82,44.31L386.81,45.9L387.15,51.44L387.48,55.47L387.81,53.14L388.14,50.72L388.47,49.11L388.8,37.13L389.8,51.48L390.13,43.51L391.12,41.9L391.46,47.44L391.79,48.24L392.12,47.5L392.45,44.31L393.11,38.74L393.44,40.33L393.78,49.88L394.44,54.69L394.77,51.49L395.1,45.11L395.43,45.9L395.76,47.5L396.76,51.56L397.09,47.54L397.75,45.13L398.08,48.31L399.08,74.71L399.41,69.05L399.74,68.24L400.07,69.72L400.74,70.47L401.07,69.66L401.4,72.99L401.73,66.59L402.72,66.54L403.06,71.28L403.72,81.75L404.05,73.03L404.71,72.14L405.04,73.04L406.04,85.54L406.37,79.45L406.7,80.2L407.03,79.4L407.37,77.75L408.36,91.45L408.69,82.62L409.69,74.77L410.02,80.11L410.68,82.83L411.01,78.06L411.34,80.53L411.67,78.12L412.01,79.79L412.67,82.41L413,90.45L413.99,81.31L414.33,82.21L414.66,80.64L414.99,83.63L415.32,83.87L415.65,81.36L416.31,77.28L416.65,82L416.98,81.18L417.31,76.34L417.64,86.23L417.97,82.97L418.3,82.16L418.97,84.43L419.3,71.57L419.63,79.51L420.29,78.18L420.62,80.58L420.96,79.84L421.29,82.92L421.62,75.59L421.95,76.45L422.28,78.99L422.61,79.77L422.94,78.14L424.27,67.47L424.6,70.92L425.6,74.85L425.93,73.22L427.25,84.4L427.58,78.69L427.92,72.42L428.25,79.53L428.58,86.58L428.91,76.06L429.24,80.27L429.57,79.64L429.9,74.81L430.24,76.41L430.57,77.73L430.9,68.09L431.23,69.71L431.56,73.9L432.22,73.19L432.56,72.37L432.89,72.37L433.22,77.79L433.88,81.11L434.21,83.67L434.88,76.43L435.21,78.86L435.87,74.6L436.2,80.4L436.87,84.43L437.2,83.58L437.53,82.78L437.86,77.23L438.19,81.93L438.52,87.74L438.85,82.09L439.19,86.83L439.52,86.81L439.85,85.96L440.18,81.82L441.51,98.67L441.84,95.5L442.17,94.58L442.5,88.15L442.83,90.98L443.16,99.28L443.49,97.1L443.83,97.81L444.16,100.36L444.49,97.74L444.82,82.88L445.15,82.97L445.48,96.79L445.81,96.33L446.15,99.43L447.14,89.42L447.47,94.91L448.8,112.21L449.13,103.39L449.46,95.23L450.12,96.89L450.46,92.84L451.45,96.89L451.78,95.11L453.11,96.86L453.44,99.18L453.77,94.38L454.1,104.2L454.43,103.99L454.76,107.71L455.76,95.91L456.09,96.67L456.75,100.32L457.08,104.71L458.41,93.44L458.74,93.92L459.07,100L459.4,102.03L459.74,98.23L460.07,98.32L460.4,102.38L461.06,93.77L461.39,96.19L461.72,98.14L462.06,98.2L462.39,97.4L462.72,99.75L463.05,96.34L463.38,86.42L463.71,105.26L464.04,104.44L464.38,105.54L464.71,100.97L465.7,90.87L466.03,96.31L466.37,100.61L466.7,95.94L467.03,89.4L467.69,97.07L468.02,92.99L468.35,88.87L469.02,104.47L469.35,97.16L469.68,91.06L470.01,93.3L470.34,92.76L470.67,90.47L471.01,96.13L471.34,96.37L471.67,92.2L472,95.46" style="vector-effect: non-scaling-stroke; fill: none; stroke: rgb(171, 99, 250); stroke-opacity: 1; stroke-width: 2px; opacity: 1;"/></g><g class="points"/><g class="text"/></g><g class="trace scatter trace08c2e2" style="stroke-miterlimit: 2; opacity: 1;"><g class="fills"/><g class="errorbars"/><g class="lines"><path class="js-line" d="M0,60.02L0.99,38.74L1.33,43.5L1.66,43.46L1.99,46.37L2.98,40.64L3.31,40.63L4.31,45.33L4.64,41.66L5.3,36.86L5.63,38.74L5.97,40.61L6.63,47.27L6.96,45.6L7.29,41.63L7.96,37.78L8.29,39.69L8.62,38.74L8.95,45.35L9.28,43.7L9.61,35.88L11.27,42.55L11.6,40.75L12.26,33.01L12.6,34.95L12.93,34.95L13.26,51.04L13.59,44.53L13.92,44.71L14.92,37.79L15.25,40.63L15.58,37.81L15.91,45.37L16.24,48.49L16.57,40.64L17.57,51.11L17.9,49.01L18.23,50.05L18.89,51.47L19.22,50.41L19.56,52.15L19.89,50.05L20.22,69.33L20.88,79.13L21.21,67.87L21.88,73.84L22.21,70.61L22.54,71.99L22.87,69.29L23.53,77.56L23.87,74.54L24.2,68.9L25.19,61.33L25.52,65.24L26.52,58.77L26.85,59.03L27.84,65.24L28.17,57.94L29.17,62.32L29.5,59.45L30.16,60.27L30.49,61.95L31.82,56.31L32.15,56.63L32.48,59.39L32.81,57.05L33.15,58.01L34.8,53.7L35.13,59.1L35.47,62.01L35.8,60.17L36.13,59.88L36.79,52.45L37.12,54.75L37.46,57.14L37.79,58.86L38.12,55.21L39.11,52.01L39.44,58.42L39.78,58.25L40.11,60.86L41.43,48.11L41.76,51.41L42.1,58.04L42.43,59.59L42.76,54.95L43.09,53.91L43.42,47.92L43.75,49.2L44.08,53.68L45.41,63.2L45.74,52.68L46.07,49.17L46.4,50.62L46.74,56.9L47.07,60.61L47.4,57.82L47.73,59.44L48.39,47.4L48.72,52.74L49.06,56.01L50.05,51.95L50.71,44.48L51.71,50.92L52.04,50.01L52.37,50.08L52.7,43.35L53.03,41.57L53.37,41.7L53.7,46.4L54.03,47.25L54.36,44.4L55.35,40.58L55.69,41.7L56.35,46.38L56.68,44.46L57.01,47.07L57.67,41.52L58.01,44.54L58.34,44.34L58.67,46.2L59.66,40.57L59.99,40.59L60.33,40.67L60.66,43.36L61.65,40.58L61.98,40.55L62.31,39.67L62.65,40.66L62.98,41.51L63.31,41.48L63.64,39.65L63.97,41.45L64.3,39.64L64.63,39.65L65.3,43.5L65.63,46.35L66.29,41.52L66.62,44.07L66.96,40.56L67.29,40.64L67.62,42.42L67.95,42.37L68.28,40.55L68.61,39.64L68.94,40.52L69.28,36.04L70.27,40.57L70.6,38.74L70.93,38.74L71.26,39.64L71.6,39.64L71.93,41.55L72.26,39.66L72.59,41.46L72.92,42.33L73.25,40.53L73.58,42.31L73.92,41.46L74.58,41.5L74.91,43.29L75.57,43.25L75.9,41.4L76.24,40.56L76.57,42.54L77.89,45.85L78.22,44.2L78.56,41.45L78.89,44.45L79.22,44.21L79.55,46.91L79.88,45.94L80.21,45.93L80.88,40.49L81.21,43.32L81.54,45.88L83.2,42.24L83.53,42.48L83.86,45.07L84.19,44.09L84.52,45.89L84.85,44.08L85.19,61.95L86.18,86.27L86.51,59.89L87.17,44.88L87.51,47.59L87.84,43.2L88.17,47.01L88.5,46.81L88.83,45.86L89.83,51.02L90.16,50.21L90.82,49.62L91.15,51.27L91.48,47.57L91.81,52.03L92.15,48.54L93.14,47.79L93.47,57.7L94.8,47.77L95.13,48.94L95.46,47.8L95.79,52.96L96.46,47.74L96.79,49.53L97.12,45.85L97.78,49.64L98.11,48.52L98.44,48.6L98.78,48.52L99.11,47.54L99.44,46.71L99.77,48.07L100.1,52.33L100.43,52.14L100.76,48.56L101.1,48.55L101.43,50.3L101.76,51.38L102.09,56.36L102.75,58.29L103.08,56.56L103.75,55.37L104.08,50.19L105.07,52.81L105.4,51L105.74,56.34L106.07,54.41L106.4,53.73L107.39,57.19L107.72,54.62L108.39,53.5L108.72,53.9L109.05,56.23L109.71,58.89L110.04,56.21L110.38,55.45L110.71,63.16L111.04,60.64L111.37,64.23L111.7,66.14L112.03,64.12L112.37,63.16L112.7,63.09L113.03,63.91L114.02,63.29L114.35,68.22L115.35,63.87L115.68,64.21L117.01,69.33L117.34,64.98L118,66.23L118.33,73.51L118.66,111.73L118.99,68.74L119.33,66.84L119.99,64.1L120.32,66.92L120.65,66.87L120.98,73.02L121.98,68.55L122.31,66.74L122.64,64.34L122.97,65.55L123.3,68.63L124.3,66.09L124.63,57.21L126.29,65.67L126.62,63.09L127.94,70.69L128.28,68.44L128.61,70.12L128.94,69.26L129.27,67.4L129.6,66.89L129.93,69.34L130.93,71.96L131.26,69.35L131.92,65.1L132.25,67.12L132.58,67.6L132.92,68.41L133.25,67.54L133.58,65.81L133.91,64.05L134.24,65.04L134.57,65.28L134.9,63.87L135.24,65.32L135.57,70.15L135.9,65.7L136.23,71.65L136.56,70.95L136.89,74.11L137.56,71.65L137.89,72.01L138.22,73.62L138.55,67.37L138.88,70.93L139.21,71.38L140.21,70.8L140.54,68.22L140.87,65.5L141.2,69.12L141.53,69.09L141.87,75.24L143.19,68.46L143.52,71.34L143.85,72.44L144.19,68.67L144.52,68.57L144.85,69.69L145.51,67.47L145.84,68.34L146.17,73.81L147.17,70.02L147.5,71.63L148.16,66.04L148.49,69.02L149.49,68.13L149.82,66.58L150.15,74.43L150.81,73.15L151.15,76.61L151.81,73.62L152.14,75.25L152.8,69.64L153.13,70.91L153.47,74.57L153.8,73.49L154.13,76.28L154.46,76.08L154.79,72.83L155.12,70.46L155.46,79.51L156.12,70.76L156.45,72.6L156.78,72.46L157.44,68.44L157.78,68.82L158.11,73.57L159.1,72.83L159.43,68.19L160.1,65.06L160.43,68.32L160.76,66.94L161.09,72.36L161.75,71.26L162.08,68.27L162.42,67.52L162.75,73.87L163.74,69.44L164.07,79.15L164.74,64L165.07,71.42L166.06,69.39L166.39,93.89L167.06,89.08L167.39,94.15L167.72,94.32L168.05,92.28L168.38,92.72L168.71,82.12L169.04,81.7L169.38,86.72L170.37,93.72L170.7,91.1L171.37,78.28L171.7,79.93L172.03,84.62L172.69,81.8L173.02,82.5L173.35,83.78L173.69,77.27L174.02,80.27L174.35,84.06L175.01,84.75L175.34,84.11L176.01,76.61L176.34,80.63L176.67,84.11L178.33,69.28L178.66,72.36L178.99,75.36L179.32,72.97L179.65,74.62L179.98,74.41L180.98,69.73L181.31,72.95L181.64,76.44L181.97,76.2L182.3,74.33L182.97,66.44L183.3,68.41L183.63,72.87L183.96,72.91L184.29,70.26L184.62,70.8L184.96,67.21L185.62,60.29L185.95,69.4L186.61,65.51L186.94,66.3L187.28,65.45L187.94,66.3L188.27,69.97L188.6,69.05L188.93,73.29L190.26,61.8L190.59,63.77L190.92,64.56L191.25,70.55L192.58,62.6L192.91,70.3L193.24,68.05L193.9,68.71L194.24,66.63L194.57,66.3L194.9,68.31L195.23,70.26L195.56,68.49L195.89,67.66L196.22,71.86L196.56,61.64L196.89,59.4L197.22,63.33L197.55,75.73L198.21,72.88L198.54,72.88L199.54,59.74L199.87,71.23L200.2,69.16L200.53,72.42L201.2,74.11L201.53,66.9L201.86,65.67L202.19,72.61L202.85,73.26L203.19,70.02L203.52,71.71L203.85,65.96L204.18,66.36L204.51,68.49L205.17,66.68L205.51,70.77L206.5,86.68L206.83,93.24L207.16,96.32L207.49,81.83L208.49,69.57L208.82,66.46L209.81,77.87L210.15,79.45L210.81,72.95L211.14,80.51L211.47,82.29L211.8,80.28L212.13,82.02L212.47,80.14L212.8,80.84L213.13,80.42L213.46,77.87L214.46,81.76L214.79,81.83L215.12,82.53L215.45,77.19L215.78,77L216.11,81.17L216.44,80.05L216.78,80.84L217.11,80.84L218.1,69.02L218.43,85.34L218.76,82.6L219.1,91.12L220.09,80.37L220.42,80.41L221.08,91.79L221.42,86.74L221.75,86.74L222.08,82.61L222.74,81.18L223.07,88.42L224.4,81.69L224.73,71.58L225.39,85.05L225.72,82.53L226.06,81.69L227.05,73.26L227.38,77.19L228.04,83.37L228.38,81.69L228.71,80L229.04,80.84L229.37,75.98L230.03,85.05L230.37,83.37L230.7,82.53L231.03,80.84L231.36,74.11L231.69,67.37L232.02,72.52L232.35,80L233.35,76.65L233.68,73.26L234.01,67.37L234.34,70.71L234.67,77.48L235.34,74.95L235.67,75.79L236,72.42L236.33,64.37L236.66,72.48L236.99,77.48L237.33,80.84L237.66,77.48L237.99,76.63L238.65,56.55L238.98,59.36L239.31,71.58L239.65,98.53L239.98,63.16L240.64,56.42L240.97,56.52L241.3,58.46L241.63,59.79L241.97,57.41L242.63,66.53L242.96,62.32L243.29,60.77L243.62,60.23L243.96,65.69L244.29,65.69L244.62,66.53L245.61,58.11L245.94,59.42L246.28,67.37L246.94,60.63L247.27,62.32L247.6,63.16L247.93,63.16L248.26,61.82L249.26,66.53L249.59,66.53L249.92,56.42L250.25,59.79L250.58,65.12L251.25,61.48L251.58,64L251.91,64.84L252.24,75.79L252.9,76.97L253.24,76.63L253.57,80L254.23,82.53L254.56,91.79L254.89,84.21L255.22,85.05L255.56,90.11L256.55,85.05L256.88,76.63L257.21,71.58L257.54,74.11L257.88,83.37L259.2,80L259.53,70.74L260.53,87.58L260.86,83.37L261.19,81.69L261.52,74.95L262.19,68.39L262.52,73.38L263.51,80.84L263.84,75.79L264.51,73.26L264.84,77.48L265.83,79.16L266.16,76.63L266.49,72.42L266.83,73.26L267.16,83.37L268.15,76.63L268.48,88.42L268.81,87.58L269.15,79.16L269.81,90.95L270.14,90.11L270.47,85.9L270.8,89.27L271.13,82.53L271.47,80.84L271.8,90.95L272.79,81.69L273.12,80.84L273.79,74.95L274.12,86.74L274.45,86.74L274.78,84.21L275.11,77.48L275.44,87.58L276.11,78.32L276.44,87.58L277.1,83.37L277.43,74.95L278.43,64.84L278.76,78.32L279.75,75.79L280.08,67.37L280.75,60.63L281.08,71.58L281.74,64L282.07,65.69L282.4,63.16L283.07,64L283.4,71.58L284.72,61.48L285.06,63.16L285.39,68.11L286.05,66.53L286.38,74.95L286.71,62.32L287.04,60.63L287.38,62.32L287.71,64L288.04,64.84L288.37,69.05L289.7,58.11L290.03,60.63L290.36,64L291.02,63.16L291.35,64L291.69,64L292.02,62.32L293.34,65.69L293.67,62.32L294.01,62.32L294.34,59.79L295.33,67.37L295.66,62.32L295.99,62.32L296.33,63.16L296.66,58.95L296.99,64.16L297.32,65.69L297.65,67.37L297.98,66.53L298.31,60.63L298.65,62.32L298.98,60.63L299.31,60.63L299.64,62.32L299.97,60.63L300.3,60.63L300.63,62.32L300.97,57.26L301.3,56.42L301.63,58.11L302.29,65.69L302.62,64L302.96,62.32L303.29,57.69L303.62,59.79L303.95,61.48L304.28,62.32L304.61,60.63L304.94,63.16L305.28,58.95L305.61,56.42L305.94,57.26L306.27,59.79L306.93,65.69L307.26,64.84L307.6,65.69L308.59,54.74L308.92,56.42L309.25,58.11L309.58,55.58L309.92,57.26L310.25,50.53L310.58,47.16L310.91,49.69L311.24,53.05L312.24,48L312.57,47.16L312.9,44.63L313.23,46.32L313.56,53.05L313.89,53.05L314.22,51.05L314.56,51.37L314.89,48.84L315.22,50.53L315.55,58.95L315.88,57.26L316.21,58.95L316.54,61.48L317.54,49.69L317.87,51.37L318.2,59.79L319.2,64.84L319.53,57.26L320.19,58.11L320.52,64.84L321.19,59.79L321.52,61.48L321.85,62.32L322.18,59.79L322.84,68.21L323.17,65.69L323.51,66.53L323.84,66.53L324.17,59.79L324.83,67.37L325.16,66.53L325.49,65.69L326.49,61.48L326.82,64L327.15,64.84L327.48,68.21L327.81,74.11L328.15,128L329.14,74.95L329.47,76.63L330.8,69.9L331.13,59.79L331.79,65.69L332.12,64.84L332.46,64.84L333.12,66.53L333.45,63.16L334.11,69.9L334.44,64.84L335.44,65.69L335.77,64L336.1,58.95L336.43,67.37L336.76,67.37L337.1,63.16L338.09,62.32L338.42,63.16L339.08,66.53L339.42,64.84L339.75,65.69L340.41,55.58L340.74,60.63L341.4,54.74L341.74,57.26L342.73,49.69L343.06,52.21L343.72,59.79L344.06,54.74L344.39,56.42L344.72,55.58L345.05,50.53L345.38,53.05L345.71,64.3L346.38,54.02L346.71,56.42L347.04,57.26L347.37,49.69L347.7,55.58L348.03,54.74L348.7,47.16L349.03,52.21L349.36,61.48L349.69,52.21L350.02,55.58L350.35,55.58L350.69,53.9L351.02,47.16L351.68,48L352.01,48L352.67,54.74L353.01,49.16L353.34,55.58L353.67,54.74L354,45.47L354.99,58.11L355.33,54.74L355.66,49.69L356.32,50.53L356.65,49.69L357.31,55.58L357.65,47.16L358.64,45.47L358.97,46.32L359.63,56.42L359.97,49.69L360.3,55.58L360.63,89.27L361.29,48.84L361.62,51.37L361.96,54.74L362.29,49.69L362.62,52.21L362.95,61.48L363.61,48.84L363.94,49.69L364.28,52.21L364.94,47.16L365.27,49.69L365.6,49.69L365.93,37.9L367.26,44.63L367.59,45.47L367.92,44.63L368.25,50.53L368.92,56.42L369.25,52.21L369.91,52.21L370.24,53.9L370.57,50.53L370.9,54.74L371.24,54.74L371.9,50.53L372.23,53.05L372.89,48.84L373.22,54.74L373.56,58.11L373.89,56.42L374.22,54.74L374.55,54.74L374.88,53.05L375.88,53.05L376.21,55.58L376.54,50.53L376.87,51.37L377.2,52.21L377.53,48.84L377.87,53.9L378.2,53.9L378.53,49.69L378.86,48.84L379.19,52.21L379.85,49.69L380.19,50.53L380.52,54.74L380.85,52.21L381.18,57.26L382.51,47.16L382.84,48L383.83,42.95L384.16,47.16L384.49,47.16L384.83,48L385.49,48L385.82,47.16L386.81,42.95L387.15,46.32L387.48,48.84L387.81,45.47L389.47,38.74L389.8,39.58L390.79,36.84L391.12,37.05L391.46,33.68L391.79,34.53L392.12,38.74L392.78,32L393.11,36.21L393.44,38.74L393.78,37.9L394.11,37.05L394.44,41.26L394.77,39.58L395.1,37.05L395.43,37.05L395.76,38.74L396.76,41.26L397.09,37.9L397.75,37.9L398.08,38.74L399.08,57.26L399.41,56.42L399.74,56.42L400.07,58.95L400.4,58.95L400.74,54.74L401.4,58.95L401.73,54.74L402.06,55.79L402.39,55.58L402.72,54.74L403.72,59.79L404.05,57.26L405.04,55.58L405.38,61.48L406.04,71.58L406.37,65.69L407.37,64.84L407.7,74.95L408.03,74.11L408.36,75.79L409.69,67.37L410.02,73.26L410.35,72.42L410.68,74.11L411.67,67.37L412.01,67.37L412.67,64.84L413,68.21L413.66,65.69L413.99,66.53L414.33,67.37L414.66,66.53L414.99,69.9L415.32,70.74L415.65,68.21L416.31,67.37L416.65,72.42L416.98,67.37L417.31,70.74L417.64,72.42L418.3,67.37L418.63,69.05L418.97,67.37L419.63,67.37L419.96,75.79L420.96,69.05L421.29,67.37L421.62,65.69L421.95,66.53L422.28,70.74L422.61,67.37L422.94,68.21L423.28,69.05L424.27,64.84L424.6,66.53L425.93,68.21L426.26,68.21L426.59,64.84L426.92,68.21L427.25,70.74L427.58,70.74L427.92,67.37L428.25,68.21L428.58,67.37L428.91,64L429.9,66.53L430.24,65.69L431.56,63.16L431.89,65.69L432.22,83.37L432.56,64.84L432.89,64.84L433.55,62.32L433.88,63.16L434.54,64.84L434.88,62.32L435.21,66.53L435.54,64.84L435.87,62.32L437.2,70.74L437.53,66.53L437.86,65.69L438.19,62.32L439.52,74.95L439.85,73.26L440.18,66.53L440.51,60.63L440.84,67.37L441.17,74.95L442.17,76.63L442.5,71.58L442.83,61.48L443.16,69.05L443.49,85.05L443.83,87.58L444.16,82.53L445.15,64.84L445.48,66.53L445.81,72.42L446.48,75.79L446.81,74.95L447.14,73.26L447.47,69.05L447.8,72.42L448.13,84.21L448.47,79.16L448.8,87.58L449.46,147.37L449.79,105.27L450.12,78.32L450.79,81.69L451.12,80L452.11,69.05L452.44,75.79L453.44,80L453.77,79.16L454.43,74.95L454.76,76.63L455.1,79.16L455.43,79.16L455.76,76.63L456.75,80L457.08,77.48L457.42,79.16L457.75,78.32L458.08,76.63L458.41,79.16L458.74,74.11L459.07,69.9L459.4,77.48L460.07,82.53L460.4,79.16L460.73,79.16L461.06,71.58L462.06,77.48L462.39,75.79L462.72,76.63L463.05,75.79L463.38,74.11L463.71,85.05L464.04,83.37L464.38,78.32L464.71,77.48L465.04,72.42L465.37,74.95L465.7,72.42L466.03,73.26L466.37,77.48L466.7,76.63L467.03,74.11L467.36,69.05L467.69,71.58L468.02,72.42L468.69,79.16L469.02,77.48L469.35,74.95L470.67,61.48L471.01,64.84L471.34,68.21L471.67,64L472,64.84" style="vector-effect: non-scaling-stroke; fill: none; stroke: rgb(255, 161, 90); stroke-opacity: 1; stroke-width: 2px; opacity: 1;"/></g><g class="points"/><g class="text"/></g><g class="trace scatter tracebfd9f7" style="stroke-miterlimit: 2; opacity: 1;"><g class="fills"/><g class="errorbars"/><g class="lines"><path class="js-line" d="M0,23.58L0.99,31.16L1.33,27.37L2.32,23.58L2.65,31.16L2.98,31.16L3.31,27.37L3.65,23.58L3.98,34.95L4.31,23.58L4.64,31.16L4.97,38.74L5.3,38.74L5.63,23.58L5.97,16L6.3,23.58L6.63,23.58L6.96,42.53L7.29,38.74L7.62,34.95L7.96,23.58L8.29,31.16L8.62,34.95L8.95,31.16L9.28,34.95L9.61,46.32L11.6,16L11.93,16L12.26,27.37L12.6,16L12.93,16L13.92,16L14.25,38.74L14.58,61.48L14.92,16L15.25,16L15.58,19.79L16.24,31.16L16.57,27.37L16.9,27.37L17.24,27.37L17.57,31.16L17.9,31.16L18.23,27.37L18.56,23.58L18.89,27.37L19.22,38.74L19.56,34.95L19.89,69.05L20.22,72.84L20.55,69.05L20.88,91.79L21.54,61.48L21.88,65.26L22.21,69.05L23.2,84.21L23.53,88L23.87,88L24.2,76.63L24.53,76.63L24.86,69.05L25.19,72.84L25.52,65.26L27.18,76.63L27.51,76.63L28.17,84.21L28.51,80.42L28.84,76.63L29.83,76.63L30.16,80.42L30.83,80.42L31.16,69.05L31.49,72.84L31.82,65.26L32.15,84.21L32.81,80.42L33.15,80.42L33.48,80.42L33.81,69.05L34.8,88L35.13,88L36.46,95.58L36.79,95.58L37.12,103.16L37.46,99.37L37.79,99.37L38.45,99.37L38.78,91.79L39.78,106.95L40.11,103.16L40.44,103.16L40.77,91.79L41.1,91.79L41.43,103.16L42.43,106.95L42.76,106.95L43.42,88L43.75,99.37L45.08,99.37L45.41,91.79L45.74,95.58L46.07,84.21L47.07,103.16L47.4,88L47.73,91.79L48.06,84.21L49.06,106.95L50.05,106.95L51.38,91.79L51.71,99.37L52.7,84.21L53.03,84.21L53.37,84.21L53.7,95.58L55.35,80.42L55.69,91.79L56.68,80.42L57.01,84.21L57.34,88L57.67,84.21L58.01,84.21L58.34,84.21L58.67,80.42L59.66,80.42L59.99,72.84L60.66,72.84L60.99,76.63L61.32,72.84L61.65,76.63L61.98,76.63L62.98,72.84L63.31,76.63L63.64,76.63L63.97,84.21L64.3,84.21L64.63,80.42L64.97,80.42L65.3,76.63L66.62,65.26L66.96,69.05L68.28,80.42L68.61,76.63L69.28,69.05L69.61,76.63L69.94,72.84L70.27,76.63L70.6,80.42L71.26,69.05L71.6,76.63L71.93,76.63L72.26,72.84L73.25,84.21L73.58,72.84L74.58,88L74.91,84.21L75.24,84.21L75.57,95.58L76.24,76.63L76.57,80.42L76.9,80.42L78.22,61.48L78.56,65.26L78.89,72.84L79.22,65.26L79.55,65.26L79.88,76.63L80.21,72.84L80.54,69.05L81.54,72.84L81.87,72.84L82.2,72.84L82.53,84.21L83.53,69.05L83.86,72.84L84.85,65.26L85.19,65.26L85.85,61.48L86.18,65.26L86.51,65.26L86.84,61.48L87.84,61.48L88.17,65.26L89.16,61.48L89.49,61.48L90.49,57.69L90.82,61.48L91.15,57.69L91.48,65.26L92.48,50.11L92.81,69.05L93.8,65.26L94.13,65.26L94.47,76.63L94.8,72.84L95.13,69.05L95.79,65.26L96.12,69.05L96.46,61.48L96.79,65.26L97.12,65.26L97.78,65.26L98.11,61.48L98.44,61.48L98.78,57.69L100.1,65.26L100.43,65.26L101.1,65.26L101.43,76.63L101.76,76.63L102.09,84.21L104.08,50.11L104.41,65.26L105.4,57.69L105.74,61.48L106.07,57.69L106.4,69.05L107.72,53.9L108.06,72.84L108.39,69.05L108.72,80.42L109.71,72.84L110.04,80.42L110.38,84.21L110.71,103.16L111.37,110.74L111.7,88L112.37,88L112.7,91.79L113.03,91.79L113.36,110.74L113.69,122.11L114.02,106.95L116.67,152.43L117.01,156.21L117.67,141.06L118,163.79L118.33,190.32L118.66,182.74L118.99,88L120.32,95.58L120.65,69.05L121.65,103.16L121.98,110.74L122.31,99.37L122.64,103.16L122.97,103.16L123.3,103.16L123.63,106.95L123.97,103.16L124.3,106.95L124.63,88L125.62,114.53L125.96,106.95L126.95,118.32L127.28,110.74L127.61,106.95L127.94,118.32L129.27,103.16L129.6,103.16L129.93,99.37L130.26,103.16L130.6,103.16L130.93,103.16L131.26,106.95L131.92,106.95L132.25,103.16L132.58,103.16L132.92,106.95L133.25,99.37L133.58,110.74L133.91,106.95L134.24,110.74L134.57,110.74L135.24,103.16L135.57,137.27L136.23,103.16L136.56,114.53L137.56,103.16L137.89,103.16L138.22,103.16L138.55,106.95L139.21,106.95L139.54,103.16L140.54,99.37L140.87,103.16L142.53,103.16L142.86,99.37L143.19,99.37L143.52,106.95L144.85,99.37L145.18,103.16L145.51,106.95L145.84,103.16L146.17,99.37L146.51,95.58L146.84,99.37L147.17,99.37L148.16,106.95L148.49,106.95L148.83,110.74L149.16,106.95L149.49,99.37L149.82,99.37L150.15,110.74L151.15,110.74L151.48,106.95L152.14,106.95L152.47,95.58L152.8,95.58L153.13,110.74L154.46,88L154.79,91.79L155.46,103.16L155.79,99.37L156.12,95.58L156.78,88L157.11,95.58L157.78,95.58L158.11,99.37L159.43,91.79L159.76,91.79L160.43,84.21L160.76,91.79L161.09,95.58L161.42,91.79L161.75,91.79L162.08,91.79L162.42,103.16L163.41,88L163.74,91.79L164.74,110.74L165.07,95.58L165.73,84.21L166.06,88L166.39,84.21L167.06,103.16L167.39,88L168.38,103.16L168.71,69.05L169.04,69.05L169.38,99.37L170.04,88L170.37,103.16L171.03,88L171.37,91.79L171.7,99.37L172.03,103.16L172.36,118.32L173.02,110.74L173.35,91.79L173.69,84.21L174.02,91.79L174.35,91.79L174.68,106.95L175.01,95.58L175.34,76.63L175.67,76.63L176.01,65.26L176.67,76.63L177,65.26L177.66,69.05L177.99,84.21L178.33,72.84L178.66,80.42L178.99,88L179.98,88L180.31,72.84L180.65,65.26L180.98,72.84L181.31,80.42L181.97,80.42L182.3,76.63L183.63,69.05L183.96,69.05L184.62,69.05L184.96,65.26L185.95,69.05L186.28,69.05L187.28,84.21L187.61,80.42L187.94,80.42L188.27,95.58L188.93,106.95L189.26,99.37L189.93,88L190.26,91.79L190.59,88L191.92,95.58L192.25,69.05L192.91,76.63L193.24,72.84L194.24,72.84L194.57,61.48L195.56,69.05L195.89,65.26L196.89,72.84L197.22,72.84L197.88,61.48L198.21,65.26L198.54,72.84L199.21,61.48L199.54,84.21L199.87,76.63L200.2,84.21L200.53,80.42L200.87,80.42L201.2,69.05L201.53,69.05L201.86,76.63L202.19,76.63L202.52,72.84L202.85,76.63L203.19,72.84L203.52,69.05L203.85,65.26L204.18,72.84L204.84,72.84L205.17,84.21L205.84,69.05L206.17,72.84L206.5,76.63L206.83,76.63L207.16,69.05L207.49,69.05L207.83,65.26L208.16,69.05L208.49,61.48L209.48,65.26L209.81,61.48L210.15,65.26L210.48,53.9L210.81,50.11L211.14,57.69L212.47,65.26L212.8,65.26L213.13,65.26L213.46,72.84L214.46,69.05L214.79,69.05L215.45,65.26L215.78,72.84L216.44,61.48L216.78,76.63L217.77,72.84L218.1,80.42L218.43,76.63L218.76,80.42L219.1,80.42L219.76,72.84L220.09,80.42L221.75,80.42L222.08,88L222.41,84.21L222.74,91.79L223.07,88L223.4,91.79L223.74,91.79L224.07,88L224.4,91.79L224.73,91.79L225.06,91.79L225.39,84.21L225.72,84.21L226.06,80.42L226.39,80.42L226.72,84.21L227.71,80.42L228.04,88L228.71,80.42L229.04,84.21L229.37,91.79L229.7,91.79L230.03,80.42L230.37,80.42L230.7,91.79L231.03,95.58L231.36,110.74L232.35,152.43L232.69,148.64L233.02,156.21L233.35,148.64L233.68,118.32L234.34,156.21L234.67,133.48L236,156.21L236.33,152.43L236.66,160L236.99,152.43L237.33,148.64L238.32,144.85L238.65,152.43L239.65,205.48L239.98,95.58L240.97,91.79L241.3,91.79L242.3,91.79L242.63,88L243.62,88L243.96,84.21L244.95,84.21L245.28,88L246.28,91.79L246.61,91.79L246.94,91.79L247.27,88L247.6,84.21L247.93,88L248.26,88L249.59,88L249.92,80.42L250.25,80.42L250.58,88L251.91,76.63L252.24,84.21L252.9,84.21L253.24,80.42L253.57,80.42L253.9,76.63L254.23,80.42L254.56,95.58L254.89,88L255.22,95.58L255.56,91.79L255.89,88L256.22,91.79L256.55,95.58L256.88,88L257.21,91.79L257.54,103.16L258.54,88L258.87,91.79L260.2,106.95L260.53,103.16L261.19,91.79L261.52,95.58L261.85,95.58L262.85,95.58L263.18,91.79L263.51,91.79L263.84,84.21L264.51,88L264.84,84.21L265.17,88L265.5,84.21L265.83,84.21L266.16,84.21L266.49,88L267.49,84.21L267.82,95.58L268.15,65.26L268.48,88L268.81,95.58L269.81,88L270.14,84.21L270.47,99.37L271.13,95.58L271.47,91.79L271.8,91.79L272.13,88L272.46,88L272.79,91.79L273.12,95.58L273.46,88L274.12,99.37L274.45,95.58L274.78,88L275.11,84.21L275.44,88L275.78,91.79L276.11,91.79L276.44,95.58L277.43,84.21L277.76,88L278.1,91.79L278.43,91.79L278.76,76.63L280.08,103.16L280.42,103.16L282.07,103.16L282.4,95.58L283.07,91.79L283.4,95.58L283.73,95.58L284.06,99.37L284.39,103.16L284.72,95.58L285.72,114.53L286.05,106.95L286.71,110.74L287.04,106.95L287.38,103.16L287.71,106.95L288.04,106.95L288.37,106.95L288.7,103.16L289.03,103.16L289.37,84.21L289.7,72.84L290.03,91.79L290.69,88L291.02,99.37L292.02,72.84L292.35,80.42L292.68,80.42L293.01,69.05L293.34,76.63L293.67,65.26L294.67,80.42L295,65.26L295.99,65.26L296.33,72.84L296.66,72.84L296.99,80.42L297.32,65.26L297.65,69.05L297.98,80.42L298.31,80.42L298.65,69.05L298.98,65.26L299.31,69.05L299.64,53.9L300.3,72.84L300.63,65.26L300.97,57.69L301.3,61.48L301.63,69.05L302.29,53.9L302.62,57.69L302.96,57.69L303.95,72.84L304.28,53.9L305.28,69.05L305.61,61.48L306.27,46.32L306.6,50.11L306.93,50.11L307.26,46.32L307.6,61.48L308.59,27.37L308.92,31.16L309.25,38.74L309.58,27.37L309.92,38.74L310.25,57.69L310.91,69.05L311.24,65.26L311.57,61.48L313.56,80.42L313.89,80.42L314.22,80.42L314.56,84.21L315.88,76.63L316.21,76.63L317.21,69.05L317.54,72.84L317.87,76.63L318.2,72.84L318.53,69.05L319.53,72.84L319.86,69.05L320.19,65.26L320.52,69.05L320.85,72.84L321.19,72.84L321.52,95.58L322.18,182.74L322.51,178.95L322.84,186.53L324.5,88L325.16,91.79L325.49,91.79L326.16,91.79L326.49,99.37L327.15,91.79L327.48,99.37L327.81,99.37L328.15,91.79L328.48,91.79L328.81,88L329.8,91.79L330.13,91.79L331.46,103.16L331.79,95.58L332.12,99.37L332.46,95.58L332.79,95.58L333.12,99.37L333.45,91.79L333.78,106.95L334.11,99.37L334.44,99.37L334.78,99.37L335.11,95.58L335.44,95.58L335.77,103.16L336.1,106.95L336.43,99.37L336.76,110.74L337.1,99.37L337.43,95.58L338.42,110.74L338.75,95.58L339.75,99.37L340.08,91.79L341.07,110.74L341.4,99.37L341.74,99.37L342.07,95.58L343.06,106.95L343.39,103.16L343.72,95.58L344.06,99.37L344.39,99.37L345.05,99.37L345.38,103.16L345.71,106.95L346.04,99.37L346.38,95.58L346.71,103.16L347.7,110.74L348.03,110.74L349.03,95.58L349.36,91.79L349.69,91.79L350.02,99.37L350.35,99.37L350.69,91.79L351.02,84.21L351.35,99.37L352.01,99.37L352.34,103.16L352.67,125.9L353.01,106.95L353.34,106.95L353.67,114.53L354,99.37L354.33,95.58L354.66,122.11L355.33,80.42L355.66,84.21L355.99,88L356.98,122.11L357.31,114.53L357.65,99.37L358.64,129.69L358.97,114.53L359.97,129.69L360.3,186.53L360.63,175.16L360.96,65.26L361.29,80.42L361.62,65.26L361.96,57.69L362.29,57.69L362.62,69.05L364.28,57.69L364.61,57.69L364.94,57.69L365.27,61.48L366.93,72.84L367.26,72.84L367.92,65.26L368.25,72.84L368.58,84.21L368.92,72.84L369.25,65.26L369.91,65.26L370.24,76.63L370.9,76.63L371.24,69.05L371.57,72.84L371.9,65.26L372.23,69.05L372.56,61.48L372.89,72.84L373.22,57.69L374.88,72.84L375.21,69.05L375.88,53.9L376.21,69.05L377.53,99.37L377.87,88L378.2,95.58L378.53,91.79L378.86,88L380.19,69.05L380.52,72.84L380.85,65.26L381.18,72.84L381.51,88L382.17,80.42L382.51,95.58L382.84,95.58L383.17,91.79L383.5,103.16L383.83,99.37L384.16,99.37L385.16,65.26L385.49,88L386.48,76.63L386.81,84.21L387.15,88L387.48,84.21L387.81,80.42L388.14,80.42L388.47,91.79L388.8,95.58L389.13,91.79L389.47,76.63L390.46,91.79L390.79,84.21L391.46,61.48L391.79,69.05L392.12,76.63L392.45,76.63L392.78,80.42L393.11,80.42L393.44,72.84L393.78,99.37L394.11,95.58L394.44,91.79L395.43,65.26L395.76,69.05L396.1,69.05L396.76,61.48L397.09,65.26L397.42,65.26L398.42,80.42L398.75,69.05L399.08,69.05L399.41,80.42L399.74,80.42L400.07,72.84L400.74,91.79L401.07,76.63L401.73,69.05L402.06,72.84L402.39,84.21L402.72,65.26L403.39,80.42L403.72,61.48L404.71,76.63L405.04,72.84L406.04,76.63L406.37,61.48L407.37,84.21L407.7,76.63L408.03,80.42L408.36,76.63L408.69,76.63L409.02,76.63L409.35,80.42L409.69,80.42L410.02,69.05L411.01,95.58L411.34,99.37L412.01,99.37L412.34,84.21L412.67,84.21L413,91.79L414.66,91.79L414.99,84.21L415.98,95.58L416.31,95.58L417.31,80.42L417.64,99.37L418.3,95.58L418.63,99.37L419.63,76.63L419.96,88L420.29,91.79L420.62,84.21L421.62,91.79L421.95,84.21L422.28,84.21L422.61,80.42L422.94,80.42L423.28,72.84L423.61,88L423.94,76.63L424.27,76.63L424.93,72.84L425.26,76.63L425.6,61.48L425.93,72.84L426.26,91.79L426.59,95.58L426.92,91.79L427.25,72.84L428.58,72.84L428.91,80.42L430.57,57.69L430.9,72.84L431.56,88L431.89,80.42L432.22,80.42L432.56,76.63L433.55,61.48L433.88,80.42L434.54,72.84L434.88,91.79L435.54,91.79L435.87,65.26L436.2,114.53L436.87,103.16L437.2,110.74L437.53,99.37L437.86,110.74L438.19,106.95L438.85,118.32L439.19,114.53L439.52,106.95L439.85,110.74L440.18,114.53L441.17,125.9L441.51,114.53L442.5,118.32L442.83,99.37L443.16,118.32L443.83,114.53L444.16,122.11L444.82,95.58L445.15,106.95L445.48,118.32L446.15,122.11L446.48,106.95L446.81,106.95L447.14,91.79L447.47,91.79L447.8,106.95L448.13,118.32L448.47,106.95L448.8,103.16L449.13,103.16L449.46,91.79L449.79,88L450.12,103.16L451.12,103.16L451.45,99.37L452.78,110.74L453.11,99.37L453.44,99.37L453.77,95.58L454.1,95.58L454.43,91.79L455.1,91.79L455.43,95.58L456.75,95.58L457.08,106.95L457.75,106.95L458.08,95.58L458.41,95.58L458.74,99.37L459.74,95.58L460.07,95.58L460.73,95.58L461.06,99.37L462.06,84.21L462.39,95.58L463.38,76.63L463.71,95.58L464.71,95.58L465.04,99.37L467.36,99.37L467.69,88L468.69,76.63L469.02,88L470.01,76.63L470.34,76.63L470.67,91.79L471.01,80.42L471.34,76.63L472,76.63" style="vector-effect: non-scaling-stroke; fill: none; stroke: rgb(25, 211, 243); stroke-opacity: 1; stroke-width: 2px; opacity: 1;"/></g><g class="points"/><g class="text"/></g></g></g><g class="overplot"/><path class="xlines-above crisp" d="M0,0" style="fill: none;"/><path class="ylines-above crisp" d="M0,0" style="fill: none;"/><g class="overlines-above"/><g class="xaxislayer-above"><g class="xtick"><text text-anchor="middle" x="0" y="433" transform="translate(80,0)" style="font-family: 'Open Sans', verdana, arial, sans-serif; font-size: 12px; fill: rgb(42, 63, 95); fill-opacity: 1; white-space: pre;">2017</text></g><g class="xtick"><text text-anchor="middle" x="0" y="433" transform="translate(200.98000000000002,0)" style="font-family: 'Open Sans', verdana, arial, sans-serif; font-size: 12px; fill: rgb(42, 63, 95); fill-opacity: 1; white-space: pre;">2018</text></g><g class="xtick"><text text-anchor="middle" x="0" y="433" transform="translate(321.97,0)" style="font-family: 'Open Sans', verdana, arial, sans-serif; font-size: 12px; fill: rgb(42, 63, 95); fill-opacity: 1; white-space: pre;">2019</text></g><g class="xtick"><text text-anchor="middle" x="0" y="433" transform="translate(442.95,0)" style="font-family: 'Open Sans', verdana, arial, sans-serif; font-size: 12px; fill: rgb(42, 63, 95); fill-opacity: 1; white-space: pre;">2020</text></g></g><g class="yaxislayer-above"><g class="ytick"><text text-anchor="end" x="79" y="4.199999999999999" transform="translate(0,366.11)" style="font-family: 'Open Sans', verdana, arial, sans-serif; font-size: 12px; fill: rgb(42, 63, 95); fill-opacity: 1; white-space: pre;">3.85</text></g><g class="ytick"><text text-anchor="end" x="79" y="4.199999999999999" transform="translate(0,290.32)" style="font-family: 'Open Sans', verdana, arial, sans-serif; font-size: 12px; fill: rgb(42, 63, 95); fill-opacity: 1; white-space: pre;">3.9</text></g><g class="ytick"><text text-anchor="end" x="79" y="4.199999999999999" transform="translate(0,214.53)" style="font-family: 'Open Sans', verdana, arial, sans-serif; font-size: 12px; fill: rgb(42, 63, 95); fill-opacity: 1; white-space: pre;">3.95</text></g><g class="ytick"><text text-anchor="end" x="79" y="4.199999999999999" transform="translate(0,138.74)" style="font-family: 'Open Sans', verdana, arial, sans-serif; font-size: 12px; fill: rgb(42, 63, 95); fill-opacity: 1; white-space: pre;">4</text></g></g><g class="overaxes-above"/></g></g><g class="polarlayer"/><g class="ternarylayer"/><g class="geolayer"/><g class="funnelarealayer"/><g class="pielayer"/><g class="treemaplayer"/><g class="sunburstlayer"/><g class="glimages"/><defs id="topdefs-4d3255"><g class="clips"/><clipPath id="legend4d3255"><rect width="127" height="140" x="0" y="0"/></clipPath></defs><g class="layer-above"><g class="imagelayer"/><g class="shapelayer"/></g><g class="infolayer"><g class="legend" pointer-events="all" transform="translate(561.44, 100)"><rect class="bg" shape-rendering="crispEdges" width="127" height="140" x="0" y="0" style="stroke: rgb(68, 68, 68); stroke-opacity: 1; fill: rgb(255, 255, 255); fill-opacity: 1; stroke-width: 0px;"/><g class="scrollbox" transform="translate(0, 0)" clip-path="url('#legend4d3255')"><text class="legendtitletext" text-anchor="start" x="2" y="15.600000000000001" style="font-family: 'Open Sans', verdana, arial, sans-serif; font-size: 12px; fill: rgb(42, 63, 95); fill-opacity: 1; white-space: pre;">Continents</text><g class="groups"><g class="traces" transform="translate(0, 30.1)" style="opacity: 1;"><text class="legendtext" text-anchor="start" x="40" y="4.680000000000001" style="font-family: 'Open Sans', verdana, arial, sans-serif; font-size: 12px; fill: rgb(42, 63, 95); fill-opacity: 1; white-space: pre;">Global</text><g class="layers" style="opacity: 1;"><g class="legendfill"/><g class="legendlines"><path class="js-line" d="M5,0h30" style="fill: none; stroke: rgb(99, 110, 250); stroke-opacity: 1; stroke-width: 2px;"/></g><g class="legendsymbols"><g class="legendpoints"/></g></g><rect class="legendtoggle" x="0" y="-9.5" width="121.734375" height="19" style="fill: rgb(0, 0, 0); fill-opacity: 0;"/></g><g class="traces" transform="translate(0, 49.1)" style="opacity: 1;"><text class="legendtext" text-anchor="start" x="40" y="4.680000000000001" style="font-family: 'Open Sans', verdana, arial, sans-serif; font-size: 12px; fill: rgb(42, 63, 95); fill-opacity: 1; white-space: pre;">Europe</text><g class="layers" style="opacity: 1;"><g class="legendfill"/><g class="legendlines"><path class="js-line" d="M5,0h30" style="fill: none; stroke: rgb(239, 85, 59); stroke-opacity: 1; stroke-width: 2px;"/></g><g class="legendsymbols"><g class="legendpoints"/></g></g><rect class="legendtoggle" x="0" y="-9.5" width="121.734375" height="19" style="fill: rgb(0, 0, 0); fill-opacity: 0;"/></g><g class="traces" transform="translate(0, 68.1)" style="opacity: 1;"><text class="legendtext" text-anchor="start" x="40" y="4.680000000000001" style="font-family: 'Open Sans', verdana, arial, sans-serif; font-size: 12px; fill: rgb(42, 63, 95); fill-opacity: 1; white-space: pre;">Asia</text><g class="layers" style="opacity: 1;"><g class="legendfill"/><g class="legendlines"><path class="js-line" d="M5,0h30" style="fill: none; stroke: rgb(0, 204, 150); stroke-opacity: 1; stroke-width: 2px;"/></g><g class="legendsymbols"><g class="legendpoints"/></g></g><rect class="legendtoggle" x="0" y="-9.5" width="121.734375" height="19" style="fill: rgb(0, 0, 0); fill-opacity: 0;"/></g><g class="traces" transform="translate(0, 87.1)" style="opacity: 1;"><text class="legendtext" text-anchor="start" x="40" y="4.680000000000001" style="font-family: 'Open Sans', verdana, arial, sans-serif; font-size: 12px; fill: rgb(42, 63, 95); fill-opacity: 1; white-space: pre;">North America</text><g class="layers" style="opacity: 1;"><g class="legendfill"/><g class="legendlines"><path class="js-line" d="M5,0h30" style="fill: none; stroke: rgb(171, 99, 250); stroke-opacity: 1; stroke-width: 2px;"/></g><g class="legendsymbols"><g class="legendpoints"/></g></g><rect class="legendtoggle" x="0" y="-9.5" width="121.734375" height="19" style="fill: rgb(0, 0, 0); fill-opacity: 0;"/></g><g class="traces" transform="translate(0, 106.1)" style="opacity: 1;"><text class="legendtext" text-anchor="start" x="40" y="4.680000000000001" style="font-family: 'Open Sans', verdana, arial, sans-serif; font-size: 12px; fill: rgb(42, 63, 95); fill-opacity: 1; white-space: pre;">South America</text><g class="layers" style="opacity: 1;"><g class="legendfill"/><g class="legendlines"><path class="js-line" d="M5,0h30" style="fill: none; stroke: rgb(255, 161, 90); stroke-opacity: 1; stroke-width: 2px;"/></g><g class="legendsymbols"><g class="legendpoints"/></g></g><rect class="legendtoggle" x="0" y="-9.5" width="121.734375" height="19" style="fill: rgb(0, 0, 0); fill-opacity: 0;"/></g><g class="traces" transform="translate(0, 125.1)" style="opacity: 1;"><text class="legendtext" text-anchor="start" x="40" y="4.680000000000001" style="font-family: 'Open Sans', verdana, arial, sans-serif; font-size: 12px; fill: rgb(42, 63, 95); fill-opacity: 1; white-space: pre;">Oceania</text><g class="layers" style="opacity: 1;"><g class="legendfill"/><g class="legendlines"><path class="js-line" d="M5,0h30" style="fill: none; stroke: rgb(25, 211, 243); stroke-opacity: 1; stroke-width: 2px;"/></g><g class="legendsymbols"><g class="legendpoints"/></g></g><rect class="legendtoggle" x="0" y="-9.5" width="121.734375" height="19" style="fill: rgb(0, 0, 0); fill-opacity: 0;"/></g></g></g><rect class="scrollbar" rx="20" ry="3" width="0" height="0" x="0" y="0" style="fill: rgb(128, 139, 164); fill-opacity: 1;"/></g><g class="g-gtitle"/><g class="g-xtitle"><text class="xtitle" x="316" y="461.8" text-anchor="middle" style="font-family: 'Open Sans', verdana, arial, sans-serif; font-size: 14px; fill: rgb(42, 63, 95); opacity: 1; font-weight: normal; white-space: pre;">Date</text></g><g class="g-ytitle"><text class="ytitle" transform="rotate(-90,30.418750000000003,260)" x="30.418750000000003" y="260" text-anchor="middle" style="font-family: 'Open Sans', verdana, arial, sans-serif; font-size: 14px; fill: rgb(42, 63, 95); opacity: 1; font-weight: normal; white-space: pre;">time_signature</text></g></g></svg>