<svg class="main-svg" xmlns="http://www.w3.org/2000/svg" xmlns:xlink="http://www.w3.org/1999/xlink" width="700" height="500" style="" viewBox="0 0 700 500"><rect x="0" y="0" width="700" height="500" style="fill: rgb(255, 255, 255); fill-opacity: 1;"/><defs id="defs-cbf129"><g class="clips"><clipPath id="clipcbf129xyplot" class="plotclip"><rect width="516" height="320"/></clipPath><clipPath class="axesclip" id="clipcbf129x"><rect x="80" y="0" width="516" height="500"/></clipPath><clipPath class="axesclip" id="clipcbf129y"><rect x="0" y="100" width="700" height="320"/></clipPath><clipPath class="axesclip" id="clipcbf129xy"><rect x="80" y="100" width="516" height="320"/></clipPath></g><g class="gradients"/></defs><g class="bglayer"><rect class="bg" x="80" y="100" width="516" height="320" style="fill: rgb(229, 236, 246); fill-opacity: 1; stroke-width: 0;"/></g><g class="layer-below"><g class="imagelayer"/><g class="shapelayer"/></g><g class="cartesianlayer"><g class="subplot xy"><g class="layer-subplot"><g class="shapelayer"/><g class="imagelayer"/></g><g class="gridlayer"><g class="x"><path class="xgrid crisp" transform="translate(212.26,0)" d="M0,100v320" style="stroke: rgb(255, 255, 255); stroke-opacity: 1; stroke-width: 1px;"/><path class="xgrid crisp" transform="translate(344.52,0)" d="M0,100v320" style="stroke: rgb(255, 255, 255); stroke-opacity: 1; stroke-width: 1px;"/><path class="xgrid crisp" transform="translate(476.78,0)" d="M0,100v320" style="stroke: rgb(255, 255, 255); stroke-opacity: 1; stroke-width: 1px;"/></g><g class="y"><path class="ygrid crisp" transform="translate(0,384.8)" d="M80,0h516" style="stroke: rgb(255, 255, 255); stroke-opacity: 1; stroke-width: 1px;"/><path class="ygrid crisp" transform="translate(0,346.4)" d="M80,0h516" style="stroke: rgb(255, 255, 255); stroke-opacity: 1; stroke-width: 1px;"/><path class="ygrid crisp" transform="translate(0,308)" d="M80,0h516" style="stroke: rgb(255, 255, 255); stroke-opacity: 1; stroke-width: 1px;"/><path class="ygrid crisp" transform="translate(0,269.6)" d="M80,0h516" style="stroke: rgb(255, 255, 255); stroke-opacity: 1; stroke-width: 1px;"/><path class="ygrid crisp" transform="translate(0,231.2)" d="M80,0h516" style="stroke: rgb(255, 255, 255); stroke-opacity: 1; stroke-width: 1px;"/><path class="ygrid crisp" transform="translate(0,192.8)" d="M80,0h516" style="stroke: rgb(255, 255, 255); stroke-opacity: 1; stroke-width: 1px;"/><path class="ygrid crisp" transform="translate(0,154.4)" d="M80,0h516" style="stroke: rgb(255, 255, 255); stroke-opacity: 1; stroke-width: 1px;"/><path class="ygrid crisp" transform="translate(0,116)" d="M80,0h516" style="stroke: rgb(255, 255, 255); stroke-opacity: 1; stroke-width: 1px;"/></g></g><g class="zerolinelayer"/><path class="xlines-below"/><path class="ylines-below"/><g class="overlines-below"/><g class="xaxislayer-below"/><g class="yaxislayer-below"/><g class="overaxes-below"/><g class="plot" transform="translate(80, 100)" clip-path="url('#clipcbf129xyplot')"><g class="scatterlayer mlayer"><g class="trace scatter trace9ee939" style="stroke-miterlimit: 2; opacity: 1;"><g class="fills"/><g class="errorbars"/><g class="lines"><path class="js-line" d="M0,25.6L3.99,25.6L4.35,64L4.71,64L5.07,35.2L6.52,35.2L6.88,44.8L7.97,35.2L8.33,35.2L10.15,35.2L10.51,44.8L11.6,35.2L11.96,35.2L12.68,25.6L13.04,35.2L15.22,35.2L15.58,64L15.94,121.6L16.31,102.4L16.67,35.2L17.39,35.2L17.76,44.8L18.84,44.8L19.57,35.2L19.93,35.2L20.29,25.6L20.65,54.4L21.02,44.8L21.38,44.8L21.74,44.8L22.1,73.6L22.47,73.6L22.83,83.2L23.92,73.6L24.28,73.6L25,73.6L25.37,83.2L27.9,83.2L28.26,73.6L29.35,73.6L29.71,64L31.16,83.2L31.53,83.2L31.89,83.2L32.25,73.6L32.97,73.6L33.34,83.2L34.42,83.2L34.79,92.8L36.24,112L36.6,112L37.32,112L37.69,102.4L38.77,112L39.13,112L40.22,102.4L40.58,102.4L42.03,102.4L42.4,112L42.76,112L43.12,102.4L44.21,112L44.57,112L44.93,121.6L45.29,112L45.66,112L47.11,112L47.47,102.4L47.83,102.4L48.19,112L48.56,112L48.92,102.4L49.28,102.4L49.64,121.6L50.01,121.6L50.37,112L50.73,102.4L51.09,112L51.46,112L52.18,112L52.54,121.6L53.63,112L54.72,112L59.79,112L60.15,102.4L60.51,102.4L60.88,112L62.33,112L62.69,131.2L63.05,140.8L63.41,131.2L63.78,131.2L65.59,92.8L65.95,102.4L67.4,102.4L67.76,83.2L69.21,102.4L69.57,102.4L69.94,102.4L70.3,64L70.66,64L71.02,83.2L71.38,83.2L71.75,73.6L72.47,83.2L72.83,73.6L74.65,102.4L75.01,92.8L75.73,64L76.1,92.8L77.54,92.8L77.91,83.2L78.27,64L78.63,92.8L78.99,102.4L79.36,92.8L79.72,92.8L80.08,92.8L80.44,83.2L80.81,73.6L81.17,92.8L81.53,92.8L81.89,102.4L82.62,102.4L82.98,83.2L83.34,73.6L83.71,92.8L84.43,92.8L84.79,102.4L85.15,102.4L85.52,54.4L86.97,92.8L87.33,92.8L87.69,92.8L88.05,83.2L88.42,83.2L88.78,92.8L90.23,92.8L90.59,83.2L90.95,83.2L91.31,92.8L92.76,92.8L93.13,73.6L93.49,73.6L93.85,92.8L94.21,92.8L94.58,83.2L94.94,83.2L95.3,73.6L95.66,102.4L96.03,73.6L96.39,73.6L96.75,83.2L97.11,73.6L97.47,73.6L98.92,73.6L99.29,83.2L100.37,73.6L100.74,83.2L101.1,64L101.46,83.2L101.82,92.8L102.55,92.8L102.91,83.2L103.27,92.8L103.63,83.2L104,83.2L105.08,92.8L105.45,83.2L105.81,102.4L106.17,92.8L106.53,83.2L109.07,83.2L109.43,92.8L110.52,83.2L110.88,102.4L112.69,102.4L113.06,92.8L113.78,73.6L114.14,83.2L114.51,83.2L115.96,83.2L116.32,64L117.04,73.6L117.4,64L117.77,64L118.13,73.6L119.22,102.4L119.58,73.6L120.3,73.6L120.67,92.8L121.75,150.4L122.12,140.8L122.48,102.4L122.84,102.4L123.2,131.2L124.29,150.4L124.65,131.2L125.01,131.2L125.38,121.6L125.74,121.6L126.1,169.6L126.46,160L126.83,169.6L127.19,169.6L128.28,160L128.64,169.6L129,169.6L129.36,246.4L129.72,304L130.09,140.8L131.17,92.8L131.54,92.8L131.9,92.8L132.26,73.6L132.99,121.6L133.35,112L133.71,112L134.07,102.4L134.8,112L135.16,102.4L135.88,102.4L136.25,73.6L137.7,92.8L138.06,92.8L138.78,92.8L139.15,83.2L139.51,102.4L139.87,92.8L140.23,92.8L140.96,92.8L141.32,83.2L144.22,83.2L144.58,92.8L144.94,92.8L145.31,83.2L145.67,83.2L146.03,92.8L147.84,92.8L148.21,150.4L149.29,102.4L149.65,102.4L153.28,102.4L153.64,112L154.37,83.2L154.73,102.4L155.81,92.8L156.18,92.8L156.9,83.2L157.26,92.8L158.71,92.8L159.08,73.6L159.44,73.6L159.8,83.2L160.89,73.6L161.25,73.6L162.7,102.4L163.06,92.8L163.79,92.8L164.15,102.4L164.51,92.8L164.87,112L165.6,121.6L165.96,112L166.32,102.4L166.69,131.2L167.77,102.4L168.13,102.4L169.22,102.4L169.58,92.8L170.67,102.4L171.03,102.4L171.4,102.4L171.76,112L172.12,92.8L172.48,112L172.85,112L173.93,112L174.29,83.2L174.66,73.6L175.02,92.8L175.38,92.8L175.74,112L176.83,83.2L177.19,64L178.28,92.8L178.64,73.6L179.01,73.6L179.37,102.4L179.73,102.4L180.09,92.8L181.54,73.6L181.9,102.4L182.63,92.8L182.99,112L183.72,112L184.08,102.4L184.44,64L184.8,83.2L185.17,102.4L186.25,102.4L186.62,92.8L187.7,102.4L188.06,102.4L189.51,102.4L189.88,92.8L190.96,102.4L191.33,92.8L193.14,64L193.5,64L194.59,92.8L194.95,83.2L195.31,83.2L197.12,83.2L197.49,73.6L204.01,73.6L204.37,83.2L205.46,92.8L205.82,92.8L206.18,92.8L206.54,102.4L206.91,102.4L207.27,92.8L208.72,92.8L209.08,83.2L209.44,83.2L209.81,102.4L210.89,73.6L211.26,73.6L211.98,73.6L212.34,92.8L213.43,73.6L213.79,83.2L214.15,73.6L214.52,92.8L215.6,73.6L215.97,83.2L217.05,64L217.42,64L218.87,83.2L219.23,83.2L219.59,83.2L219.95,92.8L222.13,92.8L222.49,83.2L223.58,92.8L223.94,92.8L224.66,92.8L225.03,83.2L225.75,92.8L226.11,83.2L226.84,83.2L227.2,92.8L228.29,83.2L228.65,83.2L229.74,83.2L230.1,73.6L230.46,73.6L230.82,83.2L232.27,83.2L232.63,64L233.72,83.2L234.08,73.6L234.45,83.2L234.81,73.6L235.17,73.6L236.26,83.2L236.62,83.2L237.35,112L237.71,92.8L238.07,92.8L238.43,102.4L239.16,102.4L239.52,112L240.61,73.6L240.97,92.8L241.33,92.8L241.69,102.4L242.06,92.8L242.42,102.4L242.78,121.6L243.14,92.8L243.51,102.4L243.87,102.4L244.23,92.8L244.59,112L244.96,102.4L245.32,112L245.68,112L246.77,112L247.13,102.4L248.22,92.8L248.58,102.4L249.67,102.4L250.03,112L250.39,102.4L250.75,150.4L251.48,160L251.84,140.8L252.93,169.6L253.29,160L253.65,160L254.01,179.2L255.1,179.2L255.46,169.6L255.83,150.4L256.19,169.6L256.55,179.2L256.91,179.2L257.28,169.6L258,169.6L258.36,150.4L258.72,150.4L259.09,169.6L259.81,169.6L260.17,160L260.54,150.4L260.9,179.2L261.26,169.6L261.62,275.2L261.99,294.4L262.35,169.6L263.44,102.4L263.8,102.4L264.52,92.8L264.88,112L265.25,112L265.61,92.8L265.97,92.8L266.33,112L267.06,121.6L267.42,112L267.78,112L268.15,102.4L268.51,102.4L268.87,92.8L269.96,112L270.32,102.4L271.04,92.8L271.41,102.4L273.22,102.4L273.58,112L273.94,112L274.31,102.4L274.67,112L275.03,102.4L275.39,102.4L275.76,92.8L276.12,102.4L276.48,102.4L276.84,92.8L277.21,102.4L277.57,102.4L277.93,102.4L278.29,112L280.1,112L280.47,140.8L281.55,112L281.92,112L283,121.6L283.37,121.6L284.09,121.6L284.45,131.2L285.18,131.2L285.54,121.6L286.26,121.6L286.63,112L287.35,112L287.71,121.6L288.08,112L288.44,131.2L289.53,102.4L289.89,102.4L290.61,102.4L290.97,131.2L291.7,102.4L292.06,112L293.15,102.4L293.51,121.6L294.24,102.4L294.6,121.6L296.05,102.4L296.41,102.4L297.86,83.2L298.22,83.2L299.31,102.4L299.67,102.4L301.12,102.4L301.48,92.8L302.21,102.4L302.57,92.8L304.02,92.8L304.38,102.4L304.74,92.8L305.11,112L305.47,112L305.83,92.8L306.19,112L306.56,92.8L306.92,102.4L307.28,102.4L307.64,92.8L308.37,121.6L308.73,112L309.09,73.6L309.82,121.6L310.18,112L310.54,112L311.63,73.6L311.99,83.2L312.35,92.8L312.72,83.2L313.08,83.2L313.44,83.2L313.8,54.4L315.25,92.8L315.62,83.2L318.88,83.2L319.24,73.6L320.33,83.2L320.69,83.2L321.41,83.2L321.78,64L322.86,92.8L323.22,83.2L323.59,92.8L323.95,54.4L324.31,44.8L324.67,54.4L325.04,64L326.12,64L326.49,44.8L327.21,64L327.57,44.8L328.66,54.4L329.02,54.4L330.83,54.4L331.2,64L332.65,44.8L333.01,54.4L333.73,54.4L334.1,44.8L334.82,64L335.18,54.4L335.54,54.4L335.91,54.4L336.27,64L337.36,44.8L337.72,44.8L338.81,44.8L339.17,64L339.53,64L339.89,73.6L341.34,73.6L341.71,92.8L342.79,83.2L343.15,83.2L343.88,83.2L344.24,73.6L344.6,73.6L344.97,83.2L346.05,92.8L346.42,92.8L347.14,83.2L347.5,92.8L348.95,92.8L349.31,121.6L349.68,112L350.04,121.6L350.4,121.6L350.76,112L351.13,140.8L351.49,140.8L351.85,256L352.94,140.8L353.3,169.6L353.66,169.6L354.03,179.2L354.75,131.2L355.11,140.8L355.47,140.8L356.56,131.2L356.92,140.8L358.01,131.2L358.37,131.2L359.1,131.2L359.46,140.8L362.36,140.8L362.72,131.2L363.45,150.4L363.81,140.8L364.17,140.8L364.53,150.4L365.26,140.8L365.62,150.4L365.98,150.4L366.35,140.8L367.07,140.8L367.43,131.2L368.52,140.8L368.88,140.8L371.42,140.8L371.78,131.2L372.87,150.4L373.23,131.2L373.96,131.2L374.32,140.8L374.68,131.2L375.04,140.8L375.4,140.8L376.13,131.2L376.49,140.8L377.22,121.6L377.58,140.8L377.94,140.8L378.3,131.2L378.67,131.2L379.03,140.8L379.39,140.8L379.75,121.6L380.84,140.8L381.2,131.2L381.56,131.2L381.93,140.8L382.29,140.8L382.65,150.4L383.74,150.4L384.1,160L384.46,160L384.83,169.6L385.55,169.6L385.91,179.2L387.72,140.8L388.09,102.4L389.17,131.2L389.54,131.2L389.9,131.2L390.26,121.6L390.62,112L390.99,140.8L391.35,140.8L391.71,131.2L392.8,112L393.16,121.6L393.52,121.6L393.88,227.2L394.25,275.2L394.61,112L396.42,44.8L396.78,54.4L397.15,64L397.51,54.4L397.87,54.4L399.68,83.2L400.04,64L400.41,54.4L400.77,73.6L402.22,73.6L402.58,83.2L403.31,73.6L403.67,83.2L405.12,83.2L405.48,64L406.21,92.8L406.57,83.2L406.93,83.2L408.02,54.4L408.38,73.6L409.1,73.6L409.47,64L411.28,92.8L411.64,83.2L412,83.2L412.37,92.8L412.73,92.8L413.09,112L413.45,112L413.81,102.4L414.18,102.4L414.54,92.8L414.9,92.8L415.26,73.6L416.35,83.2L416.71,83.2L417.44,83.2L417.8,54.4L418.89,64L419.25,64L420.34,64L420.7,73.6L422.51,73.6L422.87,83.2L423.96,73.6L424.32,73.6L425.05,64L425.41,73.6L427.58,73.6L427.95,83.2L428.67,54.4L429.03,64L430.12,54.4L430.48,83.2L430.85,83.2L431.21,64L433.02,64L433.38,54.4L433.74,54.4L434.11,64L434.83,64L435.19,83.2L436.28,64L436.64,64L437.73,64L438.09,54.4L440.27,54.4L440.63,73.6L440.99,73.6L441.35,64L442.08,64L442.44,54.4L442.8,54.4L443.17,73.6L444.25,64L444.62,73.6L445.34,44.8L445.7,64L446.43,73.6L446.79,54.4L447.88,44.8L448.24,64L449.69,83.2L450.05,83.2L450.41,83.2L450.78,73.6L451.14,73.6L451.5,92.8L451.86,92.8L452.22,83.2L453.31,92.8L453.67,54.4L454.76,83.2L455.12,83.2L455.49,73.6L455.85,112L456.21,112L456.57,102.4L458.02,102.4L458.38,112L458.75,83.2L459.11,102.4L459.47,102.4L459.83,102.4L460.2,112L460.56,112L460.92,83.2L461.28,83.2L461.65,112L462.73,102.4L463.1,112L464.18,73.6L464.54,64L465.63,64L465.99,92.8L467.44,92.8L467.81,73.6L468.53,73.6L468.89,83.2L469.26,83.2L469.62,73.6L469.98,73.6L470.34,92.8L471.43,73.6L471.79,83.2L472.88,83.2L473.24,73.6L475.78,73.6L476.14,83.2L476.5,83.2L476.87,73.6L477.95,121.6L478.31,121.6L479.4,112L479.76,121.6L480.13,121.6L480.49,131.2L481.58,121.6L481.94,131.2L483.39,150.4L483.75,140.8L484.47,150.4L484.84,140.8L486.29,140.8L486.65,150.4L487.01,150.4L487.37,140.8L488.46,140.8L488.82,131.2L491,131.2L491.36,112L491.72,121.6L492.08,112L492.45,112L492.81,131.2L493.17,121.6L493.53,121.6L494.26,150.4L494.62,140.8L495.35,140.8L495.71,131.2L496.07,131.2L496.43,188.8L497.88,131.2L498.24,121.6L506.22,121.6L506.58,131.2L506.94,121.6L507.3,150.4L508.75,150.4L509.12,121.6L509.48,121.6L509.84,150.4L511.29,150.4L511.65,160L512.01,140.8L512.38,169.6L513.83,169.6L514.19,112L514.55,112L514.91,121.6L515.28,121.6L515.64,112L516,112" style="vector-effect: non-scaling-stroke; fill: none; stroke: rgb(99, 110, 250); stroke-opacity: 1; stroke-width: 2px; opacity: 1;"/></g><g class="points"/><g class="text"/></g><g class="trace scatter trace9856da" style="stroke-miterlimit: 2; opacity: 1;"><g class="fills"/><g class="errorbars"/><g class="lines"><path class="js-line" d="M0,25.6L0.72,25.6L1.09,35.2L1.45,35.2L1.81,25.6L2.17,25.6L2.54,35.2L3.26,44.8L3.62,35.2L3.99,25.6L4.35,54.4L4.71,25.6L5.07,44.8L5.44,64L5.8,64L6.16,25.6L6.52,16L6.88,25.6L7.25,25.6L7.61,73.6L7.97,64L8.33,54.4L8.7,25.6L9.06,44.8L9.42,54.4L10.15,54.4L10.51,83.2L12.32,25.6L12.68,25.6L13.04,25.6L13.41,54.4L14.49,25.6L14.86,25.6L15.22,25.6L15.58,54.4L15.94,102.4L16.31,25.6L16.67,25.6L17.03,35.2L17.39,35.2L17.76,44.8L19.57,44.8L19.93,35.2L20.65,35.2L21.02,54.4L21.38,54.4L21.74,92.8L22.1,92.8L22.47,83.2L22.83,131.2L23.19,102.4L23.55,83.2L26.09,131.2L26.45,112L26.81,112L27.18,102.4L27.9,102.4L28.26,112L29.35,83.2L29.71,73.6L30.08,73.6L30.44,83.2L31.53,92.8L31.89,92.8L32.61,83.2L32.97,92.8L33.34,92.8L33.7,121.6L34.79,83.2L35.15,121.6L36.6,121.6L36.96,92.8L38.05,131.2L38.41,131.2L39.5,140.8L39.86,140.8L40.22,140.8L40.58,150.4L42.03,150.4L42.4,121.6L43.48,160L43.85,150.4L44.21,150.4L44.57,121.6L44.93,121.6L45.29,150.4L46.38,160L46.74,160L47.47,121.6L47.83,150.4L49.28,150.4L49.64,121.6L50.01,121.6L50.37,112L51.46,160L51.82,121.6L52.18,131.2L52.54,102.4L53.63,160L54.72,160L56.17,121.6L56.53,150.4L57.62,102.4L57.98,102.4L58.34,102.4L58.7,140.8L60.51,102.4L60.88,131.2L61.96,102.4L62.33,112L62.69,112L63.05,102.4L65.22,102.4L65.59,92.8L66.31,92.8L66.67,102.4L67.04,92.8L67.4,102.4L67.76,102.4L68.49,102.4L68.85,92.8L70.3,121.6L70.66,112L71.38,112L71.75,92.8L72.47,92.8L72.83,83.2L73.2,83.2L73.56,92.8L73.92,92.8L74.28,102.4L75.01,102.4L75.37,92.8L75.73,92.8L76.1,102.4L76.46,92.8L76.82,102.4L77.18,102.4L77.54,102.4L77.91,92.8L78.63,112L78.99,102.4L80.08,112L80.44,102.4L81.53,121.6L81.89,112L82.26,112L82.62,140.8L83.71,102.4L84.07,102.4L85.88,73.6L86.24,92.8L86.97,83.2L87.33,92.8L87.69,92.8L88.05,83.2L89.14,92.8L89.5,92.8L89.87,92.8L90.23,121.6L90.95,83.2L91.31,92.8L91.68,92.8L92.04,73.6L100.37,73.6L100.74,83.2L101.1,64L101.46,92.8L102.55,83.2L102.91,83.2L103.27,102.4L103.63,92.8L104,92.8L104.72,83.2L105.08,92.8L105.81,83.2L106.17,92.8L106.9,92.8L107.26,83.2L108.71,83.2L109.07,92.8L110.52,92.8L110.88,102.4L111.61,121.6L111.97,102.4L112.69,102.4L113.06,92.8L113.78,64L114.14,92.8L115.23,73.6L115.59,83.2L116.68,73.6L117.04,73.6L117.77,73.6L118.13,92.8L118.49,83.2L118.85,102.4L119.94,92.8L120.3,92.8L121.03,131.2L121.39,150.4L121.75,150.4L122.12,102.4L122.48,102.4L122.84,112L123.56,112L123.93,131.2L124.29,150.4L124.65,131.2L125.01,140.8L125.74,140.8L126.1,160L126.83,188.8L127.19,160L128.28,179.2L128.64,169.6L129.36,236.8L129.72,227.2L130.09,102.4L131.54,121.6L131.9,92.8L132.99,131.2L133.35,140.8L133.71,112L134.07,121.6L134.44,131.2L135.88,150.4L136.25,112L137.33,150.4L137.7,140.8L138.06,140.8L138.42,150.4L139.51,131.2L139.87,150.4L141.68,121.6L142.04,121.6L143.13,131.2L143.49,131.2L144.58,121.6L144.94,131.2L145.31,131.2L145.67,121.6L146.03,140.8L146.39,121.6L146.76,131.2L147.48,131.2L147.84,121.6L148.21,169.6L148.57,121.6L148.93,121.6L149.65,131.2L150.02,121.6L151.1,121.6L151.47,131.2L151.83,121.6L152.19,131.2L152.55,131.2L153.64,121.6L154,121.6L154.37,121.6L154.73,131.2L155.81,121.6L156.18,121.6L156.54,121.6L156.9,131.2L157.63,131.2L157.99,121.6L158.35,121.6L158.71,131.2L159.08,131.2L159.44,121.6L160.89,121.6L161.25,131.2L161.61,121.6L161.97,131.2L162.34,131.2L162.7,140.8L163.06,131.2L163.42,121.6L163.79,121.6L164.15,140.8L165.24,140.8L165.6,131.2L165.96,131.2L166.32,121.6L167.05,121.6L167.41,140.8L168.5,112L168.86,112L169.22,112L169.58,121.6L169.95,121.6L170.31,112L171.4,112L171.76,121.6L172.85,121.6L173.21,112L173.93,112L174.29,121.6L175.38,102.4L175.74,121.6L176.11,121.6L176.47,112L177.19,112L177.56,121.6L178.64,102.4L179.01,112L180.09,131.2L180.46,121.6L181.18,102.4L181.54,112L181.9,112L182.63,131.2L182.99,112L184.08,140.8L184.44,92.8L185.17,121.6L185.53,112L185.89,112L187.34,131.2L187.7,131.2L188.79,131.2L189.15,121.6L189.51,121.6L189.88,112L190.6,112L190.96,131.2L192.41,92.8L192.78,92.8L193.14,92.8L193.5,83.2L194.22,83.2L194.59,112L194.95,83.2L195.31,92.8L195.67,112L196.04,112L196.4,121.6L196.76,121.6L197.12,83.2L197.49,73.6L197.85,83.2L198.21,92.8L200.38,92.8L200.75,83.2L201.83,83.2L202.2,73.6L203.28,83.2L203.65,83.2L204.73,102.4L205.1,102.4L205.46,92.8L205.82,112L206.18,112L206.54,131.2L208.36,102.4L208.72,112L209.44,112L209.81,121.6L210.17,83.2L210.53,92.8L210.89,92.8L211.98,92.8L212.34,83.2L212.71,73.6L213.07,83.2L213.43,83.2L213.79,83.2L214.15,73.6L215.24,83.2L215.6,83.2L216.69,73.6L217.05,83.2L217.78,83.2L218.14,102.4L219.23,92.8L219.59,102.4L220.31,83.2L220.68,102.4L221.76,92.8L222.13,92.8L222.85,83.2L223.21,92.8L223.94,92.8L224.3,102.4L225.39,92.8L225.75,102.4L226.11,102.4L226.47,83.2L226.84,83.2L227.2,73.6L227.56,83.2L227.92,73.6L228.29,73.6L229.74,73.6L230.1,64L230.46,54.4L230.82,64L231.19,73.6L232.27,73.6L232.63,83.2L233,73.6L233.36,83.2L233.72,83.2L234.45,92.8L234.81,83.2L235.53,83.2L235.9,92.8L236.62,73.6L236.98,92.8L237.35,92.8L237.71,83.2L239.16,102.4L239.52,102.4L240.24,83.2L240.61,102.4L240.97,102.4L241.33,92.8L241.69,92.8L242.06,102.4L242.42,102.4L242.78,112L243.14,102.4L243.51,121.6L243.87,112L244.23,121.6L244.59,121.6L245.68,112L246.04,112L247.49,92.8L247.85,102.4L248.58,102.4L248.94,92.8L249.3,112L249.67,102.4L250.03,102.4L250.39,102.4L250.75,112L251.12,112L251.48,102.4L251.84,102.4L252.2,121.6L252.56,121.6L252.93,131.2L253.65,188.8L254.01,179.2L254.38,179.2L254.74,188.8L255.1,188.8L255.46,150.4L256.19,198.4L256.55,169.6L256.91,169.6L257.28,188.8L258.72,208L259.09,198.4L260.17,179.2L260.54,188.8L261.62,236.8L261.99,256L263.07,112L263.44,112L267.78,112L268.15,121.6L268.51,121.6L268.87,112L269.96,131.2L270.32,121.6L271.41,112L271.77,121.6L272.86,121.6L273.22,102.4L273.58,102.4L273.94,112L275.03,112L275.39,92.8L276.48,112L276.84,102.4L277.93,102.4L278.29,131.2L279.38,121.6L279.74,121.6L280.47,131.2L280.83,121.6L281.19,121.6L281.55,131.2L282.28,131.2L282.64,121.6L283,112L283.37,131.2L284.09,131.2L284.45,140.8L285.9,121.6L286.26,121.6L286.63,121.6L286.99,131.2L287.71,131.2L288.08,121.6L289.16,112L289.53,121.6L290.25,121.6L290.61,112L292.42,112L292.79,121.6L293.15,73.6L293.51,112L293.87,112L295.32,112L295.69,121.6L296.77,121.6L297.13,112L297.86,112L298.22,121.6L299.31,102.4L299.67,112L300.76,102.4L301.12,112L302.93,112L303.29,102.4L304.02,102.4L304.38,112L304.74,92.8L305.11,102.4L305.47,102.4L305.83,92.8L306.19,121.6L308.73,121.6L309.09,112L310.18,112L310.54,121.6L310.9,131.2L311.27,112L312.35,150.4L312.72,131.2L313.44,140.8L313.8,121.6L314.17,112L314.53,131.2L315.25,131.2L315.62,121.6L316.7,83.2L317.06,92.8L318.15,112L318.51,92.8L319.24,73.6L319.6,92.8L320.69,92.8L321.05,83.2L321.78,73.6L322.14,92.8L323.22,83.2L323.59,83.2L324.31,83.2L324.67,92.8L325.04,83.2L325.4,92.8L325.76,92.8L326.12,92.8L326.49,83.2L327.57,73.6L327.94,92.8L328.3,92.8L328.66,73.6L329.38,73.6L329.75,83.2L330.47,73.6L330.83,83.2L331.56,83.2L331.92,73.6L332.28,92.8L332.65,73.6L333.01,83.2L333.73,83.2L334.1,73.6L334.82,64L335.18,73.6L336.27,73.6L336.63,54.4L337.36,35.2L337.72,44.8L338.08,64L338.81,44.8L339.17,73.6L339.53,83.2L339.89,73.6L340.26,73.6L340.98,73.6L341.34,92.8L343.88,92.8L344.24,83.2L344.6,83.2L344.97,92.8L346.05,92.8L346.42,83.2L346.78,73.6L347.14,83.2L347.5,92.8L348.59,73.6L348.95,73.6L349.31,92.8L349.68,83.2L350.04,73.6L350.4,73.6L350.76,83.2L351.49,83.2L351.85,198.4L352.94,217.6L353.3,198.4L354.39,102.4L354.75,102.4L356.56,102.4L356.92,112L357.65,112L358.01,121.6L359.1,121.6L359.46,112L359.82,102.4L360.19,121.6L361.27,121.6L361.63,112L362,121.6L362.36,112L362.72,112L363.81,112L364.17,121.6L364.53,112L364.9,121.6L365.26,121.6L367.79,121.6L368.16,150.4L369.24,121.6L369.61,121.6L369.97,131.2L370.33,112L371.42,112L371.78,102.4L372.87,131.2L373.23,121.6L374.32,121.6L374.68,112L375.4,121.6L375.77,112L377.94,112L378.3,102.4L378.67,102.4L379.03,112L379.39,131.2L379.75,121.6L380.12,121.6L380.84,121.6L381.2,112L382.29,112L382.65,131.2L383.01,131.2L383.38,112L383.74,112L384.1,121.6L384.46,131.2L384.83,121.6L385.19,121.6L385.55,160L385.91,140.8L386.28,140.8L386.64,140.8L387,121.6L387.36,102.4L387.72,140.8L388.09,131.2L388.45,92.8L388.81,92.8L389.17,102.4L390.62,140.8L390.99,112L392.07,140.8L392.44,121.6L392.8,121.6L393.16,131.2L393.52,140.8L393.88,227.2L394.25,227.2L394.61,64L395.33,83.2L395.7,54.4L396.06,44.8L396.42,54.4L396.78,54.4L398.96,54.4L399.32,64L400.41,64L400.77,73.6L402.22,73.6L402.58,54.4L402.94,83.2L403.31,73.6L403.67,64L404.76,83.2L405.12,73.6L405.84,73.6L406.21,64L406.93,64L407.29,54.4L407.65,92.8L408.02,54.4L408.38,64L409.47,64L409.83,83.2L410.92,73.6L411.28,73.6L412.73,112L413.09,102.4L413.45,92.8L413.81,112L414.18,102.4L414.54,92.8L414.9,92.8L415.26,83.2L415.63,83.2L415.99,92.8L416.35,83.2L416.71,92.8L417.08,112L418.16,102.4L418.53,102.4L419.97,121.6L420.34,92.8L421.06,83.2L421.42,112L422.51,83.2L422.87,102.4L425.05,102.4L425.41,112L425.77,73.6L426.13,102.4L426.5,92.8L426.86,112L427.22,102.4L427.58,92.8L427.95,54.4L428.31,73.6L428.67,102.4L429.76,102.4L430.12,73.6L430.48,102.4L430.85,92.8L431.21,92.8L431.93,112L432.29,73.6L432.66,83.2L433.02,73.6L433.38,73.6L433.74,73.6L434.11,83.2L434.47,73.6L434.83,102.4L436.28,83.2L436.64,112L437.01,112L437.37,83.2L438.09,112L438.46,83.2L439.18,73.6L439.54,83.2L439.9,112L440.27,73.6L440.99,92.8L441.35,83.2L442.44,92.8L442.8,92.8L443.17,92.8L443.53,83.2L444.62,83.2L444.98,112L445.34,112L445.7,83.2L446.06,83.2L446.43,102.4L447.15,102.4L447.51,112L448.24,92.8L448.6,112L448.96,102.4L449.33,121.6L450.41,121.6L450.78,112L451.14,112L451.5,102.4L451.86,112L452.22,102.4L452.59,102.4L454.04,102.4L454.4,112L455.12,112L455.49,102.4L456.21,102.4L456.57,112L457.66,112L458.02,102.4L459.47,102.4L459.83,92.8L460.92,102.4L461.28,92.8L461.65,92.8L462.01,112L462.37,112L462.73,92.8L463.1,102.4L463.46,83.2L464.54,92.8L464.91,92.8L465.63,83.2L465.99,92.8L466.36,92.8L466.72,121.6L467.81,92.8L468.17,92.8L468.89,83.2L469.26,102.4L469.62,102.4L469.98,92.8L470.71,64L471.07,92.8L471.79,131.2L472.15,121.6L472.52,121.6L473.97,83.2L474.33,112L475.05,102.4L475.42,140.8L476.5,83.2L476.87,150.4L477.59,140.8L477.95,150.4L479.04,121.6L479.4,150.4L480.13,150.4L480.49,131.2L481.94,131.2L482.3,160L483.39,131.2L483.75,131.2L484.11,121.6L484.47,131.2L484.84,131.2L485.2,131.2L485.56,140.8L486.65,112L487.01,150.4L487.74,150.4L488.1,121.6L488.46,121.6L488.82,112L489.19,112L489.55,121.6L489.91,150.4L490.27,121.6L490.63,112L493.53,112L493.9,140.8L494.98,131.2L495.35,131.2L496.07,131.2L496.43,121.6L497.52,121.6L497.88,131.2L504.04,131.2L504.4,102.4L505.49,131.2L505.85,102.4L506.22,102.4L506.58,112L507.67,131.2L508.03,131.2L511.29,131.2L511.65,121.6L512.01,92.8L512.38,102.4L512.74,131.2L513.83,102.4L514.19,102.4L514.91,112L515.28,102.4L516,102.4" style="vector-effect: non-scaling-stroke; fill: none; stroke: rgb(239, 85, 59); stroke-opacity: 1; stroke-width: 2px; opacity: 1;"/></g><g class="points"/><g class="text"/></g><g class="trace scatter trace34a4c5" style="stroke-miterlimit: 2; opacity: 1;"><g class="fills"/><g class="errorbars"/><g class="lines"><path class="js-line" d="M0,44.8L1.09,54.4L1.45,44.8L2.17,44.8L2.54,35.2L3.62,44.8L3.99,44.8L6.16,44.8L6.52,35.2L7.61,44.8L7.97,44.8L9.42,44.8L9.78,35.2L11.23,54.4L11.6,44.8L13.04,25.6L13.41,25.6L15.22,25.6L15.58,54.4L15.94,64L16.31,25.6L17.03,25.6L17.39,35.2L17.76,44.8L18.12,35.2L18.48,35.2L18.84,35.2L19.21,44.8L19.93,44.8L20.29,35.2L21.02,54.4L21.38,44.8L21.74,92.8L22.83,112L23.19,102.4L23.92,83.2L24.28,92.8L25.37,102.4L25.73,102.4L26.09,102.4L26.45,92.8L26.81,92.8L27.18,83.2L27.54,92.8L27.9,73.6L28.26,73.6L28.63,102.4L28.99,102.4L29.35,121.6L30.44,131.2L30.8,131.2L31.89,112L32.25,121.6L33.34,121.6L33.7,92.8L34.79,92.8L35.15,102.4L36.24,92.8L36.6,92.8L37.69,92.8L38.05,102.4L39.5,102.4L39.86,112L40.22,112L40.58,121.6L41.67,112L42.03,112L43.12,121.6L43.48,121.6L46.74,121.6L47.11,112L49.28,112L49.64,121.6L50.01,131.2L50.37,112L52.18,112L52.54,121.6L56.17,121.6L56.53,112L57.62,121.6L57.98,121.6L58.34,121.6L58.7,112L62.33,112L62.69,121.6L63.78,121.6L64.14,112L65.22,112L65.59,102.4L67.76,102.4L68.12,92.8L69.21,102.4L69.57,102.4L71.02,102.4L71.38,92.8L72.47,102.4L72.83,92.8L73.92,112L74.28,102.4L74.65,112L75.01,102.4L75.37,92.8L75.73,92.8L76.1,102.4L76.82,102.4L77.18,112L78.63,92.8L78.99,92.8L79.36,92.8L79.72,102.4L80.08,112L80.44,92.8L81.89,112L82.26,112L82.62,112L82.98,102.4L83.34,102.4L83.71,112L84.07,112L84.43,102.4L84.79,112L85.15,102.4L85.52,92.8L86.24,102.4L86.6,92.8L86.97,92.8L87.33,112L88.42,102.4L88.78,102.4L90.95,102.4L91.31,92.8L92.4,102.4L92.76,102.4L93.13,102.4L93.49,92.8L93.85,92.8L94.21,102.4L94.58,102.4L94.94,92.8L96.03,92.8L96.39,102.4L97.47,92.8L97.84,92.8L98.92,83.2L99.29,92.8L99.65,83.2L100.01,102.4L101.1,73.6L101.46,92.8L101.82,92.8L102.19,102.4L102.91,92.8L103.27,102.4L103.63,102.4L104,92.8L105.08,92.8L105.45,83.2L105.81,92.8L106.17,83.2L106.53,83.2L107.62,83.2L107.98,73.6L108.71,92.8L109.07,83.2L109.43,83.2L110.52,83.2L110.88,102.4L111.24,92.8L111.61,102.4L111.97,102.4L112.33,102.4L112.69,92.8L113.06,92.8L113.42,83.2L113.78,73.6L114.14,83.2L114.51,83.2L115.96,83.2L116.32,112L117.4,102.4L118.13,102.4L118.49,102.4L118.85,112L119.94,102.4L120.3,121.6L120.67,121.6L121.03,140.8L121.75,140.8L122.12,131.2L122.48,131.2L122.84,121.6L124.29,169.6L124.65,150.4L127.91,227.2L128.28,208L128.64,198.4L129,227.2L129.36,256L129.72,246.4L130.09,131.2L132.62,131.2L132.99,140.8L134.07,150.4L134.44,140.8L135.52,131.2L135.88,131.2L136.25,121.6L136.61,150.4L137.7,140.8L138.06,150.4L138.78,169.6L139.15,150.4L139.51,150.4L139.87,160L140.96,150.4L141.32,150.4L141.68,150.4L142.04,140.8L143.13,140.8L143.49,150.4L144.22,160L144.58,150.4L145.67,140.8L146.03,150.4L147.12,160L147.48,150.4L147.84,150.4L148.21,188.8L148.93,150.4L149.29,169.6L150.38,150.4L150.74,150.4L151.47,150.4L151.83,160L153.28,140.8L153.64,140.8L154.37,150.4L154.73,140.8L155.81,150.4L156.18,140.8L156.54,140.8L156.9,150.4L157.99,140.8L158.35,140.8L158.71,140.8L159.08,150.4L159.44,150.4L159.8,140.8L160.16,131.2L160.53,140.8L160.89,140.8L161.97,150.4L162.34,150.4L163.06,150.4L163.42,140.8L163.79,140.8L164.15,150.4L165.96,150.4L166.32,160L167.05,131.2L167.41,150.4L168.86,121.6L169.22,131.2L169.58,131.2L169.95,150.4L170.31,150.4L170.67,140.8L171.4,121.6L171.76,131.2L172.12,131.2L172.48,131.2L172.85,140.8L173.57,140.8L173.93,131.2L175.02,121.6L175.38,121.6L175.74,121.6L176.11,131.2L177.19,131.2L177.56,150.4L178.64,131.2L179.01,131.2L180.09,160L180.46,131.2L181.9,112L182.27,121.6L182.63,140.8L182.99,121.6L183.35,131.2L183.72,150.4L184.08,131.2L184.44,92.8L184.8,83.2L185.17,140.8L185.89,121.6L186.25,150.4L187.34,112L187.7,131.2L188.06,140.8L188.43,179.2L189.15,169.6L189.51,121.6L189.88,112L190.24,131.2L190.6,131.2L190.96,150.4L191.69,112L192.05,92.8L192.41,83.2L192.78,112L193.14,112L193.5,92.8L195.31,121.6L195.67,121.6L196.04,121.6L196.4,112L197.12,112L197.49,102.4L198.94,121.6L199.3,112L200.38,102.4L200.75,102.4L204.01,102.4L204.37,112L206.18,160L206.54,150.4L206.91,140.8L207.63,121.6L207.99,131.2L209.81,131.2L210.17,102.4L210.89,112L211.26,102.4L211.98,102.4L212.34,112L212.71,92.8L213.07,102.4L213.43,102.4L214.15,102.4L214.52,112L214.88,102.4L215.24,112L215.6,112L216.33,92.8L216.69,102.4L217.05,112L217.42,92.8L218.14,121.6L218.5,112L218.87,121.6L219.23,121.6L220.68,102.4L221.04,112L222.13,102.4L222.49,102.4L222.85,92.8L223.21,102.4L223.58,102.4L223.94,102.4L224.3,121.6L224.66,121.6L225.03,92.8L226.11,102.4L226.47,102.4L227.56,102.4L227.92,92.8L229.01,102.4L229.37,92.8L229.74,102.4L230.1,83.2L230.46,83.2L230.82,92.8L231.55,92.8L231.91,102.4L232.27,102.4L232.63,92.8L233.36,112L233.72,102.4L234.08,102.4L235.17,92.8L235.53,92.8L235.9,102.4L236.26,92.8L236.62,92.8L237.71,112L238.07,102.4L239.16,112L239.52,112L240.97,112L241.33,121.6L241.69,121.6L242.06,112L242.42,112L242.78,121.6L244.96,121.6L245.32,131.2L246.04,131.2L246.4,121.6L247.85,121.6L248.22,112L249.3,121.6L249.67,121.6L250.03,112L250.39,121.6L250.75,131.2L251.12,131.2L251.48,112L251.84,112L252.2,121.6L252.93,160L253.29,198.4L254.74,217.6L255.1,198.4L255.46,160L255.83,198.4L256.19,208L256.55,179.2L256.91,208L257.28,208L258.36,198.4L258.72,208L259.81,188.8L260.17,198.4L260.54,188.8L260.9,198.4L261.26,236.8L261.62,294.4L261.99,275.2L262.35,121.6L263.44,131.2L263.8,131.2L264.88,131.2L265.25,121.6L266.33,121.6L266.7,112L268.15,112L268.51,121.6L268.87,131.2L269.23,112L270.68,112L271.04,121.6L271.41,121.6L271.77,112L273.58,112L273.94,121.6L275.03,112L275.39,112L275.76,112L276.12,121.6L277.57,102.4L277.93,112L279.02,121.6L279.38,121.6L280.1,112L280.47,121.6L280.83,112L281.19,121.6L281.55,140.8L282.64,112L283,131.2L283.37,131.2L283.73,140.8L284.81,140.8L285.18,131.2L285.54,121.6L285.9,131.2L286.26,131.2L286.63,131.2L286.99,121.6L287.35,121.6L287.71,112L288.8,121.6L289.16,121.6L290.25,102.4L290.61,112L290.97,112L291.34,121.6L292.42,112L292.79,131.2L293.15,102.4L293.51,121.6L293.87,140.8L294.96,121.6L295.32,112L295.69,140.8L296.05,131.2L296.41,131.2L297.5,121.6L297.86,121.6L298.22,121.6L298.58,140.8L298.95,121.6L299.31,150.4L300.03,150.4L300.4,131.2L301.12,121.6L301.48,131.2L301.85,131.2L302.21,140.8L303.29,121.6L303.66,131.2L304.02,140.8L304.38,131.2L304.74,112L305.83,150.4L306.19,150.4L308.37,150.4L308.73,131.2L309.46,131.2L309.82,140.8L311.99,140.8L312.35,150.4L313.44,150.4L313.8,160L314.17,160L314.53,150.4L315.62,150.4L315.98,160L316.7,112L317.06,150.4L317.79,121.6L318.15,150.4L318.51,112L318.88,121.6L319.24,121.6L319.96,121.6L320.33,92.8L321.41,121.6L321.78,121.6L322.14,121.6L322.5,92.8L323.59,92.8L323.95,112L324.31,112L324.67,121.6L325.4,92.8L325.76,121.6L326.12,121.6L326.49,102.4L327.21,102.4L327.57,73.6L328.66,102.4L329.02,83.2L329.75,102.4L330.11,73.6L331.2,73.6L331.56,83.2L332.28,102.4L332.65,73.6L333.73,102.4L334.1,92.8L335.91,54.4L336.27,92.8L337.72,44.8L338.08,44.8L338.44,35.2L338.81,64L339.89,112L340.26,102.4L340.62,92.8L342.43,121.6L342.79,121.6L343.52,121.6L343.88,131.2L344.6,131.2L344.97,112L345.69,112L346.05,102.4L346.42,102.4L346.78,112L347.5,112L347.87,121.6L348.23,112L348.59,121.6L348.95,121.6L350.04,102.4L350.4,112L351.13,112L351.49,169.6L352.94,265.6L353.3,246.4L353.66,227.2L354.03,236.8L354.39,169.6L354.75,131.2L355.11,140.8L355.47,140.8L356.56,140.8L356.92,150.4L357.65,131.2L358.01,140.8L358.37,140.8L358.74,121.6L359.46,121.6L359.82,140.8L360.91,121.6L361.27,131.2L362.36,160L362.72,140.8L363.08,150.4L363.45,140.8L363.81,140.8L364.17,140.8L364.53,131.2L364.9,160L365.26,140.8L365.62,140.8L365.98,140.8L366.35,131.2L366.71,131.2L367.07,150.4L367.43,160L367.79,140.8L368.52,140.8L368.88,131.2L369.97,160L370.33,140.8L371.42,150.4L371.78,140.8L372.87,160L373.23,140.8L373.59,140.8L373.96,131.2L375.04,160L375.4,150.4L375.77,140.8L376.13,150.4L376.49,150.4L377.22,150.4L377.58,160L377.94,169.6L378.3,160L378.67,150.4L380.12,169.6L380.48,169.6L380.84,131.2L381.2,140.8L381.56,140.8L382.65,131.2L383.01,131.2L383.38,131.2L384.1,140.8L384.46,131.2L384.83,140.8L385.19,150.4L385.55,169.6L385.91,140.8L386.28,140.8L386.64,160L387,140.8L387.36,150.4L387.72,179.2L388.45,121.6L388.81,131.2L389.17,131.2L389.54,140.8L389.9,179.2L390.26,179.2L390.62,160L390.99,150.4L391.35,179.2L391.71,179.2L392.07,198.4L392.44,179.2L392.8,198.4L393.16,198.4L393.52,198.4L393.88,256L394.25,227.2L394.61,112L394.97,131.2L395.33,92.8L396.42,131.2L396.78,121.6L397.15,112L398.23,102.4L398.6,102.4L399.32,102.4L399.68,112L400.77,112L401.13,121.6L401.49,121.6L401.86,112L402.22,102.4L402.58,140.8L402.94,140.8L403.31,121.6L404.03,102.4L404.39,112L404.76,121.6L405.48,131.2L405.84,112L406.21,131.2L406.57,112L406.93,121.6L408.38,102.4L408.74,112L410.19,112L410.55,102.4L412.37,121.6L412.73,150.4L413.09,131.2L413.45,160L414.54,121.6L414.9,112L416.35,92.8L416.71,102.4L417.44,121.6L417.8,112L418.53,150.4L418.89,131.2L419.61,150.4L419.97,140.8L420.7,112L421.06,92.8L422.15,131.2L422.51,121.6L422.87,121.6L423.24,131.2L424.32,112L424.69,140.8L425.05,150.4L425.41,131.2L425.77,131.2L426.13,121.6L426.86,131.2L427.22,121.6L428.67,102.4L429.03,102.4L430.12,121.6L430.48,160L430.85,160L431.21,150.4L432.29,102.4L432.66,102.4L433.02,112L433.38,102.4L433.74,92.8L434.11,92.8L434.47,102.4L434.83,102.4L435.19,112L435.56,131.2L435.92,102.4L437.01,102.4L437.37,112L437.73,102.4L438.09,131.2L439.54,112L439.9,112L440.27,102.4L440.63,112L440.99,121.6L442.08,83.2L442.44,112L442.8,102.4L443.17,112L443.53,121.6L443.89,121.6L444.25,83.2L445.34,112L445.7,121.6L446.06,131.2L446.43,102.4L447.51,102.4L447.88,112L448.24,92.8L448.6,121.6L449.69,140.8L450.05,140.8L450.41,140.8L450.78,112L451.14,112L451.5,140.8L451.86,131.2L452.22,140.8L452.59,140.8L453.31,140.8L453.67,121.6L454.76,140.8L455.12,140.8L455.49,140.8L455.85,112L456.21,112L456.57,150.4L457.3,140.8L457.66,150.4L458.38,140.8L458.75,102.4L459.47,140.8L459.83,131.2L460.2,140.8L460.92,140.8L461.28,131.2L461.65,131.2L462.01,102.4L462.73,102.4L463.1,131.2L464.54,102.4L464.91,112L465.27,83.2L465.63,112L465.99,150.4L466.36,160L466.72,121.6L467.08,92.8L467.44,102.4L467.81,102.4L468.17,102.4L468.53,112L468.89,131.2L469.26,92.8L470.34,83.2L470.71,92.8L471.79,102.4L472.15,92.8L472.52,92.8L472.88,102.4L473.24,102.4L473.6,112L473.97,83.2L474.33,102.4L474.69,92.8L475.05,92.8L475.42,102.4L475.78,131.2L476.14,121.6L476.5,92.8L476.87,150.4L477.23,131.2L477.59,131.2L479.4,160L479.76,160L480.49,150.4L480.85,160L481.58,188.8L481.94,169.6L483.03,169.6L483.39,179.2L483.75,179.2L484.11,140.8L484.47,179.2L484.84,169.6L485.2,169.6L485.56,179.2L485.92,160L486.29,131.2L486.65,169.6L487.01,160L487.37,169.6L487.74,169.6L489.19,131.2L489.55,160L491,160L491.36,131.2L491.72,121.6L492.08,160L493.17,160L493.53,150.4L494.26,131.2L494.62,160L494.98,160L495.35,131.2L495.71,131.2L496.07,121.6L496.43,131.2L496.79,121.6L497.16,121.6L499.33,121.6L499.69,150.4L500.42,150.4L500.78,121.6L501.14,121.6L501.51,131.2L502.59,121.6L502.96,121.6L503.68,121.6L504.04,131.2L504.4,140.8L504.77,131.2L505.13,92.8L506.22,121.6L506.58,92.8L507.67,121.6L508.03,121.6L509.12,131.2L509.48,131.2L510.93,131.2L511.29,102.4L511.65,102.4L512.01,131.2L513.1,102.4L513.46,102.4L514.19,102.4L514.55,131.2L515.64,102.4L516,102.4" style="vector-effect: non-scaling-stroke; fill: none; stroke: rgb(0, 204, 150); stroke-opacity: 1; stroke-width: 2px; opacity: 1;"/></g><g class="points"/><g class="text"/></g></g></g><g class="overplot"/><path class="xlines-above crisp" d="M0,0" style="fill: none;"/><path class="ylines-above crisp" d="M0,0" style="fill: none;"/><g class="overlines-above"/><g class="xaxislayer-above"><g class="xtick"><text text-anchor="middle" x="0" y="433" transform="translate(80,0)" style="font-family: 'Open Sans', verdana, arial, sans-serif; font-size: 12px; fill: rgb(42, 63, 95); fill-opacity: 1; white-space: pre;">2017</text></g><g class="xtick"><text text-anchor="middle" x="0" y="433" transform="translate(212.26,0)" style="font-family: 'Open Sans', verdana, arial, sans-serif; font-size: 12px; fill: rgb(42, 63, 95); fill-opacity: 1; white-space: pre;">2018</text></g><g class="xtick"><text text-anchor="middle" x="0" y="433" transform="translate(344.52,0)" style="font-family: 'Open Sans', verdana, arial, sans-serif; font-size: 12px; fill: rgb(42, 63, 95); fill-opacity: 1; white-space: pre;">2019</text></g><g class="xtick"><text text-anchor="middle" x="0" y="433" transform="translate(476.78,0)" style="font-family: 'Open Sans', verdana, arial, sans-serif; font-size: 12px; fill: rgb(42, 63, 95); fill-opacity: 1; white-space: pre;">2020</text></g></g><g class="yaxislayer-above"><g class="ytick"><text text-anchor="end" x="79" y="4.199999999999999" transform="translate(0,384.8)" style="font-family: 'Open Sans', verdana, arial, sans-serif; font-size: 12px; fill: rgb(42, 63, 95); fill-opacity: 1; white-space: pre;">3.88</text></g><g class="ytick"><text text-anchor="end" x="79" y="4.199999999999999" transform="translate(0,346.4)" style="font-family: 'Open Sans', verdana, arial, sans-serif; font-size: 12px; fill: rgb(42, 63, 95); fill-opacity: 1; white-space: pre;">3.9</text></g><g class="ytick"><text text-anchor="end" x="79" y="4.199999999999999" transform="translate(0,308)" style="font-family: 'Open Sans', verdana, arial, sans-serif; font-size: 12px; fill: rgb(42, 63, 95); fill-opacity: 1; white-space: pre;">3.92</text></g><g class="ytick"><text text-anchor="end" x="79" y="4.199999999999999" transform="translate(0,269.6)" style="font-family: 'Open Sans', verdana, arial, sans-serif; font-size: 12px; fill: rgb(42, 63, 95); fill-opacity: 1; white-space: pre;">3.94</text></g><g class="ytick"><text text-anchor="end" x="79" y="4.199999999999999" transform="translate(0,231.2)" style="font-family: 'Open Sans', verdana, arial, sans-serif; font-size: 12px; fill: rgb(42, 63, 95); fill-opacity: 1; white-space: pre;">3.96</text></g><g class="ytick"><text text-anchor="end" x="79" y="4.199999999999999" transform="translate(0,192.8)" style="font-family: 'Open Sans', verdana, arial, sans-serif; font-size: 12px; fill: rgb(42, 63, 95); fill-opacity: 1; white-space: pre;">3.98</text></g><g class="ytick"><text text-anchor="end" x="79" y="4.199999999999999" transform="translate(0,154.4)" style="font-family: 'Open Sans', verdana, arial, sans-serif; font-size: 12px; fill: rgb(42, 63, 95); fill-opacity: 1; white-space: pre;">4</text></g><g class="ytick"><text text-anchor="end" x="79" y="4.199999999999999" transform="translate(0,116)" style="font-family: 'Open Sans', verdana, arial, sans-serif; font-size: 12px; fill: rgb(42, 63, 95); fill-opacity: 1; white-space: pre;">4.02</text></g></g><g class="overaxes-above"/></g></g><g class="polarlayer"/><g class="ternarylayer"/><g class="geolayer"/><g class="funnelarealayer"/><g class="pielayer"/><g class="treemaplayer"/><g class="sunburstlayer"/><g class="glimages"/><defs id="topdefs-cbf129"><g class="clips"/><clipPath id="legendcbf129"><rect width="82" height="83" x="0" y="0"/></clipPath></defs><g class="layer-above"><g class="imagelayer"/><g class="shapelayer"/></g><g class="infolayer"><g class="legend" pointer-events="all" transform="translate(606.32, 100)"><rect class="bg" shape-rendering="crispEdges" width="82" height="83" x="0" y="0" style="stroke: rgb(68, 68, 68); stroke-opacity: 1; fill: rgb(255, 255, 255); fill-opacity: 1; stroke-width: 0px;"/><g class="scrollbox" transform="translate(0, 0)" clip-path="url('#legendcbf129')"><text class="legendtitletext" text-anchor="start" x="2" y="15.600000000000001" style="font-family: 'Open Sans', verdana, arial, sans-serif; font-size: 12px; fill: rgb(42, 63, 95); fill-opacity: 1; white-space: pre;">Oceania</text><g class="groups"><g class="traces" transform="translate(0, 30.1)" style="opacity: 1;"><text class="legendtext" text-anchor="start" x="40" y="4.680000000000001" style="font-family: 'Open Sans', verdana, arial, sans-serif; font-size: 12px; fill: rgb(42, 63, 95); fill-opacity: 1; white-space: pre;">Global</text><g class="layers" style="opacity: 1;"><g class="legendfill"/><g class="legendlines"><path class="js-line" d="M5,0h30" style="fill: none; stroke: rgb(99, 110, 250); stroke-opacity: 1; stroke-width: 2px;"/></g><g class="legendsymbols"><g class="legendpoints"/></g></g><rect class="legendtoggle" x="0" y="-9.5" width="76.09375" height="19" style="fill: rgb(0, 0, 0); fill-opacity: 0;"/></g><g class="traces" transform="translate(0, 49.1)" style="opacity: 1;"><text class="legendtext" text-anchor="start" x="40" y="4.680000000000001" style="font-family: 'Open Sans', verdana, arial, sans-serif; font-size: 12px; fill: rgb(42, 63, 95); fill-opacity: 1; white-space: pre;">au</text><g class="layers" style="opacity: 1;"><g class="legendfill"/><g class="legendlines"><path class="js-line" d="M5,0h30" style="fill: none; stroke: rgb(239, 85, 59); stroke-opacity: 1; stroke-width: 2px;"/></g><g class="legendsymbols"><g class="legendpoints"/></g></g><rect class="legendtoggle" x="0" y="-9.5" width="76.09375" height="19" style="fill: rgb(0, 0, 0); fill-opacity: 0;"/></g><g class="traces" transform="translate(0, 68.1)" style="opacity: 1;"><text class="legendtext" text-anchor="start" x="40" y="4.680000000000001" style="font-family: 'Open Sans', verdana, arial, sans-serif; font-size: 12px; fill: rgb(42, 63, 95); fill-opacity: 1; white-space: pre;">nz</text><g class="layers" style="opacity: 1;"><g class="legendfill"/><g class="legendlines"><path class="js-line" d="M5,0h30" style="fill: none; stroke: rgb(0, 204, 150); stroke-opacity: 1; stroke-width: 2px;"/></g><g class="legendsymbols"><g class="legendpoints"/></g></g><rect class="legendtoggle" x="0" y="-9.5" width="76.09375" height="19" style="fill: rgb(0, 0, 0); fill-opacity: 0;"/></g></g></g><rect class="scrollbar" rx="20" ry="3" width="0" height="0" x="0" y="0" style="fill: rgb(128, 139, 164); fill-opacity: 1;"/></g><g class="g-gtitle"/><g class="g-xtitle"><text class="xtitle" x="338" y="461.8" text-anchor="middle" style="font-family: 'Open Sans', verdana, arial, sans-serif; font-size: 14px; fill: rgb(42, 63, 95); opacity: 1; font-weight: normal; white-space: pre;">Date</text></g><g class="g-ytitle"><text class="ytitle" transform="rotate(-90,30.418750000000003,260)" x="30.418750000000003" y="260" text-anchor="middle" style="font-family: 'Open Sans', verdana, arial, sans-serif; font-size: 14px; fill: rgb(42, 63, 95); opacity: 1; font-weight: normal; white-space: pre;">time_signature</text></g></g></svg>