<svg class="main-svg" xmlns="http://www.w3.org/2000/svg" xmlns:xlink="http://www.w3.org/1999/xlink" width="700" height="500" style="" viewBox="0 0 700 500"><rect x="0" y="0" width="700" height="500" style="fill: rgb(255, 255, 255); fill-opacity: 1;"/><defs id="defs-8e5fb4"><g class="clips"><clipPath id="clip8e5fb4xyplot" class="plotclip"><rect width="472" height="320"/></clipPath><clipPath class="axesclip" id="clip8e5fb4x"><rect x="80" y="0" width="472" height="500"/></clipPath><clipPath class="axesclip" id="clip8e5fb4y"><rect x="0" y="100" width="700" height="320"/></clipPath><clipPath class="axesclip" id="clip8e5fb4xy"><rect x="80" y="100" width="472" height="320"/></clipPath></g><g class="gradients"/></defs><g class="bglayer"><rect class="bg" x="80" y="100" width="472" height="320" style="fill: rgb(229, 236, 246); fill-opacity: 1; stroke-width: 0;"/></g><g class="layer-below"><g class="imagelayer"/><g class="shapelayer"/></g><g class="cartesianlayer"><g class="subplot xy"><g class="layer-subplot"><g class="shapelayer"/><g class="imagelayer"/></g><g class="gridlayer"><g class="x"><path class="xgrid crisp" transform="translate(200.98000000000002,0)" d="M0,100v320" style="stroke: rgb(255, 255, 255); stroke-opacity: 1; stroke-width: 1px;"/><path class="xgrid crisp" transform="translate(321.97,0)" d="M0,100v320" style="stroke: rgb(255, 255, 255); stroke-opacity: 1; stroke-width: 1px;"/><path class="xgrid crisp" transform="translate(442.95,0)" d="M0,100v320" style="stroke: rgb(255, 255, 255); stroke-opacity: 1; stroke-width: 1px;"/></g><g class="y"><path class="ygrid crisp" transform="translate(0,384.26)" d="M80,0h472" style="stroke: rgb(255, 255, 255); stroke-opacity: 1; stroke-width: 1px;"/><path class="ygrid crisp" transform="translate(0,332.93)" d="M80,0h472" style="stroke: rgb(255, 255, 255); stroke-opacity: 1; stroke-width: 1px;"/><path class="ygrid crisp" transform="translate(0,281.6)" d="M80,0h472" style="stroke: rgb(255, 255, 255); stroke-opacity: 1; stroke-width: 1px;"/><path class="ygrid crisp" transform="translate(0,230.28)" d="M80,0h472" style="stroke: rgb(255, 255, 255); stroke-opacity: 1; stroke-width: 1px;"/><path class="ygrid crisp" transform="translate(0,178.95)" d="M80,0h472" style="stroke: rgb(255, 255, 255); stroke-opacity: 1; stroke-width: 1px;"/><path class="ygrid crisp" transform="translate(0,127.62)" d="M80,0h472" style="stroke: rgb(255, 255, 255); stroke-opacity: 1; stroke-width: 1px;"/></g></g><g class="zerolinelayer"/><path class="xlines-below"/><path class="ylines-below"/><g class="overlines-below"/><g class="xaxislayer-below"/><g class="yaxislayer-below"/><g class="overaxes-below"/><g class="plot" transform="translate(80, 100)" clip-path="url('#clip8e5fb4xyplot')"><g class="scatterlayer mlayer"><g class="trace scatter trace250a75" style="stroke-miterlimit: 2; opacity: 1;"><g class="fills"/><g class="errorbars"/><g class="lines"><path class="js-line" d="M0,214.74L0.66,245.36L0.99,244.29L1.33,244.88L1.99,241.92L2.32,247.92L3.31,239.9L3.65,246.14L3.98,252.71L4.31,244.77L4.64,246.27L4.97,245.69L5.3,248.63L5.97,251L6.3,241.53L6.63,239.3L6.96,246.56L7.29,252.18L7.96,252.1L8.29,252.8L8.95,233.08L9.28,238.96L9.61,252.01L10.61,239.78L10.94,248.81L11.27,235.28L11.6,244.42L11.93,247.38L12.26,248.69L12.93,248.31L13.26,246.5L13.59,244.51L13.92,249.29L14.25,252.16L14.58,263.28L15.25,251.61L15.58,257.24L15.91,252.09L16.24,255.47L16.57,258.74L16.9,255.22L17.24,256.03L17.9,254.38L18.56,247.08L18.89,249.15L19.22,247.82L19.89,252.16L20.22,235.12L20.55,227.03L20.88,233.68L21.21,238.66L21.54,239.46L21.88,235.67L22.87,226.44L23.2,235.56L23.53,240.79L23.87,240.21L24.2,238.68L24.86,239.3L25.19,233.09L25.52,241.77L25.85,238.14L26.19,239.26L26.52,242.34L26.85,245.85L27.18,241.75L27.51,239.84L28.51,245.55L28.84,245.04L29.17,248.09L29.5,235.98L29.83,232.73L30.16,237.68L30.83,241.49L31.16,237.02L31.49,237.4L31.82,240.07L32.81,250.11L33.15,249.9L33.48,248.36L35.13,232.56L35.47,240.2L36.79,220.01L37.12,222.87L37.46,223.67L37.79,225.94L38.12,224.21L38.45,220.9L38.78,219.69L39.11,211.97L39.44,208.77L39.78,211.22L40.11,223.02L41.43,206.59L41.76,207.74L42.1,217.06L43.42,207.84L43.75,207.4L44.42,218.96L44.75,212.9L45.08,207.39L45.41,210.71L45.74,213.45L46.4,204.18L46.74,218.7L48.06,208.2L48.39,211.39L48.72,209.31L49.06,216.5L50.71,205.75L51.04,218.31L53.03,204.34L53.37,211.12L53.7,215.01L54.03,212.41L54.36,212.64L54.69,211.45L55.02,213.37L55.35,214.6L55.69,211.61L56.35,219.8L56.68,216.24L57.01,214.02L57.34,206.03L58.34,219.61L58.67,218.36L59,221.45L59.33,220.14L59.66,212.99L59.99,204.82L60.33,210.12L60.66,210.1L60.99,201.96L61.32,205.42L61.65,209.81L61.98,210.44L62.31,208.91L62.98,217.67L63.31,216.25L63.64,208.99L63.97,217.31L64.3,215.47L64.63,209.71L65.63,217.61L65.96,212.72L66.29,211.52L66.62,217.22L66.96,218.35L67.29,224.24L68.28,218.5L68.61,217.64L69.28,210.3L69.61,211.44L69.94,217.15L70.93,205.46L71.26,210.42L71.6,199.25L71.93,207.15L72.26,213.69L72.92,216.64L73.25,213.4L73.92,210.89L74.25,218.48L74.91,223.14L75.24,222.84L75.57,221.75L76.24,211.59L76.57,213.95L76.9,225.99L77.89,219.94L78.22,221.03L78.56,214.58L78.89,223L79.22,221.36L79.55,224.89L80.21,224.15L80.54,219.39L80.88,212.78L81.21,213.86L81.54,219.38L81.87,218.66L82.2,221.92L82.53,221.01L82.87,214.55L83.2,210.49L83.53,222.7L84.85,219.25L85.19,216.96L85.52,212.75L85.85,221.1L87.17,210.05L87.51,207.7L89.49,225.64L89.83,218.58L90.49,229.09L90.82,227.66L91.15,215.36L91.81,232.26L92.15,227.73L92.48,223.59L93.14,228.62L93.47,226.95L93.8,223.8L94.13,224.96L94.47,231.71L94.8,220.65L95.13,226.99L95.46,235.66L96.46,231.65L96.79,242.21L97.12,231.45L97.45,232.94L97.78,239.62L98.11,241.08L98.44,238.28L98.78,239.24L99.11,238.04L99.44,226.52L101.43,255.61L101.76,245.08L102.42,255.66L103.08,255.31L103.42,243.32L103.75,245.19L104.08,228.7L104.74,240.73L105.07,236.28L105.4,235.66L105.74,240.38L106.07,237.21L106.4,231.97L106.73,230.94L107.06,234.31L108.39,226.3L108.72,217.23L109.05,215.64L109.38,224.54L110.38,228.01L110.71,224.37L111.04,214.27L111.37,214.95L111.7,223.58L112.03,223.94L112.37,227.05L113.69,200.94L114.02,219.9L114.35,223L114.69,216.71L115.68,199.27L116.01,205.65L116.34,208.99L116.67,207.07L117.01,202.54L117.34,202.93L117.67,213.05L118.66,186.86L118.99,216.93L119.66,230.39L119.99,227.6L120.32,228.04L120.65,165.5L120.98,185.79L121.31,239.73L121.98,233.32L122.31,237.11L122.64,234.31L122.97,237.18L123.3,241.91L123.63,242.53L123.97,239.87L124.96,233.75L125.29,237.26L125.62,237.09L125.96,240.39L127.28,229.92L127.61,233.13L128.28,232.18L128.61,233.18L128.94,229.96L129.27,248.46L129.93,233.31L130.26,242.38L131.59,232.46L131.92,232.59L132.25,235L133.25,239.09L133.58,234.75L133.91,242.27L134.24,233.46L134.57,234.16L135.57,254.75L135.9,252.64L136.23,251.29L136.56,235.76L136.89,236.99L137.22,253.62L137.89,245.99L138.22,247.53L138.55,246.05L138.88,239.07L139.21,242.88L139.54,258.7L139.88,251.49L140.21,252.41L140.54,254.05L141.2,240.53L141.53,248.91L141.87,257.09L142.2,254.44L142.53,254.37L142.86,250.57L143.19,260.17L143.85,242.47L144.19,253.91L144.52,255.19L144.85,251.76L145.18,255.38L145.51,252.32L145.84,247.07L146.84,260.97L147.17,258.33L148.16,235.95L148.49,245.49L148.83,254.88L149.16,250.83L149.49,246.97L149.82,244.76L150.15,255.71L150.48,249.81L150.81,253.89L151.15,259.55L151.48,254.17L152.14,254.76L152.47,250.92L152.8,245.14L153.13,248.66L153.47,255.95L153.8,255.95L154.13,257.33L154.46,260.55L154.79,256.03L155.12,236.66L155.46,241.72L155.79,255.2L156.12,254.8L156.45,249.49L156.78,243.64L157.11,257.58L157.44,246.02L157.78,249.48L158.11,262.13L158.77,249.28L159.1,251.81L159.43,256.54L159.76,248.42L160.1,251.94L160.43,254.18L160.76,254.31L161.09,248.81L161.42,250.35L161.75,256.69L162.08,246.93L162.42,250.16L162.75,252.31L163.08,256.74L163.41,252.48L163.74,251.64L164.07,249.23L164.4,238.43L164.74,238.42L165.07,251.54L165.4,248.07L165.73,252.39L166.06,251.45L166.72,231.74L167.06,240.04L167.39,244.27L168.38,253.04L168.71,246.29L169.38,230.81L169.71,234.16L170.04,236.17L170.37,235.11L170.7,228.18L171.03,228.63L171.37,234.15L172.03,243.7L172.36,240.92L172.69,241.33L173.02,240.95L173.35,249.01L173.69,240.06L174.02,250.18L174.35,252.54L175.34,250.2L175.67,246.15L176.01,237.01L176.34,245.44L176.67,256.56L177,258.24L177.33,248.92L177.66,253.71L177.99,240.29L178.33,237.79L178.66,247.52L179.65,252.39L179.98,250.33L181.31,261.41L181.64,258.08L181.97,238.71L182.3,244.56L182.63,258.82L182.97,258.96L183.3,260.7L183.96,265.72L184.29,261.94L184.62,265.31L184.96,264.1L185.29,250.57L186.28,264.53L186.61,262.14L186.94,266.96L187.28,260.71L187.61,251.2L187.94,258.44L188.27,255.19L188.6,255.01L188.93,256.12L189.26,260.3L189.6,246.57L189.93,242.94L190.26,247.8L190.59,249.29L190.92,248.65L191.25,248.77L191.58,245.16L191.92,261.16L192.25,252.12L192.58,261.24L192.91,259.42L194.57,248.87L194.9,250.87L195.23,262.83L196.56,236.94L196.89,240.36L197.22,243.71L197.55,250.5L198.21,248.73L198.54,250.66L198.88,252.36L199.21,249.66L199.87,260.51L200.2,256.53L200.53,254.28L200.87,255.27L201.2,247.79L201.53,239.18L201.86,249.97L202.19,256.4L202.52,252.43L202.85,256.04L203.19,253.71L203.52,255.14L203.85,262.55L204.18,258.37L204.51,261.01L204.84,264.12L205.17,267.52L205.51,266.39L205.84,266.11L206.17,255.44L206.5,267.55L206.83,271.74L208.49,257.56L208.82,261.4L209.15,267.68L209.81,266.36L210.15,265.67L210.48,262.14L210.81,250.08L212.13,278.84L212.47,275.16L213.13,256.34L213.46,263.98L213.79,273.4L214.12,273.34L214.46,270.25L214.79,268.63L215.12,259.48L215.45,258.79L215.78,262.53L216.78,276.19L217.11,270.52L217.44,250.68L217.77,257.75L218.1,264.19L218.43,261.92L218.76,272.29L219.43,271.35L219.76,266.51L220.09,254.77L220.42,269.02L220.75,268.33L221.08,268.32L221.42,257.95L222.08,274.83L222.41,263.76L223.74,277.48L224.07,273.08L224.4,274.46L224.73,268.04L225.06,269.05L225.39,267.73L225.72,266.47L226.06,265.6L226.39,261.06L227.38,253.87L227.71,257.61L228.71,253.82L229.04,245.53L229.37,244.6L229.7,247.87L230.03,253.91L230.37,251.99L230.7,248.34L231.03,247.98L231.36,258.01L232.02,218.81L232.35,239.65L232.69,242.04L233.02,238.63L234.34,217.89L234.67,236.26L235.01,237.78L235.34,229.58L235.67,230.87L236,229.84L236.33,207.6L237.33,228.24L237.66,223.11L238.32,223.46L238.65,218.14L238.98,219.06L239.31,212.81L239.65,213.61L239.98,236.59L240.31,270.76L240.64,265.61L240.97,258.2L241.3,256.83L241.63,229.65L241.97,216.36L242.3,266.24L242.63,268.34L242.96,258.84L243.29,250.67L243.62,255.1L243.96,265.46L244.95,254.52L245.28,252.9L245.94,250.24L246.28,254.34L246.61,250.18L246.94,251.18L247.27,253.78L247.6,260.94L247.93,250.79L248.26,247.45L248.6,251.58L248.93,250.98L249.26,253.44L249.59,252.61L249.92,251.23L250.25,248.4L250.58,256.91L250.92,253.38L251.25,254.44L251.58,256.91L251.91,256.61L252.24,258.77L252.57,256.92L252.9,267.7L253.9,272.27L254.23,266.95L254.56,273.82L254.89,271L255.22,270.33L255.56,275.69L255.89,274.18L256.22,273.62L256.55,277.55L256.88,268.98L257.21,265.58L257.54,274.66L257.88,269.06L258.21,271.81L258.54,275.17L258.87,272.41L259.2,276.6L259.53,264.01L259.87,276.86L260.2,272.22L260.86,273.5L261.19,269.81L261.85,260.51L262.19,263.57L262.52,268.92L263.18,265.93L263.51,266.4L263.84,268.56L264.17,261.6L264.51,265.66L264.84,265.23L265.17,267.59L265.5,265.45L265.83,264.67L266.49,249.9L266.83,258.8L267.16,257.82L267.49,259.56L267.82,259.44L268.15,258.07L268.81,251.07L269.15,254.91L269.81,255.61L270.14,251.05L271.8,269.34L272.13,265L272.46,267.1L272.79,262.79L273.12,279.72L273.46,261.03L273.79,264.35L274.12,266.77L274.45,261.91L274.78,262.67L275.11,256.97L275.78,241.17L276.11,245.08L276.44,254.28L277.1,246.02L277.43,246.83L277.76,251.19L278.76,243.73L279.09,260.21L279.75,243L280.08,261.96L280.42,241.84L280.75,251.85L281.08,258.33L281.41,247.76L281.74,251.4L282.07,253.34L282.74,242.05L283.07,248.86L284.39,246.47L284.72,240.73L285.06,237.01L285.39,240.8L285.72,250.89L286.71,247.4L287.04,255.07L287.38,248.05L287.71,249.93L288.04,256.24L289.03,250.91L289.37,242.72L289.7,237.65L290.36,237.95L290.69,238.48L291.02,242.8L291.35,234.45L292.68,249.56L293.01,250.73L293.34,251.39L293.67,248.83L294.34,245.27L294.67,246.84L295,255.33L296.33,237.5L296.66,239.89L296.99,247.63L297.32,245.42L297.65,247.05L297.98,247.07L298.31,245.77L298.65,228.4L298.98,228.14L299.31,230.69L299.64,231.44L299.97,231.06L300.3,228.63L300.63,228.75L300.97,215.46L302.62,229.85L302.96,225.56L303.29,229.18L303.62,219.7L303.95,233.33L304.28,224.86L304.61,223.41L304.94,224.38L305.28,230.99L306.6,222.76L306.93,217.22L307.6,222.21L307.93,221.73L308.26,221.31L308.92,228.24L309.25,225.31L310.58,210.56L310.91,222.28L311.24,217.21L311.57,218.71L311.9,222L312.24,220.26L312.57,225.07L312.9,216.13L313.23,220.97L313.56,219.67L313.89,217.53L314.22,219.51L314.56,218.85L314.89,216.57L315.22,204.85L316.21,216.93L316.54,215.74L316.88,217.4L317.54,205.73L317.87,211.93L318.2,215.84L318.87,213.39L319.2,206.47L319.53,208.75L319.86,200.94L320.52,217.03L320.85,210.13L321.19,211.59L321.52,211.68L321.85,231.63L322.51,216.21L322.84,219.37L323.17,220.94L323.84,218.29L324.17,212.26L324.5,201.54L324.83,213.58L325.16,213.12L325.49,207.13L325.83,210.31L326.16,210.31L326.49,209.34L326.82,200.67L327.81,221.84L328.15,218.66L328.81,210.89L329.14,199.55L329.8,218.08L330.13,216.65L330.47,218.17L331.46,194.93L331.79,212.54L332.12,217.64L332.46,217.11L332.79,212.94L333.45,210.93L333.78,202.21L334.78,219.05L335.11,218.75L335.44,219.06L336.1,201L336.43,210.65L336.76,219.83L337.43,218.75L337.76,215.04L338.09,215.82L338.42,201.59L339.08,220.41L339.42,217.52L339.75,216.42L340.08,215.84L340.41,225.75L340.74,204.18L341.07,221.87L341.4,225.09L341.74,227.92L342.07,226.99L342.4,216.66L343.06,205.78L343.39,215.76L343.72,224.65L344.06,219.34L344.39,213.51L345.38,207.13L345.71,213.43L346.04,212.48L346.38,213.45L346.71,214.83L347.04,217.34L347.37,208.71L347.7,208.04L348.03,211.71L348.37,220.77L349.03,219.52L349.36,218.68L349.69,221.39L350.02,207.98L351.02,227.15L351.35,226.51L351.68,211.7L352.34,190.21L352.67,200.61L353.01,208.9L353.67,202.77L354,204.35L354.33,210.37L354.66,203.09L354.99,209.01L355.33,220.23L355.99,209.81L356.32,207.27L356.65,207.83L356.98,191.6L357.98,204.52L358.31,205.06L358.64,203.76L358.97,196.31L360.3,185.89L360.63,195.09L361.29,228.98L361.62,222.59L361.96,229.09L362.29,232.49L362.62,207.7L362.95,209.26L363.28,237.92L363.61,237.42L363.94,225.71L364.94,235.02L365.27,232.79L366.26,220.58L366.6,231.17L366.93,234.19L367.26,230.57L367.59,230.88L367.92,229.7L368.25,236.36L368.92,227.01L369.25,237.9L369.91,236.56L370.24,231.24L370.9,219.69L371.24,225.76L371.57,235.21L371.9,231.61L372.23,232.26L372.56,232.57L372.89,223.47L373.22,217.3L373.56,227.44L373.89,230.83L374.22,229.22L374.55,228.9L374.88,229.65L375.21,210.05L375.54,202.32L375.88,218.18L376.54,228.38L376.87,226.15L377.2,226.1L377.53,226.41L377.87,207.48L379.85,242.46L380.19,222.72L381.51,244.7L381.84,241.58L382.17,240.13L382.51,213.54L383.5,220.96L383.83,216.52L384.16,217.76L384.49,229.65L384.83,228.51L385.16,229.42L385.49,234.71L386.48,222.71L386.81,228.58L387.15,219.33L387.48,224.59L387.81,232.65L388.47,221.2L388.8,221.25L389.13,235.21L389.47,226.26L389.8,236.22L390.13,235.77L390.46,234.36L390.79,235.09L391.12,236.52L391.46,233.48L391.79,222.75L392.12,224.85L392.45,233.79L394.11,210.97L394.44,215.1L394.77,223.98L395.1,218.64L395.43,220.05L395.76,214.15L396.1,228.61L396.43,210.73L396.76,215.38L397.09,219.96L397.42,224.19L397.75,220.33L398.08,222.97L398.75,212.25L399.08,217.26L400.74,239.29L401.07,229.23L401.73,242.03L402.06,237.15L402.39,238.27L403.39,228.18L403.72,237.96L404.05,241.5L404.38,238.65L404.71,235.69L405.71,215.33L406.04,227.41L407.03,233.14L407.37,226.9L407.7,235.54L408.03,218.96L408.36,218.36L408.69,227.01L409.02,230.87L409.35,223.31L409.69,214.61L410.02,226.61L410.68,219.92L411.01,226.76L411.34,227.39L411.67,224.57L412.01,225.84L412.34,211.24L412.67,211.55L413,214.7L413.33,229.49L413.66,223.28L413.99,213.07L414.33,220.51L414.66,218.05L414.99,207.99L415.65,220.81L415.98,216.43L416.31,214.38L416.65,219.7L416.98,204.85L417.31,198.61L417.64,205.46L417.97,214.38L418.3,212.58L418.63,214.36L418.97,214.72L419.63,194.91L419.96,205.02L420.29,216.24L421.95,185.19L422.28,193.09L422.94,213.18L423.28,213.17L423.61,211.43L424.27,186.4L424.6,200.39L424.93,213.46L425.26,209L425.6,217.7L426.26,215.43L426.59,204.13L427.92,221.51L428.25,226.41L428.91,207.54L429.24,216.53L430.24,226.26L430.57,217.71L431.23,212.67L431.56,224.81L432.22,230.16L432.56,228.07L433.55,221.15L433.88,237L434.21,241.73L434.54,232.29L434.88,233.16L435.21,230.79L435.87,208.05L436.2,214.99L436.53,227.55L437.2,221.8L437.53,226.25L438.19,219.35L438.52,224.63L438.85,233.98L439.52,231.84L439.85,226.55L440.18,209.82L440.51,214.1L440.84,223.63L441.17,224.06L441.51,231.49L442.83,205.11L443.16,213.31L444.49,225.63L444.82,206.91L445.15,198.92L445.48,211.94L446.48,219.55L446.81,217.96L447.14,206.42L447.47,203.89L447.8,211.82L448.13,221.11L448.47,212.68L448.8,209.38L449.13,210.82L449.46,207.78L449.79,196.66L450.12,207.99L450.46,209.42L450.79,209.67L451.12,211.02L451.45,208.13L451.78,215.85L452.11,200.08L452.44,213.04L452.78,222.9L453.77,216.34L454.1,207.13L454.43,192.43L454.76,206.72L455.1,212.7L456.42,196.32L456.75,180.42L457.75,208.04L458.08,207.39L458.74,203.87L459.07,191.96L459.74,211.46L460.07,205.56L460.4,202.84L461.39,189.92L461.72,196.88L462.06,212.02L462.39,207.59L462.72,206.24L463.05,205.52L463.38,205.79L463.71,189.15L464.04,191.17L464.38,209.51L464.71,216.9L465.37,214.89L465.7,210.6L466.03,200.08L466.37,203.85L466.7,214.25L468.02,204.31L468.35,182.02L468.69,187.95L469.02,208.8L469.35,209.68L469.68,203.54L470.34,186.64L470.67,168.45L471.34,189.74L472,188.78" style="vector-effect: non-scaling-stroke; fill: none; stroke: rgb(99, 110, 250); stroke-opacity: 1; stroke-width: 2px; opacity: 1;"/></g><g class="points"/><g class="text"/></g><g class="trace scatter tracec4f43d" style="stroke-miterlimit: 2; opacity: 1;"><g class="fills"/><g class="errorbars"/><g class="lines"><path class="js-line" d="M0,209.76L0.99,238.07L1.33,234.12L1.66,233.39L1.99,223.33L2.65,240.51L2.98,238.59L3.31,238.54L3.65,236.14L3.98,246.16L4.31,241.36L4.64,247.13L4.97,253.62L6.3,236.27L6.63,236.43L7.62,244.99L7.96,244.07L8.95,232.52L9.28,241.64L9.61,244.55L9.94,242.83L10.28,242.05L11.27,236.06L11.6,244.81L11.93,247.02L12.26,244.5L12.6,245.66L12.93,243.98L13.26,236.64L13.59,234.08L13.92,244.52L14.25,243.94L14.58,255.43L15.91,234.51L16.24,245.76L17.57,241.16L17.9,235.71L18.23,234.52L18.56,243.28L19.22,243.42L19.56,244.86L20.55,229.5L20.88,236.01L21.88,237.68L22.21,233.31L22.87,228.75L23.2,235.39L24.53,232.73L24.86,227.41L25.19,228.49L25.52,244.08L26.19,248.46L26.52,247.75L26.85,244.39L27.51,235.38L27.84,241.74L29.17,237.11L29.5,230.93L29.83,231.32L30.16,236.39L30.49,239.57L30.83,237.16L31.16,237.05L31.49,235.97L31.82,239.31L32.15,232.01L32.48,237.74L32.81,238.92L33.81,229.47L34.14,231.77L34.47,231.19L34.8,236.8L35.13,235.49L35.47,230.71L35.8,232.52L36.13,227.27L36.79,219.76L37.12,227.49L37.79,226.82L38.12,223.18L38.45,222.34L38.78,224.28L39.11,217.38L39.44,218.97L39.78,223.01L40.11,224.99L40.44,223.63L40.77,219.61L41.43,215.18L41.76,221.61L42.1,222.58L42.43,220.23L43.09,219.82L43.42,217.12L43.75,214.94L44.08,223.63L44.42,223.4L44.75,218.99L46.07,208.88L46.4,214.17L46.74,216.78L47.07,214.39L47.4,212.14L48.06,206.99L48.39,209.62L48.72,214.29L49.06,213.6L50.05,212.61L50.71,205L51.04,208.99L51.38,214.53L53.03,199.07L53.37,205.98L54.03,205.87L54.36,201.65L55.02,199.07L55.35,193.49L56.35,200.44L56.68,199.43L57.34,196.57L57.67,197.67L58.01,208.58L59.33,204.08L59.66,197.54L59.99,195.26L60.33,202.17L60.66,203.09L60.99,202.09L61.32,202.05L62.31,195.72L62.65,202.53L62.98,204L63.31,203.23L63.64,201.26L63.97,200.46L64.3,202.44L64.63,192.35L64.97,199.17L65.3,200.28L65.96,200.59L66.29,200.13L66.62,209.5L67.29,207.9L67.62,209.07L67.95,208.45L68.28,206.05L69.28,197.5L69.61,203L70.93,200.01L71.26,197.45L71.6,194.68L71.93,200.72L72.26,204.32L72.59,203.91L72.92,203.1L73.25,203.91L73.58,203.55L73.92,201.56L74.91,207.8L75.24,208.96L76.24,205.4L76.57,211.08L76.9,212.58L77.23,212.2L77.56,209.59L77.89,209.81L78.22,211.47L78.56,207.67L78.89,214.99L79.88,216.57L80.21,215.25L80.88,207.18L81.21,216.58L81.54,217.79L81.87,217.59L82.2,216.81L82.87,216.05L83.2,212.5L83.53,223.85L84.19,222.19L84.52,219.67L84.85,215.7L85.19,223.66L85.52,215.52L85.85,224.41L86.18,224.3L86.51,224.36L86.84,223.52L87.17,222.37L87.51,215.33L87.84,211.8L88.17,223.69L88.83,225.36L89.16,224.86L89.49,225.94L89.83,221.95L90.16,219.58L90.49,229.5L90.82,229.99L91.15,227.66L91.48,229.13L91.81,227.97L92.15,226.23L92.48,222.67L92.81,231.75L93.14,235.81L93.47,233.13L93.8,228.99L94.13,229.33L94.47,227.96L94.8,222.82L95.13,230.75L95.79,234.76L96.12,231.13L96.46,231.5L96.79,235.24L97.12,229.48L97.45,239.31L98.78,233.14L99.11,229.64L99.44,226.66L99.77,236.63L101.43,244.11L101.76,239.77L102.42,250.14L102.75,247.9L103.08,245.47L104.08,231.45L104.41,242.21L104.74,243.73L105.07,240.6L105.74,240.2L106.07,243.5L106.4,234.07L106.73,243.53L107.06,244.93L107.39,246.9L107.72,244.23L108.39,237.42L108.72,226.65L109.38,241.42L109.71,239.41L110.04,234.59L111.04,222.88L111.37,228.29L111.7,233.89L112.03,232.75L112.37,231.83L113.36,222.05L113.69,230.76L114.69,234.85L115.02,230.48L115.35,229.35L115.68,223.91L116.34,233.09L116.67,228.28L117.01,230.72L118,222.97L118.33,226.96L118.66,225.39L118.99,230.09L119.66,240.25L119.99,236L120.32,234.69L120.65,161.42L121.65,244.13L121.98,238.24L122.64,236.51L122.97,242.21L123.3,248.91L123.63,246.25L123.97,245.91L124.96,237.92L125.29,248.94L125.62,250.14L125.96,254.24L126.62,247.83L126.95,243.34L127.28,238.58L127.61,252.78L128.61,249.93L128.94,249.47L129.27,255.91L129.6,243.62L129.93,252.77L130.6,251.8L130.93,251.25L131.59,246.12L131.92,238.19L132.58,250.75L132.92,250.57L133.25,251.73L133.58,252.16L133.91,251.9L134.24,235.92L135.57,265.21L135.9,247.84L136.23,246.32L136.56,236.82L137.22,248.73L137.56,248.34L137.89,249.94L138.22,248.73L138.55,244.04L138.88,237.93L139.21,248.24L139.88,251.34L140.21,249.13L140.54,247.84L140.87,249.72L141.2,237.69L141.53,246.34L141.87,249.65L143.19,244.93L143.52,235.35L144.52,248.56L144.85,246.15L145.18,245.21L145.51,246.77L145.84,241.29L146.17,251.43L146.51,252.49L146.84,251.7L147.17,249.46L147.83,245.2L148.16,234.09L148.83,246.39L149.16,246.37L149.49,241.74L149.82,238.77L150.15,248.73L150.48,244.31L150.81,251.04L151.15,252.15L151.48,251.69L151.81,251.13L152.47,247.72L152.8,235.05L153.47,246.5L153.8,245.64L154.13,240.81L154.46,241.1L154.79,244.84L155.12,233.34L155.46,245.2L155.79,246.47L156.12,245.73L156.45,241.82L157.11,242.09L157.44,230.77L157.78,245.44L158.44,245.6L158.77,243.27L159.1,242.81L159.43,249.94L159.76,244.57L160.1,249.89L160.43,248.2L161.09,252.15L161.42,250.72L161.75,251.23L162.08,239.64L162.42,243.15L162.75,245.95L163.08,249.47L163.41,248.54L163.74,243.24L164.4,234.72L164.74,242.12L165.07,243.32L165.4,242.48L165.73,242.32L166.72,226.35L167.06,231.65L167.39,236.66L167.72,243.28L168.05,240.72L168.38,238L168.71,235.89L169.04,223.07L169.71,232.67L170.04,231.22L170.37,231.56L170.7,231.38L171.03,228.16L172.36,243.89L172.69,242.55L173.02,242.77L173.69,231L174.02,237.52L174.68,242.65L175.01,240.94L175.67,234.73L176.01,228.14L177,256.67L177.33,246.94L177.66,241.48L178.33,226.8L178.66,237.26L178.99,238.23L179.32,235.84L179.98,233.46L180.31,258.25L180.65,250.11L180.98,255.9L181.31,254.44L182.97,229.42L183.3,238.19L184.62,243.27L184.96,238.77L185.29,230.87L185.62,236.04L185.95,242.83L186.94,234.74L187.28,233.81L187.61,225.72L187.94,233.46L188.27,237.15L189.26,232.82L189.6,233.58L189.93,226.47L190.59,236.84L190.92,236.52L191.25,234.33L191.58,231.72L191.92,253.44L192.25,244.07L192.58,250.57L192.91,255.68L194.24,247.87L194.57,237.79L195.23,248.99L195.56,247.47L195.89,245.07L196.89,237.04L197.22,244.71L197.55,250.24L198.21,248.83L198.54,245.66L199.21,237.63L199.54,246.07L199.87,249.87L200.2,248.89L200.53,248.49L201.53,238.97L201.86,247.83L202.52,250.6L202.85,250.43L203.19,250.69L203.52,248.91L203.85,250.57L204.18,254.51L204.51,256.69L204.84,256.48L205.17,255.6L206.17,248.3L206.5,259.46L207.16,257.55L207.49,258.63L208.49,249.41L208.82,260L209.15,261.32L209.81,261.01L210.15,258.87L210.48,252.82L210.81,253.08L211.14,258.14L211.8,259.68L212.13,259.18L212.47,258.4L212.8,251.3L213.13,251.64L213.46,260.12L214.46,261.37L214.79,258.88L215.45,257.71L215.78,263.1L216.44,267.71L216.78,266.2L217.11,264.52L217.44,256.69L217.77,256.16L218.1,264.72L218.43,264.52L218.76,262.97L219.43,263.98L219.76,257.83L220.09,254.21L220.42,262.12L220.75,264.27L221.08,263.79L221.42,257.15L222.08,265.74L222.41,257.93L223.4,267.73L223.74,265.63L224.07,266.58L224.4,275.79L224.73,267.95L225.06,274.56L225.39,275.51L227.05,260.08L227.38,265.02L227.71,267.12L228.04,266.33L228.38,265.07L229.37,255.39L229.7,259.35L230.03,261.95L230.37,260.62L230.7,254.11L231.36,248.44L231.69,233.03L232.02,233.51L232.35,246.61L232.69,247.81L233.02,242.55L233.35,243.23L233.68,239.5L234.01,230.82L234.34,232.73L234.67,241.78L236,237.46L236.33,225.68L236.66,228.12L236.99,238.04L237.66,233.98L237.99,228.3L238.98,220.67L239.31,209.95L239.65,216.16L239.98,240.27L240.64,261.58L240.97,260.47L241.3,260.96L241.63,211.58L241.97,244.99L242.3,265.72L242.63,267.64L242.96,263.86L243.29,262.61L243.62,267.45L243.96,267.48L244.29,269.2L244.62,269.6L244.95,267.2L245.28,269.44L245.61,264.53L245.94,270.83L246.61,270.34L246.94,269.06L247.93,261.12L248.26,265.08L249.26,268.36L249.59,266.21L250.25,259.37L250.58,264.7L250.92,264.94L251.25,266.17L251.58,268.13L251.91,266.85L252.24,262.48L252.57,263.81L252.9,268.3L253.9,271.39L254.23,268.7L254.56,270.08L254.89,267.56L255.89,272.52L256.22,271.75L256.55,274.08L256.88,265.58L257.21,262.85L257.54,268.44L258.54,268.5L258.87,267.91L259.53,262.54L259.87,267.4L260.2,268.92L260.53,268.37L260.86,266.3L261.19,265.35L261.52,258.7L261.85,253.58L262.19,257.05L262.52,260.85L262.85,262.94L263.18,260.64L263.51,260.56L264.17,256.01L264.51,261.34L265.17,263.72L265.5,262.3L265.83,260.96L266.16,253.54L266.49,250.84L266.83,255.56L267.49,258.13L267.82,257.21L268.48,250.29L268.81,247.72L269.81,256.87L270.14,255.59L270.47,256.02L270.8,262.46L271.13,258.89L271.47,263.59L271.8,266.89L272.13,266.47L272.46,265.19L273.12,264.04L273.46,256.43L274.12,263.8L274.45,261.74L274.78,261.45L275.44,255.36L275.78,250.35L276.11,256.84L276.44,254.86L276.77,253.48L277.1,252.68L277.43,247.83L277.76,246.88L278.1,243.39L278.43,243.83L278.76,249.25L279.09,254.19L279.42,253.54L279.75,252.19L280.08,254.07L280.42,247.14L281.08,252.64L281.41,250.93L281.74,249.89L282.07,252.68L282.4,245.22L282.74,242.62L283.07,247.8L283.4,250.97L283.73,250.36L284.06,248.58L284.39,247.02L284.72,241.43L285.06,235.04L285.39,244.13L286.05,244.61L286.38,244.18L286.71,242.13L287.04,253.52L287.38,245.21L287.71,251.77L288.04,251.19L289.03,246.41L289.37,239.05L289.7,236.86L290.03,240.82L290.69,245.7L291.02,242.44L292.02,235.54L292.35,238.91L293.01,241.84L293.34,240.58L293.67,239.11L294.34,232L294.67,236.83L295.33,239.7L295.66,237.84L296.66,228.99L296.99,234.28L297.98,235.88L298.31,232.12L298.65,220.64L299.31,220.94L299.64,228.87L299.97,231.2L300.3,229.01L300.63,229.02L301.3,214.43L301.63,221.5L302.29,225.97L302.62,223.48L302.96,222.43L303.29,223.85L303.62,220.43L303.95,226.58L304.94,229.37L305.28,228.39L305.94,214.52L306.27,219.73L306.6,221.27L307.93,218.81L308.26,215.67L308.59,221.92L308.92,221.39L309.25,219.6L310.25,217.59L310.58,215.65L310.91,223.52L311.57,222.74L311.9,222.49L312.24,221.7L312.57,218.77L312.9,214.65L313.23,220.66L313.89,223.85L314.22,223.78L314.56,223.26L314.89,226.91L315.22,219.04L316.21,226.19L316.54,225.56L316.88,224.72L317.54,217.45L317.87,223.56L318.53,226.38L318.87,224.98L319.2,225.51L319.53,216.7L319.86,212.72L320.19,216.77L320.52,220.65L321.52,221.55L321.85,236.36L322.18,221.92L322.51,229.89L322.84,229.37L323.17,228.75L323.51,225.92L323.84,225.13L324.17,230.44L324.5,229.31L324.83,234.68L325.16,235.48L325.49,234.25L325.83,232.59L326.16,233.54L326.49,234.25L326.82,232.61L327.15,238.58L328.81,231.9L329.14,227.88L329.47,234.89L330.13,233.71L330.47,232.49L330.8,231.31L331.13,226.86L331.46,228.55L331.79,234.66L332.12,233.27L332.79,233.69L333.12,233.95L333.78,230.41L334.11,237.05L335.11,238.08L335.44,236.27L336.1,230.42L336.43,237.27L336.76,235.84L337.1,237.16L337.43,236.66L337.76,236.65L338.09,232.88L338.42,230.31L338.75,238.58L339.42,238.52L339.75,239.39L340.08,236.61L340.41,244.96L340.74,242.26L341.07,246.76L341.74,245.08L342.07,245.48L342.4,238.29L343.06,231.42L343.39,239.7L343.72,239.37L344.06,237.41L344.72,234.74L345.05,235.63L345.38,230.25L346.04,237.47L346.38,237.43L346.71,236.77L347.37,238.19L347.7,230.63L348.7,235.93L349.03,235.1L349.36,234.72L349.69,236.87L350.02,230.56L350.35,233.33L350.69,236.62L351.68,232.13L352.01,227.94L352.67,215.97L353.01,222.04L353.34,222.5L353.67,220.58L354,224.82L354.66,213.92L354.99,218.99L355.33,227.31L356.65,220.24L356.98,212.92L357.98,222.12L358.31,221.63L358.64,217.96L359.3,208.26L359.97,208.99L360.3,209.03L360.63,207.87L360.96,221.55L361.96,246.78L362.29,243.78L362.62,208.69L362.95,232.78L363.28,245.69L363.94,243.14L364.28,248.43L365.6,244.44L365.93,241.46L366.26,239.97L366.6,247.62L366.93,250.17L367.26,241.13L367.59,242.49L367.92,242.18L368.25,251L368.58,246.93L368.92,249.29L369.25,249.87L369.91,245.46L370.24,245.93L370.57,240.56L370.9,236.86L371.24,243.14L371.57,247.87L371.9,243.97L372.23,244.8L372.56,243.66L372.89,236.49L373.22,230.55L373.56,240.63L374.88,237.99L375.21,230.55L375.54,228.47L375.88,237.92L376.87,238.36L377.2,235.17L377.53,229.2L377.87,230.54L378.2,239.25L378.86,236.66L379.19,238.21L380.19,231.12L380.52,238.16L381.51,237.58L381.84,235.17L382.51,228.2L382.84,236.27L384.83,227.29L385.16,235.18L387.15,229.06L387.48,233.96L388.8,230.24L389.13,243.26L389.47,242.77L389.8,248.22L391.12,239.05L391.46,225.9L391.79,220.87L392.12,230.74L392.45,230.8L392.78,229.05L393.44,228.09L393.78,225.29L394.11,220.14L394.44,223.4L394.77,223.43L396.43,216.28L396.76,221.82L397.09,227.15L397.42,225.18L397.75,224.31L398.08,224.29L398.42,219.15L398.75,219.6L399.08,226.89L400.74,232.69L401.07,232.09L401.4,238.31L402.39,237.06L402.72,232.15L403.39,228.91L403.72,233.75L404.38,233.69L404.71,231.27L405.04,229.57L405.38,222.91L405.71,218.87L406.04,231.83L406.7,229.98L407.03,228.64L408.03,217.53L408.36,223.2L408.69,225.19L409.02,224.37L409.35,220.09L409.69,216.97L410.02,228.04L410.35,217.49L410.68,223.68L411.01,223.09L412.01,216.74L412.34,221.66L412.67,209.02L413,212.57L413.33,213.17L413.66,212.66L413.99,215.45L414.33,217.4L414.66,215.37L414.99,209.21L415.65,219.93L415.98,217.93L416.31,214.23L416.65,214.56L416.98,206.71L417.31,202.27L417.64,211.74L418.3,213.17L418.63,212.79L418.97,209.66L419.63,196.45L419.96,209.23L420.29,207.77L420.62,199.76L420.96,203.06L421.29,202.88L421.62,198.76L421.95,193.55L422.28,203.86L422.94,207.42L423.28,205.63L423.61,206.76L423.94,204.84L424.27,201.04L424.6,207.83L425.6,211.57L425.93,208.81L426.92,215.23L427.25,215.66L427.92,219.22L428.25,216.17L428.91,206.38L429.24,213.25L429.57,214.85L429.9,212.95L430.24,214.02L430.57,213.91L430.9,220.01L431.23,215.52L431.56,222.31L432.56,219.28L432.89,216.06L433.22,217.39L433.55,211.71L434.21,223.59L434.54,221.82L434.88,220.1L435.87,207.32L436.2,216.74L436.53,220.61L436.87,219.48L437.2,218.81L437.53,218.79L437.86,216.5L438.19,213.23L438.52,222.82L439.52,223.42L439.85,221.48L440.18,215.03L440.51,216.37L440.84,226.82L442.17,224.72L442.5,215.29L442.83,212.07L443.16,222.71L443.49,223.85L443.83,222.93L444.16,221.64L444.49,222.49L444.82,215.46L445.15,212.55L445.48,224.41L445.81,224.51L446.15,225.6L447.47,218.78L447.8,227.86L448.47,227.25L448.8,229.05L449.13,228.1L449.46,222.83L449.79,220.73L450.12,230.14L450.46,229.75L450.79,230.29L451.12,230.4L451.45,230.03L451.78,236.26L452.11,229.52L452.44,237.29L452.78,240.52L454.43,227.59L454.76,237.53L456.09,232.22L456.42,223.15L456.75,220.27L457.08,232.33L458.41,228.88L458.74,229.48L459.07,228.63L459.4,238.93L459.74,237.41L460.07,238.33L460.4,243.03L461.39,230.74L461.72,239.71L462.06,238.26L462.72,238.52L463.05,238.48L463.38,240.71L463.71,231.91L464.04,244.82L464.71,242.5L465.04,242.57L465.7,236.32L466.03,231.75L466.7,239.47L467.03,236.78L468.02,232.33L468.35,223.47L469.02,233.71L469.35,232.71L469.68,231.44L470.34,222.91L470.67,218.33L471.34,226.01L471.67,225.28L472,224.72" style="vector-effect: non-scaling-stroke; fill: none; stroke: rgb(239, 85, 59); stroke-opacity: 1; stroke-width: 2px; opacity: 1;"/></g><g class="points"/><g class="text"/></g><g class="trace scatter trace3fee05" style="stroke-miterlimit: 2; opacity: 1;"><g class="fills"/><g class="errorbars"/><g class="lines"><path class="js-line" d="M0,262.49L1.33,270.37L1.66,267.35L1.99,264.66L2.32,268.72L2.65,269.1L2.98,267.76L4.97,278.24L5.3,276.8L5.63,277.71L5.97,277.37L6.3,271.24L6.63,270.1L6.96,272.04L7.29,276.39L7.62,273.86L7.96,274.57L8.29,277.92L8.62,273.31L8.95,270.64L9.28,272.88L9.61,275.32L9.94,274.87L10.28,276.84L10.61,278.11L10.94,272.58L11.27,271.46L11.6,274.1L12.26,280.51L12.6,279.64L12.93,280.88L13.92,272.21L14.25,274.88L14.58,279.44L14.92,276.5L15.25,275.31L15.91,271.09L16.24,274.31L16.9,279.58L17.24,278.33L17.57,280.95L18.23,275.71L18.56,276.69L18.89,280.42L19.22,278.42L19.56,278.96L19.89,280.66L20.22,270.23L20.55,271.91L20.88,276.97L21.21,278.87L21.54,276.13L22.21,278.62L22.54,276.37L22.87,275.23L23.2,277.19L23.53,279.73L23.87,277.24L24.2,278.62L24.53,279.38L24.86,274.64L25.19,275.02L25.52,280.16L25.85,283.93L26.19,283.78L26.52,282.85L26.85,284.99L27.18,275.18L27.84,283.31L28.17,278.78L28.51,278.87L28.84,273.7L29.17,277.77L29.5,279.7L29.83,284.16L30.16,282.38L30.49,282.45L30.83,284.08L31.16,283.36L31.49,281.36L31.82,287.84L32.15,286.65L32.48,285.25L33.15,290.53L33.48,289.38L33.81,288.25L34.8,279.42L35.13,278.74L36.79,270.36L37.12,270.55L37.46,271.62L38.78,264.81L39.11,261.55L39.44,261.45L39.78,263.85L40.11,263.3L40.44,267.7L40.77,266.51L41.1,260.75L42.1,266.26L42.43,263.53L42.76,263.36L43.09,265.56L44.08,258.23L44.42,263.96L45.08,263.97L45.41,266.29L46.4,261.6L46.74,265.98L47.4,264.48L47.73,266L49.06,258.31L50.05,263.56L51.04,258.65L51.38,261.53L52.7,250.31L53.03,250.58L53.37,248.59L53.7,250.23L54.03,247.3L54.69,250.32L55.02,255.65L56.02,251.85L56.35,251.63L56.68,253.24L57.01,250.09L57.67,249.63L59,259.05L59.33,257.52L59.66,252.44L59.99,249.41L60.33,257.14L60.99,256.3L61.32,256.63L61.65,254.6L61.98,256.87L62.31,258.33L62.65,258.2L62.98,255.14L64.3,257.34L64.63,254.54L64.97,255.7L65.3,255.32L65.63,252.57L65.96,251.54L66.29,255.83L66.62,252.13L66.96,252.23L67.29,254.97L67.62,254.47L67.95,255.92L68.28,254.83L68.61,258.81L69.28,255.06L69.61,256.25L69.94,255.91L70.93,259.43L71.26,255.03L71.93,251.02L72.26,252.08L72.59,253.27L72.92,253.01L73.25,253.67L73.58,256.12L74.58,257.41L74.91,256.69L75.24,257.02L75.57,258.51L75.9,256.61L76.24,258.17L76.57,258.16L76.9,260.66L77.23,259.36L77.56,256.22L78.22,262.83L78.56,259.16L78.89,259.36L79.22,260.49L80.54,251.86L80.88,252.17L81.87,256.82L82.2,258.66L82.53,262.86L82.87,261.65L83.2,259.42L84.19,263.46L84.52,262.72L85.19,266.15L85.52,264.55L85.85,266.6L86.18,262.1L86.51,259.53L86.84,260.96L87.17,262.75L87.84,259.19L88.17,261.79L88.5,265.1L88.83,260.91L89.16,262.55L89.49,263.39L89.83,262.6L90.16,262.34L90.82,267.75L91.15,267.29L91.48,265.68L91.81,268.85L92.15,265.86L92.48,265.88L92.81,264.3L93.47,264.53L93.8,264.66L94.47,265.47L94.8,266.56L95.46,267.05L95.79,267.13L96.12,266.76L96.46,271.4L97.12,267.81L97.45,271.41L98.78,278.23L99.11,272.47L100.1,276.48L100.43,274.56L101.1,278.95L101.43,282.34L101.76,282.87L102.09,282.02L102.42,282.02L104.08,270.09L104.41,269.9L104.74,272.75L105.07,270.41L105.4,270.26L105.74,273.28L106.07,272.31L106.4,270.42L106.73,268.92L107.06,270.89L107.39,272.76L108.06,275.47L108.39,273.72L109.05,261.71L109.38,273.09L110.04,271.86L110.38,272.11L110.71,281.47L111.37,275.59L111.7,279.69L113.69,268.27L114.02,273.99L114.35,273.75L114.69,269.45L115.35,272.32L115.68,269.15L116.01,269.96L116.34,273.93L117.67,269.48L118,260.11L118.33,247.01L118.66,253.98L118.99,275.02L119.99,284.33L120.32,279.34L120.65,266.06L120.98,275.67L121.31,282.06L121.98,286.06L122.31,282.19L122.97,280.52L123.3,282.14L123.63,282.03L123.97,281.07L124.3,284.43L124.63,281.4L124.96,283.07L125.29,281.58L125.62,284.18L126.62,286.68L126.95,281.56L127.28,278.51L127.61,279.48L127.94,283.44L128.28,283.01L128.61,284.97L128.94,285.81L129.27,279.31L129.6,277.89L129.93,280.11L130.26,281.63L130.6,279.46L131.26,282.36L131.59,276.95L132.25,278.94L132.58,286.78L132.92,285.57L133.25,285.8L133.58,286.59L134.24,281.6L134.57,285.73L135.24,288.05L135.57,293.08L136.23,277.36L136.56,279.53L136.89,281.75L137.89,287.85L138.22,285.23L139.21,283.04L139.54,287.8L140.54,290.43L140.87,286.94L141.2,284.4L141.53,285.52L141.87,293.29L142.53,286.92L142.86,289.58L143.19,289.19L143.52,285.9L143.85,288.66L144.19,292.06L145.18,297.68L145.51,291.34L146.17,287.12L146.51,292.13L146.84,292.98L147.17,290.22L147.5,289.11L147.83,290.55L148.16,289.84L148.83,288.47L149.16,292.18L149.82,290.29L150.15,296.29L150.48,294.56L150.81,296.65L151.15,298.05L151.81,295.12L152.14,295.37L152.47,296.4L153.13,291.66L153.47,295.14L154.13,292.46L154.46,293.27L154.79,289.26L155.12,284.05L155.46,285.73L155.79,288.2L156.12,284.28L156.45,286.41L156.78,286.18L157.11,287.4L157.44,282.21L158.77,286.23L159.1,285.71L159.43,290.17L159.76,285.76L160.1,288.97L160.76,287.07L161.09,289.83L161.75,288.54L162.08,286.33L163.74,290.71L164.07,280.76L164.4,277.04L164.74,280.01L165.07,281.14L165.73,288.19L166.06,287.43L166.39,280.3L167.06,279.64L167.39,281.75L167.72,280.86L168.05,282.52L168.38,282.82L168.71,277.62L169.04,276.99L169.38,274.72L169.71,274.44L170.04,274.85L170.37,275.79L171.03,270.25L171.37,279.63L172.36,275.68L172.69,276.58L173.02,275.44L173.35,276.37L173.69,277.01L174.35,275.2L174.68,275.58L175.01,275.71L175.34,273.26L175.67,273.56L176.01,277.02L176.67,274.43L177,275.13L177.33,276.06L177.99,277.59L178.33,276.54L179.32,277.48L179.65,276.51L179.98,275.46L180.31,283.21L180.98,287.57L181.31,285.02L182.63,271.41L182.97,276.03L183.3,275.77L183.63,273.71L183.96,270.94L184.29,272.14L184.62,273.35L184.96,278.18L185.29,277.4L185.62,274.67L187.28,282.22L187.61,281.82L187.94,279.98L188.27,279.89L188.6,282.39L189.26,282.05L189.93,284.46L190.26,283.25L190.92,282.48L191.25,285.06L191.58,282.48L191.92,292.85L192.25,293.96L192.58,289.93L193.24,285.15L193.57,286.19L193.9,286.79L194.57,282.65L194.9,284.81L195.23,284.03L196.22,288.1L196.56,280.38L197.55,283.55L197.88,280.23L198.54,283.39L198.88,282.8L199.21,281.26L200.53,286.29L200.87,285.67L201.2,282.79L201.86,283.91L202.19,281.02L202.52,278.69L202.85,282.9L203.19,282.52L203.52,285.62L204.18,285.77L204.51,287.02L204.84,285.86L205.17,289.74L205.51,288.95L205.84,291.1L206.17,291.55L206.5,290.1L206.83,288.63L207.16,292.81L207.49,294.62L207.83,291.52L208.16,291.49L208.49,288.03L208.82,288.44L209.15,292.15L209.48,291.15L209.81,294.89L210.48,289.32L210.81,293.01L211.14,291.62L211.47,293.7L211.8,290.71L212.13,293.41L212.47,294.81L212.8,285.6L213.13,291.22L213.46,291.08L214.79,294.55L215.12,291.63L215.45,291.2L215.78,288.36L216.44,288.67L216.78,294.32L217.77,287.88L218.1,289.33L218.76,297.32L219.1,296.13L219.43,294.98L220.09,289.03L220.42,291.37L220.75,292.96L221.08,292.07L221.42,292.84L221.75,292.51L223.4,286.41L223.74,289.75L224.07,290.62L224.4,288.81L225.06,289.01L225.39,291.76L225.72,290.96L226.06,292.4L226.72,289.66L227.05,290.26L227.38,289.94L228.38,297.2L228.71,296.58L229.04,294.65L229.37,293.02L229.7,293.86L230.03,298.27L230.37,298.21L230.7,299.12L232.02,285.61L232.35,287.31L232.69,289.06L233.02,292.53L233.35,290.34L233.68,288.33L234.01,282.67L234.34,284.98L234.67,287.22L235.34,291.13L235.67,286.37L236,288.26L236.33,282.26L237.33,287.78L237.66,286.78L237.99,285.9L238.32,280.36L239.31,254.21L239.65,257.83L239.98,286.58L240.64,296.72L240.97,293.7L241.3,294.16L241.63,289.18L241.97,293.1L242.3,296.04L243.62,293.78L243.96,293.17L244.62,293.75L244.95,292.68L245.28,297.05L245.61,294.15L245.94,294.37L246.94,295.4L247.27,295.19L248.26,291.49L248.6,292.66L248.93,293.45L249.26,293.69L249.59,292.42L249.92,289.66L250.58,290.15L250.92,291.05L251.91,294.1L252.24,290.2L252.57,291.95L252.9,290.54L253.24,291.13L253.57,288.97L253.9,294.58L254.23,294.39L254.56,297.78L255.22,295.37L255.56,296.41L255.89,296.78L256.22,296.45L256.55,299.5L257.21,294.51L257.54,295.21L257.88,295.65L258.54,294.41L258.87,295.57L259.2,297.55L259.53,297.41L259.87,295.58L260.53,298.43L260.86,296.53L261.19,296.29L261.52,290.87L261.85,291.55L262.19,290.28L262.52,290.75L262.85,293.04L263.18,294.28L263.51,291.11L263.84,290.74L264.17,293.34L264.51,291.47L265.17,292.01L265.5,293.94L266.83,287.48L267.16,288.5L268.48,285.95L268.81,285.14L269.15,287.99L269.48,287.87L269.81,286.74L270.8,291.74L271.13,291.95L271.8,293.35L272.13,291.13L274.12,282.36L274.45,285.59L275.11,284.29L275.44,280.7L275.78,280.35L276.11,278.82L276.77,282.98L277.1,282.24L277.43,283.64L277.76,285.79L278.1,284.56L278.43,282.63L279.09,278.36L279.42,281.12L280.08,282.83L280.42,280.39L280.75,282.82L281.41,282.37L281.74,282.09L282.07,284.68L282.4,274.62L283.73,277.07L284.06,280.29L285.06,274.47L285.39,276.59L287.71,270.73L288.04,271.49L288.37,271.59L289.03,272.71L289.37,270.84L290.69,273.88L291.02,273.66L291.35,274.48L291.69,274.26L292.02,273.99L292.35,275.25L292.68,274.43L293.01,272.23L293.67,277.71L294.01,274.49L294.34,274.64L294.67,276.51L295.66,280.01L295.99,278.9L296.33,278.08L296.66,279.23L296.99,280.33L297.32,279.4L297.65,280.29L297.98,281.08L298.31,279.99L298.65,274.84L299.31,269.09L299.64,271.18L299.97,270.86L300.63,270.19L300.97,267.14L301.3,267.75L301.63,267.45L301.96,264.9L302.29,264.54L302.62,267.55L302.96,265.24L303.29,267.83L303.62,268.05L303.95,266.73L304.28,267.06L304.61,269.12L305.28,268.13L305.61,261.89L306.6,257.98L306.93,260.11L307.93,267.25L308.26,265.8L308.59,263.8L308.92,264.23L309.25,262.98L309.58,267.05L309.92,264.6L310.25,265.87L310.58,266.98L310.91,266.56L311.24,265.7L311.57,266.39L311.9,269.65L312.24,269.82L312.57,267.08L312.9,268.22L313.23,267.67L313.56,266.55L314.56,268.61L314.89,266.7L315.88,264.64L316.21,268.07L316.88,268.19L317.21,265.88L317.87,268.96L318.2,268.46L318.53,267.03L318.87,267.33L319.2,266.24L319.53,265.88L319.86,264.39L320.19,264.31L320.52,267.04L320.85,267.99L321.19,267.18L321.52,265.62L322.18,263.38L322.51,264.1L324.5,271.97L324.83,269.8L325.16,270.79L325.49,269.67L325.83,273.8L326.16,273.44L326.49,276.59L326.82,275.24L327.15,275.34L327.48,277.3L328.15,278.03L328.48,277.08L328.81,277.34L329.14,275.43L330.13,272.36L330.47,275.02L331.13,275.71L331.46,274.43L332.12,276.15L332.46,274.81L333.12,277.2L333.45,273.05L334.11,273.35L334.44,275.23L334.78,276.2L335.11,276.04L335.44,274.02L337.1,274.62L337.43,273.61L338.42,271.41L338.75,272.48L339.75,276.04L340.08,272.15L340.74,275.71L341.07,275.28L341.4,277.56L342.07,277.31L342.4,276.78L343.72,273.54L344.06,274.47L345.38,272.59L345.71,273.43L346.04,274.33L346.38,273.82L346.71,271.88L347.7,274.98L348.03,273.69L349.03,275.25L349.36,274.97L350.69,281.28L351.02,282.37L352.34,278.87L352.67,280.33L353.01,280.69L353.34,277.85L353.67,278.41L354,276.93L354.66,274.49L354.99,276.03L355.33,279.09L355.99,278.35L356.32,278.19L356.98,274.5L357.31,276.54L357.98,277.98L358.31,276.74L359.3,270.12L359.97,270.6L360.3,254.07L360.63,255.09L360.96,273.07L362.29,279.27L362.62,273.37L363.94,278.77L364.28,277.24L365.27,278.05L365.6,276.17L366.26,274.7L366.6,277.24L366.93,277.87L367.26,277.43L367.59,276.97L368.58,275.12L368.92,273.58L369.25,277.12L369.58,276.69L369.91,273.55L370.9,267.6L371.24,270.27L372.23,275.41L372.56,272.5L373.56,270.46L373.89,272.47L374.22,272.44L374.55,273.5L375.54,266.93L375.88,267.48L376.21,267.75L376.87,269.74L377.2,267.37L378.2,260.72L378.53,265.74L378.86,267.2L379.19,266.91L379.52,266.2L380.52,270.69L380.85,270.14L381.51,270.64L381.84,269.55L382.17,266.06L382.51,267.2L382.84,268.65L383.83,266.84L384.16,266.56L384.49,268.93L384.83,266.14L385.16,265.01L385.49,266.01L385.82,262.21L386.15,264.15L386.48,262.8L386.81,263.28L388.14,265.44L388.47,264.63L388.8,265.34L389.13,273.02L391.12,265.1L391.46,256.81L391.79,257.4L392.12,256.24L393.11,262.11L393.44,262.32L394.11,258.28L394.44,258.41L394.77,260.12L395.1,263.1L395.76,262.91L396.1,260.29L397.42,264.33L397.75,261.58L399.08,266.82L399.41,266.58L399.74,266.34L400.4,265.53L400.74,269.44L401.07,267.77L401.4,268.88L401.73,269.59L402.06,273.55L402.39,264.99L403.39,263.87L403.72,264.32L404.38,262.55L404.71,259.41L405.38,256.38L405.71,254.38L406.04,255.14L406.37,253.62L406.7,254.6L407.03,253.1L407.7,258.35L408.03,255.19L408.36,256.66L408.69,256.4L409.02,255.5L409.35,256.33L409.69,255.43L410.02,260.7L410.35,255L410.68,256.55L411.01,259.36L411.34,258.96L411.67,261.24L412.34,267.79L412.67,266.42L413,266.08L413.99,257.87L414.33,262.46L414.99,262.18L415.32,260.8L416.31,264L416.65,263.7L416.98,263.51L417.31,258.89L417.64,260.25L417.97,259.82L418.3,259.27L419.3,262.6L419.63,262.31L421.95,257.06L422.28,258.64L422.94,257.05L423.28,258.51L423.61,258.38L423.94,256.42L424.6,256.26L424.93,257.05L425.6,254.69L425.93,254.9L426.26,255.81L427.25,259.2L427.58,260.78L428.58,260.41L428.91,257.99L429.24,258.27L429.57,262.1L429.9,263.28L430.24,260.28L430.57,256.62L430.9,263.06L431.89,267.14L432.22,265.85L432.89,264.88L433.22,270.58L433.55,269.89L433.88,271.18L434.54,269.01L434.88,269.92L435.21,270.32L435.54,268.67L435.87,269.86L436.2,270.74L437.2,269.19L437.53,270.84L437.86,270.86L438.19,272.05L438.52,274.2L438.85,272.62L439.19,273.07L439.52,274.51L439.85,272.96L440.18,270.1L440.84,274.28L441.17,273.01L441.51,272.87L442.17,274.17L442.5,268.61L443.16,269.61L443.49,268.67L443.83,269.09L444.16,268.22L444.49,268.95L444.82,267.82L445.48,263.97L445.81,266.98L446.15,267.52L446.48,265.65L446.81,264.84L447.14,266.31L447.47,265.25L447.8,265.57L448.13,266.91L448.8,265.4L449.13,267.28L449.46,265.51L449.79,265.72L450.12,266.07L450.46,265.94L450.79,264.08L451.45,265.76L451.78,271.82L452.11,270L452.44,271.49L452.78,275.66L454.43,268.12L454.76,268.18L455.1,271.7L455.76,270.84L456.09,272.2L457.08,268.68L457.42,267.73L457.75,266.48L458.08,268.69L458.74,270.96L459.07,268.54L459.74,268.75L460.07,270.62L460.73,270.21L461.06,268.23L462.39,263.26L462.72,265.23L464.04,267.1L464.38,268.68L465.04,269.88L465.37,269.51L465.7,267.66L466.03,267.08L466.37,270.85L466.7,270.62L467.03,269.03L467.36,269.03L467.69,270.56L468.35,265.88L468.69,267.18L469.02,265.95L469.68,266.66L470.01,266.44L470.34,266.17L471.67,264.57L472,265.73" style="vector-effect: non-scaling-stroke; fill: none; stroke: rgb(0, 204, 150); stroke-opacity: 1; stroke-width: 2px; opacity: 1;"/></g><g class="points"/><g class="text"/></g><g class="trace scatter tracebd5691" style="stroke-miterlimit: 2; opacity: 1;"><g class="fills"/><g class="errorbars"/><g class="lines"><path class="js-line" d="M0,131.81L0.99,197.96L1.33,197.02L1.99,182.36L2.32,185.02L2.65,194.72L3.31,199.75L3.65,195.23L4.31,183.85L4.64,186.16L4.97,196.88L5.97,192.64L6.3,186.08L6.63,180.76L6.96,181.59L7.29,191.63L7.62,192.42L7.96,200.59L8.95,177.2L9.28,181.02L9.61,189.87L9.94,193.67L10.28,191.88L10.61,188.41L11.27,179.43L11.6,180.96L11.93,191.16L12.26,195.15L12.6,193.91L12.93,192.37L13.59,180.8L13.92,185.36L14.58,201.06L14.92,195.92L15.25,189.52L15.58,188.19L15.91,181.45L16.24,183.87L16.57,195.1L16.9,196L17.24,194.75L17.57,191.88L18.23,178.92L18.56,180.35L18.89,191.33L19.56,194.39L19.89,191.04L20.55,174.86L20.88,177.01L21.21,190.35L21.54,190.89L21.88,189.25L22.21,188.13L22.54,183.09L22.87,176.68L23.2,181.1L23.53,192.96L23.87,193.34L24.2,191.97L24.53,192.63L24.86,184.76L25.19,180.39L25.52,188.34L26.19,202.01L26.52,200.01L26.85,195.21L27.84,183.78L28.17,195.58L28.51,197.91L28.84,192.06L29.5,186.52L29.83,177.68L30.16,177.82L30.49,192.26L30.83,192.34L31.16,191.04L31.49,187.89L31.82,192.31L32.48,181.59L32.81,190.77L33.15,191.5L33.48,187.89L33.81,182.16L34.47,182.94L34.8,185.12L35.47,194.53L35.8,194.14L36.13,190.01L36.79,177.91L37.12,181.71L37.46,190L37.79,190.54L38.12,189.88L38.45,186.32L39.11,172.41L39.44,174.24L39.78,178L40.11,183.55L40.44,183.15L40.77,179.62L41.43,172.5L41.76,174.23L42.1,183.16L43.09,187.47L43.42,183.71L43.75,180.18L44.08,181.09L44.42,186.91L44.75,186.32L45.08,187.53L45.74,182.37L46.07,174.76L46.4,176.84L46.74,185.24L47.4,188.28L47.73,184.63L48.06,185.03L48.39,180.83L49.06,188.24L50.05,186.95L51.04,178.38L51.38,188.47L51.71,188.34L52.04,186.14L53.03,174.4L53.37,175.43L53.7,184.21L54.03,183.09L54.36,186.05L55.35,173.05L55.69,174.38L56.02,184.39L56.35,185.61L56.68,185.17L57.01,184.6L58.01,177.18L58.34,188.53L58.67,189.16L59,187.53L60.33,174.78L60.66,187.33L60.99,179.12L61.32,185.99L61.65,186.01L61.98,188.09L62.31,180.58L62.65,180.93L62.98,189.65L63.31,192.48L63.64,190.48L63.97,187.79L64.3,185.68L64.63,177.22L64.97,174.29L65.3,187.29L65.63,188.81L65.96,187.01L66.29,187.28L66.62,191.05L66.96,182.42L67.29,179.59L67.62,189.19L68.28,187.36L68.61,194.32L69.61,170.5L69.94,183.5L70.6,180.84L70.93,181.7L71.26,183.87L71.93,171.15L72.26,185.14L72.92,189.58L73.25,187.84L73.58,186.51L74.25,174.06L74.58,184.92L75.24,186.24L75.57,185.4L75.9,184.14L76.57,173.15L76.9,183.91L77.23,188.78L77.56,185.52L77.89,187.34L78.22,190.57L78.56,183.99L78.89,179.78L79.22,190.33L80.21,195.42L80.54,188.86L81.21,181.91L81.54,191.87L81.87,196.36L82.2,193.54L82.53,193.06L83.53,179.86L83.86,192.75L84.85,188.84L85.19,184.85L85.52,177.57L85.85,182.53L86.18,190.68L86.51,192.64L86.84,192.19L87.17,189.74L87.84,183.44L88.17,183.6L88.5,196.23L89.16,197.73L89.49,195.64L89.83,197.9L90.16,188.87L90.49,188.72L90.82,204.52L91.48,195.95L91.81,199.33L92.15,196.66L92.81,189.29L93.14,202.93L93.47,205.57L93.8,201.77L94.13,204.91L94.47,198.74L95.13,188.55L95.46,202.4L95.79,202.99L96.12,201.28L96.46,200.86L96.79,201.88L97.45,191.71L97.78,204.67L98.44,205.27L98.78,204.66L99.11,200.03L99.44,190.77L99.77,191.81L100.1,202.84L100.43,198.89L100.76,201.77L101.1,205.28L101.43,204.4L101.76,198.28L102.09,198.53L102.42,205.56L102.75,209.45L103.08,207.6L103.42,208.45L104.08,192.78L104.41,194.2L104.74,201.99L105.4,203.25L105.74,202.75L106.07,197.03L106.73,189.01L107.06,199.27L107.72,200.85L108.06,196.41L109.05,183.08L109.38,195.48L109.71,195.35L110.04,197.43L111.37,182.7L111.7,195.07L112.03,194.75L112.37,192.72L113.69,177.52L114.02,194.42L114.35,194.2L114.69,190.74L115.02,190.35L115.35,185.24L116.01,174.01L116.34,190.13L116.67,190.29L117.01,186.93L117.34,187.42L117.67,180.68L118.33,160.94L118.66,126.89L119.33,192.94L119.66,187.89L119.99,186.22L120.65,164.08L120.98,114.98L121.98,197.11L122.31,194.04L122.64,185.86L122.97,188.7L123.3,197.42L123.63,197.88L123.97,196.67L124.3,195.09L124.63,196.95L124.96,189.13L125.29,186.99L125.62,199.53L125.96,201.9L126.29,199.45L126.62,197.08L127.61,186.5L127.94,198.6L128.28,199.39L128.61,196.71L129.27,200.32L129.6,189.01L129.93,185.36L130.26,196.72L130.6,201.99L130.93,198.56L131.26,198.07L132.25,181.8L132.58,192.13L132.92,197.81L133.25,195.84L133.58,195.05L134.57,182.21L134.9,196.89L135.24,196.32L135.57,200.39L136.56,185.45L136.89,186.5L137.22,196.68L137.56,198.92L137.89,197.36L138.22,194.06L138.88,183.9L139.21,183.92L139.54,195.26L141.2,179.03L141.53,182.27L142.2,195.97L142.53,193.81L142.86,191.28L143.19,188.74L143.52,178.87L143.85,178.47L144.19,191.03L144.52,192.3L144.85,191.75L145.18,190.65L146.17,175.87L146.51,185.36L146.84,188L147.17,186.4L147.5,186.93L148.49,168.43L148.83,177.08L149.16,178.95L149.49,176.2L149.82,169.75L150.15,183.99L150.48,181.5L150.81,185.6L151.81,195.67L152.14,195.84L153.13,183.97L153.47,193.66L153.8,195.12L154.13,192.51L154.46,193.57L154.79,191.28L155.12,179.74L155.46,179.95L155.79,190.51L156.12,192.35L156.45,191.89L156.78,189.49L157.11,189.68L157.44,180.56L157.78,178.46L158.11,189.38L158.77,185.66L159.1,185.8L159.43,190.47L160.1,177.04L160.43,187.26L160.76,186.31L161.09,192.38L161.75,186.18L162.08,173.68L162.42,174.22L162.75,186.05L163.08,186.9L163.41,184.69L163.74,184.88L164.07,175.35L164.4,167.09L164.74,170.14L165.07,182.4L165.4,183.73L165.73,183.1L166.06,180.93L166.72,168.41L167.06,172L167.39,184.46L167.72,184.43L168.05,182.38L168.38,183.74L168.71,175.65L169.04,170.52L169.38,171.49L169.71,180.08L170.04,182.33L170.37,181.32L170.7,178.82L171.03,175.93L171.37,177.13L171.7,176.82L172.03,188.68L172.69,187.32L173.02,186L173.69,169.62L174.02,171.81L174.35,188.6L174.68,189.19L175.01,186L175.34,185.26L175.67,179.37L176.34,171.52L176.67,192.4L177,200.47L177.33,194.57L177.66,192.11L178.66,175.01L178.99,191.45L179.65,189.6L179.98,188.29L180.31,202.33L180.65,193.39L180.98,192.01L181.64,201.1L181.97,193.3L182.3,194.02L182.63,192.48L183.3,183.78L183.63,197.29L183.96,200.18L184.62,200L184.96,195.28L185.62,186.17L185.95,199.95L186.28,200.17L186.61,198.04L186.94,197.49L187.28,192.03L187.94,181.12L188.27,195.5L189.26,193.39L189.6,187.03L190.26,175.73L190.59,192.4L190.92,187.71L191.25,192.07L191.58,189.24L191.92,197.84L192.25,186.85L192.58,183.3L192.91,196.43L193.24,199.45L193.57,195.73L193.9,194.02L194.9,176.37L195.23,190.37L195.56,191.42L195.89,186L197.22,173.56L197.55,185.87L197.88,185.78L198.21,193.85L199.54,167.54L199.87,179.93L200.2,182.05L200.53,181.68L200.87,179.5L201.53,169.99L201.86,166.03L202.85,183.23L203.19,182.4L204.18,169.32L204.51,184.15L205.17,182.72L205.51,180.81L205.84,179.36L206.17,166.68L206.5,169.55L206.83,186.54L207.16,189.29L207.49,187.13L207.83,185.26L208.49,169.86L208.82,171.69L209.15,184.41L210.15,186.2L210.48,177.06L210.81,169.97L211.14,171.41L211.47,185.64L212.47,185.28L212.8,181.09L213.46,171.2L213.79,187.2L214.12,190.67L214.46,187.86L214.79,186.52L215.78,169.71L216.11,186.12L216.78,189.24L217.11,186.61L218.1,164.96L218.43,181.4L218.76,184.12L219.1,180.93L219.43,180.14L220.42,163.16L220.75,178.76L221.08,178.08L221.42,172.39L222.08,174.57L222.41,166.8L222.74,168.76L223.07,180L224.4,187.87L224.73,177.68L225.06,174.19L225.39,190.34L226.06,189.6L226.39,184.01L227.38,164.41L227.71,184.88L228.04,184.22L228.38,186.76L229.7,160.51L230.03,181.25L231.36,173.82L231.69,156.84L232.02,152.63L232.35,173.36L232.69,175.93L233.02,171.77L233.68,161.32L234.01,149.37L234.34,149.33L234.67,164.94L235.01,165.75L235.34,162.95L236,153.86L236.33,142.34L236.66,141.64L236.99,162.45L237.33,163.83L237.66,160.72L238.98,134.69L239.31,142.73L239.65,102.92L239.98,170.81L240.31,178.37L240.64,175.21L240.97,164.63L241.63,158.23L241.97,106.03L242.63,182.87L242.96,179.94L243.29,170.54L243.62,170.58L243.96,184.96L244.62,183.28L244.95,185.63L245.94,169.6L246.28,187.58L247.6,179.29L247.93,171.41L248.26,169.55L248.6,183.77L249.26,186.29L249.59,184.28L250.25,167.11L250.58,167.66L250.92,183.24L251.25,181.34L251.58,183.07L251.91,183.67L252.57,170.87L252.9,171.74L253.24,183.96L254.56,189.1L254.89,181.26L255.22,179.24L255.56,191.87L255.89,192.55L256.22,191.04L256.55,189.49L256.88,181.37L257.54,170.09L257.88,184.42L258.54,185.42L258.87,181.6L259.2,179.46L259.53,170.71L259.87,169.82L260.2,183.23L260.53,183.43L260.86,181.92L261.52,167.82L261.85,158.92L262.19,158L262.52,172.01L263.18,175.89L263.51,174.84L263.84,171.05L264.51,161.93L264.84,177.14L265.17,177.82L265.5,175.68L266.83,158.67L267.16,171.22L267.49,174.6L267.82,172.49L268.15,170.57L268.48,169.85L268.81,162.83L269.15,162.72L269.48,176.61L269.81,176.47L270.14,178.97L271.47,165.21L271.8,181.9L272.79,176.93L273.12,160.68L273.46,154.44L273.79,155.5L274.12,170.01L274.78,170.41L275.11,167.3L275.44,166.99L275.78,155.64L276.11,155.93L276.44,165.37L276.77,165.01L277.1,158.42L278.1,143.02L278.43,147.09L278.76,163.3L279.42,160.49L279.75,157.84L280.75,143.29L281.08,155L281.41,158.3L281.74,153.82L282.07,156.93L282.4,148.55L283.07,137.57L283.4,150.28L283.73,151.82L284.06,150.1L284.39,150.08L285.06,132.83L285.39,133.31L285.72,147.16L286.05,149.1L286.38,148.56L286.71,147.36L287.38,135.3L287.71,135.38L288.04,148.6L289.03,150.96L289.37,146.09L290.03,138.98L290.36,153.5L290.69,154.06L291.02,152.68L291.35,152.97L291.69,149.14L292.35,137.8L292.68,157.83L293.01,157.08L293.34,152.78L293.67,152.18L294.01,146.21L294.34,136.19L294.67,137.93L295,153.97L295.33,154.72L295.66,153.29L296.33,146.41L296.66,139.65L296.99,137.26L297.32,153.76L297.65,156.36L297.98,154.6L298.31,148.98L299.31,133.8L299.64,147.61L299.97,148.26L300.3,146.09L300.63,143.7L300.97,134.8L301.63,126.9L301.96,138.18L302.62,141.15L302.96,133.24L303.29,133.93L303.62,129.57L303.95,132.67L304.28,147.47L304.94,146.4L305.28,145.13L305.94,124.9L306.27,126.72L306.6,139.97L306.93,140.76L307.26,138.94L308.26,121.86L308.59,122.86L308.92,139.66L309.25,141.18L309.58,140.96L309.92,137.99L310.91,120.9L311.24,134.65L311.57,132.66L311.9,135.52L312.57,131.3L312.9,126.89L313.23,123.81L313.56,135.14L314.22,136.63L314.56,136.18L314.89,132.31L315.22,121.78L315.55,122.46L315.88,132.96L316.21,133.75L316.54,131.86L316.88,130.59L317.21,133.66L317.87,122.88L318.2,134.65L318.53,132.8L318.87,137.38L319.2,138.21L319.53,131.9L320.19,122.18L320.52,137.1L320.85,137.43L321.19,135L321.52,133.38L321.85,136.43L322.18,132.58L322.51,134.06L322.84,142.97L323.17,142.61L323.51,138.79L324.5,126.13L324.83,127.79L325.16,141.27L325.83,138.82L326.16,138.37L326.82,125.39L327.15,125.57L327.48,135.22L327.81,138.05L328.15,137.54L328.48,137.2L329.14,123.51L329.47,125.9L329.8,134.72L330.13,134.23L330.47,136.02L331.46,123.11L331.79,135.27L332.12,139.34L332.46,139.11L332.79,136.43L333.78,126.03L334.11,126.39L334.44,137.26L334.78,136.19L335.11,137.71L335.77,126.13L336.1,120.15L336.43,120.61L336.76,133.77L337.1,134.71L337.43,133.19L337.76,135.81L338.09,128.39L338.42,117.43L338.75,120.43L339.08,128.97L340.41,135.97L340.74,122.43L341.07,120.31L341.4,135.1L341.74,135.88L342.07,134.51L343.39,117.23L343.72,125.09L344.39,132.63L344.72,132.14L345.05,123.46L345.71,114.24L346.04,128.79L347.04,131.23L347.37,128.46L347.7,118.7L348.03,118.92L348.37,132.65L348.7,135.32L349.03,133.69L349.36,132.71L349.69,129.94L350.02,119.98L350.35,119.34L350.69,136.21L351.02,134.6L351.35,137.17L352.01,128.59L352.34,119.75L352.67,118.34L353.01,132.46L353.34,132.24L353.67,133.15L354.33,134.86L354.66,120.65L354.99,120.87L355.33,136.93L356.32,132.96L356.65,133.35L356.98,121.56L357.31,119.42L357.65,131.62L357.98,130.83L358.31,131.99L359.63,114.33L359.97,119.96L360.63,76.65L360.96,124L361.29,140.6L361.62,133.64L361.96,132.73L362.29,137.11L362.62,128.68L362.95,83.67L363.28,139.86L363.61,142.71L364.28,136.92L364.61,145.18L364.94,147.75L365.27,146.27L365.6,145.23L366.6,135.31L366.93,145.22L367.26,145.15L367.59,143.31L367.92,142.22L368.25,143.53L368.58,136.37L368.92,135.73L369.25,147.32L370.24,146.35L370.57,137.38L370.9,130.22L371.24,131.02L371.57,150.53L372.23,147.92L372.56,146.45L373.56,135.51L373.89,142.91L374.88,146.48L375.21,142.49L375.54,136.71L375.88,139.59L376.21,149.61L376.54,149.63L376.87,147.54L377.2,147.66L377.53,143.6L378.2,137.72L378.53,146.38L379.85,150.64L380.19,143.74L380.52,143.64L380.85,149.96L381.18,148.51L381.51,149.32L381.84,144.44L382.17,149.02L382.51,138.52L382.84,137.18L383.17,146.13L383.5,146.2L383.83,143.87L384.49,134.47L384.83,129.02L385.82,140.16L386.15,139.71L386.48,139.79L387.15,129.04L387.48,131.16L387.81,142.76L388.8,143.7L389.13,158.64L389.47,155.74L389.8,156.96L390.13,163.37L391.79,134.24L392.12,133.89L392.78,142.51L393.11,142L393.44,141.06L394.44,131.69L394.77,138.47L395.1,138.96L395.43,137.45L395.76,136.12L396.1,139.78L396.76,133.03L397.09,139.33L398.75,124.11L399.08,126.02L399.41,133.01L399.74,132.57L400.07,133.81L400.74,140.89L401.07,138.35L401.4,137.55L401.73,144.56L402.39,143.45L402.72,140.81L403.06,143.1L403.39,134.76L403.72,133.94L404.05,139.57L404.71,139.16L405.04,138.15L405.38,137.95L405.71,128.95L406.04,127L406.37,134.21L407.37,136.46L407.7,145.18L408.36,134.02L408.69,141.83L409.69,133.75L410.02,140.69L410.68,126.98L411.01,134.85L411.34,134.66L411.67,137.23L412.01,136.8L412.34,151.08L413,134.91L413.33,138.1L413.66,136.56L415.32,122.5L415.65,131.08L416.31,131.6L416.65,129.59L417.64,122.79L417.97,131.7L418.3,130.74L418.63,130.88L418.97,131.72L419.96,121.46L420.29,133.08L420.62,133.6L420.96,133.36L421.29,131.28L421.62,129.77L421.95,120.47L422.94,134.97L423.28,132.46L423.61,131.82L423.94,129.44L424.27,120.23L424.6,123.24L424.93,135.12L425.26,133.41L425.93,133.86L426.26,136.03L426.59,123.99L426.92,125.33L427.25,137.66L427.58,137.56L427.92,135.8L428.25,135.3L428.58,131.7L428.91,122.43L429.24,125.72L429.57,136.61L429.9,136.38L430.24,137.39L430.57,135.79L430.9,145.36L431.56,130.18L431.89,141.18L433.22,136.01L433.55,130.02L433.88,130.77L434.21,143.95L434.54,144.56L434.88,141.99L435.54,137.14L435.87,129.05L436.2,129.03L436.53,142.5L437.86,136.62L438.19,128.17L438.52,128.23L438.85,141.76L439.19,141.73L439.52,140.61L439.85,139.84L440.18,127.36L440.51,121.68L440.84,125.81L441.17,133.7L441.84,136.21L442.17,134.91L442.5,128.54L443.16,121.07L443.49,133.04L444.16,135.43L444.49,132.7L445.48,121.1L445.81,131.78L446.15,132.97L446.48,131.49L446.81,130.28L447.47,113.36L447.8,116.88L448.13,127.94L448.47,127.41L448.8,129.92L449.13,130.57L449.46,125.14L449.79,116.33L450.12,117.84L450.46,137.36L451.45,127.23L451.78,126.78L452.11,115.6L452.44,118.45L452.78,131.32L453.11,134.55L453.44,134.19L453.77,130.91L454.1,133.17L454.43,125.45L454.76,123.97L455.1,135.51L455.43,135.95L455.76,133.94L456.09,135L456.42,132.09L457.08,119.03L457.42,133.07L458.08,135.5L458.41,134.1L459.07,121.2L459.4,122.23L459.74,138.18L460.07,136.13L460.4,140.84L461.72,119.02L462.06,136.58L462.39,138.63L462.72,137.07L463.05,135.52L463.38,144.42L463.71,118.91L464.04,116.5L464.38,138.88L465.37,143.37L465.7,139.01L466.37,124.51L466.7,137.23L467.03,139.39L467.36,139.23L467.69,136.35L468.02,134.23L468.35,123.97L468.69,117.52L469.02,135.19L469.35,139.48L469.68,135.91L470.01,133.74L471.01,118.25L471.34,132.96L471.67,134.85L472,131.79" style="vector-effect: non-scaling-stroke; fill: none; stroke: rgb(171, 99, 250); stroke-opacity: 1; stroke-width: 2px; opacity: 1;"/></g><g class="points"/><g class="text"/></g><g class="trace scatter trace6a5aa3" style="stroke-miterlimit: 2; opacity: 1;"><g class="fills"/><g class="errorbars"/><g class="lines"><path class="js-line" d="M0,40.7L0.99,112.98L1.33,110.84L1.99,94.35L2.32,97.39L2.65,108.78L2.98,112.04L3.31,111.81L3.65,109.22L4.31,96.21L4.64,98.22L4.97,111.13L5.97,108.63L6.3,101.71L6.63,88.14L6.96,92.15L7.29,107.24L8.29,111.78L8.62,107.25L8.95,96.66L9.28,99.02L9.61,118.66L10.61,115.66L10.94,107.93L11.27,98.8L11.6,101.17L11.93,117.1L12.26,117.42L12.6,116.87L12.93,115.79L13.59,98.94L13.92,101.87L14.25,122.59L14.58,125.72L14.92,120.55L15.25,119.77L15.58,113.52L15.91,100.23L16.24,102.14L16.57,119.92L16.9,120.71L17.24,126.42L18.23,95.03L18.56,96.35L18.89,106.76L19.22,108.17L19.56,115.24L20.22,114.18L20.55,100.28L20.88,101.88L21.21,121.36L21.54,120.69L21.88,122.04L22.21,121.7L22.54,118.02L22.87,105.28L23.2,108.15L23.53,127.36L23.87,126.9L24.2,127.18L24.53,123.27L25.19,106.24L25.52,107L25.85,126.91L26.52,126.49L26.85,125.57L27.51,108.24L27.84,110.3L28.17,127.53L29.5,117.13L29.83,107.01L30.16,108.53L30.49,129.27L32.15,115.48L32.48,117.8L33.15,132.9L33.48,128.11L34.47,113.8L34.8,116.22L35.13,130.5L35.47,131.22L35.8,130.58L36.13,128.74L36.79,113.51L37.12,114.59L37.46,130.5L37.79,131L38.12,130.43L38.45,125.55L39.44,106.6L39.78,111.13L40.11,123.57L40.44,122.24L40.77,116.53L41.43,100.42L41.76,101.63L42.1,120.56L42.43,122.03L42.76,121.8L43.09,119.34L43.75,109.89L44.08,106.61L44.75,125.02L45.08,123.32L45.41,129.84L46.07,107.65L46.4,108.96L46.74,127.11L47.07,126.37L47.4,123.24L48.39,111.47L48.72,114.21L49.06,130.07L51.04,111.58L51.38,128.53L51.71,127.95L52.04,128.86L52.37,125.56L53.03,112.33L53.37,112.52L53.7,130.17L54.36,127.39L54.69,121.06L55.69,106.67L56.02,118.67L57.01,120.89L57.34,118.83L57.67,108.14L58.01,109.11L58.34,121.69L58.67,125.73L59,122.66L59.33,123.05L59.99,108.86L60.33,109.92L60.66,125.39L60.99,126.37L61.32,125.47L61.65,123.9L62.31,110.6L62.65,111.6L62.98,125.56L64.3,120.78L64.63,112.92L64.97,109.44L65.3,124.04L65.96,124.03L66.29,126.14L66.62,126.8L66.96,117.74L67.29,114.66L67.62,129.52L68.61,126.55L68.94,118.99L69.28,112.17L69.61,112.94L69.94,125.95L70.27,125.52L70.6,122.24L71.26,120.17L71.6,113.61L71.93,109.64L72.26,120.89L72.59,126.29L72.92,123.13L73.25,121.94L73.58,122.56L73.92,114.99L74.25,110.19L74.58,125.58L74.91,124.62L75.24,126.22L75.57,125.89L75.9,120.93L76.57,112.75L76.9,124.01L77.56,128.94L77.89,126.7L78.22,123.32L78.89,114.89L79.22,129.86L79.88,131.91L80.21,129.54L80.54,128.16L80.88,119.78L81.21,120.13L81.54,135.99L81.87,137.31L82.2,134.72L83.2,120.91L83.53,121.41L83.86,133.67L85.19,120.6L85.52,110.28L85.85,103.37L86.18,115.76L86.84,130.31L87.17,129L87.51,123.95L87.84,116.13L88.17,117.65L88.5,129.96L89.16,132.79L89.49,129.91L89.83,130.91L90.16,126.02L90.49,124.23L90.82,137.87L91.15,139.76L91.48,136.6L92.81,126.17L93.14,139.12L93.47,140.02L93.8,138.98L94.13,138.69L95.13,122.7L95.46,132.89L95.79,140.68L96.12,137.84L96.46,135.86L97.12,126.6L97.45,128.19L97.78,137.6L98.44,138.04L98.78,137.19L99.77,127.13L100.1,137.51L100.43,137.65L100.76,135.48L102.09,123.81L102.42,137.39L102.75,138.96L103.08,137.11L103.42,133.79L104.08,121L104.41,121.5L104.74,131.59L105.07,134.53L105.4,131L105.74,134.27L106.07,129.37L106.4,124.36L106.73,124.64L107.06,133.73L107.39,138.12L107.72,135.36L108.06,131.41L108.72,121.17L109.05,122.87L109.38,133.49L109.71,134.88L110.04,132.31L110.38,131.48L110.71,128.21L111.37,123.07L111.7,137.26L113.69,120.14L114.02,136.39L114.35,135.64L114.69,132.93L115.68,119.7L116.01,121.74L116.34,133.63L116.67,135.92L117.01,133.22L117.34,130.24L118.33,105.43L118.66,71.25L119.33,128.2L119.66,122.45L119.99,116.3L120.65,98.01L120.98,54.18L121.31,127.87L121.98,127.57L122.31,122.88L122.97,109.41L123.3,124.64L124.63,129.69L124.96,120.61L125.29,121.14L125.62,136.13L125.96,136.78L126.29,133.34L126.95,127.75L127.28,120.85L127.61,120.71L127.94,134.01L128.28,136.9L128.61,135.96L128.94,132.73L129.27,132.38L129.6,121.71L129.93,120.6L130.26,133.75L130.93,136.78L131.26,135.3L131.59,132.46L132.25,121.44L132.58,137.09L133.58,133.82L133.91,130.78L134.57,117.41L134.9,126.89L135.57,140.81L135.9,138.95L136.23,133.84L136.89,125.55L137.22,145.55L139.21,129.4L139.54,143.48L140.21,145.43L140.54,143.93L141.53,127.96L141.87,147.05L142.2,147.44L142.53,144.29L143.19,137.01L143.52,129.27L143.85,131.16L144.19,140.58L144.52,143.08L144.85,141.16L145.18,137.68L146.17,124.84L146.51,140.3L147.17,144.02L147.5,142.53L147.83,136.44L148.49,126.87L148.83,142.26L149.16,142.89L149.49,139L149.82,132.55L150.15,135.75L150.48,137.29L150.81,136.27L151.15,151.69L151.48,154.21L151.81,152.4L152.14,147.99L153.13,131.74L153.47,143.78L155.12,131.77L155.46,135.61L156.12,144.67L156.45,143.12L156.78,140.02L157.44,137.96L157.78,133.41L158.11,145.95L158.44,144.07L158.77,141.67L159.1,142.25L159.43,133.78L160.1,125.86L160.43,135.03L160.76,129.7L161.09,140.26L161.42,140.03L161.75,135.74L162.42,125.55L162.75,139.36L164.07,126.05L164.4,117.61L164.74,116.92L165.07,129.58L165.4,129.65L165.73,132.82L166.72,123.26L167.06,124.19L167.39,134.48L167.72,134.88L168.05,134.18L168.38,132.17L169.04,123.33L169.38,125.32L169.71,134.15L171.37,121.77L171.7,122.32L172.03,132.77L172.36,131.58L172.69,133.42L173.02,132.42L173.35,124.04L173.69,117.49L174.02,121.65L174.35,131.58L175.01,134.45L175.34,133.49L175.67,132.43L176.34,126.51L176.67,138.19L177,148.01L177.33,142.16L177.66,143.61L178.33,128.8L178.66,129.9L178.99,142.77L179.98,136.96L180.31,142.54L180.98,130.17L181.31,141.82L181.64,143.67L181.97,140.81L182.3,138.69L182.63,130.01L183.3,126.46L183.63,142.87L183.96,141.19L184.29,143.81L184.96,135.73L185.29,127.79L185.62,125.55L185.95,140.83L186.61,140.67L186.94,136.34L187.61,123.33L187.94,126.14L188.27,140.13L189.26,136.36L189.6,128.52L190.26,121.54L190.59,138.41L191.25,135.32L191.58,131.9L192.25,120.01L192.58,121.06L192.91,136.86L193.24,136.55L193.57,138.58L194.57,119.41L194.9,119.61L195.23,133.82L195.56,134.12L195.89,130.19L196.22,129.63L196.56,127.26L196.89,118.41L197.22,120.72L197.55,133.02L197.88,133.74L198.21,132.84L198.54,130.34L198.88,126.54L199.21,113.05L199.54,114.36L199.87,129.6L200.2,129.34L200.53,127.67L200.87,127.45L201.2,124.21L201.86,115.14L202.19,128.61L203.19,125.22L203.52,119.11L203.85,114.36L204.18,116.02L204.51,128.92L206.5,110.17L206.83,120.81L207.16,117.46L207.49,121.95L207.83,127.71L208.16,121.05L208.49,112.71L208.82,112.9L209.15,127.65L209.81,128.51L210.15,127.48L211.14,112.4L211.47,125.7L211.8,126.56L212.13,125.65L212.47,124.9L213.46,110.85L213.79,125.28L214.12,124.99L214.46,123.56L215.12,116.28L215.45,110.48L215.78,108.74L216.11,118.78L216.44,123.27L216.78,122.95L217.11,121.58L218.1,106.93L218.43,119.69L219.1,121.27L219.43,119.21L220.42,102.16L220.75,117.24L221.42,116.18L221.75,110.54L222.08,102.83L222.74,104.83L223.07,118.57L223.74,120.82L224.07,117.87L224.4,121L224.73,115.22L225.06,115.59L225.39,127.55L226.06,122.29L226.39,116.47L226.72,116.53L227.05,113.01L227.38,111.96L227.71,122.58L228.04,122.46L228.38,123.3L229.37,114.32L229.7,112.11L230.03,127.06L230.7,124.3L231.03,122.39L232.02,108.62L232.35,122.86L233.68,113.19L234.01,98.97L235.01,116.1L235.34,112.18L235.67,112.32L236,110.05L236.66,94.59L236.99,114.32L237.33,113.85L237.66,109.74L237.99,108.3L238.32,101.37L238.98,86.19L239.31,101.94L239.65,66.22L239.98,121.53L240.97,103.43L241.3,96.52L241.63,93.51L241.97,45.49L242.63,115.04L242.96,111.19L243.29,102.22L243.62,97.01L243.96,118.55L244.29,118.91L244.62,116.63L244.95,116.23L245.28,111.29L245.94,97.76L246.28,116.47L246.61,116.13L246.94,113L247.27,114.17L247.6,111.75L248.26,99.86L248.6,118.26L248.93,113.77L249.26,117.17L249.59,115.62L250.58,98.8L250.92,117.71L251.25,120.48L251.58,120L251.91,119.22L252.9,103.02L253.24,123.61L253.57,118.42L254.23,118.87L254.56,125.14L255.22,112.71L255.56,130.72L256.22,129.1L256.55,126.71L257.54,113.1L257.88,126.26L258.87,124.06L259.2,119.52L259.53,110.92L259.87,114.51L260.2,127.47L260.53,128.34L260.86,125.61L262.19,102.48L262.52,110.56L263.51,122.18L263.84,116.41L264.17,110.06L264.51,111.99L264.84,123.85L266.16,112.31L266.49,106.45L266.83,109.8L267.16,120.81L268.48,114.33L268.81,104.04L269.15,105.39L269.48,120.59L269.81,122.14L270.14,119.21L270.47,118.12L270.8,123.53L271.13,114.22L271.47,114.43L271.8,130.47L272.79,124.15L273.12,114.97L273.46,108.38L273.79,110.32L274.12,125.82L275.11,119.97L275.44,123.7L276.11,112.57L276.44,129.35L278.1,109.44L278.43,110.23L278.76,125.22L279.09,123.08L279.42,119.29L280.08,112.51L280.42,101.55L281.08,117.37L281.41,110.77L281.74,103.87L282.07,114.01L282.74,96.73L283.07,101.07L283.4,111.49L284.06,107.89L284.39,103.92L285.06,94.96L285.39,96.48L285.72,106.56L287.38,94.14L287.71,97.97L288.37,110.1L288.7,109.91L289.03,109.55L289.7,101.94L290.03,103L290.36,113.44L291.35,113.43L291.69,110.41L292.02,102.25L292.35,102.84L292.68,116.08L293.01,118.91L293.34,116.04L293.67,112.07L294.34,104.68L294.67,104.89L295,117.48L296.66,104.86L296.99,105.07L297.32,115.08L297.65,116.76L297.98,115.74L298.31,108.89L298.98,99.33L299.31,101.26L299.64,111.18L299.97,113.74L300.3,112.73L300.63,110.26L301.63,95.79L301.96,104.99L303.29,102.67L303.62,97.04L303.95,95.36L304.28,106.04L304.61,107L304.94,105.77L305.28,101.77L305.94,85.32L306.27,89.64L306.6,100.65L306.93,100.72L307.26,97.8L307.6,96.81L307.93,90.19L308.26,84.54L308.59,85.76L308.92,96.9L309.25,100.15L309.58,98.95L309.92,99.17L310.58,83.67L310.91,85.01L311.24,92.57L311.57,91.54L311.9,92.66L312.24,92.04L312.9,81.46L313.23,81.97L313.56,93.46L314.89,86.79L315.22,87.25L315.55,87.21L315.88,92.05L316.21,92.28L316.54,95.39L317.54,79.07L317.87,79.78L318.2,92.53L318.53,94.75L318.87,90.71L319.2,90.51L319.53,85.27L320.19,72.64L320.52,90.8L322.18,75.38L322.51,77.34L322.84,90.3L323.51,88.24L323.84,90.23L324.5,75.13L324.83,77.44L325.16,89.96L327.15,72.41L327.48,86.63L327.81,85.01L328.15,74.8L328.48,77.64L328.81,76.35L329.14,70.21L329.47,71.75L329.8,85.89L330.47,83.37L330.8,80.73L331.46,68.5L331.79,71.13L332.12,84.22L332.46,84.38L332.79,82.4L333.12,81.3L333.45,74.08L333.78,68.83L334.11,70.07L334.44,82.97L336.1,67.15L336.43,68.48L336.76,78.77L337.1,80.64L337.43,78.77L337.76,75.6L338.42,63.95L338.75,64.49L339.08,76.29L340.74,64.03L341.07,65.33L341.4,73.95L341.74,73.54L342.07,71.91L343.06,62.1L343.39,64.56L344.06,73.56L344.39,72.88L344.72,71.18L345.71,65.28L346.04,74.08L346.38,74.75L346.71,73.2L347.04,74.36L347.37,71.04L347.7,70.55L348.03,71.62L348.7,79.59L349.03,76.62L349.36,78.75L349.69,73.95L350.02,69.44L350.35,69.6L350.69,80L351.68,76.77L352.01,74.47L352.67,66.99L353.01,81.89L354.33,77.67L354.66,68.24L354.99,62.72L355.33,83.06L355.66,82.44L355.99,80.16L356.32,80.02L356.65,83.84L357.31,71.97L357.65,83.39L359.63,66.76L359.97,77.69L360.63,33.61L360.96,75.41L361.29,76.93L361.62,69.71L361.96,66.33L362.29,73.33L362.62,62.32L362.95,16L363.61,78.88L363.94,75.22L364.28,71.72L364.94,83.84L365.27,82.49L365.6,80.98L366.6,72.31L366.93,81.23L367.26,81.27L367.59,79.15L368.58,72.23L368.92,68.58L369.25,80.6L369.91,79.72L370.24,80.55L371.24,67.06L371.57,83.2L371.9,85.36L372.23,84.11L372.56,83.53L373.56,71.8L373.89,80.95L375.21,78.84L375.54,73.1L375.88,75.52L376.21,89.46L377.87,78.21L378.2,78.83L378.53,88.44L379.52,90.26L379.85,99.03L380.52,82.44L380.85,84.42L381.18,84.37L381.84,92.52L382.17,88.47L382.84,82.07L383.17,91.09L383.83,89.45L384.16,85.59L385.16,74.74L385.49,85.21L385.82,86.67L386.15,83.38L386.48,83.5L386.81,77.64L387.15,73.49L387.48,74.11L387.81,84.79L388.14,85.52L388.47,88.22L388.8,88.29L389.13,99.26L389.8,91.07L390.13,93.86L390.46,92.76L390.79,92.61L391.12,90.77L392.12,78.06L392.45,87.44L393.11,88.03L393.44,89.47L394.11,79.98L394.44,82.08L394.77,90.73L395.43,89.65L395.76,85.79L396.1,88.65L396.43,84.68L396.76,82.53L397.09,89.91L397.42,89.9L397.75,88.8L399.08,77.47L399.41,85.44L400.07,87.08L400.4,88.75L400.74,94.22L401.07,85.4L401.4,86.04L401.73,97.21L403.72,84.49L404.05,95.78L404.38,93.51L405.04,93.66L405.38,92.45L406.04,85.32L406.37,96.8L407.03,96.76L407.37,95.7L407.7,95.17L408.03,89.34L408.36,90.11L408.69,100.3L409.69,97.43L410.02,109.87L410.68,90.3L411.01,99.54L411.34,98.11L412.01,98.37L412.34,117.3L413,92.36L413.33,103.33L413.66,101.57L414.66,95.97L414.99,86.79L415.32,85.57L415.65,97.29L415.98,98.03L416.31,96.27L417.64,85.02L417.97,95.52L418.3,93.83L418.63,94.63L418.97,94.98L419.96,76.25L420.29,92.09L420.62,96.93L420.96,94.98L421.29,93.42L422.28,82.84L422.61,93.47L422.94,97.91L423.28,96.31L423.61,95.26L424.6,81.19L424.93,93.26L425.26,96.08L425.6,93.58L425.93,92.06L426.92,74.81L427.25,90.3L427.58,92.37L427.92,89.02L428.58,84.75L428.91,75.4L429.24,71.03L429.57,82.56L429.9,82.65L430.24,83.72L430.57,86.18L430.9,94.92L431.56,77.76L431.89,91.45L433.22,84.68L433.55,75.63L433.88,72.17L434.21,87.5L434.88,87.87L435.21,85.28L435.54,82.18L436.2,70.51L436.53,86.26L436.87,88.12L437.2,87.27L437.53,86.68L438.52,70.07L438.85,85.57L439.52,88.73L439.85,88.6L440.18,79.31L440.84,66.14L441.17,78.95L441.51,74.75L441.84,82.83L442.5,77.65L442.83,66.8L443.16,65.17L443.49,85.03L443.83,88.01L444.16,86.46L444.49,83.63L445.48,65.13L445.81,80.59L446.15,83.88L446.48,83.76L446.81,80.38L447.8,60.05L448.13,83.39L449.13,77.87L449.46,65.52L449.79,57.82L450.12,57.99L450.46,82.1L451.45,73.62L451.78,68.85L452.44,56.54L452.78,76.82L453.44,72.7L453.77,73.56L454.1,78.97L454.76,65.9L455.1,84.12L456.42,69.72L456.75,59.58L457.08,54.45L457.42,70.55L458.41,81.92L458.74,74.73L459.07,62.52L459.4,63.44L459.74,83.92L460.07,86.14L460.4,83.59L460.73,83.14L461.72,61.03L462.06,89.87L462.72,85.13L463.05,86.9L463.38,94.04L464.04,62.68L464.38,78.97L465.37,89.74L465.7,83.22L466.37,69.51L466.7,94.88L467.03,94.06L467.36,88.63L468.02,84.46L468.35,74.34L468.69,71.7L469.02,88.69L469.68,90.61L470.01,89.43L470.34,89.73L470.67,74.52L471.01,71.83L471.34,92.12L472,94.11" style="vector-effect: non-scaling-stroke; fill: none; stroke: rgb(255, 161, 90); stroke-opacity: 1; stroke-width: 2px; opacity: 1;"/></g><g class="points"/><g class="text"/></g><g class="trace scatter trace47f345" style="stroke-miterlimit: 2; opacity: 1;"><g class="fills"/><g class="errorbars"/><g class="lines"><path class="js-line" d="M0,247.81L0.66,252.41L0.99,251.75L1.33,246.15L1.99,242.74L2.32,257.88L3.65,245.89L3.98,249.41L4.31,245.98L4.64,254.33L5.3,259.17L5.63,253.53L6.63,245.01L6.96,255.29L7.29,255.19L7.62,258.28L8.62,247.11L8.95,242.25L9.61,252.22L9.94,250.9L10.28,251.36L11.27,241.68L11.6,246.63L12.26,254.93L12.6,250.55L13.59,243L13.92,256.98L14.58,271.96L14.92,263.55L15.91,251.07L16.24,262.05L16.57,264.31L16.9,260.77L17.57,263.73L17.9,251.17L18.23,252.93L18.56,259.87L18.89,265.66L19.56,264.97L19.89,256.49L20.22,255.9L20.55,249.51L21.21,261.44L21.54,258.45L21.88,260.3L22.21,259.8L22.54,253.96L22.87,252.84L23.2,256.44L23.87,255.84L24.2,260.92L24.86,257.57L25.19,260.05L25.52,271.94L26.19,269.19L26.52,269.79L26.85,269.48L27.18,262.75L27.51,262.92L27.84,272.31L28.51,262.98L28.84,264.06L29.17,268.9L29.83,260.58L30.16,264.1L30.83,265.99L31.16,263.66L31.49,265.34L31.82,263.82L32.15,264.25L32.48,267.93L32.81,260.73L33.15,262.62L33.48,261.61L33.81,253.73L34.8,259.81L35.13,261.88L36.13,256.5L36.46,258.89L36.79,250.71L37.12,256.94L37.46,254.75L37.79,249.13L38.12,255.65L38.45,250.81L38.78,253.64L39.11,249.94L39.78,252.27L40.11,258.41L40.44,258.21L40.77,249.43L41.1,248.33L41.43,240.04L42.76,251.74L43.09,254.54L43.75,242.95L44.08,249.75L44.42,253.44L44.75,251.92L45.08,250.84L45.41,252.22L45.74,249.38L46.07,243.07L46.4,252.1L46.74,255.48L47.07,254.84L47.4,253.44L48.39,240.97L48.72,253.55L49.06,252.09L50.05,256.78L50.71,237.14L51.04,250.28L51.71,254.18L52.04,253.83L52.37,252.31L53.03,234.76L53.37,245.15L53.7,252.35L54.36,252.11L54.69,255.71L55.35,245.1L55.69,254.25L56.02,258.37L56.35,258.09L56.68,256.11L57.34,248.32L57.67,249.52L58.01,257.6L58.67,259.22L59,253.41L59.99,237.82L60.33,243.86L61.32,250.9L61.65,242.08L61.98,241.25L62.31,238.09L62.98,250.49L63.31,247.34L63.64,247.17L64.63,230.68L64.97,245.99L65.63,249.49L65.96,247.35L66.29,246.89L66.62,251.16L66.96,246.27L67.29,250.22L67.62,255.01L67.95,255.51L68.28,251.12L68.61,250.41L68.94,242.68L69.28,233.44L69.61,247.69L70.6,257.4L70.93,248.13L71.26,244.11L71.6,229.67L72.59,261.44L72.92,260.94L73.58,249.75L73.92,232.1L74.91,264.26L75.24,263.58L75.9,247.02L76.24,232.85L76.9,256.82L77.23,253.6L77.56,255.41L78.56,238.61L78.89,256.68L80.21,249.55L80.54,242.68L80.88,239.95L81.21,248.06L81.54,251.48L81.87,248.4L82.2,250.01L82.53,255.93L82.87,245.91L83.2,236.45L83.53,249.87L83.86,253.05L84.19,250.36L84.52,250.21L84.85,248.64L85.19,250.8L85.52,239.77L85.85,250.7L86.18,251.09L86.51,250.74L86.84,253.05L87.17,254.11L87.51,242.8L87.84,240.16L88.17,247.67L88.5,255.37L89.16,254.55L89.49,255.96L90.16,239.4L90.49,244.72L90.82,251.02L91.81,242.13L92.15,241.85L92.48,237.76L92.81,253.37L93.14,254.34L93.47,251.9L93.8,248.84L94.13,253.52L94.8,238.08L95.13,250.08L95.79,257.21L96.12,253.25L96.46,253.32L96.79,242.23L97.12,235.81L97.45,247.03L97.78,259.61L98.11,251.44L98.44,254.27L98.78,254.63L99.11,240.09L99.44,236.24L99.77,248.11L100.76,258.14L101.1,256.64L101.43,265.87L102.09,264.73L102.42,265.98L102.75,267.8L103.08,266.73L103.42,265.71L104.08,245.28L104.41,256.58L104.74,261.53L106.4,243.12L106.73,252.83L107.72,259.15L108.06,253.22L108.72,239.98L109.05,245.38L109.38,252.65L109.71,253.5L110.04,251.88L110.38,250.74L110.71,239.42L111.04,233.36L111.37,244.58L111.7,259.95L112.37,258.66L112.7,256.08L113.36,226.54L113.69,240.66L114.02,247.12L115.02,243.12L115.35,230.09L115.68,227.31L116.01,233.09L116.34,238.37L116.67,236.84L117.01,235.66L118.66,197L118.99,254.19L120.32,235.6L120.65,174.82L121.31,252.26L121.65,251.25L121.98,257.29L122.64,247.15L122.97,253.44L123.63,264.97L123.97,258.93L124.3,262.17L124.63,260.94L124.96,246.57L125.96,270.46L126.29,267.66L126.62,266.98L127.28,248.1L127.61,261.7L127.94,272.72L128.28,265L128.61,262.08L128.94,262.17L129.27,236.6L130.6,273.3L130.93,271.45L131.26,271.35L131.92,259.51L132.25,262.4L132.58,264.06L132.92,261.88L133.25,263.93L133.58,265.97L134.24,254.94L134.57,274.18L134.9,268.81L135.24,274.64L135.57,281.92L136.56,254.16L136.89,271.63L137.22,267.34L137.56,269.04L137.89,273.88L138.55,266.26L138.88,249.58L139.54,270.14L139.88,267.3L140.21,271.76L140.54,271.11L140.87,259.74L141.2,249.99L141.53,266.63L141.87,273.33L142.53,271.94L142.86,272.49L143.52,246.13L143.85,261.3L144.52,271.34L144.85,266.28L145.51,268.63L145.84,257.57L146.51,274.41L146.84,269.41L147.17,273.61L147.5,271.68L147.83,260.27L148.16,259.99L148.49,271.49L148.83,278.91L149.16,274.52L149.49,265.4L149.82,255.94L150.15,260.95L150.48,259.95L150.81,260.23L151.15,271.48L151.48,277.58L151.81,276.8L152.14,274.62L152.8,260.22L153.13,270.08L154.13,273.57L154.46,267.28L155.12,258.37L155.46,272.51L156.12,273.51L156.45,269.09L156.78,269.19L157.11,273.25L157.44,271.3L157.78,272.85L158.11,280.9L158.77,273.03L159.1,275.57L159.43,279.11L159.76,273.37L160.1,282.9L160.43,289.39L161.09,288.34L161.42,287.64L162.08,271.61L162.42,288.56L163.08,291.8L163.41,290.88L163.74,286.01L164.4,266.73L164.74,285.7L165.07,281.75L165.4,284.55L165.73,287.04L166.06,288.48L166.39,273.74L166.72,263.96L167.06,277.75L167.72,289.41L168.05,277.64L168.71,277.75L169.04,259.56L169.38,277.62L169.71,276.69L170.04,277.72L170.37,272.04L170.7,273.89L171.03,265.69L171.37,268.09L171.7,281.2L172.36,290.61L172.69,290.13L173.02,286.09L173.35,271.9L173.69,275.34L174.02,283.97L174.68,291.53L175.01,286.59L175.34,284.17L175.67,274.95L176.01,263.24L176.34,285.35L177,298.66L177.33,292.62L177.66,285.65L178.33,263.95L178.66,280.02L178.99,289.74L179.32,284.46L179.65,282.62L179.98,277.55L180.31,298.23L180.65,287.42L180.98,297.45L181.31,304L181.97,300.89L182.3,295.52L182.97,279.5L183.3,285.31L183.63,290.66L183.96,291.84L184.29,291.46L184.62,287.07L185.29,278.08L185.62,286.01L185.95,293.03L186.28,291.44L186.61,288.9L186.94,287.69L187.28,276.4L187.61,266.55L187.94,280.33L188.93,291.58L189.26,283.13L189.93,267.29L190.26,274.05L190.59,285.23L190.92,286.12L191.25,285.47L191.58,283.72L191.92,286.33L192.25,282.4L192.91,296.94L193.24,295.44L193.57,292.91L193.9,292.7L194.24,287.56L194.57,266.23L194.9,285.38L195.23,292L195.56,294.19L195.89,291.96L196.22,288.48L196.89,266.88L197.22,284.55L197.88,292.43L198.21,290.35L198.54,288.83L199.21,273.24L199.54,283.74L200.2,293.74L200.53,289.24L201.53,260.55L201.86,281.06L202.52,286.27L202.85,280.91L203.19,265.43L203.85,266.47L204.18,277.13L204.51,284.17L204.84,282.79L205.17,278.65L205.51,277.9L205.84,267.33L206.17,255.39L206.5,281.59L206.83,288.93L207.49,287.45L207.83,279.06L208.49,259.02L208.82,275.81L209.48,286.24L209.81,275.08L210.81,256.29L211.14,273.06L211.47,270.41L211.8,271.71L212.13,274.38L212.47,273.43L212.8,259.44L213.13,259.86L213.46,276.36L213.79,275.45L214.12,276.19L214.46,270.7L215.45,259.16L215.78,274.96L216.78,280.09L217.11,272.28L217.77,256.27L218.1,273.52L219.1,293.41L219.43,288.75L219.76,273.39L220.09,270.52L220.42,292.72L220.75,294.4L221.08,292.58L221.42,284.68L221.75,285.43L222.08,273L223.74,292.59L224.07,288.9L224.4,286.33L224.73,275.41L225.06,289.21L225.39,287.37L225.72,284.55L226.39,279.09L226.72,270.06L227.05,268L227.38,285.15L227.71,291.2L228.04,288.82L228.38,288.53L229.37,270.32L229.7,286.07L230.03,290.27L230.37,285.82L230.7,277.93L231.03,275.55L231.36,253.96L231.69,232.61L232.02,241.12L232.35,261.16L232.69,260.16L233.02,255.34L234.01,237.02L234.34,241.77L234.67,250.88L235.01,246.38L235.34,247.42L236.33,228.68L236.66,233L236.99,241.82L238.65,219.28L238.98,224.3L239.65,203.9L239.98,257.71L240.31,259.43L240.64,252.84L240.97,250.74L241.3,250.81L241.63,191.11L242.63,262.66L242.96,256.5L243.29,254.06L243.62,267.15L244.62,271.68L244.95,269.66L245.61,255.21L245.94,274.81L246.61,279.75L246.94,278.63L247.27,269.68L247.93,256.69L248.26,268.15L248.93,274.41L249.26,273.15L249.59,267.6L250.25,226.62L250.58,259.85L251.58,272.17L251.91,269.83L252.57,258.03L252.9,270.08L253.24,272.01L253.57,266.95L253.9,265.96L254.23,267.26L254.56,267L254.89,256.12L255.22,269.93L255.56,276.08L256.22,272.76L256.55,277.65L257.21,256.15L257.54,275.62L257.88,279.5L258.21,275.28L258.54,273.03L258.87,271.45L259.2,256.91L260.2,270.62L260.53,267.56L260.86,266.57L261.19,269.79L261.85,252.56L262.19,263.86L262.85,275.89L263.18,272.81L263.51,274.84L264.17,254.43L264.51,276.59L264.84,277.47L265.17,277.05L265.5,277.03L265.83,276.23L266.16,263.99L266.49,254.11L266.83,276.86L267.49,279.32L267.82,272.95L268.15,279.33L268.48,256.27L268.81,252.47L269.15,272.87L270.47,284.63L270.8,270.39L271.13,266.2L271.47,288.38L271.8,296.57L272.13,290.06L272.46,286.35L273.46,266.58L273.79,286.71L274.12,292.81L274.45,288.82L274.78,288.78L275.78,259.42L276.11,274.45L276.44,279.8L276.77,278.45L277.1,275.73L278.1,250.17L278.43,259.76L279.09,274.12L279.42,272.51L279.75,270.13L280.08,276.03L280.42,263.73L281.08,285.95L281.41,285.41L281.74,284.64L282.07,282.18L282.4,263.27L282.74,262.73L283.07,279.67L283.4,283L283.73,281.94L284.06,279.17L285.06,254.68L285.39,273.3L286.71,280.48L287.04,269.96L287.38,258.14L287.71,278.98L288.37,276.89L288.7,272.13L289.03,271.24L289.37,259.52L289.7,250.64L290.03,271.84L290.36,275.07L290.69,273.52L291.02,270.4L292.02,253.45L292.35,261.1L293.01,272.8L293.34,270.61L293.67,273.98L294.34,249.31L294.67,265.6L295.33,269.11L295.66,267.3L296.66,241.58L296.99,261.42L297.65,266.57L298.31,266.12L298.65,249.64L298.98,241.57L299.31,263.34L299.64,263.58L299.97,261.66L300.63,250.3L300.97,243.65L301.3,236.35L301.63,253.11L302.96,259.49L303.29,248.89L303.62,242.79L303.95,256.53L304.28,260.03L304.61,259.39L304.94,250.34L305.28,249.27L305.61,236.57L305.94,224.35L306.27,247.91L306.6,251.16L306.93,251.12L307.26,243.54L307.6,242.5L307.93,232.59L308.26,228.57L308.59,246.19L308.92,252.98L309.25,251.7L309.58,248.89L309.92,248.86L310.25,241.46L310.58,234.88L310.91,254.79L311.24,257.62L311.57,255.61L311.9,251.92L312.57,239.87L312.9,226.44L313.56,256.21L313.89,251.67L314.22,250.15L315.22,230.69L315.55,246.74L315.88,252.92L316.21,245.85L316.54,242.55L316.88,241.49L317.21,229.43L317.54,222.19L317.87,237.22L318.2,242.27L318.53,237.62L318.87,235.09L319.53,229.95L319.86,225.75L320.85,237.33L321.19,234.99L321.52,236.51L321.85,259.08L322.18,241.7L322.51,247.59L322.84,259.76L323.84,232.36L324.17,241.65L324.5,224.42L324.83,239.47L325.16,246.15L325.49,246.69L325.83,244.09L326.49,239.86L326.82,224.36L327.81,244.7L328.15,238.09L328.48,234L328.81,218.68L329.14,212.89L329.47,226.51L330.13,237.36L330.47,231.85L330.8,229.2L331.13,210.47L331.46,206.98L331.79,212.76L332.12,227.55L332.79,225.4L333.12,225.91L333.78,212.52L334.11,223.53L334.44,229.2L334.78,229.04L335.11,227.39L335.44,228.09L335.77,220L336.1,213.15L336.43,225.45L336.76,236.48L337.1,232.6L337.43,230.53L337.76,229.81L338.09,219.62L338.42,211.51L338.75,226.86L339.75,234.6L340.08,225.09L340.41,235.65L340.74,224.03L341.07,232.7L341.74,246.04L342.07,238.13L342.4,235.98L342.73,222.75L343.06,215.12L343.39,224.49L343.72,232.86L344.72,226.32L345.05,217.61L345.38,213.62L345.71,226.32L346.04,229.18L346.38,224.65L346.71,226.28L347.04,225.64L347.37,214.56L347.7,211.09L348.03,224.53L349.03,232.73L349.36,229.96L350.02,215.67L350.35,228.29L351.02,232.84L351.35,230.93L351.68,231.29L352.01,227.15L352.34,210.55L352.67,212.28L353.01,225.34L353.34,224.74L353.67,221.31L354,233.18L354.33,221.55L354.66,210.3L355.33,237.62L355.66,229.98L355.99,228.62L356.32,227.76L356.65,220.78L356.98,208.93L357.31,214.73L357.65,230.21L359.3,200.11L359.63,204.22L359.97,207.11L360.63,191.94L360.96,225.77L361.29,232.91L361.62,227.62L361.96,228.83L362.29,228.56L362.62,179.94L363.61,232.3L363.94,227.58L364.94,238.45L365.27,232.33L366.26,225.03L366.6,231.15L366.93,241.95L367.59,239.61L367.92,234.87L368.25,252.38L368.58,244.16L368.92,244.93L369.25,252.25L369.58,246.94L369.91,244.75L370.57,230.64L370.9,217.65L371.24,205.36L371.57,232.8L371.9,242.04L372.23,235.75L372.56,231.22L373.22,213.39L373.56,227.94L374.22,232.67L374.55,223.69L375.54,211.34L375.88,241.14L376.87,228.24L377.2,230.24L377.87,210.46L378.2,220.76L378.53,225.4L379.85,217.89L380.19,221.11L380.85,235.22L381.18,233.25L381.51,231.54L381.84,229.12L382.17,217.3L382.51,214.44L382.84,227.7L383.17,238.77L383.5,237.02L383.83,234.87L384.83,224.37L385.16,234.92L385.49,240.3L385.82,237.53L386.15,235.65L387.15,220.85L387.48,233.77L387.81,241.26L388.14,237.09L388.47,235.75L388.8,230.5L389.47,230.98L389.8,242.06L390.13,247.01L390.46,243.02L390.79,239.62L391.12,235.86L391.46,218.94L391.79,213.55L392.12,225.43L392.45,235.41L392.78,229.45L393.11,222.84L393.44,225.76L393.78,213.71L394.11,210.32L394.44,221.6L395.43,234.14L395.76,224.16L396.43,207.24L396.76,223.08L398.08,242.29L398.42,227.69L398.75,220.63L399.08,239.62L399.41,247.28L399.74,241.57L400.07,243.67L400.4,243.42L400.74,236.81L401.07,227.81L401.4,235.4L401.73,247.99L402.72,242.65L403.06,232.6L403.39,223L403.72,238.89L404.38,243.79L404.71,236.95L405.04,234.97L405.38,219.3L405.71,206.96L406.04,224.1L406.37,234.39L406.7,233L407.03,228.02L407.37,227.16L407.7,215.21L408.03,204.16L408.36,225.54L409.35,231.49L409.69,230.36L410.35,211.87L410.68,235.63L411.01,237.95L411.34,232.36L411.67,234.17L412.01,233.68L412.34,228.62L412.67,216.55L413,224.15L413.33,230.1L413.66,230.68L413.99,230.49L414.33,226.06L414.99,208.78L415.32,223.6L415.98,233.51L416.31,232.94L416.65,231.05L417.31,205.66L417.64,226L418.3,231.3L418.63,227.45L418.97,225.56L419.3,213.8L419.63,201.67L419.96,216.58L420.29,227.8L420.62,230.06L420.96,228.55L421.29,219.88L421.62,216.21L421.95,203.22L422.61,228.84L422.94,224.11L423.28,221.05L423.61,218.89L423.94,209.62L424.27,202.96L424.6,220.27L424.93,226.31L425.26,224.02L425.6,220.88L425.93,219.51L426.26,211.57L426.59,211.9L426.92,231.6L427.58,234.17L427.92,232.99L428.91,215.21L429.24,231.72L429.57,236.58L429.9,235.14L430.24,233.44L430.57,227.51L430.9,235.93L431.23,230.03L431.56,243.57L432.22,258.91L432.56,251.97L433.55,238.02L433.88,247.09L434.21,258.22L434.54,255.68L434.88,251.55L435.21,249.62L435.54,237.33L435.87,229.41L436.2,249.41L436.53,252.12L436.87,249.45L437.2,248.73L438.19,222.04L438.52,249.08L439.19,252.17L439.52,244.1L440.51,219.19L440.84,244.89L441.51,251.74L441.84,246.21L442.17,243.85L442.5,228.57L442.83,209.36L443.16,240.09L443.83,246.23L444.16,241.1L445.15,210.84L445.48,234.8L445.81,240.84L446.15,239.27L446.48,237.16L446.81,234.18L447.14,215.19L447.47,201.07L447.8,228.93L448.13,238.91L448.47,233.33L448.8,229.98L449.13,226.85L449.46,212.09L449.79,199.22L450.12,223.21L450.46,225.38L450.79,224.28L451.12,219.67L451.78,217.42L452.11,208.42L452.78,229.78L453.11,224.13L453.44,223.3L454.43,199.68L454.76,214.89L455.1,220.43L455.43,220.15L455.76,218.79L456.09,216.3L456.42,197.38L456.75,188.9L457.08,213.63L457.75,220.14L458.08,217.85L458.41,217.87L459.07,196.14L459.4,217.51L459.74,226.13L460.07,221.45L460.4,216.22L460.73,213.6L461.06,198.27L461.39,188.39L461.72,203.29L462.39,228.98L462.72,221.92L463.05,224.37L463.71,197.96L464.04,225.62L464.38,233.55L465.04,233.34L465.37,229.7L466.03,207.31L466.37,225.87L466.7,235.21L467.03,234.5L467.36,228.08L468.02,206.2L468.35,195.26L469.02,225.32L469.35,223.06L469.68,218.8L470.67,192.6L471.01,208.78L471.67,221L472,215.3" style="vector-effect: non-scaling-stroke; fill: none; stroke: rgb(25, 211, 243); stroke-opacity: 1; stroke-width: 2px; opacity: 1;"/></g><g class="points"/><g class="text"/></g></g></g><g class="overplot"/><path class="xlines-above crisp" d="M0,0" style="fill: none;"/><path class="ylines-above crisp" d="M0,0" style="fill: none;"/><g class="overlines-above"/><g class="xaxislayer-above"><g class="xtick"><text text-anchor="middle" x="0" y="433" transform="translate(80,0)" style="font-family: 'Open Sans', verdana, arial, sans-serif; font-size: 12px; fill: rgb(42, 63, 95); fill-opacity: 1; white-space: pre;">2017</text></g><g class="xtick"><text text-anchor="middle" x="0" y="433" transform="translate(200.98000000000002,0)" style="font-family: 'Open Sans', verdana, arial, sans-serif; font-size: 12px; fill: rgb(42, 63, 95); fill-opacity: 1; white-space: pre;">2018</text></g><g class="xtick"><text text-anchor="middle" x="0" y="433" transform="translate(321.97,0)" style="font-family: 'Open Sans', verdana, arial, sans-serif; font-size: 12px; fill: rgb(42, 63, 95); fill-opacity: 1; white-space: pre;">2019</text></g><g class="xtick"><text text-anchor="middle" x="0" y="433" transform="translate(442.95,0)" style="font-family: 'Open Sans', verdana, arial, sans-serif; font-size: 12px; fill: rgb(42, 63, 95); fill-opacity: 1; white-space: pre;">2020</text></g></g><g class="yaxislayer-above"><g class="ytick"><text text-anchor="end" x="79" y="4.199999999999999" transform="translate(0,384.26)" style="font-family: 'Open Sans', verdana, arial, sans-serif; font-size: 12px; fill: rgb(42, 63, 95); fill-opacity: 1; white-space: pre;">0.45</text></g><g class="ytick"><text text-anchor="end" x="79" y="4.199999999999999" transform="translate(0,332.93)" style="font-family: 'Open Sans', verdana, arial, sans-serif; font-size: 12px; fill: rgb(42, 63, 95); fill-opacity: 1; white-space: pre;">0.5</text></g><g class="ytick"><text text-anchor="end" x="79" y="4.199999999999999" transform="translate(0,281.6)" style="font-family: 'Open Sans', verdana, arial, sans-serif; font-size: 12px; fill: rgb(42, 63, 95); fill-opacity: 1; white-space: pre;">0.55</text></g><g class="ytick"><text text-anchor="end" x="79" y="4.199999999999999" transform="translate(0,230.28)" style="font-family: 'Open Sans', verdana, arial, sans-serif; font-size: 12px; fill: rgb(42, 63, 95); fill-opacity: 1; white-space: pre;">0.6</text></g><g class="ytick"><text text-anchor="end" x="79" y="4.199999999999999" transform="translate(0,178.95)" style="font-family: 'Open Sans', verdana, arial, sans-serif; font-size: 12px; fill: rgb(42, 63, 95); fill-opacity: 1; white-space: pre;">0.65</text></g><g class="ytick"><text text-anchor="end" x="79" y="4.199999999999999" transform="translate(0,127.62)" style="font-family: 'Open Sans', verdana, arial, sans-serif; font-size: 12px; fill: rgb(42, 63, 95); fill-opacity: 1; white-space: pre;">0.7</text></g></g><g class="overaxes-above"/></g></g><g class="polarlayer"/><g class="ternarylayer"/><g class="geolayer"/><g class="funnelarealayer"/><g class="pielayer"/><g class="treemaplayer"/><g class="sunburstlayer"/><g class="glimages"/><defs id="topdefs-8e5fb4"><g class="clips"/><clipPath id="legend8e5fb4"><rect width="127" height="140" x="0" y="0"/></clipPath></defs><g class="layer-above"><g class="imagelayer"/><g class="shapelayer"/></g><g class="infolayer"><g class="legend" pointer-events="all" transform="translate(561.44, 100)"><rect class="bg" shape-rendering="crispEdges" width="127" height="140" x="0" y="0" style="stroke: rgb(68, 68, 68); stroke-opacity: 1; fill: rgb(255, 255, 255); fill-opacity: 1; stroke-width: 0px;"/><g class="scrollbox" transform="translate(0, 0)" clip-path="url('#legend8e5fb4')"><text class="legendtitletext" text-anchor="start" x="2" y="15.600000000000001" style="font-family: 'Open Sans', verdana, arial, sans-serif; font-size: 12px; fill: rgb(42, 63, 95); fill-opacity: 1; white-space: pre;">Continents</text><g class="groups"><g class="traces" transform="translate(0, 30.1)" style="opacity: 1;"><text class="legendtext" text-anchor="start" x="40" y="4.680000000000001" style="font-family: 'Open Sans', verdana, arial, sans-serif; font-size: 12px; fill: rgb(42, 63, 95); fill-opacity: 1; white-space: pre;">Global</text><g class="layers" style="opacity: 1;"><g class="legendfill"/><g class="legendlines"><path class="js-line" d="M5,0h30" style="fill: none; stroke: rgb(99, 110, 250); stroke-opacity: 1; stroke-width: 2px;"/></g><g class="legendsymbols"><g class="legendpoints"/></g></g><rect class="legendtoggle" x="0" y="-9.5" width="121.734375" height="19" style="fill: rgb(0, 0, 0); fill-opacity: 0;"/></g><g class="traces" transform="translate(0, 49.1)" style="opacity: 1;"><text class="legendtext" text-anchor="start" x="40" y="4.680000000000001" style="font-family: 'Open Sans', verdana, arial, sans-serif; font-size: 12px; fill: rgb(42, 63, 95); fill-opacity: 1; white-space: pre;">Europe</text><g class="layers" style="opacity: 1;"><g class="legendfill"/><g class="legendlines"><path class="js-line" d="M5,0h30" style="fill: none; stroke: rgb(239, 85, 59); stroke-opacity: 1; stroke-width: 2px;"/></g><g class="legendsymbols"><g class="legendpoints"/></g></g><rect class="legendtoggle" x="0" y="-9.5" width="121.734375" height="19" style="fill: rgb(0, 0, 0); fill-opacity: 0;"/></g><g class="traces" transform="translate(0, 68.1)" style="opacity: 1;"><text class="legendtext" text-anchor="start" x="40" y="4.680000000000001" style="font-family: 'Open Sans', verdana, arial, sans-serif; font-size: 12px; fill: rgb(42, 63, 95); fill-opacity: 1; white-space: pre;">Asia</text><g class="layers" style="opacity: 1;"><g class="legendfill"/><g class="legendlines"><path class="js-line" d="M5,0h30" style="fill: none; stroke: rgb(0, 204, 150); stroke-opacity: 1; stroke-width: 2px;"/></g><g class="legendsymbols"><g class="legendpoints"/></g></g><rect class="legendtoggle" x="0" y="-9.5" width="121.734375" height="19" style="fill: rgb(0, 0, 0); fill-opacity: 0;"/></g><g class="traces" transform="translate(0, 87.1)" style="opacity: 1;"><text class="legendtext" text-anchor="start" x="40" y="4.680000000000001" style="font-family: 'Open Sans', verdana, arial, sans-serif; font-size: 12px; fill: rgb(42, 63, 95); fill-opacity: 1; white-space: pre;">North America</text><g class="layers" style="opacity: 1;"><g class="legendfill"/><g class="legendlines"><path class="js-line" d="M5,0h30" style="fill: none; stroke: rgb(171, 99, 250); stroke-opacity: 1; stroke-width: 2px;"/></g><g class="legendsymbols"><g class="legendpoints"/></g></g><rect class="legendtoggle" x="0" y="-9.5" width="121.734375" height="19" style="fill: rgb(0, 0, 0); fill-opacity: 0;"/></g><g class="traces" transform="translate(0, 106.1)" style="opacity: 1;"><text class="legendtext" text-anchor="start" x="40" y="4.680000000000001" style="font-family: 'Open Sans', verdana, arial, sans-serif; font-size: 12px; fill: rgb(42, 63, 95); fill-opacity: 1; white-space: pre;">South America</text><g class="layers" style="opacity: 1;"><g class="legendfill"/><g class="legendlines"><path class="js-line" d="M5,0h30" style="fill: none; stroke: rgb(255, 161, 90); stroke-opacity: 1; stroke-width: 2px;"/></g><g class="legendsymbols"><g class="legendpoints"/></g></g><rect class="legendtoggle" x="0" y="-9.5" width="121.734375" height="19" style="fill: rgb(0, 0, 0); fill-opacity: 0;"/></g><g class="traces" transform="translate(0, 125.1)" style="opacity: 1;"><text class="legendtext" text-anchor="start" x="40" y="4.680000000000001" style="font-family: 'Open Sans', verdana, arial, sans-serif; font-size: 12px; fill: rgb(42, 63, 95); fill-opacity: 1; white-space: pre;">Oceania</text><g class="layers" style="opacity: 1;"><g class="legendfill"/><g class="legendlines"><path class="js-line" d="M5,0h30" style="fill: none; stroke: rgb(25, 211, 243); stroke-opacity: 1; stroke-width: 2px;"/></g><g class="legendsymbols"><g class="legendpoints"/></g></g><rect class="legendtoggle" x="0" y="-9.5" width="121.734375" height="19" style="fill: rgb(0, 0, 0); fill-opacity: 0;"/></g></g></g><rect class="scrollbar" rx="20" ry="3" width="0" height="0" x="0" y="0" style="fill: rgb(128, 139, 164); fill-opacity: 1;"/></g><g class="g-gtitle"/><g class="g-xtitle"><text class="xtitle" x="316" y="461.8" text-anchor="middle" style="font-family: 'Open Sans', verdana, arial, sans-serif; font-size: 14px; fill: rgb(42, 63, 95); opacity: 1; font-weight: normal; white-space: pre;">Date</text></g><g class="g-ytitle"><text class="ytitle" transform="rotate(-90,30.418750000000003,260)" x="30.418750000000003" y="260" text-anchor="middle" style="font-family: 'Open Sans', verdana, arial, sans-serif; font-size: 14px; fill: rgb(42, 63, 95); opacity: 1; font-weight: normal; white-space: pre;">valence</text></g></g></svg>