<svg class="main-svg" xmlns="http://www.w3.org/2000/svg" xmlns:xlink="http://www.w3.org/1999/xlink" width="700" height="500" style="" viewBox="0 0 700 500"><rect x="0" y="0" width="700" height="500" style="fill: rgb(255, 255, 255); fill-opacity: 1;"/><defs id="defs-b1d74f"><g class="clips"><clipPath id="clipb1d74fxyplot" class="plotclip"><rect width="516" height="320"/></clipPath><clipPath class="axesclip" id="clipb1d74fx"><rect x="80" y="0" width="516" height="500"/></clipPath><clipPath class="axesclip" id="clipb1d74fy"><rect x="0" y="100" width="700" height="320"/></clipPath><clipPath class="axesclip" id="clipb1d74fxy"><rect x="80" y="100" width="516" height="320"/></clipPath></g><g class="gradients"/></defs><g class="bglayer"><rect class="bg" x="80" y="100" width="516" height="320" style="fill: rgb(229, 236, 246); fill-opacity: 1; stroke-width: 0;"/></g><g class="layer-below"><g class="imagelayer"/><g class="shapelayer"/></g><g class="cartesianlayer"><g class="subplot xy"><g class="layer-subplot"><g class="shapelayer"/><g class="imagelayer"/></g><g class="gridlayer"><g class="x"><path class="xgrid crisp" transform="translate(212.26,0)" d="M0,100v320" style="stroke: rgb(255, 255, 255); stroke-opacity: 1; stroke-width: 1px;"/><path class="xgrid crisp" transform="translate(344.52,0)" d="M0,100v320" style="stroke: rgb(255, 255, 255); stroke-opacity: 1; stroke-width: 1px;"/><path class="xgrid crisp" transform="translate(476.78,0)" d="M0,100v320" style="stroke: rgb(255, 255, 255); stroke-opacity: 1; stroke-width: 1px;"/></g><g class="y"><path class="ygrid crisp" transform="translate(0,418.39)" d="M80,0h516" style="stroke: rgb(255, 255, 255); stroke-opacity: 1; stroke-width: 1px;"/><path class="ygrid crisp" transform="translate(0,377.43)" d="M80,0h516" style="stroke: rgb(255, 255, 255); stroke-opacity: 1; stroke-width: 1px;"/><path class="ygrid crisp" transform="translate(0,336.46000000000004)" d="M80,0h516" style="stroke: rgb(255, 255, 255); stroke-opacity: 1; stroke-width: 1px;"/><path class="ygrid crisp" transform="translate(0,295.5)" d="M80,0h516" style="stroke: rgb(255, 255, 255); stroke-opacity: 1; stroke-width: 1px;"/><path class="ygrid crisp" transform="translate(0,254.53)" d="M80,0h516" style="stroke: rgb(255, 255, 255); stroke-opacity: 1; stroke-width: 1px;"/><path class="ygrid crisp" transform="translate(0,213.56)" d="M80,0h516" style="stroke: rgb(255, 255, 255); stroke-opacity: 1; stroke-width: 1px;"/><path class="ygrid crisp" transform="translate(0,172.6)" d="M80,0h516" style="stroke: rgb(255, 255, 255); stroke-opacity: 1; stroke-width: 1px;"/><path class="ygrid crisp" transform="translate(0,131.63)" d="M80,0h516" style="stroke: rgb(255, 255, 255); stroke-opacity: 1; stroke-width: 1px;"/></g></g><g class="zerolinelayer"/><path class="xlines-below"/><path class="ylines-below"/><g class="overlines-below"/><g class="xaxislayer-below"/><g class="yaxislayer-below"/><g class="overaxes-below"/><g class="plot" transform="translate(80, 100)" clip-path="url('#clipb1d74fxyplot')"><g class="scatterlayer mlayer"><g class="trace scatter trace86a8b0" style="stroke-miterlimit: 2; opacity: 1;"><g class="fills"/><g class="errorbars"/><g class="lines"><path class="js-line" d="M0,118.22L0.72,179.32L1.09,177.19L1.45,178.36L2.17,172.45L2.54,184.43L3.62,168.43L3.99,180.87L4.35,193.98L4.71,178.14L6.52,190.58L6.88,171.68L7.25,167.23L7.61,181.71L7.97,192.94L8.7,192.76L9.06,194.17L9.78,154.82L10.15,166.56L10.51,192.59L11.6,168.19L11.96,186.2L12.32,159.22L12.68,177.45L13.04,183.35L13.41,185.96L13.77,184.33L14.13,185.2L14.86,177.63L15.22,187.16L15.58,192.89L15.94,215.09L16.67,191.79L17.03,203.04L17.39,192.76L17.76,199.49L18.12,206.02L18.48,198.99L18.84,200.61L19.57,197.31L20.29,182.75L20.65,186.89L21.02,184.22L21.74,192.9L22.1,158.88L22.47,142.75L22.83,156.03L23.19,165.96L23.55,167.55L23.92,159.98L25,141.58L25.37,159.77L25.73,170.21L26.09,169.04L26.45,166L26.81,161.5L27.18,167.23L27.54,154.84L27.9,172.15L28.26,164.92L28.63,167.15L28.99,173.3L29.35,180.3L29.71,172.11L30.08,168.3L30.44,175.88L30.8,171.4L31.16,179.71L31.53,178.69L31.89,184.76L32.61,154.12L32.97,163.99L33.7,171.61L34.06,162.69L34.42,163.44L34.79,168.77L35.87,188.81L36.24,188.38L36.6,185.3L38.41,153.78L38.77,169.02L40.22,128.74L40.58,134.44L40.95,136.05L41.31,140.57L41.67,137.12L42.03,130.53L42.4,128.11L42.76,112.71L43.12,106.32L43.48,111.2L43.85,134.75L44.57,115.39L44.93,102.47L45.29,101.97L45.66,104.26L46.02,122.86L46.38,114.63L46.74,108.22L47.11,109.53L47.47,104.45L47.83,103.57L48.19,112.74L48.56,126.65L48.92,114.55L49.28,103.56L50.01,115.65L50.37,104.73L50.73,97.16L51.09,126.13L52.54,105.17L52.9,111.55L53.27,107.38L53.63,121.74L55.44,100.29L55.8,125.36L57.25,109.96L57.62,108.5L57.98,97.48L58.34,111.01L58.7,118.77L59.06,113.59L59.43,114.03L59.79,111.67L60.15,115.49L60.51,117.94L60.88,111.99L61.6,128.32L61.96,121.22L62.33,116.78L62.69,100.85L63.78,127.94L64.14,125.46L64.5,131.62L64.86,128.99L65.22,114.74L65.59,98.43L65.95,109.01L66.31,108.96L66.67,92.73L67.04,99.63L67.4,108.4L67.76,109.65L68.12,106.59L68.85,124.07L69.21,121.24L69.57,106.76L69.94,123.36L70.3,119.69L70.66,108.19L71.75,123.95L72.11,114.2L72.47,111.81L72.83,123.17L73.2,125.43L73.56,137.17L74.65,125.74L75.01,124.01L75.73,109.36L76.1,111.64L76.46,123.04L77.54,99.7L77.91,109.61L78.27,87.32L78.63,103.09L78.99,116.13L79.72,122.02L80.08,115.55L80.81,110.55L81.17,125.7L81.89,134.99L82.26,134.38L82.62,132.22L83.34,111.95L83.71,116.64L84.07,140.67L85.15,128.59L85.52,130.77L85.88,117.92L86.24,134.7L86.6,131.45L86.97,138.47L87.69,137.01L88.05,127.51L88.42,114.32L88.78,116.47L89.14,127.48L89.5,126.05L89.87,132.56L90.23,130.74L90.59,117.85L90.95,109.75L91.31,134.11L92.76,127.24L93.13,122.66L93.49,114.25L93.85,130.92L95.3,108.86L95.66,104.18L97.47,139.15L97.84,139.98L98.2,125.89L98.56,136.67L98.92,146.86L99.29,144L99.65,119.47L100.37,153.18L100.74,144.14L101.1,135.89L101.46,142.24L101.82,145.92L102.55,136.31L102.91,138.61L103.27,152.09L103.63,130.02L104,142.67L104.36,159.96L105.45,151.97L105.81,173.03L106.17,151.56L106.53,154.55L106.9,167.88L107.26,170.78L107.62,165.19L107.98,167.11L108.35,164.71L108.71,141.74L109.07,152.7L109.43,177.89L109.79,164.59L110.16,182.53L110.88,199.78L111.24,178.77L111.97,199.87L112.33,198.12L112.69,199.17L113.78,146.09L114.14,154.39L114.51,170.08L114.87,161.21L115.23,159.98L115.59,169.38L115.96,163.07L116.32,152.61L116.68,150.56L117.04,157.28L118.49,141.3L118.85,123.19L119.22,120.03L119.58,137.77L120.67,144.7L121.03,137.44L121.39,117.29L121.75,118.65L122.12,135.86L122.48,136.58L122.84,142.79L124.29,90.68L124.65,128.53L125.01,134.7L125.38,122.17L126.46,87.37L126.83,100.09L127.19,106.76L127.55,102.93L127.91,93.88L128.28,94.66L128.64,114.86L129.72,62.6L130.09,122.59L130.81,149.45L131.17,143.89L131.54,144.77L131.9,19.97L132.62,168.1L132.99,160.19L133.35,155.3L134.8,172.45L135.16,173.67L136.61,156.16L136.97,163.17L137.33,162.82L137.7,169.4L139.15,148.52L139.51,154.91L140.23,153.02L140.6,155.02L140.96,148.59L141.32,185.5L142.04,155.28L142.41,173.38L143.86,153.58L144.22,153.85L145.67,166.82L146.03,158.15L146.39,173.16L146.76,155.58L147.12,156.98L147.48,170.58L148.21,198.07L148.57,193.84L148.93,191.15L149.29,160.17L149.65,162.62L150.02,195.8L150.74,180.58L151.1,183.64L151.47,180.69L151.83,166.77L152.19,174.37L152.55,205.95L152.92,191.56L153.28,193.38L153.64,196.67L154.37,169.68L154.73,186.4L155.09,202.73L155.45,197.44L155.81,197.29L156.18,189.72L156.54,208.87L157.26,173.56L157.63,196.38L157.99,198.93L158.35,192.1L158.71,199.31L159.08,193.21L159.44,182.74L160.53,210.47L160.89,205.2L161.97,160.56L162.34,179.59L162.7,198.32L163.06,190.24L163.42,182.54L163.79,178.13L164.15,199.97L164.51,188.2L164.87,196.34L165.24,207.64L165.6,196.89L165.96,197.93L166.32,198.07L167.05,178.89L167.41,185.91L167.77,200.44L168.13,200.44L168.5,203.21L168.86,209.64L169.22,200.61L169.58,161.97L169.95,172.07L170.31,198.96L170.67,198.16L171.03,187.57L171.4,175.9L171.76,203.71L172.12,180.65L172.48,187.54L172.85,212.78L173.57,187.14L173.93,192.2L174.29,201.63L174.66,185.42L175.02,192.45L175.38,196.92L175.74,197.19L176.11,186.21L176.47,189.28L176.83,201.94L177.19,182.45L177.56,188.9L177.92,193.19L178.28,202.03L178.64,193.54L179.01,191.86L179.37,187.05L179.73,165.49L180.09,165.49L180.46,191.65L180.82,184.73L181.18,193.35L181.54,191.47L181.9,174.39L182.27,152.16L182.63,168.71L182.99,177.16L184.08,194.64L184.44,181.18L185.17,150.3L185.53,156.98L185.89,160.98L186.25,158.88L186.62,145.04L186.98,145.94L187.34,156.95L188.06,176.01L188.43,170.47L188.79,171.28L189.15,170.52L189.51,186.6L189.88,168.75L190.24,188.93L190.6,193.65L190.96,191.48L191.33,188.94L191.69,188.97L192.05,180.89L192.41,162.66L192.78,179.48L193.14,201.67L193.5,205.01L193.86,186.43L194.22,195.99L194.59,169.2L194.95,164.22L195.31,183.62L196.4,193.36L196.76,189.24L198.21,211.35L198.57,204.7L198.94,166.06L199.3,177.73L199.66,206.19L200.02,206.46L200.38,209.92L201.11,219.94L201.47,212.41L201.83,219.12L202.2,216.7L202.56,189.72L203.65,217.57L204.01,212.81L204.37,222.42L204.73,209.95L205.1,190.98L205.46,205.41L205.82,198.94L206.18,198.57L206.54,200.79L206.91,209.13L207.27,181.74L207.63,174.49L207.99,184.19L208.36,187.17L208.72,185.88L209.08,186.12L209.44,178.92L209.81,210.84L210.17,192.81L210.53,211.01L210.89,207.38L211.98,198.79L212.34,199.52L212.71,186.32L213.07,190.32L213.43,214.18L214.88,162.53L215.24,169.34L215.6,176.03L215.97,189.57L216.33,183.52L216.69,186.04L217.42,193.3L217.78,187.91L218.5,209.56L218.87,201.6L219.23,197.12L219.59,199.1L219.95,184.18L220.31,166.99L220.68,188.52L221.04,201.36L221.76,200.64L222.13,195.99L222.49,198.83L222.85,213.63L223.21,205.28L223.58,210.55L223.94,216.76L224.3,223.53L224.66,221.28L225.03,220.72L225.39,199.43L225.75,223.6L226.11,231.96L226.47,224.86L226.84,229.39L227.56,217.4L227.92,203.66L228.65,223.86L229.01,221.76L229.37,221.21L229.74,219.84L230.1,212.81L230.46,188.74L230.82,220.22L231.91,246.13L232.27,238.78L233,201.22L233.36,216.47L233.72,235.27L234.08,235.14L234.45,228.98L234.81,225.75L235.17,207.5L235.53,206.11L235.9,213.58L236.98,240.84L237.35,229.53L237.71,189.93L238.07,204.04L238.43,216.89L238.79,212.36L239.16,233.06L239.88,231.17L240.24,221.51L240.61,198.1L240.97,226.52L241.69,225.14L242.06,204.45L242.78,238.12L243.14,216.03L243.87,237.73L244.23,230.08L244.59,243.41L245.68,224.57L246.04,226.59L246.4,223.95L247.13,219.71L247.49,210.64L248.58,196.31L248.94,203.76L249.3,201.78L249.67,202.67L250.03,196.2L250.75,177.81L251.12,184.33L251.48,196.39L251.84,192.55L252.2,185.27L252.56,184.55L252.93,204.56L253.65,126.35L254.01,167.93L254.38,172.69L254.74,165.9L256.19,124.52L256.55,161.16L256.91,164.2L257.28,147.83L257.64,150.4L258,148.36L258.36,103.97L259.45,145.16L259.81,134.92L260.17,127.47L260.54,135.63L261.62,114.39L261.99,115.98L262.71,229.99L263.07,219.72L263.44,204.95L263.8,202.21L264.16,147.98L264.52,121.46L264.88,220.98L265.25,225.18L265.61,206.21L265.97,189.91L266.33,198.76L266.7,219.43L267.78,197.6L268.15,194.37L268.87,189.07L269.23,197.24L269.6,188.95L269.96,190.94L270.32,196.13L270.68,210.41L271.04,190.15L271.41,183.5L271.77,191.73L272.13,190.54L272.49,195.44L273.22,191.04L273.58,185.39L273.94,202.37L274.31,195.33L274.67,197.43L275.76,206.07L276.12,202.39L277.21,230.83L277.57,233.02L277.93,222.4L278.29,236.11L279.02,229.15L279.38,239.83L280.1,235.71L280.47,243.56L281.19,219.66L281.55,237.78L281.92,226.6L282.28,232.09L282.64,238.81L283,233.3L283.37,241.65L283.73,216.53L284.09,242.17L284.45,232.91L285.18,235.47L285.54,228.1L286.26,209.55L286.63,215.66L286.99,226.33L287.71,220.37L288.08,221.3L288.44,225.62L288.8,211.74L289.89,223.69L290.25,219.41L290.61,217.86L290.97,189.9L291.34,188.38L291.7,206.14L292.06,204.18L292.42,207.66L292.79,207.41L293.15,204.69L293.87,190.71L294.24,198.39L294.96,199.77L295.32,190.68L297.13,227.16L297.5,218.51L297.86,222.7L298.22,214.1L298.58,247.88L298.95,210.59L299.67,222.04L300.03,212.34L300.4,213.85L300.76,202.49L301.48,170.96L301.85,178.77L302.21,197.12L302.57,188.25L302.93,180.63L303.29,182.25L303.66,190.95L304.74,176.07L305.11,208.95L305.83,174.61L306.19,212.45L306.56,172.29L306.92,192.27L307.28,205.21L307.64,184.12L308.01,191.37L308.37,195.24L309.09,172.72L309.46,186.3L310.18,181.86L310.54,184.29L310.9,181.54L311.27,170.09L311.63,162.67L311.99,170.23L312.35,190.35L313.44,183.4L313.8,198.69L314.17,184.69L314.53,188.43L314.89,201.03L315.98,190.4L316.34,174.06L316.7,163.94L317.06,172.51L317.43,164.54L317.79,165.6L318.15,174.22L318.51,157.55L318.88,173.68L319.24,163.97L320.33,190.04L320.69,191.35L321.78,179.14L322.14,182.28L322.5,199.21L322.86,188.63L323.22,186.37L323.59,183.23L323.95,163.65L324.31,168.42L324.67,183.86L325.04,179.45L325.4,182.7L325.76,182.74L326.12,180.14L326.49,145.48L326.85,144.96L327.21,150.05L327.57,151.55L327.94,150.8L328.3,145.95L328.66,146.18L329.02,119.67L330.83,148.37L331.2,139.82L331.56,147.04L331.92,128.12L332.28,155.33L332.65,138.43L333.01,135.53L333.37,137.46L333.73,150.66L335.18,134.23L335.54,123.18L336.27,133.13L336.63,132.17L336.99,131.33L337.72,145.16L338.08,139.32L339.53,109.89L339.89,133.27L340.26,123.16L340.62,126.14L340.98,132.72L341.34,129.23L341.71,138.83L342.07,121L342.43,130.65L342.79,128.06L343.15,123.8L343.52,127.74L343.88,126.42L344.24,121.87L344.6,98.49L345.69,122.59L346.05,120.23L346.42,123.54L346.78,110.8L347.14,100.26L347.5,112.62L347.87,120.43L348.23,118.33L348.59,115.53L349.68,90.68L350.04,108.89L350.4,122.8L350.76,109.03L351.13,111.94L351.49,112.12L351.85,151.93L352.58,121.15L352.94,127.46L353.3,130.61L354.03,125.32L354.39,113.28L354.75,91.89L355.11,115.92L355.47,115L355.84,103.04L356.56,109.39L356.92,107.45L357.29,90.16L357.65,112.6L358.37,132.4L358.74,126.05L359.46,110.55L359.82,87.93L360.55,124.9L360.91,122.04L361.27,125.07L362.36,78.71L362.72,113.84L363.08,124.01L363.45,122.95L363.81,114.64L364.53,110.62L364.9,93.23L365.98,126.83L366.35,126.23L366.71,126.85L367.07,104.87L367.43,90.81L367.79,110.06L368.16,128.38L368.52,126.95L368.88,126.23L369.24,118.82L369.61,120.37L369.97,92L370.69,129.54L371.06,123.78L371.42,121.59L371.78,120.42L372.14,140.2L372.51,97.17L372.87,132.45L373.23,138.87L373.59,144.53L373.96,142.67L374.32,122.06L374.68,116.86L375.04,100.36L375.77,138L376.13,127.4L376.49,115.77L377.58,103.05L377.94,115.61L378.3,113.71L378.67,115.66L379.03,118.41L379.39,123.42L379.75,106.2L380.12,104.86L380.48,112.19L380.84,130.26L381.2,129.29L381.56,127.77L381.93,126.08L382.29,131.49L382.65,104.75L383.01,115.85L383.38,141.59L383.74,142.99L384.1,141.72L384.46,112.15L385.19,69.29L385.55,90.04L385.91,106.57L386.28,98.44L386.64,94.35L387,97.5L387.36,109.51L387.72,94.98L388.09,106.79L388.45,129.19L388.81,124.34L389.17,108.4L389.54,103.33L389.9,104.45L390.26,72.05L391.35,97.84L391.71,98.92L392.07,96.33L392.44,81.45L393.88,60.66L394.25,79.03L394.97,146.64L395.33,133.89L395.7,146.85L396.06,153.64L396.42,104.18L396.78,107.29L397.15,164.49L397.51,163.48L397.87,140.12L398.96,158.69L399.32,154.25L400.41,129.88L400.77,151.01L401.13,157.04L401.49,149.81L401.86,150.42L402.22,148.07L402.58,161.36L402.94,144.51L403.31,142.71L403.67,164.45L404.39,161.77L404.76,151.14L405.48,128.11L405.84,140.21L406.21,159.07L406.57,151.88L406.93,153.18L407.29,153.79L407.65,135.64L408.02,123.34L408.38,143.56L408.74,150.33L409.1,147.12L409.47,146.48L409.83,147.99L410.19,108.88L410.55,93.44L410.92,125.09L411.64,145.45L412,140.99L412.73,141.51L413.09,103.75L414.54,147.96L414.9,154.3L415.26,173.54L415.63,134.15L416.71,172.04L417.08,178L417.8,168.88L418.16,115.84L419.25,130.64L419.61,121.77L419.97,124.25L420.34,147.97L420.7,145.7L421.06,147.52L421.42,158.07L422.51,134.12L422.87,145.85L423.24,127.38L423.6,137.89L423.96,153.97L424.69,131.12L425.05,131.22L425.41,159.07L425.77,141.21L426.13,161.09L426.5,160.2L426.86,157.38L427.58,161.69L427.95,155.61L428.31,134.21L428.67,138.4L429.03,156.25L430.85,110.71L431.21,118.94L431.57,136.67L431.93,126.01L432.29,128.82L432.66,117.05L433.02,145.91L433.38,110.23L433.74,119.51L434.11,128.65L434.47,137.09L434.83,129.39L435.19,134.65L435.92,113.27L436.28,123.25L438.09,167.22L438.46,147.13L439.18,172.68L439.54,162.94L439.9,165.17L440.99,145.05L441.35,164.57L441.72,171.61L442.08,165.93L442.44,160.03L443.53,119.41L443.89,143.5L444.98,154.94L445.34,142.48L445.7,159.73L446.06,126.65L446.43,125.45L446.79,142.71L447.15,150.41L447.51,135.32L447.88,117.97L448.24,141.91L448.96,128.56L449.33,142.2L449.69,143.47L450.05,137.85L450.41,140.37L450.78,111.25L451.14,111.86L451.5,118.15L451.86,147.66L452.22,135.27L452.59,114.91L452.95,129.74L453.31,124.83L453.67,104.76L454.4,130.34L454.76,121.6L455.12,117.51L455.49,128.13L455.85,98.5L456.21,86.05L456.57,99.71L456.94,117.51L457.66,117.48L458.02,118.2L458.75,78.65L459.11,98.83L459.47,121.23L459.83,112.04L460.2,105.51L461.28,59.27L461.65,75.03L462.37,115.12L462.73,115.09L463.1,111.62L463.82,61.68L464.18,89.6L465.27,124.14L465.63,122.3L465.99,119.6L466.36,97.06L467.81,131.73L468.17,141.51L468.89,103.86L469.26,121.8L470.34,141.21L470.71,124.15L471.43,114.09L471.79,138.32L472.52,149L472.88,144.82L473.97,131.02L474.33,162.64L474.69,172.07L475.05,153.25L475.42,154.98L475.78,150.25L476.5,104.89L476.87,118.73L477.23,143.78L477.95,132.32L478.31,141.2L479.04,127.42L479.4,137.95L479.76,156.61L480.13,152.63L480.49,152.34L480.85,141.78L481.21,108.41L482.66,151.65L483.03,139.99L483.39,133.02L483.75,105.44L484.11,99.01L484.47,115.37L485.92,139.95L486.29,102.6L486.65,86.66L487.01,112.63L488.1,127.82L488.46,124.66L488.82,101.62L489.19,96.58L489.55,112.41L489.91,130.94L490.27,114.12L490.63,107.53L491,110.41L491.36,104.34L491.72,82.15L492.08,104.77L492.45,107.61L492.81,108.12L493.17,110.81L493.53,105.04L493.9,120.45L494.26,88.97L494.62,114.83L494.98,134.51L496.07,121.43L496.43,103.05L496.79,73.72L497.16,102.23L497.52,114.15L498.97,81.49L499.33,49.74L500.42,104.86L500.78,103.57L501.51,96.55L501.87,72.79L502.59,111.69L502.96,99.91L503.32,94.49L504.4,68.71L504.77,82.6L505.13,112.79L505.49,103.96L505.85,101.26L506.22,99.84L506.58,100.38L506.94,67.18L507.3,71.2L507.67,107.79L508.03,122.55L508.39,118.98L508.75,118.53L509.48,88.97L509.84,96.49L510.2,117.24L511.65,97.41L512.01,52.94L512.38,64.78L512.74,106.38L513.1,108.14L513.46,95.87L514.19,62.15L514.55,25.86L515.28,68.36L515.64,65.01L516,66.44" style="vector-effect: non-scaling-stroke; fill: none; stroke: rgb(99, 110, 250); stroke-opacity: 1; stroke-width: 2px; opacity: 1;"/></g><g class="points"/><g class="text"/></g><g class="trace scatter tracebf8c6c" style="stroke-miterlimit: 2; opacity: 1;"><g class="fills"/><g class="errorbars"/><g class="lines"><path class="js-line" d="M0,192.34L0.36,200.78L0.72,196.28L1.09,195.31L2.17,177.07L2.54,209.24L2.9,209.72L3.26,208.21L3.99,180.62L4.35,197.01L4.71,183.8L5.07,207.73L5.44,227.08L5.8,222.61L6.16,214.4L7.25,179.38L7.61,210.31L7.97,205.15L8.33,214.22L9.78,186.4L10.15,199.47L10.51,198.37L10.87,184.47L11.23,189.4L11.6,166.9L13.41,209.94L13.77,202.7L14.86,179.7L15.22,214.48L15.94,248.25L16.31,221.11L17.39,205.68L17.76,228.66L18.12,235L18.48,217.63L18.84,229.93L19.21,226.24L19.57,204.12L20.29,216.05L20.65,225.28L21.38,228.2L21.74,223.33L22.47,200.97L22.83,220.38L23.19,221.42L23.55,208.59L23.92,214.8L24.28,213.25L24.64,200.53L25,201.36L25.37,215.5L25.73,216.31L26.09,221.78L26.45,227.53L26.81,224L27.18,217.19L27.54,219.95L27.9,240.53L28.63,216.13L28.99,222.78L29.35,225.41L29.71,210.97L30.08,210.44L30.44,216.08L30.8,207.3L31.16,208.78L31.53,212.33L31.89,232.2L32.25,211.91L32.61,216.22L33.7,209.12L34.06,202.1L34.79,222.11L35.15,219.46L35.51,221.41L36.6,202.47L36.96,190.13L38.05,211.42L38.41,208.52L38.77,198.72L39.13,209.09L39.5,207.85L39.86,208.87L40.22,194.57L40.58,206.26L40.95,203.69L41.31,194.51L41.67,218.34L42.03,214.59L42.4,211.55L42.76,201.18L43.12,205.18L43.48,207.44L43.85,216.24L44.21,209.13L44.57,201.26L44.93,206.57L45.29,175.22L47.11,210.44L47.47,199.65L47.83,190.81L48.19,201.22L48.56,203.37L48.92,200.04L49.28,195.61L49.64,205.63L50.37,174.02L50.73,193.82L51.09,206.1L51.46,199.98L51.82,192.59L52.9,169.31L53.27,209.17L53.63,204.17L54.72,214.97L55.44,165.87L55.8,204.03L56.17,204.82L56.53,207.85L56.89,211.57L57.25,211.22L57.62,163.96L57.98,163.16L58.34,185.11L58.7,205.53L59.06,201.64L59.43,202.79L59.79,206.34L60.15,174.6L60.51,178.38L60.88,202.68L61.24,219.67L61.6,214.37L61.96,210.54L62.69,177.57L63.05,177.71L63.41,196.79L64.14,207.43L64.5,191.22L65.59,153.32L65.95,165.37L67.04,189.41L67.4,166.41L68.12,160.5L68.49,180.62L68.85,195.6L69.21,189.35L69.57,185L70.66,154.85L71.02,169.74L72.11,192L72.47,177.71L73.2,180.01L73.56,185.64L74.28,203.25L74.65,195.68L75.73,161.99L76.1,186.12L76.82,205.92L77.18,204.28L77.54,178.43L77.91,183.64L78.27,156.6L79.36,214.5L79.72,208.72L80.81,154.18L81.17,201.69L81.53,221.56L81.89,216.81L82.26,218.01L83.34,157.62L83.71,194.94L84.07,208.21L84.43,202.76L84.79,198.88L85.88,162.24L86.24,194.95L87.69,179.44L88.05,170.29L88.42,164.09L88.78,172.11L90.23,206.21L90.59,180.87L90.95,157.48L91.31,176.78L91.68,194.49L92.76,185.38L93.13,185.6L93.49,165.14L93.85,168.68L94.21,187.69L94.58,182.17L94.94,190.68L95.3,192.53L95.66,169.82L96.75,198.75L97.11,194.38L97.47,190.82L97.84,196.35L98.2,189.54L98.92,172.27L99.29,186.37L100.01,178.62L100.37,171.54L100.74,175.26L101.1,169.3L101.82,190.51L102.19,185.58L102.55,186.02L102.91,201.26L103.63,179.59L104,192.68L104.72,211.73L105.08,193.56L105.45,207.4L105.81,194.38L106.17,173.75L106.9,212.8L107.26,194.98L107.62,194.48L107.98,205.46L108.35,186.6L108.71,176.19L109.07,201.26L109.43,214.06L109.79,207.85L110.16,209.12L110.52,211.76L110.88,229.18L111.24,212.33L111.61,222.2L111.97,218.54L112.69,214.51L113.06,221.56L113.78,177.53L114.14,199.95L115.59,213.41L115.96,194.54L116.32,176.35L116.68,187.52L117.04,205.58L117.4,198.57L117.77,206.83L118.85,181.35L119.22,183.87L119.58,201.15L119.94,208.85L120.3,203.77L120.67,193.7L121.39,173.91L121.75,197.37L122.12,217.87L122.48,210.83L122.84,213.75L123.2,213.41L123.56,188.15L123.93,166.46L124.29,179.88L124.65,189.92L125.01,195.49L125.38,189.38L126.1,172.99L126.46,163.13L127.55,181.39L127.91,173.36L128.28,170.09L128.64,152.01L129,153.98L129.36,115.88L129.72,116.79L130.09,209.17L130.81,231.95L131.17,222.01L131.54,203.81L131.9,38.58L132.26,208.11L132.62,225.66L133.35,223.41L133.71,214.5L134.07,203.57L134.44,217.96L135.16,232.96L135.52,222.81L135.88,232.56L136.25,222.83L136.61,208.82L137.7,247.83L138.06,240.51L138.42,239.31L138.78,229.21L139.15,211.41L139.51,236.62L139.87,249.32L140.23,237.99L140.6,239.1L140.96,238.94L141.32,143.27L142.41,258.15L142.77,257.02L143.86,220.99L144.22,223.71L144.58,230.8L144.94,236.81L145.31,225.48L145.67,226.08L146.03,232.5L146.39,217.85L146.76,220.44L147.12,230.62L147.84,242.98L148.21,274.18L149.29,219.7L149.65,238.83L150.02,230.19L150.38,240.87L151.47,257.03L151.83,213.43L152.19,229.51L152.55,226.46L152.92,228.16L153.64,235.72L154,215.21L154.37,191.79L154.73,224.59L155.09,229.99L155.45,222.91L155.81,224.04L156.18,223.86L156.54,198.29L156.9,177.04L157.26,197.7L157.63,214.44L157.99,222.45L158.35,215.63L158.71,219.17L159.08,227.34L159.44,210.34L159.8,236.41L160.16,236.16L160.53,232.27L161.25,243.39L161.61,231.39L161.97,224.27L162.34,240.39L162.7,265.49L163.06,244.53L163.42,231.97L163.79,213.08L164.15,227.27L164.51,226.04L164.87,225.18L165.24,252.33L165.6,254.53L165.96,246.87L166.69,231.94L167.05,205.1L167.77,240.03L168.13,236.38L168.5,231.75L169.22,215.42L169.58,216.03L169.95,235.44L170.67,246.27L171.03,234.65L171.4,238.1L171.76,255.03L172.12,240.35L172.48,242.54L172.85,262.6L173.57,246.46L173.93,253.76L174.29,259.94L174.66,246.4L175.02,256.53L175.38,265.38L176.11,274.55L176.47,271.63L176.83,260.04L177.19,243.44L177.56,271L177.92,279.68L178.28,279.63L178.64,274.31L179.73,229.25L180.09,265.17L180.46,260.86L180.82,266.73L181.54,270.56L181.9,235.53L182.27,218.8L182.63,247.66L183.35,264.93L183.72,248.25L184.08,209.4L184.8,212.14L185.17,250.52L186.25,231.37L186.62,235.81L186.98,224.26L187.34,233.41L187.7,264.26L188.06,273.93L188.43,267.64L188.79,268.19L189.51,223.41L189.88,246.72L190.96,268.14L191.33,263.05L192.05,246.78L192.41,219.98L193.5,286.65L193.86,271.43L194.95,219.71L195.31,256.31L195.67,275.63L196.04,272.94L196.4,271.14L196.76,267.75L197.12,297.19L197.49,274.97L197.85,286.48L198.21,304L198.94,297.28L199.3,277.76L200.02,261.92L200.38,272.09L201.47,287.36L201.83,277.56L202.56,259.16L202.92,276.33L203.28,302.78L203.65,295.7L204.01,286.69L205.1,234.26L205.46,253.37L206.54,290.47L206.91,258.83L207.27,254.55L207.63,233.04L208.36,283.58L208.72,283L209.08,277.67L210.17,256.7L210.53,273.76L210.89,300.76L211.26,296.57L211.62,288.33L212.34,271.93L212.71,234.28L213.43,290.28L213.79,288.73L214.15,290.59L214.52,279.82L214.88,238.96L215.24,215.99L215.6,264.64L216.33,277.62L216.69,273.33L217.05,271.19L217.42,247.79L217.78,234.96L218.14,262.39L218.87,285.41L219.23,270.9L220.31,222.77L220.68,264.15L221.4,272.41L221.76,250.5L222.13,209.14L222.49,218.76L222.85,235.57L223.58,263.76L223.94,255.41L224.3,252.94L225.39,225.72L225.75,254.33L226.84,272.82L227.2,250.12L227.92,227.48L228.29,243.87L229.01,263.07L229.37,242.93L230.46,219.43L230.82,239.94L231.19,234.69L231.55,246.32L231.91,256.71L232.27,244.27L232.63,215.83L233,227.68L233.36,246.19L233.72,258.49L234.08,257.77L234.45,254.2L235.17,217.25L235.53,227.73L235.9,250.87L236.98,265.22L237.35,261.19L238.07,234.88L238.43,277.06L238.79,276.56L239.16,281.42L239.52,292.13L239.88,279.1L240.61,245.49L240.97,281.72L241.69,282.49L242.06,267.65L242.42,274.17L242.78,243.73L243.14,247.7L243.51,269.41L243.87,286.38L244.23,274.38L244.59,281.09L245.68,246.53L246.04,270.79L246.4,271.95L246.77,275.92L248.22,253.71L248.58,269.73L249.67,284.56L250.03,282.78L250.39,265.52L250.75,243.73L251.12,271.17L251.48,287.35L251.84,278.17L252.2,261.19L252.56,260.72L252.93,221.97L253.29,175.71L253.65,182.53L254.01,217.23L254.38,218.62L254.74,215.87L255.83,179.63L256.19,192.13L256.91,190.62L257.28,198.64L258.72,164.06L259.09,179.41L260.9,146.31L261.26,151.71L261.99,106.2L262.35,226.76L262.71,243.71L263.07,230.46L263.44,219.38L263.8,215.84L264.16,88.18L264.88,234.14L265.25,233.77L265.61,236.31L265.97,229.77L266.33,255.06L266.7,252.59L267.06,256.71L267.42,259.85L267.78,253.6L268.51,224.75L268.87,261.09L269.96,265.8L270.32,252.48L271.04,228.19L271.41,243.82L271.77,257.07L272.49,256.09L272.86,239.14L273.58,120.4L273.94,233.3L275.76,252.46L276.12,233.43L276.48,250.31L276.84,242.12L277.21,243.24L277.57,245.8L277.93,232.93L278.29,249.82L278.65,231.07L279.38,261.74L279.74,258.28L280.1,253.82L280.47,259.3L280.83,234.1L281.19,226.35L281.55,257.66L281.92,267.16L282.28,255.05L282.64,248.69L283,249.74L283.37,208.07L284.81,230.42L285.18,220.42L285.54,232.15L285.9,214.4L286.26,212.83L286.63,235.8L286.99,253.93L287.35,248.18L287.71,242.09L288.08,244.67L288.44,221.46L288.8,223.44L289.16,241.14L289.53,256.52L289.89,253.02L290.25,253.27L290.61,247.69L290.97,225.81L291.34,226.66L291.7,251.99L292.06,263.15L292.42,259.04L292.79,253.27L293.15,278.26L293.51,220.05L293.87,216.64L294.24,245.52L294.96,262.83L295.32,260.68L295.69,263.4L296.05,236.59L296.41,244.66L296.77,275.82L297.13,285.47L297.5,276.78L297.86,273.3L298.95,239.66L299.31,269.61L299.67,280.94L300.03,275.87L300.4,276.49L301.48,224.53L301.85,254.4L302.21,260.33L302.57,259.02L302.93,254.75L304.02,208.06L304.38,222.94L305.47,250.82L305.83,246.28L306.19,253.48L306.56,238.55L307.64,272.06L308.01,271.64L308.37,269.01L308.73,242.65L309.09,237.02L309.46,258.81L309.82,262.54L310.18,259.07L310.54,258.08L311.63,205.12L311.99,230.01L312.35,251.62L312.72,237.46L313.08,247.73L313.44,246.82L313.8,233.56L314.17,224.67L314.53,246.09L314.89,255.02L315.25,252.03L315.62,244.04L316.34,224.27L316.7,209.17L317.79,241.36L318.15,244.45L319.24,209.01L319.6,225.52L319.96,242.27L320.33,239.97L320.69,235.99L321.05,245.53L321.41,215.1L321.78,198.53L322.14,220.72L323.22,232.35L323.59,215.41L324.31,171.52L324.67,231.66L325.04,231.24L325.4,232.46L325.76,232.12L326.12,235.82L326.85,179.78L327.21,225.95L327.57,225.38L327.94,222.08L328.3,225.84L328.66,193.93L329.02,195.7L329.38,170.83L329.75,197.21L330.11,193.82L330.47,191.66L331.2,207L331.56,195.04L331.92,178.94L332.28,201.87L332.65,214.31L333.01,212.26L333.37,197.46L333.73,195.17L334.1,170.52L334.46,140.25L334.82,176.8L335.54,180.76L335.91,177.9L336.99,155.52L337.36,177.5L338.08,191.62L338.44,188.96L338.81,192.75L339.17,178.94L339.53,160.32L339.89,193.48L340.26,206.19L340.62,203.75L340.98,199.38L341.34,193.26L341.71,173.64L342.07,144.49L342.43,182.22L342.79,196.15L343.52,195.67L343.88,174.33L344.24,186.53L344.6,167.46L345.33,199.9L345.69,181.78L347.14,146.75L347.5,179.03L347.87,188.33L348.23,174.93L348.95,163.32L349.31,169.37L349.68,153.38L350.04,168.9L350.4,171.55L351.13,160.76L351.49,163.89L351.85,231.76L352.21,184.23L352.58,189.28L352.94,212L354.03,151.85L354.39,195.18L354.75,158.42L355.11,179.89L355.47,190.25L355.84,192.28L356.2,183.21L356.56,179.67L356.92,185.22L357.29,157.19L357.65,175.45L358.01,188.04L358.37,190.9L358.74,179.04L359.1,172.97L359.46,153.32L360.19,163.41L360.55,172.37L360.91,180.63L361.27,166.51L361.63,164.98L362,126.95L362.36,123.88L362.72,124.19L363.08,157.75L363.45,143.92L363.81,146.53L364.17,155.1L364.9,140.61L365.26,148.75L365.98,165.55L366.35,160.32L366.71,162.48L367.43,140.78L367.79,156.72L368.16,179.6L368.52,175.63L368.88,164.02L369.24,162.25L369.61,144.24L369.97,133.1L370.33,160.03L370.69,168.79L371.06,162.32L371.42,166.06L371.78,153.82L372.14,189.54L372.51,163.71L372.87,185.54L373.23,194.82L373.59,195.14L373.96,168.9L374.32,176.16L374.68,143.13L375.04,139.26L375.4,157.76L376.13,159.93L376.49,156.07L376.85,151.97L377.22,123.53L377.58,122.14L377.94,135.15L379.03,146.44L379.39,147.63L380.12,130.2L380.48,149.85L380.84,159.49L381.2,146.36L381.93,156.38L382.29,140.53L382.65,139.53L383.01,159.28L383.38,160.23L383.74,154.34L384.46,161.36L384.83,146.64L385.55,119.15L385.91,156.97L386.28,150.7L386.64,153.55L387,160.29L387.72,139.33L388.09,152.89L388.45,165.9L388.81,161.68L389.17,161.5L389.54,161.83L389.9,148.74L390.62,125.09L390.99,153.36L391.35,157.56L391.71,140.3L392.8,101.31L393.16,118.38L393.52,119.54L393.88,93.78L394.25,85.71L394.61,157.05L394.97,181.06L395.33,167.86L395.7,166.71L396.06,162.2L396.42,81.6L397.51,167.11L397.87,159.8L398.6,172.65L398.96,172.46L399.32,162.51L400.04,154.38L400.41,155.7L400.77,169.02L401.86,179.05L402.22,171.96L402.58,209.68L402.94,197.87L403.31,207.28L403.67,204.7L404.03,187.34L404.39,190.73L404.76,186.96L405.48,154.93L405.84,98.77L406.57,172.59L406.93,165.04L407.29,164.9L408.02,137.5L408.38,160.43L408.74,153.53L409.1,156.89L409.47,155.56L409.83,157.9L410.19,140.98L410.55,143.83L410.92,170.91L411.28,169.92L411.64,166.7L412,159.96L412.37,161.58L412.73,167.34L413.45,150.65L413.81,152.76L414.54,135.28L414.9,140.89L415.26,138.58L415.63,144.88L415.99,164.17L416.35,160.07L416.71,161.88L417.08,175L417.8,156.98L418.16,142.39L419.25,177.09L419.61,172.04L419.97,173.98L420.34,170.82L420.7,162.31L421.06,175.46L421.79,171.73L422.15,164.51L423.24,156.64L423.6,170.25L423.96,179.35L424.32,165.39L424.69,161.85L425.05,149.5L425.41,155.56L425.77,145.74L426.86,183.54L427.22,176.59L427.58,171.43L427.95,139.6L428.31,129.21L428.67,158.31L429.4,168.36L429.76,149.11L430.12,156.24L430.48,127.24L431.21,137.01L431.57,156.78L431.93,164.45L432.29,157.34L432.66,134.33L433.02,108.98L433.38,110.12L433.74,118.63L435.19,162.36L435.56,136.9L435.92,136.74L436.28,174.12L437.37,179.06L437.73,173.93L438.09,168.38L438.46,149.26L439.18,184.88L439.54,178.33L439.9,181.45L440.27,178.95L440.63,166.17L440.99,136.75L441.35,161.11L441.72,170.6L442.08,169.65L442.44,176.65L443.53,119.45L443.89,139.39L444.98,159.09L445.34,159.74L446.06,109.94L446.43,150.15L447.51,165.09L447.88,168.12L448.24,167.75L448.6,132.25L448.96,169.69L449.69,167.8L450.05,164.33L451.14,155.47L451.5,161.35L452.22,169.07L452.59,160.86L453.31,131.83L453.67,111.84L454.76,163.39L455.12,162.07L455.49,159.69L456.21,110.7L456.57,136.48L457.3,153.08L457.66,150.39L458.02,153.61L458.75,101.07L459.11,123.21L459.47,154.24L460.2,164.78L460.56,135L460.92,128.84L461.28,102.55L462.37,151.52L462.73,145.91L463.1,142.97L463.46,112.15L463.82,103.96L464.18,133.32L464.91,145.11L465.27,136.24L465.63,136.61L465.99,108.43L466.72,158.18L467.08,156.27L467.44,155.91L468.17,142.23L468.53,120.92L468.89,121.05L469.26,151.2L469.98,158.72L470.34,152.57L470.71,144.67L471.07,170.17L471.43,166.71L471.79,182.06L472.15,208.59L472.52,207.01L472.88,188.99L473.97,174.02L474.33,178.61L474.69,204.69L475.05,197.22L475.42,188.64L475.78,183.36L476.14,164.76L476.5,164.22L476.87,188.97L477.23,196.03L477.59,187.91L477.95,186.13L478.31,164.67L479.04,150.08L479.4,186.7L480.13,192.35L480.49,172.53L481.21,142.13L481.58,145.49L481.94,163.24L482.66,191.01L483.03,170.18L483.39,174.57L483.75,147.07L484.11,115.37L484.47,173.89L484.84,183.94L485.2,176.96L485.56,174.85L485.92,172.69L486.29,149.55L486.65,120.45L487.01,158.68L487.37,179.28L487.74,176.1L488.1,170.25L488.82,124.17L489.19,108.38L489.91,168.51L490.27,157.61L490.63,147.21L491.72,102.79L492.08,147.55L493.17,129.93L493.53,130.9L494.62,145.62L494.98,152.24L495.35,155.53L495.71,154.08L496.07,136.29L496.79,115.8L497.16,127.11L497.52,142.63L497.88,138.2L498.24,141.14L498.61,135.13L498.97,113.23L499.33,92.79L499.69,119.03L500.42,136.44L500.78,136.19L501.14,131.59L501.87,112.59L502.23,131.29L502.96,147.31L503.32,132.56L504.4,115.29L504.77,151.48L505.49,169.32L505.85,151.02L506.22,152.53L506.58,142.51L506.94,100.86L507.3,144.9L507.67,162.64L508.03,155.91L508.39,171.72L509.48,132.9L509.84,145.73L510.2,163.34L510.56,161.56L510.93,157.9L511.29,152.22L511.65,119.32L512.01,103.41L512.38,121.62L512.74,156.39L513.1,148.24L513.46,136.63L514.55,100.65L514.91,122.86L515.64,141.38L516,114.65" style="vector-effect: non-scaling-stroke; fill: none; stroke: rgb(239, 85, 59); stroke-opacity: 1; stroke-width: 2px; opacity: 1;"/></g><g class="points"/><g class="text"/></g><g class="trace scatter trace1a39d1" style="stroke-miterlimit: 2; opacity: 1;"><g class="fills"/><g class="errorbars"/><g class="lines"><path class="js-line" d="M0,176.08L0.72,190.5L1.09,188.85L1.45,179.78L1.81,170.72L2.17,171.11L2.54,199.37L2.9,182.7L3.26,198.62L3.62,191.43L4.71,177.32L5.07,186.69L5.44,186.07L5.8,191.15L6.16,176.85L6.88,177.64L7.25,177.89L8.7,200.17L9.06,191.33L9.78,159.84L10.15,182.68L10.87,196.26L11.23,193.2L11.6,194.26L12.32,167.38L12.68,171.3L13.04,186.27L13.41,186.89L13.77,176.65L14.13,182.29L14.49,171.46L14.86,169.53L15.22,190.52L15.94,216.53L16.31,210.13L17.03,197.15L17.39,175.77L18.48,202.52L18.84,198.71L19.21,205.72L19.57,177.69L19.93,181.06L20.29,200.51L20.65,214.37L21.02,203.76L21.38,208.71L22.47,174.25L22.83,184.51L23.92,203.48L24.28,203.01L25,187.14L25.37,187.35L25.73,184L26.09,178.69L26.45,193.19L27.18,190.17L27.54,197.3L28.63,237.62L28.99,233.34L29.35,229.49L29.71,217.08L30.08,218.28L30.44,250.12L31.16,220.17L31.53,220.93L31.89,220.37L32.61,203.16L32.97,218.82L33.7,231.84L34.06,229.56L34.42,224.75L34.79,210.21L35.15,214.56L35.51,227.29L35.87,203.64L36.24,214.44L36.6,221.04L37.69,192.06L38.05,204.88L38.41,216.04L38.77,205.44L39.13,205.45L40.22,185.42L40.58,198.61L42.03,165.81L42.4,180.15L43.12,174.58L43.48,178.78L44.21,200.78L44.57,173.61L45.29,162.17L45.66,175.47L47.11,184.85L47.47,168.69L47.83,158.21L48.19,174.97L48.56,187.53L48.92,184.78L49.28,184.9L49.64,180.38L50.01,189.9L50.37,175.5L50.73,191.7L51.46,196.49L51.82,198.31L52.18,194.66L52.54,169.66L52.9,171.83L53.27,182.16L53.63,181.32L54.72,189.24L55.44,159.96L55.8,174.26L56.17,181.81L56.53,186L56.89,180.89L57.98,153.17L58.34,172.7L59.79,193.63L60.15,186.34L60.51,179.24L60.88,191.44L61.24,190.89L61.6,195.06L61.96,191L62.33,203.25L62.69,192.89L63.05,197.55L63.41,210.71L64.5,199.57L64.86,201.15L65.22,174.78L65.59,175.23L65.95,187.29L67.04,191.33L67.4,179.14L67.76,179.22L68.12,169.14L68.49,187.02L68.85,183.52L69.21,177.19L69.94,190.97L70.3,173.96L70.66,145.19L71.02,191.43L72.11,174.59L72.47,187.04L72.83,202.6L73.2,182.25L73.92,196.21L74.28,195.9L74.65,185.93L75.01,193.21L75.37,177.31L75.73,149.08L76.1,181.83L77.18,202.43L77.54,191.26L78.27,139.45L78.63,195.71L79.72,212.09L80.08,209.37L80.81,151.54L81.17,203.32L81.89,217.26L82.26,213.35L82.62,207.75L83.34,151.09L83.71,196.05L84.07,196.19L84.43,188.77L84.79,199.86L85.15,181.87L85.52,181.42L85.88,169.48L86.24,208.86L86.6,205.47L86.97,189.34L87.33,196.91L87.69,195.94L88.05,177.66L88.42,172.98L88.78,197.33L89.14,195.65L89.5,187.2L89.87,188.86L90.23,194.61L90.95,165.6L91.31,199.87L92.4,185.32L92.76,186.35L93.13,194.75L93.49,171.2L93.85,211.26L94.21,193.84L94.58,197.94L94.94,198.67L95.3,201.02L95.66,178.63L96.03,158.67L96.39,193.85L97.47,204.48L97.84,204.59L98.56,161.13L98.92,183.84L99.29,194.88L99.65,173.64L100.01,178.41L100.37,174.2L100.74,169.36L101.1,159.03L101.46,202.01L101.82,203.95L102.19,199.16L103.63,150L104,184.8L104.36,203.63L104.72,194.19L105.08,196.58L106.17,146.77L106.53,173.8L106.9,202.72L107.26,187.94L107.62,199.71L107.98,190.18L108.35,151.02L108.71,146.05L109.07,168.37L110.16,200.54L110.52,191.89L111.61,213.74L111.97,222.38L112.33,231.78L112.69,229.4L113.06,218.29L113.78,180.78L114.14,203.47L114.51,216.14L114.87,208.19L115.23,205.86L116.32,173.36L116.68,200.93L117.4,190.7L118.13,193.86L118.85,155.84L119.22,174.86L119.58,186.57L119.94,182.26L120.3,180.91L120.67,186.42L121.03,157.87L121.39,136.84L121.75,158.15L122.12,199L123.2,188.01L123.56,155.45L123.93,117.1L124.29,160.01L124.65,175.74L125.01,160.72L125.38,161.78L125.74,165.37L126.1,124.73L126.46,123.5L126.83,137L127.19,149.83L127.55,143.26L127.91,146.57L129.72,48.87L130.09,184.7L131.54,115.87L132.26,150.71L133.35,182.83L133.71,175.12L134.07,162.24L135.16,203.96L135.52,189.97L136.25,198L136.61,154.64L137.7,210.99L138.06,207.14L138.42,205.6L139.15,158.18L139.51,187.24L139.87,218.49L140.23,199.03L140.6,186.26L140.96,186.79L141.32,180.4L141.68,150.99L142.04,177.77L142.41,201.33L143.49,218.23L143.86,206.65L144.22,191.39L144.58,195.83L144.94,196.46L146.03,208.37L146.39,199.01L146.76,176.46L147.12,243.02L147.48,214.71L147.84,232.5L148.21,230.37L149.29,174.06L149.65,224.67L150.38,212.28L150.74,221.43L151.1,213.05L151.47,185.01L151.83,162.06L152.19,218.02L152.55,231.08L152.92,218.02L153.28,228.78L153.64,225.7L154,200.83L154.37,185.32L154.73,218.93L155.81,240.67L156.18,243.07L156.9,184.68L157.26,224.55L157.63,241.12L157.99,239.88L158.35,226.48L158.71,231.39L159.08,224.15L159.44,197.01L159.8,234.99L160.16,238.41L160.53,222.34L160.89,233.11L161.25,220.28L161.61,186.74L161.97,192.77L162.34,222.51L163.06,230.49L163.42,206.64L163.79,187.77L164.15,193.6L164.51,190.83L164.87,192.82L165.24,210.55L165.96,237.22L166.32,234.6L166.69,203.96L167.41,234.71L167.77,229.21L168.13,233.3L168.5,239.48L168.86,225.11L169.58,194.55L169.95,231.56L171.03,218.7L171.4,215.62L171.76,214.89L172.12,221.8L172.85,237.89L173.21,227.6L173.57,222.59L173.93,225.44L174.29,233.39L174.66,224.02L175.02,251.94L175.38,268.98L175.74,256.81L176.11,255.61L176.47,255.72L176.83,236.57L177.19,219.97L177.56,260.02L177.92,256.45L178.28,264.32L178.64,265.96L179.01,260.34L179.73,214.67L180.09,254.45L180.46,243.01L180.82,248.31L181.18,256.26L181.54,260.15L181.9,236.35L182.27,214.05L182.63,240.22L183.35,269.49L183.72,239.21L184.08,235.91L184.44,246.65L184.8,203.18L185.17,236.84L185.53,241.4L185.89,246.94L186.25,233.73L186.62,236.69L186.98,215.51L187.34,215.94L187.7,237.41L188.43,271.58L188.79,269.1L189.15,268.67L189.88,231.54L190.24,261.16L190.96,274.74L191.33,260.14L191.69,254.81L192.05,229.96L192.41,210.01L192.78,250.7L193.5,284.68L193.86,275.8L194.22,264.58L194.95,213.11L195.31,240.64L195.67,260.13L196.04,241.74L196.4,236.19L196.76,219.35L197.12,272.45L197.49,251.51L197.85,280.02L198.21,288.65L198.57,286.57L198.94,282.96L199.3,281.04L199.66,257.17L200.02,232.98L200.38,245.99L200.75,258.12L201.47,255.24L201.83,247.52L202.2,244.88L202.56,230.05L203.65,246.82L204.01,245.7L204.37,253.13L204.73,231.88L205.1,208.96L205.46,244.8L206.54,252.63L206.91,250.53L207.63,213.11L207.99,223.97L208.36,234.17L209.81,251.39L210.17,249.77L210.53,271.91L211.62,260.07L211.98,266.41L212.34,255.1L212.71,207.64L213.79,264.76L214.15,254.01L214.52,250.91L214.88,229.73L215.24,228.51L215.6,250.39L216.33,268.87L216.69,264.85L217.05,260.9L217.42,242.21L218.14,249.41L218.87,266.3L219.23,262.84L219.59,237.11L219.95,230.73L220.31,196.48L221.04,249.97L221.4,249.48L221.76,250.02L222.85,207.32L223.21,240.42L223.94,252.59L224.3,238.53L224.66,244.47L225.03,210.76L225.39,172.95L225.75,248.91L226.47,264.18L226.84,253.8L227.56,232.71L227.92,185.66L228.65,260.18L229.01,258.69L229.37,234.32L230.1,209.58L230.46,182.83L230.82,229.23L231.19,223.9L231.55,217.47L231.91,217.72L232.27,226.41L233,188.82L233.36,236.15L234.45,205.55L234.81,205.85L235.17,210.1L235.53,185.97L236.26,231.33L236.62,228.67L236.98,232L238.07,167.31L238.43,193.98L239.52,258.25L239.88,252.7L240.61,213.54L240.97,265.9L241.33,272.06L241.69,264.6L242.78,225.21L243.14,237.62L244.23,256.86L244.59,266.02L244.96,264.86L245.32,258.84L245.68,232.02L246.04,262.83L247.49,225.36L247.85,202.72L248.22,195.27L248.58,247.71L248.94,265.76L249.3,259.43L249.67,246.35L250.75,214.52L251.12,249.92L251.48,250.52L251.84,241.94L252.56,218.39L252.93,170.98L253.29,132.07L253.65,159.21L254.01,204.47L254.38,199.08L254.74,182.6L255.83,145.74L256.19,152.21L256.55,189.11L258.36,127.85L258.72,145.27L259.09,165.1L259.45,150.12L259.81,140.63L260.9,108.26L261.26,122.88L261.99,87.02L262.35,181.17L263.07,158.04L263.44,160.76L263.8,164.57L264.16,53.98L264.52,160.13L264.88,174.13L265.25,193.92L265.61,166.79L265.97,163.57L266.33,190.56L266.7,206.26L267.06,201.94L267.42,203.82L267.78,202L268.15,195.85L268.51,173.2L268.87,215.06L269.6,230.12L269.96,225.59L270.32,203.23L271.04,175.65L271.41,205.76L272.13,218L272.49,213.46L272.86,208.26L273.22,168.32L273.58,163.48L273.94,183.17L275.03,225.35L275.39,210.82L276.12,175.77L276.48,206.98L276.84,222.88L277.21,201.55L277.57,195.07L277.93,213.09L278.65,170.51L279.02,211.58L279.38,219.51L279.74,218.97L280.1,214.16L280.47,228.19L280.83,193.49L281.19,175.37L281.55,221.75L281.92,227.73L282.28,222.99L282.64,220.37L283.37,196.66L283.73,200.07L284.09,231.11L284.45,232L284.81,216.8L285.54,223.97L285.9,177.5L286.26,174.56L286.63,196.67L287.35,232.28L287.71,226.08L288.08,231.62L288.8,171.38L289.16,242.14L289.53,230.26L289.89,232.09L290.25,231.74L290.61,234.15L290.97,207.19L291.34,166.9L291.7,232.34L292.06,229.27L292.42,235.11L293.87,170.39L294.24,222.9L294.96,226.86L295.32,225.1L295.69,251.94L296.05,221.94L296.41,197.15L296.77,254.51L297.13,277.54L297.5,260.23L297.86,248.93L298.22,252.32L298.58,243.48L298.95,203.66L299.31,254.06L299.67,267.03L300.03,256.22L300.4,255.41L301.48,190.21L301.85,220.33L302.21,235.74L302.57,231.67L302.93,225.07L304.02,169.78L304.38,193.17L304.74,227.96L305.11,223.07L305.47,216.15L305.83,211.22L306.19,227.55L306.56,193.42L306.92,251.25L307.28,250.97L307.64,246.4L308.37,236.56L308.73,187.48L309.09,190.95L309.46,236.77L309.82,246.3L310.18,245.54L310.54,235.5L311.63,190.72L311.99,240.12L312.35,233.05L312.72,247.75L313.08,241.6L313.44,251.99L314.17,184.97L314.53,246.71L316.34,190.88L316.7,170.55L317.43,238.51L317.79,229.64L318.15,214.12L319.24,181.93L319.6,195.95L320.33,228.17L320.69,223.41L321.05,227.33L321.78,175.87L322.14,218.68L322.5,224.55L322.86,222.25L323.22,213.86L324.31,172.06L324.67,191.08L325.4,210.81L325.76,207.91L326.12,205.66L326.85,163.74L327.21,204.47L327.57,205.98L327.94,201.6L329.38,151.85L329.75,192.36L330.83,207.73L331.2,208.02L331.92,169.45L332.28,201.36L332.65,202.86L333.01,202.35L333.37,181.06L333.73,179.08L334.1,153.03L334.46,134.54L334.82,192.02L335.18,201.04L335.54,200.88L335.91,173.49L336.27,176.72L336.63,142.49L336.99,136.14L337.36,184.45L337.72,198.48L338.08,192.32L338.44,183.77L338.81,179.86L339.17,164.15L339.53,156.5L339.89,202.81L340.26,201.37L340.62,195.79L342.07,138.65L342.43,188.23L342.79,205.81L343.15,194.45L343.52,182.1L343.88,185.36L344.24,153.3L344.6,132.64L344.97,172.52L345.33,188.93L345.69,178.83L346.05,174.26L346.42,172.5L346.78,132.72L347.14,119.44L347.5,147.15L347.87,157.97L348.23,152.83L348.59,150.38L348.95,147.41L349.31,127.78L349.68,127L350.04,151.75L350.4,153.2L350.76,160.15L351.13,156.5L351.49,159.45L351.85,181.63L352.21,159.79L352.58,178.27L352.94,204.1L354.75,116.65L355.11,155.27L355.84,171.69L356.2,170.38L356.92,151.48L357.29,117.64L358.01,166.85L358.37,165.13L358.74,150.58L359.1,140.32L359.46,98.86L359.82,72.9L360.19,120.04L360.91,146.08L361.27,138.21L361.63,129.19L362,92.48L362.36,81.63L362.72,104.36L363.81,132.47L364.17,125.93L364.9,86.98L365.26,122.8L365.62,135.32L365.98,127.96L366.35,126.63L366.71,127.23L367.07,102.93L367.43,89.35L367.79,122.47L368.16,143.63L368.52,132.11L368.88,135.47L369.24,134.33L369.61,111.67L369.97,90.48L370.33,124.79L371.42,149.65L371.78,123.93L372.14,130.35L372.51,109.82L373.59,166.22L373.96,160.9L374.32,145.07L375.04,98.7L375.4,117.59L375.77,149.06L376.13,140.42L376.49,150.96L377.58,109.83L377.94,147.51L378.3,149.5L378.67,135.32L379.03,136.08L379.39,132.32L380.12,91.7L380.48,125.69L381.56,153.84L381.93,140.82L382.65,100.64L383.01,131.25L384.1,143.85L384.46,141.15L384.83,139.33L385.19,96.03L386.28,125.68L386.64,109.13L387,149.75L387.36,113.74L387.72,79.43L388.45,161.85L388.81,135.6L389.17,130.34L389.54,126.58L389.9,111.82L390.26,85.43L390.62,111.32L390.99,144.84L392.8,76.75L393.16,76.09L393.52,86.45L393.88,64.58L394.25,59.78L394.61,123.42L394.97,127.92L395.33,119.99L396.06,129.39L396.42,16L397.51,139.41L397.87,127.9L398.96,158.6L399.32,144.14L400.04,137.43L400.41,121.83L400.77,132.94L401.13,169.54L402.22,144.83L402.58,177L403.31,149.63L403.67,181.45L404.03,177.62L404.39,165.5L405.48,93.13L405.84,100.24L406.21,138.66L406.57,172.81L406.93,155.24L407.29,137.33L408.02,93.57L408.38,128.72L409.1,151.13L409.47,116.6L410.55,79.04L411.28,140.4L412,130.38L412.37,136.71L413.09,68.38L413.45,109.83L414.54,128.85L414.9,118.68L415.26,110.43L415.63,117.01L415.99,145.05L416.35,158.11L416.71,148.42L417.08,128.49L417.44,123.67L417.8,89.71L418.16,92.86L418.53,127.83L418.89,156.36L419.25,148.27L419.61,144.75L420.7,112.58L421.06,141.54L421.42,165.09L421.79,155.65L422.15,155.37L423.24,104.19L423.6,142.13L423.96,162.93L424.32,160.26L424.69,158.43L425.05,149.85L425.41,159.58L425.77,155.51L426.13,164L426.5,183.26L426.86,165.77L427.22,159.14L427.58,149.3L427.95,113.62L428.31,102.51L428.67,120.79L429.03,150.85L429.4,126.8L429.76,119.68L430.12,124.18L430.48,105.12L430.85,88.92L431.21,126.82L432.29,156.53L432.66,139.71L433.38,96.41L433.74,151.12L434.47,183.24L434.83,175.08L435.19,184.04L435.92,123.23L436.28,161.6L436.64,189.18L437.01,166.47L437.37,172.86L437.73,176.97L438.09,156.14L438.46,139.36L438.82,145.22L439.18,184.27L439.54,183.7L439.9,176.98L440.27,168.88L440.63,141.57L440.99,132.69L441.35,171.73L442.08,182.74L442.44,148.42L442.8,152.3L443.17,118.35L443.53,85.95L443.89,134.43L444.25,158.83L444.62,154.43L444.98,130.36L445.34,126.29L445.7,97.88L446.06,84.31L446.43,129.4L446.79,139.08L447.15,132.73L447.51,138.21L448.24,111.6L448.6,92.75L449.33,160.84L449.69,138.97L450.41,151.14L450.78,127.54L451.14,88.2L451.5,112.66L451.86,128.85L452.22,131L452.59,138.47L453.67,100.83L454.04,145.79L454.4,156.29L454.76,147.98L455.12,147.02L455.49,141.85L455.85,117.72L456.21,89.5L456.57,144.92L456.94,151.04L457.3,149.44L457.66,136.77L458.75,83.24L459.11,120.57L459.83,134.89L460.2,126.77L460.92,113.49L461.28,87.93L462.01,141.86L462.37,122.31L463.82,85.49L464.18,125.22L464.54,141.6L464.91,128.39L465.27,124.7L466.36,99.87L466.72,145.54L467.81,158.36L468.17,151.29L468.89,117.29L469.26,153.01L469.62,165.37L469.98,159.15L470.34,158.51L471.43,130.74L471.79,169.43L472.52,205.7L472.88,196.05L473.97,155.36L474.33,186.93L474.69,205.27L475.05,202.61L475.42,194.72L475.78,192.27L476.14,161.83L476.5,130.78L476.87,185.86L477.23,189.59L477.59,187.06L477.95,185.95L479.04,115.52L479.4,186.79L479.76,188.04L480.13,193.48L481.21,138.04L481.58,108.72L482.3,198.51L482.66,193.08L483.03,191.87L483.75,144.58L484.11,99.63L485.2,185.15L485.56,166.78L486.65,100.45L487.01,157.84L487.37,161.32L487.74,158.26L488.1,155.68L488.46,155.19L488.82,114.09L489.19,73.53L489.55,147.78L489.91,164.38L490.27,153.03L490.63,150.07L491,149.02L491.36,101.59L491.72,71.74L492.08,122.71L492.45,141.53L492.81,140.87L493.17,126.21L493.53,121.08L493.9,102.2L494.26,77.6L494.62,133.04L494.98,144.25L495.35,118.39L496.07,113.67L496.43,90L496.79,60.56L497.16,109.96L497.88,119.87L498.24,111.48L498.61,107.53L498.97,53.95L499.33,40.57L499.69,113L500.42,121.56L500.78,112.7L501.14,117.36L501.51,71.42L501.87,49.64L502.23,116.2L502.59,136.64L502.96,115.91L503.32,109.79L503.68,105.15L504.04,42.55L504.4,16.02L504.77,39.29L505.13,104.42L505.49,123.95L505.85,114.1L506.22,122.35L506.94,68.65L507.3,134.99L507.67,148.89L508.03,147.98L508.39,138.94L508.75,136.17L509.12,112.29L509.48,73.9L509.84,135.14L510.2,154.8L510.56,153.75L510.93,131.81L512.01,55.33L512.38,85.05L512.74,122.28L513.1,121.4L513.46,116.04L514.55,47.47L514.91,89.81L516,124.04" style="vector-effect: non-scaling-stroke; fill: none; stroke: rgb(0, 204, 150); stroke-opacity: 1; stroke-width: 2px; opacity: 1;"/></g><g class="points"/><g class="text"/></g></g></g><g class="overplot"/><path class="xlines-above crisp" d="M0,0" style="fill: none;"/><path class="ylines-above crisp" d="M0,0" style="fill: none;"/><g class="overlines-above"/><g class="xaxislayer-above"><g class="xtick"><text text-anchor="middle" x="0" y="433" transform="translate(80,0)" style="font-family: 'Open Sans', verdana, arial, sans-serif; font-size: 12px; fill: rgb(42, 63, 95); fill-opacity: 1; white-space: pre;">2017</text></g><g class="xtick"><text text-anchor="middle" x="0" y="433" transform="translate(212.26,0)" style="font-family: 'Open Sans', verdana, arial, sans-serif; font-size: 12px; fill: rgb(42, 63, 95); fill-opacity: 1; white-space: pre;">2018</text></g><g class="xtick"><text text-anchor="middle" x="0" y="433" transform="translate(344.52,0)" style="font-family: 'Open Sans', verdana, arial, sans-serif; font-size: 12px; fill: rgb(42, 63, 95); fill-opacity: 1; white-space: pre;">2019</text></g><g class="xtick"><text text-anchor="middle" x="0" y="433" transform="translate(476.78,0)" style="font-family: 'Open Sans', verdana, arial, sans-serif; font-size: 12px; fill: rgb(42, 63, 95); fill-opacity: 1; white-space: pre;">2020</text></g></g><g class="yaxislayer-above"><g class="ytick"><text text-anchor="end" x="79" y="4.199999999999999" transform="translate(0,418.39)" style="font-family: 'Open Sans', verdana, arial, sans-serif; font-size: 12px; fill: rgb(42, 63, 95); fill-opacity: 1; white-space: pre;">0.42</text></g><g class="ytick"><text text-anchor="end" x="79" y="4.199999999999999" transform="translate(0,377.43)" style="font-family: 'Open Sans', verdana, arial, sans-serif; font-size: 12px; fill: rgb(42, 63, 95); fill-opacity: 1; white-space: pre;">0.44</text></g><g class="ytick"><text text-anchor="end" x="79" y="4.199999999999999" transform="translate(0,336.46000000000004)" style="font-family: 'Open Sans', verdana, arial, sans-serif; font-size: 12px; fill: rgb(42, 63, 95); fill-opacity: 1; white-space: pre;">0.46</text></g><g class="ytick"><text text-anchor="end" x="79" y="4.199999999999999" transform="translate(0,295.5)" style="font-family: 'Open Sans', verdana, arial, sans-serif; font-size: 12px; fill: rgb(42, 63, 95); fill-opacity: 1; white-space: pre;">0.48</text></g><g class="ytick"><text text-anchor="end" x="79" y="4.199999999999999" transform="translate(0,254.53)" style="font-family: 'Open Sans', verdana, arial, sans-serif; font-size: 12px; fill: rgb(42, 63, 95); fill-opacity: 1; white-space: pre;">0.5</text></g><g class="ytick"><text text-anchor="end" x="79" y="4.199999999999999" transform="translate(0,213.56)" style="font-family: 'Open Sans', verdana, arial, sans-serif; font-size: 12px; fill: rgb(42, 63, 95); fill-opacity: 1; white-space: pre;">0.52</text></g><g class="ytick"><text text-anchor="end" x="79" y="4.199999999999999" transform="translate(0,172.6)" style="font-family: 'Open Sans', verdana, arial, sans-serif; font-size: 12px; fill: rgb(42, 63, 95); fill-opacity: 1; white-space: pre;">0.54</text></g><g class="ytick"><text text-anchor="end" x="79" y="4.199999999999999" transform="translate(0,131.63)" style="font-family: 'Open Sans', verdana, arial, sans-serif; font-size: 12px; fill: rgb(42, 63, 95); fill-opacity: 1; white-space: pre;">0.56</text></g></g><g class="overaxes-above"/></g></g><g class="polarlayer"/><g class="ternarylayer"/><g class="geolayer"/><g class="funnelarealayer"/><g class="pielayer"/><g class="treemaplayer"/><g class="sunburstlayer"/><g class="glimages"/><defs id="topdefs-b1d74f"><g class="clips"/><clipPath id="legendb1d74f"><rect width="82" height="83" x="0" y="0"/></clipPath></defs><g class="layer-above"><g class="imagelayer"/><g class="shapelayer"/></g><g class="infolayer"><g class="legend" pointer-events="all" transform="translate(606.32, 100)"><rect class="bg" shape-rendering="crispEdges" width="82" height="83" x="0" y="0" style="stroke: rgb(68, 68, 68); stroke-opacity: 1; fill: rgb(255, 255, 255); fill-opacity: 1; stroke-width: 0px;"/><g class="scrollbox" transform="translate(0, 0)" clip-path="url('#legendb1d74f')"><text class="legendtitletext" text-anchor="start" x="2" y="15.600000000000001" style="font-family: 'Open Sans', verdana, arial, sans-serif; font-size: 12px; fill: rgb(42, 63, 95); fill-opacity: 1; white-space: pre;">Oceania</text><g class="groups"><g class="traces" transform="translate(0, 30.1)" style="opacity: 1;"><text class="legendtext" text-anchor="start" x="40" y="4.680000000000001" style="font-family: 'Open Sans', verdana, arial, sans-serif; font-size: 12px; fill: rgb(42, 63, 95); fill-opacity: 1; white-space: pre;">Global</text><g class="layers" style="opacity: 1;"><g class="legendfill"/><g class="legendlines"><path class="js-line" d="M5,0h30" style="fill: none; stroke: rgb(99, 110, 250); stroke-opacity: 1; stroke-width: 2px;"/></g><g class="legendsymbols"><g class="legendpoints"/></g></g><rect class="legendtoggle" x="0" y="-9.5" width="76.09375" height="19" style="fill: rgb(0, 0, 0); fill-opacity: 0;"/></g><g class="traces" transform="translate(0, 49.1)" style="opacity: 1;"><text class="legendtext" text-anchor="start" x="40" y="4.680000000000001" style="font-family: 'Open Sans', verdana, arial, sans-serif; font-size: 12px; fill: rgb(42, 63, 95); fill-opacity: 1; white-space: pre;">au</text><g class="layers" style="opacity: 1;"><g class="legendfill"/><g class="legendlines"><path class="js-line" d="M5,0h30" style="fill: none; stroke: rgb(239, 85, 59); stroke-opacity: 1; stroke-width: 2px;"/></g><g class="legendsymbols"><g class="legendpoints"/></g></g><rect class="legendtoggle" x="0" y="-9.5" width="76.09375" height="19" style="fill: rgb(0, 0, 0); fill-opacity: 0;"/></g><g class="traces" transform="translate(0, 68.1)" style="opacity: 1;"><text class="legendtext" text-anchor="start" x="40" y="4.680000000000001" style="font-family: 'Open Sans', verdana, arial, sans-serif; font-size: 12px; fill: rgb(42, 63, 95); fill-opacity: 1; white-space: pre;">nz</text><g class="layers" style="opacity: 1;"><g class="legendfill"/><g class="legendlines"><path class="js-line" d="M5,0h30" style="fill: none; stroke: rgb(0, 204, 150); stroke-opacity: 1; stroke-width: 2px;"/></g><g class="legendsymbols"><g class="legendpoints"/></g></g><rect class="legendtoggle" x="0" y="-9.5" width="76.09375" height="19" style="fill: rgb(0, 0, 0); fill-opacity: 0;"/></g></g></g><rect class="scrollbar" rx="20" ry="3" width="0" height="0" x="0" y="0" style="fill: rgb(128, 139, 164); fill-opacity: 1;"/></g><g class="g-gtitle"/><g class="g-xtitle"><text class="xtitle" x="338" y="461.8" text-anchor="middle" style="font-family: 'Open Sans', verdana, arial, sans-serif; font-size: 14px; fill: rgb(42, 63, 95); opacity: 1; font-weight: normal; white-space: pre;">Date</text></g><g class="g-ytitle"><text class="ytitle" transform="rotate(-90,30.418750000000003,260)" x="30.418750000000003" y="260" text-anchor="middle" style="font-family: 'Open Sans', verdana, arial, sans-serif; font-size: 14px; fill: rgb(42, 63, 95); opacity: 1; font-weight: normal; white-space: pre;">valence</text></g></g></svg>